<?xml version="1.0" encoding="UTF-8" standalone="no"?>
<svg
   xmlns:dc="http://purl.org/dc/elements/1.1/"
   xmlns:cc="http://creativecommons.org/ns#"
   xmlns:rdf="http://www.w3.org/1999/02/22-rdf-syntax-ns#"
   xmlns:svg="http://www.w3.org/2000/svg"
   xmlns="http://www.w3.org/2000/svg"
   xmlns:xlink="http://www.w3.org/1999/xlink"
   xmlns:sodipodi="http://sodipodi.sourceforge.net/DTD/sodipodi-0.dtd"
   xmlns:inkscape="http://www.inkscape.org/namespaces/inkscape"
   width="870"
   height="530"
   version="1.1"
   viewBox="0 0 870 530"
   id="svg275"
   sodipodi:docname="pro-min.svg"
   inkscape:version="1.0.2 (unknown)">
  <sodipodi:namedview
     pagecolor="#ffffff"
     bordercolor="#666666"
     borderopacity="1"
     objecttolerance="10"
     gridtolerance="10"
     guidetolerance="10"
     inkscape:pageopacity="0"
     inkscape:pageshadow="2"
     inkscape:window-width="1366"
     inkscape:window-height="699"
     id="namedview277"
     showgrid="false"
     inkscape:zoom="0.7816092"
     inkscape:cx="435"
     inkscape:cy="265"
     inkscape:window-x="0"
     inkscape:window-y="0"
     inkscape:window-maximized="1"
     inkscape:current-layer="g273" />
  <title
     id="title2">Be Professional</title>
  <metadata
     id="metadata4">
    <rdf:RDF>
      <cc:Work
         rdf:about="">
        <dc:format>image/svg+xml</dc:format>
        <dc:type
           rdf:resource="http://purl.org/dc/dcmitype/StillImage" />
        <dc:title>Be Professional</dc:title>
        <cc:license
           rdf:resource="http://creativecommons.org/licenses/by-nc-sa/4.0/" />
        <dc:creator>
          <cc:Agent>
            <dc:title>Hervy Qurrotul Ainur Rozi</dc:title>
          </cc:Agent>
        </dc:creator>
        <dc:rights>
          <cc:Agent>
            <dc:title>LangitKetujuh ID</dc:title>
          </cc:Agent>
        </dc:rights>
        <dc:date>10 December 2020</dc:date>
      </cc:Work>
      <cc:License
         rdf:about="http://creativecommons.org/licenses/by-nc-sa/4.0/">
        <cc:permits
           rdf:resource="http://creativecommons.org/ns#Reproduction" />
        <cc:permits
           rdf:resource="http://creativecommons.org/ns#Distribution" />
        <cc:requires
           rdf:resource="http://creativecommons.org/ns#Notice" />
        <cc:requires
           rdf:resource="http://creativecommons.org/ns#Attribution" />
        <cc:prohibits
           rdf:resource="http://creativecommons.org/ns#CommercialUse" />
        <cc:permits
           rdf:resource="http://creativecommons.org/ns#DerivativeWorks" />
        <cc:requires
           rdf:resource="http://creativecommons.org/ns#ShareAlike" />
      </cc:License>
    </rdf:RDF>
  </metadata>
  <defs
     id="defs31">
    <style
       id="style6">.cls-1{fill:#2e186a;}.cls-2,.cls-6{fill:#fff;}.cls-11,.cls-2,.cls-3{stroke:#2e186a;}.cls-11,.cls-2,.cls-3,.cls-8,.cls-9{stroke-linecap:round;stroke-linejoin:round;}.cls-2,.cls-3,.cls-8,.cls-9{stroke-width:6px;}.cls-11,.cls-3,.cls-8,.cls-9{fill:none;}.cls-4{fill:#fe7624;}.cls-5{fill:#feba91;}.cls-7{fill:#5d21d1;}.cls-8{stroke:#fff;}.cls-9{stroke:#fffdfd;}.cls-10{fill:#968bb4;}.cls-11{stroke-width:8px;}</style>
    <linearGradient
       id="linearGradient2712">
      <stop
         stop-color="#fff"
         stop-opacity=".1"
         offset="0"
         id="stop8" />
      <stop
         stop-color="#fff"
         stop-opacity=".02"
         offset="1"
         id="stop10" />
    </linearGradient>
    <linearGradient
       id="linearGradient1290"
       x1="217.37"
       x2="147.39"
       y1="178.62"
       y2="210.79"
       gradientUnits="userSpaceOnUse">
      <stop
         stop-color="#fff"
         stop-opacity=".20591"
         offset="0"
         id="stop13" />
      <stop
         stop-color="#fff"
         stop-opacity=".10407"
         offset="1"
         id="stop15" />
    </linearGradient>
    <linearGradient
       id="linearGradient1643"
       x1="1495.5"
       x2="1474.2"
       y1="719.23"
       y2="790.16"
       gradientUnits="userSpaceOnUse"
       xlink:href="#linearGradient1124-0" />
    <linearGradient
       id="linearGradient1124-0">
      <stop
         stop-color="#fff"
         stop-opacity=".15527"
         offset="0"
         id="stop19" />
      <stop
         stop-color="#fff"
         stop-opacity=".016287"
         offset="1"
         id="stop21" />
    </linearGradient>
    <linearGradient
       id="linearGradient2734-7-6"
       x1="1415.5"
       x2="1275.1"
       y1="127.37"
       y2="753.71"
       gradientUnits="userSpaceOnUse"
       xlink:href="#linearGradient2712" />
    <linearGradient
       id="linearGradient2734-5"
       x1="1377.3"
       x2="1275.1"
       y1="398.49"
       y2="753.71"
       gradientUnits="userSpaceOnUse"
       xlink:href="#linearGradient2712" />
    <linearGradient
       id="linearGradient1136"
       x1="-164.4"
       x2="-509.61"
       y1="664.98"
       y2="821.87"
       gradientUnits="userSpaceOnUse"
       xlink:href="#linearGradient1124-0" />
    <linearGradient
       id="linearGradient1175"
       x1="479.25"
       x2="307.27"
       y1="462.3"
       y2="638.84"
       gradientUnits="userSpaceOnUse"
       xlink:href="#linearGradient2712" />
    <linearGradient
       id="linearGradient1177"
       x1="359.27"
       x2="292.8"
       y1="381.82"
       y2="441.39"
       gradientUnits="userSpaceOnUse"
       xlink:href="#linearGradient2712" />
    <linearGradient
       id="linearGradient1179"
       x1="342.68"
       x2="204.3"
       y1="454.45"
       y2="720.11"
       gradientUnits="userSpaceOnUse"
       xlink:href="#linearGradient2712" />
    <linearGradient
       id="linearGradient504"
       x1="1232.3"
       x2="944.46"
       y1="545.09"
       y2="830.89"
       gradientUnits="userSpaceOnUse"
       xlink:href="#linearGradient2712" />
    <linearGradient
       inkscape:collect="always"
       xlink:href="#linearGradient1290"
       id="linearGradient1095"
       gradientUnits="userSpaceOnUse"
       x1="217.37"
       y1="178.62"
       x2="147.39"
       y2="210.78999" />
  </defs>
  <g
     transform="matrix(0.874,0,0,0.874,100.5,96.31)"
     id="g273">
    <g
       transform="matrix(5.2331,0,0,5.2331,-804.86,-278.57)"
       stroke-width="0.82634"
       id="g37">
      <path
         d="m 220.1,79.31 h 57.705 c 0,0 -1.5113,-5.4843 -5.2037,-7.4308 -3.6925,-1.9465 -9.6518,2.2709 -12.039,-0.74155 -2.3872,-3.0125 -4.7057,-16.113 -9.4802,-17.256 -4.7744,-1.1432 -7.505,14.753 -11.18,14.769 -3.6752,0.01719 -6.4918,0.35519 -7.9859,3.8776 -1.4942,3.5223 -17.26,6.7819 -11.816,6.7819 z"
         fill="#d4e4fc"
         fill-opacity="0.99148"
         id="path33" />
      <path
         transform="scale(0.26458)"
         d="m 944.67,213.69 c -6.5922,-0.39042 -13.915,15.59 -20.635,31.146 -14.481,33.523 -27.752,23.103 -38.524,33.332 -17.995,17.087 -53.65,21.584 -53.65,21.584 h 218.1 c 0,0 -7.0518,-25.531 -36.227,-19.822 -29.175,5.7084 -42.165,17.586 -54.814,-36.051 -5.1389,-21.79 -9.7376,-29.922 -14.248,-30.189 z"
         fill="#b7cada"
         stop-color="#000000"
         style="font-variation-settings:normal"
         id="path35" />
    </g>
    <g
       transform="matrix(7.0413,0,0,7.0413,996.57,-1013)"
       stroke-width="1.1031"
       id="g47">
      <path
         d="m -30.922,214.34 a 49.954,49.954 0 0 0 -24.977,-43.261 49.954,49.954 0 0 0 -49.954,0 49.954,49.954 0 0 0 -24.977,43.261"
         fill="#f06ea9"
         fill-rule="evenodd"
         stop-color="#000000"
         style="font-variation-settings:normal;paint-order:stroke fill markers"
         id="path39" />
      <path
         transform="scale(0.26458)"
         d="m -306.18,621.31 a 188.8,188.8 0 0 0 -93.889,25.295 188.8,188.8 0 0 0 -46.902,38.289 207.07,147.88 0 0 1 6.6328,-2.8535 207.07,147.88 0 0 1 207.07,0 207.07,147.88 0 0 1 103.54,128.07 h 12.861 a 188.8,188.8 0 0 0 -94.4,-163.51 188.8,188.8 0 0 0 -94.91,-25.295 z"
         fill="#f07da9"
         fill-rule="evenodd"
         stop-color="#000000"
         style="font-variation-settings:normal;paint-order:stroke fill markers"
         id="path41" />
      <path
         transform="scale(0.26458)"
         d="m -455.56,695.32 a 188.8,188.8 0 0 0 -38.91,114.8 h 172.99 c -35.308,-8.2652 -69.743,-21.212 -90.723,-41.51 -31.988,-30.948 -40.924,-58.59 -43.361,-73.287 z"
         fill="#d96598"
         stop-color="#000000"
         style="font-variation-settings:normal;paint-order:stroke fill markers"
         id="path43" />
      <path
         transform="scale(0.26458)"
         d="m -306.18,621.31 a 188.8,188.8 0 0 0 -93.889,25.295 188.8,188.8 0 0 0 -53.734,46.449 c 38.854,-33.411 95.55,-68.851 152.6,-57.395 92.156,18.506 -134.12,87.659 -178.27,100.73 a 188.8,188.8 0 0 0 -5.8262,15.617 c 25.937,-2.2251 87.621,-9.0949 164.42,-28.381 58.612,-14.718 101.95,-43.127 128.3,-64.699 a 188.8,188.8 0 0 0 -18.684,-12.318 188.8,188.8 0 0 0 -94.91,-25.295 z m 140.05,61.619 c -15.246,10.237 -38.654,24.599 -67.863,38.164 -64.445,29.929 -177.86,40.791 -225.9,44.137 -12.47,0.86845 -21.983,1.4069 -29.578,1.7695 a 188.8,188.8 0 0 0 -1.8574,8.8672 c 48.671,-0.95232 166.99,-5.7958 247.7,-30.281 43.873,-13.309 75.083,-26.702 96.617,-37.818 a 188.8,188.8 0 0 0 -19.117,-24.838 z m 43.014,79.002 c -25.503,13.421 -67.147,33.083 -116.89,48.18 h 28.34 c 29.124,-9.1622 58.229,-19.926 81.938,-32.01 3.2591,-1.6612 6.3004,-3.1828 9.2715,-4.6621 a 188.8,188.8 0 0 0 -2.6562,-11.508 z"
         fill="url(#linearGradient1136)"
         id="path45" />
    </g>
    <g
       transform="matrix(3.9203,0,0,3.9203,-3.8168,-104.89)"
       stroke-width="1.1031"
       id="g53">
      <path
         d="m 167.3,68.904 c -2.0294,0 -3.4532,-8.5098 -6.0942,-9.1421 -4.7744,-1.1432 -7.5054,14.754 -11.181,14.769 -3.6752,0.0172 -6.4916,0.35492 -7.9856,3.8773 -1.4942,3.5223 -17.26,6.7821 -11.816,6.7821 h 89.611 c 0,0 -2.2539,-6.7534 -7.7603,-9.1504 -5.5066,-2.397 -14.394,2.7966 -17.954,-0.91313 -3.56,-3.7096 -7.4959,-20.63 -13.382,-20.63 -6.4125,0 -11.04,14.407 -13.438,14.407 z"
         fill="#c9e9fc"
         stop-color="#000000"
         style="font-variation-settings:normal"
         id="path49" />
      <path
         transform="scale(0.26458)"
         d="m 670.85,218.92 c -6.9467,0.19074 -14.275,9.7268 -23.713,27.625 -20.827,39.499 -32.242,38.771 -43.486,6.5892 -11.244,-32.182 -22.147,28.773 -35.35,39.117 -13.203,10.344 -16.354,-6.2826 -24.574,3.9466 -8.2201,10.229 -45.998,25.777 -45.998,25.777 h 333.13 c 0,0 -22.304,-34.551 -62.51,-27.271 -40.206,7.2792 -64.483,28.043 -75.812,-24.482 -6.1957,-28.725 -13.306,-51.532 -21.69,-51.302 z"
         fill="#b7cada"
         stop-color="#000000"
         style="font-variation-settings:normal"
         id="path51" />
    </g>
    <g
       transform="matrix(2.8915,0,0,3.2675,-409.61,-201.07)"
       id="g63">
      <path
         d="m 346.22,213.4 c 0,-34.518 -30.48,-131.25 -50.847,-131.25 -20.367,0 -50.847,96.729 -50.847,131.25"
         fill="#f79062"
         fill-rule="evenodd"
         stop-color="#000000"
         style="font-variation-settings:normal;paint-order:stroke fill markers"
         id="path55" />
      <path
         transform="scale(0.26458)"
         d="m 1116.4,310.49 c -16.687,0 -35.172,17.2 -53.889,45.443 23.639,0.008 50.727,10.615 74.018,47.08 50.846,79.607 101.89,282.55 118.68,403.52 h 53.365 c 0,-130.46 -115.2,-496.05 -192.18,-496.05 z"
         fill="#f9b191"
         id="path57" />
      <path
         transform="scale(0.26458)"
         d="M 1031.8,411.33 C 975.089,529.41 924.23,719.86 924.23,806.54 h 237.3 c -52.526,-17.162 -110.15,-48.645 -136.67,-106.25 -39.365,-85.501 -11.844,-219.7 6.9355,-288.96 z"
         fill="#d5784e"
         id="path59" />
      <path
         transform="scale(0.26458)"
         d="m 1172.4,359.2 c -0.4023,40.288 -12.317,93.322 -52.391,156.18 -48.891,76.691 -122.6,141.51 -182.57,186.36 -4.5314,22.391 -8.0363,43.409 -10.293,62.219 59.541,-28.76 137.42,-70.246 203.25,-118.23 51.608,-37.618 88.279,-85.319 113.61,-128.59 -21.766,-62.162 -46.835,-119.51 -71.606,-157.95 z m 86.023,201.3 c -22.112,36.185 -52.349,73.696 -93.18,104.07 -63.104,46.944 -161.56,90.498 -240.2,121.08 -0.53815,7.475 -0.82422,14.472 -0.82422,20.883 h 29.535 c 72.84702,-21.576 160.73002,-53.418 225.23002,-95.4 43.117,-28.064 76.223,-53.2 101.32,-74.35 -6.4752,-25.073 -13.838,-50.799 -21.875,-76.287 z m 38.172,147.57 c -36.033,20.441 -79.508,43.228 -123.31,61.689 -32.317,13.621 -66.36,26.051 -98.131,36.777 h 95.26 c 45.605,-13.384 92.683,-29.032 134.71,-46.568 -2.0288,-15.966 -4.9112,-33.419 -8.5312,-51.898 z"
         fill="url(#linearGradient504)"
         id="path61" />
    </g>
    <g
       transform="matrix(2.3747,0,0,2.3747,923.2,-12.795)"
       stroke-width="1.1031"
       id="g73">
      <path
         d="m -30.922,214.34 a 49.954,49.954 0 0 0 -24.977,-43.261 49.954,49.954 0 0 0 -49.954,0 49.954,49.954 0 0 0 -24.977,43.261"
         fill="#e26f84"
         fill-rule="evenodd"
         stop-color="#000000"
         style="font-variation-settings:normal;paint-order:stroke fill markers"
         id="path65" />
      <path
         transform="scale(0.26458)"
         d="m -306.18,621.31 a 188.8,188.8 0 0 0 -93.889,25.295 188.8,188.8 0 0 0 -46.902,38.289 207.07,147.88 0 0 1 6.6328,-2.8535 207.07,147.88 0 0 1 207.07,0 207.07,147.88 0 0 1 103.54,128.07 h 12.861 a 188.8,188.8 0 0 0 -94.4,-163.51 188.8,188.8 0 0 0 -94.91,-25.295 z"
         fill="#e28294"
         fill-rule="evenodd"
         stop-color="#000000"
         style="font-variation-settings:normal;paint-order:stroke fill markers"
         id="path67" />
      <path
         transform="scale(0.26458)"
         d="m -455.56,695.32 a 188.8,188.8 0 0 0 -38.91,114.8 h 172.99 c -35.308,-8.2652 -69.743,-21.212 -90.723,-41.51 -31.988,-30.948 -40.924,-58.59 -43.361,-73.287 z"
         fill="#c15469"
         stop-color="#000000"
         style="font-variation-settings:normal;paint-order:stroke fill markers"
         id="path69" />
      <path
         transform="scale(0.26458)"
         d="m -306.18,621.31 a 188.8,188.8 0 0 0 -93.889,25.295 188.8,188.8 0 0 0 -53.734,46.449 c 38.854,-33.411 95.55,-68.851 152.6,-57.395 92.156,18.506 -134.12,87.659 -178.27,100.73 a 188.8,188.8 0 0 0 -5.8262,15.617 c 25.937,-2.2251 87.621,-9.0949 164.42,-28.381 58.612,-14.718 101.95,-43.127 128.3,-64.699 a 188.8,188.8 0 0 0 -18.684,-12.318 188.8,188.8 0 0 0 -94.91,-25.295 z m 140.05,61.619 c -15.246,10.237 -38.654,24.599 -67.863,38.164 -64.445,29.929 -177.86,40.791 -225.9,44.137 -12.47,0.86845 -21.983,1.4069 -29.578,1.7695 a 188.8,188.8 0 0 0 -1.8574,8.8672 c 48.671,-0.95232 166.99,-5.7958 247.7,-30.281 43.873,-13.309 75.083,-26.702 96.617,-37.818 a 188.8,188.8 0 0 0 -19.117,-24.838 z m 43.014,79.002 c -25.503,13.421 -67.147,33.083 -116.89,48.18 h 28.34 c 29.124,-9.1622 58.229,-19.926 81.938,-32.01 3.2591,-1.6612 6.3004,-3.1828 9.2715,-4.6621 a 188.8,188.8 0 0 0 -2.6562,-11.508 z"
         fill="url(#linearGradient1136)"
         id="path71" />
    </g>
    <g
       transform="matrix(3.0077,0,0,3.0077,-252.69,-77.439)"
       stroke-width="1.4377"
       id="g133">
      <g
         transform="matrix(0.46663,0,0,0.43863,153.72,107.07)"
         stroke-width="1.4377"
         id="g83">
        <path
           d="m 311.6,190.72 c -6.7783,-1e-5 -7.792,-100.97 -7.792,-117.06 0,-16.084 5.4949,-29.122 12.273,-29.122 6.7783,-3e-6 12.273,13.038 12.273,29.122 0,16.084 -1.0138,117.06 -7.7921,117.06"
           fill="#425b2a"
           fill-rule="evenodd"
           stop-color="#000000"
           style="font-variation-settings:normal;paint-order:stroke fill markers"
           id="path75" />
        <path
           transform="matrix(0.26458,0,0,0.26458,-31.765,-22.795)"
           d="m 1314.7,254.52 c -3.5243,1e-5 -6.9546,0.93819 -10.254,2.7051 12.707,4.2075 25.669,21.848 32.774,70.002 12.85,87.092 10.242,322.37 8.1718,433.23 13.342,-103.66 15.695,-348.25 15.695,-395.88 0,-60.789 -20.768,-110.07 -46.387,-110.07 z"
           fill="#537236"
           id="path77" />
        <path
           transform="matrix(0.26458,0,0,0.26458,-31.765,-22.795)"
           d="m 1291.7,269.01 c -13.968,18.967 -23.387,54.646 -23.387,95.568 0,60.788 3.8307,442.42 29.449,442.42 h 15.394 c -4.4217,-53.573 -14.105,-172.19 -25.232,-317.01 -9.8535,-128.24 -2.5487,-192.01 3.7754,-220.97 z"
           fill="#364b23"
           stop-color="#000000"
           style="font-variation-settings:normal"
           id="path79" />
        <path
           transform="matrix(0.26458,0,0,0.26458,-31.765,-22.795)"
           d="m 1314.7,254.52 c -17.452,3e-5 -32.645,22.88 -40.562,56.678 19.817,-28.466 40.479,-43.329 55.92,-25.709 19.593,22.358 -28.53,107.41 -60.969,159.03 0.1463,9.5986 0.3211,19.61 0.5215,30.16 33.849,-31.177 67.015,-64.038 91.447,-101.07 0.012,-3.1572 0.029,-6.7329 0.029,-9.0195 0,-60.789 -20.768,-110.07 -46.387,-110.07 z m 45.537,195.01 c -13.753,33.186 -55.752,73.554 -88.795,101.75 0.57,19.191 1.2369,38.676 2.0156,57.896 15.976,-7.9406 33.152,-16.463 49.609,-24.57 12.115,-5.968 23.84,-13.412 34.512,-21.094 1.2911,-40.717 2.1227,-80.234 2.6582,-113.98 z m -5.5976,189.05 c -21.213,22.945 -45.628,44.408 -69.006,53.549 -2.5945,1.0145 -5.1325,1.9732 -7.6445,2.9062 0.8459,12.346 1.7582,24.1 2.7519,34.998 24.116,-5.7468 49.26,-14.5 70.172,-27.812 1.4284,-19.776 2.6595,-41.31 3.7266,-63.641 z m -6.1426,93.316 c -17.93,9.0186 -37.578,16.863 -57.414,21.078 -2.8891,0.61386 -5.1063,1.0682 -7.7968,1.6348 0.7056,5.9288 1.4433,11.478 2.2148,16.551 20.222,-3.7566 41.744,-8.106 60.135,-12.631 1.0165,-8.1121 1.9704,-17.03 2.8613,-26.633 z"
           fill="url(#linearGradient2734-7-6)"
           id="path81" />
      </g>
      <g
         id="g91">
        <path
           d="m 324.11,121.75 c -3.407,6.2612 -3.5033,14.241 0.39252,16.361 3.8958,2.1199 10.308,-2.4229 13.715,-8.6841 3.407,-6.2612 3.0107,-13.055 -0.88508,-15.175 -3.8958,-2.1198 -9.8158,1.2374 -13.223,7.4986 z"
           fill="#59793b"
           fill-rule="evenodd"
           stop-color="#000000"
           style="font-variation-settings:normal;paint-order:stroke fill markers"
           id="path85" />
        <path
           transform="matrix(0.26458,0,0,0.26458,-31.765,-22.795)"
           d="m 1384.4,515.56 c -8.5237,0.28619 -17.998,5.1128 -26.357,13.295 10.964,-5.3371 28.847,-11.047 37.607,-1.8066 6.6136,6.9755 7.2831,25.061 6.541,40.043 8.4845,-21.123 5.8204,-42.052 -7.2109,-49.143 -3.2209,-1.7526 -6.8065,-2.5154 -10.58,-2.3887 z"
           fill="#6f954b"
           id="path87" />
        <path
           transform="matrix(0.26458,0,0,0.26458,-31.765,-22.795)"
           d="m 1348.8,540.12 c -1.3144,1.9621 -2.5641,4.0192 -3.7344,6.1699 -12.877,23.664 -13.242,53.824 1.4824,61.836 9.0075,4.9014 21.573,0.36763 32.922,-9.3008 -9.432,-3.6174 -20.988,-11.028 -27.33,-26.186 -6.22,-14.867 -5.8322,-24.996 -3.3398,-32.52 z"
           fill="#445e2b"
           id="path89" />
      </g>
      <path
         transform="matrix(0.26458,0,0,0.26458,-31.765,-22.795)"
         d="m 1384.4,515.56 c -5.346,0.1795 -11.068,2.146 -16.652,5.6035 5.0001,6.5378 4.1179,15.844 -2.5938,26.074 -4.1211,6.2819 -17.014,17.912 -29.385,28.379 -0.3625,3.4108 -0.4639,6.727 -0.2872,9.8691 13.558,-6.7272 29.657,-15.847 41.428,-26.104 12.057,-10.505 21.168,-21.986 27.32,-30.938 -2.0233,-4.6017 -5.1144,-8.2458 -9.25,-10.496 -3.2209,-1.7526 -6.8065,-2.5154 -10.58,-2.3887 z m 22.611,25.398 c -10.114,14.78 -27.991,36.543 -51.396,47.465 -6.7708,3.1596 -12.631,5.7939 -18.066,8.1973 0.9184,2.6309 2.1423,4.9604 3.664,6.9238 15.021,-5.281 31.845,-11.546 44.812,-17.42 2.8613,-1.2961 5.3995,-2.4185 7.7832,-3.459 1.6173,-2.3663 3.1361,-4.8244 4.5176,-7.3633 6.3968,-11.756 9.2428,-24.007 8.6855,-34.344 z m -17.461,47.424 c -7.3393,3.7474 -14.308,7.3427 -17.965,9.3887 -5.7275,3.2043 -16.359,7.3305 -24.898,10.449 1.8145,0.95453 3.7692,1.5363 5.8281,1.7715 6.693,-2.1794 13.819,-4.5059 21.522,-7.041 5.4399,-3.7294 10.773,-8.7278 15.514,-14.568 z"
         fill="#ffffff"
         fill-opacity="0.05"
         id="path93" />
      <path
         d="m 341.38,115.64 c 0,0 -2.4868,0.57575 -1.923,3.1143 0.56375,2.5386 3.2445,1.902 3.2445,1.902 0.0305,-0.82533 -0.0912,-1.389 -1.036,-1.8765 l 1.0632,-0.9005 -1.3893,-0.23472 c 0,0 0.46118,-0.70688 0.0407,-2.0046 z"
         fill="#e2e26c"
         id="path95" />
      <g
         stroke-width="1.4377"
         id="g117">
        <g
           id="g105">
          <path
             d="m 311.6,190.72 c -6.7783,-1e-5 -7.792,-100.97 -7.792,-117.06 0,-16.084 5.4949,-29.122 12.273,-29.122 6.7783,-3e-6 12.273,13.038 12.273,29.122 0,16.084 -1.0138,117.06 -7.7921,117.06"
             fill="#3c5326"
             fill-rule="evenodd"
             stop-color="#000000"
             style="font-variation-settings:normal;paint-order:stroke fill markers"
             id="path97" />
          <path
             transform="matrix(0.26458,0,0,0.26458,-31.765,-22.795)"
             d="m 1314.7,254.52 c -3.5243,1e-5 -6.9546,0.93819 -10.254,2.7051 12.707,4.2075 25.669,21.848 32.774,70.002 12.85,87.092 10.242,322.37 8.1718,433.23 13.342,-103.66 15.695,-348.25 15.695,-395.88 0,-60.789 -20.768,-110.07 -46.387,-110.07 z"
             fill="#537236"
             id="path99" />
          <path
             transform="matrix(0.26458,0,0,0.26458,-31.765,-22.795)"
             d="m 1291.7,269.01 c -13.968,18.967 -23.387,54.646 -23.387,95.568 0,60.788 3.8307,442.42 29.449,442.42 h 15.394 c -4.4217,-53.573 -14.105,-172.19 -25.232,-317.01 -9.8535,-128.24 -2.5487,-192.01 3.7754,-220.97 z"
             fill="#364b23"
             id="path101" />
          <path
             transform="matrix(0.26458,0,0,0.26458,-31.765,-22.795)"
             d="m 1314.7,254.52 c -17.452,3e-5 -32.645,22.88 -40.562,56.678 19.817,-28.466 40.479,-43.329 55.92,-25.709 19.593,22.358 -28.53,107.41 -60.969,159.03 0.1463,9.5986 0.3211,19.61 0.5215,30.16 33.849,-31.177 67.015,-64.038 91.447,-101.07 0.012,-3.1572 0.029,-6.7329 0.029,-9.0195 0,-60.789 -20.768,-110.07 -46.387,-110.07 z m 45.537,195.01 c -13.753,33.186 -55.752,73.554 -88.795,101.75 0.57,19.191 1.2369,38.676 2.0156,57.896 15.976,-7.9406 33.152,-16.463 49.609,-24.57 12.115,-5.968 23.84,-13.412 34.512,-21.094 1.2911,-40.717 2.1227,-80.234 2.6582,-113.98 z m -5.5976,189.05 c -21.213,22.945 -45.628,44.408 -69.006,53.549 -2.5945,1.0145 -5.1325,1.9732 -7.6445,2.9062 0.8459,12.346 1.7582,24.1 2.7519,34.998 24.116,-5.7468 49.26,-14.5 70.172,-27.812 1.4284,-19.776 2.6595,-41.31 3.7266,-63.641 z m -6.1426,93.316 c -17.93,9.0186 -37.578,16.863 -57.414,21.078 -2.8891,0.61386 -5.1063,1.0682 -7.7968,1.6348 0.7056,5.9288 1.4433,11.478 2.2148,16.551 20.222,-3.7566 41.744,-8.106 60.135,-12.631 1.0165,-8.1121 1.9704,-17.03 2.8613,-26.633 z"
             fill="url(#linearGradient2734-5)"
             id="path103" />
        </g>
        <path
           transform="matrix(0.26458,0,0,0.26458,-31.765,-22.795)"
           d="m 1316.9,308.94 -45.293,14.807 c -0.4149,2.4618 -0.8001,4.9581 -1.1406,7.5039 l 46.604,-15.873 z m -10.988,34.328 -37.58,17.912 c -0.014,1.1314 -0.035,2.2587 -0.035,3.3984 v 0.69531 l 39.316,-16.029 z m 8.0058,34.174 -45.527,8.1152 c 0.014,2.0921 0.034,4.3945 0.053,6.6816 l 46.412,-6.3691 z m -7.2402,28.656 -38.018,8.0391 c 0.022,1.9447 0.042,3.8192 0.066,5.8398 l 38.037,-7.1348 z m -37.617,37.787 c 0.043,2.8638 0.081,5.6146 0.1289,8.5723 l 29.566,-0.61524 0.4258,-7.8144 z m 38.129,24.201 -37.432,15.189 c 0.037,1.8222 0.065,3.5358 0.1035,5.3789 l 39.287,-13.9 z m -23.256,43.369 -13.455,3.9727 c 0.052,2.1136 0.099,4.1806 0.1523,6.3106 l 15.943,-3.6172 z m 19.592,29.5 -32.277,4.1992 c 0.059,2.0575 0.1145,4.0969 0.1758,6.1621 l 31.42,-3.3887 z m 5.4531,37.547 -35.928,20.574 c 0.113,2.9477 0.2196,5.9042 0.3379,8.8418 l 37.975,-23.67 z m 9.625,75.014 -42.709,7.6211 c 0.086,1.5822 0.1694,3.19 0.2578,4.7598 l 41.77,-4.6426 z m -4.5996,36.994 -35.279,15.055 c 0.1782,2.4033 0.3569,4.7938 0.541,7.1406 l 36.186,-12.156 z m -1.7031,45.668 -30.199,7.9785 c 0.1713,1.628 0.3441,3.2279 0.5196,4.8066 l 28.146,-7.8047 z m -6.7305,29.807 -20.379,3.1602 c 0.3403,2.3146 0.6853,4.5563 1.0391,6.6875 l 19.256,-3.9473 z m 22.658,20.842 -37.656,8.9492 c 1.0862,3.5867 2.2224,6.4134 3.4141,8.3047 l 34.414,-11.201 z"
           fill="#23291e"
           fill-opacity="0.5"
           id="path107" />
        <g
           fill="#ffd4eb"
           id="g115">
          <path
             d="m 322.76,43.991 c 0,0 -3.0128,2.2381 -0.76041,5.3278 2.2524,3.0897 5.4909,0.65556 5.4909,0.65556 -0.44423,-1.1302 -0.93958,-1.8184 -2.4996,-1.9198 l 0.90337,-1.8387 -2.0104,0.50059 c 0,0 0.20589,-1.2238 -1.1239,-2.7255 z"
             stop-color="#000000"
             style="font-variation-settings:normal"
             id="path109" />
          <path
             d="m 306.68,53.575 c 0,0 3.0128,2.2381 0.76041,5.3278 -2.2524,3.0897 -5.4909,0.65556 -5.4909,0.65556 0.44423,-1.1302 0.93958,-1.8184 2.4996,-1.9198 l -0.90337,-1.8387 2.0104,0.50059 c 0,0 -0.20589,-1.2238 1.1239,-2.7255 z"
             id="path111" />
          <path
             d="m 327.8,105.5 c 0,0 -2.8079,2.0859 -0.70869,4.9655 2.0992,2.8796 5.1175,0.61098 5.1175,0.61098 -0.41402,-1.0533 -0.87568,-1.6947 -2.3296,-1.7892 l 0.84193,-1.7137 -1.8737,0.46655 c 0,0 0.19189,-1.1406 -1.0474,-2.5401 z"
             stop-color="#000000"
             style="font-variation-settings:normal"
             id="path113" />
        </g>
      </g>
      <g
         transform="rotate(-27.556,301.98,89.02)"
         stroke-width="1.4377"
         id="g131">
        <g
           id="g125">
          <path
             d="m 301.27,71.852 c 4.3975,8.0816 7.9448,24.31 2.9163,27.046 -5.0285,2.7362 -16.729,-9.0562 -21.126,-17.138 -4.3975,-8.0816 -3.886,-16.851 1.1424,-19.587 5.0285,-2.7362 12.67,1.5971 17.067,9.6788 z"
             fill="#567539"
             fill-rule="evenodd"
             stop-color="#000000"
             style="font-variation-settings:normal;paint-order:stroke fill markers"
             id="path119" />
          <path
             transform="matrix(0.26458,0,0,0.26458,-31.765,-22.795)"
             d="m 1205.8,318.06 c -4.1119,0.14307 -8.0225,1.143 -11.586,3.082 -0.7164,0.38979 -1.3987,0.82218 -2.0664,1.2754 17.727,-2.0256 33.912,0.41394 52.033,26.994 22.449,32.928 34.848,84.58 32.461,100.18 -0.128,0.83606 -0.2752,1.6668 -0.4258,2.4941 8.42,-20.25 -3.3767,-68.413 -17.496,-94.361 -13.504,-24.817 -35.102,-40.282 -52.92,-39.662 z"
             fill="#6f954b"
             id="path121" />
          <path
             transform="matrix(0.26458,0,0,0.26458,-31.765,-22.795)"
             d="m 1179.1,346.27 c -1.95,14.21 1.5507,31.953 10.774,48.902 16.62,30.545 60.84,75.115 79.846,64.773 1.5517,-0.84438 2.884,-2.0339 4.0195,-3.5137 -4.8941,-9.6918 -17.198,-27.233 -47.926,-49.301 -34.183,-24.55 -43.635,-47.175 -46.713,-60.861 z"
             fill="#425a2a"
             id="path123" />
        </g>
        <path
           transform="matrix(0.26458,0,0,0.26458,-31.765,-22.795)"
           d="m 1205.8,318.06 c -4.1119,0.14307 -8.0225,1.143 -11.586,3.082 -10.128,5.5109 -15.404,17.497 -15.611,32.115 5.6326,-10.03 13.829,-18.898 25.623,-20.762 19.509,-3.0821 -5.7663,31.006 -20.428,49.178 0.9586,2.6277 2.0425,5.2624 3.2696,7.8906 15.335,-4.3626 40.903,-13.534 53.178,-28.773 4.3931,-5.454 7.9416,-10.498 10.82,-15.029 -13.193,-17.702 -30.521,-28.214 -45.266,-27.701 z m 56.303,46.41 c -6.561,8.8535 -18.787,19.901 -41.543,29.059 -10.031,4.0366 -18.742,6.9667 -26.24,9.0801 3.1196,4.8869 6.7684,9.9638 10.777,15.006 18.947,-1.6752 40.877,-6.1635 57.514,-17.039 3.7364,-2.4426 7.0365,-4.6839 10.1,-6.8086 -2.9026,-10.49 -6.5894,-20.678 -10.608,-29.297 z m 16.732,63.52 c -16.18,6.5222 -36.021,12.741 -52.527,12.539 3.0444,2.8006 6.1143,5.4114 9.1602,7.7871 10.783,-0.77489 22.896,-2.7116 35.688,-6.6367 2.6841,-0.82367 5.2403,-1.6408 7.7011,-2.4492 0.2365,-3.4927 0.2247,-7.2616 -0.021,-11.24 z"
           fill="#ffffff"
           fill-opacity="0.07"
           id="path127" />
        <path
           d="m 285.82,58.455 c 0,0 1.6357,3.378 -1.7906,5.0752 -3.4262,1.6972 -5.1713,-1.959 -5.1713,-1.959 0.91668,-0.7965 1.6742,-1.1775 3.1042,-0.54563 l 0.0497,-2.0481 1.5508,1.3738 c 0,0 0.38361,-1.1802 2.2572,-1.8964 z"
           fill="#e2e26c"
           id="path129" />
      </g>
    </g>
    <g
       transform="matrix(2.2994,0,0,2.2994,236.9,3.3435)"
       stroke-width="1.1392"
       id="g143">
      <path
         d="m -30.922,214.34 a 49.954,49.954 0 0 0 -24.977,-43.261 49.954,49.954 0 0 0 -49.954,0 49.954,49.954 0 0 0 -24.977,43.261"
         fill="#2e90bf"
         fill-rule="evenodd"
         stop-color="#000000"
         style="font-variation-settings:normal;paint-order:stroke fill markers"
         id="path135" />
      <path
         transform="scale(0.26458)"
         d="m -306.18,621.31 a 188.8,188.8 0 0 0 -93.889,25.295 188.8,188.8 0 0 0 -46.902,38.289 207.07,147.88 0 0 1 6.6328,-2.8535 207.07,147.88 0 0 1 207.07,0 207.07,147.88 0 0 1 103.54,128.07 h 12.861 a 188.8,188.8 0 0 0 -94.4,-163.51 188.8,188.8 0 0 0 -94.91,-25.295 z"
         fill="#2ea4bf"
         fill-rule="evenodd"
         stop-color="#000000"
         style="font-variation-settings:normal;paint-order:stroke fill markers"
         id="path137" />
      <path
         transform="scale(0.26458)"
         d="m -455.56,695.32 a 188.8,188.8 0 0 0 -38.91,114.8 h 172.99 c -35.308,-8.2652 -69.743,-21.212 -90.723,-41.51 -31.988,-30.948 -40.924,-58.59 -43.361,-73.287 z"
         fill="#2884b0"
         stop-color="#000000"
         style="font-variation-settings:normal;paint-order:stroke fill markers"
         id="path139" />
      <path
         transform="scale(0.26458)"
         d="m -306.18,621.31 a 188.8,188.8 0 0 0 -93.889,25.295 188.8,188.8 0 0 0 -53.734,46.449 c 38.854,-33.411 95.55,-68.851 152.6,-57.395 92.156,18.506 -134.12,87.659 -178.27,100.73 a 188.8,188.8 0 0 0 -5.8262,15.617 c 25.937,-2.2251 87.621,-9.0949 164.42,-28.381 58.612,-14.718 101.95,-43.127 128.3,-64.699 a 188.8,188.8 0 0 0 -18.684,-12.318 188.8,188.8 0 0 0 -94.91,-25.295 z m 140.05,61.619 c -15.246,10.237 -38.654,24.599 -67.863,38.164 -64.445,29.929 -177.86,40.791 -225.9,44.137 -12.47,0.86845 -21.983,1.4069 -29.578,1.7695 a 188.8,188.8 0 0 0 -1.8574,8.8672 c 48.671,-0.95232 166.99,-5.7958 247.7,-30.281 43.873,-13.309 75.083,-26.702 96.617,-37.818 a 188.8,188.8 0 0 0 -19.117,-24.838 z m 43.014,79.002 c -25.503,13.421 -67.147,33.083 -116.89,48.18 h 28.34 c 29.124,-9.1622 58.229,-19.926 81.938,-32.01 3.2591,-1.6612 6.3004,-3.1828 9.2715,-4.6621 a 188.8,188.8 0 0 0 -2.6562,-11.508 z"
         fill="url(#linearGradient1136)"
         id="path141" />
    </g>
    <g
       transform="matrix(2.7679,0,0,2.7679,-928.74,-94.783)"
       stroke-width="1.3453"
       id="g153">
      <path
         d="m 374.74,189.37 c -7.2643,7e-5 -13.174,5.8499 -13.248,13.114 -0.58966,-0.2274 -1.2162,-0.34401 -1.8482,-0.34398 -2.4009,1.4e-4 -4.4813,1.6637 -5.0095,4.0058 -1.0139,-0.442 -2.108,-0.67016 -3.2141,-0.6702 -4.4424,-1.5e-4 -8.0437,3.601 -8.0438,8.0434 l 70.422,-1e-5 c 0.19327,-0.7548 0.29109,-1.5309 0.2912,-2.31 -7e-5,-5.1463 -4.172,-9.3182 -9.3183,-9.3183 -2.0844,1.3e-4 -4.1085,0.69909 -5.7489,1.9852 -1.5921,-2.2427 -4.1719,-3.5752 -6.9223,-3.5754 -1.4605,-3e-5 -2.8963,0.37671 -4.1686,1.0938 -0.63232,-6.8132 -6.3491,-12.024 -13.192,-12.024 z"
         fill="#4b6332"
         fill-rule="evenodd"
         stop-color="#000000"
         style="font-variation-settings:normal;paint-order:stroke fill markers"
         id="path145" />
      <path
         transform="scale(0.26458)"
         d="m 1416.3,715.73 v 0.002 c -19.208,1.8e-4 -35.898,10.828 -44.295,26.73 10.339,-13.173 41.525,-26.812 62.636,-10.82 28.038,21.239 21.051,43.453 21.051,43.453 0,0 19.454,-14.813 33.852,-5.4997 10.721,6.9352 8.5527,17.041 8.5527,17.041 0,0 26.14,-22.051 48.607,-7.6934 14.536,9.2894 17.219,28.059 17.219,28.059 0.7304,-2.8528 1.0991,-5.7857 1.0996,-8.7305 -3e-4,-19.451 -15.768,-35.218 -35.219,-35.219 -7.8779,4.9e-4 -15.527,2.6413 -21.726,7.502 -6.0173,-8.4763 -15.769,-13.511 -26.164,-13.512 -5.5199,-1.2e-4 -10.947,1.4225 -15.756,4.1328 -2.3898,-25.751 -23.996,-45.445 -49.857,-45.445 z"
         fill="#58753c"
         id="path147" />
      <path
         transform="scale(0.26458)"
         d="m 1358.6,764.03 c -8.7588,0.33174 -16.256,6.4972 -18.197,15.107 -3.832,-1.6705 -7.9662,-2.533 -12.146,-2.5332 -2.8002,-10e-5 -5.5089,0.38697 -8.0839,1.0957 4.3005,0.84678 9.3334,2.2323 14.486,4.5098 13.914,6.1496 27.316,13.246 27.316,13.246 0,0 -10.3,-6.6904 -10.992,-18.908 -0.4312,-7.6058 4.1189,-11.022 7.6172,-12.518 z m -48.723,18.762 c -7.3039,5.5523 -12.023,14.33 -12.023,24.213 h 119.01 c -26.221,-1.6186 -53.728,-4.0509 -70.908,-7.6738 -23.326,-4.9189 -32.5,-11.642 -36.076,-16.539 z"
         fill="#485e2c"
         id="path149" />
      <path
         transform="scale(0.26458)"
         d="m 1411.1,716 c -10.769,1.1146 -20.529,5.6434 -28.176,12.49 L 1353.11,807 h 8.0644 c 4.4278,-11.739 14.224,-37.333 23.543,-59.055 5.6612,-13.196 16.356,-24.027 26.383,-31.945 z m 19.463,1.7969 c -1.0905,3.5121 -2.3847,7.5233 -4.1641,12.674 -6.4534,18.68 -36.385,55.374 -54.504,76.529 h 33.969 l 58.143,-56.428 c -5.042,-15.823 -17.658,-28.093 -33.443,-32.775 z m 51.363,39.244 c -5.5199,-1.2e-4 -10.947,1.4225 -15.756,4.1328 l -43.016,45.826 h 13.029 l 57.424,-47.746 c -3.6748,-1.4375 -7.6275,-2.2127 -11.682,-2.2129 z m 15.01,3.7363 -52.014,46.223 h 17.502 l 45.666,-36.447 c -2.9436,-4.1465 -6.7856,-7.4621 -11.154,-9.7754 z m 32.881,2.2734 c -5.1274,3.2e-4 -10.155,1.1264 -14.752,3.248 l -27.869,40.701 h 19.98 l 37.082,-40.852 c -4.4078,-1.9849 -9.2936,-3.0976 -14.441,-3.0977 z m -177,2.043 c -1.8666,0.65726 -3.602,1.6047 -5.168,2.7754 L 1339.4401,807 h 5.8886 z m 198.96,5.6504 -29.533,36.256 h 10.121 l 26.27,-28.969 c -1.9305,-2.7435 -4.2407,-5.197 -6.8575,-7.2871 z m 9.5293,11.75 -23.41,24.506 h 22.389 l 4.2031,-2.5957 c 0.3585,-2.0243 0.5505,-4.0756 0.5508,-6.1348 -10e-5,-5.6732 -1.3495,-11.029 -3.7325,-15.775 z"
         fill="url(#linearGradient1643)"
         id="path151" />
    </g>
    <g
       transform="matrix(3.235,0.6345,-0.6345,3.235,-135.42,-432.82)"
       stroke-width="1.3118"
       id="g163">
      <path
         d="m 336.3,213.52 c 0.16034,-4.5858 -2.685,-7.297 -9.6737,-6.0118 l -2.9903,-8.2741 c 3.7113,-0.73005 11.329,-1.7015 12.402,4.9768 0.91677,-4.0473 -0.36138,-9.9666 -7.1037,-13.338 l 12.395,-3.6319 c 2.7704,2.3359 4.5102,8.1728 -0.0207,16.926 3.7389,-3.4773 6.6565,-3.7898 12.326,-1.4875 l -4.1202,5.733 c -3.3656,-2.3817 -6.7438,-2.5077 -9.6599,5.107 z"
         fill="#96414c"
         id="path155" />
      <path
         transform="scale(0.26458)"
         d="m 1290.1,707.68 -18.93,5.5469 c 25.943,25.246 18.852,58.426 18.852,58.426 17.125,-33.083 10.549,-55.144 0.078,-63.973 z m -0.078,63.973 c 0,0 21.108,-8.5958 36.539,-1.7949 1.9834,0.87414 3.7241,1.8321 5.2597,2.8359 l 4.7891,-6.6621 c -21.429,-8.7016 -32.456,-7.5215 -46.588,5.6211 z m -48.701,-20.604 c -6.7063,-0.0473 -13.272,1.0086 -18.094,1.957 l 4.7031,13.014 c 13.912,-2.3448 29.484,-2.049 42.172,5.7969 -2.6628,-16.564 -15.978,-20.677 -28.781,-20.768 z"
         fill="#b14d5a"
         stop-color="#000000"
         style="font-variation-settings:normal"
         id="path157" />
      <path
         transform="scale(0.26458)"
         d="m 1309.5,776.88 c -4.1716,-0.0767 -8.2914,0.56565 -11.68,2.5059 -12.047,6.8985 -13.385,27.611 -13.385,27.611 11.021,-28.78 23.789,-28.304 36.51,-19.303 l 5.4141,-7.5332 c -4.1973,-1.4185 -10.572,-3.1656 -16.859,-3.2812 z"
         fill="#813842"
         stop-color="#000000"
         style="font-variation-settings:normal"
         id="path159" />
      <path
         transform="scale(0.26458)"
         d="m 1244.1,771.54 c -5.4307,-0.0465 -10.222,0.67575 -13.729,1.4258 l 4.0879,11.311 c 26.414,-4.8571 37.167,5.3906 36.561,22.723 5.2624,-15.658 -4.0722,-32.434 -18.867,-34.799 -2.7741,-0.44341 -5.4825,-0.63816 -8.0527,-0.66015 z"
         fill="#813842"
         stop-color="#000000"
         style="font-variation-settings:normal"
         id="path161" />
    </g>
    <g
       transform="matrix(3.3757,0,0,3.3757,-548.3,-224.58)"
       stroke-width="1.1031"
       id="g173">
      <path
         d="m 374.74,189.37 c -7.2643,7e-5 -13.174,5.8499 -13.248,13.114 -0.58966,-0.2274 -1.2162,-0.34401 -1.8482,-0.34398 -2.4009,1.4e-4 -4.4813,1.6637 -5.0095,4.0058 -1.0139,-0.442 -2.108,-0.67016 -3.2141,-0.6702 -4.4424,-1.5e-4 -8.0437,3.601 -8.0438,8.0434 l 70.422,-1e-5 c 0.19327,-0.7548 0.29109,-1.5309 0.2912,-2.31 -7e-5,-5.1463 -4.172,-9.3182 -9.3183,-9.3183 -2.0844,1.3e-4 -4.1085,0.69909 -5.7489,1.9852 -1.5921,-2.2427 -4.1719,-3.5752 -6.9223,-3.5754 -1.4605,-3e-5 -2.8963,0.37671 -4.1686,1.0938 -0.63232,-6.8132 -6.3491,-12.024 -13.192,-12.024 z"
         fill="#43592e"
         fill-rule="evenodd"
         stop-color="#000000"
         style="font-variation-settings:normal;paint-order:stroke fill markers"
         id="path165" />
      <path
         transform="scale(0.26458)"
         d="m 1416.3,715.73 v 0.002 c -19.208,1.8e-4 -35.898,10.828 -44.295,26.73 10.339,-13.173 41.525,-26.812 62.636,-10.82 28.038,21.239 21.051,43.453 21.051,43.453 0,0 19.454,-14.813 33.852,-5.4997 10.721,6.9352 8.5527,17.041 8.5527,17.041 0,0 26.14,-22.051 48.607,-7.6934 14.536,9.2894 17.219,28.059 17.219,28.059 0.7304,-2.8528 1.0991,-5.7857 1.0996,-8.7305 -3e-4,-19.451 -15.768,-35.218 -35.219,-35.219 -7.8779,4.9e-4 -15.527,2.6413 -21.726,7.502 -6.0173,-8.4763 -15.769,-13.511 -26.164,-13.512 -5.5199,-1.2e-4 -10.947,1.4225 -15.756,4.1328 -2.3898,-25.751 -23.996,-45.445 -49.857,-45.445 z"
         fill="#58753c"
         id="path167" />
      <path
         transform="scale(0.26458)"
         d="m 1358.6,764.03 c -8.7588,0.33174 -16.256,6.4972 -18.197,15.107 -3.832,-1.6705 -7.9662,-2.533 -12.146,-2.5332 -2.8002,-10e-5 -5.5089,0.38697 -8.0839,1.0957 4.3005,0.84678 9.3334,2.2323 14.486,4.5098 13.914,6.1496 27.316,13.246 27.316,13.246 0,0 -10.3,-6.6904 -10.992,-18.908 -0.4312,-7.6058 4.1189,-11.022 7.6172,-12.518 z m -48.723,18.762 c -7.3039,5.5523 -12.023,14.33 -12.023,24.213 h 119.01 c -26.221,-1.6186 -53.728,-4.0509 -70.908,-7.6738 -23.326,-4.9189 -32.5,-11.642 -36.076,-16.539 z"
         fill="#374823"
         id="path169" />
      <path
         transform="scale(0.26458)"
         d="m 1411.1,716 c -10.769,1.1146 -20.529,5.6434 -28.176,12.49 L 1353.11,807 h 8.0644 c 4.4278,-11.739 14.224,-37.333 23.543,-59.055 5.6612,-13.196 16.356,-24.027 26.383,-31.945 z m 19.463,1.7969 c -1.0905,3.5121 -2.3847,7.5233 -4.1641,12.674 -6.4534,18.68 -36.385,55.374 -54.504,76.529 h 33.969 l 58.143,-56.428 c -5.042,-15.823 -17.658,-28.093 -33.443,-32.775 z m 51.363,39.244 c -5.5199,-1.2e-4 -10.947,1.4225 -15.756,4.1328 l -43.016,45.826 h 13.029 l 57.424,-47.746 c -3.6748,-1.4375 -7.6275,-2.2127 -11.682,-2.2129 z m 15.01,3.7363 -52.014,46.223 h 17.502 l 45.666,-36.447 c -2.9436,-4.1465 -6.7856,-7.4621 -11.154,-9.7754 z m 32.881,2.2734 c -5.1274,3.2e-4 -10.155,1.1264 -14.752,3.248 l -27.869,40.701 h 19.98 l 37.082,-40.852 c -4.4078,-1.9849 -9.2936,-3.0976 -14.441,-3.0977 z m -177,2.043 c -1.8666,0.65726 -3.602,1.6047 -5.168,2.7754 L 1339.4401,807 h 5.8886 z m 198.96,5.6504 -29.533,36.256 h 10.121 l 26.27,-28.969 c -1.9305,-2.7435 -4.2407,-5.197 -6.8575,-7.2871 z m 9.5293,11.75 -23.41,24.506 h 22.389 l 4.2031,-2.5957 c 0.3585,-2.0243 0.5505,-4.0756 0.5508,-6.1348 -10e-5,-5.6732 -1.3495,-11.029 -3.7325,-15.775 z"
         fill="url(#linearGradient1643)"
         id="path171" />
    </g>
    <g
       transform="matrix(2.8831,0.37085,-0.37085,2.8831,-69.675,-50.334)"
       stroke-width="1.4877"
       id="g181">
      <path
         d="m 21.332,70.727 c 0,0 1.2983,4.1695 3.1495,8.9751 1.8236,4.734 4.2032,10.341 7.9261,13.362 1.7106,1.3879 3.1976,2.3566 4.6062,3.0932 1.3344,0.69738 2.5436,1.1652 3.6742,1.5431 l 2.46e-4,2.07e-4 c 2.6455,0.88416 4.8277,1.2398 6.1099,2.873803 2.2484,2.8652 0.36222,9.5536 4.8436,14.967 h 1e-6 c 0.33685,0.40595 0.70996,0.8081 1.1246,1.2066 3.0603,2.9413 5.4619,3.5488 7.6786,4.7339 2.0768,1.1103 3.7849,2.7115 4.4017,7.4023 0.61688,4.6915 3.7025,6.8603 7.4026,9.0304 3.6565,2.1446 7.8565,4.2479 10.123,8.383 4.431,8.0834 11.685,6.6268 11.685,6.6268 0,0 0.5483,-7.5448 1.8725,-11.384 1.3302,-3.8568 -0.57699,-12.178 -6.383,-17.886 -6.1339,-6.0305 -3.0444,-20.028 -9.2923,-26.843003 -0.28595,-0.31191 -0.57865,-0.61468 -0.87728,-0.90951 -3.0794,-3.038 -6.9681,-5.3417 -10.713,-8.1281 -3.9655,-2.9508 -7.5449,-6.2211 -11.866,-12.161 -0.43141,-0.59314 -0.91273,-1.156 -1.4378,-1.6878 -5.402,-5.4535 -14.374,-6.9303 -21.695,-6.3107 -7.2598,0.61442 -12.335,3.114 -12.335,3.114 z"
         fill="#afc46a"
         stop-color="#000000"
         style="font-variation-settings:normal"
         id="path175" />
      <path
         d="m 83.616,145.54 c -2.2795,-4.1562 -6.3159,-6.3482 -9.8118,-8.5898 -3.5405,-2.2702 -6.4743,-4.5472 -7.1282,-9.2943 -0.65282,-4.7398 -2.2774,-6.4201 -4.2703,-7.6054 -2.1509,-1.2793 -4.4372,-1.936 -7.5667,-4.963 -0.37312,-0.3609 -0.71537,-0.72254 -1.0302,-1.0853 l -10e-7,-1e-5 c -4.7841,-5.5215 -3.2748,-11.873 -5.5976,-14.817 -1.8912,-2.3977 -5.0771,-2.3761 -9.5853,-4.9859 -1.3996,-0.81101 -2.8907,-1.8368 -4.6533,-3.2618 -3.9927,-3.228 -5.7574,-7.0696 -6.6387,-10.369 -0.8729,-3.2677 -0.76528,-5.8711 -0.76528,-5.8711 0,0 3.5583,-2.0125 8.7795,-2.5308 5.1939,-0.5156 12.129,0.70566 16.628,5.8548 -10e-7,0 1e-6,10e-7 1e-6,10e-7 0.3236,0.3713 0.63348,0.76125 0.92779,1.1701 4.272,5.9342 7.9752,8.7301 12.142,11.211 3.961,2.3579 8.0506,4.217 11.137,7.4913 0.04978,0.05281 0.09907,0.10625 0.14787,0.16032 3.0509,3.384199 4.0845,8.981099 4.9451,14.336999 0.85871,5.3443 1.5332,10.399 4.5322,13.317 5.6857,5.5304 8.9846,12.784 7.6421,16.62 -1.3193,3.7702 0.60558,10.592 0.60558,10.592 0,0 -5.9796,0.75433 -10.441,-7.38 10e-7,-1e-5 2e-6,-1e-5 3e-6,-1e-5 z"
         fill="#93a559"
         stop-color="#000000"
         style="font-variation-settings:normal"
         id="path177" />
      <path
         d="m 92.318,152.13 c 0,0 -0.84823,-1.3871 -3.2806,-2.5553 -2.4318,-1.1679 -4.8845,-1.7428 -4.2291,-2.5531 0.68998,-0.85294 5.867,2.5006 5.867,2.5006 0,0 -2.0302,-3.3533 -3.7021,-5.989 -1.6469,-2.5965 -1.8019,-3.6969 -5.3675,-4.7849 -3.6236,-1.1058 -5.5696,-0.23303 -6.7282,-2.4251 -1.1631,-2.2005 3.4047,-0.124 4.5404,0.31294 1.1377,0.43774 4.6432,1.5407 4.6432,1.5407 0,0 -0.973,-2.2345 -2.3421,-4.8471 -1.3955,-2.663 -3.1112,-5.539 -4.5464,-7.1508 -2.7725,-3.1134 -6.0988,-1.9215 -8.3064,-2.1979 -2.2607,-0.28311 -4.154,-2.0772 -2.7662,-2.3853 1.4104,-0.3131 8.4895,0.79405 8.4895,0.79405 0,0 -4.3173,-6.0169 -6.2912,-6.7097 -1.921,-0.67423 -8.0896,-1.7929 -10.083,-2.633 -0.76117,-0.32077 -1.4205,-0.5295 -1.9943,-0.75108 -0.92919,-0.35758 -1.6245,-0.74507 -2.1903,-1.6766 -0.80337,-1.3228 2.0778,-0.2811 3.8525,0.4996 0.24482,0.10794 0.4666,0.20881 0.65657,0.29598 1.5659,0.71856 3.2107,0.41998 3.2107,0.41998 0,0 -1.2963,-0.77807 -2.239,-1.8689 -0.35641,-0.41274 -0.66359,-0.87348 -0.83177,-1.3639 -0.55399,-1.6154 1.0997,-2.5753 1.9236,-0.82403 0.15205,0.32319 0.35604,0.65916 0.59276,0.99502 0.90936,1.2889 2.3448,2.6372 3.196,3.1609 1.0832,0.66647 2.9259,0.95073 2.9259,0.95073 0,0 -1.5601,-3.0106 -3.4981,-5.9696 -1.2745,-1.9468 -2.6423,-3.7814 -3.7466,-4.8906 -2.7823,-2.7946 -5.3933,-5.991 -7.5738,-6.7033 -2.1031,-0.68706 -8.5065,0.67176 -10.211,0.01181 -1.6587,-0.64207 -3.0343,-2.3642 -1.6132,-2.2942 1.1895,0.05853 2.3689,0.05914 4.8862,0.25627 2.0209,0.15825 3.8912,0.3929 3.8912,0.3929 0.57629,-0.10919 1.1551,-0.2135 1.7362,-0.31299 0,0 -4.1756,-3.3756 -7.5609,-5.2349 -0.55986,-0.30757 -1.0915,-0.57656 -1.5739,-0.79483 -3.3835,-1.5307 -7.8277,-1.5411 -10.179,-3.3311 -1.5435,-1.1751 -2.455,-3.5209 0.53449,-1.5799 2.0392,1.324 7.7118,2.3833 7.7118,2.3833 0,0 -2.6366,-4.324 -5.0096,-6.0493 -2.3928,-1.7397 -4.8412,-2.8902 -6.0138,-3.4379 -1.4015,-0.65458 3.4791,-1.1038 7.6926,2.773 4.3646,4.0158 5.1805,6.307 6.8502,7.655 0.27231,0.21983 0.67325,0.55486 1.156,0.96529 2.4846,2.1112 6.8901,6.4045 7.7474,5.5112 1.0239,-1.0669 -1.2781,-4.9634 -1.076,-6.4061 0.19845,-1.4163 1.9186,-0.28947 2.2582,1.4894 0.31506,1.6502 0.85107,6.711 2.3361,8.2259 0.77835,0.79398 2.3784,2.6766 4.2523,4.969 1.7483,2.1388 3.6791,4.5751 4.7412,5.5272 0.34802,0.31197 0.62926,0.49472 0.82182,0.50304 0.50255,0.0217 0.9654,-0.84246 1.3438,-2.0365 0.75354,-2.3808 1.0116,-5.3551 1.1415,-6.2738 0.14996,-1.0612 2.9092,-1.4645 3.0832,0.13497 0.07191,0.6609 -0.44508,2.2339 -1.0963,3.9235 -0.84885,2.1962 -1.9516,4.6427 -2.0161,5.4482 -0.11372,1.4194 0.7652,5.9625 2.1387,7.6472 1.1566,1.4187 6.3974,8.3322 7.2151,8.8401 1.1888,0.73844 2.9013,-4.0772 3.5028,-4.6683 0.60152,-0.59104 2.6416,1.4665 1.0978,2.995 -1.555,1.5397 -3.0723,2.2738 -2.1474,4.7954 0.92263,2.5154 4.0181,6.7519 4.638,7.9565 0.61992,1.2046 2.6777,4.8672 3.044,5.8042 0.36633,0.93705 2.5636,-2.0506 3.2767,-4.2345 0.72252,-2.213 2.6982,0.78009 1.4659,2.1361 -1.2426,1.3674 -3.1749,2.7343 -3.0718,4.5193 0.10313,1.7857 4.4035,8.4604 2.8247,8.5993 z"
         fill="#56813b"
         id="path179" />
    </g>
    <g
       transform="matrix(2.6114,-1.835,1.835,2.6114,-355.98,-3.8532)"
       stroke-width="1.3549"
       id="g189">
      <path
         d="M 57.916,213.73 C 47.868,207.783 39.844,203.107 41.867,192.5 43.8905,181.893 30.302,180.119 26.813,175.035 c -3.4888,-5.084 5.7042,-14.311 1.9712,-21.403 -3.733,-7.0925 -11.688,-9.8699 -13.572,-14.311 -1.884,-4.4407 5.2507,-16.743 2.4247,-20.681 -2.8259,-3.9385 -5.146,-5.084 -5.146,-5.084 0,0 8.1813,-1.9771 25.678,20.116 17.496,22.094 21.718,48.031 22.538,55.202 0.81987,7.171 6.5764,10.168 5.9135,16.602 -0.66287,6.4335 0.27911,12.035 0.27911,12.035 z"
         fill="#75a66a"
         id="path183" />
      <path
         d="m 58.021,209.23 c -10.269,-5.5561 -13.159,-6.8599 -11.135,-17.467 2.0235,-10.607 -13.281,-13.239 -16.77,-18.323 -3.4888,-5.084 4.8208,-14.171 1.0878,-21.263 -3.733,-7.0925 -10.341,-8.9136 -12.225,-13.354 -1.884,-4.4407 1.4102,-7.3032 2.0605,-12.201 0.63798,-4.8053 0.23278,-4.9307 0.23278,-4.9307 0,0 -1.6183,-8.383 15.878,13.711 17.496,22.094 16.685,47.324 17.505,54.495 0.81987,7.171 7.9244,9.5155 7.8234,15.982 -0.0535,3.4249 1.6376,7.6462 1.6376,7.6462 -1.6779,-1.8002 -2.9927,-2.6164 -6.0942,-4.2944 z"
         fill="#699460"
         id="path185" />
      <path
         d="m 62.669,210.49 c -0.9279,-2.4168 -0.44317,-5.8427 -3.49,-11.386 -3.0469,-5.5438 -4.044,-8.5087 -6.44,-20.02 C 50.3431,167.573 43.2668,149.952 36.744,139.7 30.2209,129.447 23.573,122.359 22.687,122.67 c -0.886,0.311 5.8998,7.6367 7.0078,9.169 1.1079,1.5323 -1.2464,3.264 -4.5841,2.0929 -3.3377,-1.1711 -5.9552,-0.90942 -4.6395,0.49831 1.3157,1.4077 4.4733,1.8313 6.2876,2.0057 1.8143,0.17441 3.6978,-2.7656 5.4428,-0.31145 1.745,2.45415 0.02769,5.2821 -2.4375,5.2323 -2.4652,-0.0498 -5.0412,1.6195 -3.1023,1.6569 1.9389,0.0374 6.1214,-1.1088 7.6864,-0.89697 1.565,0.21178 5.3043,5.8054 5.8167,8.7579 0.51242,2.9525 -3.6978,0.99663 -5.4013,-0.0747 -1.7035,-1.0714 -4.5564,-0.58552 -2.8253,0.38619 1.7312,0.97172 6.3015,3.2889 7.8526,3.2764 1.5511,-0.0125 5.0827,5.606 6.3707,9.8043 1.288,4.1983 -3.1854,3.4882 -8.1157,3.0397 -4.9304,-0.44847 -8.3927,2.4667 -6.6615,2.205 1.7312,-0.26162 7.1878,-0.0249 9.9162,0.5606 2.7283,0.58552 5.8721,-3.1643 7.3402,-0.5606 1.468,2.6037 4.1005,11.787 2.2585,11.762 -1.842,-0.0249 -6.4677,-4.5845 -9.0575,-4.8461 -2.5898,-0.26162 -4.0856,1.931 -2.4375,1.8188 1.6481,-0.11212 4.5426,0.24917 7.0632,2.7283 2.5206,2.47913 5.5398,3.0148 5.5398,3.0148 0,0 3.1992,6.5155 1.3849,7.3626 -1.8143,0.84713 -6.2184,1.4077 -6.5092,2.4916 -0.29084,1.0838 1.842,1.034 3.2269,0.43604 1.3849,-0.59799 3.1715,-2.4916 4.501,-0.71011 1.3295,1.7815 4.6257,7.2505 3.1438,8.1474 -1.4819,0.89697 -7.174,-1.4451 -8.1296,0.0125 -0.95561,1.4576 -0.96944,2.9151 1.0526,2.0556 2.022,-0.85959 2.7145,-0.36128 4.6949,0.0374 1.9805,0.39865 4.2933,-0.9468 4.2933,-0.9468 0,0 2.0695,6.452 3.0034,7.615 z"
         fill="#5a8553"
         id="path187" />
    </g>
    <g
       transform="matrix(3.9203,0,0,3.9203,-252.74,-340.85)"
       id="g239">
      <g
         stroke-width="1.1031"
         id="g237">
        <path
           d="m 163.57,148.06 c -6.0771,0.0135 -11.063,4.7397 -11.063,18.384 0,34.929 19.067,47.076 34.19,47.076 h 38.464 c 0,0 1.3065,-4.6294 -6.1041,-6.6363 -4.8731,-1.3198 -9.9788,2.7001 -9.9788,2.7001 -19.097,-4.6649 -23.892,-24.742 -23.892,-43.14 0,-6.9564 -12.135,-18.405 -21.615,-18.384 z"
           fill="#fdcd9a"
           id="path191" />
        <path
           transform="matrix(0.26458,0,0,0.26458,44.527,0)"
           d="m 517.7,598.5 c 1.542,54.619 -7.6128,93.927 20.213,143.39 35.417,62.958 83.992,50.23 83.992,50.23 -72.177,-17.631 -90.301,-93.513 -90.301,-163.05 0,-9.0074 -5.3858,-20.007 -13.904,-30.574 z"
           fill="#fddfbe"
           id="path193" />
        <path
           d="m 137.28,124.37 c 0,0 15.62,-10.44 32.109,1.066 18.151,12.666 15.792,41.006 15.792,41.006 H 147.606 C 139.4162,158.2523 137.28,139.416 137.28,124.37 Z"
           fill="#494c90"
           stop-color="#000000"
           style="font-variation-settings:normal"
           id="path195" />
        <path
           transform="matrix(0.26458,0,0,0.26458,44.527,0)"
           d="m 462.83,468.31 c 21.441,16.363 43.633,42.252 50.256,81.557 5.1279,30.432 5.0342,55.944 4.6484,79.205 h 13.871 c 0,0 8.9152,-107.11 -59.686,-154.98 -3.0402,-2.1215 -6.0718,-4.0403 -9.0898,-5.7812 z"
           fill="#4f5f9c"
           id="path197" />
        <path
           d="m 176.91,213.52 v -67.518 c 0,-17.908 -17.553,-34.744 -45.595,-34.744 -12.984,0 -50.03,6.9275 -47.415,34.744 4.0782,27.848 28.653,67.518 28.653,67.518 z"
           fill="#6c5293"
           id="path199" />
        <path
           transform="scale(0.26458)"
           d="m 496.32,420.5 c -16.231,0 -42.412,2.8699 -69.826,10.508 -0.49926,0.53439 -0.99721,1.0698 -1.4688,1.6211 0,0 45.095,-15.652 111.74,1.666 66.641,17.318 97.591,59.546 109.07,85.855 8.8432,20.272 18.721,80.402 22.818,107.12 v -75.451 c 0,-67.684 -66.341,-131.31 -172.33,-131.31 z"
           fill="#6c5c93"
           stop-color="#000000"
           style="font-variation-settings:normal"
           id="path201" />
        <path
           transform="matrix(0.26458,0,0,0.26458,44.527,0)"
           d="m 328.03,420.5 c -1.6752,0 -3.4779,0.0365 -5.3555,0.0996 16.751,2.3902 33.279,8.7038 49.123,20.248 74.336,54.162 -124.16,119.13 -215.78,145.26 2.8792,10.88 6.3091,21.985 10.15,33.145 78.225,-10.598 213.77,-36.182 271.98,-90.824 16.996,-15.953 29.902,-30.099 39.764,-42.564 -27.863,-37.963 -80.339,-65.363 -149.89,-65.363 z m -115.3,28.051 c -5.4828,2.8485 -10.797,5.9656 -15.879,9.3477 5.1832,-3.2056 10.483,-6.3385 15.879,-9.3477 z m 280.88,66.223 c -9.6081,14.576 -23.07,30.245 -41.742,46.68 -61.908,54.489 -193.04,74.427 -276.89,81.713 2.4382,6.2606 4.9642,12.489 7.5605,18.672 83.669,-5.2955 208.51,-19.566 267.62,-58.09 19.556,-12.744 36.138,-24.993 50.191,-36.412 v -15.521 c 0,-12.617 -2.3086,-25.092 -6.7461,-37.041 z m 6.7461,115.23 c -31.263,20.844 -76.262,40.031 -141,51.057 -68.883,11.733 -121.81,15.326 -161.59,15.031 1.6519,3.5277 3.3051,7.0127 4.9609,10.451 62.058,0.28219 140.39,-3.3916 203.48,-19.43 37.06,-9.4207 68.372,-19.899 94.146,-29.98 z m 0,91.738 c -39.08,10.208 -92.516,20.603 -156.84,24.217 -45.549,2.5592 -84.571,4.6464 -117.5,6.3594 3.3483,6.2548 6.5333,12.084 9.5215,17.465 71.05,-2.3848 161.12,-6.4117 221.61,-12.789 15.364,-1.6198 29.753,-3.5725 43.207,-5.7246 z"
           fill="url(#linearGradient1175)"
           id="path203" />
        <path
           d="m 121.79,83.674 -1.2272,9.2902 c -1.1587,8.7713 3.6412,13.566 9.1372,14.292 5.4959,0.72603 11.518,-0.66552 12.933,-11.376 0.18483,-1.3991 0.97549,-8.0257 0.98774,-9.3219 0.12021,-12.741 -20.452,-13.32 -21.831,-2.8839 z"
           fill="#fdcd9a"
           stop-color="#000000"
           style="font-variation-settings:normal;paint-order:stroke fill markers"
           id="path205" />
        <path
           d="m 120.78,91.289 c -4.3633,10.526 -5.039,21.304 9.5206,23.676 14.56,2.3715 16.328,-13.577 12.718,-22.303 0,0 -2.1286,13.572 -10.041,12.527 -7.9125,-1.0453 -12.014,-9.0484 -12.198,-13.899 z"
           fill="#2e363c"
           id="path207" />
        <path
           d="m 121.3,87.401 c 0,0 2.4461,0.60255 4.3249,-0.821 1.8788,-1.4236 2.6146,-2.709 2.6146,-2.709 0,0 3.0728,1.6503 7.7902,2.1164 4.7174,0.46606 7.4792,2.1743 7.4792,2.1743 0,0 -13.397,-12.383 -17.052,-7.9829 -3.6555,4.4004 -5.1566,7.2222 -5.1566,7.2222 z"
           fill="#f0bb86"
           id="path209" />
        <path
           d="m 121.25,87.406 c 0,0 2.4687,-0.17666 3.8468,-2.3577 1.3781,-2.181 2.5458,-4.7795 2.5458,-4.7795 0,0 1.3134,3.4919 8.9055,5.3621 7.5921,1.8702 9.4821,4.3824 9.4821,4.3824 0,0 3.3363,-10.658 -5.3401,-13.841 -8.6764,-3.1824 -13.471,0.06555 -13.471,0.06555 0,0 -8.6194,-1.136 -5.9689,11.168 z"
           fill="#2e363c"
           stop-color="#000000"
           style="font-variation-settings:normal"
           id="path211" />
        <path
           transform="matrix(0.26458,0,0,0.26458,44.527,0)"
           d="m 310.26,288.05 c -7.1536,0.0344 -28.703,3.2627 -20.293,42.301 0,0 7.2758,-0.53193 12.564,-6.3359 -0.74396,-3.7027 -1.361,-8.2215 -1.4785,-13.385 -0.21935,-9.6326 5.3866,-18.005 9.207,-22.58 z"
           fill="#262931"
           id="path213" />
        <path
           transform="matrix(0.26458,0,0,0.26458,44.527,0)"
           d="m 343.51,283.05 c 8.2688,1.8969 17.52,5.9517 25.09,14.387 17.528,19.532 15.02,42.768 15.02,42.768 0,0 12.609,-40.282 -20.184,-52.311 -7.4065,-2.7167 -14.056,-4.1852 -19.926,-4.8438 z"
           fill="#424d57"
           id="path215" />
        <path
           transform="matrix(0.26458,0,0,0.26458,44.527,0)"
           d="m 372.26,350.21 c 0,0 9.5326,31.879 -6.5195,63.439 -3.7739,7.4201 -8.4,13.439 -13.24,18.322 28.614,-12.407 30.565,-55.642 19.76,-81.762 z"
           fill="#424d57"
           id="path217" />
        <path
           transform="matrix(0.26458,0,0,0.26458,44.527,0)"
           d="m 288.2,345.03 c -16.491,39.784 -19.044,80.519 35.984,89.482 6.1121,0.99556 11.624,1.1334 16.582,0.55273 -15.588,-4.4136 -37.159,-13.255 -47.434,-29.996 -17.076,-27.822 -5.1328,-60.039 -5.1328,-60.039 z"
           fill="#262931"
           id="path219" />
        <path
           transform="matrix(0.26458,0,0,0.26458,44.527,0)"
           d="m 371.45,354.29 c -0.53009,2.4195 -1.3653,5.7272 -2.541,9.4902 2.7674,2.0352 5.6805,4.2244 8.582,6.4785 -0.62914,-4.6641 -1.5979,-9.1946 -2.8828,-13.432 -1.1518,-0.96116 -2.1599,-1.7583 -3.1582,-2.5371 z m -80.254,5.2695 c -2.2967,3.7828 -5.6558,7.1378 -10.506,7.7051 -1.1087,4.4393 -1.9137,8.8058 -2.3848,13.062 2.2384,-0.15776 4.4152,-0.72792 6.3945,-1.9004 4.5908,-2.7195 7.8956,-6.6558 10.213,-10.344 -1.4846,-2.8349 -2.7228,-5.7015 -3.7168,-8.5234 z m 73.709,14.885 c -1.3738,3.0481 -2.974,6.0765 -4.8242,8.9043 4.8201,6.3687 11.26,15.863 14.047,24.307 1.861,-5.0349 3.0468,-10.468 3.666,-16.037 -2.9241,-7.5559 -8.2185,-13.29 -12.889,-17.174 z m -57.363,10.309 c -2.8954,3.0951 -7.4496,6.0836 -14.621,7.9766 -5.1691,1.3644 -10.209,1.3406 -14.861,0.53906 0.40179,4.7468 1.3893,9.2621 3.1035,13.449 5.644,-0.72905 11.145,-2.3578 15.613,-5.4805 6.6878,-4.6741 11.08,-9.564 13.971,-13.738 -1.1105,-0.87587 -2.1761,-1.7946 -3.2051,-2.7461 z m 43.482,8.5137 c -2.3886,1.7344 -5.0215,3.0528 -7.9199,3.8027 0.95919,4.3329 1.7544,9.8746 2.1289,17.035 0.42648,8.154 -2.5329,15.242 -6.8633,21.178 6.3073,-0.42781 11.759,-1.9823 16.436,-4.4062 0.88125,-2.5485 1.4868,-5.1869 1.6914,-7.8867 0.81027,-10.69 -2.3272,-21.687 -5.4727,-29.723 z m -29.4,0.77149 c -1.0951,4.7338 -3.2251,10.088 -7.2598,15.379 -5.2806,6.9251 -15.097,9.5939 -24.15,10.484 4.5499,4.2988 10.501,7.8998 18.098,10.623 3.4444,-2.1421 6.3927,-4.8174 8.3711,-8.1836 5.011,-8.5263 8.2599,-18.52 10.254,-26.371 -1.834,-0.54691 -3.6077,-1.1904 -5.3125,-1.9316 z"
           fill="url(#linearGradient1177)"
           id="path221" />
        <path
           d="m 82.783,163.66 c 0,0 -2.7393,49.858 55.219,49.858 h 50.641 c 0,0 -5.2655,-15.449 -17.952,-4.3998 -21.25,-6.3647 -53.747,-20.26 -53.409,-45.663 -23.027,-21.181 -34.498,0.2046 -34.498,0.2046 z"
           fill="#fdcd9a"
           stop-color="#000000"
           style="font-variation-settings:normal;paint-order:stroke fill markers"
           id="path223" />
        <path
           transform="matrix(0.26458,0,0,0.26458,44.527,0)"
           d="m 275.66,690.27 c -8.5906,0.0245 -13.549,0.16407 -13.549,0.16407 0,0 62.401,50.008 117.94,77.207 55.539,27.199 103.42,28.824 103.42,28.824 0,0 14.636,-16.743 34.271,-9.916 6.4908,2.2566 14.835,6.8706 23.102,12.02 -7.8283,-14.458 -28.015,-39.552 -64.012,-8.1992 -57.082,-17.097 -135.62,-48.58 -175.84,-99.828 -10.084,-0.22247 -18.831,-0.29004 -25.332,-0.27149 z"
           fill="#fddfbe"
           id="path225" />
        <path
           transform="matrix(0.26458,0,0,0.26458,44.527,0)"
           d="m 252.89,750.92 -31.562,22.297 c 30.415,20.05 72.823,33.787 131.96,33.787 h 40.746 C 377.035,804.1613 357.579,800.522 336.919,795.943 270.663,781.26 252.894,750.92 252.894,750.92 Z"
           fill="#f0bb86"
           id="path227" />
        <path
           d="M 106,207.98 C 76.845,192.028 74.27,140.654 92.537,125.576 c 12.948,-10.687 26.187,0.60107 25.883,11.283 -1.0678,37.552 16.044,53.434 16.044,53.434 0,0 -23.338,11.057 -28.464,17.687 z"
           fill="#494c90"
           stop-color="#000000"
           style="font-variation-settings:normal"
           id="path229" />
        <path
           transform="scale(0.26458)"
           d="m 310.88,548.25 c -16.973,81.082 10.217,194.32 89.744,237.83 5.9386,-7.6808 18.357,-16.934 32.709,-26.074 -8.7122,-0.40352 -57.106,-6.7964 -95.045,-98.004 -21.387,-51.414 -27.009,-89.131 -27.408,-113.75 z"
           fill="#3c3f75"
           id="path231" />
        <path
           transform="matrix(0.26458,0,0,0.26458,44.527,0)"
           d="m 221.83,458.36 c -6.7118,0.0627 -13.72,1.4286 -20.857,4.3457 21.902,-0.20157 47.019,4.0488 57.691,31.975 10.367,27.126 -6.9275,61.061 15.6,135.45 15.422,50.927 44.614,78.663 61.498,91.098 2.5931,-1.2625 4.1445,-2 4.1445,-2 0,0 -64.672,-60.026 -60.637,-201.96 0.82509,-29.017 -24.794,-59.219 -57.439,-58.914 z"
           fill="#4f5f9c"
           id="path233" />
        <path
           transform="matrix(0.26458,0,0,0.26458,44.527,0)"
           d="m 221.83,458.36 c -11.369,0.1062 -23.588,3.9137 -35.842,12.758 31.585,-10.213 51.755,-5.8039 61.979,16.92 7.9282,17.622 -46.662,38.188 -104.11,54.535 -2.9332,12.243 -4.8267,25.299 -5.6445,38.809 47.995,-6.4801 100.02,-18.833 131.3,-42.389 3.3412,-2.5155 6.5063,-4.8637 9.582,-7.127 -0.0214,-4.768 0.0287,-9.6241 0.16992,-14.592 0.82509,-29.017 -24.794,-59.219 -57.439,-58.914 z m 58.791,107.21 c -34.698,28.25 -81.938,55.897 -140.67,65.666 1.0672,8.35 2.5282,16.696 4.3848,24.969 46.064,-9.1643 92.911,-21.463 126.29,-37.523 5.9389,-2.8574 11.522,-5.5561 16.828,-8.1309 -3.0058,-13.604 -5.3917,-28.578 -6.832,-44.98 z m 8.9238,53.859 c -42.301,27.183 -91.64,59.998 -128.01,87.523 2.31,4.9163 4.7872,9.7322 7.4434,14.424 16.153,-13.434 34.544,-26.062 54.887,-35.879 26.73,-12.899 54.835,-19.248 80.584,-21.984 -5.428,-12.45 -10.633,-27.104 -14.9,-44.084 z m 29.982,73.107 c -39.067,7.0332 -87.922,24.427 -116.71,66.826 -0.76589,1.1282 -1.4784,2.1954 -2.2207,3.2969 2.5768,2.4775 5.2331,4.8689 7.9746,7.1641 14.292,-16.515 32.906,-32.836 57.025,-46.092 19.967,-10.974 40.709,-17.44 60.721,-20.936 -2.1315,-3.0028 -4.4075,-6.3928 -6.793,-10.26 z"
           fill="url(#linearGradient1179)"
           id="path235" />
      </g>
    </g>
    <g
       transform="matrix(3.9203031,0,0,3.9203031,-356.78057,-350.12059)"
       stroke-width="1.10305"
       id="g363">
      <rect
         x="144.55"
         y="162.09"
         width="80.682999"
         height="51.428001"
         ry="5.8241"
         fill="#d3d7cf"
         fill-rule="evenodd"
         stop-color="#000000"
         style="stroke-width:1.10305;paint-order:stroke fill markers"
         id="rect333" />
      <path
         transform="scale(0.26458)"
         d="m 568.36,612.63 c -12.195,0 -22.012,9.817 -22.012,22.012 v 0.44922 c 6.2074,-6.6732 18.679,-12.59 48.102,-12.59 h 218.66 c 14.907,0 26.406,2.7567 26.406,34.096 v 147.89 c 7.0082,-3.6742 11.77,-11.009 11.77,-19.5 v -150.35 c 0,-12.195 -9.8169,-22.012 -22.012,-22.012 z"
         fill="#f0f0ef"
         id="path335"
         style="stroke-width:1.10305" />
      <path
         d="m 185.56,162.09 -41.008,22.108 v 7.4311 l 68.425,-29.539 z m 39.675,6.1562 -80.12,41.954 c 0.57002,1.1993 1.537,2.1705 2.7337,2.7451 l 77.386,-32.269 z m 0,24.9 -42.192,20.371 h 7.3076 l 34.884,-13.559 z m 0,11.624 -20.097,8.7468 h 7.5727 l 12.503,-5.3377 c 0.0132,-0.16056 0.0217,-0.3222 0.0217,-0.48628 z"
         fill="url(#linearGradient1290)"
         id="path337"
         style="fill:url(#linearGradient1095);stroke-width:1.10305" />
      <path
         transform="scale(0.26458)"
         d="m 546.35,669.75 v 115.24 c 0,12.195 9.817,22.012 22.012,22.012 h 176.19 c -77.091,-4.2048 -156.78,-10.143 -167.13,-17.078 -14.229,-9.5338 -25.359,-77.147 -31.064,-120.18 z"
         fill="#bfc7b8"
         id="path339"
         style="stroke-width:1.10305" />
      <rect
         x="147.38"
         y="213.52"
         width="75.041"
         height="2.3647001"
         rx="0.97481"
         ry="0.97481"
         fill="#a3b29a"
         fill-rule="evenodd"
         stop-color="#000000"
         style="stroke-width:1.10305;paint-order:stroke fill markers"
         id="rect341" />
      <g
         id="g1243"
         transform="matrix(0.47160707,0,0,0.47160707,94.958048,101.98423)"
         style="fill:#ffffff;stroke-width:2.33893">
        <path
           style="font-variant-ligatures:normal;font-variant-position:normal;font-variant-caps:normal;font-variant-numeric:normal;font-variant-alternates:normal;font-variant-east-asian:normal;font-feature-settings:normal;font-variation-settings:normal;text-indent:0;text-decoration:none;text-decoration-line:none;text-decoration-style:solid;text-decoration-color:#000000;text-transform:none;text-orientation:mixed;white-space:normal;shape-padding:0;shape-margin:0;inline-size:0;isolation:auto;mix-blend-mode:normal;fill:#ffffff;stroke-width:0.471676;paint-order:stroke fill markers"
           d="m 175.16704,174.60809 v 16.89795 h 30.2678 l -8.37637,-4.67644 h -17.21422 v -9.61064 z"
           id="path854" />
        <path
           style="font-variant-ligatures:normal;font-variant-position:normal;font-variant-caps:normal;font-variant-numeric:normal;font-variant-alternates:normal;font-variant-east-asian:normal;font-feature-settings:normal;font-variation-settings:normal;text-indent:0;text-decoration:none;text-decoration-line:none;text-decoration-style:solid;text-decoration-color:#000000;text-transform:none;text-orientation:mixed;white-space:normal;shape-padding:0;shape-margin:0;inline-size:0;isolation:auto;mix-blend-mode:normal;vector-effect:none;fill:#ffffff;fill-opacity:1;stroke:none;stroke-width:0.654657;stroke-linecap:butt;stroke-linejoin:miter;stroke-miterlimit:4;stroke-dasharray:none;stroke-dashoffset:0;stroke-opacity:1;paint-order:stroke fill markers;stop-color:#000000"
           d="m 175.9574,172.44001 8.37637,4.67644 h 17.21396 v 2.51847 h -12.7029 l 8.37611,4.67644 h 4.32679 v 2.41576 l 4.67669,2.61087 V 172.4403 Z"
           id="path9" />
      </g>
    </g>
  </g>
</svg>
