<?xml version="1.0" encoding="UTF-8"?>
<svg width="1443" height="314" fill="none" version="1.1" viewBox="0 0 1443 314" xmlns="http://www.w3.org/2000/svg">
 <path d="m0 226.4v87.596h1443v-87.258c-99.677 31.812-289.64 72.345-622 77.773-393.69 6.4306-683.38-46.418-821-78.111z" fill="#43adae" opacity=".48006" stop-color="#000000" style="-inkscape-stroke:none;font-variation-settings:normal"/>
 <path d="m1443 0s-180.02 289.03-749.14 280.13c-358.57-5.6034-579.38-91.296-693.86-153.98v187.85h1443z" fill="#5a71fe" fill-opacity=".66334" opacity=".46715" stop-color="#000000" style="-inkscape-stroke:none;font-variation-settings:normal"/>
 <g>
  <path d="m564.59 19.26c-246.13-18.053-392.33 27.473-562.34 119.55v123.88c50.175-29.843 137.02-62.718 213.91-81.594 244.42-60.002 501.6 34.352 837.09 74.306 227.51 27.095 388.24 0.017 392-0.62436v-93.887c-5.9337 0.41883-79.07 18.985-125.68 19.429-332.66 3.1711-508.85-143.01-754.98-161.06z" fill="#494c90" opacity=".56863"/>
  <path d="m977.71 59.944c332.46-23.357 443.7 81.895 465.29 93.931v15.934c-45.702-23.481-39.545-42.232-257.42-71.581-217.88-29.35-434.99 51.838-820.04 121.46-147.53 26.675-286.58 24.784-365.54 21.906v-20.061c412.15 14.637 645.25-138.23 977.71-161.59z" fill="#794c90" opacity=".69984"/>
  <path d="m777.4 212.52c-252.98 19.584-484.17 55.712-775.52 66.981v14.027c60.516-1.4703 123.41-3.7188 189.31-8.2317 516.92-35.397 811.24-79.786 1099.1-59.767 66.266 4.6086 115.38 8.6894 154.6 12.479v-18.326c-94.246-13.16-231.38-23.308-428.52-19.243-83.221 1.7158-162.1 6.1303-238.96 12.08z" fill="#494c90" opacity=".44153"/>
  <path d="m0 37.895v276.11h1105.8c-111.23-10.02-248.25-24.395-419.33-45.346-367.28-44.976-572.79-143.66-686.46-230.76z" fill="#904987" opacity=".4392" stop-color="#000000" style="-inkscape-stroke:none;font-variation-settings:normal"/>
 </g>
</svg>
