<svg width="25.135mm" height="23.024mm" version="1.1" viewBox="0 0 25.135 23.024" xmlns="http://www.w3.org/2000/svg" xmlns:xlink="http://www.w3.org/1999/xlink">
<defs>
<linearGradient id="linearGradient128758" x1="415.99" x2="480.87" y1="209.59" y2="209.59" gradientTransform="matrix(.21979 0 0 .21979 -79.013 -44.29)" gradientUnits="userSpaceOnUse">
<stop stop-color="#19ac8b" offset="0"/>
<stop stop-color="#31e97f" offset="1"/>
</linearGradient>
</defs>
<g transform="translate(-7.4568 5.5134)">
<g transform="matrix(1.0432 0 0 1.0441 -.32218 .22391)">
<path d="m15.8 5.7455v-2.7372h-2.5136c-0.71174-0.80001-0.66393-1.4877 0-2.4414h7.8633c0.91137 0.41853 0.68995 1.2737 0.16863 1.7163l-3.4906 3.4906c-1.1841 1.1841 1.1754 3.7938 2.4846 2.4846l5.7112-5.7112c0.37228-0.47568 0.38904-1.2465 0-1.7142l-5.689-5.689c-0.4307-0.21698-0.89453-0.37269-1.6441 0l-4.0488 4.0488" fill="none" stroke="url(#linearGradient128758)" stroke-linecap="round" stroke-linejoin="round" stroke-width=".86366"/>
<g transform="matrix(.51625 0 0 .51625 -219.61 -131.32)" stroke-width=".95819">
<g stroke-width=".25352">
<path d="m442.62 275.64q1.4287 0 2.1802 0.65617 0.75142 0.64558 0.75142 1.9897v3.1856h-1.8732v-0.74083q-0.43391 0.83608-1.6933 0.83608-0.66675 0-1.1536-0.23283-0.48683-0.23284-0.74083-0.62442-0.24342-0.40216-0.24342-0.91016 0-0.81492 0.62442-1.2594 0.62441-0.45509 1.9262-0.45509h1.143q-0.0529-0.91016-1.2171-0.91016-0.41275 0-0.83608 0.13758-0.42333 0.127-0.71966 0.35984l-0.67733-1.3652q0.47624-0.3175 1.1536-0.48683 0.68791-0.17992 1.3758-0.17992zm-0.0741 4.6566q0.34925 0 0.61383-0.16933 0.26459-0.16933 0.381-0.49741v-0.49742h-0.86783q-0.87841 0-0.87841 0.58208 0 0.26458 0.20108 0.42333t0.55033 0.15875z"/>
<path d="m450.43 275.64q0.78317 0 1.4182 0.35983 0.64559 0.35984 1.016 1.0372 0.381 0.66675 0.381 1.5557 0 0.889-0.381 1.5663-0.37041 0.67733-1.016 1.0478-0.63499 0.35983-1.4182 0.35983-1.1324 0-1.6933-0.66675v0.5715h-1.9156v-7.8528h2.0108v2.6141q0.58209-0.59267 1.5981-0.59267zm-0.42333 4.3286q0.52917 0 0.86783-0.35983 0.33867-0.37042 0.33867-1.016 0-0.635-0.33867-0.99483-0.33866-0.35983-0.86783-0.35983-0.52916 0-0.86783 0.35983t-0.33867 0.99483q0 0.64558 0.33867 1.016 0.33867 0.35983 0.86783 0.35983z"/>
<path d="m460.21 275.73v5.7362h-1.9156v-0.61383q-0.3175 0.34925-0.762 0.52916-0.4445 0.17992-0.94191 0.17992-1.1112 0-1.778-0.65616-0.65616-0.65617-0.65616-1.9685v-3.2067h2.0108v2.8787q0 0.64558 0.24341 0.94191 0.24342 0.29634 0.70908 0.29634 0.47625 0 0.77259-0.32809 0.30691-0.33866 0.30691-1.0266v-2.7622z"/>
<path d="m469.58 279.97v1.5028h-5.2916v-1.1853l2.6564-3.0586h-2.5823v-1.4922h5.1117v1.1748l-2.6564 3.0586z"/>
<path d="m472.91 275.64q1.4288 0 2.1802 0.65617 0.75142 0.64558 0.75142 1.9897v3.1856h-1.8732v-0.74083q-0.43391 0.83608-1.6933 0.83608-0.66675 0-1.1536-0.23283-0.48684-0.23284-0.74084-0.62442-0.24341-0.40216-0.24341-0.91016 0-0.81492 0.62441-1.2594 0.62442-0.45509 1.9262-0.45509h1.143q-0.0529-0.91016-1.2171-0.91016-0.41275 0-0.83608 0.13758-0.42333 0.127-0.71966 0.35984l-0.67734-1.3652q0.47625-0.3175 1.1536-0.48683 0.68792-0.17992 1.3758-0.17992zm-0.0741 4.6566q0.34925 0 0.61383-0.16933t0.381-0.49741v-0.49742h-0.86783q-0.87841 0-0.87841 0.58208 0 0.26458 0.20108 0.42333t0.55033 0.15875z"/>
</g>
<path transform="scale(.26458)" d="m1810.9 1042.9-7.5996 4.5664v16.324h7.5996z" stroke-width=".95819"/>
<path d="m486.52 273.62v7.8528h-1.9156v-0.5715q-0.56092 0.66675-1.6828 0.66675-0.78316 0-1.4287-0.35983-0.64558-0.37042-1.0266-1.0478-0.37042-0.67733-0.37042-1.5663 0-0.88899 0.37042-1.5557 0.381-0.67733 1.0266-1.0372 0.64558-0.35983 1.4287-0.35983 1.0266 0 1.5875 0.59267v-2.6141zm-3.175 6.35q0.51858 0 0.85724-0.35983 0.33867-0.37042 0.33867-1.016 0-0.635-0.33867-0.99483-0.32808-0.35983-0.85724-0.35983-0.52917 0-0.86783 0.35983-0.33867 0.35983-0.33867 0.99483 0 0.64558 0.33867 1.016 0.33866 0.35983 0.86783 0.35983z" stroke-width=".25352"/>
<path d="m476.72 274.16v2.7054l2.3908-1.437z"/>
</g>
<g transform="matrix(.21979 0 0 .21979 -67.07 -44.29)" fill="#1aa689" stroke-width=".22205" aria-label="TUTORIAL">
<path d="m356.45 271.28h-2.1506v-1.0197h5.5062v1.0197h-2.1506v5.4691h-1.2051z"/>
<path d="m367.79 276.85q-1.3441 0-2.095-0.75084-0.75085-0.76012-0.75085-2.1691v-3.6615h1.2051v3.6152q0 1.9096 1.65 1.9096 1.6407 0 1.6407-1.9096v-3.6152h1.1865v3.6615q0 1.409-0.75084 2.1691-0.74158 0.75084-2.0857 0.75084z"/>
<path d="m377.91 271.28h-2.1506v-1.0197h5.5062v1.0197h-2.1506v5.4691h-1.2051z"/>
<path d="m389.52 276.85q-0.99186 0-1.7891-0.4264-0.79719-0.43568-1.2514-1.1958-0.45422-0.76939-0.45422-1.7149t0.45422-1.7056q0.45422-0.76939 1.2514-1.1958 0.7972-0.43568 1.7891-0.43568t1.7891 0.43568q0.7972 0.4264 1.2514 1.1865 0.45422 0.76012 0.45422 1.7149t-0.45422 1.7149q-0.45421 0.76012-1.2514 1.1958-0.7972 0.4264-1.7891 0.4264zm0-1.0567q0.64888 0 1.168-0.28737 0.5191-0.29663 0.81573-0.81573 0.29663-0.52838 0.29663-1.1773t-0.29663-1.168q-0.29663-0.52838-0.81573-0.81574-0.51911-0.29663-1.168-0.29663t-1.168 0.29663q-0.51911 0.28736-0.81574 0.81574-0.29663 0.5191-0.29663 1.168t0.29663 1.1773q0.29663 0.5191 0.81574 0.81573 0.5191 0.28737 1.168 0.28737z"/>
<path d="m402.95 276.75-1.3256-1.9003q-0.0834 9e-3 -0.25028 9e-3h-1.4646v1.891h-1.2051v-6.4888h2.6697q0.84354 0 1.4646 0.27809 0.63035 0.27809 0.96406 0.7972 0.33371 0.5191 0.33371 1.2329 0 0.73231-0.36152 1.2607-0.35225 0.52838-1.0197 0.78793l1.4924 2.132zm-0.0278-4.1806q0-0.62107-0.40787-0.95478-0.40786-0.33371-1.1958-0.33371h-1.409v2.5862h1.409q0.78793 0 1.1958-0.33371 0.40787-0.34298 0.40787-0.96405z"/>
<path d="m409.88 270.26h1.2051v6.4888h-1.2051z"/>
<path d="m421.45 275.25h-3.2444l-0.63961 1.5017h-1.2422l2.92-6.4888h1.1865l2.9292 6.4888h-1.2607zm-0.39859-0.94551-1.2236-2.8365-1.2143 2.8365z"/>
<path d="m428.59 270.26h1.2051v5.4691h3.3927v1.0197h-4.5978z"/>
</g>
</g>
</g>
</svg>
