<?xml version="1.0" encoding="UTF-8" standalone="no"?>
<svg
   width="94.998428"
   height="87.019836"
   version="1.1"
   viewBox="0 0 25.135 23.023998"
   id="svg53"
   sodipodi:docname="abu-zaid.svg"
   inkscape:version="1.1 (c68e22c387, 2021-05-23)"
   xmlns:inkscape="http://www.inkscape.org/namespaces/inkscape"
   xmlns:sodipodi="http://sodipodi.sourceforge.net/DTD/sodipodi-0.dtd"
   xmlns:xlink="http://www.w3.org/1999/xlink"
   xmlns="http://www.w3.org/2000/svg"
   xmlns:svg="http://www.w3.org/2000/svg">
  <sodipodi:namedview
     id="namedview55"
     pagecolor="#ffffff"
     bordercolor="#111111"
     borderopacity="1"
     inkscape:pageshadow="0"
     inkscape:pageopacity="0"
     inkscape:pagecheckerboard="1"
     inkscape:document-units="px"
     showgrid="false"
     inkscape:zoom="4.6723412"
     inkscape:cx="63.351538"
     inkscape:cy="46.2295"
     inkscape:window-width="1366"
     inkscape:window-height="703"
     inkscape:window-x="0"
     inkscape:window-y="0"
     inkscape:window-maximized="1"
     inkscape:current-layer="g2723"
     units="px"
     width="94.99843px"
     inkscape:snap-page="true"
     inkscape:snap-bbox="true"
     inkscape:bbox-nodes="true" />
  <defs
     id="defs7">
    <linearGradient
       id="linearGradient128758"
       x1="415.98999"
       x2="480.87"
       y1="209.59"
       y2="209.59"
       gradientTransform="matrix(0.21219662,0,0,0.21237969,-82.550312,-36.630423)"
       gradientUnits="userSpaceOnUse">
      <stop
         stop-color="#19ac8b"
         offset="0"
         id="stop2" />
      <stop
         stop-color="#31e97f"
         offset="1"
         id="stop4" />
    </linearGradient>
    <linearGradient
       inkscape:collect="always"
       xlink:href="#linearGradient128758"
       id="linearGradient2725"
       gradientUnits="userSpaceOnUse"
       gradientTransform="matrix(0.21219662,0,0,0.21237969,-82.550312,-36.630423)"
       x1="415.98999"
       y1="209.59"
       x2="480.87"
       y2="209.59" />
  </defs>
  <g
     id="g2723"
     transform="matrix(0.95680947,0,0,0.9562672,0.42689181,0.50370023)"
     style="display:inline;stroke-width:1.04543">
    <path
       style="color:#000000;fill:#ffffff;stroke-linecap:round;stroke-linejoin:round;-inkscape-stroke:none"
       d="m 47.601562,-1.9882812 c -1.925873,-0.01076 -4.055817,0.4487384 -6.109375,1.46874995 -4.77e-4,2.3656e-4 -0.0015,-2.3667e-4 -0.002,0 -0.656992,0.32547547 -1.257425,0.75450384 -1.777343,1.27148437 -0.0039,0.0039 -0.0078,0.007806 -0.01172,0.0117188 L 24.929687,15.548828 c -0.950616,0.950494 -1.432326,2.157548 -1.691406,3.408203 -1.595762,0.392855 -3.077628,1.169451 -4.03125,2.546875 -5.37e-4,7.76e-4 -0.0014,0.0012 -0.002,0.002 -1.586354,2.282845 -3.046062,5.05587 -3.097656,8.435547 -0.05351,3.504822 1.559321,6.567855 3.595703,8.861328 6.16e-4,6.96e-4 0.0013,0.0013 0.002,0.002 1.288828,1.453932 3.144875,2.290384 5.087891,2.291016 h 0.002 2.371094 v 3.195313 c -6e-6,0.0046 -6e-6,0.0091 0,0.01367 0.0097,3.682644 3.102512,6.775496 6.785156,6.785157 h 0.0078 c 0.06117,6.7e-5 0.112992,-0.03353 0.173828,-0.03516 0.734343,2.309599 1.879986,4.388672 3.494141,6.048829 0.46367,0.476883 1.062306,0.818687 1.583984,1.242187 H 38.10941 c -0.684534,0.13398 -1.335334,0.403597 -1.914063,0.792969 -0.578729,-0.389372 -1.229528,-0.658989 -1.914062,-0.792969 h -3.787109 c -0.843794,0.126641 -1.643764,0.457895 -2.330079,0.964844 C 27.219715,58.84942 26.222254,58.557844 25.191406,58.392578 24.670019,56.1578 22.752162,54.524334 20.462891,54.365234 h -3.78711 c -2.388826,0.144584 -4.374429,1.892847 -4.820312,4.244141 -1.029545,-0.233696 -2.0713279,-0.433594 -3.0937502,-0.433594 -1.3113428,0 -2.6182447,0.177669 -3.8828126,0.50586 -1.3108573,0.330162 -2.5981783,0.841442 -3.78125,1.630859 -2.1857963,1.458578 -2.9491592,4.313037 -1.78320307,6.667969 l 0.15820312,0.320312 C -1.225583,68.570466 -1.6875,69.95435 -1.6875,71.244141 c 0,1.475087 0.4027513,3.08227 1.21289062,4.421875 0.0279228,0.04667 0.0565721,0.0929 0.0859375,0.138671 0.88717531,1.368892 2.19809978,2.414402 3.52343748,3.048829 h 0.00195 c 1.4572012,0.697489 2.9895304,0.949218 4.4296874,0.949218 0.8103661,0 1.6905223,-0.172462 2.574219,-0.433593 0.15115,0.07116 0.305624,0.135037 0.462891,0.191406 0.06858,1.338897 0.648921,2.600274 1.621093,3.523437 v 0.613282 c -4.65e-4,2.88706 2.339504,5.227902 5.226563,5.228515 h 0.966797 c 1.359824,-0.01 2.662242,-0.549442 3.630859,-1.503906 1.410687,1.011838 3.086484,1.585938 4.498047,1.585937 1.403106,10e-7 3.074337,-0.577007 4.484375,-1.58789 0.968787,0.955649 2.272036,1.495866 3.632812,1.505859 h 0.964844 c 1.348014,-0.01441 2.638348,-0.549019 3.601563,-1.492187 0.269011,0.196098 0.518311,0.435334 0.800781,0.589843 0.01364,0.0072 0.02732,0.01438 0.04102,0.02148 1.21522,0.650523 2.612624,0.962891 3.902343,0.96289 1.289709,0 2.687052,-0.312292 3.902344,-0.96289 0.01371,-0.0071 0.02738,-0.01426 0.04102,-0.02148 0.158255,-0.08656 0.292869,-0.230055 0.447265,-0.330078 0.83718,0.713533 1.878106,1.144803 2.97461,1.232422 h 0.966797 c 0.477374,-0.122485 0.93503,-0.31186 1.359375,-0.5625 0.336883,0.228937 0.699368,0.417717 1.080078,0.5625 h 1.039062 c 0.950923,-0.0013 1.88348,-0.261962 2.697266,-0.753906 0.553501,0.364407 1.171241,0.620252 1.820312,0.753906 h 0.966797 c 0.864356,-0.125209 1.683567,-0.46498 2.382813,-0.988281 0.534037,0.448009 1.152281,0.78469 1.818359,0.990234 h 0.996094 c 0.681333,-0.267778 1.298828,-0.675671 1.8125,-1.197265 0.517087,0.522963 1.138699,0.930937 1.824219,1.197265 h 1.009765 c 0.894751,-0.0058 1.773034,-0.241187 2.550781,-0.683593 0.505174,0.319565 1.061415,0.550121 1.644532,0.68164 h 3.6875 c 2.886296,-6.13e-4 5.225949,-2.340266 5.226562,-5.226562 v -0.81836 c -0.05403,-1.227609 -0.53878,-2.39695 -1.36914,-3.302734 0.609701,0.103734 1.220928,0.228516 1.828125,0.228516 0.780693,0 1.616424,-0.276056 2.441406,-0.480469 0.234924,0.11845 0.478454,0.218996 0.728515,0.300781 h 3.607422 c 2.886297,-6.13e-4 5.22595,-2.340265 5.226563,-5.226562 V 59.59375 C 96.684939,56.707453 94.345286,54.3678 91.458989,54.367187 H 87.67188 c -2.29058,0.158519 -4.209606,1.793098 -4.730469,4.029297 -0.788214,0.127197 -1.539943,0.347651 -2.287109,0.646485 -0.213093,-0.239801 -0.447807,-0.459477 -0.701172,-0.65625 l -4.503906,-2.390625 c -2.528093,-0.950445 -5.364006,0.18138 -6.542969,2.611328 -1.025924,-0.23214 -2.065286,-0.431641 -3.083984,-0.431641 -1.311337,0 -2.618248,0.177674 -3.882813,0.50586 -0.307458,0.07743 -0.584617,0.283901 -0.888672,0.382812 -0.520869,-0.333837 -1.096861,-0.572566 -1.701172,-0.705078 h -4.21289 c 0.03282,-0.03199 0.07496,-0.04955 0.107422,-0.08203 v -0.002 l 20.835937,-20.855469 0.0039,-0.0059 c 0.189888,-0.189916 0.369027,-0.388591 0.535157,-0.599609 0.0033,-0.0046 0.0065,-0.0091 0.0098,-0.01367 3.327695,-4.255584 3.50332,-10.40612 -0.115268,-14.779213 -0.105124,-0.129148 -0.211837,-0.257795 -0.326172,-0.378906 -0.03399,-0.0363 -0.0685,-0.07211 -0.103516,-0.107422 l -20.75,-20.76367163 C 54.821336,0.25633635 54.22868,-0.17212493 53.580078,-0.5 l -0.0039,-0.003906 c -1.289675,-0.6502786 -3.040886,-1.3061776 -5.16211,-1.4550781 -0.276551,-0.019413 -0.546777,-0.027812 -0.8125,-0.029297 z m -0.08984,14.1835942 6.478515,6.482421 c -0.161586,-0.01259 -0.308118,-0.104468 -0.470703,-0.105468 -0.01042,-3.1e-5 -0.02083,-3.1e-5 -0.03125,0 H 41.140625 Z m 8.818359,7.001953 0.03125,0.01563 c -0.003,-0.0014 -0.0067,-5.36e-4 -0.0098,-0.002 -0.0078,-0.0036 -0.01363,-0.01006 -0.02148,-0.01367 z m 6.011719,7.839843 2.439453,2.441407 -3.199219,3.201171 c 0.553019,-1.224849 0.949758,-2.565337 0.980469,-4.0625 0.01118,-0.54768 -0.140859,-1.053952 -0.220703,-1.580078 z m -22.011719,5.140625 h 3.623047 l -3.183594,3.1875 v -1.076172 c 6e-6,-0.0046 6e-6,-0.0091 0,-0.01367 -0.002,-0.739096 -0.209173,-1.426306 -0.439453,-2.097657 z m -11.636719,27.339844 0.03125,0.01758 c -0.0056,-0.0032 -0.01199,-0.0047 -0.01758,-0.0078 -0.0049,-0.0027 -0.0088,-0.007 -0.01367,-0.0098 z"
       transform="scale(0.26458333)"
       sodipodi:nodetypes="sscscccscsscscccccscsccccccccccsccccsccccscccccccsccccccscccccccccccccccccccccccsccccccccccccsccccccccccccccccssscccccccccccccccccccccscccccc"
       id="path3508" />
    <path
       d="M 8.9870561,11.71811 V 9.0731949 H 6.5602968 c -0.6871506,-0.7730373 -0.6409923,-1.4375415 0,-2.3590871 h 7.5916362 c 0.879883,0.4044191 0.666113,1.2307567 0.162804,1.6584342 l -3.370006,3.372913 c -1.143191,1.144177 1.134792,3.66589 2.398762,2.40083 L 18.85738,8.6276411 c 0.359418,-0.4596422 0.375599,-1.2044737 0,-1.656405 L 13.364926,1.4740432 c -0.415821,-0.2096644 -0.863626,-0.3601246 -1.587299,0 l -3.9089212,3.912293"
       fill="none"
       stroke="url(#linearGradient128758)"
       stroke-linecap="round"
       stroke-linejoin="round"
       stroke-width="0.872082"
       id="path9"
       style="stroke:url(#linearGradient2725)" />
    <g
       transform="matrix(0.49841441,0,0,0.49884441,-218.28991,-120.72617)"
       stroke-width="1.00172"
       id="g29">
      <g
         stroke-width="0.265039"
         id="g21">
        <path
           d="m 442.62,275.64 q 1.4287,0 2.1802,0.65617 0.75142,0.64558 0.75142,1.9897 v 3.1856 h -1.8732 v -0.74083 q -0.43391,0.83608 -1.6933,0.83608 -0.66675,0 -1.1536,-0.23283 -0.48683,-0.23284 -0.74083,-0.62442 -0.24342,-0.40216 -0.24342,-0.91016 0,-0.81492 0.62442,-1.2594 0.62441,-0.45509 1.9262,-0.45509 h 1.143 q -0.0529,-0.91016 -1.2171,-0.91016 -0.41275,0 -0.83608,0.13758 -0.42333,0.127 -0.71966,0.35984 l -0.67733,-1.3652 q 0.47624,-0.3175 1.1536,-0.48683 0.68791,-0.17992 1.3758,-0.17992 z m -0.0741,4.6566 q 0.34925,0 0.61383,-0.16933 0.26459,-0.16933 0.381,-0.49741 v -0.49742 h -0.86783 q -0.87841,0 -0.87841,0.58208 0,0.26458 0.20108,0.42333 0.20108,0.15875 0.55033,0.15875 z"
           id="path11"
           style="stroke-width:0.265039" />
        <path
           d="m 450.43,275.64 q 0.78317,0 1.4182,0.35983 0.64559,0.35984 1.016,1.0372 0.381,0.66675 0.381,1.5557 0,0.889 -0.381,1.5663 -0.37041,0.67733 -1.016,1.0478 -0.63499,0.35983 -1.4182,0.35983 -1.1324,0 -1.6933,-0.66675 v 0.5715 h -1.9156 v -7.8528 h 2.0108 v 2.6141 q 0.58209,-0.59267 1.5981,-0.59267 z m -0.42333,4.3286 q 0.52917,0 0.86783,-0.35983 0.33867,-0.37042 0.33867,-1.016 0,-0.635 -0.33867,-0.99483 -0.33866,-0.35983 -0.86783,-0.35983 -0.52916,0 -0.86783,0.35983 -0.33867,0.35983 -0.33867,0.99483 0,0.64558 0.33867,1.016 0.33867,0.35983 0.86783,0.35983 z"
           id="path13"
           style="stroke-width:0.265039" />
        <path
           d="m 460.21,275.73 v 5.7362 h -1.9156 v -0.61383 q -0.3175,0.34925 -0.762,0.52916 -0.4445,0.17992 -0.94191,0.17992 -1.1112,0 -1.778,-0.65616 -0.65616,-0.65617 -0.65616,-1.9685 v -3.2067 h 2.0108 v 2.8787 q 0,0.64558 0.24341,0.94191 0.24342,0.29634 0.70908,0.29634 0.47625,0 0.77259,-0.32809 0.30691,-0.33866 0.30691,-1.0266 v -2.7622 z"
           id="path15"
           style="stroke-width:0.265039" />
        <path
           d="m 469.58,279.97 v 1.5028 h -5.2916 v -1.1853 l 2.6564,-3.0586 h -2.5823 v -1.4922 h 5.1117 v 1.1748 l -2.6564,3.0586 z"
           id="path17"
           style="stroke-width:0.265039" />
        <path
           d="m 472.91,275.64 q 1.4288,0 2.1802,0.65617 0.75142,0.64558 0.75142,1.9897 v 3.1856 h -1.8732 v -0.74083 q -0.43391,0.83608 -1.6933,0.83608 -0.66675,0 -1.1536,-0.23283 -0.48684,-0.23284 -0.74084,-0.62442 -0.24341,-0.40216 -0.24341,-0.91016 0,-0.81492 0.62441,-1.2594 0.62442,-0.45509 1.9262,-0.45509 h 1.143 q -0.0529,-0.91016 -1.2171,-0.91016 -0.41275,0 -0.83608,0.13758 -0.42333,0.127 -0.71966,0.35984 l -0.67734,-1.3652 q 0.47625,-0.3175 1.1536,-0.48683 0.68792,-0.17992 1.3758,-0.17992 z m -0.0741,4.6566 q 0.34925,0 0.61383,-0.16933 0.26458,-0.16933 0.381,-0.49741 v -0.49742 h -0.86783 q -0.87841,0 -0.87841,0.58208 0,0.26458 0.20108,0.42333 0.20108,0.15875 0.55033,0.15875 z"
           id="path19"
           style="stroke-width:0.265039" />
      </g>
      <path
         transform="scale(0.26458)"
         d="m 1810.9,1042.9 -7.5996,4.5664 v 16.324 h 7.5996 z"
         stroke-width="1.00172"
         id="path23" />
      <path
         d="m 486.52,273.62 v 7.8528 h -1.9156 v -0.5715 q -0.56092,0.66675 -1.6828,0.66675 -0.78316,0 -1.4287,-0.35983 -0.64558,-0.37042 -1.0266,-1.0478 -0.37042,-0.67733 -0.37042,-1.5663 0,-0.88899 0.37042,-1.5557 0.381,-0.67733 1.0266,-1.0372 0.64558,-0.35983 1.4287,-0.35983 1.0266,0 1.5875,0.59267 v -2.6141 z m -3.175,6.35 q 0.51858,0 0.85724,-0.35983 0.33867,-0.37042 0.33867,-1.016 0,-0.635 -0.33867,-0.99483 -0.32808,-0.35983 -0.85724,-0.35983 -0.52917,0 -0.86783,0.35983 -0.33867,0.35983 -0.33867,0.99483 0,0.64558 0.33867,1.016 0.33866,0.35983 0.86783,0.35983 z"
         stroke-width="0.265039"
         id="path25" />
      <path
         d="m 476.72,274.16 v 2.7054 l 2.3908,-1.437 z"
         id="path27"
         style="stroke-width:1.00172" />
    </g>
    <g
       transform="matrix(0.21219662,0,0,0.21237969,-71.019922,-36.630423)"
       fill="#1aa689"
       stroke-width="0.232139"
       aria-label="TUTORIAL"
       id="g47">
      <path
         d="m 356.45,271.28 h -2.1506 v -1.0197 h 5.5062 v 1.0197 h -2.1506 v 5.4691 h -1.2051 z"
         id="path31"
         style="stroke-width:0.232139" />
      <path
         d="m 367.79,276.85 q -1.3441,0 -2.095,-0.75084 -0.75085,-0.76012 -0.75085,-2.1691 v -3.6615 h 1.2051 v 3.6152 q 0,1.9096 1.65,1.9096 1.6407,0 1.6407,-1.9096 v -3.6152 h 1.1865 v 3.6615 q 0,1.409 -0.75084,2.1691 -0.74158,0.75084 -2.0857,0.75084 z"
         id="path33"
         style="stroke-width:0.232139" />
      <path
         d="m 377.91,271.28 h -2.1506 v -1.0197 h 5.5062 v 1.0197 h -2.1506 v 5.4691 h -1.2051 z"
         id="path35"
         style="stroke-width:0.232139" />
      <path
         d="m 389.52,276.85 q -0.99186,0 -1.7891,-0.4264 -0.79719,-0.43568 -1.2514,-1.1958 -0.45422,-0.76939 -0.45422,-1.7149 0,-0.94551 0.45422,-1.7056 0.45422,-0.76939 1.2514,-1.1958 0.7972,-0.43568 1.7891,-0.43568 0.9919,0 1.7891,0.43568 0.7972,0.4264 1.2514,1.1865 0.45422,0.76012 0.45422,1.7149 0,0.95478 -0.45422,1.7149 -0.45421,0.76012 -1.2514,1.1958 -0.7972,0.4264 -1.7891,0.4264 z m 0,-1.0567 q 0.64888,0 1.168,-0.28737 0.5191,-0.29663 0.81573,-0.81573 0.29663,-0.52838 0.29663,-1.1773 0,-0.64892 -0.29663,-1.168 -0.29663,-0.52838 -0.81573,-0.81574 -0.51911,-0.29663 -1.168,-0.29663 -0.64889,0 -1.168,0.29663 -0.51911,0.28736 -0.81574,0.81574 -0.29663,0.5191 -0.29663,1.168 0,0.6489 0.29663,1.1773 0.29663,0.5191 0.81574,0.81573 0.5191,0.28737 1.168,0.28737 z"
         id="path37"
         style="stroke-width:0.232139" />
      <path
         d="m 402.95,276.75 -1.3256,-1.9003 q -0.0834,0.009 -0.25028,0.009 h -1.4646 v 1.891 h -1.2051 v -6.4888 h 2.6697 q 0.84354,0 1.4646,0.27809 0.63035,0.27809 0.96406,0.7972 0.33371,0.5191 0.33371,1.2329 0,0.73231 -0.36152,1.2607 -0.35225,0.52838 -1.0197,0.78793 l 1.4924,2.132 z m -0.0278,-4.1806 q 0,-0.62107 -0.40787,-0.95478 -0.40786,-0.33371 -1.1958,-0.33371 h -1.409 v 2.5862 h 1.409 q 0.78793,0 1.1958,-0.33371 0.40787,-0.34298 0.40787,-0.96405 z"
         id="path39"
         style="stroke-width:0.232139" />
      <path
         d="m 409.88,270.26 h 1.2051 v 6.4888 H 409.88 Z"
         id="path41"
         style="stroke-width:0.232139" />
      <path
         d="m 421.45,275.25 h -3.2444 l -0.63961,1.5017 h -1.2422 l 2.92,-6.4888 h 1.1865 l 2.9292,6.4888 h -1.2607 z m -0.39859,-0.94551 -1.2236,-2.8365 -1.2143,2.8365 z"
         id="path43"
         style="stroke-width:0.232139" />
      <path
         d="m 428.59,270.26 h 1.2051 v 5.4691 h 3.3927 v 1.0197 H 428.59 Z"
         id="path45"
         style="stroke-width:0.232139" />
    </g>
  </g>
</svg>
