<?xml version="1.0" encoding="UTF-8" standalone="no"?>
<svg
   width="87.30323"
   height="79.999992"
   version="1.1"
   viewBox="0 0 23.098977 21.166664"
   id="svg53"
   sodipodi:docname="abu-zaid.svg"
   inkscape:version="1.1 (c68e22c387, 2021-05-23)"
   xmlns:inkscape="http://www.inkscape.org/namespaces/inkscape"
   xmlns:sodipodi="http://sodipodi.sourceforge.net/DTD/sodipodi-0.dtd"
   xmlns:xlink="http://www.w3.org/1999/xlink"
   xmlns="http://www.w3.org/2000/svg"
   xmlns:svg="http://www.w3.org/2000/svg">
  <sodipodi:namedview
     id="namedview55"
     pagecolor="#ffffff"
     bordercolor="#111111"
     borderopacity="1"
     inkscape:pageshadow="0"
     inkscape:pageopacity="0"
     inkscape:pagecheckerboard="1"
     inkscape:document-units="px"
     showgrid="false"
     inkscape:zoom="4.6723412"
     inkscape:cx="20.439432"
     inkscape:cy="46.229501"
     inkscape:window-width="1366"
     inkscape:window-height="703"
     inkscape:window-x="0"
     inkscape:window-y="0"
     inkscape:window-maximized="1"
     inkscape:current-layer="g2723"
     units="px"
     width="94.99843px"
     inkscape:snap-page="true"
     inkscape:snap-bbox="true"
     inkscape:bbox-nodes="true"
     inkscape:snap-global="false" />
  <defs
     id="defs7">
    <linearGradient
       id="linearGradient128758"
       x1="415.98999"
       x2="480.87"
       y1="209.59"
       y2="209.59"
       gradientTransform="matrix(0.21219662,0,0,0.21237969,-82.550312,-36.630423)"
       gradientUnits="userSpaceOnUse">
      <stop
         stop-color="#19ac8b"
         offset="0"
         id="stop2" />
      <stop
         stop-color="#31e97f"
         offset="1"
         id="stop4" />
    </linearGradient>
    <linearGradient
       inkscape:collect="always"
       xlink:href="#linearGradient128758"
       id="linearGradient2725"
       gradientUnits="userSpaceOnUse"
       gradientTransform="matrix(0.21219662,0,0,0.21237969,-82.550312,-36.630423)"
       x1="415.98999"
       y1="209.59"
       x2="480.87"
       y2="209.59" />
  </defs>
  <g
     id="g2723"
     transform="matrix(0.95680947,0,0,0.9562672,0.42689191,0.50788452)"
     style="display:inline;stroke-width:1.04543">
    <g
       id="g946"
       transform="matrix(1.0377996,0,0,1.0377996,-1.4178615,-1.4012297)">
      <path
         d="M 8.9870561,11.71811 V 9.0731949 H 6.5602968 c -0.6871506,-0.7730373 -0.6409923,-1.4375415 0,-2.3590871 h 7.5916362 c 0.879883,0.4044191 0.666113,1.2307567 0.162804,1.6584342 l -3.370006,3.372913 c -1.143191,1.144177 1.134792,3.66589 2.398762,2.40083 L 18.85738,8.6276411 c 0.359418,-0.4596422 0.375599,-1.2044737 0,-1.656405 L 13.364926,1.4740432 c -0.415821,-0.2096644 -0.863626,-0.3601246 -1.587299,0 l -3.9089212,3.912293"
         fill="none"
         stroke="url(#linearGradient128758)"
         stroke-linecap="round"
         stroke-linejoin="round"
         stroke-width="0.872082"
         id="path9"
         style="stroke:url(#linearGradient2725)" />
      <g
         transform="matrix(0.49841441,0,0,0.49884441,-218.28991,-120.72617)"
         stroke-width="1.00172"
         id="g29">
        <g
           stroke-width="0.265039"
           id="g21">
          <path
             d="m 442.62,275.64 q 1.4287,0 2.1802,0.65617 0.75142,0.64558 0.75142,1.9897 v 3.1856 h -1.8732 v -0.74083 q -0.43391,0.83608 -1.6933,0.83608 -0.66675,0 -1.1536,-0.23283 -0.48683,-0.23284 -0.74083,-0.62442 -0.24342,-0.40216 -0.24342,-0.91016 0,-0.81492 0.62442,-1.2594 0.62441,-0.45509 1.9262,-0.45509 h 1.143 q -0.0529,-0.91016 -1.2171,-0.91016 -0.41275,0 -0.83608,0.13758 -0.42333,0.127 -0.71966,0.35984 l -0.67733,-1.3652 q 0.47624,-0.3175 1.1536,-0.48683 0.68791,-0.17992 1.3758,-0.17992 z m -0.0741,4.6566 q 0.34925,0 0.61383,-0.16933 0.26459,-0.16933 0.381,-0.49741 v -0.49742 h -0.86783 q -0.87841,0 -0.87841,0.58208 0,0.26458 0.20108,0.42333 0.20108,0.15875 0.55033,0.15875 z"
             id="path11"
             style="stroke-width:0.265039" />
          <path
             d="m 450.43,275.64 q 0.78317,0 1.4182,0.35983 0.64559,0.35984 1.016,1.0372 0.381,0.66675 0.381,1.5557 0,0.889 -0.381,1.5663 -0.37041,0.67733 -1.016,1.0478 -0.63499,0.35983 -1.4182,0.35983 -1.1324,0 -1.6933,-0.66675 v 0.5715 h -1.9156 v -7.8528 h 2.0108 v 2.6141 q 0.58209,-0.59267 1.5981,-0.59267 z m -0.42333,4.3286 q 0.52917,0 0.86783,-0.35983 0.33867,-0.37042 0.33867,-1.016 0,-0.635 -0.33867,-0.99483 -0.33866,-0.35983 -0.86783,-0.35983 -0.52916,0 -0.86783,0.35983 -0.33867,0.35983 -0.33867,0.99483 0,0.64558 0.33867,1.016 0.33867,0.35983 0.86783,0.35983 z"
             id="path13"
             style="stroke-width:0.265039" />
          <path
             d="m 460.21,275.73 v 5.7362 h -1.9156 v -0.61383 q -0.3175,0.34925 -0.762,0.52916 -0.4445,0.17992 -0.94191,0.17992 -1.1112,0 -1.778,-0.65616 -0.65616,-0.65617 -0.65616,-1.9685 v -3.2067 h 2.0108 v 2.8787 q 0,0.64558 0.24341,0.94191 0.24342,0.29634 0.70908,0.29634 0.47625,0 0.77259,-0.32809 0.30691,-0.33866 0.30691,-1.0266 v -2.7622 z"
             id="path15"
             style="stroke-width:0.265039" />
          <path
             d="m 469.58,279.97 v 1.5028 h -5.2916 v -1.1853 l 2.6564,-3.0586 h -2.5823 v -1.4922 h 5.1117 v 1.1748 l -2.6564,3.0586 z"
             id="path17"
             style="stroke-width:0.265039" />
          <path
             d="m 472.91,275.64 q 1.4288,0 2.1802,0.65617 0.75142,0.64558 0.75142,1.9897 v 3.1856 h -1.8732 v -0.74083 q -0.43391,0.83608 -1.6933,0.83608 -0.66675,0 -1.1536,-0.23283 -0.48684,-0.23284 -0.74084,-0.62442 -0.24341,-0.40216 -0.24341,-0.91016 0,-0.81492 0.62441,-1.2594 0.62442,-0.45509 1.9262,-0.45509 h 1.143 q -0.0529,-0.91016 -1.2171,-0.91016 -0.41275,0 -0.83608,0.13758 -0.42333,0.127 -0.71966,0.35984 l -0.67734,-1.3652 q 0.47625,-0.3175 1.1536,-0.48683 0.68792,-0.17992 1.3758,-0.17992 z m -0.0741,4.6566 q 0.34925,0 0.61383,-0.16933 0.26458,-0.16933 0.381,-0.49741 v -0.49742 h -0.86783 q -0.87841,0 -0.87841,0.58208 0,0.26458 0.20108,0.42333 0.20108,0.15875 0.55033,0.15875 z"
             id="path19"
             style="stroke-width:0.265039" />
        </g>
        <path
           transform="scale(0.26458)"
           d="m 1810.9,1042.9 -7.5996,4.5664 v 16.324 h 7.5996 z"
           stroke-width="1.00172"
           id="path23" />
        <path
           d="m 486.52,273.62 v 7.8528 h -1.9156 v -0.5715 q -0.56092,0.66675 -1.6828,0.66675 -0.78316,0 -1.4287,-0.35983 -0.64558,-0.37042 -1.0266,-1.0478 -0.37042,-0.67733 -0.37042,-1.5663 0,-0.88899 0.37042,-1.5557 0.381,-0.67733 1.0266,-1.0372 0.64558,-0.35983 1.4287,-0.35983 1.0266,0 1.5875,0.59267 v -2.6141 z m -3.175,6.35 q 0.51858,0 0.85724,-0.35983 0.33867,-0.37042 0.33867,-1.016 0,-0.635 -0.33867,-0.99483 -0.32808,-0.35983 -0.85724,-0.35983 -0.52917,0 -0.86783,0.35983 -0.33867,0.35983 -0.33867,0.99483 0,0.64558 0.33867,1.016 0.33866,0.35983 0.86783,0.35983 z"
           stroke-width="0.265039"
           id="path25" />
        <path
           d="m 476.72,274.16 v 2.7054 l 2.3908,-1.437 z"
           id="path27"
           style="stroke-width:1.00172" />
      </g>
      <g
         transform="matrix(0.21219662,0,0,0.21237969,-71.019922,-36.630423)"
         fill="#1aa689"
         stroke-width="0.232139"
         aria-label="TUTORIAL"
         id="g47">
        <path
           d="m 356.45,271.28 h -2.1506 v -1.0197 h 5.5062 v 1.0197 h -2.1506 v 5.4691 h -1.2051 z"
           id="path31"
           style="stroke-width:0.232139" />
        <path
           d="m 367.79,276.85 q -1.3441,0 -2.095,-0.75084 -0.75085,-0.76012 -0.75085,-2.1691 v -3.6615 h 1.2051 v 3.6152 q 0,1.9096 1.65,1.9096 1.6407,0 1.6407,-1.9096 v -3.6152 h 1.1865 v 3.6615 q 0,1.409 -0.75084,2.1691 -0.74158,0.75084 -2.0857,0.75084 z"
           id="path33"
           style="stroke-width:0.232139" />
        <path
           d="m 377.91,271.28 h -2.1506 v -1.0197 h 5.5062 v 1.0197 h -2.1506 v 5.4691 h -1.2051 z"
           id="path35"
           style="stroke-width:0.232139" />
        <path
           d="m 389.52,276.85 q -0.99186,0 -1.7891,-0.4264 -0.79719,-0.43568 -1.2514,-1.1958 -0.45422,-0.76939 -0.45422,-1.7149 0,-0.94551 0.45422,-1.7056 0.45422,-0.76939 1.2514,-1.1958 0.7972,-0.43568 1.7891,-0.43568 0.9919,0 1.7891,0.43568 0.7972,0.4264 1.2514,1.1865 0.45422,0.76012 0.45422,1.7149 0,0.95478 -0.45422,1.7149 -0.45421,0.76012 -1.2514,1.1958 -0.7972,0.4264 -1.7891,0.4264 z m 0,-1.0567 q 0.64888,0 1.168,-0.28737 0.5191,-0.29663 0.81573,-0.81573 0.29663,-0.52838 0.29663,-1.1773 0,-0.64892 -0.29663,-1.168 -0.29663,-0.52838 -0.81573,-0.81574 -0.51911,-0.29663 -1.168,-0.29663 -0.64889,0 -1.168,0.29663 -0.51911,0.28736 -0.81574,0.81574 -0.29663,0.5191 -0.29663,1.168 0,0.6489 0.29663,1.1773 0.29663,0.5191 0.81574,0.81573 0.5191,0.28737 1.168,0.28737 z"
           id="path37"
           style="stroke-width:0.232139" />
        <path
           d="m 402.95,276.75 -1.3256,-1.9003 q -0.0834,0.009 -0.25028,0.009 h -1.4646 v 1.891 h -1.2051 v -6.4888 h 2.6697 q 0.84354,0 1.4646,0.27809 0.63035,0.27809 0.96406,0.7972 0.33371,0.5191 0.33371,1.2329 0,0.73231 -0.36152,1.2607 -0.35225,0.52838 -1.0197,0.78793 l 1.4924,2.132 z m -0.0278,-4.1806 q 0,-0.62107 -0.40787,-0.95478 -0.40786,-0.33371 -1.1958,-0.33371 h -1.409 v 2.5862 h 1.409 q 0.78793,0 1.1958,-0.33371 0.40787,-0.34298 0.40787,-0.96405 z"
           id="path39"
           style="stroke-width:0.232139" />
        <path
           d="m 409.88,270.26 h 1.2051 v 6.4888 H 409.88 Z"
           id="path41"
           style="stroke-width:0.232139" />
        <path
           d="m 421.45,275.25 h -3.2444 l -0.63961,1.5017 h -1.2422 l 2.92,-6.4888 h 1.1865 l 2.9292,6.4888 h -1.2607 z m -0.39859,-0.94551 -1.2236,-2.8365 -1.2143,2.8365 z"
           id="path43"
           style="stroke-width:0.232139" />
        <path
           d="m 428.59,270.26 h 1.2051 v 5.4691 h 3.3927 v 1.0197 H 428.59 Z"
           id="path45"
           style="stroke-width:0.232139" />
      </g>
    </g>
  </g>
</svg>
