<?xml version="1.0" encoding="UTF-8" standalone="no"?>
<svg
   width="275.44266"
   height="54.551353"
   version="1.1"
   viewBox="0 0 72.878455 14.432811"
   id="svg36"
   sodipodi:docname="somedigit.svg"
   inkscape:version="1.1 (c68e22c387, 2021-05-23)"
   xmlns:inkscape="http://www.inkscape.org/namespaces/inkscape"
   xmlns:sodipodi="http://sodipodi.sourceforge.net/DTD/sodipodi-0.dtd"
   xmlns="http://www.w3.org/2000/svg"
   xmlns:svg="http://www.w3.org/2000/svg">
  <defs
     id="defs40" />
  <sodipodi:namedview
     id="namedview38"
     pagecolor="#ffffff"
     bordercolor="#111111"
     borderopacity="1"
     inkscape:pageshadow="0"
     inkscape:pageopacity="0"
     inkscape:pagecheckerboard="1"
     showgrid="false"
     inkscape:snap-bbox="true"
     inkscape:bbox-paths="false"
     inkscape:bbox-nodes="true"
     inkscape:snap-bbox-midpoints="true"
     inkscape:snap-page="true"
     inkscape:zoom="3.1549216"
     inkscape:cx="137.72133"
     inkscape:cy="27.258997"
     inkscape:window-width="1366"
     inkscape:window-height="703"
     inkscape:window-x="0"
     inkscape:window-y="0"
     inkscape:window-maximized="1"
     inkscape:current-layer="g1189" />
  <g
     transform="matrix(0.23973,0,0,0.23973,-33.153771,-40.130595)"
     id="g34">
    <g
       id="g1189"
       transform="matrix(0.89596835,0,0,0.8796057,30.202056,23.788791)"
       style="stroke-width:1.12644">
      <g
         id="path1033"
         transform="matrix(1.1036861,0,0,1.1036861,124.7445,167.3492)"
         style="fill:#ffffff;fill-opacity:0.07">
        <path
           style="color:#000000;fill:#ffffff;fill-opacity:0.07;stroke-linecap:round;stroke-linejoin:round;-inkscape-stroke:none;paint-order:stroke fill markers"
           d="m 24.34375,-3.6894531 a 5.632763,5.632763 0 0 0 -0.869141,0.097656 l 0.259766,-0.048828 c -0.256154,0.00413 -0.510923,0.019328 -0.765625,0.046875 a 5.632763,5.632763 0 0 0 -0.421875,0.1054687 5.632763,5.632763 0 0 0 -0.123047,0.013672 c -0.0691,0.020208 -0.136528,0.046382 -0.205078,0.068359 a 5.632763,5.632763 0 0 0 -0.736328,0.1835937 c -0.122068,0.048827 -0.233955,0.1193558 -0.353516,0.1738282 -0.07503,0.026241 -0.152287,0.045848 -0.226562,0.074219 a 5.632763,5.632763 0 0 0 -0.806641,0.3847656 L 0.48046875,8.7363281 a 5.632763,5.632763 0 0 0 -0.003906,0.00195 C -3.6998469,11.153652 -4.570269,16.732024 -2.2285154,20.548825 c -0.9041962,1.287381 -1.486066,2.810043 -1.4863282,4.511719 v 13.589844 c -8.88e-5,2.988649 1.608726,5.773581 4.19726573,7.267578 L 20.097656,57.240234 a 5.632763,5.632763 0 0 0 0.753906,0.363282 c 0.323846,0.127455 0.655029,0.235982 0.992188,0.322265 L 20.9375,57.607422 c 0.53601,0.240226 1.095627,0.423583 1.669922,0.546875 a 5.632763,5.632763 0 0 0 0.265625,0.05078 c 0.519368,0.08568 1.046155,0.114496 1.572265,0.101563 0.526015,-0.0079 1.051022,-0.05792 1.566407,-0.164063 a 5.632763,5.632763 0 0 0 0.107422,-0.02344 c 0.558033,-0.126445 1.102303,-0.309777 1.623046,-0.546875 l -0.78125,0.289062 c 0.265754,-0.07617 0.526264,-0.165557 0.783204,-0.267578 a 5.632763,5.632763 0 0 0 0.738281,-0.357422 l 19.613281,-11.324219 0.002,-0.002 c 2.585885,-1.493615 4.193992,-4.275343 4.195313,-7.261719 a 5.632763,5.632763 0 0 0 0,-0.002 V 25.625 c 0.313469,1.463294 0.763937,2.873141 1.517578,4.212891 0.689747,1.226166 1.668264,2.179363 2.742187,3.005859 a 5.632763,5.632763 0 0 0 -3.955078,4.876953 v 5.955078 a 5.632763,5.632763 0 0 0 4.650391,5.546875 c 3.537568,0.626465 7.447624,0.916016 11.771484,0.916016 2.806863,0 5.280323,-0.242637 7.626953,-1.003906 2.52443,-0.808018 4.585359,-2.676054 6.056641,-4.822266 1.008072,1.450386 2.296284,2.705271 3.808594,3.589844 a 5.632763,5.632763 0 0 0 0.109375,0.0625 c 3.369462,1.871923 6.953467,2.173828 11.472656,2.173828 4.548113,0 8.124743,-0.275922 11.515633,-2.195313 a 5.632763,5.632763 0 0 0 0.0293,-0.01758 c 1.05694,-0.606723 1.96193,-1.44042 2.78711,-2.353515 a 5.632763,5.632763 0 0 0 5.0293,4.177734 h 7.1289 a 5.632763,5.632763 0 0 0 2.92579,-1.212891 5.632763,5.632763 0 0 0 3.46875,1.212891 h 5.95703 a 5.632763,5.632763 0 0 0 3.47656,-1.230469 5.632763,5.632763 0 0 0 2.9668,1.230469 h 7.32226 a 5.632763,5.632763 0 0 0 3.77344,-1.564453 5.632763,5.632763 0 0 0 3.77344,1.564453 l 20.21093,-0.002 a 5.632763,5.632763 0 0 0 4.02539,-1.75586 5.632763,5.632763 0 0 0 4.02344,1.748047 h 10.54492 c 4.65422,0 8.28482,-0.284527 11.70508,-2.142578 1.13041,-0.607892 2.10801,-1.475391 2.99414,-2.435547 a 5.632763,5.632763 0 0 0 5.19916,4.58794 h 7.61524 a 5.632763,5.632763 0 0 0 5.21289,-4.621094 c 1.04372,1.243909 2.27382,2.330653 3.73828,3.076172 a 5.632763,5.632763 0 0 0 0.10937,0.05469 c 3.18172,1.533973 6.61101,1.876953 10.79492,1.876953 1.84648,0 3.79163,-0.132854 5.84571,-0.378907 2.0705,-0.212298 3.94489,-0.496257 5.65429,-0.884765 a 5.632763,5.632763 0 0 0 1.86133,-1.166016 5.632763,5.632763 0 0 0 4.14453,2.042969 h 7.61524 a 5.632763,5.632763 0 0 0 5.63281,-5.632813 V 22.703125 h 1.69531 V 44.117187 A 5.632763,5.632763 0 0 0 282.50391,49.75 h 7.61718 a 5.632763,5.632763 0 0 0 5.63282,-5.632813 V 22.703125 h 2.32421 a 5.632763,5.632763 0 0 0 5.63282,-5.632813 V 10.527344 A 5.632763,5.632763 0 0 0 298.07812,4.8945312 H 274.5957 a 5.632763,5.632763 0 0 0 -2.52539,1.046875 5.632763,5.632763 0 0 0 -2.52734,-1.046875 h -7.61524 a 5.632763,5.632763 0 0 0 -4.15625,2.0683594 5.632763,5.632763 0 0 0 -1.8789,-1.2207031 C 254.52243,5.3996465 253.0002,5.1777598 251,4.9394531 248.85671,4.6503638 246.74348,4.5 244.66406,4.5 c -4.23293,0 -7.79706,0.4218165 -11.0332,2.0957031 a 5.632763,5.632763 0 0 0 -0.0352,0.017578 c -1.4528,0.7648572 -2.68131,1.8616265 -3.72851,3.1113282 a 5.632763,5.632763 0 0 0 -5.30078,-4.8300782 h -7.61524 A 5.632763,5.632763 0 0 0 211.75582,9.470703 C 210.8688,8.5082014 209.89099,7.6386845 208.75781,7.0292969 205.33755,5.1712463 201.70695,4.8867188 197.05273,4.8867187 h -10.54492 a 5.632763,5.632763 0 0 0 -4.02539,1.7558594 5.632763,5.632763 0 0 0 -4.02344,-1.7480469 h -20.21093 a 5.632763,5.632763 0 0 0 -3.77344,1.5644532 5.632763,5.632763 0 0 0 -3.77344,-1.5644532 h -10.78906 a 5.632763,5.632763 0 0 0 -5.44922,4.2109376 l -0.33594,1.2890622 -0.33593,-1.2890622 A 5.632763,5.632763 0 0 0 128.3418,4.8945312 h -10.88672 a 5.632763,5.632763 0 0 0 -5.03711,4.1972657 c -0.8288,-0.9096811 -1.74288,-1.7346837 -2.80469,-2.3320313 -3.38647,-1.9585516 -6.98463,-2.2558594 -11.51953,-2.2558594 -4.525836,0 -8.144735,0.3207505 -11.523438,2.2539063 -1.21048,0.6874932 -2.229255,1.65782 -3.125,2.7324219 A 5.632763,5.632763 0 0 0 79.498047,5.5898437 c -3.590767,-0.7182064 -7.137616,-1.0859374 -10.625,-1.0859375 -2.871976,0 -5.430405,0.2537391 -7.820313,0.9707032 -2.855769,0.856772 -5.425079,2.8690451 -7,5.3671876 -0.921152,1.461136 -1.484715,3.014587 -1.828125,4.642578 -0.174924,-2.786902 -1.691334,-5.347085 -4.126953,-6.7539062 l -0.002,-0.00195 -19.613281,-11.3242187 a 5.632763,5.632763 0 0 0 -0.712891,-0.3476563 c -0.306538,-0.1234013 -0.620507,-0.2280407 -0.939453,-0.3144531 l 0.789063,0.2773437 c -0.42648,-0.1869067 -0.868765,-0.3374928 -1.320313,-0.4511718 a 5.632763,5.632763 0 0 0 -0.125,-0.03125 C 25.52278,-3.6109768 24.855104,-3.6798259 24.1875,-3.6699219 l 0.96875,0.068359 c -0.26978,-0.042953 -0.539817,-0.07145 -0.8125,-0.08789 z m 80.08789,15.7851561 0.11524,0.06836 c -0.0224,-0.01369 -0.0344,-0.0081 -0.0567,-0.02149 -0.0237,-0.014 -0.0346,-0.03301 -0.0586,-0.04687 z m 98.85156,0.126953 0.0977,0.04687 c -0.022,-0.01098 -0.0329,-0.0068 -0.0547,-0.01758 -0.0168,-0.0082 -0.026,-0.02122 -0.043,-0.0293 z m -140.177731,0.0293 c -0.02539,0.01481 -0.04498,0.0491 -0.07031,0.06445 -0.07822,0.05007 -0.136827,0.06192 -0.216797,0.115235 z m 151.857421,3.251953 0.0156,0.08008 c -0.002,-0.01 -0.008,-0.01931 -0.01,-0.0293 -0.003,-0.01494 -0.003,-0.03587 -0.006,-0.05078 z m -155.216796,1.22461 c -0.0066,0.02639 4.65e-4,0.03844 -0.0059,0.06445 -0.0029,0.01216 -0.01477,0.023 -0.01758,0.03516 z M 234.0332,18.257812 c -0.002,0.0068 -0.002,0.01464 -0.004,0.02148 -7.8e-4,0.0031 -0.003,0.0067 -0.004,0.0098 z m -26.28906,0.634766 0.004,0.01953 c -5.4e-4,-0.0036 -0.003,-0.0082 -0.004,-0.01172 -3e-4,-0.0019 3e-4,-0.0059 0,-0.0078 z m -128.468749,1.183594 0.07813,0.04102 c -0.01717,-0.0092 -0.03555,-0.01233 -0.05273,-0.02148 -0.0097,-0.0051 -0.01562,-0.01447 -0.02539,-0.01953 z M 31.75,21.105469 a 5.632763,5.632763 0 0 0 0.0098,0.0059 c -0.0021,-2.72e-4 -0.0038,-0.0017 -0.0059,-0.002 z m 41.828125,5.05664 0.158203,0.07617 c -0.04037,-0.02019 -0.05812,-0.0081 -0.09766,-0.02734 -0.02205,-0.01056 -0.03846,-0.03863 -0.06055,-0.04883 z m 3.851562,4.433594 0.0332,0.109375 c -0.0045,-0.01582 -0.0207,-0.03103 -0.02539,-0.04687 -0.008,-0.02664 5.06e-4,-0.03546 -0.0078,-0.0625 z m 130.333983,5.052734 -0.0156,0.119141 c 0.003,-0.01982 9.8e-4,-0.06018 0.004,-0.08008 0.002,-0.01172 0.0102,-0.0274 0.0117,-0.03906 z m -130.101561,1.462891 -0.07813,0.410156 c 0.021,-0.091 0.0053,-0.152348 0.02344,-0.240234 0.01023,-0.05649 0.04605,-0.113758 0.05469,-0.169922 z m 137.316411,1.933594 -0.0156,0.08008 c 0.003,-0.01492 0.003,-0.03583 0.006,-0.05078 0.002,-0.01 0.008,-0.01931 0.01,-0.0293 z m -110.43164,3.433594 -0.11524,0.06836 c 0.0239,-0.01386 0.0349,-0.03289 0.0586,-0.04687 0.0223,-0.01343 0.0342,-0.0078 0.0567,-0.02148 z"
           id="path1232" />
        <path
           style="color:#000000;fill:#ffffff;fill-opacity:0.07;stroke-width:11.2644;stroke-linecap:round;stroke-linejoin:round;-inkscape-stroke:none;paint-order:stroke fill markers"
           d="M 24.003906,1.9316406 A 2.7571245,2.7571245 0 0 0 23.826172,1.9902346 2.7568527,2.7568527 0 0 0 23.574219,2.0058596 2.7568527,2.7568527 0 0 0 23.183594,2.199219 2.7571245,2.7571245 0 0 0 22.912109,2.28711 L 3.296875,13.613281 a 2.7571245,2.7571245 0 0 0 0,4.773438 L 21.535156,28.916016 V 45.203125 L 7.4335938,37.060547 v -7.226563 l 3.7109372,2.144532 2.544922,1.46875 v 2.939453 a 2.7568527,2.7568527 0 0 0 2.755859,2.755859 2.7568527,2.7568527 0 0 0 2.757813,-2.755859 v -4.53125 A 2.7571245,2.7571245 0 0 0 17.824219,29.46875 L 6.0546875,22.673828 a 2.7571245,2.7571245 0 0 0 -4.1367187,2.386719 v 13.589844 a 2.7571245,2.7571245 0 0 0 1.3789062,2.388671 l 19.617187,11.324219 a 2.7571245,2.7571245 0 0 0 0.326172,0.105469 2.7568527,2.7568527 0 0 0 0.548828,0.179688 2.7571245,2.7571245 0 0 0 0.542969,0.03516 2.7568527,2.7568527 0 0 0 0.542969,-0.05664 2.7571245,2.7571245 0 0 0 0.533203,-0.179687 2.7568527,2.7568527 0 0 0 0.257813,-0.08789 L 45.28125,41.033203 a 2.7571245,2.7571245 0 0 0 1.378906,-2.386719 V 15.994141 A 2.7571245,2.7571245 0 0 0 45.28125,13.607422 L 25.666016,2.28125 A 2.7568527,2.7568527 0 0 0 25.357422,2.1777344 2.7571245,2.7571245 0 0 0 24.923828,2.0292969 2.7568527,2.7568527 0 0 0 24.271484,1.9609375 2.7571245,2.7571245 0 0 0 24.003906,1.9316406 Z m 3.044922,7.515625 14.097656,8.1386724 v 19.46875 L 27.048828,45.193359 V 27.326172 A 2.7571245,2.7571245 0 0 0 25.669922,24.9375 L 10.189453,16 21.535156,9.4492188 v 2.6953122 l -2.544922,1.46875 a 2.7568527,2.7568527 0 0 0 -1.009765,3.765625 2.7568527,2.7568527 0 0 0 3.765625,1.007813 l 3.923828,-2.265625 a 2.7571245,2.7571245 0 0 0 1.378906,-2.386719 z M 244.66406,10.132812 c -3.74297,0 -6.55758,0.488419 -8.44531,1.464844 -1.85524,0.976727 -3.1414,2.669953 -3.85742,5.078125 -0.71603,2.408173 -1.07422,5.955738 -1.07422,10.642578 0,4.914743 0.34186,8.55957 1.02539,10.935547 0.71602,2.375978 1.96964,4.020331 3.75977,4.931641 1.82268,0.878752 4.60669,1.318359 8.34961,1.318359 1.59483,0 3.33492,-0.113966 5.22265,-0.341797 1.92035,-0.195285 3.59725,-0.455777 5.0293,-0.78125 V 24.583984 H 243.6875 v 6.00586 h 3.90625 v 7.664062 c -1.17171,0.06509 -2.14659,0.09766 -2.92773,0.09766 -1.79013,0 -3.07629,-0.260498 -3.85743,-0.78125 -0.7486,-0.5208 -1.25329,-1.511955 -1.51367,-2.976562 -0.22783,-1.464668 -0.3418,-3.890491 -0.3418,-7.275391 10e-6,-3.710354 0.1791,-6.26451 0.53711,-7.664062 0.35802,-1.432104 1.0418,-2.327529 2.05079,-2.685547 1.00898,-0.358018 2.89562,-0.537109 5.6621,-0.537109 1.49717,0 3.93932,0.21165 7.32422,0.634765 v -5.859375 c -0.91131,-0.22783 -2.32775,-0.455757 -4.24804,-0.683593 -1.9203,-0.260376 -3.79262,-0.390626 -5.61524,-0.390626 z m -175.791013,0.0039 c -2.506087,0 -4.573777,0.244209 -6.201172,0.732422 -1.627395,0.488242 -2.911601,1.479397 -3.855469,2.976562 -0.943867,1.497165 -1.416015,3.662539 -1.416015,6.494141 -6.1e-5,2.929226 0.439546,5.17406 1.318359,6.736328 0.878813,1.562268 2.553754,2.522835 5.027344,2.880859 l 5.419922,0.78125 c 0.976425,0.162734 1.660211,0.341825 2.050781,0.53711 0.423115,0.195309 0.69989,0.520901 0.830078,0.976562 0.130188,0.423128 0.195313,1.155786 0.195313,2.197266 0,0.781158 -0.04884,1.383531 -0.146485,1.80664 -0.06509,0.423098 -0.244182,0.781292 -0.537109,1.074219 -0.325455,0.325473 -0.862746,0.553406 -1.611328,0.683594 -0.748583,0.130188 -1.790563,0.195312 -3.125,0.195312 -1.69245,0 -4.555927,-0.162808 -8.591797,-0.488281 v 5.955078 c 3.124439,0.553304 6.720635,0.830078 10.789062,0.830078 2.441032,0 4.409085,-0.244215 5.90625,-0.732421 1.529723,-0.488183 2.734529,-1.52821 3.613281,-3.123047 0.878753,-1.594778 1.31836,-3.955519 1.31836,-7.080079 0,-2.668935 -0.341923,-4.71834 -1.025391,-6.15039 -0.553297,-1.106619 -1.269685,-1.888089 -2.148437,-2.34375 -0.846255,-0.455685 -1.920777,-0.781278 -3.222656,-0.976563 L 67.652344,23.269524 C 66.806095,23.13933 66.203722,22.992805 65.845703,22.830071 65.52023,22.634786 65.30858,22.341729 65.210938,21.951165 c -0.09764,-0.39057 -0.146485,-1.058086 -0.146485,-2.001953 0,-0.846261 0.04884,-1.464905 0.146485,-1.855469 0.09764,-0.42314 0.341851,-0.748732 0.732421,-0.976562 0.683528,-0.455661 2.230198,-0.683594 4.638672,-0.683594 2.278305,0 4.881272,0.179091 7.810547,0.537109 v -5.857422 c -3.254609,-0.65097 -6.427529,-0.976562 -9.519531,-0.976562 z m 29.220703,0 c -4.068427,0 -6.980716,0.504689 -8.738281,1.513672 -1.725032,0.976425 -2.815824,2.570013 -3.271485,4.783203 -0.423115,2.180692 -0.634765,5.809309 -0.634765,10.886718 0,5.077531 0.21165,8.724311 0.634765,10.9375 0.455685,2.180633 1.546477,3.774221 3.271485,4.783204 1.757565,0.976425 4.669854,1.464843 8.738281,1.464843 4.10092,0 7.01523,-0.488418 8.74023,-1.464843 1.75759,-1.008923 2.84643,-2.602511 3.26954,-4.783204 0.42311,-2.180813 0.63476,-5.827592 0.63476,-10.9375 0,-5.110027 -0.21165,-8.754854 -0.63476,-10.935546 -0.42313,-2.180632 -1.51197,-3.75795 -3.26954,-4.734375 -1.72494,-1.008983 -4.63925,-1.513672 -8.74023,-1.513672 z m 88.41406,0.382812 v 33.587891 h 10.54492 c 4.23116,0 7.24113,-0.488419 9.03125,-1.464844 1.82264,-0.976425 2.94603,-2.537412 3.36914,-4.685547 0.45567,-2.147833 0.6836,-5.695398 0.6836,-10.642578 0,-4.946877 -0.22793,-8.494443 -0.6836,-10.642578 -0.42312,-2.148135 -1.54652,-3.711075 -3.36914,-4.6875 -1.79012,-0.976425 -4.80009,-1.464844 -9.03125,-1.464844 z m -69.05273,0.0078 v 33.589844 h 7.1289 V 20.878906 h 0.33985 l 6.05469,23.238282 h 5.95703 l 6.10156,-23.238282 h 0.3418 v 23.238282 h 7.32226 V 10.527344 h -10.78906 l -5.61328,21.529297 h -0.3418 L 128.3418,10.527344 Z m 40.79297,0 v 33.589844 l 20.21093,-0.002 v -6.296875 h -12.64453 v -7.519531 h 10.83789 v -6.296875 h -10.83789 v -7.177734 h 12.64453 v -6.296875 z m 58.70312,0 v 33.589844 h 7.61524 V 10.527344 Z m 44.97656,0 v 33.589844 h 7.61524 V 10.527344 Z m 12.66797,0 v 6.542968 h 7.90821 v 27.046876 h 7.61718 V 17.070312 h 7.95703 v -6.542968 z m -242.101559,5 a 2.7568527,2.7568527 0 0 0 -2.748047,1.353515 2.7568527,2.7568527 0 0 0 1.009765,3.765625 l 2.544922,1.470704 v 10.408203 l -2.544922,1.46875 a 2.7568527,2.7568527 0 0 0 -1.009765,3.765625 2.7568527,2.7568527 0 0 0 3.767578,1.007812 l 3.921875,-2.263672 a 2.7571245,2.7571245 0 0 0 1.378906,-2.388672 V 20.525391 a 2.7571245,2.7571245 0 0 0 -1.378906,-2.386719 l -3.921875,-2.265625 a 2.7568527,2.7568527 0 0 0 -1.019531,-0.345703 z m 65.599609,0.90625 c 1.757571,0 2.92978,0.179091 3.51563,0.537109 0.6184,0.358013 1.00913,1.204625 1.17187,2.539063 0.16273,1.334437 0.24414,3.937404 0.24414,7.810546 0,3.873143 -0.0814,6.478063 -0.24414,7.8125 -0.16273,1.334432 -0.55346,2.181045 -1.17187,2.539063 -0.58586,0.358018 -1.758065,0.537109 -3.51563,0.537109 -1.757565,0 -2.944087,-0.179091 -3.5625,-0.537109 -0.585849,-0.358012 -0.960313,-1.204625 -1.123047,-2.539063 -0.162739,-1.334437 -0.244141,-3.939357 -0.244141,-7.8125 0,-3.873142 0.0814,-6.476109 0.244141,-7.810546 0.162728,-1.334432 0.537192,-2.181044 1.123047,-2.539063 0.618407,-0.358018 1.804929,-0.537109 3.5625,-0.537109 z m 95.98047,0.384765 h 2.7832 c 2.01791,0 3.35294,0.162809 4.00391,0.488282 0.68347,0.325515 1.12112,1.139526 1.3164,2.441406 0.19529,1.269383 0.29297,3.790936 0.29297,7.566406 0,3.77547 -0.0977,6.315308 -0.29297,7.617188 -0.16272,1.269364 -0.58405,2.065152 -1.26757,2.390625 -0.68347,0.325473 -2.03477,0.488281 -4.05274,0.488281 h -2.7832 z"
           id="path1234" />
      </g>
      <g
         id="g1031"
         style="stroke-width:1.12644">
        <g
           transform="translate(-46.767,-74.777)"
           stroke-linecap="round"
           stroke-linejoin="round"
           id="g8"
           style="stroke-width:1.26888">
          <path
             d="m 197.53,244.34 a 3.0427,3.0427 0 0 0 -1.8477,1.418 3.0427,3.0427 0 0 0 1.1133,4.1562 l 20.129,11.621 v 21.488 l -20.129,11.621 a 3.0427,3.0427 0 0 0 -1.1133,4.1562 3.0427,3.0427 0 0 0 4.1562,1.1133 l 21.65,-12.5 a 3.043,3.043 0 0 0 1.5215,-2.6348 v -25 a 3.043,3.043 0 0 0 -1.5215,-2.6348 l -21.65,-12.5 a 3.0427,3.0427 0 0 0 -2.3086,-0.30468 z m 10.969,15.305 a 3.0427,3.0427 0 0 0 -4.1562,1.1133 3.0427,3.0427 0 0 0 1.1133,4.1562 l 2.8086,1.6211 v 11.488 l -2.8086,1.6211 a 3.0427,3.0427 0 0 0 -1.1133,4.1562 3.0427,3.0427 0 0 0 4.1562,1.1133 l 4.3301,-2.5 a 3.043,3.043 0 0 0 1.5215,-2.6348 v -15 a 3.043,3.043 0 0 0 -1.5215,-2.6348 z"
             color="#000000"
             fill="#8694c5"
             style="stroke-width:1.42932;-inkscape-stroke:none;paint-order:stroke fill markers"
             id="path4" />
          <path
             d="m 196.8,244.65 -21.65,12.5 a 3.043,3.043 0 0 0 0,5.2695 l 20.129,11.621 v 17.975 l -15.564,-8.9863 v -7.9746 l 4.0957,2.3652 2.8086,1.6211 v 3.2441 a 3.0427,3.0427 0 0 0 3.043,3.043 3.0427,3.0427 0 0 0 3.043,-3.043 v -5 a 3.043,3.043 0 0 0 -1.5215,-2.6348 l -12.99,-7.5 a 3.043,3.043 0 0 0 -4.5644,2.6348 v 15 a 3.043,3.043 0 0 0 1.5215,2.6348 l 21.65,12.5 a 3.043,3.043 0 0 0 4.5645,-2.6348 v -25 a 3.043,3.043 0 0 0 -1.5215,-2.6348 l -17.086,-9.8652 12.521,-7.2305 v 2.9746 l -2.8086,1.6211 a 3.0427,3.0427 0 0 0 -1.1133,4.1562 3.0427,3.0427 0 0 0 4.1562,1.1133 l 4.3301,-2.5 a 3.043,3.043 0 0 0 1.5215,-2.6348 v -10 a 3.043,3.043 0 0 0 -4.5645,-2.6348 z"
             color="#000000"
             fill="#2d3f7f"
             style="stroke-width:1.42932;-inkscape-stroke:none;paint-order:stroke fill markers"
             id="path6" />
        </g>
        <g
           fill="#1b3181"
           stroke-width="0.346674"
           id="g20">
          <path
             d="m 200.92,216.47 q -6.7354,0 -11.908,-0.91601 v -6.5737 q 6.6815,0.53883 9.4834,0.53883 2.2092,0 3.4485,-0.21553 1.2393,-0.21553 1.7781,-0.75436 0.48495,-0.48495 0.59271,-1.1854 0.16165,-0.70047 0.16165,-1.9937 0,-1.7242 -0.21553,-2.4247 -0.21553,-0.75436 -0.91601,-1.0777 -0.6466,-0.3233 -2.2631,-0.59271 l -5.981,-0.86213 q -4.0951,-0.59272 -5.55,-3.1791 -1.4549,-2.58638 -1.4548,-7.4358 0,-4.6878 1.5626,-7.1664 1.5626,-2.4786 4.2568,-3.2869 2.6942,-0.80825 6.8431,-0.80825 5.1189,0 10.507,1.0777 v 6.466 q -4.8495,-0.59271 -8.6213,-0.59271 -3.9873,0 -5.1189,0.75436 -0.6466,0.37718 -0.80825,1.0777 -0.16165,0.64659 -0.16165,2.0476 0,1.5626 0.16165,2.2092 0.16165,0.64659 0.70048,0.96989 0.59271,0.26941 1.9937,0.48495 l 6.4121,0.91601 q 2.1553,0.3233 3.5563,1.0777 1.4548,0.75436 2.3708,2.5864 1.1315,2.3708 1.1315,6.7893 0,5.1728 -1.4548,7.813 -1.4548,2.6403 -3.9873,3.4485 -2.4786,0.80824 -6.5198,0.80824 z"
             id="path12"
             style="stroke-width:0.346674" />
          <path
             d="m 233.01,216.47 q -6.7354,0 -9.6451,-1.6165 -2.8558,-1.6704 -3.6102,-5.2805 -0.70048,-3.664 -0.70048,-12.07 0,-8.4058 0.70048,-12.016 0.75436,-3.664 3.6102,-5.2805 2.9097,-1.6704 9.6451,-1.6704 6.7893,0 9.645,1.6704 2.9097,1.6165 3.6102,5.2266 0.70048,3.6102 0.70048,12.07 0,8.4596 -0.70048,12.07 -0.70047,3.6102 -3.6102,5.2805 -2.8558,1.6165 -9.645,1.6165 z m 0,-6.9509 q 2.9097,0 3.8796,-0.59271 1.0238,-0.59271 1.2932,-2.8019 0.26941,-2.2092 0.26941,-8.6213 0,-6.4121 -0.26941,-8.6213 -0.26942,-2.2092 -1.2932,-2.8019 -0.96989,-0.59271 -3.8796,-0.59271 -2.90971,0 -3.9335,0.59271 -0.9699,0.59271 -1.2393,2.8019 -0.26942,2.2092 -0.26942,8.6213 0,6.4121 0.26942,8.6213 0.26941,2.2092 1.2393,2.8019 1.0238,0.59271 3.9335,0.59271 z"
             id="path14"
             style="stroke-width:0.346674" />
          <path
             d="m 282.99,216.04 v -25.648 h -0.37718 l -6.7354,25.648 h -6.5737 l -6.6815,-25.648 h -0.37718 v 25.648 h -7.8669 v -37.072 h 12.016 l 6.1965,23.762 h 0.37719 l 6.1965,-23.762 h 11.908 v 37.072 z"
             id="path16"
             style="stroke-width:0.346674" />
          <path
             d="m 299.4,216.04 v -37.072 h 22.308 v 6.9509 h -13.956 v 7.9208 h 11.962 v 6.9509 h -11.962 v 8.298 h 13.956 v 6.9509 z"
             id="path18"
             style="stroke-width:0.346674" />
        </g>
        <g
           fill="#8694c5"
           stroke-width="0.346674"
           id="g32">
          <path
             d="m 330.59,178.96 h 11.639 q 7.0048,0 9.9684,1.6165 3.0174,1.6165 3.7179,5.1728 0.75436,3.5563 0.75436,11.746 0,8.1902 -0.75436,11.746 -0.70048,3.5563 -3.7179,5.1728 -2.9636,1.6165 -9.9684,1.6165 H 330.59 Z m 11.423,30.121 q 3.3408,0 4.4723,-0.53883 1.1316,-0.53883 1.401,-2.6403 0.3233,-2.1553 0.3233,-8.4057 0,-6.2504 -0.3233,-8.3519 -0.3233,-2.1553 -1.4548,-2.6942 -1.0777,-0.53883 -4.4184,-0.53883 h -3.0713 v 23.17 z"
             id="path22"
             style="stroke-width:0.346674" />
          <path
             d="m 364.19,216.04 v -37.072 h 8.4058 v 37.072 z"
             id="path24"
             style="stroke-width:0.346674" />
          <path
             d="m 393.7,201.11 v -6.6276 h 12.124 v 20.745 q -2.3708,0.53883 -5.55,0.86213 -3.1252,0.37718 -5.7655,0.37718 -6.1965,0 -9.214,-1.4548 -2.9636,-1.5087 -4.149,-5.4422 -1.1316,-3.9335 -1.1316,-12.07 0,-7.7592 1.1854,-11.746 1.1854,-3.9868 4.2568,-5.6038 3.1252,-1.6165 9.3218,-1.6165 3.0174,0 6.1965,0.43106 3.1791,0.37719 4.6878,0.75437 v 6.466 q -5.6038,-0.70048 -8.0824,-0.70048 -4.58,0 -6.2504,0.59271 -1.6704,0.59271 -2.2631,2.9636 -0.59271,2.317 -0.59271,8.4596 0,5.6038 0.37718,8.0286 0.43106,2.4247 1.6704,3.2869 1.2932,0.86212 4.2568,0.86212 1.2932,0 3.233,-0.10776 v -8.4596 z"
             id="path26"
             style="stroke-width:0.346674" />
          <path
             d="m 413.83,216.04 v -37.072 h 8.4058 v 37.072 z"
             id="path28"
             style="stroke-width:0.346674" />
          <path
             d="m 436.54,216.04 v -29.851 h -8.729 v -7.2203 h 25.918 v 7.2203 h -8.7829 v 29.851 z"
             id="path30"
             style="stroke-width:0.346674" />
        </g>
      </g>
    </g>
  </g>
</svg>
