<?xml version="1.0" encoding="UTF-8" standalone="no"?>
<svg
   width="189.36214"
   height="100"
   version="1.1"
   viewBox="0 0 50.102697 26.457292"
   id="svg36"
   sodipodi:docname="somedigit.svg"
   inkscape:version="1.1 (c68e22c387, 2021-05-23)"
   xmlns:inkscape="http://www.inkscape.org/namespaces/inkscape"
   xmlns:sodipodi="http://sodipodi.sourceforge.net/DTD/sodipodi-0.dtd"
   xmlns="http://www.w3.org/2000/svg"
   xmlns:svg="http://www.w3.org/2000/svg">
  <defs
     id="defs40" />
  <sodipodi:namedview
     id="namedview38"
     pagecolor="#ffffff"
     bordercolor="#111111"
     borderopacity="1"
     inkscape:pageshadow="0"
     inkscape:pageopacity="0"
     inkscape:pagecheckerboard="1"
     showgrid="false"
     inkscape:snap-bbox="true"
     inkscape:bbox-paths="false"
     inkscape:bbox-nodes="true"
     inkscape:snap-bbox-midpoints="true"
     inkscape:snap-page="true"
     inkscape:zoom="3.1549216"
     inkscape:cx="119.65432"
     inkscape:cy="41.839392"
     inkscape:window-width="1366"
     inkscape:window-height="703"
     inkscape:window-x="0"
     inkscape:window-y="0"
     inkscape:window-maximized="1"
     inkscape:current-layer="g1291"
     inkscape:snap-global="false" />
  <g
     transform="matrix(0.23973,0,0,0.23973,-48.547433,-36.232685)"
     id="g34">
    <g
       id="g1189"
       transform="matrix(0.89596835,0,0,0.8796057,30.202056,23.788791)"
       style="stroke-width:1.12644">
      <g
         id="g1291"
         transform="translate(-9.337315,2.6679303)">
        <g
           id="Layer1001"
           transform="matrix(1.2188165,0,0,1.2414894,-13.370923,-282.82939)">
          <path
             d="m 182.9767,429.3675 c -0.2379,-0.385 -0.5551,-0.6653 -0.9516,-0.8411 -0.3963,-0.1754 -0.8099,-0.2633 -1.2402,-0.2633 -0.3172,0 -0.6287,0.0397 -0.9346,0.119 -0.3058,0.0791 -0.5805,0.1982 -0.824,0.3566 -0.2435,0.1588 -0.4388,0.3683 -0.5862,0.6288 -0.1471,0.2605 -0.2208,0.5663 -0.2208,0.9175 0,0.2719 0.0425,0.5125 0.1275,0.722 0.0848,0.2095 0.2237,0.3994 0.4162,0.5692 0.1924,0.1698 0.4529,0.3286 0.7815,0.4757 0.3285,0.1474 0.7307,0.2945 1.2064,0.4419 0.4643,0.1471 0.9145,0.3059 1.3507,0.4756 0.436,0.1698 0.8212,0.3853 1.1554,0.6458 0.3339,0.2605 0.6001,0.5862 0.7985,0.9768 0.1982,0.3909 0.2974,0.8807 0.2974,1.4698 0,0.6003 -0.1191,1.1213 -0.3569,1.563 -0.2378,0.4416 -0.5522,0.807 -0.9431,1.0959 -0.3906,0.2888 -0.8407,0.504 -1.3507,0.6457 -0.5097,0.1414 -1.0363,0.2123 -1.58,0.2123 -0.3512,0 -0.7022,-0.0312 -1.0534,-0.0935 -0.3512,-0.0624 -0.6882,-0.1585 -1.0108,-0.2889 -0.3229,-0.1301 -0.6259,-0.3002 -0.9091,-0.5097 -0.2832,-0.2094 -0.5267,-0.4671 -0.7305,-0.773 l 1.2232,-1.0023 c 0.2605,0.4416 0.623,0.7758 1.0873,1.0023 0.4646,0.2265 0.9573,0.3399 1.4783,0.3399 0.3059,0 0.6146,-0.0453 0.9258,-0.1361 0.3115,-0.0904 0.5919,-0.2236 0.841,-0.3991 0.2492,-0.1757 0.4533,-0.3937 0.6118,-0.6542 0.1587,-0.2605 0.2378,-0.5607 0.2378,-0.9006 0,-0.3736 -0.0624,-0.6766 -0.1868,-0.9088 -0.1247,-0.2321 -0.3172,-0.4334 -0.5777,-0.6032 -0.2605,-0.1701 -0.5891,-0.3228 -0.9853,-0.4586 -0.3966,-0.1361 -0.8609,-0.2945 -1.3933,-0.476 -0.4305,-0.1357 -0.8268,-0.2916 -1.1894,-0.4671 -0.3625,-0.1755 -0.6766,-0.3909 -0.9428,-0.6457 -0.2664,-0.2549 -0.4759,-0.5607 -0.6287,-0.9173 -0.1531,-0.3569 -0.2293,-0.7844 -0.2293,-1.283 0,-0.5777 0.1131,-1.0817 0.3396,-1.512 0.2267,-0.4306 0.5323,-0.79 0.9175,-1.0789 0.3853,-0.2888 0.8212,-0.5068 1.3082,-0.6542 0.4873,-0.1471 0.997,-0.2208 1.5293,-0.2208 0.6795,0 1.2997,0.1049 1.8604,0.3144 0.5607,0.2094 1.0618,0.5748 1.5035,1.0958 z m 3.0413,5.9298 c 0,-0.6231 0.1077,-1.1895 0.3228,-1.6991 0.2152,-0.5097 0.5097,-0.9488 0.8836,-1.3167 0.3736,-0.3682 0.8212,-0.6543 1.3422,-0.8581 0.521,-0.2041 1.0874,-0.3058 1.6991,-0.3058 0.6114,0 1.1778,0.1017 1.6988,0.3058 0.521,0.2038 0.9686,0.4899 1.3422,0.8581 0.3739,0.3679 0.6684,0.807 0.8835,1.3167 0.2152,0.5096 0.3229,1.076 0.3229,1.6991 0,0.6227 -0.1077,1.1891 -0.3229,1.6988 -0.2151,0.5096 -0.5096,0.9487 -0.8835,1.3169 -0.3736,0.368 -0.8212,0.654 -1.3422,0.8578 -0.521,0.2041 -1.0874,0.3059 -1.6988,0.3059 -0.6117,0 -1.1781,-0.1018 -1.6991,-0.3059 -0.521,-0.2038 -0.9686,-0.4898 -1.3422,-0.8578 -0.3739,-0.3682 -0.6684,-0.8073 -0.8836,-1.3169 -0.2151,-0.5097 -0.3228,-1.0761 -0.3228,-1.6988 z m 1.4272,0 c 0,0.4189 0.0652,0.807 0.1953,1.1636 0.1304,0.3569 0.32,0.6684 0.5692,0.9346 0.2492,0.2661 0.5465,0.4756 0.8921,0.6287 0.3455,0.1528 0.7333,0.2293 1.1639,0.2293 0.4303,0 0.8183,-0.0765 1.1636,-0.2293 0.3455,-0.1531 0.6429,-0.3626 0.8921,-0.6287 0.2491,-0.2662 0.4388,-0.5777 0.5692,-0.9346 0.1303,-0.3566 0.1953,-0.7447 0.1953,-1.1636 0,-0.4193 -0.065,-0.8073 -0.1953,-1.1639 -0.1304,-0.3569 -0.3201,-0.6685 -0.5692,-0.9346 -0.2492,-0.2662 -0.5466,-0.4757 -0.8921,-0.6288 -0.3453,-0.1527 -0.7333,-0.2293 -1.1636,-0.2293 -0.4306,0 -0.8184,0.0766 -1.1639,0.2293 -0.3456,0.1531 -0.6429,0.3626 -0.8921,0.6288 -0.2492,0.2661 -0.4388,0.5777 -0.5692,0.9346 -0.1301,0.3566 -0.1953,0.7446 -0.1953,1.1639 z m 9.2426,-8.8691 h 1.3252 v 12.8447 h -1.3252 z m 10.8908,10.9588 c 0,0.3625 0.0113,0.7021 0.034,1.0193 0.0226,0.3172 0.034,0.606 0.034,0.8666 h -1.2575 c 0,-0.2152 -0.006,-0.4303 -0.0167,-0.6458 -0.0113,-0.2151 -0.017,-0.436 -0.017,-0.6624 h -0.034 c -0.0907,0.1924 -0.218,0.3792 -0.3824,0.5607 -0.1641,0.1811 -0.3597,0.3424 -0.5862,0.4841 -0.2265,0.1415 -0.4813,0.2548 -0.7645,0.3399 -0.2832,0.0847 -0.5891,0.1273 -0.9176,0.1273 -0.521,0 -0.9711,-0.0791 -1.3507,-0.2379 -0.3793,-0.1584 -0.6936,-0.3792 -0.9428,-0.6624 -0.2492,-0.2832 -0.4334,-0.6259 -0.5522,-1.0281 -0.119,-0.402 -0.1786,-0.8411 -0.1786,-1.3167 v -4.9102 h 1.3255 v 4.7744 c 0,0.6681 0.1471,1.1948 0.4416,1.58 0.2946,0.385 0.7532,0.5777 1.3763,0.5777 0.4303,0 0.8013,-0.0737 1.1128,-0.2208 0.3116,-0.1474 0.5664,-0.3569 0.7645,-0.6287 0.1982,-0.2719 0.3456,-0.5947 0.4417,-0.9686 0.0964,-0.3736 0.1446,-0.7872 0.1446,-1.2402 v -3.8738 h 1.3252 z m 2.6846,-0.2039 c 0.2605,0.3283 0.5466,0.5888 0.8581,0.7816 0.3115,0.1924 0.705,0.2888 1.1806,0.2888 0.2041,0 0.4108,-0.0227 0.6202,-0.068 0.2095,-0.0454 0.3994,-0.1191 0.5692,-0.2208 0.1698,-0.1021 0.3059,-0.2294 0.4079,-0.3824 0.1018,-0.1528 0.1528,-0.3371 0.1528,-0.5522 0,-0.2152 -0.0482,-0.3906 -0.1445,-0.5267 -0.0961,-0.1358 -0.2237,-0.252 -0.3821,-0.3484 -0.1588,-0.0961 -0.3399,-0.1726 -0.5437,-0.2293 -0.2038,-0.0567 -0.4136,-0.1074 -0.6288,-0.1528 -0.3736,-0.0794 -0.7304,-0.1701 -1.0703,-0.2718 -0.3399,-0.1021 -0.6372,-0.235 -0.8921,-0.3994 -0.2548,-0.1642 -0.4586,-0.3765 -0.6114,-0.637 -0.1531,-0.2608 -0.2296,-0.5947 -0.2296,-1.0026 0,-0.3849 0.085,-0.7248 0.2548,-1.0193 0.1701,-0.2945 0.3966,-0.538 0.6798,-0.7305 0.2831,-0.1928 0.6003,-0.3399 0.9516,-0.4419 0.3509,-0.1018 0.7134,-0.1528 1.0873,-0.1528 0.5661,0 1.0902,0.1131 1.5716,0.3398 0.4813,0.2265 0.858,0.5945 1.1298,1.1041 l -1.1043,0.7308 c -0.1701,-0.2832 -0.3938,-0.5125 -0.6713,-0.6882 -0.2775,-0.1755 -0.6145,-0.2634 -1.0108,-0.2634 -0.1811,0 -0.3654,0.0227 -0.5522,0.0681 -0.1868,0.0453 -0.3541,0.1133 -0.5012,0.2038 -0.1474,0.0907 -0.269,0.2069 -0.3654,0.3483 -0.0963,0.1418 -0.1442,0.3031 -0.1442,0.4842 0,0.1701 0.0535,0.3144 0.1613,0.4334 0.1077,0.1188 0.2548,0.2237 0.4416,0.3144 0.1871,0.0904 0.4022,0.1698 0.6457,0.2378 0.2435,0.0678 0.4955,0.1244 0.756,0.1698 0.3512,0.068 0.6854,0.1556 1.0026,0.2633 0.3169,0.1078 0.5945,0.252 0.8326,0.4335 0.2378,0.1811 0.4246,0.4076 0.5607,0.6794 0.1357,0.2719 0.2038,0.6061 0.2038,1.0024 0,0.4532 -0.0907,0.8382 -0.2719,1.1554 -0.1814,0.3172 -0.422,0.5748 -0.7222,0.773 -0.3002,0.1984 -0.6398,0.3427 -1.0194,0.4334 -0.3795,0.0904 -0.7673,0.1358 -1.1639,0.1358 -0.6794,0 -1.2656,-0.1046 -1.7583,-0.3144 -0.4927,-0.2095 -0.9374,-0.5973 -1.3337,-1.1636 z m 7.187,-5.8617 h 1.3252 v 7.9515 h -1.3252 z m -0.3059,-3.1093 c 0,-0.2605 0.0936,-0.487 0.2804,-0.6795 0.1868,-0.1925 0.4164,-0.2889 0.6882,-0.2889 0.2719,0 0.5012,0.0964 0.688,0.2889 0.1868,0.1925 0.2804,0.419 0.2804,0.6795 0,0.2831 -0.0907,0.5153 -0.2719,0.6967 -0.1811,0.1812 -0.4133,0.2719 -0.6965,0.2719 -0.2831,0 -0.5156,-0.0907 -0.6967,-0.2719 -0.1811,-0.1814 -0.2719,-0.4136 -0.2719,-0.6967 z m 9.226,-0.9684 h 2.1237 l 4.0776,9.4295 h 0.034 l 4.1117,-9.4295 h 2.0727 v 12.0292 h -1.4273 v -10.0922 h -0.0337 l -4.3157,10.0922 h -0.8666 l -4.3155,-10.0922 h -0.034 v 10.0922 h -1.4269 z m 22.274,10.5849 c -0.4756,0.6117 -0.9966,1.0392 -1.563,1.283 -0.5663,0.2435 -1.2231,0.3651 -1.9709,0.3651 -0.6228,0 -1.1835,-0.1103 -1.6818,-0.3314 -0.4986,-0.2208 -0.9204,-0.5182 -1.266,-0.8918 -0.3455,-0.3739 -0.6117,-0.8155 -0.7985,-1.3252 -0.1868,-0.5099 -0.2803,-1.0536 -0.2803,-1.631 0,-0.6118 0.102,-1.1753 0.3058,-1.6906 0.2038,-0.5154 0.487,-0.9573 0.8496,-1.3252 0.3625,-0.3682 0.7928,-0.6543 1.2912,-0.8581 0.4983,-0.2041 1.042,-0.3058 1.631,-0.3058 0.555,0 1.0647,0.0932 1.5293,0.2803 0.4643,0.1868 0.8634,0.4587 1.1976,0.8155 0.3343,0.3566 0.5919,0.7929 0.7731,1.3082 0.1814,0.5154 0.2718,1.1016 0.2718,1.7587 v 0.4246 h -6.4222 c 0.0227,0.3399 0.1046,0.6656 0.2464,0.9768 0.1414,0.3115 0.3257,0.5834 0.5521,0.8155 0.2265,0.2325 0.4927,0.4164 0.7986,0.5522 0.3058,0.1361 0.64,0.2041 1.0023,0.2041 0.5777,0 1.065,-0.102 1.4613,-0.3058 0.3965,-0.2039 0.7531,-0.504 1.0703,-0.9006 z m -1.1381,-3.2451 c -0.0226,-0.6795 -0.2435,-1.2232 -0.6627,-1.6311 -0.419,-0.4076 -0.9967,-0.6117 -1.7331,-0.6117 -0.7362,0 -1.3309,0.2041 -1.7838,0.6117 -0.453,0.4079 -0.7249,0.9516 -0.8156,1.6311 z m 10.0922,3.2791 h -0.034 c -0.2492,0.453 -0.6426,0.8354 -1.1806,1.1469 -0.538,0.3115 -1.1639,0.4672 -1.8774,0.4672 -0.555,0 -1.076,-0.1046 -1.5633,-0.3144 -0.487,-0.2095 -0.9088,-0.5012 -1.2657,-0.8748 -0.3569,-0.3739 -0.6372,-0.8155 -0.841,-1.3255 -0.2038,-0.5096 -0.3059,-1.0646 -0.3059,-1.6647 0,-0.6004 0.1021,-1.1554 0.3059,-1.6651 0.2038,-0.51 0.487,-0.9516 0.8495,-1.3255 0.3626,-0.3736 0.8014,-0.6653 1.3167,-0.8748 0.5154,-0.2097 1.0845,-0.3143 1.7076,-0.3143 0.5777,0 1.1072,0.1187 1.5885,0.3566 0.4814,0.2381 0.9034,0.572 1.2657,1.0026 h 0.034 v -6.0486 h 1.3252 v 12.8447 h -1.3252 z m 0,-2.5653 c 0,-0.4193 -0.0649,-0.8073 -0.1953,-1.1639 -0.1304,-0.3569 -0.32,-0.6685 -0.5692,-0.9346 -0.2491,-0.2662 -0.5465,-0.4757 -0.892,-0.6288 -0.3453,-0.1527 -0.7334,-0.2293 -1.1637,-0.2293 -0.4305,0 -0.8183,0.0766 -1.1639,0.2293 -0.3455,0.1531 -0.6429,0.3626 -0.892,0.6288 -0.2492,0.2661 -0.4388,0.5777 -0.5692,0.9346 -0.1301,0.3566 -0.1953,0.7446 -0.1953,1.1639 0,0.4189 0.0652,0.807 0.1953,1.1636 0.1304,0.3569 0.32,0.6684 0.5692,0.9346 0.2491,0.2661 0.5465,0.4756 0.892,0.6287 0.3456,0.1528 0.7334,0.2293 1.1639,0.2293 0.4303,0 0.8184,-0.0765 1.1637,-0.2293 0.3455,-0.1531 0.6429,-0.3626 0.892,-0.6287 0.2492,-0.2662 0.4388,-0.5777 0.5692,-0.9346 0.1304,-0.3566 0.1953,-0.7447 0.1953,-1.1636 z m 3.9079,-3.9759 h 1.3252 v 7.9515 h -1.3252 z m -0.3059,-3.1093 c 0,-0.2605 0.0936,-0.487 0.2804,-0.6795 0.1868,-0.1925 0.4164,-0.2889 0.6882,-0.2889 0.2719,0 0.5012,0.0964 0.688,0.2889 0.1868,0.1925 0.2803,0.419 0.2803,0.6795 0,0.2831 -0.0907,0.5153 -0.2718,0.6967 -0.1812,0.1812 -0.4133,0.2719 -0.6965,0.2719 -0.2832,0 -0.5156,-0.0907 -0.6967,-0.2719 -0.1812,-0.1814 -0.2719,-0.4136 -0.2719,-0.6967 z m 4.1627,4.1286 c 0.4076,-0.4189 0.892,-0.7276 1.4525,-0.9258 0.5607,-0.1984 1.1298,-0.2973 1.7075,-0.2973 1.1781,0 2.0277,0.2775 2.5487,0.8325 0.521,0.555 0.7815,1.3989 0.7815,2.5313 v 3.4152 c 0,0.2265 0.0113,0.4615 0.034,0.705 0.0227,0.2438 0.051,0.4674 0.085,0.6713 h -1.2744 c -0.0454,-0.1812 -0.0706,-0.3824 -0.0763,-0.6033 -0.006,-0.2208 -0.009,-0.4161 -0.009,-0.5862 h -0.034 c -0.2605,0.4079 -0.6089,0.7421 -1.0448,1.0026 -0.4363,0.2606 -0.9601,0.3907 -1.5718,0.3907 -0.4077,0 -0.7901,-0.0511 -1.1469,-0.1528 -0.3566,-0.1021 -0.6682,-0.252 -0.9343,-0.4505 -0.2662,-0.1981 -0.4785,-0.4444 -0.6373,-0.7389 -0.1584,-0.2946 -0.2378,-0.6344 -0.2378,-1.0194 0,-0.6571 0.1698,-1.1724 0.5097,-1.546 0.3398,-0.3739 0.7616,-0.6514 1.2659,-0.8325 0.504,-0.1815 1.0477,-0.2946 1.6311,-0.3399 0.5834,-0.0454 1.1185,-0.068 1.6055,-0.068 h 0.5097 v -0.2379 c 0,-0.5777 -0.1726,-1.0136 -0.5182,-1.3082 -0.3455,-0.2945 -0.8297,-0.4419 -1.4527,-0.4419 -0.4303,0 -0.8524,0.0709 -1.2657,0.2126 -0.4136,0.1415 -0.7787,0.3595 -1.0959,0.654 z m 3.8398,3.1093 c -0.8495,0 -1.5236,0.1191 -2.022,0.3569 -0.4983,0.2379 -0.7475,0.6285 -0.7475,1.1722 0,0.4986 0.167,0.8523 0.5012,1.0618 0.3342,0.2098 0.7503,0.3144 1.2487,0.3144 0.3852,0 0.7222,-0.0649 1.0111,-0.1953 0.2888,-0.1301 0.5295,-0.3031 0.722,-0.5182 0.1925,-0.2152 0.3399,-0.4672 0.4419,-0.756 0.1018,-0.2889 0.1585,-0.5975 0.1698,-0.9261 V 435.45 Z m 9.8203,-8.2063 h 4.6214 c 0.3965,0 0.8158,0.0454 1.2574,0.1358 0.4417,0.0907 0.8807,0.2353 1.3167,0.4334 0.4363,0.1982 0.8552,0.4559 1.2575,0.7731 0.4019,0.3171 0.756,0.6993 1.0618,1.1469 0.3059,0.4473 0.5494,0.9626 0.7305,1.546 0.1811,0.5833 0.2718,1.2432 0.2718,1.9794 0,0.7362 -0.0907,1.3961 -0.2718,1.9794 -0.1811,0.5834 -0.4246,1.0987 -0.7305,1.546 -0.3058,0.4474 -0.6599,0.8297 -1.0618,1.1469 -0.4023,0.3172 -0.8212,0.5749 -1.2575,0.7731 -0.436,0.1981 -0.875,0.3427 -1.3167,0.4331 -0.4416,0.0907 -0.8609,0.1361 -1.2574,0.1361 h -4.6214 z m 1.4273,10.704 h 2.7184 c 0.6911,0 1.3309,-0.0908 1.9199,-0.2719 0.5891,-0.1814 1.0987,-0.4615 1.5293,-0.841 0.4303,-0.3796 0.7702,-0.8637 1.0193,-1.4528 0.2492,-0.589 0.3739,-1.2968 0.3739,-2.1237 0,-0.8269 -0.1247,-1.5347 -0.3739,-2.1237 -0.2491,-0.5891 -0.589,-1.0732 -1.0193,-1.4528 -0.4306,-0.3795 -0.9402,-0.6599 -1.5293,-0.841 -0.589,-0.1811 -1.2288,-0.2719 -1.9199,-0.2719 h -2.7184 z m 11.2646,-6.6263 h 1.3252 v 7.9515 h -1.3252 z m -0.3059,-3.1093 c 0,-0.2605 0.0936,-0.487 0.2804,-0.6795 0.1868,-0.1925 0.4164,-0.2889 0.6882,-0.2889 0.2719,0 0.5012,0.0964 0.688,0.2889 0.1868,0.1925 0.2803,0.419 0.2803,0.6795 0,0.2831 -0.0907,0.5153 -0.2718,0.6967 -0.1811,0.1812 -0.4133,0.2719 -0.6965,0.2719 -0.2832,0 -0.5156,-0.0907 -0.6967,-0.2719 -0.1812,-0.1814 -0.2719,-0.4136 -0.2719,-0.6967 z m 12.1989,10.7039 c 0,1.4499 -0.3707,2.5514 -1.1126,3.3046 -0.7421,0.7532 -1.8153,1.1299 -3.2198,1.1299 -0.7816,0 -1.4865,-0.1131 -2.1153,-0.3399 -0.6287,-0.2265 -1.2262,-0.6171 -1.7923,-1.1721 l 0.9513,-1.0874 c 0.4192,0.453 0.8637,0.7957 1.3337,1.0279 0.47,0.2321 1.0111,0.3483 1.6226,0.3483 0.589,0 1.0788,-0.0878 1.4697,-0.2633 0.3906,-0.1757 0.6993,-0.4136 0.9261,-0.7138 0.2265,-0.3002 0.3849,-0.6429 0.4756,-1.0278 0.0905,-0.3852 0.1358,-0.7872 0.1358,-1.2064 v -1.0194 h -0.034 c -0.3169,0.5097 -0.7305,0.8836 -1.2401,1.1214 -0.5097,0.2378 -1.0307,0.3569 -1.5631,0.3569 -0.623,0 -1.1951,-0.102 -1.7161,-0.3059 -0.521,-0.2041 -0.9686,-0.487 -1.3422,-0.8495 -0.3739,-0.3626 -0.6627,-0.7929 -0.8665,-1.2912 -0.2038,-0.4986 -0.3059,-1.0423 -0.3059,-1.631 0,-0.6458 0.1021,-1.2291 0.3059,-1.7502 0.2038,-0.521 0.4898,-0.96 0.858,-1.3166 0.368,-0.3569 0.8127,-0.6316 1.3337,-0.8241 0.521,-0.1927 1.0987,-0.2888 1.7331,-0.2888 0.2719,0 0.5437,0.0312 0.8156,0.0932 0.2718,0.0624 0.5351,0.1588 0.79,0.2889 0.2548,0.1304 0.4841,0.2945 0.6879,0.4929 0.2041,0.1982 0.3739,0.4275 0.5097,0.688 h 0.034 v -1.3592 h 1.3252 z m -6.9658,-3.6187 c 0,0.4076 0.0737,0.7843 0.2208,1.1296 0.1474,0.3455 0.3484,0.6457 0.6032,0.9005 0.2548,0.2549 0.5522,0.4558 0.8921,0.6032 0.3396,0.1472 0.7021,0.2209 1.0873,0.2209 0.453,0 0.8552,-0.0794 1.2062,-0.2379 0.3512,-0.1584 0.6485,-0.371 0.892,-0.6372 0.2435,-0.2662 0.4275,-0.572 0.5522,-0.9173 0.1248,-0.3455 0.1868,-0.7109 0.1868,-1.0959 0,-0.4305 -0.0677,-0.824 -0.2038,-1.1809 -0.1358,-0.3569 -0.3285,-0.6655 -0.5777,-0.926 -0.2491,-0.2606 -0.5493,-0.4615 -0.9005,-0.603 -0.351,-0.1417 -0.7362,-0.2126 -1.1552,-0.2126 -0.4192,0 -0.8013,0.0766 -1.1469,0.2293 -0.3455,0.1531 -0.64,0.3626 -0.8835,0.6288 -0.2435,0.2661 -0.4332,0.5777 -0.5692,0.9346 -0.1358,0.3566 -0.2038,0.7446 -0.2038,1.1639 z m 9.5315,-3.9759 h 1.3252 v 7.9515 h -1.3252 z m -0.3059,-3.1093 c 0,-0.2605 0.0935,-0.487 0.2804,-0.6795 0.1868,-0.1925 0.4164,-0.2889 0.6882,-0.2889 0.2718,0 0.5012,0.0964 0.688,0.2889 0.1868,0.1925 0.2803,0.419 0.2803,0.6795 0,0.2831 -0.0907,0.5153 -0.2718,0.6967 -0.1812,0.1812 -0.4133,0.2719 -0.6965,0.2719 -0.2832,0 -0.5156,-0.0907 -0.6968,-0.2719 -0.1811,-0.1814 -0.2718,-0.4136 -0.2718,-0.6967 z m 8.6142,4.2307 h -2.3448 v 3.9756 c 0,0.2605 0.006,0.5014 0.017,0.7222 0.0113,0.2208 0.0567,0.4133 0.1361,0.5777 0.079,0.1642 0.1981,0.2946 0.3566,0.3906 0.1587,0.0964 0.3852,0.1446 0.6797,0.1446 0.1925,0 0.3906,-0.0227 0.5947,-0.068 0.2038,-0.0454 0.3963,-0.1134 0.5774,-0.2038 l 0.0511,1.2061 c -0.2265,0.1021 -0.4785,0.1758 -0.756,0.2211 -0.2776,0.0451 -0.5409,0.0678 -0.7901,0.0678 -0.4756,0 -0.8552,-0.0624 -1.1384,-0.1868 -0.2831,-0.1248 -0.504,-0.3002 -0.6624,-0.5267 -0.1587,-0.2265 -0.2636,-0.5069 -0.3144,-0.8411 -0.051,-0.3342 -0.0765,-0.7049 -0.0765,-1.1128 v -4.3665 h -1.7331 v -1.1214 h 1.7331 v -2.2598 h 1.3252 v 2.2598 h 2.3448 z m 1.529,-0.1021 c 0.4076,-0.4189 0.8921,-0.7276 1.4525,-0.9258 0.5607,-0.1984 1.1299,-0.2973 1.7076,-0.2973 1.1781,0 2.0276,0.2775 2.5486,0.8325 0.521,0.555 0.7815,1.3989 0.7815,2.5313 v 3.4152 c 0,0.2265 0.0114,0.4615 0.034,0.705 0.0227,0.2438 0.0511,0.4674 0.0851,0.6713 h -1.2745 c -0.0453,-0.1812 -0.0706,-0.3824 -0.0762,-0.6033 -0.006,-0.2208 -0.009,-0.4161 -0.009,-0.5862 h -0.0341 c -0.2605,0.4079 -0.6088,0.7421 -1.0448,1.0026 -0.4363,0.2606 -0.9601,0.3907 -1.5718,0.3907 -0.4076,0 -0.79,-0.0511 -1.1469,-0.1528 -0.3566,-0.1021 -0.6681,-0.252 -0.9343,-0.4505 -0.2662,-0.1981 -0.4785,-0.4444 -0.6372,-0.7389 -0.1585,-0.2946 -0.2379,-0.6344 -0.2379,-1.0194 0,-0.6571 0.1698,-1.1724 0.5097,-1.546 0.3399,-0.3739 0.7617,-0.6514 1.266,-0.8325 0.504,-0.1815 1.0476,-0.2946 1.631,-0.3399 0.5834,-0.0454 1.1186,-0.068 1.6056,-0.068 h 0.5096 v -0.2379 c 0,-0.5777 -0.1726,-1.0136 -0.5181,-1.3082 -0.3456,-0.2945 -0.8297,-0.4419 -1.4528,-0.4419 -0.4303,0 -0.8524,0.0709 -1.2657,0.2126 -0.4135,0.1415 -0.7786,0.3595 -1.0958,0.654 z m 3.8398,3.1093 c -0.8495,0 -1.5236,0.1191 -2.0219,0.3569 -0.4984,0.2379 -0.7475,0.6285 -0.7475,1.1722 0,0.4986 0.1669,0.8523 0.5011,1.0618 0.3343,0.2098 0.7504,0.3144 1.2487,0.3144 0.3852,0 0.7223,-0.0649 1.0111,-0.1953 0.2889,-0.1301 0.5295,-0.3031 0.722,-0.5182 0.1925,-0.2152 0.3399,-0.4672 0.4419,-0.756 0.1018,-0.2889 0.1585,-0.5975 0.1698,-0.9261 V 435.45 Z m 5.1991,-9.0218 h 1.3251 v 12.8447 H 325.05 Z"
             style="fill:#666666;fill-rule:evenodd"
             id="path20" />
          <path
             d="m 290.5549,355.9082 h 5.4589 0.1684 c 1.1906,0 2.3828,0.0547 3.5768,0.1638 l -0.7351,5.1786 c -0.7219,5.0865 3.068,9.512 8.2185,9.512 h 9.4453 c -1.1622,1.3382 -1.9635,2.9962 -2.2209,4.8104 l -1.5049,10.6004 c -0.722,5.0868 3.0682,9.512 8.2185,9.512 h 3.3145 c -0.2622,0.7545 -0.5502,1.4955 -0.8634,2.2226 -1.9338,4.4932 -4.6267,8.3018 -8.0785,11.4262 -3.4514,3.1243 -7.5282,5.5343 -12.2295,7.2306 -4.7012,1.696 -9.8192,2.5441 -15.3538,2.5441 h -3.1142 -6.1001 -9.1908 c -0.0394,0.002 -0.0791,0.002 -0.1188,0.002 -0.0399,0 -0.0793,-8e-4 -0.1187,-0.002 h -0.0375 l -0.002,-0.002 c -1.4383,-0.0816 -2.5798,-1.2742 -2.5798,-2.7329 0,-0.1417 0.0111,-0.2806 0.0318,-0.4164 l -0.0394,-0.0487 4.7557,-33.3993 h -0.5355 l -16.0441,34.9186 -0.0312,0.0201 c -0.4175,0.978 -1.3881,1.6631 -2.5186,1.6631 -0.0397,0 -0.0793,-8e-4 -0.1187,-0.002 h -11.6757 c -0.0394,0.002 -0.0788,0.002 -0.1187,0.002 -0.0397,0 -0.0794,-8e-4 -0.1188,-0.002 h -0.0309 l -0.002,-0.002 c -1.3995,-0.0763 -2.5192,-1.2039 -2.5832,-2.6065 l -5.2228,-33.9911 h -0.4465 l -5.0471,34.0657 c -0.1032,1.4179 -1.2861,2.5361 -2.73,2.5361 -0.04,0 -0.0794,-8e-4 -0.1188,-0.002 h -20.7958 c 2.6016,-0.8206 5.019,-1.9514 7.2521,-3.3922 2.7672,-1.7853 5.0434,-4.1063 6.829,-6.9628 1.7852,-2.8565 2.6779,-6.3082 2.6779,-10.3549 0,-2.3803 -0.4017,-4.5227 -1.205,-6.427 -0.8037,-1.9046 -1.9491,-3.6006 -3.4368,-5.0882 -1.4879,-1.4879 -3.3029,-2.7972 -5.4453,-3.928 -2.1424,-1.1307 -4.5822,-2.1424 -7.3199,-3.035 -2.202,-0.7141 -3.8682,-1.3984 -4.9989,-2.0532 -1.1308,-0.6545 -1.696,-1.5769 -1.696,-2.7672 0,-1.4879 0.6696,-2.5888 2.0084,-3.3029 1.339,-0.714 2.8417,-1.0712 4.5079,-1.0712 2.1424,0 4.017,0.3719 5.6239,1.116 1.6067,0.7438 2.916,1.7107 3.9277,2.901 l 13.2115,-12.765 c -1.1308,-1.1903 -2.5294,-2.2615 -4.1956,-3.2136 -1.6662,-0.9522 -3.4815,-1.7706 -5.4454,-2.4548 -0.4079,-0.1423 -0.8212,-0.2781 -1.2393,-0.4074 9.1508,0.002 18.2988,0.005 27.4516,0.005 0.0405,0 0.0816,0 0.1227,0 h 0.4499 l 0.0646,0.0488 c 1.2294,0.0116 2.2646,0.8336 2.598,1.9576 l 0.0391,0.0294 5.2092,32.5999 h 0.4465 l 15.6654,-33.0336 0.0853,-0.0538 c 0.4422,-0.8708 1.3365,-1.4737 2.374,-1.499 l 0.0777,-0.049 z m -110.9237,43.1396 1.5188,-8.9884 c 1.0656,0.7781 2.2434,1.4749 3.5328,2.0909 1.9936,0.9521 4.1213,1.7855 6.3828,2.4996 2.8565,0.8926 4.8053,1.7555 5.8467,2.5886 1.0415,0.8331 1.5622,1.7855 1.5622,2.8564 0,1.3094 -0.6247,2.3063 -1.8745,2.9906 -1.2498,0.6843 -2.916,1.0267 -4.9989,1.0267 -0.9522,0 -1.9936,-0.1341 -3.1244,-0.402 -1.1307,-0.2676 -2.2464,-0.6247 -3.3474,-1.0709 -1.101,-0.4464 -2.1572,-0.9969 -3.1691,-1.6515 -0.8918,-0.5771 -1.6685,-1.224 -2.329,-1.94 z m 108.7727,2.2932 h 0.8706 c 2.6781,0 4.6167,-0.4575 6.6401,-1.3799 2.0234,-0.9224 3.7194,-2.1424 5.0882,-3.6598 1.3686,-1.5176 2.3953,-3.2434 3.0796,-5.1775 0.6842,-1.934 1.0267,-3.9427 1.0267,-6.0256 0,-1.6066 -0.2381,-3.1243 -0.7144,-4.5524 -0.4762,-1.4284 -1.22,-2.6632 -2.2317,-3.7046 -1.0117,-1.0415 -2.306,-1.8746 -3.8829,-2.4996 -1.5219,-0.6029 -3.7389,-0.9632 -5.7872,-0.9845 z"
             style="fill:#333333;fill-rule:evenodd"
             id="path22-0" />
          <path
             d="m 330.9313,350.7823 h 10.6004 c 2.1198,0 3.608,1.7342 3.3072,3.854 l -1.5049,10.6004 c -0.3008,2.1201 -2.2813,3.8543 -4.4014,3.8543 h -10.6001 c -2.1201,0 -3.608,-1.7342 -3.3072,-3.8543 l 1.5046,-10.6004 c 0.3011,-2.1198 2.2816,-3.854 4.4014,-3.854 z"
             style="fill:#009933;fill-rule:evenodd"
             id="path24-6" />
          <path
             d="m 309.8415,347.4933 h 10.6002 c 2.12,0 3.6082,1.7342 3.3072,3.8539 l -1.5047,10.6005 c -0.301,2.12 -2.2816,3.8543 -4.4013,3.8543 h -10.6005 c -2.1197,0 -3.6079,-1.7343 -3.3069,-3.8543 l 1.5047,-10.6005 c 0.301,-2.1197 2.2813,-3.8539 4.4013,-3.8539 z"
             style="fill:#d12f24;fill-rule:evenodd"
             id="path26-5" />
          <path
             d="m 323.7795,372.416 h 10.6004 c 2.1198,0 3.6079,1.7343 3.3072,3.8543 l -1.5049,10.6004 c -0.3008,2.1198 -2.2813,3.854 -4.4014,3.854 h -10.6001 c -2.1201,0 -3.608,-1.7342 -3.3072,-3.854 l 1.5046,-10.6004 c 0.301,-2.12 2.2816,-3.8543 4.4014,-3.8543 z"
             style="fill:#1a6fe2;fill-rule:evenodd"
             id="path28-5" />
          <path
             d="m 353.857,342.2823 h 10.6005 c 2.1197,0 3.6079,1.7343 3.3072,3.854 l -1.505,10.6005 c -0.3007,2.12 -2.2813,3.8542 -4.4013,3.8542 h -10.6002 c -2.12,0 -3.6079,-1.7342 -3.3071,-3.8542 l 1.5046,-10.6005 c 0.301,-2.1197 2.2816,-3.854 4.4013,-3.854 z"
             style="fill:#ffcc00;fill-rule:evenodd"
             id="path30-8" />
        </g>
      </g>
    </g>
  </g>
</svg>
