<svg width="300" height="54.639" version="1.1" viewBox="0 0 79.376 14.456" xmlns="http://www.w3.org/2000/svg">
<g transform="matrix(.23973 0 0 .23973 -29.905 -40.119)">
<g transform="translate(-46.767,-74.777)" stroke-linecap="round" stroke-linejoin="round">
<path transform="matrix(.26458 0 0 .26458 112.58 160)" d="m324.6 318.39a11.501 11.501 0 0 0-0.65429 0.0312 11.5 11.5 0 0 0-1.0859 0.0508 11.501 11.501 0 0 0-1.1035 0.18164 11.5 11.5 0 0 0-0.67773 0.11133 11.5 11.5 0 0 0-0.39649 0.14844 11.501 11.501 0 0 0-1.0469 0.39648 11.5 11.5 0 0 0-0.98633 0.44922 11.501 11.501 0 0 0-0.3457 0.15821l-81.828 47.244a11.501 11.501 0 0 0 0 19.916l76.078 43.922v67.936l-58.826-33.963v-30.141l15.479 8.9394 10.615 6.127v12.262a11.5 11.5 0 0 0 11.502 11.5 11.5 11.5 0 0 0 11.5-11.5v-18.898a11.501 11.501 0 0 0-5.75-9.959l-16.365-9.4473-32.732-18.898a11.501 11.501 0 0 0-17.25 9.959v56.691a11.501 11.501 0 0 0 5.75 9.959l81.828 47.244a11.501 11.501 0 0 0 0.35547 0.16211 11.5 11.5 0 0 0 0.94531 0.43164 11.501 11.501 0 0 0 1.1055 0.41602 11.5 11.5 0 0 0 1.0039 0.24414 11.501 11.501 0 0 0 1.166 0.19141 11.5 11.5 0 0 0 1.0488 0.0508 11.501 11.501 0 0 0 1.1504-0.0371 11.5 11.5 0 0 0 1.0625-0.15235 11.501 11.501 0 0 0 1.127-0.26367 11.5 11.5 0 0 0 0.99024-0.34375 11.501 11.501 0 0 0 1.0586-0.47851 11.5 11.5 0 0 0 0.48828-0.22071l81.828-47.244a11.501 11.501 0 0 0 5.75-9.959v-94.486a11.501 11.501 0 0 0-5.75-9.959l-81.828-47.244a11.5 11.5 0 0 0-0.49219-0.22266 11.501 11.501 0 0 0-1.041-0.47266 11.5 11.5 0 0 0-1.0176-0.35156 11.501 11.501 0 0 0-1.1074-0.25781 11.5 11.5 0 0 0-1.0723-0.1543 11.501 11.501 0 0 0-0.47461-0.0684zm-12.047 31.402v11.242l-10.615 6.127a11.5 11.5 0 0 0-4.207 15.709 11.5 11.5 0 0 0 15.707 4.207l16.367-9.4492a11.501 11.501 0 0 0 5.75-9.957v-17.877l58.826 33.961v81.217l-58.826 33.961v-74.57a11.501 11.501 0 0 0-5.75-9.957l-64.578-37.285zm43.48 25.301a11.5 11.5 0 0 0-9.207 5.7246 11.5 11.5 0 0 0 4.207 15.709l10.615 6.127v43.42l-10.615 6.127a11.5 11.5 0 0 0-4.207 15.709 11.5 11.5 0 0 0 15.709 4.207l16.365-9.4492a11.501 11.501 0 0 0 5.75-9.957v-56.693a11.501 11.501 0 0 0-5.75-9.957l-16.365-9.4492a11.5 11.5 0 0 0-6.502-1.5176z" color="#000000" fill="#8694c5" stroke="#e0e3ef" stroke-width="16" style="paint-order:stroke fill markers"/>
<path d="m197.53 244.34a3.0427 3.0427 0 0 0-1.8477 1.418 3.0427 3.0427 0 0 0 1.1133 4.1562l20.129 11.621v21.488l-20.129 11.621a3.0427 3.0427 0 0 0-1.1133 4.1562 3.0427 3.0427 0 0 0 4.1562 1.1133l21.65-12.5a3.043 3.043 0 0 0 1.5215-2.6348v-25a3.043 3.043 0 0 0-1.5215-2.6348l-21.65-12.5a3.0427 3.0427 0 0 0-2.3086-0.30468zm10.969 15.305a3.0427 3.0427 0 0 0-4.1562 1.1133 3.0427 3.0427 0 0 0 1.1133 4.1562l2.8086 1.6211v11.488l-2.8086 1.6211a3.0427 3.0427 0 0 0-1.1133 4.1562 3.0427 3.0427 0 0 0 4.1562 1.1133l4.3301-2.5a3.043 3.043 0 0 0 1.5215-2.6348v-15a3.043 3.043 0 0 0-1.5215-2.6348z" color="#000000" fill="#8694c5" style="-inkscape-stroke:none;paint-order:stroke fill markers"/>
<path d="m196.8 244.65-21.65 12.5a3.043 3.043 0 0 0 0 5.2695l20.129 11.621v17.975l-15.564-8.9863v-7.9746l4.0957 2.3652 2.8086 1.6211v3.2441a3.0427 3.0427 0 0 0 3.043 3.043 3.0427 3.0427 0 0 0 3.043-3.043v-5a3.043 3.043 0 0 0-1.5215-2.6348l-12.99-7.5a3.043 3.043 0 0 0-4.5644 2.6348v15a3.043 3.043 0 0 0 1.5215 2.6348l21.65 12.5a3.043 3.043 0 0 0 4.5645-2.6348v-25a3.043 3.043 0 0 0-1.5215-2.6348l-17.086-9.8652 12.521-7.2305v2.9746l-2.8086 1.6211a3.0427 3.0427 0 0 0-1.1133 4.1562 3.0427 3.0427 0 0 0 4.1562 1.1133l4.3301-2.5a3.043 3.043 0 0 0 1.5215-2.6348v-10a3.043 3.043 0 0 0-4.5645-2.6348z" color="#000000" fill="#2d3f7f" style="-inkscape-stroke:none;paint-order:stroke fill markers"/>
</g>
<path transform="matrix(1.1037 0 0 1.1037 124.74 167.35)" d="m68.869 8.2148c-2.6306 0-4.865 0.24836-6.752 0.81445-2.0463 0.61387-3.7689 1.9527-4.9277 3.791-1.2347 1.9585-1.7109 4.4709-1.7109 7.5156 0 3.1209 0.43438 5.669 1.5645 7.6777 1.2251 2.1779 3.5926 3.4277 6.4258 3.8379l5.3828 0.77734c0.80877 0.13551 1.264 0.29094 1.3672 0.32617 0.01613 0.1044 0.09961 0.61243 0.09961 1.4902 0 0.70183-0.05641 1.2049-0.0957 1.375a1.918 1.918 0 0 0-0.02734 0.14063c-0.0094 0.06152 0.02012-0.0074 0.0039 0.0098 0.10385-0.10385-0.05512 0.05844-0.58398 0.15039-0.55891 0.0972-1.5248 0.16602-2.7969 0.16602-1.5698 0-4.423-0.15868-8.4375-0.48242a1.918 1.918 0 0 0-2.0723 1.9121v5.957a1.918 1.918 0 0 0 1.584 1.8887c3.2654 0.57824 6.9679 0.85742 11.123 0.85742 2.5638 0 4.7032-0.24143 6.4902-0.82227l2e-3 -2e-3c2.0036-0.64005 3.6416-2.0896 4.707-4.0234 1.1342-2.0583 1.5566-4.6997 1.5566-8.0039 0-2.8326-0.32992-5.1285-1.2129-6.9785a1.918 1.918 0 0 0-0.01563-0.03125c-0.68532-1.3706-1.6766-2.507-2.9648-3.1797-1.1042-0.5924-2.3828-0.9617-3.8359-1.1797a1.918 1.918 0 0 0-0.01367-2e-3l-5.7871-0.82617c-0.52388-0.08064-0.67869-0.14008-0.89062-0.19922-0.0251-0.20704-0.07227-0.52357-0.07227-1.2246 0-0.69206 0.05516-1.0946 0.08008-1.2461-0.07611 0.08155 1.3039-0.35156 3.5195-0.35156 2.1778 0 4.7084 0.17074 7.5781 0.52148a1.918 1.918 0 0 0 2.1503-1.9023v-5.8594a1.918 1.918 0 0 0-1.541-1.8809c-3.3691-0.67382-6.6702-1.0117-9.8965-1.0117a1.918 1.918 0 0 0 0-0.00195zm29.223 0c-4.2237 0-7.3781 0.44067-9.6895 1.7656-2.2001 1.2473-3.6587 3.4396-4.1992 6.0645a1.918 1.918 0 0 0-0.0059 0.02148c-0.4761 2.4537-0.66992 6.1213-0.66992 11.252 0 5.1307 0.19605 8.8162 0.66992 11.295a1.918 1.918 0 0 0 0.0059 0.0332c0.54265 2.597 1.9985 4.7711 4.1797 6.0469a1.918 1.918 0 0 0 0.03711 0.02148c2.3068 1.2816 5.4501 1.7051 9.6719 1.7051 4.2531 0 7.3897-0.4156 9.6816-1.7129a1.918 1.918 0 0 0 0.0117-0.0059c2.2172-1.2728 3.6901-3.4683 4.1973-6.082 0.47644-2.4555 0.67188-6.1378 0.67188-11.301 0-5.1629-0.19544-8.8473-0.67188-11.303-0.50609-2.6083-1.985-4.7924-4.2051-6.0332-2.2951-1.335-5.4387-1.7676-9.6855-1.7676zm146.56 0c-3.9096 0-6.981 0.46554-9.3281 1.6797a1.918 1.918 0 0 0-0.0117 0.00586c-2.3404 1.2318-3.976 3.4543-4.8008 6.2285-0.81284 2.7342-1.1543 6.4052-1.1543 11.189 0 5.0035 0.31901 8.7514 1.0996 11.465a1.918 1.918 0 0 0 8e-3 0.02344c0.82386 2.7336 2.426 4.9179 4.7246 6.0879a1.918 1.918 0 0 0 0.0371 0.01758c2.2854 1.1019 5.2888 1.5078 9.1816 1.5078 1.683 0 3.496-0.11888 5.4434-0.35352 1.9681-0.20096 3.7092-0.4698 5.2344-0.81641a1.918 1.918 0 0 0 1.4922-1.8691v-18.797a1.918 1.918 0 0 0-1.918-1.918h-10.984a1.918 1.918 0 0 0-1.918 1.918v6.0059a1.918 1.918 0 0 0 1.918 1.918h1.9883v3.8926c-0.31617 0.0082-0.75079 0.0332-1.0117 0.0332-1.5854 0-2.5384-0.30552-2.7715-0.45312-0.14616-0.10801-0.49821-0.55158-0.70704-1.709-0.19167-1.2482-0.3164-3.6281-0.3164-6.9531 0-3.6488 0.22136-6.1843 0.47851-7.1895a1.918 1.918 0 0 0 2e-3 -0.01172c0.26422-1.057 0.51275-1.2292 0.83008-1.3418 0.48833-0.17329 2.3378-0.42578 5.0215-0.42578 1.3167 0 3.7356 0.20035 7.0859 0.61914a1.918 1.918 0 0 0 2.1562-1.9023v-5.8594a1.918 1.918 0 0 0-1.4531-1.8594c-1.0662-0.26654-2.514-0.49365-4.4551-0.72461h-4e-3c-1.9992-0.27093-3.9544-0.4082-5.8672-0.4082zm-127.21 0.39062a1.918 1.918 0 0 0-1.918 1.918v33.588a1.918 1.918 0 0 0 1.918 1.918h7.127a1.918 1.918 0 0 0 1.918-1.918v-9.582l2.623 10.066a1.918 1.918 0 0 0 1.8555 1.4336h5.9551a1.918 1.918 0 0 0 1.8555-1.4316l2.6719-10.172v9.6855a1.918 1.918 0 0 0 1.918 1.918h7.3223a1.918 1.918 0 0 0 1.918-1.918v-33.588a1.918 1.918 0 0 0-1.918-1.918h-10.789a1.918 1.918 0 0 0-1.8555 1.4336l-3.9297 15.068-3.9297-15.068a1.918 1.918 0 0 0-1.8555-1.4336zm40.791 0a1.918 1.918 0 0 0-1.918 1.918v33.588a1.918 1.918 0 0 0 1.918 1.918h20.213a1.918 1.918 0 0 0 1.918-1.918v-6.2969a1.918 1.918 0 0 0-1.918-1.918h-10.727v-3.6836h8.9199a1.918 1.918 0 0 0 1.918-1.918v-6.2969a1.918 1.918 0 0 0-1.918-1.918h-8.9199v-3.3418h10.727a1.918 1.918 0 0 0 1.918-1.918v-6.2969a1.918 1.918 0 0 0-1.918-1.918zm28.262 0a1.918 1.918 0 0 0-1.918 1.918v33.588a1.918 1.918 0 0 0 1.918 1.918h10.545c4.3751 0 7.598-0.41722 9.9453-1.6953 2.2778-1.223 3.8194-3.3945 4.334-5.9941 0.51509-2.4401 0.72266-6.027 0.72266-11.021 0-4.9944-0.20755-8.5834-0.72266-11.023-0.51457-2.5996-2.056-4.7711-4.334-5.9941-2.3473-1.2782-5.5702-1.6953-9.9453-1.6953zm30.443 0a1.918 1.918 0 0 0-1.918 1.918v33.588a1.918 1.918 0 0 0 1.918 1.918h7.6152a1.918 1.918 0 0 0 1.918-1.918v-33.588a1.918 1.918 0 0 0-1.918-1.918zm44.969 0a1.918 1.918 0 0 0-1.918 1.918v33.588a1.918 1.918 0 0 0 1.918 1.918h7.6152a1.918 1.918 0 0 0 1.918-1.918v-33.588a1.918 1.918 0 0 0-1.918-1.918zm12.672 0a1.918 1.918 0 0 0-1.918 1.918v6.543a1.918 1.918 0 0 0 1.918 1.916h5.9902v25.129a1.918 1.918 0 0 0 1.918 1.918h7.6172a1.918 1.918 0 0 0 1.918-1.918v-25.129h6.0391a1.918 1.918 0 0 0 1.918-1.916v-6.543a1.918 1.918 0 0 0-1.918-1.918zm-176.5 9.7441c1.6273 0 2.6575 0.34062 2.5156 0.25391a1.918 1.918 0 0 0 0.0391 0.02344c-0.21269-0.12314 0.0986 0.04593 0.22852 1.1113 0.13578 1.1134 0.23047 3.7341 0.23047 7.5801 0 3.846-0.0947 6.4645-0.23047 7.5781-0.0975 0.799-0.29682 1.0951-0.30078 1.1406-2e-3 0.01522 0.0191 0.0015 0.0723-0.0293a1.918 1.918 0 0 0-0.0391 0.02344c4e-3 -0.0027-0.0353 0.0077-0.0332 0.0059 0.0757-0.06197-0.90003 0.25-2.4824 0.25-1.4897 0-2.3794-0.24148-2.4883-0.25781-0.03135-0.0897-0.20564-0.39865-0.29492-1.1309-0.13578-1.1134-0.22852-3.7341-0.22852-7.5801 0-3.846 0.09273-6.4665 0.22852-7.5801 0.08925-0.73197 0.26349-1.041 0.29492-1.1309 0.10919-0.01649 0.99858-0.25781 2.4883-0.25781zm97.9 0.39062h0.86329c1.9147 0 3.2049 0.31437 3.1465 0.28516a1.918 1.918 0 0 0 0.0332 0.01563c-0.1484-0.07067 0.096-0.0062 0.2461 0.99414a1.918 1.918 0 0 0 0 0.0078c0.15185 0.98708 0.27148 3.5331 0.27148 7.2754 0 3.7423-0.1165 6.2989-0.27148 7.332a1.918 1.918 0 0 0-6e-3 0.04102c-0.1223 0.95393-0.32817 0.96747-0.19141 0.90234-0.0221 0.01051-1.3139 0.30273-3.2285 0.30273h-0.86329z" color="#000000" fill="#e0e3ef" stroke-linecap="round" stroke-linejoin="round" stroke-width=".23972" style="-inkscape-stroke:none;paint-order:stroke fill markers"/>
<g fill="#1b3181" stroke-width=".30776">
<path d="m200.92 216.47q-6.7354 0-11.908-0.91601v-6.5737q6.6815 0.53883 9.4834 0.53883 2.2092 0 3.4485-0.21553t1.7781-0.75436q0.48495-0.48495 0.59271-1.1854 0.16165-0.70047 0.16165-1.9937 0-1.7242-0.21553-2.4247-0.21553-0.75436-0.91601-1.0777-0.6466-0.3233-2.2631-0.59271l-5.981-0.86213q-4.0951-0.59272-5.55-3.1791t-1.4548-7.4358q0-4.6878 1.5626-7.1664t4.2568-3.2869q2.6942-0.80825 6.8431-0.80825 5.1189 0 10.507 1.0777v6.466q-4.8495-0.59271-8.6213-0.59271-3.9873 0-5.1189 0.75436-0.6466 0.37718-0.80825 1.0777-0.16165 0.64659-0.16165 2.0476 0 1.5626 0.16165 2.2092 0.16165 0.64659 0.70048 0.96989 0.59271 0.26941 1.9937 0.48495l6.4121 0.91601q2.1553 0.3233 3.5563 1.0777 1.4548 0.75436 2.3708 2.5864 1.1315 2.3708 1.1315 6.7893 0 5.1728-1.4548 7.813-1.4548 2.6403-3.9873 3.4485-2.4786 0.80824-6.5198 0.80824z"/>
<path d="m233.01 216.47q-6.7354 0-9.6451-1.6165-2.8558-1.6704-3.6102-5.2805-0.70048-3.664-0.70048-12.07 0-8.4058 0.70048-12.016 0.75436-3.664 3.6102-5.2805 2.9097-1.6704 9.6451-1.6704 6.7893 0 9.645 1.6704 2.9097 1.6165 3.6102 5.2266 0.70048 3.6102 0.70048 12.07 0 8.4596-0.70048 12.07-0.70047 3.6102-3.6102 5.2805-2.8558 1.6165-9.645 1.6165zm0-6.9509q2.9097 0 3.8796-0.59271 1.0238-0.59271 1.2932-2.8019 0.26941-2.2092 0.26941-8.6213 0-6.4121-0.26941-8.6213-0.26942-2.2092-1.2932-2.8019-0.96989-0.59271-3.8796-0.59271t-3.9335 0.59271q-0.9699 0.59271-1.2393 2.8019-0.26942 2.2092-0.26942 8.6213 0 6.4121 0.26942 8.6213 0.26941 2.2092 1.2393 2.8019 1.0238 0.59271 3.9335 0.59271z"/>
<path d="m282.99 216.04v-25.648h-0.37718l-6.7354 25.648h-6.5737l-6.6815-25.648h-0.37718v25.648h-7.8669v-37.072h12.016l6.1965 23.762h0.37719l6.1965-23.762h11.908v37.072z"/>
<path d="m299.4 216.04v-37.072h22.308v6.9509h-13.956v7.9208h11.962v6.9509h-11.962v8.298h13.956v6.9509z"/>
</g>
<g fill="#8694c5" stroke-width=".30776">
<path d="m330.59 178.96h11.639q7.0048 0 9.9684 1.6165 3.0174 1.6165 3.7179 5.1728 0.75436 3.5563 0.75436 11.746 0 8.1902-0.75436 11.746-0.70048 3.5563-3.7179 5.1728-2.9636 1.6165-9.9684 1.6165h-11.639zm11.423 30.121q3.3408 0 4.4723-0.53883 1.1316-0.53883 1.401-2.6403 0.3233-2.1553 0.3233-8.4057 0-6.2504-0.3233-8.3519-0.3233-2.1553-1.4548-2.6942-1.0777-0.53883-4.4184-0.53883h-3.0713v23.17z"/>
<path d="m364.19 216.04v-37.072h8.4058v37.072z"/>
<path d="m393.7 201.11v-6.6276h12.124v20.745q-2.3708 0.53883-5.55 0.86213-3.1252 0.37718-5.7655 0.37718-6.1965 0-9.214-1.4548-2.9636-1.5087-4.149-5.4422-1.1316-3.9335-1.1316-12.07 0-7.7592 1.1854-11.746t4.2568-5.6038q3.1252-1.6165 9.3218-1.6165 3.0174 0 6.1965 0.43106 3.1791 0.37719 4.6878 0.75437v6.466q-5.6038-0.70048-8.0824-0.70048-4.58 0-6.2504 0.59271-1.6704 0.59271-2.2631 2.9636-0.59271 2.317-0.59271 8.4596 0 5.6038 0.37718 8.0286 0.43106 2.4247 1.6704 3.2869 1.2932 0.86212 4.2568 0.86212 1.2932 0 3.233-0.10776v-8.4596z"/>
<path d="m413.83 216.04v-37.072h8.4058v37.072z"/>
<path d="m436.54 216.04v-29.851h-8.729v-7.2203h25.918v7.2203h-8.7829v29.851z"/>
</g>
</g>
</svg>
