<svg width="300" height="54.639" version="1.1" viewBox="0 0 79.376 14.456" xmlns="http://www.w3.org/2000/svg">
<g transform="matrix(.23973 0 0 .23973 -29.905 -40.119)">
<g transform="translate(-46.767 -74.777)" stroke-linecap="round" stroke-linejoin="round">
<path transform="matrix(.26458 0 0 .26458 112.58 160)" d="m324.6 318.39a11.501 11.501 0 0 0-0.65429 0.0312 11.5 11.5 0 0 0-1.0859 0.0508 11.501 11.501 0 0 0-1.1035 0.18164 11.5 11.5 0 0 0-0.67773 0.11133 11.5 11.5 0 0 0-0.39649 0.14844 11.501 11.501 0 0 0-1.0469 0.39648 11.5 11.5 0 0 0-0.98633 0.44922 11.501 11.501 0 0 0-0.3457 0.15821l-81.828 47.244a11.501 11.501 0 0 0 0 19.916l76.078 43.922v67.936l-58.826-33.963v-30.141l15.479 8.9394 10.615 6.127v12.262a11.5 11.5 0 0 0 11.502 11.5 11.5 11.5 0 0 0 11.5-11.5v-18.898a11.501 11.501 0 0 0-5.75-9.959l-16.365-9.4473-32.732-18.898a11.501 11.501 0 0 0-17.25 9.959v56.691a11.501 11.501 0 0 0 5.75 9.959l81.828 47.244a11.501 11.501 0 0 0 0.35547 0.16211 11.5 11.5 0 0 0 0.94531 0.43164 11.501 11.501 0 0 0 1.1055 0.41602 11.5 11.5 0 0 0 1.0039 0.24414 11.501 11.501 0 0 0 1.166 0.19141 11.5 11.5 0 0 0 1.0488 0.0508 11.501 11.501 0 0 0 1.1504-0.0371 11.5 11.5 0 0 0 1.0625-0.15235 11.501 11.501 0 0 0 1.127-0.26367 11.5 11.5 0 0 0 0.99024-0.34375 11.501 11.501 0 0 0 1.0586-0.47851 11.5 11.5 0 0 0 0.48828-0.22071l81.828-47.244a11.501 11.501 0 0 0 5.75-9.959v-94.486a11.501 11.501 0 0 0-5.75-9.959l-81.828-47.244a11.5 11.5 0 0 0-0.49219-0.22266 11.501 11.501 0 0 0-1.041-0.47266 11.5 11.5 0 0 0-1.0176-0.35156 11.501 11.501 0 0 0-1.1074-0.25781 11.5 11.5 0 0 0-1.0723-0.1543 11.501 11.501 0 0 0-0.47461-0.0684zm-12.047 31.402v11.242l-10.615 6.127a11.5 11.5 0 0 0-4.207 15.709 11.5 11.5 0 0 0 15.707 4.207l16.367-9.4492a11.501 11.501 0 0 0 5.75-9.957v-17.877l58.826 33.961v81.217l-58.826 33.961v-74.57a11.501 11.501 0 0 0-5.75-9.957l-64.578-37.285zm43.48 25.301a11.5 11.5 0 0 0-9.207 5.7246 11.5 11.5 0 0 0 4.207 15.709l10.615 6.127v43.42l-10.615 6.127a11.5 11.5 0 0 0-4.207 15.709 11.5 11.5 0 0 0 15.709 4.207l16.365-9.4492a11.501 11.501 0 0 0 5.75-9.957v-56.693a11.501 11.501 0 0 0-5.75-9.957l-16.365-9.4492a11.5 11.5 0 0 0-6.502-1.5176z" color="#000000" fill="#8694c5" stroke="#e0e3ef" stroke-width="16" style="paint-order:stroke fill markers"/>
<path d="m197.53 244.34a3.0427 3.0427 0 0 0-1.8477 1.418 3.0427 3.0427 0 0 0 1.1133 4.1562l20.129 11.621v21.488l-20.129 11.621a3.0427 3.0427 0 0 0-1.1133 4.1562 3.0427 3.0427 0 0 0 4.1562 1.1133l21.65-12.5a3.043 3.043 0 0 0 1.5215-2.6348v-25a3.043 3.043 0 0 0-1.5215-2.6348l-21.65-12.5a3.0427 3.0427 0 0 0-2.3086-0.30468zm10.969 15.305a3.0427 3.0427 0 0 0-4.1562 1.1133 3.0427 3.0427 0 0 0 1.1133 4.1562l2.8086 1.6211v11.488l-2.8086 1.6211a3.0427 3.0427 0 0 0-1.1133 4.1562 3.0427 3.0427 0 0 0 4.1562 1.1133l4.3301-2.5a3.043 3.043 0 0 0 1.5215-2.6348v-15a3.043 3.043 0 0 0-1.5215-2.6348z" color="#000000" fill="#8694c5" style="-inkscape-stroke:none;paint-order:stroke fill markers"/>
<path d="m196.8 244.65-21.65 12.5a3.043 3.043 0 0 0 0 5.2695l20.129 11.621v17.975l-15.564-8.9863v-7.9746l4.0957 2.3652 2.8086 1.6211v3.2441a3.0427 3.0427 0 0 0 3.043 3.043 3.0427 3.0427 0 0 0 3.043-3.043v-5a3.043 3.043 0 0 0-1.5215-2.6348l-12.99-7.5a3.043 3.043 0 0 0-4.5644 2.6348v15a3.043 3.043 0 0 0 1.5215 2.6348l21.65 12.5a3.043 3.043 0 0 0 4.5645-2.6348v-25a3.043 3.043 0 0 0-1.5215-2.6348l-17.086-9.8652 12.521-7.2305v2.9746l-2.8086 1.6211a3.0427 3.0427 0 0 0-1.1133 4.1562 3.0427 3.0427 0 0 0 4.1562 1.1133l4.3301-2.5a3.043 3.043 0 0 0 1.5215-2.6348v-10a3.043 3.043 0 0 0-4.5645-2.6348z" color="#000000" fill="#2d3f7f" style="-inkscape-stroke:none;paint-order:stroke fill markers"/>
</g>
<g>
<path transform="matrix(.26458 0 0 .26458 112.58 160)" d="m333.26 70.047c-10.454 0-19.077 1.0182-25.865 3.0547-6.7884 2.0365-12.151 6.1765-16.088 12.422-3.9373 6.2454-5.9062 15.274-5.9062 27.086 0 12.219 1.8323 21.589 5.498 28.105 3.6658 6.5169 10.658 10.522 20.977 12.016l22.605 3.2578c4.0731 0.67884 6.9255 1.4256 8.5547 2.2402 1.765 0.81461 2.9179 2.1715 3.4609 4.0723 0.54307 1.765 0.81445 4.8195 0.81445 9.1641 0 3.2584-0.20207 5.7702-0.60937 7.5352-0.27154 1.765-1.0183 3.2586-2.2402 4.4805-1.3577 1.3577-3.598 2.3085-6.7207 2.8516-3.1227 0.54308-7.4686 0.81445-13.035 0.81445-7.06 0-19.006-0.67746-35.842-2.0352v24.846c13.034 2.3081 28.037 3.4609 45.008 3.4609 10.183 0 18.395-1.0182 24.641-3.0547 6.3811-2.0365 11.405-6.3805 15.07-13.033 3.6658-6.6527 5.5-16.496 5.5-29.529 0-11.133-1.4262-19.688-4.2774-25.662-2.3081-4.6161-5.2952-7.8727-8.9609-9.7734-3.53-1.9008-8.0107-3.2596-13.441-4.0742l-24.234-3.4609c-3.53-0.54308-6.0417-1.1551-7.5352-1.834-1.3577-0.81461-2.2411-2.0368-2.6484-3.666-0.4073-1.6292-0.60937-4.4123-0.60937-8.3496 0-3.53 0.20207-6.1091 0.60937-7.7383 0.40731-1.765 1.4274-3.1238 3.0566-4.0742 2.8511-1.9008 9.2988-2.8496 19.346-2.8496 9.5038 0 20.365 0.74678 32.584 2.2402v-24.439c-13.577-2.7154-26.813-4.0723-39.711-4.0723zm121.9 0c-16.971 0-29.124 2.1037-36.455 6.3125-7.1957 4.0731-11.744 10.727-13.645 19.959-1.765 9.0965-2.6484 24.234-2.6484 45.414 0 21.18 0.88345 36.387 2.6484 45.619 1.9008 9.0965 6.4488 15.748 13.645 19.957 7.3315 4.0731 19.484 6.1094 36.455 6.1094 17.107 0 29.257-2.0363 36.453-6.1094 7.3315-4.2088 11.88-10.861 13.645-19.957 1.765-9.0965 2.6484-24.303 2.6484-45.619 0-21.316-0.88344-36.523-2.6484-45.619-1.765-9.0965-6.313-15.681-13.645-19.754-7.1957-4.2088-19.346-6.3125-36.453-6.3125zm611.39 0c-15.613 0-27.358 2.0363-35.232 6.1094-7.7389 4.0731-13.101 11.133-16.088 21.18-2.9869 10.047-4.4805 24.846-4.4805 44.396 0 20.501 1.4262 35.708 4.2773 45.619 2.987 9.9111 8.2125 16.767 15.68 20.568 7.6031 3.6658 19.213 5.498 34.826 5.498 6.6527 0 13.916-0.4754 21.791-1.4258 8.0104-0.81461 15.003-1.9001 20.977-3.2578v-78.406h-45.822v25.049h16.291v31.975c-4.8876 0.27154-8.9603 0.40625-12.219 0.40625-7.4673 0-12.83-1.0855-16.088-3.2578-3.1227-2.1723-5.2283-6.3142-6.3145-12.424-0.9503-6.1096-1.4257-16.224-1.4257-30.344 0-15.478 0.7467-26.137 2.2402-31.975 1.4934-5.9738 4.3458-9.7058 8.5547-11.199 4.2088-1.4935 12.083-2.2402 23.623-2.2402 6.2454 0 16.429 0.88149 30.549 2.6465v-24.438c-3.8016-0.95038-9.7084-1.9012-17.719-2.8516-8.0103-1.0861-15.817-1.6289-23.42-1.6289zm-530.63 1.6289v140.11h29.732v-96.939h1.4258l25.254 96.939h24.846l25.455-96.939h1.4258v96.939h30.549v-140.11h-45.008l-23.42 89.811h-1.4258l-23.42-89.811zm170.16 0v140.11h84.312v-26.271h-52.746v-31.363h45.211v-26.27h-45.211v-29.938h52.746v-26.271zm117.89 0v140.11h43.99c17.65 0 30.208-2.0363 37.676-6.1094 7.603-4.0731 12.286-10.59 14.051-19.551 1.9008-8.9607 2.8516-23.76 2.8516-44.396s-0.9508-35.436-2.8516-44.396c-1.765-8.9607-6.4477-15.478-14.051-19.551-7.4673-4.0731-20.026-6.1094-37.676-6.1094zm126.99 0v140.11h31.77v-140.11zm187.59 0v140.11h31.77v-140.11zm52.859 0v27.289h32.99v112.82h31.772v-112.82h33.195v-27.289zm-736.25 24.643c7.3315 0 12.218 0.74678 14.662 2.2402 2.5796 1.4935 4.2079 5.0233 4.8867 10.59 0.67884 5.5665 1.0195 16.428 1.0195 32.584 0 16.156-0.34069 27.017-1.0195 32.584-0.67885 5.5665-2.3071 9.0964-4.8867 10.59-2.4438 1.4935-7.3306 2.2402-14.662 2.2402s-12.288-0.74677-14.867-2.2402c-2.4438-1.4935-4.0048-5.0233-4.6836-10.59-0.67885-5.5665-1.0195-16.428-1.0195-32.584 0-16.156 0.34068-27.017 1.0195-32.584 0.67884-5.5665 2.2398-9.0964 4.6836-10.59 2.5796-1.4935 7.5357-2.2402 14.867-2.2402zm400.38 1.6289h11.607c8.4177 0 13.986 0.67942 16.701 2.0371 2.8512 1.3577 4.6834 4.7509 5.498 10.182 0.81461 5.295 1.2227 15.817 1.2227 31.566s-0.40805 26.339-1.2227 31.77c-0.67884 5.295-2.4438 8.6208-5.2949 9.9785-2.8512 1.3577-8.4866 2.0371-16.904 2.0371h-11.607z" fill="#8694c5" stop-color="#000000" stroke="#e0e3ef" stroke-linecap="round" stroke-linejoin="round" stroke-width="16" style="-inkscape-stroke:none;font-variant-caps:normal;font-variant-east-asian:normal;font-variant-ligatures:normal;font-variant-numeric:normal;font-variation-settings:normal;paint-order:stroke fill markers"/>
<text x="186.04909" y="216.03583" fill="#1b3181" font-family="'Saira SemiCondensed'" font-size="53.883px" font-stretch="semi-condensed" font-weight="600" letter-spacing="1.5388px" stroke-width=".30776" style="font-variant-caps:normal;font-variant-east-asian:normal;font-variant-ligatures:normal;font-variant-numeric:normal;line-height:1.25" xml:space="preserve"><tspan x="186.04909" y="216.03583" fill="#1b3181" font-family="'Saira SemiCondensed'" font-size="53.883px" font-stretch="semi-condensed" font-weight="bold" stroke-width=".30776" style="font-variant-caps:normal;font-variant-east-asian:normal;font-variant-ligatures:normal;font-variant-numeric:normal">SOME</tspan></text>
<text x="327.14536" y="216.03583" fill="#8694c5" font-family="'Saira SemiCondensed'" font-size="53.883px" font-stretch="semi-condensed" font-weight="600" letter-spacing="1.5388px" stroke-width=".30776" style="font-variant-caps:normal;font-variant-east-asian:normal;font-variant-ligatures:normal;font-variant-numeric:normal;line-height:1.25" xml:space="preserve"><tspan x="327.14536" y="216.03583" fill="#8694c5" font-family="'Saira SemiCondensed'" font-size="53.883px" font-stretch="semi-condensed" font-weight="bold" stroke-width=".30776" style="font-variant-caps:normal;font-variant-east-asian:normal;font-variant-ligatures:normal;font-variant-numeric:normal">DIGIT</tspan></text>
</g>
</g>
</svg>
