<?xml version="1.0" encoding="UTF-8" standalone="no"?>
<svg
   width="38.365mm"
   height="25.135mm"
   version="1.1"
   viewBox="0 0 38.365 25.135"
   id="svg21"
   sodipodi:docname="vectara.svg"
   inkscape:version="1.1 (c68e22c387, 2021-05-23)"
   xmlns:inkscape="http://www.inkscape.org/namespaces/inkscape"
   xmlns:sodipodi="http://sodipodi.sourceforge.net/DTD/sodipodi-0.dtd"
   xmlns="http://www.w3.org/2000/svg"
   xmlns:svg="http://www.w3.org/2000/svg">
  <sodipodi:namedview
     id="namedview23"
     pagecolor="#ffffff"
     bordercolor="#111111"
     borderopacity="1"
     inkscape:pageshadow="0"
     inkscape:pageopacity="0"
     inkscape:pagecheckerboard="1"
     inkscape:document-units="mm"
     showgrid="false"
     inkscape:snap-bbox="true"
     inkscape:bbox-nodes="true"
     inkscape:snap-page="true"
     inkscape:snap-global="true"
     inkscape:zoom="8.5598555"
     inkscape:cx="80.900899"
     inkscape:cy="46.846585"
     inkscape:window-width="1366"
     inkscape:window-height="703"
     inkscape:window-x="0"
     inkscape:window-y="0"
     inkscape:window-maximized="1"
     inkscape:current-layer="g963" />
  <defs
     id="defs7">
    <linearGradient
       id="linearGradient1087"
       x1="921.94"
       x2="942.84"
       y1="2812.1"
       y2="2795.9"
       gradientTransform="matrix(0.53155,0,0,0.50911,-440.38,-1382.6)"
       gradientUnits="userSpaceOnUse">
      <stop
         stop-color="#00eb84"
         offset="0"
         id="stop2" />
      <stop
         stop-color="#1dbad1"
         offset="1"
         id="stop4" />
    </linearGradient>
  </defs>
  <g
     id="g963"
     transform="matrix(0.93548451,0,0,0.93548451,1.2369929,0.48925426)">
    <g
       id="path840"
       transform="scale(0.26458333)">
      <path
         id="path1272"
         style="color:#000000;fill:#ffffff;stroke-width:0.935484;stroke-linecap:round;stroke-linejoin:round;-inkscape-stroke:none;paint-order:markers fill stroke"
         d="m 31.583984,28.662109 c -3.348765,0 -5.601898,1.205975 -7.371093,4.119141 -0.429528,0.707223 -0.860627,1.401572 -1.292969,2.091797 A 4.6778902,4.6778902 0 0 0 19.980469,34.28125 c -1.89051,-2.694524 -4.330845,-3.919463 -7.671875,-3.929688 a 4.6778902,4.6778902 0 0 0 -0.0078,0 l -7.6171872,-0.01172 a 4.6778902,4.6778902 0 0 0 -4.04882818,7.03125 c 0,0 8.09952128,13.887991 13.23046838,21.908203 2.993033,5.364637 10.917895,6.155947 15.0625,1.410156 a 4.6778902,4.6778902 0 0 0 0.433594,-0.580078 c 2.310534,-3.660998 3.215084,-5.273362 4.765625,-7.773437 a 4.6778902,4.6778902 0 0 0 0.164063,-1.833985 c 0.864168,-0.682195 1.650487,-1.481503 2.21875,-2.5 l -0.154297,0.255859 c 0.511268,-0.793065 1.008643,-1.590803 1.517578,-2.384765 l 5.048828,12.390625 a 4.6778902,4.6778902 0 0 0 4.332031,2.912109 h 4.095703 A 4.6778902,4.6778902 0 0 0 55.6875,58.242188 l 0.0078,-0.01953 c 2.147977,2.077776 5.052876,3.390625 8.203126,3.390625 2.954575,0 5.724492,-1.203899 7.894531,-3.101562 2.135525,1.874522 4.869446,3.101562 7.849609,3.101562 2.969524,0 5.740492,-1.187049 7.869141,-3.089843 0.0061,0.0062 0.0056,0.01533 0.01172,0.02148 1.798025,1.804462 4.33403,2.630859 6.740234,2.630859 h 3.11914 a 4.6778902,4.6778902 0 0 0 2.757809,-1.142578 c 1.63832,0.918292 3.41788,1.580078 5.38282,1.580078 1.34601,0 2.6636,-0.274578 3.9082,-0.738281 a 4.6778902,4.6778902 0 0 0 0.45508,0.300781 h 3.50976 a 4.6778902,4.6778902 0 0 0 1.42383,-0.589843 4.6778902,4.6778902 0 0 0 1.42578,0.589843 h 4.53321 a 4.6778902,4.6778902 0 0 0 3.89843,-2.796875 c 2.07545,1.954287 4.78934,3.234375 7.77539,3.234375 1.34602,0 2.66361,-0.274579 3.90821,-0.738281 a 4.6778902,4.6778902 0 0 0 0.45312,0.300781 h 3.50977 a 4.6778902,4.6778902 0 0 0 4.67773,-4.677734 V 43.339844 a 4.6778902,4.6778902 0 0 0 -4.67773,-4.677735 h -3.38672 a 4.6778902,4.6778902 0 0 0 -0.55078,0.353516 c -1.24733,-0.46987 -2.57384,-0.74414 -3.9336,-0.744141 -1.84534,0 -3.53999,0.569865 -5.10742,1.386719 a 4.6778902,4.6778902 0 0 0 -2.52148,-1.044922 h -1.21875 c -1.04266,0 -2.18269,0.302697 -3.2832,0.695313 a 4.6778902,4.6778902 0 0 0 -1.0293,-0.646485 h -3.04688 a 4.6778902,4.6778902 0 0 0 -1.42578,0.589844 4.6778902,4.6778902 0 0 0 -1.42383,-0.589844 h -3.39062 a 4.6778902,4.6778902 0 0 0 -0.54883,0.353516 c -1.24733,-0.46987 -2.57384,-0.74414 -3.93359,-0.744141 -1.95782,0 -3.7359,0.654624 -5.37305,1.566407 A 4.6778902,4.6778902 0 0 0 98.560536,39.179688 4.6778902,4.6778902 0 0 0 94.01952,34.833984 h -0.949219 a 4.6778902,4.6778902 0 0 0 -3.40625,1.470704 l -3.75,3.982421 c -1.861171,-1.18928 -3.967921,-2.015625 -6.248046,-2.015625 -2.988424,0 -5.744853,1.226546 -7.890625,3.107422 -2.111306,-1.887401 -4.845638,-3.130859 -7.876953,-3.130859 -1.731446,0 -3.358638,0.448175 -4.861329,1.146484 a 4.6778902,4.6778902 0 0 0 -2.40039,-0.732422 h -4.826172 a 4.6778902,4.6778902 0 0 0 -2.466797,1.810547 4.6778902,4.6778902 0 0 0 -2.478516,-1.810547 h -4.40039 c 0.596956,-0.943001 1.205481,-1.883018 1.800781,-2.826171 a 4.6778902,4.6778902 0 0 0 -3.957031,-7.173829 z"
         transform="matrix(1.0689648,0,0,1.0689648,-4.9976764,-1.9766762)" />
    </g>
    <g
       transform="translate(-32.191,-178.7)"
       id="g19">
      <g
         transform="matrix(0.24623,0,0,0.24623,24.411,158.97)"
         stroke-width="4.0613"
         id="g17">
        <g
           transform="translate(6.3612,78.272)"
           stroke-width="4.0613"
           id="g13">
          <path
             d="m 25.237,39.955 8.7503,0.01325 c 1.7384,0.0053 3.8658,1.1661 4.7527,2.5981 2.253,3.6379 6.314,10.186 8.4291,13.545 1.7171,2.1573 5.1551,2.6053 7.3277,0.90498 -1.8317,2.9534 -2.8378,4.7542 -5.449,8.8916 -2.5577,2.9287 -6.8685,2.3375 -8.5641,-0.70165 -5.733,-8.929 -15.247,-25.252 -15.247,-25.252 z"
             style="paint-order:markers fill stroke"
             id="path9" />
          <path
             d="m 66.167,38.027 c -3.0007,4.7541 -6.0127,9.5019 -9.0582,14.226 -1.6957,3.0392 -6.0065,3.6304 -8.5641,0.70171 -2.6112,-4.1374 -3.6173,-5.9384 -5.4491,-8.8917 2.1726,1.7003 5.6106,1.2523 7.3277,-0.90498 0.62438,-0.98818 1.2378,-1.9837 1.8449,-2.9833 0.71863,-1.1833 2.4488,-2.1472 3.8748,-2.1472 z"
             fill="url(#linearGradient1087)"
             style="fill:url(#linearGradient1087);paint-order:markers fill stroke"
             id="path11" />
        </g>
        <path
           d="m 133.13,123.39 -6.7743,7.1944 v 1.2314 h 2.7714 v 5.6828 c 0,3.3592 2.0432,5.4023 5.3744,5.4023 h 3.5832 v -4.5346 h -1.9875 c -1.0917,0 -1.7637,-0.67208 -1.7637,-1.7358 v -4.8147 h 3.6675 v -4.0308 h -3.7791 v -4.3951 z m -33.508,3.9192 c -4.7588,0 -8.2016,3.4153 -8.2016,8.0341 0,4.6188 3.4708,8.0615 8.2016,8.0615 3.7791,0 6.8583,-2.1555 7.922,-5.5986 h -5.2064 c -0.47588,0.89577 -1.5119,1.4278 -2.7156,1.4278 -1.6516,0 -2.743,-0.8958 -3.0789,-2.6314 h 11.225 c 0.056,-0.47588 0.0837,-0.92352 0.0837,-1.3994 0,-4.4229 -3.3592,-7.8941 -8.23,-7.8941 z m 18.112,0.0279 c -4.8988,0 -8.37,3.3314 -8.37,8.0062 0,4.6748 3.4994,8.0615 8.3421,8.0615 4.2549,0 7.5021,-2.771 8.0899,-6.858 h -5.1227 c -0.41989,1.3437 -1.5676,2.2112 -2.9673,2.2112 -1.8195,0 -3.1352,-1.4273 -3.1352,-3.4148 0,-1.9595 1.3157,-3.3595 3.1352,-3.3595 1.3716,0 2.5194,0.81211 2.9394,2.0438 h 5.0943 c -0.58785,-4.031 -3.7508,-6.6905 -8.0057,-6.6905 z m 29.701,0 c -4.6188,0 -7.922,3.3314 -7.922,8.0062 0,4.7028 3.3032,8.0615 7.922,8.0615 1.7636,0 3.3308,-0.5596 4.5625,-1.5674 l 0.44803,1.0635 h 4.0313 v -15.116 h -3.8912 l -0.53174,1.1756 c -1.2317,-1.0357 -2.8273,-1.6237 -4.6188,-1.6237 z m 30.932,0 c -4.6188,0 -7.922,3.3314 -7.922,8.0062 0,4.7028 3.3032,8.0615 7.922,8.0615 1.7636,0 3.3313,-0.5596 4.563,-1.5674 l 0.44751,1.0635 h 4.0313 v -15.116 h -3.8912 l -0.53175,1.1756 c -1.2317,-1.0357 -2.8273,-1.6237 -4.6188,-1.6237 z m -10.161,0.3917 c -1.7916,0 -3.0792,0.50412 -4.1429,1.7358 l -0.81184,-1.6795 h -3.4995 v 15.116 h 5.2069 v -7.6698 c 0,-1.9315 0.78392,-2.7435 2.6035,-2.7435 h 2.0433 v -4.7589 z m -93.86,0.0563 6.1588,15.116 h 4.7026 l 6.0746,-15.116 h -5.5428 l -2.8272,8.9576 -2.8551,-8.9576 z m 25.278,3.6112 c 1.5676,0 2.6594,0.81175 3.1073,2.3234 h -6.1025 c 0.41989,-1.5116 1.4835,-2.3234 2.9952,-2.3234 z m 48.512,0.53175 c 1.9595,0 3.3874,1.4558 3.3874,3.4153 0,1.9875 -1.4279,3.4711 -3.3874,3.4711 -1.9595,0 -3.3874,-1.4836 -3.3874,-3.4711 0,-1.9595 1.4279,-3.4153 3.3874,-3.4153 z m 30.932,0 c 1.9595,0 3.3874,1.4558 3.3874,3.4153 0,1.9875 -1.4279,3.4711 -3.3874,3.4711 -1.9595,0 -3.3869,-1.4836 -3.3869,-3.4711 0,-1.9595 1.4274,-3.4153 3.3869,-3.4153 z"
           id="path15" />
      </g>
    </g>
  </g>
</svg>
