<svg width="38.365mm" height="25.135mm" version="1.1" viewBox="0 0 38.365 25.135" xmlns="http://www.w3.org/2000/svg">
<defs>
<linearGradient id="linearGradient1087" x1="921.94" x2="942.84" y1="2812.1" y2="2795.9" gradientTransform="matrix(.53155 0 0 .50911 -440.38 -1382.6)" gradientUnits="userSpaceOnUse">
<stop stop-color="#00eb84" offset="0"/>
<stop stop-color="#1dbad1" offset="1"/>
</linearGradient>
</defs>
<g transform="translate(-32.191 -178.7)">
<g transform="matrix(.24623 0 0 .24623 24.411 158.97)" stroke-width="4.0613">
<g transform="translate(6.3612,78.272)" stroke-width="4.0613">
<path d="m25.237 39.955 8.7503 0.01325c1.7384 0.0053 3.8658 1.1661 4.7527 2.5981 2.253 3.6379 6.314 10.186 8.4291 13.545 1.7171 2.1573 5.1551 2.6053 7.3277 0.90498-1.8317 2.9534-2.8378 4.7542-5.449 8.8916-2.5577 2.9287-6.8685 2.3375-8.5641-0.70165-5.733-8.929-15.247-25.252-15.247-25.252z" style="paint-order:markers fill stroke"/>
<path d="m66.167 38.027c-3.0007 4.7541-6.0127 9.5019-9.0582 14.226-1.6957 3.0392-6.0065 3.6304-8.5641 0.70171-2.6112-4.1374-3.6173-5.9384-5.4491-8.8917 2.1726 1.7003 5.6106 1.2523 7.3277-0.90498 0.62438-0.98818 1.2378-1.9837 1.8449-2.9833 0.71863-1.1833 2.4488-2.1472 3.8748-2.1472z" fill="url(#linearGradient1087)" style="paint-order:markers fill stroke"/>
</g>
<path d="m133.13 123.39-6.7743 7.1944v1.2314h2.7714v5.6828c0 3.3592 2.0432 5.4023 5.3744 5.4023h3.5832v-4.5346h-1.9875c-1.0917 0-1.7637-0.67208-1.7637-1.7358v-4.8147h3.6675v-4.0308h-3.7791v-4.3951zm-33.508 3.9192c-4.7588 0-8.2016 3.4153-8.2016 8.0341s3.4708 8.0615 8.2016 8.0615c3.7791 0 6.8583-2.1555 7.922-5.5986h-5.2064c-0.47588 0.89577-1.5119 1.4278-2.7156 1.4278-1.6516 0-2.743-0.8958-3.0789-2.6314h11.225c0.056-0.47588 0.0837-0.92352 0.0837-1.3994 0-4.4229-3.3592-7.8941-8.23-7.8941zm18.112 0.0279c-4.8988 0-8.37 3.3314-8.37 8.0062s3.4994 8.0615 8.3421 8.0615c4.2549 0 7.5021-2.771 8.0899-6.858h-5.1227c-0.41989 1.3437-1.5676 2.2112-2.9673 2.2112-1.8195 0-3.1352-1.4273-3.1352-3.4148 0-1.9595 1.3157-3.3595 3.1352-3.3595 1.3716 0 2.5194 0.81211 2.9394 2.0438h5.0943c-0.58785-4.031-3.7508-6.6905-8.0057-6.6905zm29.701 0c-4.6188 0-7.922 3.3314-7.922 8.0062 0 4.7028 3.3032 8.0615 7.922 8.0615 1.7636 0 3.3308-0.5596 4.5625-1.5674l0.44803 1.0635h4.0313v-15.116h-3.8912l-0.53174 1.1756c-1.2317-1.0357-2.8273-1.6237-4.6188-1.6237zm30.932 0c-4.6188 0-7.922 3.3314-7.922 8.0062 0 4.7028 3.3032 8.0615 7.922 8.0615 1.7636 0 3.3313-0.5596 4.563-1.5674l0.44751 1.0635h4.0313v-15.116h-3.8912l-0.53175 1.1756c-1.2317-1.0357-2.8273-1.6237-4.6188-1.6237zm-10.161 0.3917c-1.7916 0-3.0792 0.50412-4.1429 1.7358l-0.81184-1.6795h-3.4995v15.116h5.2069v-7.6698c0-1.9315 0.78392-2.7435 2.6035-2.7435h2.0433v-4.7589zm-93.86 0.0563 6.1588 15.116h4.7026l6.0746-15.116h-5.5428l-2.8272 8.9576-2.8551-8.9576zm25.278 3.6112c1.5676 0 2.6594 0.81175 3.1073 2.3234h-6.1025c0.41989-1.5116 1.4835-2.3234 2.9952-2.3234zm48.512 0.53175c1.9595 0 3.3874 1.4558 3.3874 3.4153 0 1.9875-1.4279 3.4711-3.3874 3.4711s-3.3874-1.4836-3.3874-3.4711c0-1.9595 1.4279-3.4153 3.3874-3.4153zm30.932 0c1.9595 0 3.3874 1.4558 3.3874 3.4153 0 1.9875-1.4279 3.4711-3.3874 3.4711s-3.3869-1.4836-3.3869-3.4711c0-1.9595 1.4274-3.4153 3.3869-3.4153z"/>
</g>
</g>
</svg>
