<?xml version="1.0" encoding="UTF-8" standalone="no"?>
<svg
   width="160"
   height="80"
   version="1.1"
   viewBox="0 0 42.33333 21.166666"
   id="svg21"
   sodipodi:docname="vectara.svg"
   inkscape:version="1.1 (c68e22c387, 2021-05-23)"
   xmlns:inkscape="http://www.inkscape.org/namespaces/inkscape"
   xmlns:sodipodi="http://sodipodi.sourceforge.net/DTD/sodipodi-0.dtd"
   xmlns="http://www.w3.org/2000/svg"
   xmlns:svg="http://www.w3.org/2000/svg">
  <sodipodi:namedview
     id="namedview23"
     pagecolor="#ffffff"
     bordercolor="#111111"
     borderopacity="1"
     inkscape:pageshadow="0"
     inkscape:pageopacity="0"
     inkscape:pagecheckerboard="1"
     inkscape:document-units="mm"
     showgrid="false"
     inkscape:snap-bbox="true"
     inkscape:bbox-nodes="true"
     inkscape:snap-page="true"
     inkscape:snap-global="true"
     inkscape:zoom="5.24375"
     inkscape:cx="79.237187"
     inkscape:cy="49.964243"
     inkscape:window-width="1366"
     inkscape:window-height="703"
     inkscape:window-x="0"
     inkscape:window-y="0"
     inkscape:window-maximized="1"
     inkscape:current-layer="g963"
     units="px" />
  <defs
     id="defs7">
    <linearGradient
       id="linearGradient1087"
       x1="921.94"
       x2="942.84003"
       y1="2812.1001"
       y2="2795.8999"
       gradientTransform="matrix(0.53155,0,0,0.50911,-440.38,-1382.6)"
       gradientUnits="userSpaceOnUse">
      <stop
         stop-color="#00eb84"
         offset="0"
         id="stop2" />
      <stop
         stop-color="#1dbad1"
         offset="1"
         id="stop4" />
    </linearGradient>
  </defs>
  <g
     id="g963"
     transform="matrix(0.93548451,0,0,0.93548451,1.2369929,0.48925426)">
    <g
       id="g925"
       transform="matrix(1.1795247,0,0,1.1795247,-1.3227158,-4.0416098)">
      <g
         transform="matrix(0.24623,0,0,0.24623,-6.2136817,-0.45708544)"
         stroke-width="4.0613"
         id="g13">
        <path
           d="m 25.237,39.955 8.7503,0.01325 c 1.7384,0.0053 3.8658,1.1661 4.7527,2.5981 2.253,3.6379 6.314,10.186 8.4291,13.545 1.7171,2.1573 5.1551,2.6053 7.3277,0.90498 -1.8317,2.9534 -2.8378,4.7542 -5.449,8.8916 -2.5577,2.9287 -6.8685,2.3375 -8.5641,-0.70165 -5.733,-8.929 -15.247,-25.252 -15.247,-25.252 z"
           style="paint-order:markers fill stroke"
           id="path9" />
        <path
           d="m 66.167,38.027 c -3.0007,4.7541 -6.0127,9.5019 -9.0582,14.226 -1.6957,3.0392 -6.0065,3.6304 -8.5641,0.70171 -2.6112,-4.1374 -3.6173,-5.9384 -5.4491,-8.8917 2.1726,1.7003 5.6106,1.2523 7.3277,-0.90498 0.62438,-0.98818 1.2378,-1.9837 1.8449,-2.9833 0.71863,-1.1833 2.4488,-2.1472 3.8748,-2.1472 z"
           fill="url(#linearGradient1087)"
           style="fill:url(#linearGradient1087);paint-order:markers fill stroke"
           id="path11" />
      </g>
      <path
         d="m 25.0006,10.65232 -1.668036,1.771477 v 0.303207 h 0.682402 v 1.399276 c 0,0.827136 0.503097,1.330209 1.323338,1.330209 h 0.882292 v -1.116555 h -0.489382 c -0.26881,0 -0.434276,-0.165486 -0.434276,-0.427406 v -1.185524 h 0.903048 v -0.992503 h -0.930528 v -1.082206 z m -8.250675,0.965024 c -1.171759,0 -2.01948,0.84095 -2.01948,1.978237 0,1.137287 0.854615,1.984983 2.01948,1.984983 0.930528,0 1.688719,-0.530749 1.950634,-1.378543 h -1.281972 c -0.117176,0.220565 -0.372275,0.351567 -0.668662,0.351567 -0.406673,0 -0.675409,-0.220573 -0.758117,-0.64793 h 2.763931 c 0.01379,-0.117176 0.02061,-0.227398 0.02061,-0.344574 0,-1.089051 -0.827136,-1.943764 -2.026473,-1.943764 z m 4.459718,0.0069 c -1.206232,0 -2.060945,0.820291 -2.060945,1.971367 0,1.151076 0.861657,1.984983 2.054075,1.984983 1.047684,0 1.847242,-0.682303 1.991976,-1.688645 h -1.261362 c -0.10339,0.330859 -0.38599,0.544463 -0.730639,0.544463 -0.448015,0 -0.77198,-0.351444 -0.77198,-0.840826 0,-0.482488 0.323965,-0.82721 0.77198,-0.82721 0.337729,0 0.620352,0.199966 0.723769,0.503245 h 1.254369 C 23.03614,12.279038 22.257327,11.62419 21.209643,11.62419 Z m 7.313277,0 c -1.137287,0 -1.950634,0.820291 -1.950634,1.971367 0,1.15797 0.813347,1.984983 1.950634,1.984983 0.434251,0 0.820143,-0.13779 1.123424,-0.385941 l 0.110319,0.261866 h 0.992627 v -3.722013 h -0.95813 l -0.130931,0.289468 C 29.356948,11.768924 28.964063,11.62414 28.522942,11.62414 Z m 7.616386,0 c -1.137287,0 -1.950634,0.820291 -1.950634,1.971367 0,1.15797 0.813347,1.984983 1.950634,1.984983 0.434252,0 0.820266,-0.13779 1.123548,-0.385941 l 0.11019,0.261866 h 0.992627 v -3.722013 h -0.95813 l -0.130933,0.289468 C 36.973327,11.768924 36.580442,11.62414 36.139321,11.62414 Z m -2.501943,0.09645 c -0.441145,0 -0.758191,0.12413 -1.020106,0.427406 l -0.199899,-0.413543 h -0.861682 v 3.722013 h 1.282095 v -1.888535 c 0,-0.475593 0.193024,-0.675532 0.64106,-0.675532 h 0.503121 v -1.171784 z m -23.111147,0.01386 1.516481,3.722013 h 1.157921 l 1.495749,-3.722013 h -1.364804 l -0.696141,2.20563 -0.703012,-2.20563 z m 6.224202,0.889186 c 0.38599,0 0.654824,0.199877 0.76511,0.572091 h -1.502619 c 0.10339,-0.372202 0.365283,-0.572091 0.737509,-0.572091 z m 11.945109,0.130933 c 0.482488,0 0.83408,0.358461 0.83408,0.840949 0,0.489382 -0.351592,0.854689 -0.83408,0.854689 -0.482487,0 -0.834079,-0.365307 -0.834079,-0.854689 0,-0.482488 0.351592,-0.840949 0.834079,-0.840949 z m 7.616387,0 c 0.482487,0 0.834079,0.358461 0.834079,0.840949 0,0.489382 -0.351592,0.854689 -0.834079,0.854689 -0.482488,0 -0.833957,-0.365307 -0.833957,-0.854689 0,-0.482488 0.351469,-0.840949 0.833957,-0.840949 z"
         id="path15"
         style="stroke-width:1.00001" />
    </g>
  </g>
</svg>
