<?xml version="1.0" encoding="UTF-8"?>
<svg width="1443" height="314" version="1.1" viewBox="0 0 1443 314" xmlns="http://www.w3.org/2000/svg" xmlns:cc="http://creativecommons.org/ns#" xmlns:dc="http://purl.org/dc/elements/1.1/" xmlns:rdf="http://www.w3.org/1999/02/22-rdf-syntax-ns#">
 <metadata>
  <rdf:RDF>
   <cc:Work rdf:about="">
    <dc:format>image/svg+xml</dc:format>
    <dc:type rdf:resource="http://purl.org/dc/dcmitype/StillImage"/>
    <dc:title/>
   </cc:Work>
  </rdf:RDF>
 </metadata>
 <defs>
  <style>.cls-1{fill:#feba91;}.cls-2{fill:#fe7624;}.cls-3,.cls-7{fill:#fff;}.cls-10,.cls-4,.cls-8,.cls-9{fill:none;}.cls-4,.cls-7{stroke:#2e186a;}.cls-10,.cls-4,.cls-7,.cls-8,.cls-9{stroke-linecap:round;stroke-linejoin:round;}.cls-10,.cls-4,.cls-7{stroke-width:6px;}.cls-5{fill:#5d21d1;}.cls-6{fill:#2e186a;}.cls-10,.cls-8,.cls-9{stroke:#fe7624;}.cls-8{stroke-width:4.5px;}.cls-9{stroke-width:8px;}.cls-11{fill:#968bb4;}</style>
 </defs>
 <g transform="matrix(.41424 0 0 .41424 390.5 .0030158)" data-name="Layer 2">
  <g transform="translate(-136.93)">
   <rect id="shape" class="cls-1" x="5.6444" y="497.44" width="1793" height="257.25" fill="none" stop-color="#000000" stroke="#2e186a" stroke-linecap="round" stroke-linejoin="round" stroke-width="6px" style="font-variation-settings:normal"/>
   <g id="screen" transform="translate(112.94)">
    <path class="cls-2" d="m943.73 88.21h-324.23a9.86 9.86 0 0 0-9.84 9.79v199.55a9.86 9.86 0 0 0 9.84 9.83h126.67l-19.12 73.27h119.38l-18.43-73.27h115.73a9.86 9.86 0 0 0 9.84-9.83v-199.55a9.86 9.86 0 0 0-9.84-9.79z" fill="#ff5361" data-name="shape"/>
    <rect class="cls-3" x="626.12" y="101.38" width="297.99" height="186.83" rx="11" data-name="screen"/>
    <g id="lines">
     <ellipse class="cls-4" cx="785.11" cy="340.91" rx="14.43" ry="15.06"/>
     <line class="cls-4" x1="817" x2="832.96" y1="307.64" y2="378.58"/>
     <line class="cls-4" x1="746.48" x2="827.27" y1="307.21" y2="307.21"/>
     <path id="line" class="cls-4" d="m926.72 91.27a10.37 10.37 0 0 1 10.19 10.48v195.05"/>
    </g>
    <g id="code_lines" data-name="code lines">
     <rect class="cls-1" x="738" y="142.18" width="9.71" height="13.88" rx="3.31"/>
     <rect class="cls-5" x="667.53" y="142.18" width="66.74" height="13.88" rx="4.54"/>
     <rect class="cls-5" x="667.53" y="206.64" width="72.78" height="13.88" rx="4.54"/>
     <rect class="cls-1" x="685.93" y="185.18" width="112.88" height="13.88" rx="4.54"/>
     <rect class="cls-1" x="805.12" y="185.18" width="60.97" height="13.88" rx="4.54"/>
     <rect class="cls-5" x="877.02" y="163.72" width="9.71" height="13.88" rx="3.31"/>
     <rect class="cls-5" x="667.53" y="163.68" width="116.72" height="13.88" rx="4.54"/>
     <rect class="cls-5" x="751.98" y="142.18" width="66.74" height="13.88" rx="4.54"/>
     <rect class="cls-2" x="789.47" y="163.64" width="82.33" height="13.96" rx="4.57" fill="#ff5361"/>
    </g>
   </g>
   <g id="woman_with_glasses" data-name="woman with glasses">
    <path class="cls-6" d="m618.83 376.9 15.34-25.63s-14.63-64.89-23.81-97.13c-8.22-28.89-27.4-36-41.73-31.89l-102 17.27c-0.75-0.08-1.5-0.14-2.23-0.16-17.86-0.4-47.44 64.28-54.35 101.95 9.29-3 30.19-6.14 56.76-2.55 0.78-1.56 3.63-6.31 7.38-13 0.44 0.76 0.87 1.5 1.3 2.22 6.3 10.5 23.44 46.13 34.94 49.74l108.47 3.38-1.32-4.2a10 10 0 0 0 1.25 0z" fill="#5b37f0" data-name="shape"/>
    <g id="head">
     <path class="cls-7" d="m512.26 189.53-3 1.94s-17.78 9.67-23.37-8.29c-4.23-13.63 8.84-17.92 15.4-19.19"/>
     <path class="cls-7" d="m553.61 213.82-6.81 15.12 10.13-2.22c1.1 2 14.23 30.31-17.57 37.58-20.87 4.76-45-12.18-55.93-27.61l17.64-3.2 14.39-34.67z"/>
     <path class="cls-7" d="m576 155.62c2.42 8.24 9.35 47.35-15.73 57s-48.61-9.77-57.53-33.85-3.33-47.63 12.41-54.14 43.23-28.63 60.85 30.99z"/>
     <path class="cls-6" d="m550.33 187.37a17.76 17.76 0 0 0 11.13-1.58 1.59 1.59 0 0 1 2.28 1.2c0.53 3.09 0.38 8.47-6.38 10.1-7.06 1.7-8.56-4.5-8.86-8a1.61 1.61 0 0 1 1.83-1.72z" fill="#5b37f0"/>
     <polyline class="cls-4" points="554.68 176.24 562.45 174.21 551.7 144.42"/>
     <path class="cls-4" d="m528.81 154s3.89-7.4 9.9-4.67"/>
     <path class="cls-4" d="m552.83 136.48s4.85-6.78 10.43-3.22"/>
     <ellipse class="cls-6" transform="rotate(-11.63 544.75 163.32)" cx="544.84" cy="163.36" rx="2.66" ry="4.22" fill="#5b37f0"/>
     <ellipse class="cls-6" transform="rotate(-11.63 570.32 158.24)" cx="570.41" cy="158.26" rx="2.66" ry="4.22" fill="#5b37f0"/>
     <ellipse class="cls-8" transform="rotate(-9.63 535.34 162.86)" cx="535.05" cy="162.77" rx="16.89" ry="22.84"/>
     <ellipse class="cls-8" transform="rotate(-9.63 579.16 154.41)" cx="578.84" cy="154.35" rx="16.89" ry="22.84"/>
     <line class="cls-8" x1="561.25" x2="550.88" y1="151.61" y2="153.58"/>
     <line class="cls-8" x1="517.72" x2="494.25" y1="157.75" y2="165.66"/>
     <path id="hair" class="cls-6" d="m583.31 110.7c-19.14-39.21-51.95-16.9-73.92 5.42-17.09-0.29-38.8 17-43.43 30.91-5.57 16.71-3.63 40.73 8 56.12 22.37 24.6 41.49 19.33 55.2 7.5-7.95-4.2-14.87-11-20.09-19.08-2 1-17.93 8.46-23.17-8.39-2.25-7.25 0.39-11.86 4.34-14.77 1.56 0.48 3.62 0.24 6.3-1 13.14-6 17.93-20.93 19.67-30.33l62.4-16.2a7.25 7.25 0 0 0 4.7-10.18z" fill="#5b37f0"/>
    </g>
    <g id="hand_II" data-name="hand II">
     <path class="cls-7" d="m550.64 351c-26.65-1.31-87.95-9.84-87.95-9.84l1-2.74c-22.24-2.61-40.19-0.56-50.19 2-3.09 8.76-4.32 16.28-2.62 21.28 2.23 6.61 9.8 12.19 16.7 13.19 57.41 8.33 125.72 2.09 125.72 2.09l19.36-14.84s-20.83-11.14-22.02-11.14z"/>
     <path class="cls-7" d="m544.82 351a150.29 150.29 0 0 1 26.9 1.51c8.26 1.27 22.31 3.4 23.72 5.29 3.32 4.45-9.33 6.68-15.31 3"/>
     <path class="cls-7" d="m575 366.17c11.72 3.12 17.84 3.55 15.33-1-1.45-2.6-21-11.55-24.82-12.55s-24.72-2.35-24.72-2.35"/>
     <path class="cls-7" d="m560.4 359.14a136.68 136.68 0 0 1 14.08 5.17c6.13 2.76 9.81 5.82 9.38 7s-5 3.59-9 2.17c-5.62-3.1-18.24-6.28-18.24-6.28 1.32-0.3 10.11 3.33 14.93 4.87s8.69 6.15-3 5.49l-17.64-0.56"/>
    </g>
    <g id="hand">
     <path class="cls-7" d="m708.66 274.2s18.68-0.55 30.91-7.7c7.29-4.26 16.74-10.11 17.2-12.63 0.86-4.74-10.67 0.1-12.5 0.72"/>
     <path class="cls-7" d="m721.89 261s10-5.22 14.42-10.49 7.43-9.4 6.61-10.45-6.51-0.89-9.53 2.13c-3.81 5.44-15.49 11.24-15.49 11.24 1.29-0.19 8.86-5.39 12.57-8.85s5.37-9.85-4.81-4.7c0 0-10.84 5.83-14.86 7.39 0 0-17 2.14-22.52 7.86-3.7 3.86-32.57 33.29-54.22 51.83-12.52 8.1-46.8 67.82-14.22 68.08 6.74 0.25 15.42-4.18 18.87-9.11l64.93-90.57c10.39-1.67 17.8-4.33 22.78-7 6.45-3.51 26.1-19.79 26.47-21.93 1-5.71-8.73-5.54-15.91 3.57"/>
    </g>
    <g id="ponytail">
     <g fill="#5b37f0">
      <ellipse class="cls-6" transform="rotate(-60.71 480.5 217.45)" cx="480.55" cy="217.44" rx="28.77" ry="25.04"/>
      <ellipse class="cls-6" transform="matrix(.17 -.99 .99 .17 183.61 705.01)" cx="510.66" cy="243.42" rx="20.8" ry="18.1"/>
      <ellipse class="cls-6" transform="rotate(-55.34 528.89 271.3)" cx="528.91" cy="271.3" rx="18.57" ry="16.16"/>
      <ellipse class="cls-6" transform="rotate(-39.99 544.65 295.78)" cx="544.62" cy="295.77" rx="15.35" ry="13.36"/>
      <path class="cls-6" d="m547.57 329.52c6.66 3.52 7.74 8.25 7.22 12a1.93 1.93 0 0 0 3.17 1.73c7.62-6.87 19.29-20.22 9.69-30.94-4.53-5.06-12.69-5.67-18.84-0.85s-7.24 14.88-1.24 18.06z"/>
     </g>
     <line class="cls-9" x1="493.48" x2="504.31" y1="241.1" y2="224.76"/>
     <line class="cls-9" x1="515.29" x2="528.8" y1="263.83" y2="254.17"/>
     <line class="cls-9" x1="536.04" x2="540.66" y1="285.4" y2="283.1"/>
     <line class="cls-9" x1="549.86" x2="554.48" y1="310.2" y2="307.9"/>
    </g>
    <g id="legs">
     <path class="cls-2" d="m527.16 644.3-20.8 67.61s36.59 9 32.75 40.07l-90.11-0.46 25.78-115.41z" fill="#ff5361"/>
     <path class="cls-2" d="m649.55 641.75-21.5 69.82s37.86 9.52 33.88 41.76l-93.43-0.48 26.71-119.59z" fill="#ff5361"/>
     <path class="cls-5" d="m621 383.5h-62.75l-2.3-3.64-24.45 3.64h-11l-0.33 1.69-107.88 16.08c-0.78 2.74-27.73 50.07-2.13 83.85 10.24 13.52 46.74 17 86.84 16.31l-37.37 187.57h95.74l26.69-115.87-15.92 116.55h95.74l8.12-267.39s0-42.29-49-38.79z" fill="#5b37f0"/>
    </g>
   </g>
   <g id="ponytail_woman" data-name="ponytail woman">
    <g id="shoes" fill="#5b37f0">
     <path id="boot" class="cls-6" d="m236.97 672.75-9.653 33.845 0.44 48.47h22.92l1.32-10.491s9.29 9.4409 41.31 11.571 59.69-6.67 59.47-7.92c-0.1-0.63 1-2.6497 2-11.79 0.94-8-6.68-15.76-14.88-15.29-12.31 0.72-28.46-7.6703-38.26-15.83-17.5-14.59-2.477-35.245-2.477-35.245z"/>
     <path class="cls-6" d="m364.64 691.38 1.36 63.694h22.91l1.36-11.624s9.3 10.574 41.32 12.704 59.68-6.67 59.47-7.92c-0.11-0.63 1-3.1689 2-12.309 0.94-8-6.69-15.76-14.89-15.29-12.31 0.72-32.963-4.1776-42.763-12.338-17.5-14.59-24.358-26.505-24.358-26.505z" data-name="boot"/>
    </g>
    <path class="cls-2" d="m341.92 383.72 7.23-0.74c21 8.52 45 2.74 66.6-10.31-2.73-2.27-7.66-8.22-7.66-11.45 0-20.84 4.46-39.72 20.49-64l-32.07 20.54s-13.46-21-25.63-43.26c-1.24-15.1-4.33-28.44-10.39-37.2-18.62-22.11-60.56-19.43-60.56-19.43l-69.32-5.2-0.44-0.24c-12.87 0-30.4 13.71-32.32 28.57-3.58 27.65 5.13 64.44 8.84 96.33-0.65 3.28-1.17 5.88-1.54 7.6 0 0-72.9 101.39-21.9 152.43 0.27 0.4 59.07-0.53 59.07-0.53-0.66853 79.081-35.092 131.34-61.533 228.86 104.32 16.371 183.73-4.1419 248.93-45.693 0 0 21.63-179.29 17.14-199.17-9.1-40.32-104.94-97.11-104.94-97.11z" fill="#ff5361" data-name="shape"/>
    <g transform="translate(0 3.4928)">
     <path d="m352.77 377.54h-193.15s14.001-120.01 26.733-141.93c14.466-24.902 40.689-22.492 40.689-22.492 7.332-86.171 53.635-139.88 99.494-113.02 44.485 26.056 35.164 86.32 28.585 131.76 8.1464 6.9106 14.023 19.789 14.675 31.465" fill="#ff5361" stop-color="#000000" stroke="#2e186a" stroke-linecap="round" stroke-linejoin="round" stroke-width="6px" style="font-variation-settings:normal"/>
     <ellipse id="face" class="cls-7" transform="rotate(-10.41)" cx="280.75" cy="216.77" rx="39.71" ry="51.04"/>
     <path id="nose" class="cls-4" d="m318.89 174.6 7.56-0.25a1.22 1.22 0 0 0 1.14-1.53l-5.45-20.62"/>
     <path d="m345.18 131.15s-32.057-5.1397-48.642 1.3684c-16.585 6.5081-19.553 11.214-19.553 11.214" fill="none" stop-color="#000000" stroke="#2e186a" stroke-linecap="round" stroke-linejoin="round" stroke-width="6px" style="font-variation-settings:normal"/>
     <g data-name="hand">
      <path class="cls-7" d="m352.65 301 15.71-6s12.3-13.57 17.73-17.64 16.11-3.57 8.92 2.72-8.22 10.08-8.22 10.08 18.92-5.51 29.32-12c10.63-6.63 8.32 4.75 8.32 4.75s8 1.1 4.93 5.22c0 0 6.15 3.52 0 7.05 0 0 8.72 0.92 3.73 6.13-3.63 7.42-28.81 21.48-44.26 20.34l-8.64 3.8-10.89 5.37"/>
      <path class="cls-7" d="m398.81 294s19.19-4.72 25.62-11"/>
      <path class="cls-7" d="m401.32 300.6c2.08-0.92 17.4-3.74 27.11-13.11"/>
      <path class="cls-7" d="m403.79 307.43c4.35-1.85 13.9-1.31 25.64-11.69"/>
     </g>
     <path d="m375.33 377.43c5.6184-17.026 0.74504-32.292-5.1202-47.392l-18.218-31.272-82.109 22.128" fill="#ff5361" stop-color="#000000" stroke="#2e186a" stroke-linecap="round" stroke-linejoin="round" stroke-width="6px" style="font-variation-settings:normal"/>
     <path class="cls-4" d="m269.73 322.6s-13.58-6.21-20.56 6.59"/>
     <path class="cls-4" d="m268.56 317.17s-11.83-13.58-26.18 4.27"/>
     <path class="cls-6" d="m317.3 185.51a17.76 17.76 0 0 0 11.13-1.58 1.59 1.59 0 0 1 2.28 1.2c0.53 3.09 0.38 8.47-6.38 10.1-7.06 1.7-8.56-4.5-8.86-8a1.61 1.61 0 0 1 1.83-1.72z" fill="#5b37f0"/>
    </g>
    <path d="m241.35 496.67s0.83954 36.202-8.3954 68.581c-9.235 32.379-51.892 160.96-51.892 160.96l48.064 5.1447" fill="none" stop-color="#000000" stroke="#2e186a" stroke-linecap="round" stroke-linejoin="round" stroke-width="6px" style="font-variation-settings:normal"/>
    <path d="m227.04 216.62c13.659-0.59554 20.751 8.501 25.449 17.747" fill="#ff5361" stop-color="#000000" stroke="#2e186a" stroke-linecap="round" stroke-linejoin="round" stroke-width="6px" style="font-variation-settings:normal"/>
   </g>
   <g id="thinking_man" transform="translate(254.38)" data-name="thinking man">
    <g data-name="legs">
     <g id="boots" fill="#5b37f0">
      <path class="cls-6" d="m1016.6 658.5v94.64h-122.38s-0.38-34.72 56-41.12v-50.62z" data-name="boot"/>
      <path class="cls-6" d="m915.49 658.5v94.64h-122.37s-0.39-34.72 56-41.12v-50.62z" data-name="boot"/>
     </g>
     <g id="trousers">
      <path class="cls-7" d="m952.26 413.26-93.32 61.11a72 72 0 0 0-18 45.59l-6.05 168.79h77s106.47 1.94 106.47-5.82c0-6.22 6.3-119 8.8-163.62a19.92 19.92 0 0 1 18.93-18.78c18.16-0.89 45.22-2.16 57.1-2.53 93.23-3.25 68.3-41.72 57.28-69.1-4.26-10.57-8.38-20.64-11.63-28.26"/>
      <path class="cls-4" d="m1047.9 406.38-107.07 44.32c-13.41 8.17-13.55 32.42-14.17 49.58l-6 188.47"/>
     </g>
    </g>
    <path class="cls-5" d="m1175.2 336.76c-27.73-165.24-72.85-141.9-95.87-141.12l-52.43 2.1a8.94 8.94 0 0 0-0.23-2.06c-0.43-1.91-2.47-3.45-5.1-4.67v-0.08c6.68-1.67 19.52-5.39 19.37-8.29-0.22-4.09-25.82-2.13-33.68-1.64-4 0.24-11.77 2.62-18.36 4.87a32.81 32.81 0 0 0-19.3 17.61c-1.43 3.18-5.71 14.14-7 17.25l-16.59-7.5s-31.65 72.37-39 91.2a68.85 68.85 0 0 0-2.06 7.16c-15.52 46.41 17.16 70.49 17.16 70.49l159.32 1.62-18.48 15.7c-2.71 3.1 86.89-3.88 90-3.49 1.59 0.19-6.47-12.09-14.71-24.14 19.27-7.93 38.19-19.69 36.96-35.01z" fill="#5b37f0" data-name="shape"/>
    <g data-name="lines">
     <path class="cls-4" d="m1138 305.42s-14.71-6.85-34.84 6.94c0 0-22.72-38.66-20.32-59.13"/>
     <path class="cls-4" d="m1024.2 349.1c2.18-1.2 79.49-36.48 79.49-36.48"/>
     <polyline class="cls-4" points="962.14 320.7 992.78 233.63 983.32 229.42"/>
    </g>
    <g data-name="head">
     <polygon class="cls-7" points="1018.3 182.3 1023.2 204.87 1021.9 252.84 1076.6 203.42 1058.4 156.76" data-name="neck"/>
     <path id="hair_back" class="cls-6" d="m1002.4 105.59s33.95 21.62 17.32 41.69c0 0-7.41 8.38-13.49 6.69 0 0 4.5-7.12-0.64-10.85 0 0-1.69 21.43-19.24 17 0 0 6.5-9.46 4.84-20.85-3.47-23.79 2.09-38.01 11.21-33.68z" fill="#5b37f0" data-name="hair back"/>
     <path class="cls-7" d="m1072.8 139.89s6.84-41.81-35.46-49.33c-3.94-0.7-31-5-36.06 17.46-3.41 15-4.15 31.24-3.83 43.87 0 0.08 0.23 23.88 9.54 37.17s30.16 12.21 41.23 5.77 13.11-9.81 16.25-17.51 8.31-37.34 8.31-37.34z" data-name="face"/>
     <polyline class="cls-4" points="1014.9 142.74 1010.6 163.25 1018 162.07" data-name="nose"/>
     <path class="cls-4" d="m1037.7 128.67a9.78 9.78 0 0 0-9.11-4" data-name="brow II"/>
     <path class="cls-4" d="m1010 123s-7.31-3.36-10.57 1" data-name="brow"/>
     <path id="hair_front" class="cls-6" d="m1039.8 108.45s-16.41 56 20.86 62c0 0 21.71 4 26.72-3.65 0 0-15.68-8.47-13.63-17.44 0 0 17.56 19.53 33.07 5.71 0 0-25.69-4.47-23.24-27.6 1.76-16.57-37.95-32.47-43.78-19.02z" fill="#5b37f0" data-name="hair front"/>
     <path id="cap" class="cls-2" d="m1042.9 72.08c-49.053-5.5526-50.78 41.64-50.78 41.64l91.898 14.374c6.3587-33.544-17.953-53.392-41.118-56.014z" fill="#ff5361"/>
     <path class="cls-4" d="m1033.1 167.1s-3.15 7.23-13.37 5.55" data-name="mouth"/>
    </g>
    <g data-name="hand II">
     <path class="cls-7" d="m956.67 218.74c0.52-1.27 1-2.49 1.37-3.65 2.11-5.51 3.93-9.89 5.5-13.37a32.76 32.76 0 0 1 19.3-17.6c6.59-2.26 14.33-4.63 18.36-4.88 7.86-0.48 33.46-2.44 33.68 1.64 0.15 2.91-12.69 6.62-19.38 8.3l-5.34 20.44s-6.25 0.75-9.33 2.43c-6.3 3.44-12.52 9.13-17.06 8.63 0 0-0.32 3.25-1.3 8.88"/>
     <path class="cls-7" d="m1000.6 185.36s18.54 2.35 19.93 8.56-3.86 6.56-3.86 6.56"/>
     <path class="cls-7" d="m1e3 192.8s16.33 3.49 17.25 9.79-4.34 6.26-4.34 6.26"/>
     <path class="cls-7" d="m998.86 202s19.57 4.52 12.07 11.43-11.27 6.15-11.27 6.15-5.36-3.41 3.29-8.71"/>
    </g>
    <g data-name="hand">
     <path class="cls-7" d="m1025.5 349.37-10.09 1.92c-1.22 0.23-21.76 13.29-21.76 13.29l21.2 13.69s1.55 1.54 33.64-0.52c-2.29-8.04-14.24-20.26-22.99-28.38z"/>
     <path class="cls-7" d="m1021.4 350.87a155.69 155.69 0 0 0-27.62 3.8c-8.42 2-22.73 5.38-24 7.45-3 4.86 10.18 6.11 16 1.83"/>
     <path class="cls-7" d="m991.58 369c-11.83 4.2-18.1 5.16-15.89 0.28 1.27-2.81 20.68-13.67 24.55-15s25.29-4.49 25.29-4.49"/>
     <path class="cls-7" d="m1006 360.56a143 143 0 0 0-14.08 6.5c-6.09 3.36-9.63 6.83-9.09 8s5.42 3.29 9.42 1.49c5.54-3.67 18.28-8 18.28-8-1.38-0.19-10.14 4.29-15 6.27s-8.45 7.07 3.57 5.41l18.18-2.06"/>
    </g>
   </g>
   <g id="hoodie_man" transform="translate(254.38)" data-name="hoodie man">
    <g data-name="legs">
     <path id="shoe_II" class="cls-2" d="m1229.8 621.89 1.34 81.61s-47 11-59.41 50.11l104-0.08 16.56-151.45z" fill="#ff5361" data-name="shoe II"/>
     <path id="shoe" class="cls-2" d="m1119.5 626-11.91 79.58s-44.18 10.64-55.88 47.35l97.71-0.07 30.95-136.25z" fill="#ff5361"/>
     <path class="cls-6" d="m1454.9 455.62-5-63.66-193.61-0.32-3.69 21.78-29.93-0.8c-75.81-3.44-87.92 53.74-87.92 53.74l-62.25 243.38 92.65 0.45 47.15-171.86-21.44 170.25 94.23 1.4 18.42-175.11c22.21-5.06 94.34-22 112.8-31.93 18.7-6.94 39.47-30.6 38.59-47.32z" fill="#5b37f0" data-name="trousers"/>
    </g>
    <path id="hoodie" class="cls-2" d="m1452.1 290.06a222.19 222.19 0 0 0-67.27-66.59c11.69-19.07 9.62-38.45-39.55-42.35-79.59-2.79-87.71 18.55-87.84 35.18-26.24 20.87-42.23 43.15-51.71 64.22-11.42-10.55-32.53-29.88-37.92-33.47-7.5-5-12.26 3.81-18.31 0.73s-8.12-4-8.12-4-5.26 18.61-20.17 23.67c0 0 0.3 2.78 3.64 8.62s-3.87 10 1.47 17.19 51.72 66.46 51.72 66.46c5.59 5.53 18.57 25 32.71 19.08v-1.27l0.57 0.73 100.1 0.48-2.68 16.58c126.83 12.16 117.88 69.86 153 47.13l-3.7-76.76c12-14.44 17-40.12-5.94-75.63z" fill="#ff5361"/>
    <path id="shirt" class="cls-3" d="m1354.4 202.49 12.67 8.53s-47.34 28.91-53.52 103.3c-4.11 49.42-5 106.8-5 106.8l-22 3.1s7.3-135-1.33-160.1-0.74-53.35 5.1-57.92 64.08-3.71 64.08-3.71z"/>
    <g data-name="hand II">
     <path class="cls-7" d="m1122.2 226.86c-0.76-0.51-23.55-15-29.47-16.53s-6.71 5.55 11.58 15.7a19.59 19.59 0 0 0-3.56 22c1.7 3.87 17.21 19.27 22.54 19.89s25.25-4.6 21.06-17-11.34-16.83-22.15-24.06z"/>
     <path class="cls-7" d="m1133.5 235.18s-19.69-7.78-21.69-6.65c-2.78 1.59 0.3 9.61 9 13.49 0 0-6.06 7.87-2.72 14"/>
     <path id="welt" class="cls-6" d="m1123.2 276c-3.94-5.91-4.54-8.59-4.54-8.59 14.27-3.21 21.38-24.34 21.38-24.34s2.79 0.69 9.14 4.27c2.56 1.44 4.9 0.29 6.73 0 2.55 19.76-22.84 35.25-31.56 39.51-1.06-4.07 1.85-6.36-1.15-10.85z" fill="#5b37f0"/>
    </g>
    <g data-name="hand">
     <path class="cls-7" d="m1291.1 327.75a156 156 0 0 0-27.72-2.95c-8.66-0.08-23.36-0.25-25.11 1.44-4.13 4 8.41 8.39 15.13 5.64"/>
     <path class="cls-7" d="m1309.9 328.13c-6-0.37-14.32-0.86-24.76-1.42-1.24-0.07-24.32 7.67-24.32 7.67l17.29 18.39s1 1.69 28.31 6.76"/>
     <path class="cls-7" d="m1257.8 338.2c-12.49 1.23-18.81 0.65-15.49-3.56 1.91-2.42 23.36-8.29 27.44-8.68s25.63 1.73 25.63 1.73"/>
     <path class="cls-7" d="m1273.8 333.45a144.52 144.52 0 0 0-15.23 2.92c-6.72 1.8-11 4.32-10.74 5.55s4.47 4.49 8.79 3.71c6.26-2.23 19.67-3.37 19.67-3.37-1.3-0.52-10.88 1.72-16.06 2.48s-9.9 4.83 2.16 6.11l18.14 2.37"/>
     <path class="cls-6" d="m1308.2 363.7c-5.93-2.24-7.83-4-7.83-4 7.69-12 0-31.9 0-31.9s2-0.53 8.24-1.79a7.12 7.12 0 0 0 4.73-3.26c12.76 14.46 5.1 39.87 1.7 49.08-2.99-2.66-2.34-6.44-6.84-8.13z" fill="#5b37f0" data-name="welt"/>
    </g>
    <g id="hoodie_lines" data-name="hoodie lines">
     <path class="cls-4" d="m1391.2 306.3s-12.68 1.24-15.9 17.89"/>
     <path class="cls-4" d="m1337.4 258.41s-13 26.94-14.73 45.25"/>
     <path class="cls-4" d="m1277.4 259.59s6 25.78 4 44.07"/>
     <path class="cls-4" d="m1394.4 379s-67.52-4.59-75.09-6.53-4.77-7.48-10.25-9.59-7.24-3.8-7.24-3.8c7.11-11.34 0-30.13 0-30.13s1.87-0.51 7.62-1.69 3.89-7.11 11.68-7.79 74.63 6.94 74.63 6.94"/>
     <path class="cls-4" d="m1208.6 280.13s16.87 8.53 26.76 23.08"/>
    </g>
    <path id="shape_II" class="cls-6" d="m1385.1 222.91c-11.48 19.19-37.23 38.22-43.26 41a0.59 0.59 0 0 0 0 0.08c17.21 0.84 57.4-21.37 64.19-25.27-8.34-6.24-15.26-12.06-20.93-15.81z" fill="#5b37f0" data-name="shape II"/>
    <path class="cls-6" d="m1257.8 225.22c-0.12-2.82-0.42-6.07-0.36-9.51h-0.05q-7.38 5.82-13.89 11.79c5.2 10.08 15.74 25.36 27.24 32.46-3.44-7.18-12.16-16.73-12.94-34.74z" fill="#5b37f0" data-name="shape"/>
    <g data-name="head">
     <path class="cls-7" d="m1351 149.33s15 0.29 12.32 13.72-19.26 5.66-19.26 5.66l2.22-19.09z" data-name="ear"/>
     <path class="cls-7" d="m1308.3 107c-4-0.33-31-2-34 20.56s0.23 47.54 2.74 58.93 54.35 6.12 57.28 5.1 6.43-4.45 6.43-4.45l7.11-34.7s2.9-41.89-39.56-45.44z" data-name="face"/>
     <path class="cls-7" d="m1345.4 167.64 0.94 28.15 8 9.14a229.62 229.62 0 0 0-46 40.17s-18.42-19.45-21.65-49.92l43.16 5.35 3.38-16.86z" data-name="neck"/>
     <path id="beard" class="cls-11" d="m1342.7 152.17c-2.57 2.49-9.46 16.84-11.14 23.53 0 0-17-5.62-41.46-6 0 0-13.31 0.26-18.62 1.8 0 0 1.15 23.7 11.94 36s33.62 8.84 44.32 1.46 12.48-10.9 15-18.79 9-37.32 9-37.32z"/>
     <path class="cls-6" d="m1349.7 157.24s7-10.91 9.77-22.25a23.39 23.39 0 0 0-12.26-26.6c-8.26-4-14.38-0.86-14.38-0.86s8.76-14.91-4.39-28.09a23.87 23.87 0 0 0-17.59-7 23.06 23.06 0 0 0-21 14s-17.19-31.57-52.42-12.89c-3.55 1.89-7.56 7.14-9.47 10.68-11.64 21.44 26.71 46.84 46.68 48.85 21.92 2.21 34.75-1.42 41.81-6.79-5.26 3.19 0.65 35.99 33.25 30.95z" fill="#5b37f0" data-name="hair"/>
     <polyline class="cls-4" points="1290.9 160.61 1288.6 181.26 1295.8 179.4" data-name="nose"/>
     <path class="cls-4" d="m1312.8 145.47a9.71 9.71 0 0 0-9.18-3.61" data-name="brow"/>
     <path class="cls-4" d="m1284.2 141.52s-5.86-1.52-7.33 3.27" data-name="brow II"/>
     <path class="cls-4" d="m1307 186.14s-1 6.26-6.75 5.25" data-name="mouth"/>
    </g>
   </g>
   <g id="table">
    <rect class="cls-4" x="123.86" y="380.78" width="1348.2" height="373.71"/>
    <rect class="cls-6" x="121.3" y="380" width="1352.4" height="48.1" fill="#5b37f0" stroke="#2e186a" stroke-width="4.8281"/>
    <rect class="cls-6" transform="scale(1,-1)" x="121.22" y="-496.76" width="1352.5" height="68.734" fill="#ff5361" stroke="#2e186a" stroke-width="4.6729" style="paint-order:normal"/>
   </g>
  </g>
  <path d="m-205.25 754.69h2008.6" fill="none" stop-color="#000000" stroke="#2e186a" stroke-linecap="round" stroke-linejoin="round" stroke-width="6px" style="font-variation-settings:normal"/>
 </g>
</svg>
