<?xml version="1.0" encoding="UTF-8" standalone="no"?>
<svg
   xmlns:dc="http://purl.org/dc/elements/1.1/"
   xmlns:cc="http://creativecommons.org/ns#"
   xmlns:rdf="http://www.w3.org/1999/02/22-rdf-syntax-ns#"
   xmlns:svg="http://www.w3.org/2000/svg"
   xmlns="http://www.w3.org/2000/svg"
   xmlns:sodipodi="http://sodipodi.sourceforge.net/DTD/sodipodi-0.dtd"
   xmlns:inkscape="http://www.inkscape.org/namespaces/inkscape"
   viewBox="0 0 1443 314"
   version="1.1"
   id="svg258"
   sodipodi:docname="team_solid III.svg"
   width="1443"
   height="314"
   inkscape:version="1.0.1 (unknown)">
  <metadata
     id="metadata262">
    <rdf:RDF>
      <cc:Work
         rdf:about="">
        <dc:format>image/svg+xml</dc:format>
        <dc:type
           rdf:resource="http://purl.org/dc/dcmitype/StillImage" />
        <dc:title></dc:title>
      </cc:Work>
    </rdf:RDF>
  </metadata>
  <sodipodi:namedview
     pagecolor="#ffffff"
     bordercolor="#666666"
     borderopacity="1"
     objecttolerance="10"
     gridtolerance="10"
     guidetolerance="10"
     inkscape:pageopacity="0"
     inkscape:pageshadow="2"
     inkscape:window-width="1366"
     inkscape:window-height="703"
     id="namedview260"
     showgrid="false"
     inkscape:zoom="1.4617081"
     inkscape:cx="607.35668"
     inkscape:cy="145.69983"
     inkscape:window-x="0"
     inkscape:window-y="0"
     inkscape:window-maximized="1"
     inkscape:current-layer="legs"
     inkscape:snap-global="false" />
  <defs
     id="defs4">
    <style
       id="style2">.cls-1{fill:#feba91;}.cls-2{fill:#fe7624;}.cls-3,.cls-7{fill:#fff;}.cls-10,.cls-4,.cls-8,.cls-9{fill:none;}.cls-4,.cls-7{stroke:#2e186a;}.cls-10,.cls-4,.cls-7,.cls-8,.cls-9{stroke-linecap:round;stroke-linejoin:round;}.cls-10,.cls-4,.cls-7{stroke-width:6px;}.cls-5{fill:#5d21d1;}.cls-6{fill:#2e186a;}.cls-10,.cls-8,.cls-9{stroke:#fe7624;}.cls-8{stroke-width:4.5px;}.cls-9{stroke-width:8px;}.cls-11{fill:#968bb4;}</style>
  </defs>
  <g
     id="Layer_2"
     data-name="Layer 2"
     transform="matrix(0.41423857,0,0,0.41423857,390.50268,0.0030158)">
    <g
       id="g1440"
       transform="translate(-136.93366)">
      <rect
         id="shape"
         class="cls-1"
         x="5.644402"
         y="497.44"
         width="1793.0028"
         height="257.25"
         style="font-variation-settings:normal;opacity:1;vector-effect:none;fill:none;fill-opacity:1;stroke:#2e186a;stroke-width:6px;stroke-linecap:round;stroke-linejoin:round;stroke-miterlimit:4;stroke-dasharray:none;stroke-dashoffset:0;stroke-opacity:1;stop-color:#000000;stop-opacity:1" />
      <g
         id="screen"
         transform="translate(112.94111)">
        <path
           id="shape-2"
           data-name="shape"
           class="cls-2"
           d="M 943.73,88.21 H 619.5 A 9.86,9.86 0 0 0 609.66,98 v 199.55 a 9.86,9.86 0 0 0 9.84,9.83 h 126.67 l -19.12,73.27 H 846.43 L 828,307.38 h 115.73 a 9.86,9.86 0 0 0 9.84,-9.83 V 98 a 9.86,9.86 0 0 0 -9.84,-9.79 z"
           style="fill:#ff5361;fill-opacity:1" />
        <rect
           id="screen-2"
           data-name="screen"
           class="cls-3"
           x="626.12"
           y="101.38"
           width="297.98999"
           height="186.83"
           rx="11" />
        <g
           id="lines">
          <ellipse
             class="cls-4"
             cx="785.10999"
             cy="340.91"
             rx="14.43"
             ry="15.06"
             id="ellipse9" />
          <line
             class="cls-4"
             x1="817"
             y1="307.64001"
             x2="832.96002"
             y2="378.57999"
             id="line11" />
          <line
             class="cls-4"
             x1="746.47998"
             y1="307.20999"
             x2="827.27002"
             y2="307.20999"
             id="line13" />
          <path
             id="line"
             class="cls-4"
             d="m 926.72,91.27 a 10.37,10.37 0 0 1 10.19,10.48 V 296.8" />
        </g>
        <g
           id="code_lines"
           data-name="code lines">
          <rect
             class="cls-1"
             x="738"
             y="142.17999"
             width="9.71"
             height="13.88"
             rx="3.3099999"
             id="rect17" />
          <rect
             class="cls-5"
             x="667.53003"
             y="142.17999"
             width="66.739998"
             height="13.88"
             rx="4.54"
             id="rect19" />
          <rect
             class="cls-5"
             x="667.53003"
             y="206.64"
             width="72.779999"
             height="13.88"
             rx="4.54"
             id="rect21" />
          <rect
             class="cls-1"
             x="685.92999"
             y="185.17999"
             width="112.88"
             height="13.88"
             rx="4.54"
             id="rect23" />
          <rect
             class="cls-1"
             x="805.12"
             y="185.17999"
             width="60.970001"
             height="13.88"
             rx="4.54"
             id="rect25" />
          <rect
             class="cls-5"
             x="877.02002"
             y="163.72"
             width="9.71"
             height="13.88"
             rx="3.3099999"
             id="rect27" />
          <rect
             class="cls-5"
             x="667.53003"
             y="163.67999"
             width="116.72"
             height="13.88"
             rx="4.54"
             id="rect29" />
          <rect
             class="cls-5"
             x="751.97998"
             y="142.17999"
             width="66.739998"
             height="13.88"
             rx="4.54"
             id="rect31" />
          <rect
             class="cls-2"
             x="789.46997"
             y="163.64"
             width="82.330002"
             height="13.96"
             rx="4.5700002"
             id="rect33"
             style="fill:#ff5361;fill-opacity:1" />
        </g>
      </g>
      <g
         id="woman_with_glasses"
         data-name="woman with glasses">
        <path
           id="shape-3"
           data-name="shape"
           class="cls-6"
           d="m 618.83,376.9 15.34,-25.63 c 0,0 -14.63,-64.89 -23.81,-97.13 -8.22,-28.89 -27.4,-36 -41.73,-31.89 l -102,17.27 c -0.75,-0.08 -1.5,-0.14 -2.23,-0.16 -17.86,-0.4 -47.44,64.28 -54.35,101.95 9.29,-3 30.19,-6.14 56.76,-2.55 0.78,-1.56 3.63,-6.31 7.38,-13 0.44,0.76 0.87,1.5 1.3,2.22 6.3,10.5 23.44,46.13 34.94,49.74 l 108.47,3.38 -1.32,-4.2 a 10,10 0 0 0 1.25,0 z"
           style="fill:#5b37f0;fill-opacity:1" />
        <g
           id="head">
          <path
             class="cls-7"
             d="m 512.26,189.53 -3,1.94 c 0,0 -17.78,9.67 -23.37,-8.29 -4.23,-13.63 8.84,-17.92 15.4,-19.19"
             id="path38" />
          <path
             class="cls-7"
             d="m 553.61,213.82 -6.81,15.12 10.13,-2.22 c 1.1,2 14.23,30.31 -17.57,37.58 -20.87,4.76 -45,-12.18 -55.93,-27.61 l 17.64,-3.2 14.39,-34.67 z"
             id="path40" />
          <path
             class="cls-7"
             d="m 576,155.62 c 2.42,8.24 9.35,47.35 -15.73,57 -25.08,9.65 -48.61,-9.77 -57.53,-33.85 -8.92,-24.08 -3.33,-47.63 12.41,-54.14 15.74,-6.51 43.23,-28.63 60.85,30.99 z"
             id="path42" />
          <path
             class="cls-6"
             d="m 550.33,187.37 a 17.76,17.76 0 0 0 11.13,-1.58 1.59,1.59 0 0 1 2.28,1.2 c 0.53,3.09 0.38,8.47 -6.38,10.1 -7.06,1.7 -8.56,-4.5 -8.86,-8 a 1.61,1.61 0 0 1 1.83,-1.72 z"
             id="path44"
             style="fill:#5b37f0;fill-opacity:1" />
          <polyline
             class="cls-4"
             points="554.68 176.24 562.45 174.21 551.7 144.42"
             id="polyline46" />
          <path
             class="cls-4"
             d="m 528.81,154 c 0,0 3.89,-7.4 9.9,-4.67"
             id="path48" />
          <path
             class="cls-4"
             d="m 552.83,136.48 c 0,0 4.85,-6.78 10.43,-3.22"
             id="path50" />
          <ellipse
             class="cls-6"
             cx="544.84003"
             cy="163.36"
             rx="2.6600001"
             ry="4.2199998"
             transform="rotate(-11.63,544.75209,163.32021)"
             id="ellipse52"
             style="fill:#5b37f0;fill-opacity:1" />
          <ellipse
             class="cls-6"
             cx="570.40997"
             cy="158.25999"
             rx="2.6600001"
             ry="4.2199998"
             transform="rotate(-11.63,570.32069,158.2353)"
             id="ellipse54"
             style="fill:#5b37f0;fill-opacity:1" />
          <ellipse
             class="cls-8"
             cx="535.04999"
             cy="162.77"
             rx="16.889999"
             ry="22.84"
             transform="rotate(-9.63,535.34447,162.85838)"
             id="ellipse56" />
          <ellipse
             class="cls-8"
             cx="578.84003"
             cy="154.35001"
             rx="16.889999"
             ry="22.84"
             transform="rotate(-9.63,579.1559,154.4139)"
             id="ellipse58" />
          <line
             class="cls-8"
             x1="561.25"
             y1="151.61"
             x2="550.88"
             y2="153.58"
             id="line60" />
          <line
             class="cls-8"
             x1="517.71997"
             y1="157.75"
             x2="494.25"
             y2="165.66"
             id="line62" />
          <path
             id="hair"
             class="cls-6"
             d="m 583.31,110.7 c -19.14,-39.21 -51.95,-16.9 -73.92,5.42 -17.09,-0.29 -38.8,17 -43.43,30.91 -5.57,16.71 -3.63,40.73 8,56.12 22.37,24.6 41.49,19.33 55.2,7.5 -7.95,-4.2 -14.87,-11 -20.09,-19.08 -2,1 -17.93,8.46 -23.17,-8.39 -2.25,-7.25 0.39,-11.86 4.34,-14.77 1.56,0.48 3.62,0.24 6.3,-1 13.14,-6 17.93,-20.93 19.67,-30.33 l 62.4,-16.2 a 7.25,7.25 0 0 0 4.7,-10.18 z"
             style="fill:#5b37f0;fill-opacity:1" />
        </g>
        <g
           id="hand_II"
           data-name="hand II">
          <path
             class="cls-7"
             d="m 550.64,351 c -26.65,-1.31 -87.95,-9.84 -87.95,-9.84 l 1,-2.74 c -22.24,-2.61 -40.19,-0.56 -50.19,2 -3.09,8.76 -4.32,16.28 -2.62,21.28 2.23,6.61 9.8,12.19 16.7,13.19 57.41,8.33 125.72,2.09 125.72,2.09 l 19.36,-14.84 c 0,0 -20.83,-11.14 -22.02,-11.14 z"
             id="path66" />
          <path
             class="cls-7"
             d="m 544.82,351 a 150.29,150.29 0 0 1 26.9,1.51 c 8.26,1.27 22.31,3.4 23.72,5.29 3.32,4.45 -9.33,6.68 -15.31,3"
             id="path68" />
          <path
             class="cls-7"
             d="m 575,366.17 c 11.72,3.12 17.84,3.55 15.33,-1 -1.45,-2.6 -21,-11.55 -24.82,-12.55 -3.82,-1 -24.72,-2.35 -24.72,-2.35"
             id="path70" />
          <path
             class="cls-7"
             d="m 560.4,359.14 a 136.68,136.68 0 0 1 14.08,5.17 c 6.13,2.76 9.81,5.82 9.38,7 -0.43,1.18 -5,3.59 -9,2.17 -5.62,-3.1 -18.24,-6.28 -18.24,-6.28 1.32,-0.3 10.11,3.33 14.93,4.87 4.82,1.54 8.69,6.15 -3,5.49 L 550.91,377"
             id="path72" />
        </g>
        <g
           id="hand">
          <path
             class="cls-7"
             d="m 708.66,274.2 c 0,0 18.68,-0.55 30.91,-7.7 7.29,-4.26 16.74,-10.11 17.2,-12.63 0.86,-4.74 -10.67,0.1 -12.5,0.72"
             id="path75" />
          <path
             class="cls-7"
             d="m 721.89,261 c 0,0 10,-5.22 14.42,-10.49 4.42,-5.27 7.43,-9.4 6.61,-10.45 -0.82,-1.05 -6.51,-0.89 -9.53,2.13 -3.81,5.44 -15.49,11.24 -15.49,11.24 1.29,-0.19 8.86,-5.39 12.57,-8.85 3.71,-3.46 5.37,-9.85 -4.81,-4.7 0,0 -10.84,5.83 -14.86,7.39 0,0 -17,2.14 -22.52,7.86 v 0 c -3.7,3.86 -32.57,33.29 -54.22,51.83 -12.52,8.1 -46.8,67.82 -14.22,68.08 6.74,0.25 15.42,-4.18 18.87,-9.11 l 64.93,-90.57 c 10.39,-1.67 17.8,-4.33 22.78,-7 6.45,-3.51 26.1,-19.79 26.47,-21.93 1,-5.71 -8.73,-5.54 -15.91,3.57"
             id="path77" />
        </g>
        <g
           id="ponytail">
          <ellipse
             class="cls-6"
             cx="480.54999"
             cy="217.44"
             rx="28.77"
             ry="25.040001"
             transform="rotate(-60.71,480.50497,217.44699)"
             id="ellipse80"
             style="fill:#5b37f0;fill-opacity:1" />
          <ellipse
             class="cls-6"
             cx="510.66"
             cy="243.42"
             rx="20.799999"
             ry="18.1"
             transform="matrix(0.17,-0.99,0.99,0.17,183.61,705.01)"
             id="ellipse82"
             style="fill:#5b37f0;fill-opacity:1" />
          <ellipse
             class="cls-6"
             cx="528.90997"
             cy="271.29999"
             rx="18.57"
             ry="16.16"
             transform="rotate(-55.34,528.89468,271.30482)"
             id="ellipse84"
             style="fill:#5b37f0;fill-opacity:1" />
          <ellipse
             class="cls-6"
             cx="544.62"
             cy="295.76999"
             rx="15.35"
             ry="13.36"
             transform="rotate(-39.99,544.65393,295.77929)"
             id="ellipse86"
             style="fill:#5b37f0;fill-opacity:1" />
          <path
             class="cls-6"
             d="m 547.57,329.52 c 6.66,3.52 7.74,8.25 7.22,12 a 1.93,1.93 0 0 0 3.17,1.73 c 7.62,-6.87 19.29,-20.22 9.69,-30.94 -4.53,-5.06 -12.69,-5.67 -18.84,-0.85 -6.15,4.82 -7.24,14.88 -1.24,18.06 z"
             id="path88"
             style="fill:#5b37f0;fill-opacity:1" />
          <line
             class="cls-9"
             x1="493.48001"
             y1="241.10001"
             x2="504.31"
             y2="224.75999"
             id="line90" />
          <line
             class="cls-9"
             x1="515.28998"
             y1="263.82999"
             x2="528.79999"
             y2="254.17"
             id="line92" />
          <line
             class="cls-9"
             x1="536.03998"
             y1="285.39999"
             x2="540.65997"
             y2="283.10001"
             id="line94" />
          <line
             class="cls-9"
             x1="549.85999"
             y1="310.20001"
             x2="554.47998"
             y2="307.89999"
             id="line96" />
        </g>
        <g
           id="legs">
          <path
             class="cls-2"
             d="m 527.16,644.3 -20.8,67.61 c 0,0 36.59,9 32.75,40.07 L 449,751.52 474.78,636.11 Z"
             id="path99"
             style="fill:#ff5361;fill-opacity:1" />
          <path
             class="cls-2"
             d="m 649.55,641.75 -21.5,69.82 c 0,0 37.86,9.52 33.88,41.76 l -93.43,-0.48 26.71,-119.59 z"
             id="path101"
             style="fill:#ff5361;fill-opacity:1" />
          <path
             class="cls-5"
             d="m 621,383.5 h -62.75 l -2.3,-3.64 -24.45,3.64 h -11 l -0.33,1.69 -107.88,16.08 c -0.78,2.74 -27.73,50.07 -2.13,83.85 10.24,13.52 46.74,17 86.84,16.31 L 459.63,689 h 95.74 l 26.69,-115.87 -15.92,116.55 h 95.74 L 670,422.29 c 0,0 0,-42.29 -49,-38.79 z"
             id="path103"
             style="fill:#5b37f0;fill-opacity:1" />
        </g>
      </g>
      <g
         id="ponytail_woman"
         data-name="ponytail woman">
        <g
           id="shoes">
          <path
             id="boot"
             class="cls-6"
             d="M 236.97302,672.75492 227.32,706.6 l 0.44,48.47 h 22.92 L 252,744.57908 c 0,0 9.29,9.44092 41.31,11.57092 32.02,2.13 59.69,-6.67 59.47,-7.92 -0.1,-0.63 1,-2.64972 2,-11.78972 0.94,-8 -6.68,-15.76 -14.88,-15.29 -12.31,0.72 -28.46,-7.67028 -38.26,-15.83028 -17.5,-14.59 -2.47698,-35.24508 -2.47698,-35.24508 z"
             sodipodi:nodetypes="cccccscccccc"
             style="fill:#5b37f0;fill-opacity:1" />
          <path
             id="boot-2"
             data-name="boot"
             class="cls-6"
             d="M 364.64,691.37628 366,755.07 h 22.91 l 1.36,-11.62378 c 0,0 9.3,10.57378 41.32,12.70378 32.02,2.13 59.68,-6.67 59.47,-7.92 -0.11,-0.63 1,-3.16887 2,-12.30887 0.94,-8 -6.69,-15.76 -14.89,-15.29 -12.31,0.72 -32.96252,-4.17757 -42.76252,-12.33757 -17.5,-14.59 -24.35758,-26.50456 -24.35758,-26.50456 z"
             sodipodi:nodetypes="ccccscccccc"
             style="fill:#5b37f0;fill-opacity:1" />
        </g>
        <path
           id="shape-4"
           data-name="shape"
           class="cls-2"
           d="m 341.92,383.72 7.23,-0.74 c 21,8.52 45,2.74 66.6,-10.31 -2.73,-2.27 -7.66,-8.22 -7.66,-11.45 0,-20.84 4.46,-39.72 20.49,-64 l -32.07,20.54 c 0,0 -13.46,-21 -25.63,-43.26 -1.24,-15.1 -4.33,-28.44 -10.39,-37.2 -18.62,-22.11 -60.56,-19.43 -60.56,-19.43 l -69.32,-5.2 -0.44,-0.24 c -12.87,0 -30.4,13.71 -32.32,28.57 -3.58,27.65 5.13,64.44 8.84,96.33 -0.65,3.28 -1.17,5.88 -1.54,7.6 0,0 -72.9,101.39 -21.9,152.43 0.27,0.4 59.07023,-0.53 59.07023,-0.53 -0.66853,79.08144 -35.09218,131.33762 -61.53262,228.8633 C 285.10345,742.06443 364.51449,721.55143 429.72,680 c 0,0 21.63,-179.29 17.14,-199.17 -9.1,-40.32 -104.94,-97.11 -104.94,-97.11 z"
           sodipodi:nodetypes="cccscccccccccccccccc"
           style="fill:#ff5361;fill-opacity:1" />
        <g
           id="g1502">
          <path
             style="font-variation-settings:normal;vector-effect:none;fill:#ff5361;fill-opacity:1;stroke:#2e186a;stroke-width:6px;stroke-linecap:round;stroke-linejoin:round;stroke-miterlimit:4;stroke-dasharray:none;stroke-dashoffset:0;stroke-opacity:1;stop-color:#000000"
             d="m 352.76839,377.54393 h -193.1506 c 0,0 14.00092,-120.011 26.73261,-141.92792 14.46602,-24.90247 40.68867,-22.49238 40.68867,-22.49238 7.33204,-86.17126 53.63464,-139.883257 99.49427,-113.02215 44.48501,26.05596 35.16377,86.31976 28.58507,131.76141 8.14637,6.91064 14.023,19.78908 14.67489,31.4649"
             id="path1460"
             sodipodi:nodetypes="csscscc" />
          <ellipse
             id="face"
             class="cls-7"
             cx="280.74884"
             cy="216.77417"
             rx="39.709999"
             ry="51.040001"
             transform="rotate(-10.41)" />
          <path
             id="nose"
             class="cls-4"
             d="m 318.89293,174.60161 7.56,-0.25 a 1.22,1.22 0 0 0 1.14,-1.53 l -5.45,-20.62" />
          <path
             style="font-variation-settings:normal;vector-effect:none;fill:none;fill-opacity:1;stroke:#2e186a;stroke-width:6px;stroke-linecap:round;stroke-linejoin:round;stroke-miterlimit:4;stroke-dasharray:none;stroke-dashoffset:0;stroke-opacity:1;stop-color:#000000"
             d="m 345.17684,131.15215 c 0,0 -32.05688,-5.13974 -48.64186,1.36837 -16.58498,6.50812 -19.5532,11.21398 -19.5532,11.21398"
             id="path1453"
             sodipodi:nodetypes="csc" />
          <g
             id="hand-2"
             data-name="hand">
            <path
               class="cls-7"
               d="m 352.65,301 15.71,-6 c 0,0 12.3,-13.57 17.73,-17.64 5.43,-4.07 16.11,-3.57 8.92,2.72 -7.19,6.29 -8.22,10.08 -8.22,10.08 0,0 18.92,-5.51 29.32,-12 10.63,-6.63 8.32,4.75 8.32,4.75 0,0 8,1.1 4.93,5.22 0,0 6.15,3.52 0,7.05 0,0 8.72,0.92 3.73,6.13 -3.63,7.42 -28.81,21.48 -44.26,20.34 l -8.64,3.8 -10.89,5.37"
               id="path142" />
            <path
               class="cls-7"
               d="m 398.81,294 c 0,0 19.19,-4.72 25.62,-11"
               id="path144" />
            <path
               class="cls-7"
               d="m 401.32,300.6 c 2.08,-0.92 17.4,-3.74 27.11,-13.11"
               id="path146" />
            <path
               class="cls-7"
               d="m 403.79,307.43 c 4.35,-1.85 13.9,-1.31 25.64,-11.69"
               id="path148" />
          </g>
          <path
             style="font-variation-settings:normal;vector-effect:none;fill:#ff5361;fill-opacity:1;stroke:#2e186a;stroke-width:6px;stroke-linecap:round;stroke-linejoin:round;stroke-miterlimit:4;stroke-dasharray:none;stroke-dashoffset:0;stroke-opacity:1;stop-color:#000000"
             d="m 375.32877,377.43415 c 5.61845,-17.02595 0.74504,-32.29235 -5.12019,-47.39242 l -18.2175,-31.27234 -82.10865,22.12758"
             id="path1470"
             sodipodi:nodetypes="cccc" />
          <path
             class="cls-4"
             d="m 269.73,322.6 c 0,0 -13.58,-6.21 -20.56,6.59"
             id="path138" />
          <path
             class="cls-4"
             d="m 268.56,317.17 c 0,0 -11.83,-13.58 -26.18,4.27"
             id="path140" />
          <path
             class="cls-6"
             d="m 317.30377,185.50524 a 17.76,17.76 0 0 0 11.13,-1.58 1.59,1.59 0 0 1 2.28,1.2 c 0.53,3.09 0.38,8.47 -6.38,10.1 -7.06,1.7 -8.56,-4.5 -8.86,-8 a 1.61,1.61 0 0 1 1.83,-1.72 z"
             id="path44-7"
             style="fill:#5b37f0;fill-opacity:1;stroke-width:1" />
        </g>
        <path
           style="font-variation-settings:normal;opacity:1;vector-effect:none;fill:none;fill-opacity:1;stroke:#2e186a;stroke-width:6px;stroke-linecap:round;stroke-linejoin:round;stroke-miterlimit:4;stroke-dasharray:none;stroke-dashoffset:0;stroke-opacity:1;stop-color:#000000;stop-opacity:1"
           d="m 241.34665,496.67003 c 0,0 0.83954,36.20187 -8.3954,68.5806 -9.23497,32.37873 -51.89249,160.96055 -51.89249,160.96055 l 48.06375,5.14474"
           id="path1519" />
        <path
           style="font-variation-settings:normal;opacity:1;vector-effect:none;fill:#ff5361;fill-opacity:1;stroke:#2e186a;stroke-width:6px;stroke-linecap:round;stroke-linejoin:round;stroke-miterlimit:4;stroke-dasharray:none;stroke-dashoffset:0;stroke-opacity:1;stop-color:#000000;stop-opacity:1"
           d="m 226.48734,213.10852 c 13.65925,-0.59554 20.75128,8.50095 25.44863,17.74695"
           id="path1540"
           sodipodi:nodetypes="cc" />
      </g>
      <g
         id="thinking_man"
         data-name="thinking man"
         transform="translate(254.37722)">
        <g
           id="legs-2"
           data-name="legs">
          <g
             id="boots">
            <path
               id="boot-3"
               data-name="boot"
               class="cls-6"
               d="m 1016.64,658.5 v 94.64 H 894.26 c 0,0 -0.38,-34.72 56,-41.12 V 661.4 Z"
               style="fill:#5b37f0;fill-opacity:1" />
            <path
               id="boot-4"
               data-name="boot"
               class="cls-6"
               d="m 915.49,658.5 v 94.64 H 793.12 c 0,0 -0.39,-34.72 56,-41.12 V 661.4 Z"
               style="fill:#5b37f0;fill-opacity:1" />
          </g>
          <g
             id="trousers">
            <path
               class="cls-7"
               d="m 952.26,413.26 -93.32,61.11 a 72,72 0 0 0 -18,45.59 l -6.05,168.79 h 77 c 0,0 106.47,1.94 106.47,-5.82 0,-6.22 6.3,-119 8.8,-163.62 a 19.92,19.92 0 0 1 18.93,-18.78 c 18.16,-0.89 45.22,-2.16 57.1,-2.53 93.23,-3.25 68.3,-41.72 57.28,-69.1 -4.26,-10.57 -8.38,-20.64 -11.63,-28.26"
               id="path157" />
            <path
               class="cls-4"
               d="M 1047.86,406.38 940.79,450.7 c -13.41,8.17 -13.55,32.42 -14.17,49.58 l -6,188.47"
               id="path159" />
          </g>
        </g>
        <path
           id="shape-5"
           data-name="shape"
           class="cls-5"
           d="m 1175.19,336.76 c -27.73,-165.24 -72.85,-141.9 -95.87,-141.12 l -52.43,2.1 a 8.94,8.94 0 0 0 -0.23,-2.06 c -0.43,-1.91 -2.47,-3.45 -5.1,-4.67 v -0.08 c 6.68,-1.67 19.52,-5.39 19.37,-8.29 -0.22,-4.09 -25.82,-2.13 -33.68,-1.64 -4,0.24 -11.77,2.62 -18.36,4.87 a 32.81,32.81 0 0 0 -19.3,17.61 c -1.43,3.18 -5.71,14.14 -7,17.25 L 946,213.23 c 0,0 -31.65,72.37 -39,91.2 a 68.85,68.85 0 0 0 -2.06,7.16 c -15.52,46.41 17.16,70.49 17.16,70.49 l 159.32,1.62 -18.48,15.7 c -2.71,3.1 86.89,-3.88 90,-3.49 1.59,0.19 -6.47,-12.09 -14.71,-24.14 19.27,-7.93 38.19,-19.69 36.96,-35.01 z"
           style="fill:#5b37f0;fill-opacity:1" />
        <g
           id="lines-3"
           data-name="lines">
          <path
             class="cls-4"
             d="m 1138,305.42 c 0,0 -14.71,-6.85 -34.84,6.94 0,0 -22.72,-38.66 -20.32,-59.13"
             id="path164" />
          <path
             class="cls-4"
             d="m 1024.24,349.1 c 2.18,-1.2 79.49,-36.48 79.49,-36.48"
             id="path166" />
          <polyline
             class="cls-4"
             points="962.14 320.7 992.78 233.63 983.32 229.42"
             id="polyline168" />
        </g>
        <g
           id="head-3"
           data-name="head">
          <polygon
             id="neck-2"
             data-name="neck"
             class="cls-7"
             points="1018.29,182.3 1023.18,204.87 1021.91,252.84 1076.64,203.42 1058.37,156.76 " />
          <path
             id="hair_back"
             data-name="hair back"
             class="cls-6"
             d="m 1002.36,105.59 c 0,0 33.95,21.62 17.32,41.69 0,0 -7.41,8.38 -13.49,6.69 0,0 4.5,-7.12 -0.64,-10.85 0,0 -1.69,21.43 -19.24,17 0,0 6.5,-9.46 4.84,-20.85 -3.47,-23.79 2.09,-38.01 11.21,-33.68 z"
             style="fill:#5b37f0;fill-opacity:1" />
          <path
             id="face-2"
             data-name="face"
             class="cls-7"
             d="m 1072.77,139.89 c 0,0 6.84,-41.81 -35.46,-49.33 -3.94,-0.7 -31,-5 -36.06,17.46 -3.41,15 -4.15,31.24 -3.83,43.87 0,0.08 0.23,23.88 9.54,37.17 9.31,13.29 30.16,12.21 41.23,5.77 11.07,-6.44 13.11,-9.81 16.25,-17.51 3.14,-7.7 8.31,-37.34 8.31,-37.34 z" />
          <polyline
             id="nose-2"
             data-name="nose"
             class="cls-4"
             points="1014.89 142.74 1010.57 163.25 1018.05 162.07" />
          <path
             id="brow_II-2"
             data-name="brow II"
             class="cls-4"
             d="m 1037.69,128.67 a 9.78,9.78 0 0 0 -9.11,-4" />
          <path
             id="brow-2"
             data-name="brow"
             class="cls-4"
             d="m 1010,123 c 0,0 -7.31,-3.36 -10.57,1" />
          <path
             id="hair_front"
             data-name="hair front"
             class="cls-6"
             d="m 1039.78,108.45 c 0,0 -16.41,56 20.86,62 0,0 21.71,4 26.72,-3.65 0,0 -15.68,-8.47 -13.63,-17.44 0,0 17.56,19.53 33.07,5.71 0,0 -25.69,-4.47 -23.24,-27.6 1.76,-16.57 -37.95,-32.47 -43.78,-19.02 z"
             style="fill:#5b37f0;fill-opacity:1" />
          <path
             id="cap"
             class="cls-2"
             d="m 1042.89,72.08 c -49.05272,-5.552557 -50.78,41.64 -50.78,41.64 l 91.8978,14.37422 C 1090.3665,94.550235 1066.0545,74.702123 1042.89,72.08 Z"
             style="fill:#ff5361;fill-opacity:1"
             sodipodi:nodetypes="sccs" />
          <path
             id="mouth-2"
             data-name="mouth"
             class="cls-4"
             d="m 1033.07,167.1 c 0,0 -3.15,7.23 -13.37,5.55" />
        </g>
        <g
           id="hand_II-2"
           data-name="hand II">
          <path
             class="cls-7"
             d="m 956.67,218.74 c 0.52,-1.27 1,-2.49 1.37,-3.65 2.11,-5.51 3.93,-9.89 5.5,-13.37 a 32.76,32.76 0 0 1 19.3,-17.6 c 6.59,-2.26 14.33,-4.63 18.36,-4.88 7.86,-0.48 33.46,-2.44 33.68,1.64 0.15,2.91 -12.69,6.62 -19.38,8.3 l -5.34,20.44 c 0,0 -6.25,0.75 -9.33,2.43 -6.3,3.44 -12.52,9.13 -17.06,8.63 0,0 -0.32,3.25 -1.3,8.88"
             id="path183" />
          <path
             class="cls-7"
             d="m 1000.65,185.36 c 0,0 18.54,2.35 19.93,8.56 1.39,6.21 -3.86,6.56 -3.86,6.56"
             id="path185" />
          <path
             class="cls-7"
             d="m 1000,192.8 c 0,0 16.33,3.49 17.25,9.79 0.92,6.3 -4.34,6.26 -4.34,6.26"
             id="path187" />
          <path
             class="cls-7"
             d="m 998.86,202 c 0,0 19.57,4.52 12.07,11.43 -7.5,6.91 -11.27,6.15 -11.27,6.15 0,0 -5.36,-3.41 3.29,-8.71"
             id="path189" />
        </g>
        <g
           id="hand-3"
           data-name="hand">
          <path
             class="cls-7"
             d="m 1025.48,349.37 -10.09,1.92 c -1.22,0.23 -21.76,13.29 -21.76,13.29 l 21.2,13.69 c 0,0 1.55,1.54 33.64,-0.52 -2.29,-8.04 -14.24,-20.26 -22.99,-28.38 z"
             id="path192" />
          <path
             class="cls-7"
             d="m 1021.4,350.87 a 155.69,155.69 0 0 0 -27.62,3.8 c -8.42,2 -22.73,5.38 -24,7.45 -3,4.86 10.18,6.11 16,1.83"
             id="path194" />
          <path
             class="cls-7"
             d="m 991.58,369 c -11.83,4.2 -18.1,5.16 -15.89,0.28 1.27,-2.81 20.68,-13.67 24.55,-15 3.87,-1.33 25.29,-4.49 25.29,-4.49"
             id="path196" />
          <path
             class="cls-7"
             d="m 1006,360.56 a 143,143 0 0 0 -14.08,6.5 c -6.09,3.36 -9.63,6.83 -9.09,8 0.54,1.17 5.42,3.29 9.42,1.49 5.54,-3.67 18.28,-8 18.28,-8 -1.38,-0.19 -10.14,4.29 -15,6.27 -4.86,1.98 -8.45,7.07 3.57,5.41 l 18.18,-2.06"
             id="path198" />
        </g>
      </g>
      <g
         id="hoodie_man"
         data-name="hoodie man"
         transform="translate(254.37722)">
        <g
           id="legs-3"
           data-name="legs">
          <path
             id="shoe_II"
             data-name="shoe II"
             class="cls-2"
             d="m 1229.8,621.89 1.34,81.61 c 0,0 -47,11 -59.41,50.11 l 104,-0.08 16.56,-151.45 z"
             style="fill:#ff5361;fill-opacity:1" />
          <path
             id="shoe"
             class="cls-2"
             d="m 1119.49,626 -11.91,79.58 c 0,0 -44.18,10.64 -55.88,47.35 l 97.71,-0.07 30.95,-136.25 z"
             style="fill:#ff5361;fill-opacity:1" />
          <path
             id="trousers-2"
             data-name="trousers"
             class="cls-6"
             d="m 1454.89,455.62 -5,-63.66 -193.61,-0.32 -3.69,21.78 -29.93,-0.8 c -75.81,-3.44 -87.92,53.74 -87.92,53.74 l -62.25,243.38 92.65,0.45 47.15,-171.86 -21.44,170.25 94.23,1.4 18.42,-175.11 c 22.21,-5.06 94.34,-22 112.8,-31.93 18.7,-6.94 39.47,-30.6 38.59,-47.32 z"
             style="fill:#5b37f0;fill-opacity:1" />
        </g>
        <path
           id="hoodie"
           class="cls-2"
           d="m 1452.06,290.06 a 222.19,222.19 0 0 0 -67.27,-66.59 c 11.69,-19.07 9.62,-38.45 -39.55,-42.35 -79.59,-2.79 -87.71,18.55 -87.84,35.18 -26.24,20.87 -42.23,43.15 -51.71,64.22 -11.42,-10.55 -32.53,-29.88 -37.92,-33.47 -7.5,-5 -12.26,3.81 -18.31,0.73 -6.05,-3.08 -8.12,-4 -8.12,-4 0,0 -5.26,18.61 -20.17,23.67 0,0 0.3,2.78 3.64,8.62 3.34,5.84 -3.87,10 1.47,17.19 5.34,7.19 51.72,66.46 51.72,66.46 5.59,5.53 18.57,25 32.71,19.08 v -1.27 l 0.57,0.73 100.1,0.48 -2.68,16.58 c 126.83,12.16 117.88,69.86 153,47.13 l -3.7,-76.76 c 12,-14.44 17,-40.12 -5.94,-75.63 z"
           style="fill:#ff5361;fill-opacity:1" />
        <path
           id="shirt"
           class="cls-3"
           d="m 1354.45,202.49 12.67,8.53 c 0,0 -47.34,28.91 -53.52,103.3 -4.11,49.42 -5,106.8 -5,106.8 l -22,3.1 c 0,0 7.3,-135 -1.33,-160.1 -8.63,-25.1 -0.74,-53.35 5.1,-57.92 5.84,-4.57 64.08,-3.71 64.08,-3.71 z" />
        <g
           id="hand_II-3"
           data-name="hand II">
          <path
             class="cls-7"
             d="m 1122.19,226.86 c -0.76,-0.51 -23.55,-15 -29.47,-16.53 -5.92,-1.53 -6.71,5.55 11.58,15.7 a 19.59,19.59 0 0 0 -3.56,22 c 1.7,3.87 17.21,19.27 22.54,19.89 5.33,0.62 25.25,-4.6 21.06,-17 -4.19,-12.4 -11.34,-16.83 -22.15,-24.06 z"
             id="path208" />
          <path
             class="cls-7"
             d="m 1133.5,235.18 c 0,0 -19.69,-7.78 -21.69,-6.65 -2.78,1.59 0.3,9.61 9,13.49 0,0 -6.06,7.87 -2.72,14"
             id="path210" />
          <path
             id="welt"
             class="cls-6"
             d="m 1123.22,276 c -3.94,-5.91 -4.54,-8.59 -4.54,-8.59 14.27,-3.21 21.38,-24.34 21.38,-24.34 0,0 2.79,0.69 9.14,4.27 2.56,1.44 4.9,0.29 6.73,0 2.55,19.76 -22.84,35.25 -31.56,39.51 -1.06,-4.07 1.85,-6.36 -1.15,-10.85 z"
             style="fill:#5b37f0;fill-opacity:1" />
        </g>
        <g
           id="hand-4"
           data-name="hand">
          <path
             class="cls-7"
             d="m 1291.11,327.75 a 156,156 0 0 0 -27.72,-2.95 c -8.66,-0.08 -23.36,-0.25 -25.11,1.44 -4.13,4 8.41,8.39 15.13,5.64"
             id="path214" />
          <path
             class="cls-7"
             d="m 1309.94,328.13 c -6,-0.37 -14.32,-0.86 -24.76,-1.42 -1.24,-0.07 -24.32,7.67 -24.32,7.67 l 17.29,18.39 c 0,0 1,1.69 28.31,6.76"
             id="path216" />
          <path
             class="cls-7"
             d="m 1257.8,338.2 c -12.49,1.23 -18.81,0.65 -15.49,-3.56 1.91,-2.42 23.36,-8.29 27.44,-8.68 4.08,-0.39 25.63,1.73 25.63,1.73"
             id="path218" />
          <path
             class="cls-7"
             d="m 1273.83,333.45 a 144.52,144.52 0 0 0 -15.23,2.92 c -6.72,1.8 -11,4.32 -10.74,5.55 0.26,1.23 4.47,4.49 8.79,3.71 6.26,-2.23 19.67,-3.37 19.67,-3.37 -1.3,-0.52 -10.88,1.72 -16.06,2.48 -5.18,0.76 -9.9,4.83 2.16,6.11 l 18.14,2.37"
             id="path220" />
          <path
             id="welt-2"
             data-name="welt"
             class="cls-6"
             d="m 1308.15,363.7 c -5.93,-2.24 -7.83,-4 -7.83,-4 7.69,-12 0,-31.9 0,-31.9 0,0 2,-0.53 8.24,-1.79 a 7.12,7.12 0 0 0 4.73,-3.26 c 12.76,14.46 5.1,39.87 1.7,49.08 -2.99,-2.66 -2.34,-6.44 -6.84,-8.13 z"
             style="fill:#5b37f0;fill-opacity:1" />
        </g>
        <g
           id="hoodie_lines"
           data-name="hoodie lines">
          <path
             class="cls-4"
             d="m 1391.2,306.3 c 0,0 -12.68,1.24 -15.9,17.89"
             id="path224" />
          <path
             class="cls-4"
             d="m 1337.39,258.41 c 0,0 -13,26.94 -14.73,45.25"
             id="path226" />
          <path
             class="cls-4"
             d="m 1277.37,259.59 c 0,0 6,25.78 4,44.07"
             id="path228" />
          <path
             class="cls-4"
             d="m 1394.42,379 c 0,0 -67.52,-4.59 -75.09,-6.53 -7.57,-1.94 -4.77,-7.48 -10.25,-9.59 -5.48,-2.11 -7.24,-3.8 -7.24,-3.8 7.11,-11.34 0,-30.13 0,-30.13 0,0 1.87,-0.51 7.62,-1.69 5.75,-1.18 3.89,-7.11 11.68,-7.79 7.79,-0.68 74.63,6.94 74.63,6.94"
             id="path230" />
          <path
             class="cls-4"
             d="m 1208.59,280.13 c 0,0 16.87,8.53 26.76,23.08"
             id="path232" />
        </g>
        <path
           id="shape_II"
           data-name="shape II"
           class="cls-6"
           d="m 1385.13,222.91 c -11.48,19.19 -37.23,38.22 -43.26,41 a 0.59,0.59 0 0 0 0,0.08 c 17.21,0.84 57.4,-21.37 64.19,-25.27 -8.34,-6.24 -15.26,-12.06 -20.93,-15.81 z"
           style="fill:#5b37f0;fill-opacity:1" />
        <path
           id="shape-6"
           data-name="shape"
           class="cls-6"
           d="m 1257.76,225.22 c -0.12,-2.82 -0.42,-6.07 -0.36,-9.51 h -0.05 q -7.38,5.82 -13.89,11.79 c 5.2,10.08 15.74,25.36 27.24,32.46 -3.44,-7.18 -12.16,-16.73 -12.94,-34.74 z"
           style="fill:#5b37f0;fill-opacity:1" />
        <g
           id="head-4"
           data-name="head">
          <path
             id="ear-3"
             data-name="ear"
             class="cls-7"
             d="m 1351,149.33 c 0,0 15,0.29 12.32,13.72 -2.68,13.43 -19.26,5.66 -19.26,5.66 l 2.22,-19.09 z" />
          <path
             id="face-3"
             data-name="face"
             class="cls-7"
             d="m 1308.26,107 c -4,-0.33 -31,-2 -34,20.56 -3,22.56 0.23,47.54 2.74,58.93 2.51,11.39 54.35,6.12 57.28,5.1 2.93,-1.02 6.43,-4.45 6.43,-4.45 l 7.11,-34.7 c 0,0 2.9,-41.89 -39.56,-45.44 z" />
          <path
             id="neck-3"
             data-name="neck"
             class="cls-7"
             d="m 1345.42,167.64 0.94,28.15 8,9.14 v 0 a 229.62,229.62 0 0 0 -46,40.17 c 0,0 -18.42,-19.45 -21.65,-49.92 l 43.16,5.35 3.38,-16.86 z" />
          <path
             id="beard"
             class="cls-11"
             d="m 1342.67,152.17 c -2.57,2.49 -9.46,16.84 -11.14,23.53 0,0 -17,-5.62 -41.46,-6 0,0 -13.31,0.26 -18.62,1.8 0,0 1.15,23.7 11.94,36 10.79,12.3 33.62,8.84 44.32,1.46 10.7,-7.38 12.48,-10.9 15,-18.79 2.52,-7.89 9,-37.32 9,-37.32 z" />
          <path
             id="hair-3"
             data-name="hair"
             class="cls-6"
             d="m 1349.67,157.24 c 0,0 7,-10.91 9.77,-22.25 a 23.39,23.39 0 0 0 -12.26,-26.6 c -8.26,-4 -14.38,-0.86 -14.38,-0.86 0,0 8.76,-14.91 -4.39,-28.09 a 23.87,23.87 0 0 0 -17.59,-7 23.06,23.06 0 0 0 -21,14 c 0,0 -17.19,-31.57 -52.42,-12.89 -3.55,1.89 -7.56,7.14 -9.47,10.68 -11.64,21.44 26.71,46.84 46.68,48.85 21.92,2.21 34.75,-1.42 41.81,-6.79 -5.26,3.19 0.65,35.99 33.25,30.95 z"
             style="fill:#5b37f0;fill-opacity:1" />
          <polyline
             id="nose-3"
             data-name="nose"
             class="cls-4"
             points="1290.93 160.61 1288.56 181.26 1295.84 179.4" />
          <path
             id="brow-3"
             data-name="brow"
             class="cls-4"
             d="m 1312.85,145.47 a 9.71,9.71 0 0 0 -9.18,-3.61" />
          <path
             id="brow_II-3"
             data-name="brow II"
             class="cls-4"
             d="m 1284.24,141.52 c 0,0 -5.86,-1.52 -7.33,3.27" />
          <path
             id="mouth-3"
             data-name="mouth"
             class="cls-4"
             d="m 1307,186.14 c 0,0 -1,6.26 -6.75,5.25" />
        </g>
      </g>
      <g
         id="table">
        <rect
           class="cls-4"
           x="123.86"
           y="380.78"
           width="1348.21"
           height="373.70999"
           id="rect250" />
        <rect
           class="cls-6"
           x="121.3"
           y="380"
           width="1352.39"
           height="48.099998"
           id="rect252"
           style="fill:#5b37f0;fill-opacity:1;stroke:#2e186a;stroke-width:4.82814;stroke-miterlimit:4;stroke-dasharray:none;stroke-opacity:1" />
        <rect
           class="cls-6"
           x="121.22239"
           y="-496.75647"
           width="1352.5453"
           height="68.734047"
           id="rect1442"
           transform="scale(1,-1)"
           style="fill:#ff5361;fill-opacity:1;stroke:#2e186a;stroke-width:4.67291;stroke-miterlimit:4;stroke-dasharray:none;stroke-opacity:1;paint-order:normal" />
      </g>
    </g>
    <path
       style="font-variation-settings:normal;opacity:1;vector-effect:none;fill:none;fill-opacity:1;stroke:#2e186a;stroke-width:6px;stroke-linecap:round;stroke-linejoin:round;stroke-miterlimit:4;stroke-dasharray:none;stroke-dashoffset:0;stroke-opacity:1;stop-color:#000000;stop-opacity:1"
       d="M -205.25192,754.69 H 1803.3519"
       id="path1256" />
  </g>
</svg>
