<?xml version="1.0" encoding="UTF-8" standalone="no"?>
<svg
   xmlns:dc="http://purl.org/dc/elements/1.1/"
   xmlns:cc="http://creativecommons.org/ns#"
   xmlns:rdf="http://www.w3.org/1999/02/22-rdf-syntax-ns#"
   xmlns:svg="http://www.w3.org/2000/svg"
   xmlns="http://www.w3.org/2000/svg"
   xmlns:xlink="http://www.w3.org/1999/xlink"
   xmlns:sodipodi="http://sodipodi.sourceforge.net/DTD/sodipodi-0.dtd"
   xmlns:inkscape="http://www.inkscape.org/namespaces/inkscape"
   width="870"
   height="530"
   version="1.1"
   viewBox="0 0 870 530"
   id="svg241"
   sodipodi:docname="faq-min.svg"
   inkscape:version="1.0.2 (unknown)">
  <sodipodi:namedview
     pagecolor="#ffffff"
     bordercolor="#666666"
     borderopacity="1"
     objecttolerance="10"
     gridtolerance="10"
     guidetolerance="10"
     inkscape:pageopacity="0"
     inkscape:pageshadow="2"
     inkscape:window-width="1366"
     inkscape:window-height="699"
     id="namedview243"
     showgrid="false"
     inkscape:zoom="0.98679245"
     inkscape:cx="435"
     inkscape:cy="265"
     inkscape:window-x="0"
     inkscape:window-y="0"
     inkscape:window-maximized="1"
     inkscape:current-layer="g239" />
  <title
     id="title2">FAQ Ilustration</title>
  <metadata
     id="metadata4">
    <rdf:RDF>
      <cc:Work
         rdf:about="">
        <dc:format>image/svg+xml</dc:format>
        <dc:type
           rdf:resource="http://purl.org/dc/dcmitype/StillImage" />
        <dc:title>FAQ Ilustration</dc:title>
        <cc:license
           rdf:resource="http://creativecommons.org/licenses/by-nc/4.0/" />
        <dc:creator>
          <cc:Agent>
            <dc:title>Hervy Qurrotul Ainur Rozi</dc:title>
          </cc:Agent>
        </dc:creator>
        <dc:rights>
          <cc:Agent>
            <dc:title>LangitKetujuh ID</dc:title>
          </cc:Agent>
        </dc:rights>
        <dc:date>10 December 2020</dc:date>
      </cc:Work>
      <cc:License
         rdf:about="http://creativecommons.org/licenses/by-nc/4.0/">
        <cc:permits
           rdf:resource="http://creativecommons.org/ns#Reproduction" />
        <cc:permits
           rdf:resource="http://creativecommons.org/ns#Distribution" />
        <cc:requires
           rdf:resource="http://creativecommons.org/ns#Notice" />
        <cc:requires
           rdf:resource="http://creativecommons.org/ns#Attribution" />
        <cc:prohibits
           rdf:resource="http://creativecommons.org/ns#CommercialUse" />
        <cc:permits
           rdf:resource="http://creativecommons.org/ns#DerivativeWorks" />
      </cc:License>
    </rdf:RDF>
  </metadata>
  <defs
     id="defs33">
    <style
       id="style6">.cls-1{fill:#2e186a;}.cls-2,.cls-6{fill:#fff;}.cls-11,.cls-2,.cls-3{stroke:#2e186a;}.cls-11,.cls-2,.cls-3,.cls-8,.cls-9{stroke-linecap:round;stroke-linejoin:round;}.cls-2,.cls-3,.cls-8,.cls-9{stroke-width:6px;}.cls-11,.cls-3,.cls-8,.cls-9{fill:none;}.cls-4{fill:#fe7624;}.cls-5{fill:#feba91;}.cls-7{fill:#5d21d1;}.cls-8{stroke:#fff;}.cls-9{stroke:#fffdfd;}.cls-10{fill:#968bb4;}.cls-11{stroke-width:8px;}</style>
    <linearGradient
       id="linearGradient2712">
      <stop
         stop-color="#fff"
         stop-opacity=".1"
         offset="0"
         id="stop8" />
      <stop
         stop-color="#fff"
         stop-opacity=".02"
         offset="1"
         id="stop10" />
    </linearGradient>
    <linearGradient
       id="linearGradient1290"
       x1="217.37"
       x2="147.39"
       y1="178.62"
       y2="210.79"
       gradientUnits="userSpaceOnUse">
      <stop
         stop-color="#fff"
         stop-opacity=".20591"
         offset="0"
         id="stop13" />
      <stop
         stop-color="#fff"
         stop-opacity=".10407"
         offset="1"
         id="stop15" />
    </linearGradient>
    <linearGradient
       id="linearGradient1643"
       x1="1495.5"
       x2="1474.2"
       y1="719.23"
       y2="790.16"
       gradientUnits="userSpaceOnUse"
       xlink:href="#linearGradient1124-0" />
    <linearGradient
       id="linearGradient1124-0">
      <stop
         stop-color="#fff"
         stop-opacity=".15527"
         offset="0"
         id="stop19" />
      <stop
         stop-color="#fff"
         stop-opacity=".016287"
         offset="1"
         id="stop21" />
    </linearGradient>
    <linearGradient
       id="linearGradient2706-6"
       x1="1333.7"
       x2="1032.8"
       y1="557.38"
       y2="788.02"
       gradientTransform="matrix(0.28827,0,0,0.28827,-97.407,29.182)"
       gradientUnits="userSpaceOnUse">
      <stop
         stop-color="#fff"
         stop-opacity=".05"
         offset="0"
         id="stop24" />
      <stop
         stop-color="#fff"
         stop-opacity="0"
         offset="1"
         id="stop26" />
    </linearGradient>
    <linearGradient
       id="linearGradient2734-7-5"
       x1="1415.5"
       x2="1275.1"
       y1="127.37"
       y2="753.71"
       gradientUnits="userSpaceOnUse"
       xlink:href="#linearGradient2712" />
    <linearGradient
       id="linearGradient2734-5"
       x1="1377.3"
       x2="1275.1"
       y1="398.49"
       y2="753.71"
       gradientUnits="userSpaceOnUse"
       xlink:href="#linearGradient2712" />
    <linearGradient
       id="linearGradient1136"
       x1="-164.4"
       x2="-509.61"
       y1="664.98"
       y2="821.87"
       gradientUnits="userSpaceOnUse"
       xlink:href="#linearGradient1124-0" />
    <linearGradient
       id="linearGradient1339"
       x1="1232.3"
       x2="944.46"
       y1="545.09"
       y2="830.89"
       gradientUnits="userSpaceOnUse"
       xlink:href="#linearGradient2712" />
    <linearGradient
       inkscape:collect="always"
       xlink:href="#linearGradient1290"
       id="linearGradient1095"
       gradientUnits="userSpaceOnUse"
       x1="217.37"
       y1="178.62"
       x2="147.39"
       y2="210.78999" />
    <linearGradient
       inkscape:collect="always"
       xlink:href="#linearGradient1124-0"
       id="linearGradient1169"
       gradientUnits="userSpaceOnUse"
       x1="-164.4"
       y1="664.98"
       x2="-509.61"
       y2="821.87" />
  </defs>
  <g
     transform="matrix(0.874,0,0,0.874,100.5,96.31)"
     id="g239">
    <g
       transform="matrix(2.8090932,0,0,2.8090932,294.91904,-105.91001)"
       stroke-width="1"
       id="g43">
      <path
         d="m -30.922,214.34 a 49.954,49.954 0 0 0 -24.977,-43.261 49.954,49.954 0 0 0 -49.954,0 49.954,49.954 0 0 0 -24.977,43.261"
         fill="#2e90bf"
         fill-rule="evenodd"
         stop-color="#000000"
         style="font-variation-settings:normal;stroke-width:1;paint-order:stroke fill markers"
         id="path35" />
      <path
         transform="scale(0.26458)"
         d="m -306.18,621.31 a 188.8,188.8 0 0 0 -93.889,25.295 188.8,188.8 0 0 0 -46.902,38.289 207.07,147.88 0 0 1 6.6328,-2.8535 207.07,147.88 0 0 1 207.07,0 207.07,147.88 0 0 1 103.54,128.07 h 12.861 a 188.8,188.8 0 0 0 -94.4,-163.51 188.8,188.8 0 0 0 -94.91,-25.295 z"
         fill="#2ea4bf"
         fill-rule="evenodd"
         stop-color="#000000"
         style="font-variation-settings:normal;stroke-width:1;paint-order:stroke fill markers"
         id="path37" />
      <path
         transform="scale(0.26458)"
         d="m -455.56,695.32 a 188.8,188.8 0 0 0 -38.91,114.8 h 172.99 c -35.308,-8.2652 -69.743,-21.212 -90.723,-41.51 -31.988,-30.948 -40.924,-58.59 -43.361,-73.287 z"
         fill="#2884b0"
         stop-color="#000000"
         style="font-variation-settings:normal;stroke-width:1;paint-order:stroke fill markers"
         id="path39" />
      <path
         transform="scale(0.26458)"
         d="m -306.18,621.31 a 188.8,188.8 0 0 0 -93.889,25.295 188.8,188.8 0 0 0 -53.734,46.449 c 38.854,-33.411 95.55,-68.851 152.6,-57.395 92.156,18.506 -134.12,87.659 -178.27,100.73 a 188.8,188.8 0 0 0 -5.8262,15.617 c 25.937,-2.2251 87.621,-9.0949 164.42,-28.381 58.612,-14.718 101.95,-43.127 128.3,-64.699 a 188.8,188.8 0 0 0 -18.684,-12.318 188.8,188.8 0 0 0 -94.91,-25.295 z m 140.05,61.619 c -15.246,10.237 -38.654,24.599 -67.863,38.164 -64.445,29.929 -177.86,40.791 -225.9,44.137 -12.47,0.86845 -21.983,1.4069 -29.578,1.7695 a 188.8,188.8 0 0 0 -1.8574,8.8672 c 48.671,-0.95232 166.99,-5.7958 247.7,-30.281 43.873,-13.309 75.083,-26.702 96.617,-37.818 a 188.8,188.8 0 0 0 -19.117,-24.838 z m 43.014,79.002 c -25.503,13.421 -67.147,33.083 -116.89,48.18 h 28.34 c 29.124,-9.1622 58.229,-19.926 81.938,-32.01 3.2591,-1.6612 6.3004,-3.1828 9.2715,-4.6621 a 188.8,188.8 0 0 0 -2.6562,-11.508 z"
         fill="url(#linearGradient1136)"
         id="path41"
         style="fill:url(#linearGradient1136);stroke-width:1" />
    </g>
    <g
       transform="matrix(3.726691,0,0,3.726691,61.188603,-4.9766537)"
       stroke-width="1.1604"
       id="g49">
      <path
         d="m 167.3,68.904 c -2.0294,0 -3.4532,-8.5098 -6.0942,-9.1421 -4.7744,-1.1432 -7.5054,14.754 -11.181,14.769 -3.6752,0.0172 -6.4916,0.35492 -7.9856,3.8773 -1.4942,3.5223 -17.26,6.7821 -11.816,6.7821 h 89.611 c 0,0 -2.2539,-6.7534 -7.7603,-9.1504 -5.5066,-2.397 -14.394,2.7966 -17.954,-0.91313 -3.56,-3.7096 -7.4959,-20.63 -13.382,-20.63 -6.4125,0 -11.04,14.407 -13.438,14.407 z"
         fill="#c9e9fc"
         stop-color="#000000"
         style="font-variation-settings:normal;stroke-width:1.16041"
         id="path45" />
      <path
         transform="scale(0.26458)"
         d="m 670.85,218.92 c -6.9467,0.19074 -14.275,9.7268 -23.713,27.625 -20.827,39.499 -32.242,38.771 -43.486,6.5892 -11.244,-32.182 -22.147,28.773 -35.35,39.117 -13.203,10.344 -16.354,-6.2826 -24.574,3.9466 -8.2201,10.229 -45.998,25.777 -45.998,25.777 h 333.13 c 0,0 -22.304,-34.551 -62.51,-27.271 -40.206,7.2792 -64.483,28.043 -75.812,-24.482 -6.1957,-28.725 -13.306,-51.532 -21.69,-51.302 z"
         fill="#b7cada"
         stop-color="#000000"
         style="font-variation-settings:normal;stroke-width:1.16041"
         id="path47" />
    </g>
    <g
       transform="matrix(0.99999759,0,0,0.99999759,16.522711,-2.6573829e-4)"
       id="g81"
       style="stroke-width:1">
      <g
         transform="matrix(2.9011,0,0,2.9011,953.62,-125.81)"
         stroke-width="1"
         id="g59">
        <path
           d="m -30.922,214.34 a 49.954,49.954 0 0 0 -24.977,-43.261 49.954,49.954 0 0 0 -49.954,0 49.954,49.954 0 0 0 -24.977,43.261"
           fill="#e26f84"
           fill-rule="evenodd"
           stop-color="#000000"
           style="font-variation-settings:normal;stroke-width:1;paint-order:stroke fill markers"
           id="path51" />
        <path
           transform="scale(0.26458)"
           d="m -306.18,621.31 a 188.8,188.8 0 0 0 -93.889,25.295 188.8,188.8 0 0 0 -46.902,38.289 207.07,147.88 0 0 1 6.6328,-2.8535 207.07,147.88 0 0 1 207.07,0 207.07,147.88 0 0 1 103.54,128.07 h 12.861 a 188.8,188.8 0 0 0 -94.4,-163.51 188.8,188.8 0 0 0 -94.91,-25.295 z"
           fill="#e28294"
           fill-rule="evenodd"
           stop-color="#000000"
           style="font-variation-settings:normal;stroke-width:1;paint-order:stroke fill markers"
           id="path53" />
        <path
           transform="scale(0.26458)"
           d="m -455.56,695.32 a 188.8,188.8 0 0 0 -38.91,114.8 h 172.99 c -35.308,-8.2652 -69.743,-21.212 -90.723,-41.51 -31.988,-30.948 -40.924,-58.59 -43.361,-73.287 z"
           fill="#c15469"
           stop-color="#000000"
           style="font-variation-settings:normal;stroke-width:1;paint-order:stroke fill markers"
           id="path55" />
        <path
           transform="scale(0.26458)"
           d="m -306.18,621.31 a 188.8,188.8 0 0 0 -93.889,25.295 188.8,188.8 0 0 0 -53.734,46.449 c 38.854,-33.411 95.55,-68.851 152.6,-57.395 92.156,18.506 -134.12,87.659 -178.27,100.73 a 188.8,188.8 0 0 0 -5.8262,15.617 c 25.937,-2.2251 87.621,-9.0949 164.42,-28.381 58.612,-14.718 101.95,-43.127 128.3,-64.699 a 188.8,188.8 0 0 0 -18.684,-12.318 188.8,188.8 0 0 0 -94.91,-25.295 z m 140.05,61.619 c -15.246,10.237 -38.654,24.599 -67.863,38.164 -64.445,29.929 -177.86,40.791 -225.9,44.137 -12.47,0.86845 -21.983,1.4069 -29.578,1.7695 a 188.8,188.8 0 0 0 -1.8574,8.8672 c 48.671,-0.95232 166.99,-5.7958 247.7,-30.281 43.873,-13.309 75.083,-26.702 96.617,-37.818 a 188.8,188.8 0 0 0 -19.117,-24.838 z m 43.014,79.002 c -25.503,13.421 -67.147,33.083 -116.89,48.18 h 28.34 c 29.124,-9.1622 58.229,-19.926 81.938,-32.01 3.2591,-1.6612 6.3004,-3.1828 9.2715,-4.6621 a 188.8,188.8 0 0 0 -2.6562,-11.508 z"
           fill="url(#linearGradient1136)"
           id="path57"
           style="fill:url(#linearGradient1169);stroke-width:1" />
      </g>
      <g
         transform="matrix(3.9521,0.77514,-0.77514,3.9521,-399.36,-638.94)"
         stroke-width="1.0737"
         id="g69">
        <path
           d="m 336.3,213.52 c 0.16034,-4.5858 -2.685,-7.297 -9.6737,-6.0118 l -2.9903,-8.2741 c 3.7113,-0.73005 11.329,-1.7015 12.402,4.9768 0.91677,-4.0473 -0.36138,-9.9666 -7.1037,-13.338 l 12.395,-3.6319 c 2.7704,2.3359 4.5102,8.1728 -0.0207,16.926 3.7389,-3.4773 6.6565,-3.7898 12.326,-1.4875 l -4.1202,5.733 c -3.3656,-2.3817 -6.7438,-2.5077 -9.6599,5.107 z"
           fill="#96414c"
           id="path61"
           style="stroke-width:1.07371" />
        <path
           transform="scale(0.26458)"
           d="m 1290.1,707.68 -18.93,5.5469 c 25.943,25.246 18.852,58.426 18.852,58.426 17.125,-33.083 10.549,-55.144 0.078,-63.973 z m -0.078,63.973 c 0,0 21.108,-8.5958 36.539,-1.7949 1.9834,0.87414 3.7241,1.8321 5.2597,2.8359 l 4.7891,-6.6621 c -21.429,-8.7016 -32.456,-7.5215 -46.588,5.6211 z m -48.701,-20.604 c -6.7063,-0.0473 -13.272,1.0086 -18.094,1.957 l 4.7031,13.014 c 13.912,-2.3448 29.484,-2.049 42.172,5.7969 -2.6628,-16.564 -15.978,-20.677 -28.781,-20.768 z"
           fill="#b14d5a"
           stop-color="#000000"
           style="font-variation-settings:normal;stroke-width:1.07371"
           id="path63" />
        <path
           transform="scale(0.26458)"
           d="m 1309.5,776.88 c -4.1716,-0.0767 -8.2914,0.56565 -11.68,2.5059 -12.047,6.8985 -13.385,27.611 -13.385,27.611 11.021,-28.78 23.789,-28.304 36.51,-19.303 l 5.4141,-7.5332 c -4.1973,-1.4185 -10.572,-3.1656 -16.859,-3.2812 z"
           fill="#813842"
           stop-color="#000000"
           style="font-variation-settings:normal;stroke-width:1.07371"
           id="path65" />
        <path
           transform="scale(0.26458)"
           d="m 1244.1,771.54 c -5.4307,-0.0465 -10.222,0.67575 -13.729,1.4258 l 4.0879,11.311 c 26.414,-4.8571 37.167,5.3906 36.561,22.723 5.2624,-15.658 -4.0722,-32.434 -18.867,-34.799 -2.7741,-0.44341 -5.4825,-0.63816 -8.0527,-0.66015 z"
           fill="#813842"
           stop-color="#000000"
           style="font-variation-settings:normal;stroke-width:1.07371"
           id="path67" />
      </g>
      <g
         transform="matrix(4.124,0,0,4.124,-903.77,-384.53)"
         stroke-width="1"
         id="g79">
        <path
           d="m 374.74,189.37 c -7.2643,7e-5 -13.174,5.8499 -13.248,13.114 -0.58966,-0.2274 -1.2162,-0.34401 -1.8482,-0.34398 -2.4009,1.4e-4 -4.4813,1.6637 -5.0095,4.0058 -1.0139,-0.442 -2.108,-0.67016 -3.2141,-0.6702 -4.4424,-1.5e-4 -8.0437,3.601 -8.0438,8.0434 l 70.422,-1e-5 c 0.19327,-0.7548 0.29109,-1.5309 0.2912,-2.31 -7e-5,-5.1463 -4.172,-9.3182 -9.3183,-9.3183 -2.0844,1.3e-4 -4.1085,0.69909 -5.7489,1.9852 -1.5921,-2.2427 -4.1719,-3.5752 -6.9223,-3.5754 -1.4605,-3e-5 -2.8963,0.37671 -4.1686,1.0938 -0.63232,-6.8132 -6.3491,-12.024 -13.192,-12.024 z"
           fill="#43592e"
           fill-rule="evenodd"
           stop-color="#000000"
           style="font-variation-settings:normal;stroke-width:1;paint-order:stroke fill markers"
           id="path71" />
        <path
           transform="scale(0.26458)"
           d="m 1416.3,715.73 v 0.002 c -19.208,1.8e-4 -35.898,10.828 -44.295,26.73 10.339,-13.173 41.525,-26.812 62.636,-10.82 28.038,21.239 21.051,43.453 21.051,43.453 0,0 19.454,-14.813 33.852,-5.4997 10.721,6.9352 8.5527,17.041 8.5527,17.041 0,0 26.14,-22.051 48.607,-7.6934 14.536,9.2894 17.219,28.059 17.219,28.059 0.7304,-2.8528 1.0991,-5.7857 1.0996,-8.7305 -3e-4,-19.451 -15.768,-35.218 -35.219,-35.219 -7.8779,4.9e-4 -15.527,2.6413 -21.726,7.502 -6.0173,-8.4763 -15.769,-13.511 -26.164,-13.512 -5.5199,-1.2e-4 -10.947,1.4225 -15.756,4.1328 -2.3898,-25.751 -23.996,-45.445 -49.857,-45.445 z"
           fill="#58753c"
           id="path73"
           style="stroke-width:1" />
        <path
           transform="scale(0.26458)"
           d="m 1358.6,764.03 c -8.7588,0.33174 -16.256,6.4972 -18.197,15.107 -3.832,-1.6705 -7.9662,-2.533 -12.146,-2.5332 -2.8002,-10e-5 -5.5089,0.38697 -8.0839,1.0957 4.3005,0.84678 9.3334,2.2323 14.486,4.5098 13.914,6.1496 27.316,13.246 27.316,13.246 0,0 -10.3,-6.6904 -10.992,-18.908 -0.4312,-7.6058 4.1189,-11.022 7.6172,-12.518 z m -48.723,18.762 c -7.3039,5.5523 -12.023,14.33 -12.023,24.213 h 119.01 c -26.221,-1.6186 -53.728,-4.0509 -70.908,-7.6738 -23.326,-4.9189 -32.5,-11.642 -36.076,-16.539 z"
           fill="#374823"
           id="path75"
           style="stroke-width:1" />
        <path
           transform="scale(0.26458)"
           d="m 1411.1,716 c -10.769,1.1146 -20.529,5.6434 -28.176,12.49 L 1353.11,807 h 8.0644 c 4.4278,-11.739 14.224,-37.333 23.543,-59.055 5.6612,-13.196 16.356,-24.027 26.383,-31.945 z m 19.463,1.7969 c -1.0905,3.5121 -2.3847,7.5233 -4.1641,12.674 -6.4534,18.68 -36.385,55.374 -54.504,76.529 h 33.969 l 58.143,-56.428 c -5.042,-15.823 -17.658,-28.093 -33.443,-32.775 z m 51.363,39.244 c -5.5199,-1.2e-4 -10.947,1.4225 -15.756,4.1328 l -43.016,45.826 h 13.029 l 57.424,-47.746 c -3.6748,-1.4375 -7.6275,-2.2127 -11.682,-2.2129 z m 15.01,3.7363 -52.014,46.223 h 17.502 l 45.666,-36.447 c -2.9436,-4.1465 -6.7856,-7.4621 -11.154,-9.7754 z m 32.881,2.2734 c -5.1274,3.2e-4 -10.155,1.1264 -14.752,3.248 l -27.869,40.701 h 19.98 l 37.082,-40.852 c -4.4078,-1.9849 -9.2936,-3.0976 -14.441,-3.0977 z m -177,2.043 c -1.8666,0.65726 -3.602,1.6047 -5.168,2.7754 L 1339.4401,807 h 5.8886 z m 198.96,5.6504 -29.533,36.256 h 10.121 l 26.27,-28.969 c -1.9305,-2.7435 -4.2407,-5.197 -6.8575,-7.2871 z m 9.5293,11.75 -23.41,24.506 h 22.389 l 4.2031,-2.5957 c 0.3585,-2.0243 0.5505,-4.0756 0.5508,-6.1348 -10e-5,-5.6732 -1.3495,-11.029 -3.7325,-15.775 z"
           fill="url(#linearGradient1643)"
           id="path77"
           style="fill:url(#linearGradient1643);stroke-width:1" />
      </g>
    </g>
    <g
       transform="matrix(3.0033928,0,0,3.3938918,-358.61938,-228.03972)"
       id="g91"
       style="stroke-width:1">
      <path
         d="m 346.22,213.4 c 0,-34.518 -30.48,-131.25 -50.847,-131.25 -20.367,0 -50.847,96.729 -50.847,131.25"
         fill="#f79062"
         fill-rule="evenodd"
         stop-color="#000000"
         style="font-variation-settings:normal;stroke-width:1;paint-order:stroke fill markers"
         id="path83" />
      <path
         transform="scale(0.26458)"
         d="m 1116.4,310.49 c -16.687,0 -35.172,17.2 -53.889,45.443 23.639,0.008 50.727,10.615 74.018,47.08 50.846,79.607 101.89,282.55 118.68,403.52 h 53.365 c 0,-130.46 -115.2,-496.05 -192.18,-496.05 z"
         fill="#f9b191"
         id="path85"
         style="stroke-width:1" />
      <path
         transform="scale(0.26458)"
         d="M 1031.8,411.33 C 975.089,529.41 924.23,719.86 924.23,806.54 h 237.3 c -52.526,-17.162 -110.15,-48.645 -136.67,-106.25 -39.365,-85.501 -11.844,-219.7 6.9355,-288.96 z"
         fill="#d5784e"
         id="path87"
         style="stroke-width:1" />
      <path
         transform="scale(0.26458)"
         d="m 1172.4,359.2 c -0.4023,40.288 -12.317,93.322 -52.391,156.18 -48.891,76.691 -122.6,141.51 -182.57,186.36 -4.5314,22.391 -8.0363,43.409 -10.293,62.219 59.541,-28.76 137.42,-70.246 203.25,-118.23 51.608,-37.618 88.279,-85.319 113.61,-128.59 -21.766,-62.162 -46.835,-119.51 -71.606,-157.95 z m 86.023,201.3 c -22.112,36.185 -52.349,73.696 -93.18,104.07 -63.104,46.944 -161.56,90.498 -240.2,121.08 -0.53815,7.475 -0.82422,14.472 -0.82422,20.883 h 29.535 c 72.84702,-21.576 160.73002,-53.418 225.23002,-95.4 43.117,-28.064 76.223,-53.2 101.32,-74.35 -6.4752,-25.073 -13.838,-50.799 -21.875,-76.287 z m 38.172,147.57 c -36.033,20.441 -79.508,43.228 -123.31,61.689 -32.317,13.621 -66.36,26.051 -98.131,36.777 h 95.26 c 45.605,-13.384 92.683,-29.032 134.71,-46.568 -2.0288,-15.966 -4.9112,-33.419 -8.5312,-51.898 z"
         fill="url(#linearGradient1339)"
         id="path89"
         style="fill:url(#linearGradient1339);stroke-width:1" />
    </g>
    <path
       d="m 481.65859,-39.72517 c 8.18788,37.0529107 -9.93558,72.635825 -26.76794,104.499748 -12.26697,23.218944 -26.31693,50.514882 -16.32596,77.251812 8.05768,12.33497 -23.77994,12.79497 -32.11792,14.40797 -20.80895,-25.03894 -27.67393,-59.631859 -20.20895,-91.446782 6.09279,-25.967938 20.67495,-50.328879 20.19895,-77.342814 -0.33756,-19.146954 -19.72895,-33.405919 -38.88191,-31.329924 -17.47095,1.893295 -35.41391,12.909968 -36.88391,31.549924 L 309.784,-7.7485471 c -18.37695,3.8593907 -25.21594,-29.9949279 -18.09095,-47.9668839 11.57297,-29.19193 42.6229,-44.202894 71.41983,-51.326879 37.40091,-9.25258 81.0558,1.8003 104.01974,34.397919 6.95859,9.878577 11.91598,21.102949 14.52797,32.924921 z m -2.84219,244.94941 c 0.67877,19.03595 -15.39597,44.68189 -34.42092,45.61289 -19.48595,0.95275 -42.4149,-23.74394 -39.6449,-43.0559 2.76259,-19.26195 30.79492,-33.11592 50.01787,-30.09892 12.04098,1.88959 23.61295,15.36296 24.04795,27.54293 z"
       fill="#494c90"
       stop-color="#000000"
       stroke-width="34.677"
       style="font-variant-ligatures:normal;font-variant-caps:normal;font-variant-numeric:normal;font-variant-east-asian:normal;font-variation-settings:normal"
       id="path93" />
    <g
       transform="matrix(3.2644921,0,0,3.2644921,-417.20924,-126.39996)"
       stroke-width="1.3247"
       id="g153">
      <g
         transform="matrix(0.46663,0,0,0.43863,153.72,107.07)"
         stroke-width="1.3247"
         id="g103">
        <path
           d="m 311.6,190.72 c -6.7783,-1e-5 -7.792,-100.97 -7.792,-117.06 0,-16.084 5.4949,-29.122 12.273,-29.122 6.7783,-3e-6 12.273,13.038 12.273,29.122 0,16.084 -1.0138,117.06 -7.7921,117.06"
           fill="#425b2a"
           fill-rule="evenodd"
           stop-color="#000000"
           style="font-variation-settings:normal;stroke-width:1.32471;paint-order:stroke fill markers"
           id="path95" />
        <path
           transform="matrix(0.26458,0,0,0.26458,-31.765,-22.795)"
           d="m 1314.7,254.52 c -3.5243,1e-5 -6.9546,0.93819 -10.254,2.7051 12.707,4.2075 25.669,21.848 32.774,70.002 12.85,87.092 10.242,322.37 8.1718,433.23 13.342,-103.66 15.695,-348.25 15.695,-395.88 0,-60.789 -20.768,-110.07 -46.387,-110.07 z"
           fill="#537236"
           id="path97"
           style="stroke-width:1.32471" />
        <path
           transform="matrix(0.26458,0,0,0.26458,-31.765,-22.795)"
           d="m 1291.7,269.01 c -13.968,18.967 -23.387,54.646 -23.387,95.568 0,60.788 3.8307,442.42 29.449,442.42 h 15.394 c -4.4217,-53.573 -14.105,-172.19 -25.232,-317.01 -9.8535,-128.24 -2.5487,-192.01 3.7754,-220.97 z"
           fill="#364b23"
           stop-color="#000000"
           style="font-variation-settings:normal;stroke-width:1.32471"
           id="path99" />
        <path
           transform="matrix(0.26458,0,0,0.26458,-31.765,-22.795)"
           d="m 1314.7,254.52 c -17.452,3e-5 -32.645,22.88 -40.562,56.678 19.817,-28.466 40.479,-43.329 55.92,-25.709 19.593,22.358 -28.53,107.41 -60.969,159.03 0.1463,9.5986 0.3211,19.61 0.5215,30.16 33.849,-31.177 67.015,-64.038 91.447,-101.07 0.012,-3.1572 0.029,-6.7329 0.029,-9.0195 0,-60.789 -20.768,-110.07 -46.387,-110.07 z m 45.537,195.01 c -13.753,33.186 -55.752,73.554 -88.795,101.75 0.57,19.191 1.2369,38.676 2.0156,57.896 15.976,-7.9406 33.152,-16.463 49.609,-24.57 12.115,-5.968 23.84,-13.412 34.512,-21.094 1.2911,-40.717 2.1227,-80.234 2.6582,-113.98 z m -5.5976,189.05 c -21.213,22.945 -45.628,44.408 -69.006,53.549 -2.5945,1.0145 -5.1325,1.9732 -7.6445,2.9062 0.8459,12.346 1.7582,24.1 2.7519,34.998 24.116,-5.7468 49.26,-14.5 70.172,-27.812 1.4284,-19.776 2.6595,-41.31 3.7266,-63.641 z m -6.1426,93.316 c -17.93,9.0186 -37.578,16.863 -57.414,21.078 -2.8891,0.61386 -5.1063,1.0682 -7.7968,1.6348 0.7056,5.9288 1.4433,11.478 2.2148,16.551 20.222,-3.7566 41.744,-8.106 60.135,-12.631 1.0165,-8.1121 1.9704,-17.03 2.8613,-26.633 z"
           fill="url(#linearGradient2734-7-5)"
           id="path101"
           style="fill:url(#linearGradient2734-7-5);stroke-width:1.32471" />
      </g>
      <g
         id="g111"
         style="stroke-width:1.3247">
        <path
           d="m 324.11,121.75 c -3.407,6.2612 -3.5033,14.241 0.39252,16.361 3.8958,2.1199 10.308,-2.4229 13.715,-8.6841 3.407,-6.2612 3.0107,-13.055 -0.88508,-15.175 -3.8958,-2.1198 -9.8158,1.2374 -13.223,7.4986 z"
           fill="#59793b"
           fill-rule="evenodd"
           stop-color="#000000"
           style="font-variation-settings:normal;stroke-width:1.32471;paint-order:stroke fill markers"
           id="path105" />
        <path
           transform="matrix(0.26458,0,0,0.26458,-31.765,-22.795)"
           d="m 1384.4,515.56 c -8.5237,0.28619 -17.998,5.1128 -26.357,13.295 10.964,-5.3371 28.847,-11.047 37.607,-1.8066 6.6136,6.9755 7.2831,25.061 6.541,40.043 8.4845,-21.123 5.8204,-42.052 -7.2109,-49.143 -3.2209,-1.7526 -6.8065,-2.5154 -10.58,-2.3887 z"
           fill="#6f954b"
           id="path107"
           style="stroke-width:1.32471" />
        <path
           transform="matrix(0.26458,0,0,0.26458,-31.765,-22.795)"
           d="m 1348.8,540.12 c -1.3144,1.9621 -2.5641,4.0192 -3.7344,6.1699 -12.877,23.664 -13.242,53.824 1.4824,61.836 9.0075,4.9014 21.573,0.36763 32.922,-9.3008 -9.432,-3.6174 -20.988,-11.028 -27.33,-26.186 -6.22,-14.867 -5.8322,-24.996 -3.3398,-32.52 z"
           fill="#445e2b"
           id="path109"
           style="stroke-width:1.32471" />
      </g>
      <path
         transform="matrix(0.26458,0,0,0.26458,-31.765,-22.795)"
         d="m 1384.4,515.56 c -5.346,0.1795 -11.068,2.146 -16.652,5.6035 5.0001,6.5378 4.1179,15.844 -2.5938,26.074 -4.1211,6.2819 -17.014,17.912 -29.385,28.379 -0.3625,3.4108 -0.4639,6.727 -0.2872,9.8691 13.558,-6.7272 29.657,-15.847 41.428,-26.104 12.057,-10.505 21.168,-21.986 27.32,-30.938 -2.0233,-4.6017 -5.1144,-8.2458 -9.25,-10.496 -3.2209,-1.7526 -6.8065,-2.5154 -10.58,-2.3887 z m 22.611,25.398 c -10.114,14.78 -27.991,36.543 -51.396,47.465 -6.7708,3.1596 -12.631,5.7939 -18.066,8.1973 0.9184,2.6309 2.1423,4.9604 3.664,6.9238 15.021,-5.281 31.845,-11.546 44.812,-17.42 2.8613,-1.2961 5.3995,-2.4185 7.7832,-3.459 1.6173,-2.3663 3.1361,-4.8244 4.5176,-7.3633 6.3968,-11.756 9.2428,-24.007 8.6855,-34.344 z m -17.461,47.424 c -7.3393,3.7474 -14.308,7.3427 -17.965,9.3887 -5.7275,3.2043 -16.359,7.3305 -24.898,10.449 1.8145,0.95453 3.7692,1.5363 5.8281,1.7715 6.693,-2.1794 13.819,-4.5059 21.522,-7.041 5.4399,-3.7294 10.773,-8.7278 15.514,-14.568 z"
         fill="#ffffff"
         fill-opacity="0.05"
         id="path113"
         style="stroke-width:1.3247" />
      <path
         d="m 341.38,115.64 c 0,0 -2.4868,0.57575 -1.923,3.1143 0.56375,2.5386 3.2445,1.902 3.2445,1.902 0.0305,-0.82533 -0.0912,-1.389 -1.036,-1.8765 l 1.0632,-0.9005 -1.3893,-0.23472 c 0,0 0.46118,-0.70688 0.0407,-2.0046 z"
         fill="#e2e26c"
         id="path115"
         style="stroke-width:1.32471" />
      <g
         stroke-width="1.3247"
         id="g137">
        <g
           id="g125"
           style="stroke-width:1.3247">
          <path
             d="m 311.6,190.72 c -6.7783,-1e-5 -7.792,-100.97 -7.792,-117.06 0,-16.084 5.4949,-29.122 12.273,-29.122 6.7783,-3e-6 12.273,13.038 12.273,29.122 0,16.084 -1.0138,117.06 -7.7921,117.06"
             fill="#3c5326"
             fill-rule="evenodd"
             stop-color="#000000"
             style="font-variation-settings:normal;stroke-width:1.32471;paint-order:stroke fill markers"
             id="path117" />
          <path
             transform="matrix(0.26458,0,0,0.26458,-31.765,-22.795)"
             d="m 1314.7,254.52 c -3.5243,1e-5 -6.9546,0.93819 -10.254,2.7051 12.707,4.2075 25.669,21.848 32.774,70.002 12.85,87.092 10.242,322.37 8.1718,433.23 13.342,-103.66 15.695,-348.25 15.695,-395.88 0,-60.789 -20.768,-110.07 -46.387,-110.07 z"
             fill="#537236"
             id="path119"
             style="stroke-width:1.32471" />
          <path
             transform="matrix(0.26458,0,0,0.26458,-31.765,-22.795)"
             d="m 1291.7,269.01 c -13.968,18.967 -23.387,54.646 -23.387,95.568 0,60.788 3.8307,442.42 29.449,442.42 h 15.394 c -4.4217,-53.573 -14.105,-172.19 -25.232,-317.01 -9.8535,-128.24 -2.5487,-192.01 3.7754,-220.97 z"
             fill="#364b23"
             id="path121"
             style="stroke-width:1.32471" />
          <path
             transform="matrix(0.26458,0,0,0.26458,-31.765,-22.795)"
             d="m 1314.7,254.52 c -17.452,3e-5 -32.645,22.88 -40.562,56.678 19.817,-28.466 40.479,-43.329 55.92,-25.709 19.593,22.358 -28.53,107.41 -60.969,159.03 0.1463,9.5986 0.3211,19.61 0.5215,30.16 33.849,-31.177 67.015,-64.038 91.447,-101.07 0.012,-3.1572 0.029,-6.7329 0.029,-9.0195 0,-60.789 -20.768,-110.07 -46.387,-110.07 z m 45.537,195.01 c -13.753,33.186 -55.752,73.554 -88.795,101.75 0.57,19.191 1.2369,38.676 2.0156,57.896 15.976,-7.9406 33.152,-16.463 49.609,-24.57 12.115,-5.968 23.84,-13.412 34.512,-21.094 1.2911,-40.717 2.1227,-80.234 2.6582,-113.98 z m -5.5976,189.05 c -21.213,22.945 -45.628,44.408 -69.006,53.549 -2.5945,1.0145 -5.1325,1.9732 -7.6445,2.9062 0.8459,12.346 1.7582,24.1 2.7519,34.998 24.116,-5.7468 49.26,-14.5 70.172,-27.812 1.4284,-19.776 2.6595,-41.31 3.7266,-63.641 z m -6.1426,93.316 c -17.93,9.0186 -37.578,16.863 -57.414,21.078 -2.8891,0.61386 -5.1063,1.0682 -7.7968,1.6348 0.7056,5.9288 1.4433,11.478 2.2148,16.551 20.222,-3.7566 41.744,-8.106 60.135,-12.631 1.0165,-8.1121 1.9704,-17.03 2.8613,-26.633 z"
             fill="url(#linearGradient2734-5)"
             id="path123"
             style="fill:url(#linearGradient2734-5);stroke-width:1.32471" />
        </g>
        <path
           transform="matrix(0.26458,0,0,0.26458,-31.765,-22.795)"
           d="m 1316.9,308.94 -45.293,14.807 c -0.4149,2.4618 -0.8001,4.9581 -1.1406,7.5039 l 46.604,-15.873 z m -10.988,34.328 -37.58,17.912 c -0.014,1.1314 -0.035,2.2587 -0.035,3.3984 v 0.69531 l 39.316,-16.029 z m 8.0058,34.174 -45.527,8.1152 c 0.014,2.0921 0.034,4.3945 0.053,6.6816 l 46.412,-6.3691 z m -7.2402,28.656 -38.018,8.0391 c 0.022,1.9447 0.042,3.8192 0.066,5.8398 l 38.037,-7.1348 z m -37.617,37.787 c 0.043,2.8638 0.081,5.6146 0.1289,8.5723 l 29.566,-0.61524 0.4258,-7.8144 z m 38.129,24.201 -37.432,15.189 c 0.037,1.8222 0.065,3.5358 0.1035,5.3789 l 39.287,-13.9 z m -23.256,43.369 -13.455,3.9727 c 0.052,2.1136 0.099,4.1806 0.1523,6.3106 l 15.943,-3.6172 z m 19.592,29.5 -32.277,4.1992 c 0.059,2.0575 0.1145,4.0969 0.1758,6.1621 l 31.42,-3.3887 z m 5.4531,37.547 -35.928,20.574 c 0.113,2.9477 0.2196,5.9042 0.3379,8.8418 l 37.975,-23.67 z m 9.625,75.014 -42.709,7.6211 c 0.086,1.5822 0.1694,3.19 0.2578,4.7598 l 41.77,-4.6426 z m -4.5996,36.994 -35.279,15.055 c 0.1782,2.4033 0.3569,4.7938 0.541,7.1406 l 36.186,-12.156 z m -1.7031,45.668 -30.199,7.9785 c 0.1713,1.628 0.3441,3.2279 0.5196,4.8066 l 28.146,-7.8047 z m -6.7305,29.807 -20.379,3.1602 c 0.3403,2.3146 0.6853,4.5563 1.0391,6.6875 l 19.256,-3.9473 z m 22.658,20.842 -37.656,8.9492 c 1.0862,3.5867 2.2224,6.4134 3.4141,8.3047 l 34.414,-11.201 z"
           fill="#23291e"
           fill-opacity="0.5"
           id="path127"
           style="stroke-width:1.32471" />
        <g
           fill="#ffd4eb"
           id="g135"
           style="stroke-width:1.32471">
          <path
             d="m 322.76,43.991 c 0,0 -3.0128,2.2381 -0.76041,5.3278 2.2524,3.0897 5.4909,0.65556 5.4909,0.65556 -0.44423,-1.1302 -0.93958,-1.8184 -2.4996,-1.9198 l 0.90337,-1.8387 -2.0104,0.50059 c 0,0 0.20589,-1.2238 -1.1239,-2.7255 z"
             stop-color="#000000"
             style="font-variation-settings:normal;stroke-width:1.32471"
             id="path129" />
          <path
             d="m 306.68,53.575 c 0,0 3.0128,2.2381 0.76041,5.3278 -2.2524,3.0897 -5.4909,0.65556 -5.4909,0.65556 0.44423,-1.1302 0.93958,-1.8184 2.4996,-1.9198 l -0.90337,-1.8387 2.0104,0.50059 c 0,0 -0.20589,-1.2238 1.1239,-2.7255 z"
             id="path131"
             style="stroke-width:1.3247" />
          <path
             d="m 327.8,105.5 c 0,0 -2.8079,2.0859 -0.70869,4.9655 2.0992,2.8796 5.1175,0.61098 5.1175,0.61098 -0.41402,-1.0533 -0.87568,-1.6947 -2.3296,-1.7892 l 0.84193,-1.7137 -1.8737,0.46655 c 0,0 0.19189,-1.1406 -1.0474,-2.5401 z"
             stop-color="#000000"
             style="font-variation-settings:normal;stroke-width:1.32471"
             id="path133" />
        </g>
      </g>
      <g
         transform="rotate(-27.556,301.98,89.02)"
         stroke-width="1.3247"
         id="g151">
        <g
           id="g145"
           style="stroke-width:1.3247">
          <path
             d="m 301.27,71.852 c 4.3975,8.0816 7.9448,24.31 2.9163,27.046 -5.0285,2.7362 -16.729,-9.0562 -21.126,-17.138 -4.3975,-8.0816 -3.886,-16.851 1.1424,-19.587 5.0285,-2.7362 12.67,1.5971 17.067,9.6788 z"
             fill="#567539"
             fill-rule="evenodd"
             stop-color="#000000"
             style="font-variation-settings:normal;stroke-width:1.32471;paint-order:stroke fill markers"
             id="path139" />
          <path
             transform="matrix(0.26458,0,0,0.26458,-31.765,-22.795)"
             d="m 1205.8,318.06 c -4.1119,0.14307 -8.0225,1.143 -11.586,3.082 -0.7164,0.38979 -1.3987,0.82218 -2.0664,1.2754 17.727,-2.0256 33.912,0.41394 52.033,26.994 22.449,32.928 34.848,84.58 32.461,100.18 -0.128,0.83606 -0.2752,1.6668 -0.4258,2.4941 8.42,-20.25 -3.3767,-68.413 -17.496,-94.361 -13.504,-24.817 -35.102,-40.282 -52.92,-39.662 z"
             fill="#6f954b"
             id="path141"
             style="stroke-width:1.32471" />
          <path
             transform="matrix(0.26458,0,0,0.26458,-31.765,-22.795)"
             d="m 1179.1,346.27 c -1.95,14.21 1.5507,31.953 10.774,48.902 16.62,30.545 60.84,75.115 79.846,64.773 1.5517,-0.84438 2.884,-2.0339 4.0195,-3.5137 -4.8941,-9.6918 -17.198,-27.233 -47.926,-49.301 -34.183,-24.55 -43.635,-47.175 -46.713,-60.861 z"
             fill="#425a2a"
             id="path143"
             style="stroke-width:1.32471" />
        </g>
        <path
           transform="matrix(0.26458,0,0,0.26458,-31.765,-22.795)"
           d="m 1205.8,318.06 c -4.1119,0.14307 -8.0225,1.143 -11.586,3.082 -10.128,5.5109 -15.404,17.497 -15.611,32.115 5.6326,-10.03 13.829,-18.898 25.623,-20.762 19.509,-3.0821 -5.7663,31.006 -20.428,49.178 0.9586,2.6277 2.0425,5.2624 3.2696,7.8906 15.335,-4.3626 40.903,-13.534 53.178,-28.773 4.3931,-5.454 7.9416,-10.498 10.82,-15.029 -13.193,-17.702 -30.521,-28.214 -45.266,-27.701 z m 56.303,46.41 c -6.561,8.8535 -18.787,19.901 -41.543,29.059 -10.031,4.0366 -18.742,6.9667 -26.24,9.0801 3.1196,4.8869 6.7684,9.9638 10.777,15.006 18.947,-1.6752 40.877,-6.1635 57.514,-17.039 3.7364,-2.4426 7.0365,-4.6839 10.1,-6.8086 -2.9026,-10.49 -6.5894,-20.678 -10.608,-29.297 z m 16.732,63.52 c -16.18,6.5222 -36.021,12.741 -52.527,12.539 3.0444,2.8006 6.1143,5.4114 9.1602,7.7871 10.783,-0.77489 22.896,-2.7116 35.688,-6.6367 2.6841,-0.82367 5.2403,-1.6408 7.7011,-2.4492 0.2365,-3.4927 0.2247,-7.2616 -0.021,-11.24 z"
           fill="#ffffff"
           fill-opacity="0.07"
           id="path147"
           style="stroke-width:1.3247" />
        <path
           d="m 285.82,58.455 c 0,0 1.6357,3.378 -1.7906,5.0752 -3.4262,1.6972 -5.1713,-1.959 -5.1713,-1.959 0.91668,-0.7965 1.6742,-1.1775 3.1042,-0.54563 l 0.0497,-2.0481 1.5508,1.3738 c 0,0 0.38361,-1.1802 2.2572,-1.8964 z"
           fill="#e2e26c"
           id="path149"
           style="stroke-width:1.32471" />
      </g>
    </g>
    <g
       transform="matrix(2.6927935,-0.10243975,0.10243975,2.6927935,-150.04989,-103.56002)"
       stroke-width="1.6048"
       id="g163">
      <path
         d="m 56.948,193.46 c 5.542,-5.3084 27.542,2.9855 23.712,-11.412 -3.1159,-11.714 -21.002,4.7806 -23.346,1.414 -2.3444,-3.3666 20.474,-8.6656 14.255,-18.566 -6.2198,-9.9003 -17.163,13.112 -21.53,10.722 -4.3662,-2.3906 18.15,-16.824 7.6144,-23.023 -10.536,-6.1996 -10.672,16.253 -14.399,15.026 -3.7271,-1.2276 6.4615,-21.145 -3.1311,-22.826 -9.5927,-1.6813 -1.8963,14.731 -5.4206,14.089 -3.5243,-0.64174 -3.8205,-22.043 -15.24,-13.255 -11.419,8.7888 11.411,15.311 9.708,18.176 -1.7025,2.8645 -18.275,-5.9696 -18.164,3.0983 0.14123,11.6 23.42,1.9336 24.779,6.6659 1.6949,5.9062 -20.114,-1.6427 -17.752,10.141 2.744,13.69 22.566,-6.2778 23.815,-1.6488 1.2492,4.629 -20.983,7.6658 -16.147,16.649 5.4769,10.176 20.175,-11.01 22.641,-7.8898 2.5207,3.1896 -19.824,12.925 -10.367,21.042 9.4574,8.1166 12.816,-12.503 18.973,-18.401 z"
         fill="#719854"
         id="path155"
         style="stroke-width:1.60481" />
      <path
         transform="scale(0.26458)"
         d="m 200.98,599.7 c 0,0 -15.375,22.755 -21.807,33.1 -4.3109,6.9337 -9.4063,13.666 -12.424,17.529 -22.91,-24.002 -42.004,-41.074 -42.004,-41.074 0,0 9.3683,10.724 22.582,26.773 -1.6976,0.17403 -10.667,1.0908 -22.799,2.1367 -13.331,1.1494 -48.299,1.3789 -48.299,1.3789 10e-7,0 11.244,1.647 33.646,2.873 20.669,1.1311 38.445,-1.4246 41.184,-1.8418 4.5942,5.6247 9.5375,11.756 14.682,18.27 -4.1673,2.944 -14.126,9.8886 -24.33,16.311 -13.331,8.3903 -51.535,18.887 -51.535,18.887 0,0 31.773,-6.5123 42.08,-9.7305 9.204,-2.8738 34.261,-15.111 39.768,-17.818 6.4744,8.3268 13.086,17.041 19.506,25.857 -6.9084,3.9411 -22.105,12.684 -34.697,20.465 -16.866,10.421 -46.127,34.863 -46.127,34.863 0,0 2.4269,-0.69025 21.934,-10.996 18.064,-9.5437 58.096,-33.427 64.143,-37.041 4.0118,5.6417 7.885,11.265 11.547,16.789 -4.4849,3.3524 -12.741,10.833 -23.387,26.344 -16.355,23.83 -26.023,53.33 -26.023,53.33 0,0 11.16,-16.051 22.318,-37.812 8.2121,-16.015 23.455,-29.781 30.947,-35.949 1.5392,2.3984 3.0456,4.7806 4.4766,7.1172 31.603,51.606 47.49,122.4 47.49,122.4 h 14.992 c 0,0 -15.632,-57.39 -44.637,-114.09 -3.4434,-6.7315 -7.6278,-13.677 -12.301,-20.689 4.6397,-1.2709 11.643,-3.3826 19.152,-6.3945 12.99,-5.2104 42.59,-15.479 42.59,-15.479 0,0 -17.716,4.3676 -36.371,9.2715 -12.113,3.1843 -23.031,5.3033 -29.559,6.4766 -6.6933,-9.5229 -14.187,-19.088 -21.945,-28.344 2.3455,-3.5649 7.4156,-10.833 13.129,-16.252 7.8368,-7.4325 44.082,-26.973 44.082,-26.973 0,0 -26.108,10.728 -35.904,16.398 -7.5667,4.3798 -21.175,15.244 -27.084,20.049 -6.1499,-7.1095 -12.368,-13.964 -18.408,-20.406 2.2232,-3.7139 5.3898,-8.9204 8.8633,-14.086 5.2813,-7.8539 20.529,-41.645 20.529,-41.645 z"
         fill="#6a8549"
         stop-color="#000000"
         style="font-variation-settings:normal;stroke-width:1.60481"
         id="path157" />
      <path
         transform="scale(0.26458)"
         d="m 92.363,542.41 c -5.2096,-0.0546 -11.385,2.285 -18.803,7.9941 -26.752,20.589 -3.7736,37.883 16.033,50.639 -6.3317,-10.555 -13.56,-26.916 -0.95898,-31.582 16.872,-6.2472 38.022,34.917 41.936,30.875 -10.545,-3.8426 -13.559,-57.667 -38.207,-57.926 z m 54.604,4.3828 c -1.3484,-0.0105 -2.5733,0.10703 -3.6934,0.33007 12.359,17.239 5.7704,44.488 7.6309,60.689 1.5546,13.538 5.5492,21.642 10.389,23.799 -6.9735,-12.718 24.127,-78.442 -9.6484,-84.361 -1.6995,-0.29787 -3.2543,-0.44601 -4.6777,-0.45703 z m 60.953,26.084 c 6.1822,5.5544 9.7788,14.176 4.8262,26.852 -10.733,27.47 -24.192,34.404 -27.131,48.617 -1.3712,6.6317 -0.22315,10.281 1.3848,12.311 -1.2875,-14.66 67.466,-62.408 30.902,-83.924 -3.6439,-2.1442 -6.9563,-3.3734 -9.9824,-3.8555 z m 51.508,41.291 c 5.0637,6.6652 9.3547,15.915 5.2363,25.635 -7.922,18.696 -44.039,19.271 -50.471,33.178 -3.8401,8.304 -0.98174,14.128 1.9434,17.49 3.7047,-12.834 76.139,-32.573 54.357,-67.244 -3.3645,-5.3554 -7.0957,-8.1532 -11.066,-9.0586 z m -200.07,0.72265 c -10.258,0.18462 -17.904,3.8691 -17.758,15.918 0.07543,6.1955 1.899,10.785 4.9863,14.15 1.0989,-6.2696 6.3264,-23.245 30.631,-19.951 18.207,2.4673 25.274,-0.80059 28.033,-3.6973 -9.3806,0.66167 -28.852,-6.044 -43.809,-6.4121 -0.70552,-0.0174 -1.4001,-0.0201 -2.084,-0.008 z m 72.496,48.615 c -14.524,6.9969 -66.24,-5.0956 -64.309,26.195 7.7294,-11.092 26.394,-16.002 43.402,-17.992 12.915,-1.5115 18.494,-5.2386 20.906,-8.2031 z m 153.95,8.4277 c -10.119,-0.13736 -22.564,5.0984 -34.158,10.631 14.912,-4.0228 30.982,-6.042 38.105,0.875 9.6618,9.3824 0.54926,26.81 -7.1602,38.043 16.884,-2.6651 28.428,-10.27 22.268,-33.43 -3.1282,-11.76 -10.196,-15.999 -19.055,-16.119 z m -130.47,23.35 c -13.286,13.04 -65.674,24.836 -60.432,49.811 8.7772,-9.8516 24.603,-21.431 42.535,-32.008 15.399,-9.0826 18.388,-14.625 17.896,-17.803 z m 20.863,38.52 c -13.781,13.108 -42.321,32.246 -41.516,51.072 3.253,-6.526 9.3107,-15.391 20.73,-25.699 12.308,-11.11 18.075,-19.648 20.785,-25.373 z"
         fill="#7ea85c"
         id="path159"
         style="stroke-width:1.60481" />
      <path
         transform="scale(0.26458)"
         d="m 92.363,542.41 c -5.2096,-0.0546 -11.385,2.285 -18.803,7.9941 -14.628,11.258 -14.378,21.529 -7.916,30.615 -0.17676,-8.473 2.573,-17.564 12.783,-23.43 12.224,-7.0225 23.318,-5.829 31.227,-3.0098 -4.3125,-7.0644 -9.8021,-12.091 -17.291,-12.17 z m 54.604,4.3828 c -5.6792,-0.044 -9.2478,2.0862 -11.414,5.5215 6.4564,-2.0207 14.46,-1.5076 22.393,6.8848 5.1238,5.4211 7.9697,12.661 9.4316,20.23 1.3468,-15.834 -1.1068,-29.616 -15.732,-32.18 -1.6995,-0.29787 -3.2543,-0.44601 -4.6777,-0.45703 z m 57.742,25.842 c -12.095,0.21623 -19.147,13.308 -24.367,27.311 11.356,-13.37 26.954,-27.191 37.104,-17.529 10.038,9.555 3.4755,27.801 -3.9785,41.688 13.64,-17.279 23.772,-35.992 4.4355,-47.371 -4.9774,-2.9289 -9.3409,-4.1665 -13.193,-4.0977 z m 52.299,41.203 c -7.7957,-0.32103 -16.384,5.8996 -24.881,14.064 14.316,-4.962 28.85,-6.4537 31.445,6.4258 2.2707,11.266 -4.595,22.82 -13.262,32.41 16.989,-11.148 31.653,-25.256 20.184,-43.512 -4.0404,-6.4313 -8.608,-9.1878 -13.486,-9.3887 z m 28.795,58.096 c -9.5285,-0.12934 -21.125,4.5113 -32.127,9.6719 20.068,-3.45 43.196,-3.7161 46.098,12.451 2.3668,13.19 -7.4946,21.997 -18.824,27.684 17.776,-2.4312 30.268,-9.7777 23.908,-33.688 -3.1282,-11.76 -10.196,-15.999 -19.055,-16.119 z"
         fill="#94c46b"
         id="path161"
         style="stroke-width:1.60481" />
    </g>
    <g
       transform="matrix(3.8871906,-0.30388927,0.30388927,3.8871906,-131.36993,-353.91941)"
       stroke-width="1.1091"
       id="g171">
      <path
         d="M 57.916,213.73 C 47.868,207.783 39.844,203.107 41.867,192.5 43.8905,181.893 30.302,180.119 26.813,175.035 c -3.4888,-5.084 5.7042,-14.311 1.9712,-21.403 -3.733,-7.0925 -11.688,-9.8699 -13.572,-14.311 -1.884,-4.4407 5.2507,-16.743 2.4247,-20.681 -2.8259,-3.9385 -5.146,-5.084 -5.146,-5.084 0,0 8.1813,-1.9771 25.678,20.116 17.496,22.094 21.718,48.031 22.538,55.202 0.81987,7.171 6.5764,10.168 5.9135,16.602 -0.66287,6.4335 0.27911,12.035 0.27911,12.035 z"
         fill="#75a66a"
         id="path165"
         style="stroke-width:1.10911" />
      <path
         d="m 58.021,209.23 c -10.269,-5.5561 -13.159,-6.8599 -11.135,-17.467 2.0235,-10.607 -13.281,-13.239 -16.77,-18.323 -3.4888,-5.084 4.8208,-14.171 1.0878,-21.263 -3.733,-7.0925 -10.341,-8.9136 -12.225,-13.354 -1.884,-4.4407 1.4102,-7.3032 2.0605,-12.201 0.63798,-4.8053 0.23278,-4.9307 0.23278,-4.9307 0,0 -1.6183,-8.383 15.878,13.711 17.496,22.094 16.685,47.324 17.505,54.495 0.81987,7.171 7.9244,9.5155 7.8234,15.982 -0.0535,3.4249 1.6376,7.6462 1.6376,7.6462 -1.6779,-1.8002 -2.9927,-2.6164 -6.0942,-4.2944 z"
         fill="#699460"
         id="path167"
         style="stroke-width:1.10911" />
      <path
         d="m 62.669,210.49 c -0.9279,-2.4168 -0.44317,-5.8427 -3.49,-11.386 -3.0469,-5.5438 -4.044,-8.5087 -6.44,-20.02 C 50.3431,167.573 43.2668,149.952 36.744,139.7 30.2209,129.447 23.573,122.359 22.687,122.67 c -0.886,0.311 5.8998,7.6367 7.0078,9.169 1.1079,1.5323 -1.2464,3.264 -4.5841,2.0929 -3.3377,-1.1711 -5.9552,-0.90942 -4.6395,0.49831 1.3157,1.4077 4.4733,1.8313 6.2876,2.0057 1.8143,0.17441 3.6978,-2.7656 5.4428,-0.31145 1.745,2.45415 0.02769,5.2821 -2.4375,5.2323 -2.4652,-0.0498 -5.0412,1.6195 -3.1023,1.6569 1.9389,0.0374 6.1214,-1.1088 7.6864,-0.89697 1.565,0.21178 5.3043,5.8054 5.8167,8.7579 0.51242,2.9525 -3.6978,0.99663 -5.4013,-0.0747 -1.7035,-1.0714 -4.5564,-0.58552 -2.8253,0.38619 1.7312,0.97172 6.3015,3.2889 7.8526,3.2764 1.5511,-0.0125 5.0827,5.606 6.3707,9.8043 1.288,4.1983 -3.1854,3.4882 -8.1157,3.0397 -4.9304,-0.44847 -8.3927,2.4667 -6.6615,2.205 1.7312,-0.26162 7.1878,-0.0249 9.9162,0.5606 2.7283,0.58552 5.8721,-3.1643 7.3402,-0.5606 1.468,2.6037 4.1005,11.787 2.2585,11.762 -1.842,-0.0249 -6.4677,-4.5845 -9.0575,-4.8461 -2.5898,-0.26162 -4.0856,1.931 -2.4375,1.8188 1.6481,-0.11212 4.5426,0.24917 7.0632,2.7283 2.5206,2.47913 5.5398,3.0148 5.5398,3.0148 0,0 3.1992,6.5155 1.3849,7.3626 -1.8143,0.84713 -6.2184,1.4077 -6.5092,2.4916 -0.29084,1.0838 1.842,1.034 3.2269,0.43604 1.3849,-0.59799 3.1715,-2.4916 4.501,-0.71011 1.3295,1.7815 4.6257,7.2505 3.1438,8.1474 -1.4819,0.89697 -7.174,-1.4451 -8.1296,0.0125 -0.95561,1.4576 -0.96944,2.9151 1.0526,2.0556 2.022,-0.85959 2.7145,-0.36128 4.6949,0.0374 1.9805,0.39865 4.2933,-0.9468 4.2933,-0.9468 0,0 2.0695,6.452 3.0034,7.615 z"
         fill="#5a8553"
         id="path169"
         style="stroke-width:1.10911" />
    </g>
    <g
       transform="matrix(-3.4974916,0,0,3.4974916,1088.1971,-419.48925)"
       stroke-width="1.1348"
       id="g205">
      <g
         id="g185"
         style="stroke-width:1.1348">
        <path
           d="m 271.48,217.94 c 1.0188,-25.465 21.794,-49.959 30.498,-22.883 8.7042,27.077 14.601,66.754 -11.22,66.754 h -49.547 c 0,0 1.6457,-8.1673 11.539,-8.1673 9.8933,0 22.667,-9.4636 18.729,-35.704 z"
           fill="#e9b96e"
           id="path173"
           style="stroke-width:1.13481" />
        <path
           d="m 263.26,146.82 a 12.094,15.645 0 0 1 -12.094,15.645 12.094,15.645 0 0 1 -12.094,-15.645 12.094,15.645 0 0 1 12.094,-15.645 12.094,15.645 0 0 1 12.094,15.645 z"
           fill="#f0bb86"
           fill-rule="evenodd"
           stop-color="#000000"
           style="font-variation-settings:normal;stroke-width:1.13481;paint-order:stroke fill markers"
           id="path175" />
        <path
           d="m 261.68,151.19 c 0,8.1305 -5.095,14.722 -11.38,14.722 -6.2849,0 -11.38,-6.5911 -11.38,-14.722 0,-8.1305 5.0949,-12.975 11.38,-12.975 6.2849,-1e-5 11.38,4.8449 11.38,12.975 z"
           fill="#fdcd9a"
           fill-rule="evenodd"
           stop-color="#000000"
           style="font-variation-settings:normal;stroke-width:1.13481;paint-order:stroke fill markers"
           id="path177" />
        <path
           d="m 240.45,142.87 c 0,0 1.85,-5.8764 10.297,-5.4923 8.4472,0.384 9.4041,7.1916 9.4041,7.1916 0,0 -0.73233,-10.189 -8.6566,-10.886 -7.9243,-0.69602 -10.698,5.351 -11.045,9.1863 z"
           fill="#1d1f25"
           id="path179"
           style="stroke-width:1.13481" />
        <rect
           x="240.59"
           y="146.06"
           width="18.931999"
           height="2.0762999"
           ry="0.15067001"
           fill="#f0bb86"
           fill-rule="evenodd"
           stop-color="#000000"
           style="font-variation-settings:normal;stroke-width:1.13481;paint-order:stroke fill markers"
           id="rect181" />
        <path
           d="m 252.75,124.1 c -21.271,0.44775 -10.267,33.041 -29.567,42.775 -23.689,11.949 -34.545,27.965 -34.545,55.217 v 39.725 h 104.12 c 21.915,-1.2098 17.363,-36.318 16.1,-51.382 -2.302,-27.464 -23.429,-33.319 -34.864,-44.291 -11.436,-10.972 0.0249,-42.492 -21.246,-42.045 z m -2.6727,10.287 c 5.0036,4e-5 9.0599,5.5428 9.06,12.38 -5e-5,6.8374 -4.0563,12.38 -9.06,12.38 -5.0036,-4e-5 -9.0599,-5.5428 -9.06,-12.38 5e-5,-6.8374 4.0563,-12.38 9.06,-12.38 z"
           fill="#2e363c"
           id="path183"
           style="stroke-width:1.13481" />
      </g>
      <path
         d="m 258.97,261.81 c 1.6828,-3.2626 -3.7837,-7.5673 -9.6593,-6.7927 -4.8098,0.63402 -8.5838,3.2407 -9.943,6.7927 z"
         fill="#e9b96e"
         id="path187"
         style="stroke-width:1.13481" />
      <g
         id="g203"
         style="stroke-width:1.1348">
        <path
           d="m 242.25,150.87 c -0.94084,16.33 -3.0163,35.62 -7.7342,50.059 0,0 3.5973,3.7329 11.001,3.501 7.4034,-0.23193 13.849,-4.2078 13.849,-4.2078 l -1.4249,-7.5723 z"
           fill="#262931"
           id="path189"
           style="stroke-width:1.13481" />
        <path
           d="m 259.14,146.65 h -18.12 v 48.018 c 0,0 2.1819,3.6981 9.0598,3.6981 6.8779,0 9.0598,-3.6981 9.0598,-3.6981 z"
           fill="#ffe3f0"
           fill-rule="evenodd"
           stop-color="#000000"
           style="stroke-width:1.13481;paint-order:stroke fill markers"
           id="path191" />
        <path
           d="m 255.19,253.46 c 0,0 9.9436,-4.1878 17.854,-6.8545 7.9102,-2.6667 25.213,5.645 30.657,3.2275 5.4443,-2.4175 5.6937,-9.994 5.6937,-9.994 0,0 -0.96973,8.0251 -13.299,5.9565 -12.329,-2.0686 -20.295,-4.2119 -29.327,1.134 -9.0323,5.3459 -11.578,6.5305 -11.578,6.5305 z"
           fill="#39434a"
           stop-color="#000000"
           style="font-variation-settings:normal;stroke-width:1.13481"
           id="path193" />
        <path
           d="m 267.34,143.3 c -0.003,0.33937 -0.0106,0.59861 -0.01,0.95292 0.004,1.5436 0.0299,3.2191 0.0935,4.9434 0.0637,1.7243 0.16476,3.4973 0.31782,5.2354 0.15304,1.738 0.35809,3.4412 0.62992,5.0261 0.13592,0.79241 0.28883,1.5551 0.45993,2.2779 0.17111,0.72281 0.36053,1.4058 0.57053,2.0381 0.20997,0.63234 0.44043,1.2138 0.69297,1.7348 0.25255,0.52101 0.52753,0.98114 0.8263,1.37 0.29877,0.38886 0.66832,0.7992 1.1007,1.232 0.43238,0.43277 0.9275,0.88794 1.4769,1.3663 1.0988,0.95678 2.4152,2.0066 3.8825,3.1559 1.4673,1.1492 3.0855,2.3983 4.7884,3.7533 1.7029,1.355 3.4902,2.8159 5.2958,4.3899 0.90282,0.78704 1.8105,1.6026 2.7141,2.4469 0.90361,0.8443 1.803,1.7173 2.6908,2.6205 0.88776,0.90322 1.7636,1.8366 2.619,2.8004 0.85532,0.96381 1.6902,1.9583 2.4965,2.9843 0.80627,1.0261 1.5843,2.0835 2.3249,3.1735 0.74063,1.09 1.4443,2.2122 2.1027,3.3678 0.6584,1.1556 1.2714,2.3445 1.8309,3.5672 0.55955,1.2228 1.0654,2.4797 1.5095,3.7714 0.93305,2.7139 1.7394,5.2781 2.4361,7.688 0.52215,1.8062 0.92652,3.4369 1.3327,5.0674 -0.23308,-2.9059 -0.47655,-5.6225 -0.66199,-7.8347 -2.302,-27.464 -23.429,-33.319 -34.864,-44.291 -5.2184,-5.007 -5.6878,-14.263 -6.6565,-22.838 z"
           fill="#424d57"
           id="path195"
           style="stroke-width:1.13481" />
        <path
           d="m 230.73,160.17 c 0,0 -0.003,0.001 -0.003,0.001 -1.8386,2.7145 -4.2464,5.0383 -7.5355,6.6973 -23.689,11.949 -34.545,27.965 -34.545,55.217 v 5.2576 c 0.32064,-1.9971 0.66076,-4.0969 1.0454,-6.4281 4.3222,-26.194 15.413,-39.493 28.366,-47.306 12.953,-7.813 12.672,-13.439 12.672,-13.439 z"
           fill="#262931"
           stop-color="#000000"
           style="font-variation-settings:normal;stroke-width:1.13481"
           id="path197" />
        <path
           d="m 252.75,124.1 c -0.16491,0.003 -0.32199,0.0146 -0.48307,0.022 3.7581,0.89371 7.2358,3.9378 9.0292,10.74 3.8552,14.622 -4.346,32.602 4.985,41.591 9.331,8.9898 10.706,17.45 -11.885,31.564 -16.223,10.136 -48.692,18.855 -65.758,22.981 v 8.358 c 14.284,-2.5154 40.059,-7.9805 60.7,-17.468 23.291,-10.705 41.264,-25.68 49.516,-35.78 -7.6762,-8.6491 -18.006,-13.389 -24.858,-19.963 -11.436,-10.972 0.0245,-42.492 -21.246,-42.045 z m -22.62,36.905 c -1.7574,2.3592 -3.9969,4.3828 -6.9466,5.8706 -1.9899,1.0037 -3.8867,2.0369 -5.6966,3.1022 0.68988,8.1461 -0.1727,18.295 -5.374,28.762 -5.6158,11.301 -15.034,18.34 -23.47,22.633 -0.002,0.23987 -0.004,0.47848 -0.004,0.7201 v 1.233 c 10.869,-4.9925 23.545,-12.343 30.129,-21.604 8.7338,-12.284 10.798,-29.228 11.363,-40.717 z m 74.036,32.688 c -3.0538,6.9902 -11.459,20.05 -34.251,33.718 -27.633,16.571 -66.653,30.116 -79.648,34.407 h 18.754 c 26.016,-6.9995 69.087,-20.167 88.445,-35.092 4.4906,-3.4623 8.4562,-6.7932 11.952,-9.9491 -0.19833,-2.342 -0.40305,-4.4987 -0.55739,-6.3402 -0.56639,-6.7571 -2.2737,-12.204 -4.6945,-16.743 z"
           fill="url(#linearGradient2706-6)"
           id="path199"
           style="fill:url(#linearGradient2706-6);stroke-width:1.13481" />
        <path
           d="m 306.99,251.22 c -6.7286,1.9423 -15.935,3.9239 -26.233,4.2446 -16.116,0.50195 -18.801,3.6365 -20.971,6.348 h 32.979 c 7.3371,-0.40504 11.704,-4.6125 14.225,-10.593 z"
           fill="#262931"
           id="path201"
           style="stroke-width:1.13481" />
      </g>
    </g>
    <g
       transform="matrix(3.5557065,0,0,3.5557065,-274.71238,-271.41246)"
       stroke-width="1.21616"
       id="g363">
      <rect
         x="144.55"
         y="162.09"
         width="80.682999"
         height="51.428001"
         ry="5.8241"
         fill="#d3d7cf"
         fill-rule="evenodd"
         stop-color="#000000"
         style="stroke-width:1.21616;paint-order:stroke fill markers"
         id="rect333" />
      <path
         transform="scale(0.26458)"
         d="m 568.36,612.63 c -12.195,0 -22.012,9.817 -22.012,22.012 v 0.44922 c 6.2074,-6.6732 18.679,-12.59 48.102,-12.59 h 218.66 c 14.907,0 26.406,2.7567 26.406,34.096 v 147.89 c 7.0082,-3.6742 11.77,-11.009 11.77,-19.5 v -150.35 c 0,-12.195 -9.8169,-22.012 -22.012,-22.012 z"
         fill="#f0f0ef"
         id="path335"
         style="stroke-width:1.21616" />
      <path
         d="m 185.56,162.09 -41.008,22.108 v 7.4311 l 68.425,-29.539 z m 39.675,6.1562 -80.12,41.954 c 0.57002,1.1993 1.537,2.1705 2.7337,2.7451 l 77.386,-32.269 z m 0,24.9 -42.192,20.371 h 7.3076 l 34.884,-13.559 z m 0,11.624 -20.097,8.7468 h 7.5727 l 12.503,-5.3377 c 0.0132,-0.16056 0.0217,-0.3222 0.0217,-0.48628 z"
         fill="url(#linearGradient1290)"
         id="path337"
         style="fill:url(#linearGradient1095);stroke-width:1.21616" />
      <path
         transform="scale(0.26458)"
         d="m 546.35,669.75 v 115.24 c 0,12.195 9.817,22.012 22.012,22.012 h 176.19 c -77.091,-4.2048 -156.78,-10.143 -167.13,-17.078 -14.229,-9.5338 -25.359,-77.147 -31.064,-120.18 z"
         fill="#bfc7b8"
         id="path339"
         style="stroke-width:1.21616" />
      <rect
         x="147.38"
         y="213.52"
         width="75.041"
         height="2.3647001"
         rx="0.97481"
         ry="0.97481"
         fill="#a3b29a"
         fill-rule="evenodd"
         stop-color="#000000"
         style="stroke-width:1.21616;paint-order:stroke fill markers"
         id="rect341" />
      <g
         id="g1243"
         transform="matrix(0.47160707,0,0,0.47160707,94.958048,101.98423)"
         style="fill:#ffffff;stroke-width:2.57876">
        <path
           style="font-variant-ligatures:normal;font-variant-position:normal;font-variant-caps:normal;font-variant-numeric:normal;font-variant-alternates:normal;font-variant-east-asian:normal;font-feature-settings:normal;font-variation-settings:normal;text-indent:0;text-decoration:none;text-decoration-line:none;text-decoration-style:solid;text-decoration-color:#000000;text-transform:none;text-orientation:mixed;white-space:normal;shape-padding:0;shape-margin:0;inline-size:0;isolation:auto;mix-blend-mode:normal;fill:#ffffff;stroke-width:0.520041;paint-order:stroke fill markers"
           d="m 175.16704,174.60809 v 16.89795 h 30.2678 l -8.37637,-4.67644 h -17.21422 v -9.61064 z"
           id="path854" />
        <path
           style="font-variant-ligatures:normal;font-variant-position:normal;font-variant-caps:normal;font-variant-numeric:normal;font-variant-alternates:normal;font-variant-east-asian:normal;font-feature-settings:normal;font-variation-settings:normal;text-indent:0;text-decoration:none;text-decoration-line:none;text-decoration-style:solid;text-decoration-color:#000000;text-transform:none;text-orientation:mixed;white-space:normal;shape-padding:0;shape-margin:0;inline-size:0;isolation:auto;mix-blend-mode:normal;vector-effect:none;fill:#ffffff;fill-opacity:1;stroke:none;stroke-width:0.721784;stroke-linecap:butt;stroke-linejoin:miter;stroke-miterlimit:4;stroke-dasharray:none;stroke-dashoffset:0;stroke-opacity:1;paint-order:stroke fill markers;stop-color:#000000"
           d="m 175.9574,172.44001 8.37637,4.67644 h 17.21396 v 2.51847 h -12.7029 l 8.37611,4.67644 h 4.32679 v 2.41576 l 4.67669,2.61087 V 172.4403 Z"
           id="path9" />
      </g>
    </g>
  </g>
</svg>
