<?xml version="1.0" encoding="UTF-8" standalone="no"?>
<svg
   xmlns:dc="http://purl.org/dc/elements/1.1/"
   xmlns:cc="http://creativecommons.org/ns#"
   xmlns:rdf="http://www.w3.org/1999/02/22-rdf-syntax-ns#"
   xmlns:svg="http://www.w3.org/2000/svg"
   xmlns="http://www.w3.org/2000/svg"
   xmlns:xlink="http://www.w3.org/1999/xlink"
   xmlns:sodipodi="http://sodipodi.sourceforge.net/DTD/sodipodi-0.dtd"
   xmlns:inkscape="http://www.inkscape.org/namespaces/inkscape"
   width="870"
   height="530"
   version="1.1"
   viewBox="0 0 870 530"
   id="svg16"
   sodipodi:docname="f.svg"
   inkscape:version="1.0.1 (unknown)">
  <title
     id="title1127">Header LangitKetujuh OS for Web</title>
  <sodipodi:namedview
     pagecolor="#ffffff"
     bordercolor="#666666"
     borderopacity="1"
     objecttolerance="10"
     gridtolerance="10"
     guidetolerance="10"
     inkscape:pageopacity="0"
     inkscape:pageshadow="2"
     inkscape:window-width="1366"
     inkscape:window-height="703"
     id="namedview18"
     showgrid="false"
     inkscape:zoom="0.49339623"
     inkscape:cx="414.0657"
     inkscape:cy="212.88979"
     inkscape:window-x="0"
     inkscape:window-y="0"
     inkscape:window-maximized="1"
     inkscape:current-layer="g1125"
     inkscape:document-rotation="0" />
  <metadata
     id="metadata2">
    <rdf:RDF>
      <cc:Work
         rdf:about="">
        <dc:format>image/svg+xml</dc:format>
        <dc:type
           rdf:resource="http://purl.org/dc/dcmitype/StillImage" />
        <dc:title>Header LangitKetujuh OS for Web</dc:title>
        <cc:license
           rdf:resource="http://creativecommons.org/licenses/by-nc-sa/4.0/" />
        <dc:creator>
          <cc:Agent>
            <dc:title>Hervy Qurrotul Ainur Rozi</dc:title>
          </cc:Agent>
        </dc:creator>
        <dc:rights>
          <cc:Agent>
            <dc:title>Hervy Qurrotul Ainur Rozi</dc:title>
          </cc:Agent>
        </dc:rights>
        <dc:date>10 Des 2020</dc:date>
      </cc:Work>
      <cc:License
         rdf:about="http://creativecommons.org/licenses/by-nc-sa/4.0/">
        <cc:permits
           rdf:resource="http://creativecommons.org/ns#Reproduction" />
        <cc:permits
           rdf:resource="http://creativecommons.org/ns#Distribution" />
        <cc:requires
           rdf:resource="http://creativecommons.org/ns#Notice" />
        <cc:requires
           rdf:resource="http://creativecommons.org/ns#Attribution" />
        <cc:prohibits
           rdf:resource="http://creativecommons.org/ns#CommercialUse" />
        <cc:permits
           rdf:resource="http://creativecommons.org/ns#DerivativeWorks" />
        <cc:requires
           rdf:resource="http://creativecommons.org/ns#ShareAlike" />
      </cc:License>
    </rdf:RDF>
  </metadata>
  <defs
     id="defs6">
    <style
       id="style4">.cls-1{fill:#2e186a;}.cls-2,.cls-6{fill:#fff;}.cls-11,.cls-2,.cls-3{stroke:#2e186a;}.cls-11,.cls-2,.cls-3,.cls-8,.cls-9{stroke-linecap:round;stroke-linejoin:round;}.cls-2,.cls-3,.cls-8,.cls-9{stroke-width:6px;}.cls-11,.cls-3,.cls-8,.cls-9{fill:none;}.cls-4{fill:#fe7624;}.cls-5{fill:#feba91;}.cls-7{fill:#5d21d1;}.cls-8{stroke:#fff;}.cls-9{stroke:#fffdfd;}.cls-10{fill:#968bb4;}.cls-11{stroke-width:8px;}</style>
    <linearGradient
       id="linearGradient2914"
       x1="479.25"
       x2="307.26999"
       y1="462.29999"
       y2="638.84003"
       gradientUnits="userSpaceOnUse"
       xlink:href="#linearGradient2712" />
    <linearGradient
       id="linearGradient2712">
      <stop
         stop-color="#fff"
         stop-opacity=".1"
         offset="0"
         id="stop10" />
      <stop
         stop-color="#fff"
         stop-opacity=".02"
         offset="1"
         id="stop12" />
    </linearGradient>
    <linearGradient
       id="linearGradient2970"
       x1="359.26999"
       x2="292.79999"
       y1="381.82001"
       y2="441.39001"
       gradientUnits="userSpaceOnUse"
       xlink:href="#linearGradient2712" />
    <linearGradient
       id="linearGradient2929"
       x1="342.67999"
       x2="204.3"
       y1="454.45001"
       y2="720.10999"
       gradientUnits="userSpaceOnUse"
       xlink:href="#linearGradient2712" />
    <linearGradient
       id="linearGradient2734-7"
       x1="1415.5"
       x2="1275.1"
       y1="127.37"
       y2="753.71002"
       gradientUnits="userSpaceOnUse"
       xlink:href="#linearGradient2712" />
    <linearGradient
       id="linearGradient2734"
       x1="1377.3"
       x2="1275.1"
       y1="398.48999"
       y2="753.71002"
       gradientUnits="userSpaceOnUse"
       xlink:href="#linearGradient2712" />
    <linearGradient
       id="linearGradient1118"
       x1="-164.39999"
       x2="-509.60999"
       y1="664.97998"
       y2="821.87"
       gradientUnits="userSpaceOnUse"
       xlink:href="#linearGradient1124" />
    <linearGradient
       id="linearGradient1124">
      <stop
         stop-color="#fff"
         stop-opacity=".15527"
         offset="0"
         id="stop3" />
      <stop
         stop-color="#fff"
         stop-opacity=".016287"
         offset="1"
         id="stop5" />
    </linearGradient>
    <linearGradient
       id="linearGradient2714"
       x1="1232.3"
       x2="944.46002"
       y1="545.09003"
       y2="830.89001"
       gradientUnits="userSpaceOnUse"
       xlink:href="#linearGradient2712" />
    <linearGradient
       id="linearGradient2706"
       x1="1333.7"
       x2="1032.8"
       y1="557.38"
       y2="788.02002"
       gradientTransform="matrix(0.28827,0,0,0.28827,-97.407,29.182)"
       gradientUnits="userSpaceOnUse">
      <stop
         stop-color="#fff"
         stop-opacity=".05"
         offset="0"
         id="stop17" />
      <stop
         stop-color="#fff"
         stop-opacity="0"
         offset="1"
         id="stop19" />
    </linearGradient>
  </defs>
  <g
     id="g1125"
     transform="matrix(0.87400208,0,0,0.87400208,100.49858,96.310314)">
    <path
       d="m 425.75347,19.326947 c -7.77602,0 -13.23127,-32.60499 -23.3505,-35.02801 -18.29363,-4.38022 -28.75767,56.526487 -42.84023,56.586032 -14.0821,0.06596 -24.87309,1.35987 -30.59761,14.856009 -5.72543,13.495634 -66.13349,25.985424 -45.27365,25.985424 h 343.35198 c 0,0 -8.63601,-25.875495 -29.73397,-35.059617 -21.09889,-9.184123 -55.15246,10.714886 -68.79404,-3.498633 -13.64066,-14.213381 -28.72104,-79.043635 -51.27383,-79.043635 -24.56996,0 -42.29989,55.20275 -51.48906,55.20275 z"
       fill="#e2defc"
       id="path30"
       style="stroke-width:4.57981" />
    <g
       transform="matrix(3.0596242,0,0,3.4574092,-254.17588,-241.65859)"
       id="g122">
      <path
         d="m 346.22,213.4 c 0,-34.518 -30.48,-131.25 -50.847,-131.25 -20.367,0 -50.847,96.729 -50.847,131.25"
         fill="#f79062"
         fill-rule="evenodd"
         stop-color="#000000"
         style="font-variation-settings:normal;paint-order:stroke fill markers"
         id="path114" />
      <path
         transform="scale(0.26458)"
         d="m 1116.4,310.49 c -16.687,0 -35.172,17.2 -53.889,45.443 23.639,0.008 50.727,10.615 74.018,47.08 50.846,79.607 101.89,282.55 118.68,403.52 h 53.365 c 0,-130.46 -115.2,-496.05 -192.18,-496.05 z"
         fill="#f9b191"
         id="path116" />
      <path
         transform="scale(0.26458)"
         d="M 1031.8,411.33 C 975.089,529.41 924.23,719.86 924.23,806.54 h 237.3 c -52.526,-17.162 -110.15,-48.645 -136.67,-106.25 -39.365,-85.501 -11.844,-219.7 6.9355,-288.96 z"
         fill="#d5784e"
         id="path118" />
      <path
         transform="scale(0.26458)"
         d="m 1172.4,359.2 c -0.4023,40.288 -12.317,93.322 -52.391,156.18 -48.891,76.691 -122.6,141.51 -182.57,186.36 -4.5314,22.391 -8.0363,43.409 -10.293,62.219 59.541,-28.76 137.42,-70.246 203.25,-118.23 51.608,-37.618 88.279,-85.319 113.61,-128.59 -21.766,-62.162 -46.835,-119.51 -71.606,-157.95 z m 86.023,201.3 c -22.112,36.185 -52.349,73.696 -93.18,104.07 -63.104,46.944 -161.56,90.498 -240.2,121.08 -0.53815,7.475 -0.82422,14.472 -0.82422,20.883 h 29.535 c 72.84702,-21.576 160.73002,-53.418 225.23002,-95.4 43.117,-28.064 76.223,-53.2 101.32,-74.35 -6.4752,-25.073 -13.838,-50.799 -21.875,-76.287 z m 38.172,147.57 c -36.033,20.441 -79.508,43.228 -123.31,61.689 -32.317,13.621 -66.36,26.051 -98.131,36.777 h 95.26 c 45.605,-13.384 92.683,-29.032 134.71,-46.568 -2.0288,-15.966 -4.9112,-33.419 -8.5312,-51.898 z"
         fill="url(#linearGradient2714)"
         id="path120"
         style="fill:url(#linearGradient2714)" />
    </g>
    <g
       transform="matrix(7.4508936,0,0,7.4504483,941.84116,-1100.7889)"
       id="g82">
      <path
         d="m -30.922,214.34 a 49.954,49.954 0 0 0 -24.977,-43.261 49.954,49.954 0 0 0 -49.954,0 49.954,49.954 0 0 0 -24.977,43.261"
         fill="#e83e8c"
         fill-rule="evenodd"
         stop-color="#000000"
         style="font-variation-settings:normal;paint-order:stroke fill markers"
         id="path74" />
      <path
         transform="scale(0.26458)"
         d="m -306.18,621.31 a 188.8,188.8 0 0 0 -93.889,25.295 188.8,188.8 0 0 0 -46.902,38.289 207.07,147.88 0 0 1 6.6328,-2.8535 207.07,147.88 0 0 1 207.07,0 207.07,147.88 0 0 1 103.54,128.07 h 12.861 a 188.8,188.8 0 0 0 -94.4,-163.51 188.8,188.8 0 0 0 -94.91,-25.295 z"
         fill="#ed6ca7"
         fill-rule="evenodd"
         stop-color="#000000"
         style="font-variation-settings:normal;paint-order:stroke fill markers"
         id="path76" />
      <path
         transform="scale(0.26458)"
         d="m -455.56,695.32 a 188.8,188.8 0 0 0 -38.91,114.8 h 172.99 c -35.308,-8.2652 -69.743,-21.212 -90.723,-41.51 -31.988,-30.948 -40.924,-58.59 -43.361,-73.287 z"
         fill="#c13b79"
         stop-color="#000000"
         style="font-variation-settings:normal;paint-order:stroke fill markers"
         id="path78" />
      <path
         transform="scale(0.26458)"
         d="m -306.18,621.31 a 188.8,188.8 0 0 0 -93.889,25.295 188.8,188.8 0 0 0 -53.734,46.449 c 38.854,-33.411 95.55,-68.851 152.6,-57.395 92.156,18.506 -134.12,87.659 -178.27,100.73 a 188.8,188.8 0 0 0 -5.8262,15.617 c 25.937,-2.2251 87.621,-9.0949 164.42,-28.381 58.612,-14.718 101.95,-43.127 128.3,-64.699 a 188.8,188.8 0 0 0 -18.684,-12.318 188.8,188.8 0 0 0 -94.91,-25.295 z m 140.05,61.619 c -15.246,10.237 -38.654,24.599 -67.863,38.164 -64.445,29.929 -177.86,40.791 -225.9,44.137 -12.47,0.86845 -21.983,1.4069 -29.578,1.7695 a 188.8,188.8 0 0 0 -1.8574,8.8672 c 48.671,-0.95232 166.99,-5.7958 247.7,-30.281 43.873,-13.309 75.083,-26.702 96.617,-37.818 a 188.8,188.8 0 0 0 -19.117,-24.838 z m 43.014,79.002 c -25.503,13.421 -67.147,33.083 -116.89,48.18 h 28.34 c 29.124,-9.1622 58.229,-19.926 81.938,-32.01 3.2591,-1.6612 6.3004,-3.1828 9.2715,-4.6621 a 188.8,188.8 0 0 0 -2.6562,-11.508 z"
         fill="url(#linearGradient1118)"
         id="path80"
         style="fill:url(#linearGradient1118)" />
    </g>
    <g
       transform="matrix(4.1482487,0,0,4.1481307,-636.12559,-294.94405)"
       id="g180">
      <g
         transform="matrix(0.46663,0,0,0.43863,153.72,107.07)"
         id="g132">
        <path
           d="m 311.6,190.72 c -6.7783,-1e-5 -7.792,-100.97 -7.792,-117.06 0,-16.084 5.4949,-29.122 12.273,-29.122 6.7783,-3e-6 12.273,13.038 12.273,29.122 0,16.084 -1.0138,117.06 -7.7921,117.06"
           fill="#425b2a"
           fill-rule="evenodd"
           stop-color="#000000"
           style="font-variation-settings:normal;paint-order:stroke fill markers"
           id="path124" />
        <path
           transform="matrix(0.26458,0,0,0.26458,-31.765,-22.795)"
           d="m 1314.7,254.52 c -3.5243,1e-5 -6.9546,0.93819 -10.254,2.7051 12.707,4.2075 25.669,21.848 32.774,70.002 12.85,87.092 10.242,322.37 8.1718,433.23 13.342,-103.66 15.695,-348.25 15.695,-395.88 0,-60.789 -20.768,-110.07 -46.387,-110.07 z"
           fill="#537236"
           id="path126" />
        <path
           transform="matrix(0.26458,0,0,0.26458,-31.765,-22.795)"
           d="m 1291.7,269.01 c -13.968,18.967 -23.387,54.646 -23.387,95.568 0,60.788 3.8307,442.42 29.449,442.42 h 15.394 c -4.4217,-53.573 -14.105,-172.19 -25.232,-317.01 -9.8535,-128.24 -2.5487,-192.01 3.7754,-220.97 z"
           fill="#32481e"
           id="path128" />
        <path
           transform="matrix(0.26458,0,0,0.26458,-31.765,-22.795)"
           d="m 1314.7,254.52 c -17.452,3e-5 -32.645,22.88 -40.562,56.678 19.817,-28.466 40.479,-43.329 55.92,-25.709 19.593,22.358 -28.53,107.41 -60.969,159.03 0.1463,9.5986 0.3211,19.61 0.5215,30.16 33.849,-31.177 67.015,-64.038 91.447,-101.07 0.012,-3.1572 0.029,-6.7329 0.029,-9.0195 0,-60.789 -20.768,-110.07 -46.387,-110.07 z m 45.537,195.01 c -13.753,33.186 -55.752,73.554 -88.795,101.75 0.57,19.191 1.2369,38.676 2.0156,57.896 15.976,-7.9406 33.152,-16.463 49.609,-24.57 12.115,-5.968 23.84,-13.412 34.512,-21.094 1.2911,-40.717 2.1227,-80.234 2.6582,-113.98 z m -5.5976,189.05 c -21.213,22.945 -45.628,44.408 -69.006,53.549 -2.5945,1.0145 -5.1325,1.9732 -7.6445,2.9062 0.8459,12.346 1.7582,24.1 2.7519,34.998 24.116,-5.7468 49.26,-14.5 70.172,-27.812 1.4284,-19.776 2.6595,-41.31 3.7266,-63.641 z m -6.1426,93.316 c -17.93,9.0186 -37.578,16.863 -57.414,21.078 -2.8891,0.61386 -5.1063,1.0682 -7.7968,1.6348 0.7056,5.9288 1.4433,11.478 2.2148,16.551 20.222,-3.7566 41.744,-8.106 60.135,-12.631 1.0165,-8.1121 1.9704,-17.03 2.8613,-26.633 z"
           fill="url(#linearGradient2734-7)"
           id="path130"
           style="fill:url(#linearGradient2734-7)" />
      </g>
      <g
         id="g140">
        <path
           d="m 324.11,121.75 c -3.407,6.2612 -3.5033,14.241 0.39252,16.361 3.8958,2.1199 10.308,-2.4229 13.715,-8.6841 3.407,-6.2612 3.0107,-13.055 -0.88508,-15.175 -3.8958,-2.1198 -9.8158,1.2374 -13.223,7.4986 z"
           fill="#59793b"
           fill-rule="evenodd"
           stop-color="#000000"
           style="font-variation-settings:normal;paint-order:stroke fill markers"
           id="path134" />
        <path
           transform="matrix(0.26458,0,0,0.26458,-31.765,-22.795)"
           d="m 1384.4,515.56 c -8.5237,0.28619 -17.998,5.1128 -26.357,13.295 10.964,-5.3371 28.847,-11.047 37.607,-1.8066 6.6136,6.9755 7.2831,25.061 6.541,40.043 8.4845,-21.123 5.8204,-42.052 -7.2109,-49.143 -3.2209,-1.7526 -6.8065,-2.5154 -10.58,-2.3887 z"
           fill="#6f954b"
           id="path136" />
        <path
           transform="matrix(0.26458,0,0,0.26458,-31.765,-22.795)"
           d="m 1348.8,540.12 c -1.3144,1.9621 -2.5641,4.0192 -3.7344,6.1699 -12.877,23.664 -13.242,53.824 1.4824,61.836 9.0075,4.9014 21.573,0.36763 32.922,-9.3008 -9.432,-3.6174 -20.988,-11.028 -27.33,-26.186 -6.22,-14.867 -5.8322,-24.996 -3.3398,-32.52 z"
           fill="#445e2b"
           id="path138" />
      </g>
      <path
         transform="matrix(0.26458,0,0,0.26458,-31.765,-22.795)"
         d="m 1384.4,515.56 c -5.346,0.1795 -11.068,2.146 -16.652,5.6035 5.0001,6.5378 4.1179,15.844 -2.5938,26.074 -4.1211,6.2819 -17.014,17.912 -29.385,28.379 -0.3625,3.4108 -0.4639,6.727 -0.2872,9.8691 13.558,-6.7272 29.657,-15.847 41.428,-26.104 12.057,-10.505 21.168,-21.986 27.32,-30.938 -2.0233,-4.6017 -5.1144,-8.2458 -9.25,-10.496 -3.2209,-1.7526 -6.8065,-2.5154 -10.58,-2.3887 z m 22.611,25.398 c -10.114,14.78 -27.991,36.543 -51.396,47.465 -6.7708,3.1596 -12.631,5.7939 -18.066,8.1973 0.9184,2.6309 2.1423,4.9604 3.664,6.9238 15.021,-5.281 31.845,-11.546 44.812,-17.42 2.8613,-1.2961 5.3995,-2.4185 7.7832,-3.459 1.6173,-2.3663 3.1361,-4.8244 4.5176,-7.3633 6.3968,-11.756 9.2428,-24.007 8.6855,-34.344 z m -17.461,47.424 c -7.3393,3.7474 -14.308,7.3427 -17.965,9.3887 -5.7275,3.2043 -16.359,7.3305 -24.898,10.449 1.8145,0.95453 3.7692,1.5363 5.8281,1.7715 6.693,-2.1794 13.819,-4.5059 21.522,-7.041 5.4399,-3.7294 10.773,-8.7278 15.514,-14.568 z"
         fill="#ffffff"
         fill-opacity="0.05"
         id="path142" />
      <g
         id="g154">
        <path
           d="m 311.6,190.72 c -6.7783,-1e-5 -7.792,-100.97 -7.792,-117.06 0,-16.084 5.4949,-29.122 12.273,-29.122 6.7783,-3e-6 12.273,13.038 12.273,29.122 0,16.084 -1.0138,117.06 -7.7921,117.06"
           fill="#3c5326"
           fill-rule="evenodd"
           stop-color="#000000"
           style="font-variation-settings:normal;paint-order:stroke fill markers"
           id="path146" />
        <path
           transform="matrix(0.26458,0,0,0.26458,-31.765,-22.795)"
           d="m 1314.7,254.52 c -3.5243,1e-5 -6.9546,0.93819 -10.254,2.7051 12.707,4.2075 25.669,21.848 32.774,70.002 12.85,87.092 10.242,322.37 8.1718,433.23 13.342,-103.66 15.695,-348.25 15.695,-395.88 0,-60.789 -20.768,-110.07 -46.387,-110.07 z"
           fill="#537236"
           id="path148" />
        <path
           transform="matrix(0.26458,0,0,0.26458,-31.765,-22.795)"
           d="m 1291.7,269.01 c -13.968,18.967 -23.387,54.646 -23.387,95.568 0,60.788 3.8307,442.42 29.449,442.42 h 15.394 c -4.4217,-53.573 -14.105,-172.19 -25.232,-317.01 -9.8535,-128.24 -2.5487,-192.01 3.7754,-220.97 z"
           fill="#2b3d1a"
           id="path150" />
        <path
           transform="matrix(0.26458,0,0,0.26458,-31.765,-22.795)"
           d="m 1314.7,254.52 c -17.452,3e-5 -32.645,22.88 -40.562,56.678 19.817,-28.466 40.479,-43.329 55.92,-25.709 19.593,22.358 -28.53,107.41 -60.969,159.03 0.1463,9.5986 0.3211,19.61 0.5215,30.16 33.849,-31.177 67.015,-64.038 91.447,-101.07 0.012,-3.1572 0.029,-6.7329 0.029,-9.0195 0,-60.789 -20.768,-110.07 -46.387,-110.07 z m 45.537,195.01 c -13.753,33.186 -55.752,73.554 -88.795,101.75 0.57,19.191 1.2369,38.676 2.0156,57.896 15.976,-7.9406 33.152,-16.463 49.609,-24.57 12.115,-5.968 23.84,-13.412 34.512,-21.094 1.2911,-40.717 2.1227,-80.234 2.6582,-113.98 z m -5.5976,189.05 c -21.213,22.945 -45.628,44.408 -69.006,53.549 -2.5945,1.0145 -5.1325,1.9732 -7.6445,2.9062 0.8459,12.346 1.7582,24.1 2.7519,34.998 24.116,-5.7468 49.26,-14.5 70.172,-27.812 1.4284,-19.776 2.6595,-41.31 3.7266,-63.641 z m -6.1426,93.316 c -17.93,9.0186 -37.578,16.863 -57.414,21.078 -2.8891,0.61386 -5.1063,1.0682 -7.7968,1.6348 0.7056,5.9288 1.4433,11.478 2.2148,16.551 20.222,-3.7566 41.744,-8.106 60.135,-12.631 1.0165,-8.1121 1.9704,-17.03 2.8613,-26.633 z"
           fill="url(#linearGradient2734)"
           id="path152"
           style="fill:url(#linearGradient2734)" />
      </g>
      <path
         transform="matrix(0.26458,0,0,0.26458,-31.765,-22.795)"
         d="m 1316.9,308.94 -45.293,14.807 c -0.4149,2.4618 -0.8001,4.9581 -1.1406,7.5039 l 46.604,-15.873 z m -10.988,34.328 -37.58,17.912 c -0.014,1.1314 -0.035,2.2587 -0.035,3.3984 v 0.69531 l 39.316,-16.029 z m 8.0058,34.174 -45.527,8.1152 c 0.014,2.0921 0.034,4.3945 0.053,6.6816 l 46.412,-6.3691 z m -7.2402,28.656 -38.018,8.0391 c 0.022,1.9447 0.042,3.8192 0.066,5.8398 l 38.037,-7.1348 z m -37.617,37.787 c 0.043,2.8638 0.081,5.6146 0.1289,8.5723 l 29.566,-0.61524 0.4258,-7.8144 z m 38.129,24.201 -37.432,15.189 c 0.037,1.8222 0.065,3.5358 0.1035,5.3789 l 39.287,-13.9 z m -23.256,43.369 -13.455,3.9727 c 0.052,2.1136 0.099,4.1806 0.1523,6.3106 l 15.943,-3.6172 z m 19.592,29.5 -32.277,4.1992 c 0.059,2.0575 0.1145,4.0969 0.1758,6.1621 l 31.42,-3.3887 z m 5.4531,37.547 -35.928,20.574 c 0.113,2.9477 0.2196,5.9042 0.3379,8.8418 l 37.975,-23.67 z m 9.625,75.014 -42.709,7.6211 c 0.086,1.5822 0.1694,3.19 0.2578,4.7598 l 41.77,-4.6426 z m -4.5996,36.994 -35.279,15.055 c 0.1782,2.4033 0.3569,4.7938 0.541,7.1406 l 36.186,-12.156 z m -1.7031,45.668 -30.199,7.9785 c 0.1713,1.628 0.3441,3.2279 0.5196,4.8066 l 28.146,-7.8047 z m -6.7305,29.807 -20.379,3.1602 c 0.3403,2.3146 0.6853,4.5563 1.0391,6.6875 l 19.256,-3.9473 z m 22.658,20.842 -37.656,8.9492 c 1.0862,3.5867 2.2224,6.4134 3.4141,8.3047 l 34.414,-11.201 z"
         fill="#263517"
         fill-opacity="0.5"
         id="path156" />
      <g
         fill="#f4b9e1"
         id="g164">
        <path
           d="m 306.68,53.575 c 0,0 3.0128,2.2381 0.76041,5.3278 -2.2524,3.0897 -5.4909,0.65556 -5.4909,0.65556 0.44423,-1.1302 0.93958,-1.8184 2.4996,-1.9198 l -0.90337,-1.8387 2.0104,0.50059 c 0,0 -0.20589,-1.2238 1.1239,-2.7255 z"
           id="path160" />
      </g>
      <g
         transform="rotate(-27.556,301.98,89.02)"
         id="g178">
        <g
           id="g172">
          <path
             d="m 301.27,71.852 c 4.3975,8.0816 7.9448,24.31 2.9163,27.046 -5.0285,2.7362 -16.729,-9.0562 -21.126,-17.138 -4.3975,-8.0816 -3.886,-16.851 1.1424,-19.587 5.0285,-2.7362 12.67,1.5971 17.067,9.6788 z"
             fill="#567539"
             fill-rule="evenodd"
             stop-color="#000000"
             style="font-variation-settings:normal;paint-order:stroke fill markers"
             id="path166" />
          <path
             transform="matrix(0.26458,0,0,0.26458,-31.765,-22.795)"
             d="m 1205.8,318.06 c -4.1119,0.14307 -8.0225,1.143 -11.586,3.082 -0.7164,0.38979 -1.3987,0.82218 -2.0664,1.2754 17.727,-2.0256 33.912,0.41394 52.033,26.994 22.449,32.928 34.848,84.58 32.461,100.18 -0.128,0.83606 -0.2752,1.6668 -0.4258,2.4941 8.42,-20.25 -3.3767,-68.413 -17.496,-94.361 -13.504,-24.817 -35.102,-40.282 -52.92,-39.662 z"
             fill="#6f954b"
             id="path168" />
          <path
             transform="matrix(0.26458,0,0,0.26458,-31.765,-22.795)"
             d="m 1179.1,346.27 c -1.95,14.21 1.5507,31.953 10.774,48.902 16.62,30.545 60.84,75.115 79.846,64.773 1.5517,-0.84438 2.884,-2.0339 4.0195,-3.5137 -4.8941,-9.6918 -17.198,-27.233 -47.926,-49.301 -34.183,-24.55 -43.635,-47.175 -46.713,-60.861 z"
             fill="#425a2a"
             id="path170" />
        </g>
        <path
           transform="matrix(0.26458,0,0,0.26458,-31.765,-22.795)"
           d="m 1205.8,318.06 c -4.1119,0.14307 -8.0225,1.143 -11.586,3.082 -10.128,5.5109 -15.404,17.497 -15.611,32.115 5.6326,-10.03 13.829,-18.898 25.623,-20.762 19.509,-3.0821 -5.7663,31.006 -20.428,49.178 0.9586,2.6277 2.0425,5.2624 3.2696,7.8906 15.335,-4.3626 40.903,-13.534 53.178,-28.773 4.3931,-5.454 7.9416,-10.498 10.82,-15.029 -13.193,-17.702 -30.521,-28.214 -45.266,-27.701 z m 56.303,46.41 c -6.561,8.8535 -18.787,19.901 -41.543,29.059 -10.031,4.0366 -18.742,6.9667 -26.24,9.0801 3.1196,4.8869 6.7684,9.9638 10.777,15.006 18.947,-1.6752 40.877,-6.1635 57.514,-17.039 3.7364,-2.4426 7.0365,-4.6839 10.1,-6.8086 -2.9026,-10.49 -6.5894,-20.678 -10.608,-29.297 z m 16.732,63.52 c -16.18,6.5222 -36.021,12.741 -52.527,12.539 3.0444,2.8006 6.1143,5.4114 9.1602,7.7871 10.783,-0.77489 22.896,-2.7116 35.688,-6.6367 2.6841,-0.82367 5.2403,-1.6408 7.7011,-2.4492 0.2365,-3.4927 0.2247,-7.2616 -0.021,-11.24 z"
           fill="#ffffff"
           fill-opacity="0.07"
           id="path174" />
      </g>
    </g>
    <path
       id="path971"
       style="font-style:normal;font-variant:normal;font-weight:normal;font-stretch:normal;font-size:73.2264px;line-height:1.25;font-family:'Abyssinica SIL';-inkscape-font-specification:'Abyssinica SIL, Normal';font-variant-ligatures:normal;font-variant-caps:normal;font-variant-numeric:normal;font-variant-east-asian:normal;font-variation-settings:normal;letter-spacing:0px;word-spacing:0px;vector-effect:none;fill:#5b37f0;fill-opacity:1;stroke-width:34.6773;stroke-linecap:butt;stroke-linejoin:miter;stroke-miterlimit:4;stroke-dasharray:none;stroke-dashoffset:0;stroke-opacity:1;stop-color:#000000"
       d="m 481.65588,-39.724566 c 8.18787,37.0528437 -9.93561,72.63599 -26.76779,104.495223 -12.26745,23.219297 -26.31677,50.514553 -16.32597,77.252353 8.05772,12.33502 -23.78005,12.79541 -32.11786,14.40769 -20.80899,-25.0392 -27.6741,-59.631986 -20.20948,-91.447209 6.09276,-25.968185 20.67488,-50.329312 20.19864,-77.342715 -0.33756,-19.147446 -19.72944,-33.405736 -38.8824,-31.33015 -17.47121,1.893336 -35.41437,12.910327 -36.88433,31.549597 l -20.88692,4.3866542 c -18.37652,3.8594222 -25.21619,-29.9948752 -18.09093,-47.9672992 11.57344,-29.192308 42.62337,-44.202624 71.42003,-51.326568 37.40146,-9.25265 81.05648,1.8003 104.01862,34.397806 6.95862,9.878592 11.91602,21.102739 14.52839,32.924618 z m -2.8422,244.946656 c 0.67877,19.03553 -15.39609,44.68233 -34.42099,45.61254 -19.4862,0.95275 -42.41484,-23.74448 -39.64506,-43.05634 2.76258,-19.26168 30.79476,-33.11622 50.01826,-30.0994 12.04063,1.88958 23.61347,15.36295 24.04779,27.5432 z"
       sodipodi:nodetypes="ssccssscssssssssss" />
    <g
       transform="matrix(-3.6797588,0,0,3.6796519,1090.1397,-467.18784)"
       id="g214">
      <g
         id="g194">
        <path
           d="m 271.48,217.94 c 1.0188,-25.465 21.794,-49.959 30.498,-22.883 8.7042,27.077 14.601,66.754 -11.22,66.754 h -49.547 c 0,0 1.6457,-8.1673 11.539,-8.1673 9.8933,0 22.667,-9.4636 18.729,-35.704 z"
           fill="#e9b96e"
           id="path182" />
        <path
           d="m 263.26,146.82 a 12.094,15.645 0 0 1 -12.094,15.645 12.094,15.645 0 0 1 -12.094,-15.645 12.094,15.645 0 0 1 12.094,-15.645 12.094,15.645 0 0 1 12.094,15.645 z"
           fill="#cd9f5b"
           fill-rule="evenodd"
           stop-color="#000000"
           style="font-variation-settings:normal;paint-order:stroke fill markers"
           id="path184" />
        <path
           d="m 261.68,151.19 c 0,8.1305 -5.095,14.722 -11.38,14.722 -6.2849,0 -11.38,-6.5911 -11.38,-14.722 0,-8.1305 5.0949,-12.975 11.38,-12.975 6.2849,-1e-5 11.38,4.8449 11.38,12.975 z"
           fill="#fdc471"
           fill-rule="evenodd"
           stop-color="#000000"
           style="font-variation-settings:normal;paint-order:stroke fill markers"
           id="path186" />
        <path
           d="m 240.45,142.87 c 0,0 1.85,-5.8764 10.297,-5.4923 8.4472,0.384 9.4041,7.1916 9.4041,7.1916 0,0 -0.73233,-10.189 -8.6566,-10.886 -7.9243,-0.69602 -10.698,5.351 -11.045,9.1863 z"
           fill="#1b1d22"
           id="path188" />
        <path
           d="m 252.75,124.1 c -21.271,0.44775 -10.267,33.041 -29.567,42.775 -23.689,11.949 -34.545,27.965 -34.545,55.217 v 39.725 h 104.12 c 21.915,-1.2098 17.363,-36.318 16.1,-51.382 -2.302,-27.464 -23.429,-33.319 -34.864,-44.291 -11.436,-10.972 0.0249,-42.492 -21.246,-42.045 z m -2.6727,10.287 c 5.0036,4e-5 9.0599,5.5428 9.06,12.38 -5e-5,6.8374 -4.0563,12.38 -9.06,12.38 -5.0036,-4e-5 -9.0599,-5.5428 -9.06,-12.38 5e-5,-6.8374 4.0563,-12.38 9.06,-12.38 z"
           fill="#2e363c"
           id="path192" />
      </g>
      <path
         d="m 258.97,261.81 c 1.6828,-3.2626 -3.7837,-7.5673 -9.6593,-6.7927 -4.8098,0.63402 -8.5838,3.2407 -9.943,6.7927 z"
         fill="#e9b96e"
         id="path196" />
      <g
         id="g212">
        <path
           d="m 242.25,150.87 c -0.94084,16.33 -3.0163,35.62 -7.7342,50.059 0,0 3.5973,3.7329 11.001,3.501 7.4034,-0.23193 13.849,-4.2078 13.849,-4.2078 l -1.4249,-7.5723 z"
           fill="#262931"
           id="path198" />
        <path
           d="m 259.14,146.65 h -18.12 v 48.018 c 0,0 2.1819,3.6981 9.0598,3.6981 6.8779,0 9.0598,-3.6981 9.0598,-3.6981 z"
           fill="#ffbcf1"
           fill-rule="evenodd"
           stop-color="#000000"
           style="fill:#ffd6f6;fill-opacity:1;paint-order:stroke fill markers"
           id="path200" />
        <path
           d="m 255.19,253.46 c 0,0 9.9436,-4.1878 17.854,-6.8545 7.9102,-2.6667 25.213,5.645 30.657,3.2275 5.4443,-2.4175 5.6937,-9.994 5.6937,-9.994 0,0 -0.96973,8.0251 -13.299,5.9565 -12.329,-2.0686 -20.295,-4.2119 -29.327,1.134 -9.0323,5.3459 -11.578,6.5305 -11.578,6.5305 z"
           fill="#39434a"
           stop-color="#000000"
           style="font-variation-settings:normal"
           id="path202" />
        <path
           d="m 267.34,143.3 c -0.003,0.33937 -0.0106,0.59861 -0.01,0.95292 0.004,1.5436 0.0299,3.2191 0.0935,4.9434 0.0637,1.7243 0.16476,3.4973 0.31782,5.2354 0.15304,1.738 0.35809,3.4412 0.62992,5.0261 0.13592,0.79241 0.28883,1.5551 0.45993,2.2779 0.17111,0.72281 0.36053,1.4058 0.57053,2.0381 0.20997,0.63234 0.44043,1.2138 0.69297,1.7348 0.25255,0.52101 0.52753,0.98114 0.8263,1.37 0.29877,0.38886 0.66832,0.7992 1.1007,1.232 0.43238,0.43277 0.9275,0.88794 1.4769,1.3663 1.0988,0.95678 2.4152,2.0066 3.8825,3.1559 1.4673,1.1492 3.0855,2.3983 4.7884,3.7533 1.7029,1.355 3.4902,2.8159 5.2958,4.3899 0.90282,0.78704 1.8105,1.6026 2.7141,2.4469 0.90361,0.8443 1.803,1.7173 2.6908,2.6205 0.88776,0.90322 1.7636,1.8366 2.619,2.8004 0.85532,0.96381 1.6902,1.9583 2.4965,2.9843 0.80627,1.0261 1.5843,2.0835 2.3249,3.1735 0.74063,1.09 1.4443,2.2122 2.1027,3.3678 0.6584,1.1556 1.2714,2.3445 1.8309,3.5672 0.55955,1.2228 1.0654,2.4797 1.5095,3.7714 0.93305,2.7139 1.7394,5.2781 2.4361,7.688 0.52215,1.8062 0.92652,3.4369 1.3327,5.0674 -0.23308,-2.9059 -0.47655,-5.6225 -0.66199,-7.8347 -2.302,-27.464 -23.429,-33.319 -34.864,-44.291 -5.2184,-5.007 -5.6878,-14.263 -6.6565,-22.838 z"
           fill="#424d57"
           id="path204" />
        <path
           d="m 230.73,160.17 c 0,0 -0.003,0.001 -0.003,0.001 -1.8386,2.7145 -4.2464,5.0383 -7.5355,6.6973 -23.689,11.949 -34.545,27.965 -34.545,55.217 v 5.2576 c 0.32064,-1.9971 0.66076,-4.0969 1.0454,-6.4281 4.3222,-26.194 15.413,-39.493 28.366,-47.306 12.953,-7.813 12.672,-13.439 12.672,-13.439 z"
           fill="#262931"
           stop-color="#000000"
           style="font-variation-settings:normal"
           id="path206" />
        <path
           d="m 252.75,124.1 c -0.16491,0.003 -0.32199,0.0146 -0.48307,0.022 3.7581,0.89371 7.2358,3.9378 9.0292,10.74 3.8552,14.622 -4.346,32.602 4.985,41.591 9.331,8.9898 10.706,17.45 -11.885,31.564 -16.223,10.136 -48.692,18.855 -65.758,22.981 v 8.358 c 14.284,-2.5154 40.059,-7.9805 60.7,-17.468 23.291,-10.705 41.264,-25.68 49.516,-35.78 -7.6762,-8.6491 -18.006,-13.389 -24.858,-19.963 -11.436,-10.972 0.0245,-42.492 -21.246,-42.045 z m -22.62,36.905 c -1.7574,2.3592 -3.9969,4.3828 -6.9466,5.8706 -1.9899,1.0037 -3.8867,2.0369 -5.6966,3.1022 0.68988,8.1461 -0.1727,18.295 -5.374,28.762 -5.6158,11.301 -15.034,18.34 -23.47,22.633 -0.002,0.23987 -0.004,0.47848 -0.004,0.7201 v 1.233 c 10.869,-4.9925 23.545,-12.343 30.129,-21.604 8.7338,-12.284 10.798,-29.228 11.363,-40.717 z m 74.036,32.688 c -3.0538,6.9902 -11.459,20.05 -34.251,33.718 -27.633,16.571 -66.653,30.116 -79.648,34.407 h 18.754 c 26.016,-6.9995 69.087,-20.167 88.445,-35.092 4.4906,-3.4623 8.4562,-6.7932 11.952,-9.9491 -0.19833,-2.342 -0.40305,-4.4987 -0.55739,-6.3402 -0.56639,-6.7571 -2.2737,-12.204 -4.6945,-16.743 z"
           fill="url(#linearGradient2706)"
           id="path208"
           style="fill:url(#linearGradient2706)" />
        <path
           d="m 306.99,251.22 c -6.7286,1.9423 -15.935,3.9239 -26.233,4.2446 -16.116,0.50195 -18.801,3.6365 -20.971,6.348 h 32.979 c 7.3371,-0.40504 11.704,-4.6125 14.225,-10.593 z"
           fill="#262931"
           id="path210" />
      </g>
    </g>
    <g
       transform="matrix(4.1482487,0,0,4.1481307,-372.42435,-399.31262)"
       id="g320">
      <rect
         x="144.55"
         y="162.09"
         width="80.682999"
         height="51.428001"
         ry="5.8241"
         fill="#d3d7cf"
         fill-rule="evenodd"
         stop-color="#000000"
         style="paint-order:stroke fill markers"
         id="rect292" />
      <path
         transform="scale(0.26458)"
         d="m 568.36,612.63 c -12.195,0 -22.012,9.817 -22.012,22.012 v 0.44922 c 6.2074,-6.6732 18.679,-12.59 48.102,-12.59 h 218.66 c 14.907,0 26.406,2.7567 26.406,34.096 v 147.89 c 7.0082,-3.6742 11.77,-11.009 11.77,-19.5 v -150.35 c 0,-12.195 -9.8169,-22.012 -22.012,-22.012 z"
         fill="#f0f0ef"
         id="path294" />
      <path
         transform="scale(0.26458)"
         d="m 701.33,612.63 -154.99,83.559 v 28.086 l 258.61,-111.64 z m 149.95,23.268 -302.81,158.57 c 2.1544,4.5326 5.8092,8.2036 10.332,10.375 l 292.48,-121.96 z m 0,94.111 -159.46,76.992 h 27.619 l 131.85,-51.248 z m 0,43.934 -75.957,33.059 h 28.621 l 47.254,-20.174 c 0.0498,-0.60684 0.082,-1.2178 0.082,-1.8379 z"
         fill="#ffffff"
         fill-opacity="0.24"
         id="path296" />
      <path
         transform="scale(0.26458)"
         d="m 546.35,669.75 v 115.24 c 0,12.195 9.817,22.012 22.012,22.012 h 176.19 c -77.091,-4.2048 -156.78,-10.143 -167.13,-17.078 -14.229,-9.5338 -25.359,-77.147 -31.064,-120.18 z"
         fill="#bfc7b8"
         id="path298" />
      <rect
         x="147.38"
         y="213.52"
         width="75.041"
         height="2.3647001"
         rx="0.97481"
         ry="0.97481"
         fill="#a3b29a"
         fill-rule="evenodd"
         stop-color="#000000"
         style="paint-order:stroke fill markers"
         id="rect300" />
      <g
         transform="matrix(0.29799,0,0,0.29799,166.33,171.35)"
         fill="#ffffff"
         id="g318">
        <path
           d="m 57.996,68.15 c -0.40289,0.0064 -0.79815,0.0687 -1.1855,0.1875 -1.0193,0.30303 -1.8738,0.77068 -2.5625,1.4043 -1.9697,1.8871 -3.5055,4.6834 -4.6074,8.3887 -1.1019,3.7052 -1.4522,6.619 -1.0527,8.7402 0.34436,1.584 1.5145,2.631 3.5117,3.1406 0.88154,0.16529 2.0459,-0.32354 3.4922,-1.4668 1.4463,-1.1433 2.4374,-2.2249 2.9746,-3.2441 0.12397,-0.33058 8.1e-4,-0.64043 -0.37109,-0.92969 l -0.80664,-0.49609 c -0.30303,-0.17906 -0.58399,-0.15213 -0.8457,0.08203 -1.5289,1.7218 -2.8107,2.7764 -3.8438,3.1621 -1.157,-0.22038 -1.5439,-1.3636 -1.1582,-3.4297 2.8512,-1.0055 5.2627,-2.5144 7.2324,-4.5254 1.9835,-2.0248 2.9823,-4.1726 2.9961,-6.4453 0.01379,-2.2727 -0.55206,-3.6507 -1.6953,-4.1328 -0.71454,-0.30131 -1.4066,-0.44631 -2.0781,-0.43555 z m -0.27734,2.9766 c 0.66116,0 0.99219,0.57159 0.99219,1.7148 0,1.1433 -0.30985,2.2595 -0.92969,3.3477 -0.60606,1.0882 -1.3836,2.01 -2.334,2.7676 -0.93664,0.75758 -2.0664,1.4196 -3.3887,1.9844 0.53719,-2.3141 1.2878,-4.5254 2.252,-6.6328 0.97797,-2.1212 2.1134,-3.1816 3.4082,-3.1816 z"
           style="font-variant-ligatures:normal;font-variant-caps:normal;font-variant-numeric:normal;font-variant-east-asian:normal"
           id="path302" />
        <path
           d="m 42.574,57.43 c -0.67494,-10e-7 -1.0945,0.30985 -1.2598,0.92969 l -7.748,29.812 c -0.22039,0.90909 0.1934,1.3652 1.2402,1.3652 h 0.70312 c 0.68871,0 1.116,-0.30985 1.2812,-0.92969 l 2.416,-9.4434 2.748,9.4434 c 0.11019,0.39945 0.24106,0.65347 0.39258,0.76367 0.15151,0.11019 0.44019,0.16602 0.86719,0.16602 h 1.1367 c 0.854,0 1.1504,-0.37914 0.88867,-1.1367 l -3.2852,-10.332 7.2734,-8.5527 c 0.33058,-0.35813 0.48068,-0.68916 0.45312,-0.99219 -0.02757,-0.31681 -0.2604,-0.47461 -0.70117,-0.47461 h -1.5703 c -0.53719,0 -0.91633,0.15205 -1.1367,0.45508 l -6.4043,8.0371 4.627,-18.141 c 0.16529,-0.64739 -0.15032,-0.9707 -0.94922,-0.9707 z"
           style="font-variant-ligatures:normal;font-variant-caps:normal;font-variant-numeric:normal;font-variant-east-asian:normal"
           id="path304" />
        <path
           d="m 64.166,59.02 c -1.6332,0.36529 -2.2889,2.3281 -1.7773,3.709 l 23.203,0.78516 -26.07,47.475 c 0.53065,1.3392 1.9114,1.9314 3.2773,1.8008 l 27.533,-50.137 c 0.67041,-1.2209 -0.18226,-2.7205 -1.5742,-2.7695 z"
           style="font-variant-ligatures:normal;font-variant-caps:normal;font-variant-numeric:normal;font-variant-east-asian:normal"
           id="path306" />
        <path
           d="m 86.896,26.348 -1.4453,0.04102 c -0.42699,0 -0.72338,0.28096 -0.88867,0.8457 -0.86777,-0.53719 -1.7704,-0.80469 -2.707,-0.80469 -1.6942,0 -3.0991,0.56388 -4.2148,1.6934 -1.1157,1.1295 -2.1896,3.1272 -3.2227,5.9922 -1.0193,2.8512 -1.6602,5.1241 -1.9219,6.8184 -0.24794,1.6942 -0.28257,2.8509 -0.10352,3.4707 0.19284,0.61984 0.5104,1.2068 0.95117,1.7578 0.45455,0.55097 0.9222,0.98973 1.4043,1.3203 0.48209,0.31681 0.8343,0.47656 1.0547,0.47656 h 0.08203 c 0.48209,0 1.1018,-0.35221 1.8594,-1.0547 0.77135,-0.70248 1.4681,-1.5762 2.0879,-2.623 l -2.0254,7.3965 c -0.28926,1.0468 -0.75692,1.4317 -1.4043,1.1562 l -4.6914,-2.8926 c -0.4821,-0.27548 -0.94975,-0.15808 -1.4043,0.35156 l -0.64062,0.88867 c -0.44077,0.67493 -0.32337,1.1849 0.35156,1.5293 l 4.3184,2.4375 c 0.89532,0.50964 1.5631,0.75021 2.0039,0.72266 0.44077,-0.02757 1.0528,-0.28158 1.8379,-0.76367 1.5014,-0.81267 2.6176,-2.5352 3.3477,-5.166 3.4986,-12.411 5.5714,-19.91 6.2188,-22.5 0.13774,-0.75758 -0.14518,-1.1213 -0.84766,-1.0938 z m 6.4883,0 c -0.64738,0 -1.04,0.28097 -1.1777,0.8457 l -5.1641,19.67 c -0.16529,0.64738 0.14456,0.9707 0.92969,0.9707 h 1.2383 c 0.67493,4e-6 1.0964,-0.30985 1.2617,-0.92969 l 5.123,-19.67 c 0.08265,-0.34435 0.06145,-0.5772 -0.0625,-0.70117 -0.12397,-0.12397 -0.37028,-0.18555 -0.74219,-0.18555 z m -11.441,2.5703 c 0.58885,0.02757 1.235,0.2383 1.9375,0.63086 l -0.125,0.39258 c -0.92287,3.3471 -1.7697,6.0126 -2.541,7.9961 -0.75758,1.9697 -1.6794,3.5748 -2.7676,4.8145 -1.0882,1.2397 -1.8657,1.742 -2.334,1.5078 -0.45455,-0.23416 -0.70282,-0.60559 -0.74414,-1.1152 -0.04133,-0.50964 0.06837,-1.4815 0.33008,-2.9141 0.27548,-1.4463 0.88172,-3.442 1.8184,-5.9902 0.95042,-2.562 1.8934,-4.1805 2.8301,-4.8555 0.47521,-0.33747 1.0069,-0.49435 1.5957,-0.4668 z"
           style="font-variant-ligatures:normal;font-variant-caps:normal;font-variant-numeric:normal;font-variant-east-asian:normal"
           id="path308" />
        <path
           d="m 52.951,26.16 -0.9707,0.04297 c -0.53719,0 -0.86246,0.32908 -0.97266,0.99023 -0.854,-0.50964 -1.7489,-0.76367 -2.6855,-0.76367 -1.6804,-0.02755 -3.0777,0.53633 -4.1934,1.6934 -1.1157,1.157 -2.2031,3.2028 -3.2637,6.1367 -1.0606,2.9339 -1.7092,5.2203 -1.9434,6.8594 -0.22039,1.6254 -0.23384,2.7474 -0.04102,3.3672 0.20661,0.61984 0.53764,1.1914 0.99219,1.7148 0.45455,0.52342 0.90874,0.95067 1.3633,1.2812 0.46832,0.3168 0.81857,0.47656 1.0527,0.47656 h 0.08398 c 0.30303,0 0.73604,-0.19245 1.3008,-0.57812 0.56474,-0.39945 1.248,-1.1231 2.0469,-2.1699 l 0.78516,2.334 c 0.12397,0.35813 0.378,0.51017 0.76367,0.45508 1.3361,-0.30304 2.485,-0.82651 3.4492,-1.5703 0.97796,-0.75758 2.0461,-1.8122 3.2031,-3.1621 0.30303,-0.39946 0.23374,-0.7497 -0.20703,-1.0527 l -1.0312,-0.68164 c -0.38568,-0.26171 -0.73788,-0.16548 -1.0547,0.28906 -0.86777,1.2121 -1.7435,2.1417 -2.625,2.7891 l 5.084,-16.922 c 0.27548,-0.99174 -0.10365,-1.5017 -1.1367,-1.5293 z m 7.334,0.1875 c -0.427,0 -0.70796,0.36372 -0.8457,1.0938 l -5.125,19.299 c -0.08265,0.27548 -0.06147,0.52951 0.0625,0.76367 0.1102,0.22039 0.24682,0.33008 0.41211,0.33008 h 1.1777 c 0.45455,0 0.79329,-0.1982 1.0137,-0.59766 0.90909,-1.6667 2.4506,-4.1609 4.627,-7.4805 1.157,-1.8044 2.1155,-3.319 2.873,-4.5449 0.75758,-1.2259 1.4042,-2.2247 1.9414,-2.9961 0.45455,-0.67493 0.81251,-1.1368 1.0742,-1.3848 0.27548,-0.26171 0.51029,-0.39258 0.70312,-0.39258 0.19284,0 0.28906,0.12511 0.28906,0.37305 0,0.23416 -0.1097,0.72875 -0.33008,1.4863 l -4.4434,14.525 c -0.19284,0.67493 -0.08119,1.0117 0.33203,1.0117 h 2.2109 c 0.3719,0 0.599,-0.1982 0.68164,-0.59766 l 4.7305,-17.254 c 0.3168,-1.0468 0.39185,-1.8378 0.22656,-2.375 -0.15152,-0.53719 -0.35743,-0.88168 -0.61914,-1.0332 -0.24794,-0.15152 -0.59819,-0.22656 -1.0527,-0.22656 h -0.88867 c -0.70248,0 -1.5493,0.3849 -2.541,1.1562 -0.97796,0.77136 -1.9364,1.9222 -2.873,3.4512 l -4.4004,7.2715 3.1816,-10.66 c 0.22039,-0.81268 -0.0067,-1.2188 -0.68164,-1.2188 z M 48.322,28.908 c 0.61295,0.007 1.2962,0.22052 2.0469,0.64062 -1.0468,3.7052 -1.9706,6.5632 -2.7695,8.5742 -0.78513,2.011 -1.707,3.5949 -2.7676,4.752 -1.0468,1.157 -1.7974,1.6189 -2.252,1.3848 -0.45454,-0.23416 -0.70282,-0.60559 -0.74414,-1.1152 -0.04133,-0.50964 0.06837,-1.4661 0.33008,-2.8711 0.27548,-1.4187 0.86054,-3.3683 1.7559,-5.8477 0.90909,-2.4793 1.8329,-4.1191 2.7695,-4.918 0.47521,-0.40634 1.0179,-0.6065 1.6309,-0.59961 z"
           style="font-variant-ligatures:normal;font-variant-caps:normal;font-variant-numeric:normal;font-variant-east-asian:normal"
           id="path310" />
        <path
           d="m 94.832,19.9 c -0.59229,0 -1.0888,0.20787 -1.4883,0.62109 -0.38568,0.41323 -0.57812,0.89435 -0.57812,1.4453 0,0.55097 0.18669,1.0321 0.55859,1.4453 0.38567,0.39945 0.81868,0.59961 1.3008,0.59961 h 0.33008 c 0.61984,0 1.1376,-0.19245 1.5508,-0.57812 0.41322,-0.39945 0.61914,-0.87482 0.61914,-1.4258 0,-0.55096 -0.20016,-1.0398 -0.59961,-1.4668 -0.39945,-0.427 -0.83246,-0.64062 -1.3008,-0.64062 z"
           style="font-variant-ligatures:normal;font-variant-caps:normal;font-variant-numeric:normal;font-variant-east-asian:normal"
           id="path312" />
        <path
           d="m 104.17,18.846 c -0.67493,0 -1.0945,0.3118 -1.2598,0.93164 l -1.6953,6.5703 h -1.6934 c -0.45455,0 -0.7644,0.2675 -0.92969,0.80469 l -0.33008,1.1367 c -0.20661,0.67493 -0.02766,1.0117 0.53711,1.0117 h 1.6934 l -4.4004,17.17 c -0.08265,0.39945 -0.03453,0.73048 0.14453,0.99219 0.19284,0.24794 0.51615,0.37109 0.9707,0.37109 h 0.78516 c 0.68871,4e-6 1.116,-0.30985 1.2812,-0.92969 l 4.4844,-17.604 h 2.1895 c 0.53719,0 0.90862,-0.30985 1.1152,-0.92969 l 0.28906,-1.0938 c 0.19285,-0.61984 -0.0208,-0.92969 -0.64062,-0.92969 h -2.1895 l 1.6524,-6.5293 c 0.16529,-0.64738 -0.14456,-0.97266 -0.92969,-0.97266 z"
           style="font-variant-ligatures:normal;font-variant-caps:normal;font-variant-numeric:normal;font-variant-east-asian:normal"
           id="path314" />
        <path
           d="m 31.133,17.193 c -0.67493,0 -1.0945,0.30985 -1.2598,0.92969 l -7.252,28.41 c -0.08265,0.35813 -0.04224,0.66799 0.12305,0.92969 0.15152,0.24794 0.39207,0.3711 0.72266,0.37109 h 11.57 c 0.75758,4e-6 1.206,-0.29443 1.3438,-0.88672 l 0.28906,-1.0547 c 0.06886,-0.26171 0.04193,-0.4888 -0.08203,-0.68164 -0.1102,-0.19284 -0.28917,-0.28906 -0.53711,-0.28906 h -9.5664 l 6.7148,-26.406 c 0.09642,-0.3719 0.06178,-0.68175 -0.10352,-0.92969 -0.15152,-0.26171 -0.39208,-0.39258 -0.72266,-0.39258 z"
           style="font-variant-ligatures:normal;font-variant-caps:normal;font-variant-numeric:normal;font-variant-east-asian:normal"
           id="path316" />
      </g>
    </g>
  </g>
</svg>
