<?xml version="1.0" encoding="UTF-8"?>
<svg width="870" height="530" version="1.1" viewBox="0 0 870 530" xmlns="http://www.w3.org/2000/svg" xmlns:cc="http://creativecommons.org/ns#" xmlns:dc="http://purl.org/dc/elements/1.1/" xmlns:rdf="http://www.w3.org/1999/02/22-rdf-syntax-ns#">
 <metadata>
  <rdf:RDF>
   <cc:Work rdf:about="">
    <dc:format>image/svg+xml</dc:format>
    <dc:type rdf:resource="http://purl.org/dc/dcmitype/StillImage"/>
    <dc:title/>
   </cc:Work>
  </rdf:RDF>
 </metadata>
 <defs>
  <style>.cls-1,.cls-2{fill:none;}.cls-1,.cls-2,.cls-5{stroke:#2e186a;stroke-linecap:round;stroke-linejoin:round;}.cls-1,.cls-5{stroke-width:6px;}.cls-2{stroke-width:8px;}.cls-3{fill:#2e186a;}.cls-4{fill:#fe7624;}.cls-5{fill:#fff;}</style>
 </defs>
 <g data-name="Layer 2">
  <g id="outline" transform="matrix(.57258 0 0 .57258 2.604e-6 27.885)">
   <g id="FAQ">
    <path id="chair" class="cls-1" d="m148.08 825.23v-355.23a139.09 139.09 0 0 1 139.09-139h108.93" stroke="#2e186a"/>
    <g id="man">
     <g id="hoodie">
      <g stroke="#2e186a">
       <path class="cls-2" d="m553 515.4s11.87 35.55 13.61 52.76"/>
       <path class="cls-2" d="m699.12 502.53a524.19 524.19 0 0 0 1.11 67.13"/>
       <path class="cls-1" d="m810.86 389.63c4.14 4.27 5.74 63.37 43.14 62.67"/>
      </g>
      <path id="shape" class="cls-3" d="m406.66 407.82c-16.38 7.23-40 21.28-59 50.38 26.78-11 118.93 71.4 184.25 52.71-30.37-3.22-95.45-50.91-125.25-103.09z" fill="#5b37f0"/>
      <g stroke="#2e186a">
       <path class="cls-1" d="m459.88 276.35c-79.26 37.73-80.35 90.76-53.41 136.87-14.14 2.23-48.36 21.5-120.78 123.76-104.26 147.21-99.26 284.57 103.54 288.07"/>
       <path class="cls-1" d="m776.76 603.85v-0.58c238.93 22.71 232-81.37 207-186l-62.76-207.52c-9.25-20.18-17.52-11.54-21-17.85-8.05-14.74-11.25-21.21-11.25-21.21-29.36 24.87-88 14-88 14s-0.5 5.37-0.91 21.79-18.7 14-16.55 35.82l27.5 147.32-76.41-16.29c-4.89-26.75-17.35-67.34-47.31-93"/>
       <line class="cls-1" x1="787.92" x2="786.68" y1="824.52" y2="738.98"/>
      </g>
      <path class="cls-3" d="m770.09 380.94c-12.06-5-28.15-6.87-38.68-8.56a138.72 138.72 0 0 1 2.6 30.46c-2.27 52.68-22.88 73.24-27.79 92.64 63.35-23.35 68.29-85.13 63.87-114.54z" fill="#5b37f0" data-name="shape"/>
     </g>
     <g id="shirt" fill="#ff5361">
      <path class="cls-4" d="m675.14 688.87c-1.33 11.14-3.89 15.82-29.95 29.22-6.65 3.42-20.66 10.84-39.43 20.25 3.89 48.09 6 83.46 6 83.46l78.11 1.09s-2.16-80.39-3.85-162.06c-4.33 8.76-10.08 21.26-10.88 28.04z"/>
      <path class="cls-4" d="m684.27 503c1-43.09-15.5-85.36-31.45-113.64-2.58 39.34-11 84.94-19.9 99.81-42-29.13-73.5-45.83-98.68-59.13-15.91-25.65-29.34-48.52-35.14-65.11 0.08-2.51 0.16-5.06 0.24-7.62l-2.74 0.27c7 23.07 22.1 55.87 53.36 99.93a208.34 208.34 0 0 1 17.51 23.62c7.46 11.69 14.3 44.76 20.25 86 34.77-4.83 61.71-5.78 66.6 1.63l30.21 5.78c-1.12-57.6-0.79-48.02-0.26-71.54z"/>
     </g>
     <g id="hand_II" data-name="hand II">
      <g stroke="#2e186a" data-name="hand II">
       <line class="cls-1" x1="724.49" x2="678.02" y1="648.79" y2="658.3"/>
       <path class="cls-1" d="m779.63 715.52c3.9 15 12.52 43.86 19 43.46 9.2-0.57 4.28-58.18 3-75.86-0.63-9.07-7-38.25-12.2-53-6.79-19.3-37.74-78.07-100.68-56.63l-45.47 11.13"/>
       <path class="cls-1" d="m727 637.07c-1 10.23-7 31.74 0.83 45.87"/>
       <path class="cls-1" d="m787.92 682s-4.91 41.78-18.87 45-14.85-8.56-14.85-8.56"/>
       <path class="cls-1" d="m771.17 680.57s-7.54 36.83-21.71 39-14.17-9.57-14.17-9.57"/>
       <path class="cls-1" d="m750.5 678.3s-9.79 44.15-25.51 27.41-14.06-25.27-14.06-25.27 7.56-12.13 19.68 7.24"/>
      </g>
      <path id="welt_II" class="cls-3" d="m675.77 681.84c-35.35-28.68-47.34-100.91-32.4-116.72 0.6-5 12.08 3.45 19 4.22 16.7 1.86 23.9 2.37 23.9 2.37-6.77 20.82 0.77 46 8.52 63.91a193 193 0 0 0 11.52 23c-1.33 0.67-6.7 3.32-19.47 8.92-7.36 3.27-8.92 8.79-11.07 14.3z" fill="#5b37f0" data-name="welt II"/>
      <path class="cls-1" d="m396.1 573.38c15.61-5.17 57.64-12.33 70.46 17.27" stroke="#2e186a"/>
      <path id="lines" class="cls-1" d="m396.1 607.24s242.55-62.3 258.23-38.52l36.83 82.35s-14.7 26.65-16 37.8-3.89 15.82-29.95 29.22-162.21 91.61-259.8 106.96" stroke="#2e186a"/>
     </g>
     <g id="head">
      <g stroke="#2e186a">
       <path id="neck" class="cls-1" d="m500.92 309.2c-0.53 15.6-1.23 36.72-1.82 55.71 5.8 16.59 19.23 39.46 35.14 65.11 25.18 13.3 56.65 30 98.68 59.13 9-14.87 17.32-60.47 19.9-99.81"/>
       <path id="ear" class="cls-1" d="m488.12 236c-7.53 0.67-35.71 5.17-29.74 35 4.74 23.73 26.43 21.62 39.42 18"/>
       <path id="face" class="cls-1" d="m686.57 180.12c5.34 40.73 2.87 84.45-1.31 117"/>
       <path class="cls-1" d="m685.26 297.08c-1.75 13.7-3.81 25.41-5.72 34.06" data-name="face"/>
       <path id="beard" class="cls-1" d="m510.29 243.13c6.31 6.38 23.23 43.16 27.36 60.31 0 0 41.87-14.41 101.86-15.29 0 0 32.71 0.67 45.75 4.63 0 0-2.82 60.73-29.34 92.18s-82.59 22.65-108.92 3.74-30.65-27.93-36.74-48.16-22.17-95.65-22.17-95.65z"/>
       <path id="mouth" class="cls-5" d="m623 340.66s16.35-3.25 23 3.25"/>
       <polyline id="nose" class="cls-1" points="643.84 264.77 649.92 317.68 631.26 312.91"/>
       <path id="brow_II" class="cls-1" d="m587.67 226a24.86 24.86 0 0 1 23.53-9.25" data-name="brow II"/>
       <path id="brow" class="cls-1" d="m661 215.83s15-3.9 18.79 8.39"/>
      </g>
      <path id="hair" class="cls-3" d="m721 171.54c-1.32-3.86 0.18-8.56 2.94-13.29l-0.72-0.81-3.39 9.5s-10.61 4.57-14.11-9c-1.08-4.15 1.37-9.21 5.27-14.22l-0.11-0.13c-14.75 3.42-43.57 9-46.17 3.2-3.67-8.21 48.33-30 64.17-37 8.12-3.55 36.22-11.26 51.36-13.46a131.24 131.24 0 0 1 30.27-0.33 44.29 44.29 0 0 0-5.18-26.95c-4.91-9.06-15.17-22.53-24.28-27.36-90.29-47.89-134.34 33-134.34 33s-12.71-34.69-53.85-35.93a61.36 61.36 0 0 0-45.09 18c-33.69 33.77-11.23 72-11.23 72s-15.69-8-36.85 2.21c-25.28 12.23-38 40.86-31.43 68.17 7 29 19.86 56.61 19.86 56.61 82.16 12.72 103.16-67.95 91.06-78.36 18.22 13.48 51 22.51 106.52 16.93 12.71-1.32 28.3-6.32 44.17-13.9-3.07-0.42-6.64-2.42-8.87-8.88z" fill="#5b37f0"/>
     </g>
     <g id="hand">
      <g stroke="#2e186a" data-name="hand">
       <polyline class="cls-1" points="798.07 163.8 811.14 216.41 885.39 194.45"/>
       <path class="cls-1" d="m710.92 143.63c-14.75 3.42-43.57 9-46.17 3.2-3.67-8.21 48.33-30 64.17-37 8.12-3.55 36.22-11.26 51.36-13.46 19.75-2.85 91.55-4.67 101.5 59.42l10.63 39.63-70.62 20.94"/>
       <path class="cls-1" d="m818.05 153.68c-8.37 5.52-39.78 20.38-55.55 20"/>
       <path class="cls-1" d="m736.13 121.3s-33.88 23.15-30.37 36.7 14.11 9 14.11 9"/>
       <path class="cls-1" d="m744.94 135.13s-28.41 23.18-23.9 36.41 14.74 7.89 14.74 7.89"/>
       <path class="cls-1" d="m756.26 152s-33.72 28.43-12.15 34.44 28.2 0.73 28.2 0.73 7.06-12-15.16-13.74"/>
      </g>
      <path id="welt" class="cls-3" d="m790.9 222.17c14.19 18.81 110.33 4.64 126.15-19.66-7.58-10.4-13.62-4.47-17-10.61-8.05-14.74-11.25-21.21-11.25-21.21-16.7 14.15-42.89 16.73-62.37 16.33a194.54 194.54 0 0 1-25.67-1.93c-0.12 1.49-0.53 7.46-0.88 21.4-0.17 8.07-4.69 11.6-8.98 15.68z" fill="#5b37f0"/>
     </g>
    </g>
    <path id="laptop" class="cls-3" d="m1315.6 545.92h-388.81a11 11 0 0 0-10.71 8.47l-54.05 228.82h-140.94s-7.81 40.34 37.74 40.34h496.38a11 11 0 0 0 10.71-8.47l60.38-255.63a11 11 0 0 0-10.7-13.53z" fill="#5b37f0"/>
    <g id="Question_marks" fill="#ff5361" data-name="Question marks">
     <path class="cls-4" d="m1283.5 643.11a42 42 0 0 1-41.86-45.45c1.5-18.12 1.7-29.28 3.57-37.69 2.56-11.56 25-27.47 51-46.71q20.51-15.06 28.53-28.05t8-32.22q0-23.73-15.07-37.35t-36.5-13.64q-42.57 0-57.17 45.09a43.34 43.34 0 0 1-47.42 29.26 43.15 43.15 0 0 1-33.94-58.68q13.93-35.24 39.94-57.67 43.11-37.18 105.32-37.19 63.48 0 106.44 36.55t43 92.66q0 69.57-71.49 116.38-31.11 20.52-37.67 32.06a38.67 38.67 0 0 0-3.7 10 42.2 42.2 0 0 1-40.94 32.6zm5.68 125.36h-3.84a48.42 48.42 0 0 1-48.42-48.41 48.42 48.42 0 0 1 48.42-48.42h3.84a48.41 48.41 0 0 1 48.41 48.42 48.41 48.41 0 0 1-48.41 48.41z"/>
     <path class="cls-4" d="m295.88 233.64a10.18 10.18 0 0 1-13.68-6.07 90.19 90.19 0 0 1-2.83-8.71c-0.54-2.81 2.9-8.5 6.84-15.28a26.58 26.58 0 0 0 3.64-9 14.69 14.69 0 0 0-1.32-7.93 11.59 11.59 0 0 0-6.95-6.84 12.69 12.69 0 0 0-9.42 0.49q-9.46 4.1-8.36 15.52a10.5 10.5 0 0 1-7.71 11.06 10.45 10.45 0 0 1-13.19-9.77 35.08 35.08 0 0 1 3.32-16.65q6-12.4 19.81-18.39 14.1-6.12 27.16-2.13a28.2 28.2 0 0 1 18.45 16.44q6.71 15.45-4.67 32.73-4.94 7.55-5.29 10.74a9.59 9.59 0 0 0 0.15 2.59 10.21 10.21 0 0 1-5.95 11.18zm13.32 27.29-0.85 0.37a11.71 11.71 0 0 1-15.41-6.09 11.71 11.71 0 0 1 6.06-15.41l0.85-0.37a11.71 11.71 0 0 1 15.41 6.09 11.71 11.71 0 0 1-6.06 15.41z"/>
     <path class="cls-4" d="m349.08 105.6a13.87 13.87 0 0 1-13-15.75c0.83-5.95 1.1-9.62 1.87-12.36 1-3.76 8.72-8.6 17.67-14.46q7-4.59 9.92-8.73a20 20 0 0 0 3.23-10.47q0.43-7.83-4.29-12.59a17.35 17.35 0 0 0-11.8-5.16q-14-0.78-19.66 13.82a14.32 14.32 0 0 1-16.17 8.78 14.24 14.24 0 0 1-10.11-20 47.84 47.84 0 0 1 14.26-18.24q14.88-11.44 35.38-10.34 20.92 1.16 34.42 14t12.47 31.33q-1.27 22.93-25.7 37.04-10.62 6.21-13 9.88a13.12 13.12 0 0 0-1.4 3.25 13.94 13.94 0 0 1-14.09 10zm-0.41 41.4h-1.27a16 16 0 0 1-15.08-16.84 16 16 0 0 1 16.84-15.16l1.27 0.07a16 16 0 0 1 15.08 16.93 16 16 0 0 1-16.84 15z"/>
    </g>
    <line id="line" class="cls-1" x1="3" x2="1516.4" y1="825.05" y2="825.05" stroke="#2e186a"/>
   </g>
  </g>
 </g>
</svg>
