<?xml version="1.0" encoding="UTF-8" standalone="no"?>
<svg
   xmlns:dc="http://purl.org/dc/elements/1.1/"
   xmlns:cc="http://creativecommons.org/ns#"
   xmlns:rdf="http://www.w3.org/1999/02/22-rdf-syntax-ns#"
   xmlns:svg="http://www.w3.org/2000/svg"
   xmlns="http://www.w3.org/2000/svg"
   xmlns:sodipodi="http://sodipodi.sourceforge.net/DTD/sodipodi-0.dtd"
   xmlns:inkscape="http://www.inkscape.org/namespaces/inkscape"
   viewBox="0 0 870.00003 530.00001"
   version="1.1"
   id="svg86"
   sodipodi:docname="faq.svg"
   inkscape:version="1.0.1 (unknown)"
   width="870"
   height="530">
  <metadata
     id="metadata90">
    <rdf:RDF>
      <cc:Work
         rdf:about="">
        <dc:format>image/svg+xml</dc:format>
        <dc:type
           rdf:resource="http://purl.org/dc/dcmitype/StillImage" />
        <dc:title></dc:title>
      </cc:Work>
    </rdf:RDF>
  </metadata>
  <sodipodi:namedview
     pagecolor="#ffffff"
     bordercolor="#666666"
     borderopacity="1"
     objecttolerance="10"
     gridtolerance="10"
     guidetolerance="10"
     inkscape:pageopacity="0"
     inkscape:pageshadow="2"
     inkscape:window-width="1366"
     inkscape:window-height="703"
     id="namedview88"
     showgrid="false"
     inkscape:zoom="0.99548016"
     inkscape:cx="426.01521"
     inkscape:cy="242.42567"
     inkscape:window-x="0"
     inkscape:window-y="0"
     inkscape:window-maximized="1"
     inkscape:current-layer="FAQ"
     inkscape:document-rotation="0" />
  <defs
     id="defs4">
    <style
       id="style2">.cls-1,.cls-2{fill:none;}.cls-1,.cls-2,.cls-5{stroke:#2e186a;stroke-linecap:round;stroke-linejoin:round;}.cls-1,.cls-5{stroke-width:6px;}.cls-2{stroke-width:8px;}.cls-3{fill:#2e186a;}.cls-4{fill:#fe7624;}.cls-5{fill:#fff;}</style>
  </defs>
  <g
     id="Layer_2"
     data-name="Layer 2">
    <g
       id="outline"
       transform="matrix(0.57257939,0,0,0.57257939,2.6039868e-6,27.885281)">
      <g
         id="FAQ">
        <path
           id="chair"
           class="cls-1"
           d="M 148.08,825.23 V 470 A 139.09,139.09 0 0 1 287.17,331 H 396.1"
           style="stroke:#2e186a;stroke-opacity:1" />
        <g
           id="man"
           style="display:inline">
          <g
             id="hoodie">
            <path
               class="cls-2"
               d="m 553,515.4 c 0,0 11.87,35.55 13.61,52.76"
               id="path7"
               style="stroke:#2e186a;stroke-opacity:1" />
            <path
               class="cls-2"
               d="m 699.12,502.53 a 524.19,524.19 0 0 0 1.11,67.13"
               id="path9"
               style="stroke:#2e186a;stroke-opacity:1" />
            <path
               class="cls-1"
               d="M 810.86,389.63 C 815,393.9 816.6,453 854,452.3"
               id="path11"
               style="stroke:#2e186a;stroke-opacity:1" />
            <path
               id="shape"
               class="cls-3"
               d="m 406.66,407.82 c -16.38,7.23 -40,21.28 -59,50.38 26.78,-11 118.93,71.4 184.25,52.71 C 501.54,507.69 436.46,460 406.66,407.82 Z"
               style="fill:#5b37f0;fill-opacity:1" />
            <path
               class="cls-1"
               d="m 459.88,276.35 c -79.26,37.73 -80.35,90.76 -53.41,136.87 -14.14,2.23 -48.36,21.5 -120.78,123.76 -104.26,147.21 -99.26,284.57 103.54,288.07"
               id="path14"
               style="stroke:#2e186a;stroke-opacity:1" />
            <path
               class="cls-1"
               d="m 776.76,603.85 v -0.58 c 238.93,22.71 232,-81.37 207,-186 L 921,209.75 c -9.25,-20.18 -17.52,-11.54 -21,-17.85 -8.05,-14.74 -11.25,-21.21 -11.25,-21.21 -29.36,24.87 -88,14 -88,14 0,0 -0.5,5.37 -0.91,21.79 -0.41,16.42 -18.7,14 -16.55,35.82 l 27.5,147.32 -76.41,-16.29 c -4.89,-26.75 -17.35,-67.34 -47.31,-93"
               id="path16"
               style="stroke:#2e186a;stroke-opacity:1" />
            <line
               class="cls-1"
               x1="787.91998"
               y1="824.52002"
               x2="786.67999"
               y2="738.97998"
               id="line18"
               style="stroke:#2e186a;stroke-opacity:1" />
            <path
               id="shape-2"
               data-name="shape"
               class="cls-3"
               d="m 770.09,380.94 c -12.06,-5 -28.15,-6.87 -38.68,-8.56 a 138.72,138.72 0 0 1 2.6,30.46 c -2.27,52.68 -22.88,73.24 -27.79,92.64 63.35,-23.35 68.29,-85.13 63.87,-114.54 z"
               style="fill:#5b37f0;fill-opacity:1" />
          </g>
          <g
             id="shirt">
            <path
               class="cls-4"
               d="m 675.14,688.87 c -1.33,11.14 -3.89,15.82 -29.95,29.22 -6.65,3.42 -20.66,10.84 -39.43,20.25 3.89,48.09 6,83.46 6,83.46 l 78.11,1.09 c 0,0 -2.16,-80.39 -3.85,-162.06 -4.33,8.76 -10.08,21.26 -10.88,28.04 z"
               id="path22"
               style="fill:#ff5361;fill-opacity:1" />
            <path
               class="cls-4"
               d="m 684.27,503 c 1,-43.09 -15.5,-85.36 -31.45,-113.64 -2.58,39.34 -11,84.94 -19.9,99.81 -42,-29.13 -73.5,-45.83 -98.68,-59.13 -15.91,-25.65 -29.34,-48.52 -35.14,-65.11 0.08,-2.51 0.16,-5.06 0.24,-7.62 l -2.74,0.27 c 7,23.07 22.1,55.87 53.36,99.93 a 208.34,208.34 0 0 1 17.51,23.62 v 0 c 7.46,11.69 14.3,44.76 20.25,86 34.77,-4.83 61.71,-5.78 66.6,1.63 l 30.21,5.78 c -1.12,-57.6 -0.79,-48.02 -0.26,-71.54 z"
               id="path24"
               style="fill:#ff5361;fill-opacity:1" />
          </g>
          <g
             id="hand_II"
             data-name="hand II">
            <g
               id="hand_II-2"
               data-name="hand II">
              <line
                 class="cls-1"
                 x1="724.48999"
                 y1="648.78998"
                 x2="678.02002"
                 y2="658.29999"
                 id="line27"
                 style="stroke:#2e186a;stroke-opacity:1" />
              <path
                 class="cls-1"
                 d="m 779.63,715.52 c 3.9,15 12.52,43.86 19,43.46 9.2,-0.57 4.28,-58.18 3,-75.86 -0.63,-9.07 -7,-38.25 -12.2,-53 -6.79,-19.3 -37.74,-78.07 -100.68,-56.63 l -45.47,11.13"
                 id="path29"
                 style="stroke:#2e186a;stroke-opacity:1" />
              <path
                 class="cls-1"
                 d="m 727,637.07 c -1,10.23 -7,31.74 0.83,45.87"
                 id="path31"
                 style="stroke:#2e186a;stroke-opacity:1" />
              <path
                 class="cls-1"
                 d="m 787.92,682 c 0,0 -4.91,41.78 -18.87,45 -13.96,3.22 -14.85,-8.56 -14.85,-8.56"
                 id="path33"
                 style="stroke:#2e186a;stroke-opacity:1" />
              <path
                 class="cls-1"
                 d="m 771.17,680.57 c 0,0 -7.54,36.83 -21.71,39 -14.17,2.17 -14.17,-9.57 -14.17,-9.57"
                 id="path35"
                 style="stroke:#2e186a;stroke-opacity:1" />
              <path
                 class="cls-1"
                 d="m 750.5,678.3 c 0,0 -9.79,44.15 -25.51,27.41 -15.72,-16.74 -14.06,-25.27 -14.06,-25.27 0,0 7.56,-12.13 19.68,7.24"
                 id="path37"
                 style="stroke:#2e186a;stroke-opacity:1" />
            </g>
            <path
               id="welt_II"
               data-name="welt II"
               class="cls-3"
               d="m 675.77,681.84 c -35.35,-28.68 -47.34,-100.91 -32.4,-116.72 0.6,-5 12.08,3.45 19,4.22 16.7,1.86 23.9,2.37 23.9,2.37 -6.77,20.82 0.77,46 8.52,63.91 a 193,193 0 0 0 11.52,23 c -1.33,0.67 -6.7,3.32 -19.47,8.92 -7.36,3.27 -8.92,8.79 -11.07,14.3 z"
               style="fill:#5b37f0;fill-opacity:1" />
            <path
               class="cls-1"
               d="m 396.1,573.38 c 15.61,-5.17 57.64,-12.33 70.46,17.27"
               id="path41"
               style="stroke:#2e186a;stroke-opacity:1" />
            <path
               id="lines"
               class="cls-1"
               d="m 396.1,607.24 c 0,0 242.55,-62.3 258.23,-38.52 l 36.83,82.35 c 0,0 -14.7,26.65 -16,37.8 -1.3,11.15 -3.89,15.82 -29.95,29.22 -26.06,13.4 -162.21,91.61 -259.8,106.96"
               style="stroke:#2e186a;stroke-opacity:1" />
          </g>
          <g
             id="head">
            <path
               id="neck"
               class="cls-1"
               d="m 500.92,309.2 c -0.53,15.6 -1.23,36.72 -1.82,55.71 5.8,16.59 19.23,39.46 35.14,65.11 25.18,13.3 56.65,30 98.68,59.13 9,-14.87 17.32,-60.47 19.9,-99.81"
               style="stroke:#2e186a;stroke-opacity:1" />
            <path
               id="ear"
               class="cls-1"
               d="m 488.12,236 c -7.53,0.67 -35.71,5.17 -29.74,35 4.74,23.73 26.43,21.62 39.42,18"
               style="stroke:#2e186a;stroke-opacity:1" />
            <path
               id="face"
               class="cls-1"
               d="m 686.57,180.12 c 5.34,40.73 2.87,84.45 -1.31,117"
               style="stroke:#2e186a;stroke-opacity:1" />
            <path
               id="face-2"
               data-name="face"
               class="cls-1"
               d="m 685.26,297.08 c -1.75,13.7 -3.81,25.41 -5.72,34.06"
               style="stroke:#2e186a;stroke-opacity:1" />
            <path
               id="beard"
               class="cls-1"
               d="m 510.29,243.13 c 6.31,6.38 23.23,43.16 27.36,60.31 0,0 41.87,-14.41 101.86,-15.29 0,0 32.71,0.67 45.75,4.63 0,0 -2.82,60.73 -29.34,92.18 -26.52,31.45 -82.59,22.65 -108.92,3.74 -26.33,-18.91 -30.65,-27.93 -36.74,-48.16 -6.09,-20.23 -22.17,-95.65 -22.17,-95.65 z"
               style="stroke:#2e186a;stroke-opacity:1" />
            <path
               id="mouth"
               class="cls-5"
               d="m 623,340.66 c 0,0 16.35,-3.25 23,3.25"
               style="stroke:#2e186a;stroke-opacity:1" />
            <polyline
               id="nose"
               class="cls-1"
               points="643.84 264.77 649.92 317.68 631.26 312.91"
               style="stroke:#2e186a;stroke-opacity:1" />
            <path
               id="brow_II"
               data-name="brow II"
               class="cls-1"
               d="m 587.67,226 a 24.86,24.86 0 0 1 23.53,-9.25"
               style="stroke:#2e186a;stroke-opacity:1" />
            <path
               id="brow"
               class="cls-1"
               d="m 661,215.83 c 0,0 15,-3.9 18.79,8.39"
               style="stroke:#2e186a;stroke-opacity:1" />
            <path
               id="hair"
               class="cls-3"
               d="m 721,171.54 c -1.32,-3.86 0.18,-8.56 2.94,-13.29 l -0.72,-0.81 -3.39,9.5 c 0,0 -10.61,4.57 -14.11,-9 -1.08,-4.15 1.37,-9.21 5.27,-14.22 l -0.11,-0.13 c -14.75,3.42 -43.57,9 -46.17,3.2 -3.67,-8.21 48.33,-30 64.17,-37 8.12,-3.55 36.22,-11.26 51.36,-13.46 A 131.24,131.24 0 0 1 810.51,96 44.29,44.29 0 0 0 805.33,69.05 c -4.91,-9.06 -15.17,-22.53 -24.28,-27.36 -90.29,-47.89 -134.34,33 -134.34,33 0,0 -12.71,-34.69 -53.85,-35.93 a 61.36,61.36 0 0 0 -45.09,18 c -33.69,33.77 -11.23,72 -11.23,72 0,0 -15.69,-8 -36.85,2.21 -25.28,12.23 -38,40.86 -31.43,68.17 7,29 19.86,56.61 19.86,56.61 82.16,12.72 103.16,-67.95 91.06,-78.36 18.22,13.48 51,22.51 106.52,16.93 C 698.41,193 714,188 729.87,180.42 726.8,180 723.23,178 721,171.54 Z"
               style="fill:#5b37f0;fill-opacity:1" />
          </g>
          <g
             id="hand">
            <g
               id="hand-2"
               data-name="hand">
              <polyline
                 class="cls-1"
                 points="798.07 163.8 811.14 216.41 885.39 194.45"
                 id="polyline58"
                 style="stroke:#2e186a;stroke-opacity:1" />
              <path
                 class="cls-1"
                 d="m 710.92,143.63 c -14.75,3.42 -43.57,9 -46.17,3.2 -3.67,-8.21 48.33,-30 64.17,-37 8.12,-3.55 36.22,-11.26 51.36,-13.46 19.75,-2.85 91.55,-4.67 101.5,59.42 l 10.63,39.63 -70.62,20.94"
                 id="path60"
                 style="stroke:#2e186a;stroke-opacity:1" />
              <path
                 class="cls-1"
                 d="m 818.05,153.68 c -8.37,5.52 -39.78,20.38 -55.55,20"
                 id="path62"
                 style="stroke:#2e186a;stroke-opacity:1" />
              <path
                 class="cls-1"
                 d="m 736.13,121.3 c 0,0 -33.88,23.15 -30.37,36.7 3.51,13.55 14.11,9 14.11,9"
                 id="path64"
                 style="stroke:#2e186a;stroke-opacity:1" />
              <path
                 class="cls-1"
                 d="m 744.94,135.13 c 0,0 -28.41,23.18 -23.9,36.41 4.51,13.23 14.74,7.89 14.74,7.89"
                 id="path66"
                 style="stroke:#2e186a;stroke-opacity:1" />
              <path
                 class="cls-1"
                 d="m 756.26,152 c 0,0 -33.72,28.43 -12.15,34.44 21.57,6.01 28.2,0.73 28.2,0.73 0,0 7.06,-12 -15.16,-13.74"
                 id="path68"
                 style="stroke:#2e186a;stroke-opacity:1" />
            </g>
            <path
               id="welt"
               class="cls-3"
               d="m 790.9,222.17 c 14.19,18.81 110.33,4.64 126.15,-19.66 -7.58,-10.4 -13.62,-4.47 -17,-10.61 -8.05,-14.74 -11.25,-21.21 -11.25,-21.21 -16.7,14.15 -42.89,16.73 -62.37,16.33 a 194.54,194.54 0 0 1 -25.67,-1.93 c -0.12,1.49 -0.53,7.46 -0.88,21.4 -0.17,8.07 -4.69,11.6 -8.98,15.68 z"
               style="fill:#5b37f0;fill-opacity:1" />
          </g>
        </g>
        <path
           id="laptop"
           class="cls-3"
           d="M 1315.57,545.92 H 926.76 a 11,11 0 0 0 -10.71,8.47 L 862,783.21 H 721.06 c 0,0 -7.81,40.34 37.74,40.34 h 496.38 a 11,11 0 0 0 10.71,-8.47 l 60.38,-255.63 a 11,11 0 0 0 -10.7,-13.53 z"
           style="fill:#5b37f0;fill-opacity:1" />
        <g
           id="Question_marks"
           data-name="Question marks">
          <path
             class="cls-4"
             d="m 1283.5,643.11 a 42,42 0 0 1 -41.86,-45.45 c 1.5,-18.12 1.7,-29.28 3.57,-37.69 2.56,-11.56 25,-27.47 51,-46.71 q 20.51,-15.06 28.53,-28.05 8.02,-12.99 8,-32.22 0,-23.73 -15.07,-37.35 -15.07,-13.62 -36.5,-13.64 -42.57,0 -57.17,45.09 a 43.34,43.34 0 0 1 -47.42,29.26 v 0 a 43.15,43.15 0 0 1 -33.94,-58.68 q 13.93,-35.24 39.94,-57.67 43.11,-37.18 105.32,-37.19 63.48,0 106.44,36.55 42.96,36.55 43,92.66 0,69.57 -71.49,116.38 -31.11,20.52 -37.67,32.06 a 38.67,38.67 0 0 0 -3.7,10 42.2,42.2 0 0 1 -40.94,32.6 z m 5.68,125.36 h -3.84 a 48.42,48.42 0 0 1 -48.42,-48.41 v 0 a 48.42,48.42 0 0 1 48.42,-48.42 h 3.84 a 48.41,48.41 0 0 1 48.41,48.42 v 0 a 48.41,48.41 0 0 1 -48.41,48.41 z"
             id="path75"
             style="fill:#ff5361;fill-opacity:1" />
          <path
             class="cls-4"
             d="m 295.88,233.64 a 10.18,10.18 0 0 1 -13.68,-6.07 90.19,90.19 0 0 1 -2.83,-8.71 c -0.54,-2.81 2.9,-8.5 6.84,-15.28 a 26.58,26.58 0 0 0 3.64,-9 14.69,14.69 0 0 0 -1.32,-7.93 11.59,11.59 0 0 0 -6.95,-6.84 12.69,12.69 0 0 0 -9.42,0.49 q -9.46,4.1 -8.36,15.52 a 10.5,10.5 0 0 1 -7.71,11.06 v 0 a 10.45,10.45 0 0 1 -13.19,-9.77 35.08,35.08 0 0 1 3.32,-16.65 q 6,-12.4 19.81,-18.39 14.1,-6.12 27.16,-2.13 a 28.2,28.2 0 0 1 18.45,16.44 q 6.71,15.45 -4.67,32.73 -4.94,7.55 -5.29,10.74 a 9.59,9.59 0 0 0 0.15,2.59 10.21,10.21 0 0 1 -5.95,11.18 z m 13.32,27.29 -0.85,0.37 a 11.71,11.71 0 0 1 -15.41,-6.09 v 0 A 11.71,11.71 0 0 1 299,239.8 l 0.85,-0.37 a 11.71,11.71 0 0 1 15.41,6.09 v 0 a 11.71,11.71 0 0 1 -6.06,15.41 z"
             id="path77"
             style="fill:#ff5361;fill-opacity:1" />
          <path
             class="cls-4"
             d="m 349.08,105.6 a 13.87,13.87 0 0 1 -13,-15.75 c 0.83,-5.95 1.1,-9.62 1.87,-12.36 1,-3.76 8.72,-8.6 17.67,-14.46 q 7,-4.59 9.92,-8.73 a 20,20 0 0 0 3.23,-10.47 Q 369.2,36 364.48,31.24 a 17.35,17.35 0 0 0 -11.8,-5.16 q -14,-0.78 -19.66,13.82 a 14.32,14.32 0 0 1 -16.17,8.78 v 0 A 14.24,14.24 0 0 1 306.74,28.68 47.84,47.84 0 0 1 321,10.44 Q 335.88,-1 356.38,0.1 q 20.92,1.16 34.42,14 13.5,12.84 12.47,31.33 -1.27,22.93 -25.7,37.04 -10.62,6.21 -13,9.88 a 13.12,13.12 0 0 0 -1.4,3.25 13.94,13.94 0 0 1 -14.09,10 z m -0.41,41.4 h -1.27 a 16,16 0 0 1 -15.08,-16.84 v 0 A 16,16 0 0 1 349.16,115 l 1.27,0.07 A 16,16 0 0 1 365.51,132 v 0 a 16,16 0 0 1 -16.84,15 z"
             id="path79"
             style="fill:#ff5361;fill-opacity:1" />
        </g>
        <line
           id="line"
           class="cls-1"
           x1="3"
           y1="825.04999"
           x2="1516.4399"
           y2="825.04999"
           style="stroke:#2e186a;stroke-opacity:1" />
      </g>
    </g>
  </g>
</svg>
