<?xml version="1.0" encoding="UTF-8" standalone="no"?>
<svg
   xmlns:dc="http://purl.org/dc/elements/1.1/"
   xmlns:cc="http://creativecommons.org/ns#"
   xmlns:rdf="http://www.w3.org/1999/02/22-rdf-syntax-ns#"
   xmlns:svg="http://www.w3.org/2000/svg"
   xmlns="http://www.w3.org/2000/svg"
   xmlns:sodipodi="http://sodipodi.sourceforge.net/DTD/sodipodi-0.dtd"
   xmlns:inkscape="http://www.inkscape.org/namespaces/inkscape"
   id="SVGRoot"
   width="512"
   height="512"
   version="1.1"
   viewBox="0 0 512 512"
   sodipodi:docname="fav.svg"
   inkscape:version="1.0.1 (unknown)">
  <path
     id="rect836"
     style="fill:#5b37f0;fill-opacity:1;fill-rule:evenodd;stroke-width:0.759246px;paint-order:stroke fill markers;stop-color:#000000"
     d="M 257.93359 512 C 256.73485 506.6984 255.37699 501.31581 253.75391 495.87109 C 252.02432 490.06909 250.03695 484.21382 247.75586 478.36523 C 245.47477 472.51665 242.90055 466.67594 239.99609 460.90039 C 238.54387 458.01261 237.01021 455.14006 235.38867 452.29297 C 233.76713 449.44588 232.05765 446.62348 230.25781 443.83203 C 228.45797 441.04058 226.5672 438.28141 224.58008 435.56055 C 222.59295 432.83969 220.50956 430.1568 218.32617 427.52148 C 216.14278 424.88617 213.85934 422.29654 211.4707 419.76172 C 209.08207 417.22689 206.5892 414.7475 203.98633 412.32812 C 201.38346 409.90875 198.66983 407.5507 195.84375 405.26172 C 193.01767 402.97274 190.07781 400.753 187.01953 398.60938 C 183.96125 396.46575 180.78579 394.39739 177.48633 392.41406 C 174.18687 390.43074 170.76447 388.53268 167.21484 386.72461 C 163.66522 384.91654 160.14025 383.22627 156.64258 381.64844 C 153.14491 380.07061 149.67433 378.60489 146.23242 377.24609 C 142.79052 375.88729 139.37648 374.63535 135.99414 373.48438 C 132.6118 372.3334 129.26037 371.28249 125.94141 370.32812 C 119.30347 368.4194 112.79717 366.89265 106.43555 365.70312 C 100.07393 364.5136 93.857608 363.66156 87.802734 363.10156 C 81.747861 362.54157 75.854411 362.27404 70.136719 362.25391 C 64.419027 362.23377 58.87742 362.46057 53.527344 362.89062 C 48.177268 363.32068 43.018431 363.95357 38.066406 364.74414 C 33.114382 365.53471 28.369242 366.48351 23.845703 367.54492 C 19.322164 368.60633 15.019696 369.78085 10.955078 371.02344 C 7.0718889 372.21056 3.4371647 373.46387 0 374.73633 L 0 416.12891 C -9.4739031e-15 469.24165 42.758356 512 95.871094 512 L 257.93359 512 z " />
  <path
     id="path1258"
     style="fill:#ff7800;fill-opacity:1;fill-rule:evenodd;stroke-width:0.759246px;paint-order:stroke fill markers;stop-color:#000000"
     d="M 153.11133 278.9668 C 146.9143 278.81991 140.77727 278.92419 134.70703 279.25977 C 128.63679 279.59534 122.6332 280.16285 116.70117 280.93945 C 110.76915 281.71606 104.90934 282.70269 99.126953 283.87891 C 93.344569 285.05513 87.638893 286.42066 82.017578 287.95508 C 76.396263 289.48949 70.858974 291.19178 65.410156 293.04297 C 59.961339 294.89416 54.600828 296.89299 49.335938 299.01953 C 44.071046 301.14607 38.901569 303.40125 33.832031 305.76172 C 28.762494 308.12219 23.794396 310.58959 18.931641 313.14258 C 14.068885 315.69556 9.3125133 318.33303 4.6679688 321.03711 C 3.0729099 321.96576 1.5684174 322.93962 0 323.88281 L 0 374.73633 C 3.4371647 373.46387 7.0718889 372.21056 10.955078 371.02344 C 15.019696 369.78085 19.322164 368.60633 23.845703 367.54492 C 28.369242 366.48351 33.114382 365.53471 38.066406 364.74414 C 43.018431 363.95357 48.177268 363.32068 53.527344 362.89062 C 58.87742 362.46057 64.419027 362.23377 70.136719 362.25391 C 75.854411 362.27404 81.747861 362.54157 87.802734 363.10156 C 93.857608 363.66156 100.07393 364.5136 106.43555 365.70312 C 112.79717 366.89265 119.30347 368.4194 125.94141 370.32812 C 129.26037 371.28249 132.6118 372.3334 135.99414 373.48438 C 139.37648 374.63535 142.79052 375.88729 146.23242 377.24609 C 149.67433 378.60489 153.14491 380.07061 156.64258 381.64844 C 160.14025 383.22627 163.66522 384.91654 167.21484 386.72461 C 170.76447 388.53268 174.18687 390.43074 177.48633 392.41406 C 180.78579 394.39739 183.96125 396.46575 187.01953 398.60938 C 190.07781 400.753 193.01767 402.97274 195.84375 405.26172 C 198.66983 407.5507 201.38346 409.90875 203.98633 412.32812 C 206.5892 414.7475 209.08207 417.22689 211.4707 419.76172 C 213.85934 422.29654 216.14278 424.88617 218.32617 427.52148 C 220.50956 430.1568 222.59295 432.83969 224.58008 435.56055 C 226.5672 438.28141 228.45797 441.04058 230.25781 443.83203 C 232.05765 446.62348 233.76713 449.44588 235.38867 452.29297 C 237.01021 455.14006 238.54387 458.01261 239.99609 460.90039 C 242.90055 466.67594 245.47477 472.51665 247.75586 478.36523 C 250.03695 484.21382 252.02432 490.06909 253.75391 495.87109 C 255.37699 501.31581 256.73485 506.6984 257.93359 512 L 416.12891 512 C 450.38825 512 480.25832 494.15361 497.20508 467.26953 C 491.01067 464.11594 484.80247 460.95113 478.08594 457.25 C 469.26567 452.3896 459.99156 447.03954 450.25391 441.14844 C 440.51625 435.25734 430.31493 428.82658 419.64062 421.80664 C 408.96634 414.7867 397.8177 407.17661 386.1875 398.92969 C 374.5573 390.68276 362.4452 381.79861 349.83984 372.22656 C 337.23449 362.65451 324.13688 352.39571 310.53711 341.40039 C 303.73722 335.90273 296.95203 330.82056 290.1875 326.13672 C 283.42297 321.45288 276.67868 317.1673 269.96094 313.25586 C 263.2432 309.34442 256.5521 305.80742 249.89258 302.62695 C 243.23305 299.44649 236.60551 296.62177 230.01562 294.13086 C 223.42575 291.63995 216.87404 289.48341 210.36523 287.64062 C 203.85643 285.79785 197.39092 284.26926 190.97461 283.0332 C 184.5583 281.79715 178.19129 280.85435 171.87891 280.18359 C 165.56653 279.51283 159.30835 279.11368 153.11133 278.9668 z " />
  <path
     id="path1253"
     style="fill:#e83e8c;fill-opacity:1;fill-rule:evenodd;stroke-width:0.759246px;paint-order:stroke fill markers;stop-color:#000000"
     d="M 182.80664 130.05273 C 175.97612 130.11276 169.28201 130.36081 162.72266 130.78516 C 156.1633 131.2095 149.73809 131.80902 143.44922 132.56836 C 137.16034 133.3277 131.00735 134.2475 124.98828 135.3125 C 118.96922 136.3775 113.08392 137.58836 107.33398 138.92969 C 101.58405 140.27102 95.969758 141.7437 90.488281 143.33203 C 85.006805 144.92036 79.659008 146.62369 74.445312 148.42969 C 69.231617 150.23568 64.151669 152.14434 59.205078 154.13867 C 54.258487 156.13301 49.445787 158.21384 44.765625 160.36719 C 40.085463 162.52053 35.537455 164.74628 31.123047 167.0293 C 26.708639 169.31232 22.426674 171.65179 18.277344 174.03516 C 14.128013 176.41852 10.111491 178.84444 6.2265625 181.29883 C 4.0781307 182.65615 2.0677309 184.03809 0 185.41016 L 0 323.88281 C 1.5684174 322.93962 3.0729099 321.96576 4.6679688 321.03711 C 9.3125134 318.33303 14.068885 315.69556 18.931641 313.14258 C 23.794396 310.58959 28.762494 308.12219 33.832031 305.76172 C 38.901569 303.40125 44.071046 301.14607 49.335938 299.01953 C 54.600829 296.89299 59.961339 294.89416 65.410156 293.04297 C 70.858974 291.19178 76.396263 289.48949 82.017578 287.95508 C 87.638893 286.42066 93.344569 285.05513 99.126953 283.87891 C 104.90934 282.70269 110.76915 281.71606 116.70117 280.93945 C 122.6332 280.16285 128.63679 279.59534 134.70703 279.25977 C 140.77727 278.92419 146.9143 278.81991 153.11133 278.9668 C 159.30835 279.11368 165.56653 279.51283 171.87891 280.18359 C 178.19129 280.85435 184.5583 281.79715 190.97461 283.0332 C 197.39092 284.26926 203.85643 285.79785 210.36523 287.64062 C 216.87404 289.4834 223.42575 291.63995 230.01562 294.13086 C 236.6055 296.62177 243.23305 299.44649 249.89258 302.62695 C 256.5521 305.80742 263.2432 309.34442 269.96094 313.25586 C 276.67868 317.1673 283.42297 321.45288 290.1875 326.13672 C 296.95203 330.82056 303.73722 335.90273 310.53711 341.40039 C 324.13688 352.39571 337.23449 362.65451 349.83984 372.22656 C 362.4452 381.79861 374.5573 390.68276 386.1875 398.92969 C 397.8177 407.17661 408.96633 414.7867 419.64062 421.80664 C 430.31492 428.82658 440.51625 435.25734 450.25391 441.14844 C 459.99156 447.03954 469.26567 452.3896 478.08594 457.25 C 484.80247 460.95113 491.01067 464.11594 497.20508 467.26953 C 506.53112 452.47485 512 434.9823 512 416.12891 L 512 182.79883 C 511.86394 182.80414 511.73778 182.81708 511.60156 182.82227 C 505.87015 183.04032 499.99473 183.14146 493.97266 183.11523 C 487.95059 183.08901 481.78297 182.93424 475.4668 182.64258 C 469.15062 182.35091 462.686 181.922 456.07227 181.34375 C 449.45853 180.7655 442.69405 180.03832 435.7793 179.15234 C 428.86454 178.26637 421.79931 177.22071 414.58008 176.00586 C 407.36085 174.79101 399.98809 173.40667 392.46094 171.8418 C 384.93378 170.27692 377.2526 168.53175 369.41406 166.5957 C 361.57552 164.65965 353.57916 162.53345 345.42578 160.20508 C 337.2724 157.87671 328.9619 155.3473 320.49023 152.60547 C 312.01856 149.86363 303.68474 147.3988 295.48828 145.19727 C 287.29183 142.99573 279.23246 141.05579 271.31055 139.36523 C 263.38863 137.67468 255.60313 136.23235 247.95508 135.02344 C 240.30703 133.81452 232.79674 132.84059 225.42188 132.08398 C 218.04701 131.32738 210.80743 130.7887 203.70508 130.45508 C 196.60272 130.12145 189.63716 129.99271 182.80664 130.05273 z " />
  <path
     id="path1250"
     style="fill:#5b37f0;fill-opacity:1;fill-rule:evenodd;stroke-width:0.759246px;paint-order:stroke fill markers;stop-color:#000000"
     d="M 95.871094 0 C 42.758356 -9.4739031e-15 5.9339519e-16 42.758356 0 95.871094 L 0 185.41016 C 2.0677309 184.03809 4.0781307 182.65615 6.2265625 181.29883 C 10.111491 178.84444 14.128013 176.41852 18.277344 174.03516 C 22.426674 171.65179 26.708639 169.31232 31.123047 167.0293 C 35.537455 164.74628 40.085463 162.52053 44.765625 160.36719 C 49.445787 158.21384 54.258487 156.13301 59.205078 154.13867 C 64.151669 152.14434 69.231617 150.23568 74.445312 148.42969 C 79.659008 146.62369 85.006805 144.92036 90.488281 143.33203 C 95.969758 141.7437 101.58405 140.27102 107.33398 138.92969 C 113.08392 137.58836 118.96922 136.3775 124.98828 135.3125 C 131.00735 134.2475 137.16034 133.3277 143.44922 132.56836 C 149.73809 131.80902 156.1633 131.2095 162.72266 130.78516 C 169.28201 130.36081 175.97612 130.11276 182.80664 130.05273 C 189.63716 129.99271 196.60272 130.12145 203.70508 130.45508 C 210.80743 130.7887 218.04701 131.32738 225.42188 132.08398 C 232.79674 132.84059 240.30703 133.81452 247.95508 135.02344 C 255.60313 136.23235 263.38863 137.67468 271.31055 139.36523 C 279.23246 141.05579 287.29183 142.99573 295.48828 145.19727 C 303.68474 147.3988 312.01856 149.86363 320.49023 152.60547 C 328.9619 155.3473 337.2724 157.87671 345.42578 160.20508 C 353.57916 162.53345 361.57552 164.65965 369.41406 166.5957 C 377.2526 168.53175 384.93378 170.27692 392.46094 171.8418 C 399.98809 173.40667 407.36085 174.79101 414.58008 176.00586 C 421.79931 177.22071 428.86454 178.26637 435.7793 179.15234 C 442.69405 180.03832 449.45853 180.7655 456.07227 181.34375 C 462.686 181.922 469.15062 182.35091 475.4668 182.64258 C 481.78297 182.93424 487.95059 183.08901 493.97266 183.11523 C 499.99473 183.14146 505.87015 183.04032 511.60156 182.82227 C 511.73778 182.81708 511.86394 182.80414 512 182.79883 L 512 95.871094 C 512 42.758356 469.24165 5.9339519e-16 416.12891 0 L 95.871094 0 z " />
  <title
     id="title857">Fav Icon for LangitKetujuh</title>
  <defs
     id="defs11" />
  <sodipodi:namedview
     pagecolor="#ffffff"
     bordercolor="#666666"
     borderopacity="1"
     objecttolerance="10"
     gridtolerance="10"
     guidetolerance="10"
     inkscape:pageopacity="0"
     inkscape:pageshadow="2"
     inkscape:window-width="1366"
     inkscape:window-height="703"
     id="namedview9"
     showgrid="false"
     inkscape:snap-page="true"
     inkscape:object-paths="true"
     inkscape:zoom="1.0820312"
     inkscape:cx="256"
     inkscape:cy="256"
     inkscape:window-x="0"
     inkscape:window-y="0"
     inkscape:window-maximized="1"
     inkscape:current-layer="SVGRoot"
     inkscape:document-rotation="0"
     inkscape:snap-global="false" />
  <metadata
     id="metadata2">
    <rdf:RDF>
      <cc:Work
         rdf:about="">
        <dc:format>image/svg+xml</dc:format>
        <dc:type
           rdf:resource="http://purl.org/dc/dcmitype/StillImage" />
        <dc:title>Fav Icon for LangitKetujuh</dc:title>
        <cc:license
           rdf:resource="http://creativecommons.org/licenses/by-nc-sa/4.0/" />
        <dc:rights>
          <cc:Agent>
            <dc:title>Hervy Qurrotul Ainur Rozi</dc:title>
          </cc:Agent>
        </dc:rights>
        <dc:creator>
          <cc:Agent>
            <dc:title>Hervy Qurrotul Ainur Rozi</dc:title>
          </cc:Agent>
        </dc:creator>
        <dc:date>10 Dec 2020</dc:date>
      </cc:Work>
      <cc:License
         rdf:about="http://creativecommons.org/licenses/by-nc-sa/4.0/">
        <cc:permits
           rdf:resource="http://creativecommons.org/ns#Reproduction" />
        <cc:permits
           rdf:resource="http://creativecommons.org/ns#Distribution" />
        <cc:requires
           rdf:resource="http://creativecommons.org/ns#Notice" />
        <cc:requires
           rdf:resource="http://creativecommons.org/ns#Attribution" />
        <cc:prohibits
           rdf:resource="http://creativecommons.org/ns#CommercialUse" />
        <cc:permits
           rdf:resource="http://creativecommons.org/ns#DerivativeWorks" />
        <cc:requires
           rdf:resource="http://creativecommons.org/ns#ShareAlike" />
      </cc:License>
    </rdf:RDF>
  </metadata>
  <g
     id="g864"
     transform="matrix(4.7088048,0,0,4.7088048,-38.547281,-32.054795)"
     style="fill:#ffffff">
    <path
       id="path851"
       style="font-style:normal;font-variant:normal;font-weight:normal;font-stretch:normal;font-size:113.151px;line-height:1.25;font-family:Allan;-inkscape-font-specification:'Allan, Normal';font-variant-ligatures:normal;font-variant-caps:normal;font-variant-numeric:normal;font-variant-east-asian:normal;fill:#ffffff;fill-opacity:1;stroke:none;stroke-width:1.05785"
       d="m 57.996094,68.150391 c -0.402894,0.0064 -0.79815,0.0687 -1.185547,0.1875 -1.019289,0.30303 -1.873796,0.770685 -2.5625,1.404297 -1.969706,1.887056 -3.505489,4.683423 -4.607422,8.388671 -1.101932,3.705238 -1.452183,6.619016 -1.052734,8.740235 0.344355,1.584028 1.514465,2.630983 3.511718,3.140625 0.881543,0.165291 2.045904,-0.323541 3.492188,-1.466797 1.446284,-1.143255 2.43742,-2.224855 2.974609,-3.244141 0.123968,-0.33058 8.1e-4,-0.640433 -0.371094,-0.929687 L 57.388672,83.875 c -0.303029,-0.17906 -0.583992,-0.152131 -0.845703,0.08203 -1.528933,1.721764 -2.810691,2.776433 -3.84375,3.16211 -1.157033,-0.220383 -1.543879,-1.363568 -1.158203,-3.429688 2.851248,-1.005514 5.262714,-2.514366 7.232422,-4.525391 1.983463,-2.024799 2.982306,-4.172575 2.996093,-6.445312 0.01379,-2.272735 -0.552057,-3.650723 -1.695312,-4.132812 -0.714539,-0.301311 -1.406636,-0.446306 -2.078125,-0.435546 z m -0.277344,2.976562 c 0.661159,0 0.992187,0.57159 0.992188,1.714844 0,1.143255 -0.309847,2.2595 -0.929688,3.347656 -0.606059,1.088157 -1.383571,2.009998 -2.333984,2.767578 -0.936643,0.757582 -2.066357,1.419633 -3.388672,1.984375 0.537189,-2.314057 1.287765,-4.525369 2.251953,-6.632812 0.977966,-2.121218 2.113435,-3.181641 3.408203,-3.181641 z" />
    <path
       style="font-style:normal;font-variant:normal;font-weight:normal;font-stretch:normal;font-size:113.151px;line-height:1.25;font-family:Allan;-inkscape-font-specification:'Allan, Normal';font-variant-ligatures:normal;font-variant-caps:normal;font-variant-numeric:normal;font-variant-east-asian:normal;fill:#ffffff;fill-opacity:1;stroke:none;stroke-width:1.05785"
       d="m 42.574219,57.429688 c -0.674936,-10e-7 -1.094477,0.309852 -1.259766,0.929687 l -7.748047,29.8125 c -0.220386,0.909094 0.193397,1.365234 1.240235,1.365234 h 0.703125 c 0.688706,0 1.115963,-0.309846 1.28125,-0.929687 l 2.416015,-9.44336 2.748047,9.44336 c 0.110188,0.399447 0.24106,0.653473 0.392578,0.763672 0.151514,0.110188 0.440189,0.166015 0.867188,0.166015 h 1.136718 c 0.853997,0 1.150377,-0.37914 0.888672,-1.136718 l -3.285156,-10.332032 7.273438,-8.552734 c 0.330577,-0.358129 0.480675,-0.689156 0.453125,-0.992187 -0.02757,-0.316806 -0.260404,-0.47461 -0.701172,-0.47461 h -1.570313 c -0.537194,0 -0.916328,0.152047 -1.136718,0.455078 l -6.404297,8.03711 4.626953,-18.140625 c 0.165292,-0.647386 -0.15032,-0.970705 -0.949219,-0.970703 z"
       id="path843-6" />
    <path
       id="path845"
       style="font-style:normal;font-variant:normal;font-weight:normal;font-stretch:normal;font-size:113.151px;line-height:1.25;font-family:Allan;-inkscape-font-specification:'Allan, Normal';font-variant-ligatures:normal;font-variant-caps:normal;font-variant-numeric:normal;font-variant-east-asian:normal;fill:#ffffff;fill-opacity:1;stroke:none;stroke-width:1.05785"
       d="m 64.166016,59.019531 c -1.633162,0.365288 -2.288886,2.328145 -1.777344,3.708985 l 23.203125,0.785156 -26.070313,47.474608 c 0.530646,1.33916 1.911359,1.93145 3.277344,1.80078 L 90.332031,62.652344 c 0.670407,-1.220863 -0.182265,-2.72048 -1.574219,-2.769532 z" />
    <path
       id="path841"
       style="font-style:normal;font-variant:normal;font-weight:normal;font-stretch:normal;font-size:113.151px;line-height:1.25;font-family:Allan;-inkscape-font-specification:'Allan, Normal';font-variant-ligatures:normal;font-variant-caps:normal;font-variant-numeric:normal;font-variant-east-asian:normal;fill:#ffffff;fill-opacity:1;stroke:none;stroke-width:1.05785"
       d="m 86.896484,26.347656 -1.445312,0.04102 c -0.426994,0 -0.723382,0.280965 -0.888672,0.845703 -0.867772,-0.537191 -1.770391,-0.804687 -2.707031,-0.804687 -1.694218,0 -3.09914,0.563879 -4.214844,1.693359 -1.115704,1.129482 -2.189593,3.127161 -3.222656,5.992187 -1.019283,2.851245 -1.660167,5.124138 -1.921875,6.81836 -0.247935,1.694218 -0.282569,2.850869 -0.103516,3.470703 0.192841,0.619839 0.510398,1.206849 0.951172,1.757812 0.454546,0.550968 0.922199,0.989734 1.404297,1.320313 0.482094,0.316806 0.834302,0.476562 1.054687,0.476562 h 0.08203 c 0.48209,0 1.101795,-0.352208 1.859375,-1.054687 0.771354,-0.702483 1.468059,-1.576213 2.08789,-2.623047 l -2.02539,7.396484 c -0.289261,1.046832 -0.756918,1.431734 -1.404297,1.15625 L 71.710936,49.94141 c -0.482098,-0.275483 -0.949751,-0.158077 -1.404297,0.351563 l -0.640625,0.888672 c -0.440774,0.674934 -0.323374,1.184942 0.351562,1.529297 l 4.31836,2.4375 c 0.895317,0.509644 1.563132,0.750206 2.003906,0.722656 0.440774,-0.02757 1.052765,-0.281579 1.83789,-0.763672 1.501385,-0.812673 2.617626,-2.535153 3.347657,-5.166016 3.498632,-12.410509 5.571363,-19.910456 6.21875,-22.5 0.137735,-0.757577 -0.145179,-1.121299 -0.847657,-1.09375 z m 6.488282,0 c -0.647384,0 -1.039989,0.280966 -1.177735,0.845703 l -5.164062,19.669922 c -0.16529,0.647383 0.144562,0.970703 0.929687,0.970703 h 1.238282 c 0.674932,4e-6 1.096428,-0.309852 1.261718,-0.929687 l 5.123047,-19.669922 c 0.08265,-0.344354 0.06145,-0.577204 -0.0625,-0.701172 -0.123968,-0.123968 -0.370284,-0.185547 -0.742187,-0.185547 z m -11.441407,2.570313 c 0.588846,0.02757 1.235016,0.238299 1.9375,0.630859 l -0.125,0.392578 c -0.922866,3.34712 -1.769656,6.012616 -2.541015,7.996094 -0.757576,1.969703 -1.679425,3.574782 -2.767578,4.814453 -1.088159,1.239673 -1.865662,1.741974 -2.333985,1.507813 -0.454546,-0.23416 -0.702817,-0.605588 -0.74414,-1.115235 -0.04133,-0.509643 0.06837,-1.481548 0.330078,-2.914062 0.275484,-1.446283 0.881716,-3.442018 1.818359,-5.990235 0.950417,-2.561992 1.893438,-4.180534 2.830078,-4.855468 0.475208,-0.337466 1.006858,-0.494348 1.595703,-0.466797 z" />
    <path
       id="path839"
       style="font-style:normal;font-variant:normal;font-weight:normal;font-stretch:normal;font-size:113.151px;line-height:1.25;font-family:Allan;-inkscape-font-specification:'Allan, Normal';font-variant-ligatures:normal;font-variant-caps:normal;font-variant-numeric:normal;font-variant-east-asian:normal;fill:#ffffff;fill-opacity:1;stroke:none;stroke-width:1.05785"
       d="m 52.951172,26.160156 -0.970703,0.04297 c -0.537194,0 -0.862461,0.329077 -0.972657,0.990234 -0.853996,-0.509642 -1.748902,-0.763671 -2.685546,-0.763671 -1.680445,-0.02755 -3.077654,0.536331 -4.19336,1.693359 -1.115707,1.157027 -2.203063,3.202826 -3.263672,6.136719 -1.060609,2.933891 -1.709198,5.220257 -1.943359,6.859375 -0.220387,1.625353 -0.233845,2.747351 -0.04102,3.367187 0.206611,0.619841 0.537638,1.191427 0.992188,1.714844 0.454548,0.523415 0.908739,0.950671 1.363281,1.28125 0.468324,0.316805 0.818573,0.476562 1.052734,0.476562 h 0.08398 c 0.303034,0 0.73604,-0.192447 1.300781,-0.578125 0.564739,-0.399447 1.247974,-1.123084 2.046875,-2.169921 l 0.785156,2.333984 c 0.123968,0.358126 0.377998,0.510173 0.763672,0.455078 1.336091,-0.303035 2.485024,-0.826506 3.449219,-1.570312 0.977964,-0.757582 2.046101,-1.812247 3.203125,-3.16211 0.303033,-0.399455 0.233738,-0.749704 -0.207031,-1.052734 l -1.03125,-0.681641 c -0.385677,-0.261709 -0.73788,-0.165484 -1.054688,0.289063 -0.867772,1.212128 -1.743457,2.141679 -2.625,2.789062 l 5.083985,-16.921875 c 0.275482,-0.991735 -0.103649,-1.501747 -1.136719,-1.529297 z m 7.333984,0.1875 c -0.426999,0 -0.707964,0.363724 -0.845703,1.09375 l -5.125,19.298828 c -0.08265,0.27548 -0.06147,0.52951 0.0625,0.763672 0.110201,0.220386 0.24682,0.330082 0.412109,0.330078 h 1.177735 c 0.454551,0 0.793287,-0.198205 1.013672,-0.597656 0.909094,-1.666671 2.450641,-4.160894 4.626953,-7.480469 1.157033,-1.804412 2.115469,-3.319023 2.873047,-4.544921 0.75758,-1.225902 1.404212,-2.224743 1.941406,-2.996094 0.454546,-0.674931 0.812512,-1.136828 1.074219,-1.384766 0.275483,-0.261709 0.510288,-0.392578 0.703125,-0.392578 0.19284,0 0.289062,0.125114 0.289062,0.373047 0,0.23416 -0.109697,0.728746 -0.330078,1.486328 l -4.443359,14.525391 c -0.192836,0.674934 -0.08119,1.011718 0.332031,1.011718 h 2.210937 c 0.371905,0 0.599001,-0.198205 0.681641,-0.597656 l 4.730469,-17.253906 c 0.316805,-1.046838 0.391853,-1.837807 0.226562,-2.375 -0.151515,-0.53719 -0.357433,-0.881685 -0.61914,-1.033203 -0.247937,-0.151516 -0.598188,-0.226563 -1.052735,-0.226563 h -0.888671 c -0.70248,0 -1.549272,0.384898 -2.541016,1.15625 -0.977962,0.771355 -1.936404,1.922245 -2.873047,3.451172 l -4.400391,7.271484 3.181641,-10.660156 c 0.220386,-0.812677 -0.0067,-1.21875 -0.681641,-1.21875 z m -11.96289,2.560547 c 0.61295,0.007 1.296183,0.220515 2.046875,0.640625 -1.046836,3.705249 -1.970635,6.563191 -2.769532,8.574219 -0.785127,2.011025 -1.706968,3.594926 -2.767578,4.751953 -1.046834,1.15703 -1.797403,1.618926 -2.251953,1.384766 -0.454545,-0.23416 -0.702817,-0.605587 -0.74414,-1.115235 -0.04133,-0.509643 0.06837,-1.466127 0.330078,-2.871093 0.275484,-1.418738 0.860537,-3.368313 1.755859,-5.847657 0.909092,-2.479346 1.832892,-4.119071 2.769531,-4.917969 0.475208,-0.406341 1.017909,-0.606498 1.63086,-0.599609 z" />
    <path
       id="path837"
       style="font-style:normal;font-variant:normal;font-weight:normal;font-stretch:normal;font-size:113.151px;line-height:1.25;font-family:Allan;-inkscape-font-specification:'Allan, Normal';font-variant-ligatures:normal;font-variant-caps:normal;font-variant-numeric:normal;font-variant-east-asian:normal;fill:#ffffff;fill-opacity:1;stroke:none;stroke-width:1.05785"
       d="m 94.832031,19.900391 c -0.592292,0 -1.088834,0.207869 -1.488281,0.621093 -0.385676,0.413228 -0.578125,0.894346 -0.578125,1.445313 0,0.550966 0.186688,1.032089 0.558594,1.445312 0.385674,0.39945 0.818685,0.59961 1.300781,0.59961 h 0.330078 c 0.61984,0 1.137558,-0.192452 1.550781,-0.578125 0.413222,-0.399449 0.619141,-0.874819 0.619141,-1.425782 0,-0.550965 -0.200158,-1.039797 -0.599609,-1.466796 -0.39945,-0.426998 -0.832458,-0.640625 -1.300782,-0.640625 z" />
    <path
       id="path835-5"
       style="font-style:normal;font-variant:normal;font-weight:normal;font-stretch:normal;font-size:113.151px;line-height:1.25;font-family:Allan;-inkscape-font-specification:'Allan, Normal';font-variant-ligatures:normal;font-variant-caps:normal;font-variant-numeric:normal;font-variant-east-asian:normal;fill:#ffffff;fill-opacity:1;stroke:none;stroke-width:1.05785"
       d="m 104.16992,18.845703 c -0.67493,0 -1.09447,0.311802 -1.25976,0.931641 l -1.69532,6.570312 h -1.693356 c -0.454552,0 -0.7644,0.267495 -0.929687,0.804688 l -0.330078,1.136718 c -0.206613,0.674933 -0.02766,1.011719 0.537109,1.011719 h 1.693362 l -4.400393,17.169922 c -0.08265,0.399451 -0.03453,0.730485 0.144531,0.992188 0.192844,0.247938 0.516152,0.371093 0.970703,0.371093 h 0.785157 c 0.688709,4e-6 1.115962,-0.309852 1.28125,-0.929687 l 4.484372,-17.603516 h 2.18946 c 0.53719,0 0.90862,-0.309847 1.11523,-0.929687 l 0.28906,-1.09375 c 0.19285,-0.619836 -0.0208,-0.929688 -0.64062,-0.929688 h -2.18946 l 1.65235,-6.529297 c 0.16529,-0.647384 -0.14456,-0.972656 -0.92969,-0.972656 z" />
    <path
       id="path833"
       style="font-style:normal;font-variant:normal;font-weight:normal;font-stretch:normal;font-size:113.151px;line-height:1.25;font-family:Allan;-inkscape-font-specification:'Allan, Normal';font-variant-ligatures:normal;font-variant-caps:normal;font-variant-numeric:normal;font-variant-east-asian:normal;fill:#ffffff;fill-opacity:1;stroke:none;stroke-width:1.05785"
       d="m 31.132812,17.193359 c -0.674931,0 -1.094475,0.309854 -1.259765,0.929688 l -7.251953,28.410156 c -0.08265,0.358132 -0.04224,0.667986 0.123047,0.929688 0.151518,0.247939 0.392073,0.371097 0.722656,0.371093 h 11.570312 c 0.75758,4e-6 1.206006,-0.294429 1.34375,-0.886718 l 0.289063,-1.054688 c 0.06886,-0.261708 0.04193,-0.488802 -0.08203,-0.68164 -0.110202,-0.192836 -0.289171,-0.289063 -0.53711,-0.289063 h -9.566406 l 6.714844,-26.40625 c 0.09642,-0.371902 0.06178,-0.681754 -0.103516,-0.929687 -0.151515,-0.261712 -0.392081,-0.392579 -0.722656,-0.392579 z" />
  </g>
</svg>
