<?xml version="1.0" encoding="UTF-8"?>
<svg id="SVGRoot" width="512" height="512" version="1.1" viewBox="0 0 512 512" xmlns="http://www.w3.org/2000/svg" xmlns:cc="http://creativecommons.org/ns#" xmlns:dc="http://purl.org/dc/elements/1.1/" xmlns:rdf="http://www.w3.org/1999/02/22-rdf-syntax-ns#">
 <metadata>
  <rdf:RDF>
   <cc:Work rdf:about="">
    <dc:format>image/svg+xml</dc:format>
    <dc:type rdf:resource="http://purl.org/dc/dcmitype/StillImage"/>
    <dc:title/>
   </cc:Work>
  </rdf:RDF>
 </metadata>
 <path d="m256 0a256 256 0 0 0-256 256 256 256 0 0 0 256 256 256 256 0 0 0 256-256 256 256 0 0 0-256-256zm61.41 222.76a105.83 105.83 0 0 1 105.83 105.83 105.83 105.83 0 0 1-105.83 105.83 105.83 105.83 0 0 1-105.83-105.83 105.83 105.83 0 0 1 105.83-105.83z" fill="#5b37f0" style="paint-order:fill markers stroke"/>
 <path d="m317.41 251.53a77.06 77.06 0 0 0-77.06 77.06 77.06 77.06 0 0 0 77.06 77.06 77.06 77.06 0 0 0 77.06-77.06 77.06 77.06 0 0 0-77.06-77.06z" fill="#e83e8c" stroke-width=".30101" style="paint-order:fill markers stroke"/>
</svg>
