<?xml version="1.0" encoding="UTF-8"?>
<svg width="870" height="530" version="1.1" viewBox="0 0 870 530" xmlns="http://www.w3.org/2000/svg" xmlns:cc="http://creativecommons.org/ns#" xmlns:dc="http://purl.org/dc/elements/1.1/" xmlns:rdf="http://www.w3.org/1999/02/22-rdf-syntax-ns#" xmlns:xlink="http://www.w3.org/1999/xlink">
 <title>Be Professional</title>
 <metadata>
  <rdf:RDF>
   <cc:Work rdf:about="">
    <dc:format>image/svg+xml</dc:format>
    <dc:type rdf:resource="http://purl.org/dc/dcmitype/StillImage"/>
    <dc:title>Be Professional</dc:title>
    <cc:license rdf:resource="http://creativecommons.org/licenses/by-nc-sa/4.0/"/>
    <dc:creator>
     <cc:Agent>
      <dc:title>Hervy Qurrotul Ainur Rozi</dc:title>
     </cc:Agent>
    </dc:creator>
    <dc:rights>
     <cc:Agent>
      <dc:title>LangitKetujuh ID</dc:title>
     </cc:Agent>
    </dc:rights>
    <dc:date>10 December 2020</dc:date>
   </cc:Work>
   <cc:License rdf:about="http://creativecommons.org/licenses/by-nc-sa/4.0/">
    <cc:permits rdf:resource="http://creativecommons.org/ns#Reproduction"/>
    <cc:permits rdf:resource="http://creativecommons.org/ns#Distribution"/>
    <cc:requires rdf:resource="http://creativecommons.org/ns#Notice"/>
    <cc:requires rdf:resource="http://creativecommons.org/ns#Attribution"/>
    <cc:prohibits rdf:resource="http://creativecommons.org/ns#CommercialUse"/>
    <cc:permits rdf:resource="http://creativecommons.org/ns#DerivativeWorks"/>
    <cc:requires rdf:resource="http://creativecommons.org/ns#ShareAlike"/>
   </cc:License>
  </rdf:RDF>
 </metadata>
 <defs>
  <style>.cls-1{fill:#2e186a;}.cls-2,.cls-6{fill:#fff;}.cls-11,.cls-2,.cls-3{stroke:#2e186a;}.cls-11,.cls-2,.cls-3,.cls-8,.cls-9{stroke-linecap:round;stroke-linejoin:round;}.cls-2,.cls-3,.cls-8,.cls-9{stroke-width:6px;}.cls-11,.cls-3,.cls-8,.cls-9{fill:none;}.cls-4{fill:#fe7624;}.cls-5{fill:#feba91;}.cls-7{fill:#5d21d1;}.cls-8{stroke:#fff;}.cls-9{stroke:#fffdfd;}.cls-10{fill:#968bb4;}.cls-11{stroke-width:8px;}</style>
  <linearGradient id="linearGradient2712">
   <stop stop-color="#fff" stop-opacity=".1" offset="0"/>
   <stop stop-color="#fff" stop-opacity=".02" offset="1"/>
  </linearGradient>
  <linearGradient id="linearGradient1290" x1="217.37" x2="147.39" y1="178.62" y2="210.79" gradientUnits="userSpaceOnUse">
   <stop stop-color="#fff" stop-opacity=".20591" offset="0"/>
   <stop stop-color="#fff" stop-opacity=".10407" offset="1"/>
  </linearGradient>
  <linearGradient id="linearGradient1643" x1="1495.5" x2="1474.2" y1="719.23" y2="790.16" gradientUnits="userSpaceOnUse" xlink:href="#linearGradient1124-0"/>
  <linearGradient id="linearGradient1124-0">
   <stop stop-color="#fff" stop-opacity=".15527" offset="0"/>
   <stop stop-color="#fff" stop-opacity=".016287" offset="1"/>
  </linearGradient>
  <linearGradient id="linearGradient2734-7-6" x1="1415.5" x2="1275.1" y1="127.37" y2="753.71" gradientUnits="userSpaceOnUse" xlink:href="#linearGradient2712"/>
  <linearGradient id="linearGradient2734-5" x1="1377.3" x2="1275.1" y1="398.49" y2="753.71" gradientUnits="userSpaceOnUse" xlink:href="#linearGradient2712"/>
  <linearGradient id="linearGradient1136" x1="-164.4" x2="-509.61" y1="664.98" y2="821.87" gradientUnits="userSpaceOnUse" xlink:href="#linearGradient1124-0"/>
  <linearGradient id="linearGradient1175" x1="479.25" x2="307.27" y1="462.3" y2="638.84" gradientUnits="userSpaceOnUse" xlink:href="#linearGradient2712"/>
  <linearGradient id="linearGradient1177" x1="359.27" x2="292.8" y1="381.82" y2="441.39" gradientUnits="userSpaceOnUse" xlink:href="#linearGradient2712"/>
  <linearGradient id="linearGradient1179" x1="342.68" x2="204.3" y1="454.45" y2="720.11" gradientUnits="userSpaceOnUse" xlink:href="#linearGradient2712"/>
  <linearGradient id="linearGradient504" x1="1232.3" x2="944.46" y1="545.09" y2="830.89" gradientUnits="userSpaceOnUse" xlink:href="#linearGradient2712"/>
 </defs>
 <g transform="matrix(.874 0 0 .874 100.5 96.31)">
  <g transform="matrix(5.2331 0 0 5.2331 -804.86 -278.57)" stroke-width=".82634">
   <path d="m220.1 79.31h57.705s-1.5113-5.4843-5.2037-7.4308c-3.6925-1.9465-9.6518 2.2709-12.039-0.74155-2.3872-3.0125-4.7057-16.113-9.4802-17.256-4.7744-1.1432-7.505 14.753-11.18 14.769-3.6752 0.01719-6.4918 0.35519-7.9859 3.8776-1.4942 3.5223-17.26 6.7819-11.816 6.7819z" fill="#d4e4fc" fill-opacity=".99148"/>
   <path transform="scale(.26458)" d="m944.67 213.69c-6.5922-0.39042-13.915 15.59-20.635 31.146-14.481 33.523-27.752 23.103-38.524 33.332-17.995 17.087-53.65 21.584-53.65 21.584h218.1s-7.0518-25.531-36.227-19.822c-29.175 5.7084-42.165 17.586-54.814-36.051-5.1389-21.79-9.7376-29.922-14.248-30.189z" fill="#b7cada" stop-color="#000000" style="font-variation-settings:normal"/>
  </g>
  <g transform="matrix(7.0413 0 0 7.0413 996.57 -1013)" stroke-width="1.1031">
   <path d="m-30.922 214.34a49.954 49.954 0 0 0-24.977-43.261 49.954 49.954 0 0 0-49.954 0 49.954 49.954 0 0 0-24.977 43.261" fill="#f06ea9" fill-rule="evenodd" stop-color="#000000" style="font-variation-settings:normal;paint-order:stroke fill markers"/>
   <path transform="scale(.26458)" d="m-306.18 621.31a188.8 188.8 0 0 0-93.889 25.295 188.8 188.8 0 0 0-46.902 38.289 207.07 147.88 0 0 1 6.6328-2.8535 207.07 147.88 0 0 1 207.07 0 207.07 147.88 0 0 1 103.54 128.07h12.861a188.8 188.8 0 0 0-94.4-163.51 188.8 188.8 0 0 0-94.91-25.295z" fill="#f07da9" fill-rule="evenodd" stop-color="#000000" style="font-variation-settings:normal;paint-order:stroke fill markers"/>
   <path transform="scale(.26458)" d="m-455.56 695.32a188.8 188.8 0 0 0-38.91 114.8h172.99c-35.308-8.2652-69.743-21.212-90.723-41.51-31.988-30.948-40.924-58.59-43.361-73.287z" fill="#d96598" stop-color="#000000" style="font-variation-settings:normal;paint-order:stroke fill markers"/>
   <path transform="scale(.26458)" d="m-306.18 621.31a188.8 188.8 0 0 0-93.889 25.295 188.8 188.8 0 0 0-53.734 46.449c38.854-33.411 95.55-68.851 152.6-57.395 92.156 18.506-134.12 87.659-178.27 100.73a188.8 188.8 0 0 0-5.8262 15.617c25.937-2.2251 87.621-9.0949 164.42-28.381 58.612-14.718 101.95-43.127 128.3-64.699a188.8 188.8 0 0 0-18.684-12.318 188.8 188.8 0 0 0-94.91-25.295zm140.05 61.619c-15.246 10.237-38.654 24.599-67.863 38.164-64.445 29.929-177.86 40.791-225.9 44.137-12.47 0.86845-21.983 1.4069-29.578 1.7695a188.8 188.8 0 0 0-1.8574 8.8672c48.671-0.95232 166.99-5.7958 247.7-30.281 43.873-13.309 75.083-26.702 96.617-37.818a188.8 188.8 0 0 0-19.117-24.838zm43.014 79.002c-25.503 13.421-67.147 33.083-116.89 48.18h28.34c29.124-9.1622 58.229-19.926 81.938-32.01 3.2591-1.6612 6.3004-3.1828 9.2715-4.6621a188.8 188.8 0 0 0-2.6562-11.508z" fill="url(#linearGradient1136)"/>
  </g>
  <g transform="matrix(3.9203 0 0 3.9203 -3.8168 -104.89)" stroke-width="1.1031">
   <path d="m167.3 68.904c-2.0294 0-3.4532-8.5098-6.0942-9.1421-4.7744-1.1432-7.5054 14.754-11.181 14.769-3.6752 0.0172-6.4916 0.35492-7.9856 3.8773-1.4942 3.5223-17.26 6.7821-11.816 6.7821h89.611s-2.2539-6.7534-7.7603-9.1504c-5.5066-2.397-14.394 2.7966-17.954-0.91313-3.56-3.7096-7.4959-20.63-13.382-20.63-6.4125 0-11.04 14.407-13.438 14.407z" fill="#c9e9fc" stop-color="#000000" style="font-variation-settings:normal"/>
   <path transform="scale(.26458)" d="m670.85 218.92c-6.9467 0.19074-14.275 9.7268-23.713 27.625-20.827 39.499-32.242 38.771-43.486 6.5892-11.244-32.182-22.147 28.773-35.35 39.117-13.203 10.344-16.354-6.2826-24.574 3.9466-8.2201 10.229-45.998 25.777-45.998 25.777h333.13s-22.304-34.551-62.51-27.271c-40.206 7.2792-64.483 28.043-75.812-24.482-6.1957-28.725-13.306-51.532-21.69-51.302z" fill="#b7cada" stop-color="#000000" style="font-variation-settings:normal"/>
  </g>
  <g transform="matrix(2.8915 0 0 3.2675 -409.61 -201.07)">
   <path d="m346.22 213.4c0-34.518-30.48-131.25-50.847-131.25s-50.847 96.729-50.847 131.25" fill="#f79062" fill-rule="evenodd" stop-color="#000000" style="font-variation-settings:normal;paint-order:stroke fill markers"/>
   <path transform="scale(.26458)" d="m1116.4 310.49c-16.687 0-35.172 17.2-53.889 45.443 23.639 8e-3 50.727 10.615 74.018 47.08 50.846 79.607 101.89 282.55 118.68 403.52h53.365c0-130.46-115.2-496.05-192.18-496.05z" fill="#f9b191"/>
   <path transform="scale(.26458)" d="m1031.8 411.33c-56.711 118.08-107.57 308.53-107.57 395.21h237.3c-52.526-17.162-110.15-48.645-136.67-106.25-39.365-85.501-11.844-219.7 6.9355-288.96z" fill="#d5784e"/>
   <path transform="scale(.26458)" d="m1172.4 359.2c-0.4023 40.288-12.317 93.322-52.391 156.18-48.891 76.691-122.6 141.51-182.57 186.36-4.5314 22.391-8.0363 43.409-10.293 62.219 59.541-28.76 137.42-70.246 203.25-118.23 51.608-37.618 88.279-85.319 113.61-128.59-21.766-62.162-46.835-119.51-71.606-157.95zm86.023 201.3c-22.112 36.185-52.349 73.696-93.18 104.07-63.104 46.944-161.56 90.498-240.2 121.08-0.53815 7.475-0.82422 14.472-0.82422 20.883h29.535c72.847-21.576 160.73-53.418 225.23-95.4 43.117-28.064 76.223-53.2 101.32-74.35-6.4752-25.073-13.838-50.799-21.875-76.287zm38.172 147.57c-36.033 20.441-79.508 43.228-123.31 61.689-32.317 13.621-66.36 26.051-98.131 36.777h95.26c45.605-13.384 92.683-29.032 134.71-46.568-2.0288-15.966-4.9112-33.419-8.5312-51.898z" fill="url(#linearGradient504)"/>
  </g>
  <g transform="matrix(2.3747 0 0 2.3747 923.2 -12.795)" stroke-width="1.1031">
   <path d="m-30.922 214.34a49.954 49.954 0 0 0-24.977-43.261 49.954 49.954 0 0 0-49.954 0 49.954 49.954 0 0 0-24.977 43.261" fill="#e26f84" fill-rule="evenodd" stop-color="#000000" style="font-variation-settings:normal;paint-order:stroke fill markers"/>
   <path transform="scale(.26458)" d="m-306.18 621.31a188.8 188.8 0 0 0-93.889 25.295 188.8 188.8 0 0 0-46.902 38.289 207.07 147.88 0 0 1 6.6328-2.8535 207.07 147.88 0 0 1 207.07 0 207.07 147.88 0 0 1 103.54 128.07h12.861a188.8 188.8 0 0 0-94.4-163.51 188.8 188.8 0 0 0-94.91-25.295z" fill="#e28294" fill-rule="evenodd" stop-color="#000000" style="font-variation-settings:normal;paint-order:stroke fill markers"/>
   <path transform="scale(.26458)" d="m-455.56 695.32a188.8 188.8 0 0 0-38.91 114.8h172.99c-35.308-8.2652-69.743-21.212-90.723-41.51-31.988-30.948-40.924-58.59-43.361-73.287z" fill="#c15469" stop-color="#000000" style="font-variation-settings:normal;paint-order:stroke fill markers"/>
   <path transform="scale(.26458)" d="m-306.18 621.31a188.8 188.8 0 0 0-93.889 25.295 188.8 188.8 0 0 0-53.734 46.449c38.854-33.411 95.55-68.851 152.6-57.395 92.156 18.506-134.12 87.659-178.27 100.73a188.8 188.8 0 0 0-5.8262 15.617c25.937-2.2251 87.621-9.0949 164.42-28.381 58.612-14.718 101.95-43.127 128.3-64.699a188.8 188.8 0 0 0-18.684-12.318 188.8 188.8 0 0 0-94.91-25.295zm140.05 61.619c-15.246 10.237-38.654 24.599-67.863 38.164-64.445 29.929-177.86 40.791-225.9 44.137-12.47 0.86845-21.983 1.4069-29.578 1.7695a188.8 188.8 0 0 0-1.8574 8.8672c48.671-0.95232 166.99-5.7958 247.7-30.281 43.873-13.309 75.083-26.702 96.617-37.818a188.8 188.8 0 0 0-19.117-24.838zm43.014 79.002c-25.503 13.421-67.147 33.083-116.89 48.18h28.34c29.124-9.1622 58.229-19.926 81.938-32.01 3.2591-1.6612 6.3004-3.1828 9.2715-4.6621a188.8 188.8 0 0 0-2.6562-11.508z" fill="url(#linearGradient1136)"/>
  </g>
  <g transform="matrix(3.0077 0 0 3.0077 -252.69 -77.439)" stroke-width="1.4377">
   <g transform="matrix(.46663 0 0 .43863 153.72 107.07)" stroke-width="1.4377">
    <path d="m311.6 190.72c-6.7783-1e-5 -7.792-100.97-7.792-117.06 0-16.084 5.4949-29.122 12.273-29.122 6.7783-3e-6 12.273 13.038 12.273 29.122 0 16.084-1.0138 117.06-7.7921 117.06" fill="#425b2a" fill-rule="evenodd" stop-color="#000000" style="font-variation-settings:normal;paint-order:stroke fill markers"/>
    <path transform="matrix(.26458 0 0 .26458 -31.765 -22.795)" d="m1314.7 254.52c-3.5243 1e-5 -6.9546 0.93819-10.254 2.7051 12.707 4.2075 25.669 21.848 32.774 70.002 12.85 87.092 10.242 322.37 8.1718 433.23 13.342-103.66 15.695-348.25 15.695-395.88 0-60.789-20.768-110.07-46.387-110.07z" fill="#537236"/>
    <path transform="matrix(.26458 0 0 .26458 -31.765 -22.795)" d="m1291.7 269.01c-13.968 18.967-23.387 54.646-23.387 95.568 0 60.788 3.8307 442.42 29.449 442.42h15.394c-4.4217-53.573-14.105-172.19-25.232-317.01-9.8535-128.24-2.5487-192.01 3.7754-220.97z" fill="#364b23" stop-color="#000000" style="font-variation-settings:normal"/>
    <path transform="matrix(.26458 0 0 .26458 -31.765 -22.795)" d="m1314.7 254.52c-17.452 3e-5 -32.645 22.88-40.562 56.678 19.817-28.466 40.479-43.329 55.92-25.709 19.593 22.358-28.53 107.41-60.969 159.03 0.1463 9.5986 0.3211 19.61 0.5215 30.16 33.849-31.177 67.015-64.038 91.447-101.07 0.012-3.1572 0.029-6.7329 0.029-9.0195 0-60.789-20.768-110.07-46.387-110.07zm45.537 195.01c-13.753 33.186-55.752 73.554-88.795 101.75 0.57 19.191 1.2369 38.676 2.0156 57.896 15.976-7.9406 33.152-16.463 49.609-24.57 12.115-5.968 23.84-13.412 34.512-21.094 1.2911-40.717 2.1227-80.234 2.6582-113.98zm-5.5976 189.05c-21.213 22.945-45.628 44.408-69.006 53.549-2.5945 1.0145-5.1325 1.9732-7.6445 2.9062 0.8459 12.346 1.7582 24.1 2.7519 34.998 24.116-5.7468 49.26-14.5 70.172-27.812 1.4284-19.776 2.6595-41.31 3.7266-63.641zm-6.1426 93.316c-17.93 9.0186-37.578 16.863-57.414 21.078-2.8891 0.61386-5.1063 1.0682-7.7968 1.6348 0.7056 5.9288 1.4433 11.478 2.2148 16.551 20.222-3.7566 41.744-8.106 60.135-12.631 1.0165-8.1121 1.9704-17.03 2.8613-26.633z" fill="url(#linearGradient2734-7-6)"/>
   </g>
   <g>
    <path d="m324.11 121.75c-3.407 6.2612-3.5033 14.241 0.39252 16.361 3.8958 2.1199 10.308-2.4229 13.715-8.6841 3.407-6.2612 3.0107-13.055-0.88508-15.175-3.8958-2.1198-9.8158 1.2374-13.223 7.4986z" fill="#59793b" fill-rule="evenodd" stop-color="#000000" style="font-variation-settings:normal;paint-order:stroke fill markers"/>
    <path transform="matrix(.26458 0 0 .26458 -31.765 -22.795)" d="m1384.4 515.56c-8.5237 0.28619-17.998 5.1128-26.357 13.295 10.964-5.3371 28.847-11.047 37.607-1.8066 6.6136 6.9755 7.2831 25.061 6.541 40.043 8.4845-21.123 5.8204-42.052-7.2109-49.143-3.2209-1.7526-6.8065-2.5154-10.58-2.3887z" fill="#6f954b"/>
    <path transform="matrix(.26458 0 0 .26458 -31.765 -22.795)" d="m1348.8 540.12c-1.3144 1.9621-2.5641 4.0192-3.7344 6.1699-12.877 23.664-13.242 53.824 1.4824 61.836 9.0075 4.9014 21.573 0.36763 32.922-9.3008-9.432-3.6174-20.988-11.028-27.33-26.186-6.22-14.867-5.8322-24.996-3.3398-32.52z" fill="#445e2b"/>
   </g>
   <path transform="matrix(.26458 0 0 .26458 -31.765 -22.795)" d="m1384.4 515.56c-5.346 0.1795-11.068 2.146-16.652 5.6035 5.0001 6.5378 4.1179 15.844-2.5938 26.074-4.1211 6.2819-17.014 17.912-29.385 28.379-0.3625 3.4108-0.4639 6.727-0.2872 9.8691 13.558-6.7272 29.657-15.847 41.428-26.104 12.057-10.505 21.168-21.986 27.32-30.938-2.0233-4.6017-5.1144-8.2458-9.25-10.496-3.2209-1.7526-6.8065-2.5154-10.58-2.3887zm22.611 25.398c-10.114 14.78-27.991 36.543-51.396 47.465-6.7708 3.1596-12.631 5.7939-18.066 8.1973 0.9184 2.6309 2.1423 4.9604 3.664 6.9238 15.021-5.281 31.845-11.546 44.812-17.42 2.8613-1.2961 5.3995-2.4185 7.7832-3.459 1.6173-2.3663 3.1361-4.8244 4.5176-7.3633 6.3968-11.756 9.2428-24.007 8.6855-34.344zm-17.461 47.424c-7.3393 3.7474-14.308 7.3427-17.965 9.3887-5.7275 3.2043-16.359 7.3305-24.898 10.449 1.8145 0.95453 3.7692 1.5363 5.8281 1.7715 6.693-2.1794 13.819-4.5059 21.522-7.041 5.4399-3.7294 10.773-8.7278 15.514-14.568z" fill="#fff" fill-opacity=".05"/>
   <path d="m341.38 115.64s-2.4868 0.57575-1.923 3.1143c0.56375 2.5386 3.2445 1.902 3.2445 1.902 0.0305-0.82533-0.0912-1.389-1.036-1.8765l1.0632-0.9005-1.3893-0.23472s0.46118-0.70688 0.0407-2.0046z" fill="#e2e26c"/>
   <g stroke-width="1.4377">
    <g>
     <path d="m311.6 190.72c-6.7783-1e-5 -7.792-100.97-7.792-117.06 0-16.084 5.4949-29.122 12.273-29.122 6.7783-3e-6 12.273 13.038 12.273 29.122 0 16.084-1.0138 117.06-7.7921 117.06" fill="#3c5326" fill-rule="evenodd" stop-color="#000000" style="font-variation-settings:normal;paint-order:stroke fill markers"/>
     <path transform="matrix(.26458 0 0 .26458 -31.765 -22.795)" d="m1314.7 254.52c-3.5243 1e-5 -6.9546 0.93819-10.254 2.7051 12.707 4.2075 25.669 21.848 32.774 70.002 12.85 87.092 10.242 322.37 8.1718 433.23 13.342-103.66 15.695-348.25 15.695-395.88 0-60.789-20.768-110.07-46.387-110.07z" fill="#537236"/>
     <path transform="matrix(.26458 0 0 .26458 -31.765 -22.795)" d="m1291.7 269.01c-13.968 18.967-23.387 54.646-23.387 95.568 0 60.788 3.8307 442.42 29.449 442.42h15.394c-4.4217-53.573-14.105-172.19-25.232-317.01-9.8535-128.24-2.5487-192.01 3.7754-220.97z" fill="#364b23"/>
     <path transform="matrix(.26458 0 0 .26458 -31.765 -22.795)" d="m1314.7 254.52c-17.452 3e-5 -32.645 22.88-40.562 56.678 19.817-28.466 40.479-43.329 55.92-25.709 19.593 22.358-28.53 107.41-60.969 159.03 0.1463 9.5986 0.3211 19.61 0.5215 30.16 33.849-31.177 67.015-64.038 91.447-101.07 0.012-3.1572 0.029-6.7329 0.029-9.0195 0-60.789-20.768-110.07-46.387-110.07zm45.537 195.01c-13.753 33.186-55.752 73.554-88.795 101.75 0.57 19.191 1.2369 38.676 2.0156 57.896 15.976-7.9406 33.152-16.463 49.609-24.57 12.115-5.968 23.84-13.412 34.512-21.094 1.2911-40.717 2.1227-80.234 2.6582-113.98zm-5.5976 189.05c-21.213 22.945-45.628 44.408-69.006 53.549-2.5945 1.0145-5.1325 1.9732-7.6445 2.9062 0.8459 12.346 1.7582 24.1 2.7519 34.998 24.116-5.7468 49.26-14.5 70.172-27.812 1.4284-19.776 2.6595-41.31 3.7266-63.641zm-6.1426 93.316c-17.93 9.0186-37.578 16.863-57.414 21.078-2.8891 0.61386-5.1063 1.0682-7.7968 1.6348 0.7056 5.9288 1.4433 11.478 2.2148 16.551 20.222-3.7566 41.744-8.106 60.135-12.631 1.0165-8.1121 1.9704-17.03 2.8613-26.633z" fill="url(#linearGradient2734-5)"/>
    </g>
    <path transform="matrix(.26458 0 0 .26458 -31.765 -22.795)" d="m1316.9 308.94-45.293 14.807c-0.4149 2.4618-0.8001 4.9581-1.1406 7.5039l46.604-15.873zm-10.988 34.328-37.58 17.912c-0.014 1.1314-0.035 2.2587-0.035 3.3984v0.69531l39.316-16.029zm8.0058 34.174-45.527 8.1152c0.014 2.0921 0.034 4.3945 0.053 6.6816l46.412-6.3691zm-7.2402 28.656-38.018 8.0391c0.022 1.9447 0.042 3.8192 0.066 5.8398l38.037-7.1348zm-37.617 37.787c0.043 2.8638 0.081 5.6146 0.1289 8.5723l29.566-0.61524 0.4258-7.8144zm38.129 24.201-37.432 15.189c0.037 1.8222 0.065 3.5358 0.1035 5.3789l39.287-13.9zm-23.256 43.369-13.455 3.9727c0.052 2.1136 0.099 4.1806 0.1523 6.3106l15.943-3.6172zm19.592 29.5-32.277 4.1992c0.059 2.0575 0.1145 4.0969 0.1758 6.1621l31.42-3.3887zm5.4531 37.547-35.928 20.574c0.113 2.9477 0.2196 5.9042 0.3379 8.8418l37.975-23.67zm9.625 75.014-42.709 7.6211c0.086 1.5822 0.1694 3.19 0.2578 4.7598l41.77-4.6426zm-4.5996 36.994-35.279 15.055c0.1782 2.4033 0.3569 4.7938 0.541 7.1406l36.186-12.156zm-1.7031 45.668-30.199 7.9785c0.1713 1.628 0.3441 3.2279 0.5196 4.8066l28.146-7.8047zm-6.7305 29.807-20.379 3.1602c0.3403 2.3146 0.6853 4.5563 1.0391 6.6875l19.256-3.9473zm22.658 20.842-37.656 8.9492c1.0862 3.5867 2.2224 6.4134 3.4141 8.3047l34.414-11.201z" fill="#23291e" fill-opacity=".5"/>
    <g fill="#ffd4eb">
     <path d="m322.76 43.991s-3.0128 2.2381-0.76041 5.3278c2.2524 3.0897 5.4909 0.65556 5.4909 0.65556-0.44423-1.1302-0.93958-1.8184-2.4996-1.9198l0.90337-1.8387-2.0104 0.50059s0.20589-1.2238-1.1239-2.7255z" stop-color="#000000" style="font-variation-settings:normal"/>
     <path d="m306.68 53.575s3.0128 2.2381 0.76041 5.3278c-2.2524 3.0897-5.4909 0.65556-5.4909 0.65556 0.44423-1.1302 0.93958-1.8184 2.4996-1.9198l-0.90337-1.8387 2.0104 0.50059s-0.20589-1.2238 1.1239-2.7255z"/>
     <path d="m327.8 105.5s-2.8079 2.0859-0.70869 4.9655c2.0992 2.8796 5.1175 0.61098 5.1175 0.61098-0.41402-1.0533-0.87568-1.6947-2.3296-1.7892l0.84193-1.7137-1.8737 0.46655s0.19189-1.1406-1.0474-2.5401z" stop-color="#000000" style="font-variation-settings:normal"/>
    </g>
   </g>
   <g transform="rotate(-27.556 301.98 89.02)" stroke-width="1.4377">
    <g>
     <path d="m301.27 71.852c4.3975 8.0816 7.9448 24.31 2.9163 27.046-5.0285 2.7362-16.729-9.0562-21.126-17.138-4.3975-8.0816-3.886-16.851 1.1424-19.587 5.0285-2.7362 12.67 1.5971 17.067 9.6788z" fill="#567539" fill-rule="evenodd" stop-color="#000000" style="font-variation-settings:normal;paint-order:stroke fill markers"/>
     <path transform="matrix(.26458 0 0 .26458 -31.765 -22.795)" d="m1205.8 318.06c-4.1119 0.14307-8.0225 1.143-11.586 3.082-0.7164 0.38979-1.3987 0.82218-2.0664 1.2754 17.727-2.0256 33.912 0.41394 52.033 26.994 22.449 32.928 34.848 84.58 32.461 100.18-0.128 0.83606-0.2752 1.6668-0.4258 2.4941 8.42-20.25-3.3767-68.413-17.496-94.361-13.504-24.817-35.102-40.282-52.92-39.662z" fill="#6f954b"/>
     <path transform="matrix(.26458 0 0 .26458 -31.765 -22.795)" d="m1179.1 346.27c-1.95 14.21 1.5507 31.953 10.774 48.902 16.62 30.545 60.84 75.115 79.846 64.773 1.5517-0.84438 2.884-2.0339 4.0195-3.5137-4.8941-9.6918-17.198-27.233-47.926-49.301-34.183-24.55-43.635-47.175-46.713-60.861z" fill="#425a2a"/>
    </g>
    <path transform="matrix(.26458 0 0 .26458 -31.765 -22.795)" d="m1205.8 318.06c-4.1119 0.14307-8.0225 1.143-11.586 3.082-10.128 5.5109-15.404 17.497-15.611 32.115 5.6326-10.03 13.829-18.898 25.623-20.762 19.509-3.0821-5.7663 31.006-20.428 49.178 0.9586 2.6277 2.0425 5.2624 3.2696 7.8906 15.335-4.3626 40.903-13.534 53.178-28.773 4.3931-5.454 7.9416-10.498 10.82-15.029-13.193-17.702-30.521-28.214-45.266-27.701zm56.303 46.41c-6.561 8.8535-18.787 19.901-41.543 29.059-10.031 4.0366-18.742 6.9667-26.24 9.0801 3.1196 4.8869 6.7684 9.9638 10.777 15.006 18.947-1.6752 40.877-6.1635 57.514-17.039 3.7364-2.4426 7.0365-4.6839 10.1-6.8086-2.9026-10.49-6.5894-20.678-10.608-29.297zm16.732 63.52c-16.18 6.5222-36.021 12.741-52.527 12.539 3.0444 2.8006 6.1143 5.4114 9.1602 7.7871 10.783-0.77489 22.896-2.7116 35.688-6.6367 2.6841-0.82367 5.2403-1.6408 7.7011-2.4492 0.2365-3.4927 0.2247-7.2616-0.021-11.24z" fill="#fff" fill-opacity=".07"/>
    <path d="m285.82 58.455s1.6357 3.378-1.7906 5.0752c-3.4262 1.6972-5.1713-1.959-5.1713-1.959 0.91668-0.7965 1.6742-1.1775 3.1042-0.54563l0.0497-2.0481 1.5508 1.3738s0.38361-1.1802 2.2572-1.8964z" fill="#e2e26c"/>
   </g>
  </g>
  <g transform="matrix(2.2994 0 0 2.2994 236.9 3.3435)" stroke-width="1.1392">
   <path d="m-30.922 214.34a49.954 49.954 0 0 0-24.977-43.261 49.954 49.954 0 0 0-49.954 0 49.954 49.954 0 0 0-24.977 43.261" fill="#2e90bf" fill-rule="evenodd" stop-color="#000000" style="font-variation-settings:normal;paint-order:stroke fill markers"/>
   <path transform="scale(.26458)" d="m-306.18 621.31a188.8 188.8 0 0 0-93.889 25.295 188.8 188.8 0 0 0-46.902 38.289 207.07 147.88 0 0 1 6.6328-2.8535 207.07 147.88 0 0 1 207.07 0 207.07 147.88 0 0 1 103.54 128.07h12.861a188.8 188.8 0 0 0-94.4-163.51 188.8 188.8 0 0 0-94.91-25.295z" fill="#2ea4bf" fill-rule="evenodd" stop-color="#000000" style="font-variation-settings:normal;paint-order:stroke fill markers"/>
   <path transform="scale(.26458)" d="m-455.56 695.32a188.8 188.8 0 0 0-38.91 114.8h172.99c-35.308-8.2652-69.743-21.212-90.723-41.51-31.988-30.948-40.924-58.59-43.361-73.287z" fill="#2884b0" stop-color="#000000" style="font-variation-settings:normal;paint-order:stroke fill markers"/>
   <path transform="scale(.26458)" d="m-306.18 621.31a188.8 188.8 0 0 0-93.889 25.295 188.8 188.8 0 0 0-53.734 46.449c38.854-33.411 95.55-68.851 152.6-57.395 92.156 18.506-134.12 87.659-178.27 100.73a188.8 188.8 0 0 0-5.8262 15.617c25.937-2.2251 87.621-9.0949 164.42-28.381 58.612-14.718 101.95-43.127 128.3-64.699a188.8 188.8 0 0 0-18.684-12.318 188.8 188.8 0 0 0-94.91-25.295zm140.05 61.619c-15.246 10.237-38.654 24.599-67.863 38.164-64.445 29.929-177.86 40.791-225.9 44.137-12.47 0.86845-21.983 1.4069-29.578 1.7695a188.8 188.8 0 0 0-1.8574 8.8672c48.671-0.95232 166.99-5.7958 247.7-30.281 43.873-13.309 75.083-26.702 96.617-37.818a188.8 188.8 0 0 0-19.117-24.838zm43.014 79.002c-25.503 13.421-67.147 33.083-116.89 48.18h28.34c29.124-9.1622 58.229-19.926 81.938-32.01 3.2591-1.6612 6.3004-3.1828 9.2715-4.6621a188.8 188.8 0 0 0-2.6562-11.508z" fill="url(#linearGradient1136)"/>
  </g>
  <g transform="matrix(2.7679 0 0 2.7679 -928.74 -94.783)" stroke-width="1.3453">
   <path d="m374.74 189.37c-7.2643 7e-5 -13.174 5.8499-13.248 13.114-0.58966-0.2274-1.2162-0.34401-1.8482-0.34398-2.4009 1.4e-4 -4.4813 1.6637-5.0095 4.0058-1.0139-0.442-2.108-0.67016-3.2141-0.6702-4.4424-1.5e-4 -8.0437 3.601-8.0438 8.0434l70.422-1e-5c0.19327-0.7548 0.29109-1.5309 0.2912-2.31-7e-5 -5.1463-4.172-9.3182-9.3183-9.3183-2.0844 1.3e-4 -4.1085 0.69909-5.7489 1.9852-1.5921-2.2427-4.1719-3.5752-6.9223-3.5754-1.4605-3e-5 -2.8963 0.37671-4.1686 1.0938-0.63232-6.8132-6.3491-12.024-13.192-12.024z" fill="#4b6332" fill-rule="evenodd" stop-color="#000000" style="font-variation-settings:normal;paint-order:stroke fill markers"/>
   <path transform="scale(.26458)" d="m1416.3 715.73v2e-3c-19.208 1.8e-4 -35.898 10.828-44.295 26.73 10.339-13.173 41.525-26.812 62.636-10.82 28.038 21.239 21.051 43.453 21.051 43.453s19.454-14.813 33.852-5.4997c10.721 6.9352 8.5527 17.041 8.5527 17.041s26.14-22.051 48.607-7.6934c14.536 9.2894 17.219 28.059 17.219 28.059 0.7304-2.8528 1.0991-5.7857 1.0996-8.7305-3e-4 -19.451-15.768-35.218-35.219-35.219-7.8779 4.9e-4 -15.527 2.6413-21.726 7.502-6.0173-8.4763-15.769-13.511-26.164-13.512-5.5199-1.2e-4 -10.947 1.4225-15.756 4.1328-2.3898-25.751-23.996-45.445-49.857-45.445z" fill="#58753c"/>
   <path transform="scale(.26458)" d="m1358.6 764.03c-8.7588 0.33174-16.256 6.4972-18.197 15.107-3.832-1.6705-7.9662-2.533-12.146-2.5332-2.8002-1e-4 -5.5089 0.38697-8.0839 1.0957 4.3005 0.84678 9.3334 2.2323 14.486 4.5098 13.914 6.1496 27.316 13.246 27.316 13.246s-10.3-6.6904-10.992-18.908c-0.4312-7.6058 4.1189-11.022 7.6172-12.518zm-48.723 18.762c-7.3039 5.5523-12.023 14.33-12.023 24.213h119.01c-26.221-1.6186-53.728-4.0509-70.908-7.6738-23.326-4.9189-32.5-11.642-36.076-16.539z" fill="#485e2c"/>
   <path transform="scale(.26458)" d="m1411.1 716c-10.769 1.1146-20.529 5.6434-28.176 12.49l-29.814 78.51h8.0644c4.4278-11.739 14.224-37.333 23.543-59.055 5.6612-13.196 16.356-24.027 26.383-31.945zm19.463 1.7969c-1.0905 3.5121-2.3847 7.5233-4.1641 12.674-6.4534 18.68-36.385 55.374-54.504 76.529h33.969l58.143-56.428c-5.042-15.823-17.658-28.093-33.443-32.775zm51.363 39.244c-5.5199-1.2e-4 -10.947 1.4225-15.756 4.1328l-43.016 45.826h13.029l57.424-47.746c-3.6748-1.4375-7.6275-2.2127-11.682-2.2129zm15.01 3.7363-52.014 46.223h17.502l45.666-36.447c-2.9436-4.1465-6.7856-7.4621-11.154-9.7754zm32.881 2.2734c-5.1274 3.2e-4 -10.155 1.1264-14.752 3.248l-27.869 40.701h19.98l37.082-40.852c-4.4078-1.9849-9.2936-3.0976-14.441-3.0977zm-177 2.043c-1.8666 0.65726-3.602 1.6047-5.168 2.7754l-8.2089 39.131h5.8886zm198.96 5.6504-29.533 36.256h10.121l26.27-28.969c-1.9305-2.7435-4.2407-5.197-6.8575-7.2871zm9.5293 11.75-23.41 24.506h22.389l4.2031-2.5957c0.3585-2.0243 0.5505-4.0756 0.5508-6.1348-1e-4 -5.6732-1.3495-11.029-3.7325-15.775z" fill="url(#linearGradient1643)"/>
  </g>
  <g transform="matrix(3.235 .6345 -.6345 3.235 -135.42 -432.82)" stroke-width="1.3118">
   <path d="m336.3 213.52c0.16034-4.5858-2.685-7.297-9.6737-6.0118l-2.9903-8.2741c3.7113-0.73005 11.329-1.7015 12.402 4.9768 0.91677-4.0473-0.36138-9.9666-7.1037-13.338l12.395-3.6319c2.7704 2.3359 4.5102 8.1728-0.0207 16.926 3.7389-3.4773 6.6565-3.7898 12.326-1.4875l-4.1202 5.733c-3.3656-2.3817-6.7438-2.5077-9.6599 5.107z" fill="#96414c"/>
   <path transform="scale(.26458)" d="m1290.1 707.68-18.93 5.5469c25.943 25.246 18.852 58.426 18.852 58.426 17.125-33.083 10.549-55.144 0.078-63.973zm-0.078 63.973s21.108-8.5958 36.539-1.7949c1.9834 0.87414 3.7241 1.8321 5.2597 2.8359l4.7891-6.6621c-21.429-8.7016-32.456-7.5215-46.588 5.6211zm-48.701-20.604c-6.7063-0.0473-13.272 1.0086-18.094 1.957l4.7031 13.014c13.912-2.3448 29.484-2.049 42.172 5.7969-2.6628-16.564-15.978-20.677-28.781-20.768z" fill="#b14d5a" stop-color="#000000" style="font-variation-settings:normal"/>
   <path transform="scale(.26458)" d="m1309.5 776.88c-4.1716-0.0767-8.2914 0.56565-11.68 2.5059-12.047 6.8985-13.385 27.611-13.385 27.611 11.021-28.78 23.789-28.304 36.51-19.303l5.4141-7.5332c-4.1973-1.4185-10.572-3.1656-16.859-3.2812z" fill="#813842" stop-color="#000000" style="font-variation-settings:normal"/>
   <path transform="scale(.26458)" d="m1244.1 771.54c-5.4307-0.0465-10.222 0.67575-13.729 1.4258l4.0879 11.311c26.414-4.8571 37.167 5.3906 36.561 22.723 5.2624-15.658-4.0722-32.434-18.867-34.799-2.7741-0.44341-5.4825-0.63816-8.0527-0.66015z" fill="#813842" stop-color="#000000" style="font-variation-settings:normal"/>
  </g>
  <g transform="matrix(3.3757 0 0 3.3757 -548.3 -224.58)" stroke-width="1.1031">
   <path d="m374.74 189.37c-7.2643 7e-5 -13.174 5.8499-13.248 13.114-0.58966-0.2274-1.2162-0.34401-1.8482-0.34398-2.4009 1.4e-4 -4.4813 1.6637-5.0095 4.0058-1.0139-0.442-2.108-0.67016-3.2141-0.6702-4.4424-1.5e-4 -8.0437 3.601-8.0438 8.0434l70.422-1e-5c0.19327-0.7548 0.29109-1.5309 0.2912-2.31-7e-5 -5.1463-4.172-9.3182-9.3183-9.3183-2.0844 1.3e-4 -4.1085 0.69909-5.7489 1.9852-1.5921-2.2427-4.1719-3.5752-6.9223-3.5754-1.4605-3e-5 -2.8963 0.37671-4.1686 1.0938-0.63232-6.8132-6.3491-12.024-13.192-12.024z" fill="#43592e" fill-rule="evenodd" stop-color="#000000" style="font-variation-settings:normal;paint-order:stroke fill markers"/>
   <path transform="scale(.26458)" d="m1416.3 715.73v2e-3c-19.208 1.8e-4 -35.898 10.828-44.295 26.73 10.339-13.173 41.525-26.812 62.636-10.82 28.038 21.239 21.051 43.453 21.051 43.453s19.454-14.813 33.852-5.4997c10.721 6.9352 8.5527 17.041 8.5527 17.041s26.14-22.051 48.607-7.6934c14.536 9.2894 17.219 28.059 17.219 28.059 0.7304-2.8528 1.0991-5.7857 1.0996-8.7305-3e-4 -19.451-15.768-35.218-35.219-35.219-7.8779 4.9e-4 -15.527 2.6413-21.726 7.502-6.0173-8.4763-15.769-13.511-26.164-13.512-5.5199-1.2e-4 -10.947 1.4225-15.756 4.1328-2.3898-25.751-23.996-45.445-49.857-45.445z" fill="#58753c"/>
   <path transform="scale(.26458)" d="m1358.6 764.03c-8.7588 0.33174-16.256 6.4972-18.197 15.107-3.832-1.6705-7.9662-2.533-12.146-2.5332-2.8002-1e-4 -5.5089 0.38697-8.0839 1.0957 4.3005 0.84678 9.3334 2.2323 14.486 4.5098 13.914 6.1496 27.316 13.246 27.316 13.246s-10.3-6.6904-10.992-18.908c-0.4312-7.6058 4.1189-11.022 7.6172-12.518zm-48.723 18.762c-7.3039 5.5523-12.023 14.33-12.023 24.213h119.01c-26.221-1.6186-53.728-4.0509-70.908-7.6738-23.326-4.9189-32.5-11.642-36.076-16.539z" fill="#374823"/>
   <path transform="scale(.26458)" d="m1411.1 716c-10.769 1.1146-20.529 5.6434-28.176 12.49l-29.814 78.51h8.0644c4.4278-11.739 14.224-37.333 23.543-59.055 5.6612-13.196 16.356-24.027 26.383-31.945zm19.463 1.7969c-1.0905 3.5121-2.3847 7.5233-4.1641 12.674-6.4534 18.68-36.385 55.374-54.504 76.529h33.969l58.143-56.428c-5.042-15.823-17.658-28.093-33.443-32.775zm51.363 39.244c-5.5199-1.2e-4 -10.947 1.4225-15.756 4.1328l-43.016 45.826h13.029l57.424-47.746c-3.6748-1.4375-7.6275-2.2127-11.682-2.2129zm15.01 3.7363-52.014 46.223h17.502l45.666-36.447c-2.9436-4.1465-6.7856-7.4621-11.154-9.7754zm32.881 2.2734c-5.1274 3.2e-4 -10.155 1.1264-14.752 3.248l-27.869 40.701h19.98l37.082-40.852c-4.4078-1.9849-9.2936-3.0976-14.441-3.0977zm-177 2.043c-1.8666 0.65726-3.602 1.6047-5.168 2.7754l-8.2089 39.131h5.8886zm198.96 5.6504-29.533 36.256h10.121l26.27-28.969c-1.9305-2.7435-4.2407-5.197-6.8575-7.2871zm9.5293 11.75-23.41 24.506h22.389l4.2031-2.5957c0.3585-2.0243 0.5505-4.0756 0.5508-6.1348-1e-4 -5.6732-1.3495-11.029-3.7325-15.775z" fill="url(#linearGradient1643)"/>
  </g>
  <g transform="matrix(2.8831 .37085 -.37085 2.8831 -69.675 -50.334)" stroke-width="1.4877">
   <path d="m21.332 70.727s1.2983 4.1695 3.1495 8.9751c1.8236 4.734 4.2032 10.341 7.9261 13.362 1.7106 1.3879 3.1976 2.3566 4.6062 3.0932 1.3344 0.69738 2.5436 1.1652 3.6742 1.5431l2.46e-4 2.07e-4c2.6455 0.88416 4.8277 1.2398 6.1099 2.8738 2.2484 2.8652 0.36222 9.5536 4.8436 14.967h1e-6c0.33685 0.40595 0.70996 0.8081 1.1246 1.2066 3.0603 2.9413 5.4619 3.5488 7.6786 4.7339 2.0768 1.1103 3.7849 2.7115 4.4017 7.4023 0.61688 4.6915 3.7025 6.8603 7.4026 9.0304 3.6565 2.1446 7.8565 4.2479 10.123 8.383 4.431 8.0834 11.685 6.6268 11.685 6.6268s0.5483-7.5448 1.8725-11.384c1.3302-3.8568-0.57699-12.178-6.383-17.886-6.1339-6.0305-3.0444-20.028-9.2923-26.843-0.28595-0.31191-0.57865-0.61468-0.87728-0.90951-3.0794-3.038-6.9681-5.3417-10.713-8.1281-3.9655-2.9508-7.5449-6.2211-11.866-12.161-0.43141-0.59314-0.91273-1.156-1.4378-1.6878-5.402-5.4535-14.374-6.9303-21.695-6.3107-7.2598 0.61442-12.335 3.114-12.335 3.114z" fill="#afc46a" stop-color="#000000" style="font-variation-settings:normal"/>
   <path d="m83.616 145.54c-2.2795-4.1562-6.3159-6.3482-9.8118-8.5898-3.5405-2.2702-6.4743-4.5472-7.1282-9.2943-0.65282-4.7398-2.2774-6.4201-4.2703-7.6054-2.1509-1.2793-4.4372-1.936-7.5667-4.963-0.37312-0.3609-0.71537-0.72254-1.0302-1.0853l-1e-6 -1e-5c-4.7841-5.5215-3.2748-11.873-5.5976-14.817-1.8912-2.3977-5.0771-2.3761-9.5853-4.9859-1.3996-0.81101-2.8907-1.8368-4.6533-3.2618-3.9927-3.228-5.7574-7.0696-6.6387-10.369-0.8729-3.2677-0.76528-5.8711-0.76528-5.8711s3.5583-2.0125 8.7795-2.5308c5.1939-0.5156 12.129 0.70566 16.628 5.8548-1e-6 0 1e-6 1e-6 1e-6 1e-6 0.3236 0.3713 0.63348 0.76125 0.92779 1.1701 4.272 5.9342 7.9752 8.7301 12.142 11.211 3.961 2.3579 8.0506 4.217 11.137 7.4913 0.04978 0.05281 0.09907 0.10625 0.14787 0.16032 3.0509 3.3842 4.0845 8.9811 4.9451 14.337 0.85871 5.3443 1.5332 10.399 4.5322 13.317 5.6857 5.5304 8.9846 12.784 7.6421 16.62-1.3193 3.7702 0.60558 10.592 0.60558 10.592s-5.9796 0.75433-10.441-7.38c1e-6 -1e-5 2e-6 -1e-5 3e-6 -1e-5z" fill="#93a559" stop-color="#000000" style="font-variation-settings:normal"/>
   <path d="m92.318 152.13s-0.84823-1.3871-3.2806-2.5553c-2.4318-1.1679-4.8845-1.7428-4.2291-2.5531 0.68998-0.85294 5.867 2.5006 5.867 2.5006s-2.0302-3.3533-3.7021-5.989c-1.6469-2.5965-1.8019-3.6969-5.3675-4.7849-3.6236-1.1058-5.5696-0.23303-6.7282-2.4251-1.1631-2.2005 3.4047-0.124 4.5404 0.31294 1.1377 0.43774 4.6432 1.5407 4.6432 1.5407s-0.973-2.2345-2.3421-4.8471c-1.3955-2.663-3.1112-5.539-4.5464-7.1508-2.7725-3.1134-6.0988-1.9215-8.3064-2.1979-2.2607-0.28311-4.154-2.0772-2.7662-2.3853 1.4104-0.3131 8.4895 0.79405 8.4895 0.79405s-4.3173-6.0169-6.2912-6.7097c-1.921-0.67423-8.0896-1.7929-10.083-2.633-0.76117-0.32077-1.4205-0.5295-1.9943-0.75108-0.92919-0.35758-1.6245-0.74507-2.1903-1.6766-0.80337-1.3228 2.0778-0.2811 3.8525 0.4996 0.24482 0.10794 0.4666 0.20881 0.65657 0.29598 1.5659 0.71856 3.2107 0.41998 3.2107 0.41998s-1.2963-0.77807-2.239-1.8689c-0.35641-0.41274-0.66359-0.87348-0.83177-1.3639-0.55399-1.6154 1.0997-2.5753 1.9236-0.82403 0.15205 0.32319 0.35604 0.65916 0.59276 0.99502 0.90936 1.2889 2.3448 2.6372 3.196 3.1609 1.0832 0.66647 2.9259 0.95073 2.9259 0.95073s-1.5601-3.0106-3.4981-5.9696c-1.2745-1.9468-2.6423-3.7814-3.7466-4.8906-2.7823-2.7946-5.3933-5.991-7.5738-6.7033-2.1031-0.68706-8.5065 0.67176-10.211 0.01181-1.6587-0.64207-3.0343-2.3642-1.6132-2.2942 1.1895 0.05853 2.3689 0.05914 4.8862 0.25627 2.0209 0.15825 3.8912 0.3929 3.8912 0.3929 0.57629-0.10919 1.1551-0.2135 1.7362-0.31299 0 0-4.1756-3.3756-7.5609-5.2349-0.55986-0.30757-1.0915-0.57656-1.5739-0.79483-3.3835-1.5307-7.8277-1.5411-10.179-3.3311-1.5435-1.1751-2.455-3.5209 0.53449-1.5799 2.0392 1.324 7.7118 2.3833 7.7118 2.3833s-2.6366-4.324-5.0096-6.0493c-2.3928-1.7397-4.8412-2.8902-6.0138-3.4379-1.4015-0.65458 3.4791-1.1038 7.6926 2.773 4.3646 4.0158 5.1805 6.307 6.8502 7.655 0.27231 0.21983 0.67325 0.55486 1.156 0.96529 2.4846 2.1112 6.8901 6.4045 7.7474 5.5112 1.0239-1.0669-1.2781-4.9634-1.076-6.4061 0.19845-1.4163 1.9186-0.28947 2.2582 1.4894 0.31506 1.6502 0.85107 6.711 2.3361 8.2259 0.77835 0.79398 2.3784 2.6766 4.2523 4.969 1.7483 2.1388 3.6791 4.5751 4.7412 5.5272 0.34802 0.31197 0.62926 0.49472 0.82182 0.50304 0.50255 0.0217 0.9654-0.84246 1.3438-2.0365 0.75354-2.3808 1.0116-5.3551 1.1415-6.2738 0.14996-1.0612 2.9092-1.4645 3.0832 0.13497 0.07191 0.6609-0.44508 2.2339-1.0963 3.9235-0.84885 2.1962-1.9516 4.6427-2.0161 5.4482-0.11372 1.4194 0.7652 5.9625 2.1387 7.6472 1.1566 1.4187 6.3974 8.3322 7.2151 8.8401 1.1888 0.73844 2.9013-4.0772 3.5028-4.6683 0.60152-0.59104 2.6416 1.4665 1.0978 2.995-1.555 1.5397-3.0723 2.2738-2.1474 4.7954 0.92263 2.5154 4.0181 6.7519 4.638 7.9565 0.61992 1.2046 2.6777 4.8672 3.044 5.8042 0.36633 0.93705 2.5636-2.0506 3.2767-4.2345 0.72252-2.213 2.6982 0.78009 1.4659 2.1361-1.2426 1.3674-3.1749 2.7343-3.0718 4.5193 0.10313 1.7857 4.4035 8.4604 2.8247 8.5993z" fill="#56813b"/>
  </g>
  <g transform="matrix(2.6114 -1.835 1.835 2.6114 -355.98 -3.8532)" stroke-width="1.3549">
   <path d="m57.916 213.73c-10.048-5.947-18.072-10.623-16.049-21.23 2.0235-10.607-11.565-12.381-15.054-17.465-3.4888-5.084 5.7042-14.311 1.9712-21.403-3.733-7.0925-11.688-9.8699-13.572-14.311-1.884-4.4407 5.2507-16.743 2.4247-20.681-2.8259-3.9385-5.146-5.084-5.146-5.084s8.1813-1.9771 25.678 20.116c17.496 22.094 21.718 48.031 22.538 55.202 0.81987 7.171 6.5764 10.168 5.9135 16.602-0.66287 6.4335 0.27911 12.035 0.27911 12.035z" fill="#75a66a"/>
   <path d="m58.021 209.23c-10.269-5.5561-13.159-6.8599-11.135-17.467 2.0235-10.607-13.281-13.239-16.77-18.323-3.4888-5.084 4.8208-14.171 1.0878-21.263-3.733-7.0925-10.341-8.9136-12.225-13.354-1.884-4.4407 1.4102-7.3032 2.0605-12.201 0.63798-4.8053 0.23278-4.9307 0.23278-4.9307s-1.6183-8.383 15.878 13.711c17.496 22.094 16.685 47.324 17.505 54.495 0.81987 7.171 7.9244 9.5155 7.8234 15.982-0.0535 3.4249 1.6376 7.6462 1.6376 7.6462-1.6779-1.8002-2.9927-2.6164-6.0942-4.2944z" fill="#699460"/>
   <path d="m62.669 210.49c-0.9279-2.4168-0.44317-5.8427-3.49-11.386-3.0469-5.5438-4.044-8.5087-6.44-20.02-2.3959-11.511-9.4722-29.132-15.995-39.384-6.5231-10.253-13.171-17.341-14.057-17.03s5.8998 7.6367 7.0078 9.169c1.1079 1.5323-1.2464 3.264-4.5841 2.0929s-5.9552-0.90942-4.6395 0.49831c1.3157 1.4077 4.4733 1.8313 6.2876 2.0057 1.8143 0.17441 3.6978-2.7656 5.4428-0.31145s0.02769 5.2821-2.4375 5.2323c-2.4652-0.0498-5.0412 1.6195-3.1023 1.6569 1.9389 0.0374 6.1214-1.1088 7.6864-0.89697 1.565 0.21178 5.3043 5.8054 5.8167 8.7579 0.51242 2.9525-3.6978 0.99663-5.4013-0.0747-1.7035-1.0714-4.5564-0.58552-2.8253 0.38619 1.7312 0.97172 6.3015 3.2889 7.8526 3.2764 1.5511-0.0125 5.0827 5.606 6.3707 9.8043 1.288 4.1983-3.1854 3.4882-8.1157 3.0397-4.9304-0.44847-8.3927 2.4667-6.6615 2.205 1.7312-0.26162 7.1878-0.0249 9.9162 0.5606 2.7283 0.58552 5.8721-3.1643 7.3402-0.5606 1.468 2.6037 4.1005 11.787 2.2585 11.762-1.842-0.0249-6.4677-4.5845-9.0575-4.8461-2.5898-0.26162-4.0856 1.931-2.4375 1.8188 1.6481-0.11212 4.5426 0.24917 7.0632 2.7283s5.5398 3.0148 5.5398 3.0148 3.1992 6.5155 1.3849 7.3626c-1.8143 0.84713-6.2184 1.4077-6.5092 2.4916-0.29084 1.0838 1.842 1.034 3.2269 0.43604 1.3849-0.59799 3.1715-2.4916 4.501-0.71011 1.3295 1.7815 4.6257 7.2505 3.1438 8.1474-1.4819 0.89697-7.174-1.4451-8.1296 0.0125-0.95561 1.4576-0.96944 2.9151 1.0526 2.0556 2.022-0.85959 2.7145-0.36128 4.6949 0.0374 1.9805 0.39865 4.2933-0.9468 4.2933-0.9468s2.0695 6.452 3.0034 7.615z" fill="#5a8553"/>
  </g>
  <g transform="matrix(3.9203 0 0 3.9203 -252.74 -340.85)">
   <g stroke-width="1.1031">
    <path d="m163.57 148.06c-6.0771 0.0135-11.063 4.7397-11.063 18.384 0 34.929 19.067 47.076 34.19 47.076h38.464s1.3065-4.6294-6.1041-6.6363c-4.8731-1.3198-9.9788 2.7001-9.9788 2.7001-19.097-4.6649-23.892-24.742-23.892-43.14 0-6.9564-12.135-18.405-21.615-18.384z" fill="#fdcd9a"/>
    <path transform="matrix(.26458 0 0 .26458 44.527 0)" d="m517.7 598.5c1.542 54.619-7.6128 93.927 20.213 143.39 35.417 62.958 83.992 50.23 83.992 50.23-72.177-17.631-90.301-93.513-90.301-163.05 0-9.0074-5.3858-20.007-13.904-30.574z" fill="#fddfbe"/>
    <path d="m137.28 124.37s15.62-10.44 32.109 1.066c18.151 12.666 15.792 41.006 15.792 41.006h-37.575c-8.1898-8.1897-10.326-27.026-10.326-42.072z" fill="#494c90" stop-color="#000000" style="font-variation-settings:normal"/>
    <path transform="matrix(.26458 0 0 .26458 44.527 0)" d="m462.83 468.31c21.441 16.363 43.633 42.252 50.256 81.557 5.1279 30.432 5.0342 55.944 4.6484 79.205h13.871s8.9152-107.11-59.686-154.98c-3.0402-2.1215-6.0718-4.0403-9.0898-5.7812z" fill="#4f5f9c"/>
    <path d="m176.91 213.52v-67.518c0-17.908-17.553-34.744-45.595-34.744-12.984 0-50.03 6.9275-47.415 34.744 4.0782 27.848 28.653 67.518 28.653 67.518z" fill="#6c5293"/>
    <path transform="scale(.26458)" d="m496.32 420.5c-16.231 0-42.412 2.8699-69.826 10.508-0.49926 0.53439-0.99721 1.0698-1.4688 1.6211 0 0 45.095-15.652 111.74 1.666 66.641 17.318 97.591 59.546 109.07 85.855 8.8432 20.272 18.721 80.402 22.818 107.12v-75.451c0-67.684-66.341-131.31-172.33-131.31z" fill="#6c5c93" stop-color="#000000" style="font-variation-settings:normal"/>
    <path transform="matrix(.26458 0 0 .26458 44.527 0)" d="m328.03 420.5c-1.6752 0-3.4779 0.0365-5.3555 0.0996 16.751 2.3902 33.279 8.7038 49.123 20.248 74.336 54.162-124.16 119.13-215.78 145.26 2.8792 10.88 6.3091 21.985 10.15 33.145 78.225-10.598 213.77-36.182 271.98-90.824 16.996-15.953 29.902-30.099 39.764-42.564-27.863-37.963-80.339-65.363-149.89-65.363zm-115.3 28.051c-5.4828 2.8485-10.797 5.9656-15.879 9.3477 5.1832-3.2056 10.483-6.3385 15.879-9.3477zm280.88 66.223c-9.6081 14.576-23.07 30.245-41.742 46.68-61.908 54.489-193.04 74.427-276.89 81.713 2.4382 6.2606 4.9642 12.489 7.5605 18.672 83.669-5.2955 208.51-19.566 267.62-58.09 19.556-12.744 36.138-24.993 50.191-36.412v-15.521c0-12.617-2.3086-25.092-6.7461-37.041zm6.7461 115.23c-31.263 20.844-76.262 40.031-141 51.057-68.883 11.733-121.81 15.326-161.59 15.031 1.6519 3.5277 3.3051 7.0127 4.9609 10.451 62.058 0.28219 140.39-3.3916 203.48-19.43 37.06-9.4207 68.372-19.899 94.146-29.98zm0 91.738c-39.08 10.208-92.516 20.603-156.84 24.217-45.549 2.5592-84.571 4.6464-117.5 6.3594 3.3483 6.2548 6.5333 12.084 9.5215 17.465 71.05-2.3848 161.12-6.4117 221.61-12.789 15.364-1.6198 29.753-3.5725 43.207-5.7246z" fill="url(#linearGradient1175)"/>
    <path d="m121.79 83.674-1.2272 9.2902c-1.1587 8.7713 3.6412 13.566 9.1372 14.292 5.4959 0.72603 11.518-0.66552 12.933-11.376 0.18483-1.3991 0.97549-8.0257 0.98774-9.3219 0.12021-12.741-20.452-13.32-21.831-2.8839z" fill="#fdcd9a" stop-color="#000000" style="font-variation-settings:normal;paint-order:stroke fill markers"/>
    <path d="m120.78 91.289c-4.3633 10.526-5.039 21.304 9.5206 23.676 14.56 2.3715 16.328-13.577 12.718-22.303 0 0-2.1286 13.572-10.041 12.527-7.9125-1.0453-12.014-9.0484-12.198-13.899z" fill="#2e363c"/>
    <path d="m121.3 87.401s2.4461 0.60255 4.3249-0.821c1.8788-1.4236 2.6146-2.709 2.6146-2.709s3.0728 1.6503 7.7902 2.1164c4.7174 0.46606 7.4792 2.1743 7.4792 2.1743s-13.397-12.383-17.052-7.9829c-3.6555 4.4004-5.1566 7.2222-5.1566 7.2222z" fill="#f0bb86"/>
    <path d="m121.25 87.406s2.4687-0.17666 3.8468-2.3577c1.3781-2.181 2.5458-4.7795 2.5458-4.7795s1.3134 3.4919 8.9055 5.3621c7.5921 1.8702 9.4821 4.3824 9.4821 4.3824s3.3363-10.658-5.3401-13.841c-8.6764-3.1824-13.471 0.06555-13.471 0.06555s-8.6194-1.136-5.9689 11.168z" fill="#2e363c" stop-color="#000000" style="font-variation-settings:normal"/>
    <path transform="matrix(.26458 0 0 .26458 44.527 0)" d="m310.26 288.05c-7.1536 0.0344-28.703 3.2627-20.293 42.301 0 0 7.2758-0.53193 12.564-6.3359-0.74396-3.7027-1.361-8.2215-1.4785-13.385-0.21935-9.6326 5.3866-18.005 9.207-22.58z" fill="#262931"/>
    <path transform="matrix(.26458 0 0 .26458 44.527 0)" d="m343.51 283.05c8.2688 1.8969 17.52 5.9517 25.09 14.387 17.528 19.532 15.02 42.768 15.02 42.768s12.609-40.282-20.184-52.311c-7.4065-2.7167-14.056-4.1852-19.926-4.8438z" fill="#424d57"/>
    <path transform="matrix(.26458 0 0 .26458 44.527 0)" d="m372.26 350.21s9.5326 31.879-6.5195 63.439c-3.7739 7.4201-8.4 13.439-13.24 18.322 28.614-12.407 30.565-55.642 19.76-81.762z" fill="#424d57"/>
    <path transform="matrix(.26458 0 0 .26458 44.527 0)" d="m288.2 345.03c-16.491 39.784-19.044 80.519 35.984 89.482 6.1121 0.99556 11.624 1.1334 16.582 0.55273-15.588-4.4136-37.159-13.255-47.434-29.996-17.076-27.822-5.1328-60.039-5.1328-60.039z" fill="#262931"/>
    <path transform="matrix(.26458 0 0 .26458 44.527 0)" d="m371.45 354.29c-0.53009 2.4195-1.3653 5.7272-2.541 9.4902 2.7674 2.0352 5.6805 4.2244 8.582 6.4785-0.62914-4.6641-1.5979-9.1946-2.8828-13.432-1.1518-0.96116-2.1599-1.7583-3.1582-2.5371zm-80.254 5.2695c-2.2967 3.7828-5.6558 7.1378-10.506 7.7051-1.1087 4.4393-1.9137 8.8058-2.3848 13.062 2.2384-0.15776 4.4152-0.72792 6.3945-1.9004 4.5908-2.7195 7.8956-6.6558 10.213-10.344-1.4846-2.8349-2.7228-5.7015-3.7168-8.5234zm73.709 14.885c-1.3738 3.0481-2.974 6.0765-4.8242 8.9043 4.8201 6.3687 11.26 15.863 14.047 24.307 1.861-5.0349 3.0468-10.468 3.666-16.037-2.9241-7.5559-8.2185-13.29-12.889-17.174zm-57.363 10.309c-2.8954 3.0951-7.4496 6.0836-14.621 7.9766-5.1691 1.3644-10.209 1.3406-14.861 0.53906 0.40179 4.7468 1.3893 9.2621 3.1035 13.449 5.644-0.72905 11.145-2.3578 15.613-5.4805 6.6878-4.6741 11.08-9.564 13.971-13.738-1.1105-0.87587-2.1761-1.7946-3.2051-2.7461zm43.482 8.5137c-2.3886 1.7344-5.0215 3.0528-7.9199 3.8027 0.95919 4.3329 1.7544 9.8746 2.1289 17.035 0.42648 8.154-2.5329 15.242-6.8633 21.178 6.3073-0.42781 11.759-1.9823 16.436-4.4062 0.88125-2.5485 1.4868-5.1869 1.6914-7.8867 0.81027-10.69-2.3272-21.687-5.4727-29.723zm-29.4 0.77149c-1.0951 4.7338-3.2251 10.088-7.2598 15.379-5.2806 6.9251-15.097 9.5939-24.15 10.484 4.5499 4.2988 10.501 7.8998 18.098 10.623 3.4444-2.1421 6.3927-4.8174 8.3711-8.1836 5.011-8.5263 8.2599-18.52 10.254-26.371-1.834-0.54691-3.6077-1.1904-5.3125-1.9316z" fill="url(#linearGradient1177)"/>
    <path d="m82.783 163.66s-2.7393 49.858 55.219 49.858h50.641s-5.2655-15.449-17.952-4.3998c-21.25-6.3647-53.747-20.26-53.409-45.663-23.027-21.181-34.498 0.2046-34.498 0.2046z" fill="#fdcd9a" stop-color="#000000" style="font-variation-settings:normal;paint-order:stroke fill markers"/>
    <path transform="matrix(.26458 0 0 .26458 44.527 0)" d="m275.66 690.27c-8.5906 0.0245-13.549 0.16407-13.549 0.16407s62.401 50.008 117.94 77.207 103.42 28.824 103.42 28.824 14.636-16.743 34.271-9.916c6.4908 2.2566 14.835 6.8706 23.102 12.02-7.8283-14.458-28.015-39.552-64.012-8.1992-57.082-17.097-135.62-48.58-175.84-99.828-10.084-0.22247-18.831-0.29004-25.332-0.27149z" fill="#fddfbe"/>
    <path transform="matrix(.26458 0 0 .26458 44.527 0)" d="m252.89 750.92-31.562 22.297c30.415 20.05 72.823 33.787 131.96 33.787h40.746c-16.999-2.8427-36.455-6.482-57.115-11.061-66.256-14.683-84.025-45.023-84.025-45.023z" fill="#f0bb86"/>
    <path d="m106 207.98c-29.155-15.952-31.73-67.326-13.463-82.404 12.948-10.687 26.187 0.60107 25.883 11.283-1.0678 37.552 16.044 53.434 16.044 53.434s-23.338 11.057-28.464 17.687z" fill="#494c90" stop-color="#000000" style="font-variation-settings:normal"/>
    <path transform="scale(.26458)" d="m310.88 548.25c-16.973 81.082 10.217 194.32 89.744 237.83 5.9386-7.6808 18.357-16.934 32.709-26.074-8.7122-0.40352-57.106-6.7964-95.045-98.004-21.387-51.414-27.009-89.131-27.408-113.75z" fill="#3c3f75"/>
    <path transform="matrix(.26458 0 0 .26458 44.527 0)" d="m221.83 458.36c-6.7118 0.0627-13.72 1.4286-20.857 4.3457 21.902-0.20157 47.019 4.0488 57.691 31.975 10.367 27.126-6.9275 61.061 15.6 135.45 15.422 50.927 44.614 78.663 61.498 91.098 2.5931-1.2625 4.1445-2 4.1445-2s-64.672-60.026-60.637-201.96c0.82509-29.017-24.794-59.219-57.439-58.914z" fill="#4f5f9c"/>
    <path transform="matrix(.26458 0 0 .26458 44.527 0)" d="m221.83 458.36c-11.369 0.1062-23.588 3.9137-35.842 12.758 31.585-10.213 51.755-5.8039 61.979 16.92 7.9282 17.622-46.662 38.188-104.11 54.535-2.9332 12.243-4.8267 25.299-5.6445 38.809 47.995-6.4801 100.02-18.833 131.3-42.389 3.3412-2.5155 6.5063-4.8637 9.582-7.127-0.0214-4.768 0.0287-9.6241 0.16992-14.592 0.82509-29.017-24.794-59.219-57.439-58.914zm58.791 107.21c-34.698 28.25-81.938 55.897-140.67 65.666 1.0672 8.35 2.5282 16.696 4.3848 24.969 46.064-9.1643 92.911-21.463 126.29-37.523 5.9389-2.8574 11.522-5.5561 16.828-8.1309-3.0058-13.604-5.3917-28.578-6.832-44.98zm8.9238 53.859c-42.301 27.183-91.64 59.998-128.01 87.523 2.31 4.9163 4.7872 9.7322 7.4434 14.424 16.153-13.434 34.544-26.062 54.887-35.879 26.73-12.899 54.835-19.248 80.584-21.984-5.428-12.45-10.633-27.104-14.9-44.084zm29.982 73.107c-39.067 7.0332-87.922 24.427-116.71 66.826-0.76589 1.1282-1.4784 2.1954-2.2207 3.2969 2.5768 2.4775 5.2331 4.8689 7.9746 7.1641 14.292-16.515 32.906-32.836 57.025-46.092 19.967-10.974 40.709-17.44 60.721-20.936-2.1315-3.0028-4.4075-6.3928-6.793-10.26z" fill="url(#linearGradient1179)"/>
   </g>
  </g>
  <g transform="matrix(3.9203 0 0 3.9203 -356.78 -350.12)" stroke-width="1.1031">
   <rect x="144.55" y="162.09" width="80.683" height="51.428" ry="5.8241" fill="#d3d7cf" fill-rule="evenodd" stop-color="#000000" style="paint-order:stroke fill markers"/>
   <path transform="scale(.26458)" d="m568.36 612.63c-12.195 0-22.012 9.817-22.012 22.012v0.44922c6.2074-6.6732 18.679-12.59 48.102-12.59h218.66c14.907 0 26.406 2.7567 26.406 34.096v147.89c7.0082-3.6742 11.77-11.009 11.77-19.5v-150.35c0-12.195-9.8169-22.012-22.012-22.012z" fill="#f0f0ef"/>
   <path d="m185.56 162.09-41.008 22.108v7.4311l68.425-29.539zm39.675 6.1562-80.12 41.954c0.57002 1.1993 1.537 2.1705 2.7337 2.7451l77.386-32.269zm0 24.9-42.192 20.371h7.3076l34.884-13.559zm0 11.624-20.097 8.7468h7.5727l12.503-5.3377c0.0132-0.16056 0.0217-0.3222 0.0217-0.48628z" fill="url(#linearGradient1290)"/>
   <path transform="scale(.26458)" d="m546.35 669.75v115.24c0 12.195 9.817 22.012 22.012 22.012h176.19c-77.091-4.2048-156.78-10.143-167.13-17.078-14.229-9.5338-25.359-77.147-31.064-120.18z" fill="#bfc7b8"/>
   <rect x="147.38" y="213.52" width="75.041" height="2.3647" rx=".97481" ry=".97481" fill="#a3b29a" fill-rule="evenodd" stop-color="#000000" style="paint-order:stroke fill markers"/>
   <g transform="matrix(1.1035 0 0 1.1035 -19.135 -17.145)" fill="#494c90" stroke-width=".99962">
    <path d="m182.83 190.73c-0.11898 2e-3 -0.2357 0.0203-0.35009 0.0554-0.30101 0.0895-0.55336 0.22758-0.75674 0.41469-0.58168 0.55728-1.0352 1.383-1.3606 2.4772-0.32541 1.0942-0.42885 1.9546-0.31088 2.581 0.1017 0.46776 0.44726 0.77695 1.0371 0.92744 0.26033 0.0488 0.60418-0.0956 1.0313-0.43316 0.42711-0.33762 0.7198-0.65702 0.87844-0.958 0.0366-0.0976 2.4e-4 -0.18912-0.10959-0.27454l-0.23821-0.1465c-0.0895-0.0529-0.17246-0.0449-0.24975 0.0242-0.4515 0.50845-0.83003 0.81988-1.1351 0.93378-0.34168-0.0651-0.45594-0.40268-0.34203-1.0128 0.84199-0.29693 1.5541-0.74251 2.1358-1.3364 0.58576-0.59794 0.88072-1.2322 0.88479-1.9033 4e-3 -0.67114-0.16303-1.0781-0.50064-1.2204-0.21102-0.089-0.41539-0.1318-0.6137-0.12862zm-0.0819 0.879c0.19525 0 0.29301 0.1688 0.29301 0.50639 0 0.33763-0.0915 0.66725-0.27455 0.9886-0.17898 0.32135-0.4086 0.59356-0.68926 0.81728-0.27661 0.22372-0.61024 0.41922-1.0007 0.58601 0.15864-0.68337 0.3803-1.3364 0.66504-1.9587 0.28881-0.62641 0.62412-0.93955 1.0065-0.93955z" stroke-width=".2952" style="font-variant-caps:normal;font-variant-east-asian:normal;font-variant-ligatures:normal;font-variant-numeric:normal"/>
    <path d="m178.27 187.56c-0.19932 0-0.32322 0.0915-0.37204 0.27455l-2.2881 8.8036c-0.0651 0.26846 0.0571 0.40315 0.36625 0.40315h0.20764c0.20338 0 0.32957-0.0915 0.37835-0.27454l0.71348-2.7887 0.81152 2.7887c0.0325 0.11796 0.0712 0.19297 0.11594 0.22551 0.0447 0.0325 0.12999 0.049 0.25609 0.049h0.33568c0.2522 0 0.33973-0.11196 0.26244-0.33567l-0.97016-3.0511 2.1479-2.5257c0.0976-0.10575 0.14195-0.20351 0.13381-0.29299-8e-3 -0.0936-0.0769-0.14016-0.20706-0.14016h-0.46373c-0.15864 0-0.27061 0.0449-0.33569 0.13439l-1.8913 2.3734 1.3664-5.3571c0.0488-0.19118-0.0444-0.28665-0.28031-0.28665z" stroke-width=".2952" style="font-variant-caps:normal;font-variant-east-asian:normal;font-variant-ligatures:normal;font-variant-numeric:normal"/>
    <path d="m184.65 188.03c-0.48231 0.10787-0.67594 0.6875-0.52486 1.0953l6.8522 0.23186-7.6988 14.02c0.15671 0.39547 0.56447 0.57035 0.96784 0.53179l8.1309-14.806c0.19798-0.36054-0.0538-0.80338-0.46488-0.81785z" stop-color="#000000" style="font-variant-caps:normal;font-variant-east-asian:normal;font-variant-ligatures:normal;font-variant-numeric:normal;font-variation-settings:normal;paint-order:stroke fill markers"/>
    <g stroke-width=".2952">
     <path d="m191.36 178.38-0.42682 0.0121c-0.12609 0-0.21362 0.083-0.26243 0.24974-0.25627-0.15864-0.52283-0.23763-0.79942-0.23763-0.50032 0-0.9152 0.16652-1.2447 0.50007-0.32948 0.33355-0.64661 0.92348-0.9517 1.7695-0.30102 0.84197-0.49028 1.5132-0.56757 2.0135-0.0732 0.5003-0.0834 0.84188-0.0306 1.0249 0.057 0.18305 0.15073 0.35638 0.2809 0.51909 0.13423 0.16271 0.27233 0.29227 0.41471 0.38989 0.14236 0.0936 0.24638 0.14073 0.31146 0.14073h0.0242c0.14236 0 0.32537-0.10401 0.5491-0.31146 0.22779-0.20744 0.43355-0.46546 0.61659-0.77458l-0.59813 2.1842c-0.0854 0.30913-0.22353 0.42279-0.41471 0.34144l-1.3854-0.8542c-0.14237-0.0814-0.28048-0.0467-0.41471 0.10381l-0.18919 0.26243c-0.13016 0.19931-0.0955 0.34991 0.10382 0.45161l1.2753 0.71981c0.2644 0.1505 0.4616 0.22154 0.59178 0.21341 0.13016-8e-3 0.3109-0.0832 0.54275-0.22552 0.44339-0.23999 0.77302-0.74866 0.98862-1.5256 1.0332-3.665 1.6453-5.8795 1.8365-6.6444 0.0407-0.22371-0.0429-0.33112-0.25032-0.323zm1.9161 0c-0.19118 0-0.30712 0.083-0.34779 0.24974l-1.525 5.8087c-0.0488 0.19117 0.0427 0.28665 0.27455 0.28665h0.36569c0.19932 0 0.32378-0.0915 0.3726-0.27454l1.5129-5.8087c0.0244-0.10168 0.0182-0.17045-0.0185-0.20705-0.0366-0.0366-0.10935-0.0548-0.21918-0.0548zm-3.3787 0.75903c0.1739 8e-3 0.36471 0.0704 0.57217 0.18629l-0.0369 0.11594c-0.27254 0.98841-0.52262 1.7756-0.7504 2.3613-0.22372 0.58166-0.49595 1.0556-0.81731 1.4217s-0.55096 0.51443-0.68926 0.44526c-0.13423-0.0691-0.20755-0.17883-0.21975-0.32932-0.0122-0.1505 0.0202-0.43749 0.0975-0.86055 0.0814-0.4271 0.26039-1.0164 0.537-1.7689 0.28067-0.75657 0.55915-1.2345 0.83577-1.4338 0.14034-0.0997 0.29735-0.14599 0.47123-0.13785z" style="font-variant-caps:normal;font-variant-east-asian:normal;font-variant-ligatures:normal;font-variant-numeric:normal"/>
     <path d="m181.34 178.33-0.28666 0.0127c-0.15864 0-0.2547 0.0972-0.28724 0.29242-0.2522-0.1505-0.51648-0.22552-0.79307-0.22552-0.49624-8e-3 -0.90889 0.15838-1.2384 0.50007-0.32948 0.34167-0.6506 0.9458-0.96381 1.8122s-0.50475 1.5416-0.57392 2.0256c-0.0651 0.47999-0.069 0.81132-0.0121 0.99435 0.061 0.18304 0.15877 0.35183 0.29301 0.50639 0.13423 0.15457 0.26836 0.28074 0.4026 0.37835 0.1383 0.0936 0.24173 0.14073 0.31088 0.14073h0.0248c0.0895 0 0.21736-0.0568 0.38414-0.17073 0.16678-0.11796 0.36855-0.33165 0.60448-0.64078l0.23187 0.68924c0.0366 0.10576 0.11162 0.15066 0.22552 0.13439 0.39457-0.0895 0.73385-0.24407 1.0186-0.46372 0.28881-0.22371 0.60425-0.53515 0.94592-0.93378 0.0895-0.11796 0.069-0.22139-0.0611-0.31087l-0.30452-0.20129c-0.1139-0.0773-0.21791-0.0489-0.31147 0.0854-0.25626 0.35794-0.51488 0.63245-0.7752 0.82364l1.5014-4.9972c0.0813-0.29287-0.0306-0.44346-0.33569-0.45161zm2.1658 0.0554c-0.1261 0-0.20907 0.10741-0.24975 0.323l-1.5135 5.6991c-0.0244 0.0814-0.0182 0.15637 0.0185 0.22552 0.0326 0.0651 0.0729 0.0975 0.12171 0.0975h0.34779c0.13423 0 0.23427-0.0585 0.29936-0.17649 0.26846-0.49219 0.72369-1.2287 1.3664-2.209 0.34168-0.53285 0.62474-0.98012 0.84844-1.3421 0.22372-0.36201 0.41468-0.65696 0.57332-0.88476 0.13424-0.19931 0.23995-0.3357 0.31723-0.40894 0.0813-0.0773 0.15069-0.11593 0.20764-0.11593 0.057 0 0.0854 0.0369 0.0854 0.11016 0 0.0692-0.0324 0.21521-0.0975 0.43891l-1.3122 4.2893c-0.057 0.19931-0.024 0.29876 0.098 0.29876h0.65291c0.10983 0 0.17689-0.0585 0.2013-0.17649l1.397-5.0952c0.0935-0.30912 0.11572-0.54271 0.0669-0.70135-0.0447-0.15863-0.10556-0.26036-0.18285-0.30511-0.0732-0.0447-0.17665-0.0669-0.31087-0.0669h-0.26244c-0.20745 0-0.45753 0.11366-0.75039 0.34143-0.28881 0.22779-0.57185 0.56764-0.84844 1.0192l-1.2995 2.1473 0.93957-3.148c0.0651-0.23999-2e-3 -0.35992-0.20129-0.35992zm-3.5328 0.75613c0.18101 2e-3 0.38278 0.0651 0.60448 0.18917-0.30914 1.0942-0.58195 1.9382-0.81787 2.532-0.23186 0.59386-0.50411 1.0616-0.81731 1.4033-0.30914 0.34167-0.5308 0.47807-0.66505 0.40894-0.13423-0.0692-0.20755-0.17883-0.21976-0.32932-0.0122-0.1505 0.0202-0.43295 0.0975-0.84785 0.0814-0.41895 0.25413-0.99468 0.51854-1.7269 0.26847-0.73215 0.54128-1.2164 0.81787-1.4523 0.14034-0.12 0.3006-0.17911 0.48163-0.17707z" style="font-variant-caps:normal;font-variant-east-asian:normal;font-variant-ligatures:normal;font-variant-numeric:normal"/>
     <path d="m193.71 176.48c-0.17491 0-0.32154 0.0614-0.43952 0.18341-0.11389 0.12203-0.17072 0.2641-0.17072 0.4268 0 0.16271 0.0551 0.30479 0.16496 0.42681 0.11389 0.11796 0.24176 0.17706 0.38414 0.17706h0.0975c0.18305 0 0.33595-0.0568 0.45797-0.17072 0.12203-0.11796 0.18284-0.25834 0.18284-0.42104 0-0.16271-0.0591-0.30706-0.17707-0.43316-0.11796-0.12609-0.24584-0.18918-0.38415-0.18918z" style="font-variant-caps:normal;font-variant-east-asian:normal;font-variant-ligatures:normal;font-variant-numeric:normal"/>
     <path d="m196.46 176.17c-0.19932 0-0.32322 0.0921-0.37204 0.27512l-0.50064 1.9402h-0.50009c-0.13423 0-0.22573 0.079-0.27455 0.23763l-0.0975 0.33567c-0.061 0.19931-8e-3 0.29876 0.15861 0.29876h0.50009l-1.2995 5.0704c-0.0244 0.11796-0.0102 0.21572 0.0427 0.293 0.057 0.0732 0.15243 0.10959 0.28666 0.10959h0.23187c0.20338 0 0.32957-0.0915 0.37835-0.27455l1.3243-5.1986h0.64659c0.15864 0 0.26833-0.0915 0.32933-0.27454l0.0854-0.32301c0.057-0.18304-6e-3 -0.27454-0.18919-0.27454h-0.64659l0.48798-1.9281c0.0488-0.19117-0.0427-0.28723-0.27455-0.28723z" style="font-variant-caps:normal;font-variant-east-asian:normal;font-variant-ligatures:normal;font-variant-numeric:normal"/>
     <path d="m174.89 175.68c-0.19931 0-0.32322 0.0915-0.37203 0.27455l-2.1416 8.3896c-0.0244 0.10576-0.0125 0.19726 0.0363 0.27454 0.0447 0.0732 0.11578 0.10959 0.21341 0.10959h3.4168c0.22372 0 0.35615-0.087 0.39684-0.26185l0.0854-0.31146c0.0203-0.0773 0.0124-0.14435-0.0242-0.2013-0.0325-0.0569-0.0854-0.0854-0.15861-0.0854h-2.8251l1.983-7.7978c0.0285-0.10982 0.0182-0.20132-0.0306-0.27454-0.0447-0.0773-0.11579-0.11593-0.21341-0.11593z" style="font-variant-caps:normal;font-variant-east-asian:normal;font-variant-ligatures:normal;font-variant-numeric:normal"/>
    </g>
   </g>
  </g>
 </g>
</svg>
