<?xml version="1.0" encoding="UTF-8" standalone="no"?>
<svg
   xmlns:dc="http://purl.org/dc/elements/1.1/"
   xmlns:cc="http://creativecommons.org/ns#"
   xmlns:rdf="http://www.w3.org/1999/02/22-rdf-syntax-ns#"
   xmlns:svg="http://www.w3.org/2000/svg"
   xmlns="http://www.w3.org/2000/svg"
   xmlns:sodipodi="http://sodipodi.sourceforge.net/DTD/sodipodi-0.dtd"
   xmlns:inkscape="http://www.inkscape.org/namespaces/inkscape"
   viewBox="0 0 870.00003 530.00001"
   version="1.1"
   id="svg143"
   sodipodi:docname="profesional.svg"
   width="870"
   height="530"
   inkscape:version="1.0.1 (unknown)">
  <metadata
     id="metadata147">
    <rdf:RDF>
      <cc:Work
         rdf:about="">
        <dc:format>image/svg+xml</dc:format>
        <dc:type
           rdf:resource="http://purl.org/dc/dcmitype/StillImage" />
        <dc:title />
      </cc:Work>
    </rdf:RDF>
  </metadata>
  <sodipodi:namedview
     pagecolor="#ffffff"
     bordercolor="#666666"
     borderopacity="1"
     objecttolerance="10"
     gridtolerance="10"
     guidetolerance="10"
     inkscape:pageopacity="0"
     inkscape:pageshadow="2"
     inkscape:window-width="1366"
     inkscape:window-height="703"
     id="namedview145"
     showgrid="false"
     inkscape:snap-global="true"
     inkscape:zoom="1.3048495"
     inkscape:cx="409.29929"
     inkscape:cy="266.20248"
     inkscape:window-x="0"
     inkscape:window-y="0"
     inkscape:window-maximized="1"
     inkscape:current-layer="g1248"
     inkscape:document-rotation="0" />
  <defs
     id="defs4">
    <style
       id="style2">.cls-1{fill:#2e186a;}.cls-2,.cls-6{fill:#fff;}.cls-11,.cls-2,.cls-3{stroke:#2e186a;}.cls-11,.cls-2,.cls-3,.cls-8,.cls-9{stroke-linecap:round;stroke-linejoin:round;}.cls-2,.cls-3,.cls-8,.cls-9{stroke-width:6px;}.cls-11,.cls-3,.cls-8,.cls-9{fill:none;}.cls-4{fill:#fe7624;}.cls-5{fill:#feba91;}.cls-7{fill:#5d21d1;}.cls-8{stroke:#fff;}.cls-9{stroke:#fffdfd;}.cls-10{fill:#968bb4;}.cls-11{stroke-width:8px;}</style>
  </defs>
  <g
     id="g1248"
     transform="matrix(1.2126755,0,0,1.2126755,-76.221826,-91.164156)">
    <g
       id="cap_man"
       data-name="cap man"
       transform="matrix(0.77285305,0,0,0.77285305,-76.374796,99.640352)">
      <path
         id="shirt"
         class="cls-1"
         d="m 530.15,498.46 c -3.13,-36.55 -28.61,-89.06 -34.31,-139.39 38.4,-35.93 -3.11,-140.57 -26,-141.7 -23.08,-4.24 -43.08,-8.48 -80,-9.77 -45.59,-1.59 -86.83,3.89 -102.1,6.09 -57.07,28.25 -88.12,194 -50.51,226.69 7.12,6.19 18.59,12.39 32.64,18.17 -1.2,14 -2,28 -2,41 z"
         style="fill:#5b37f0;fill-opacity:1" />
      <path
         id="neck"
         class="cls-2"
         d="m 347.37,213.29 8.25,-49.64 62,23.27 2.38,35.28 c -8.38,61.6 -74.45,2.01 -72.63,-8.91 z" />
      <g
         id="head">
        <path
           id="hair_back"
           data-name="hair back"
           class="cls-1"
           d="m 433.55,70.31 c 0,0 -47.55,29.8 -24.55,57.94 0,0 10.25,11.76 18.74,9.46 0,0 -6.2,-10 1,-15.12 0,0 2.15,29.89 26.64,23.85 0,0 -9,-13.25 -6.53,-29.1 5.05,-33.08 -2.55,-52.96 -15.3,-47.03 z"
           style="fill:#5b37f0;fill-opacity:1" />
        <path
           id="face"
           class="cls-2"
           d="m 335.06,117.42 c 0,0 -9.06,-58.35 49.94,-68.42 5.5,-0.94 43.22,-6.59 50.09,24.69 4.59,20.9 5.46,43.58 4.9,61.2 0,0.1 -0.57,33.27 -13.68,51.7 -13.11,18.43 -42.16,16.71 -57.52,7.63 -15.36,-9.08 -18.17,-13.81 -22.47,-24.58 -4.3,-10.77 -11.21,-52.12 -11.21,-52.12 z" />
        <polyline
           id="nose"
           class="cls-3"
           points="415.71 121.98 421.17 148.88 411.1 148.88" />
        <path
           id="brow_II"
           data-name="brow II"
           class="cls-3"
           d="m 384.07,102.13 a 13.6,13.6 0 0 1 12.74,-5.45" />
        <path
           id="brow"
           class="cls-3"
           d="m 422.77,94.43 c 0,0 10.23,-4.59 14.73,1.57" />
        <path
           id="hair_front"
           data-name="hair front"
           class="cls-1"
           d="m 381.36,73.93 c 0,0 22.3,78.18 -29.7,86.22 0,0 -30.29,5.35 -37.21,-5.35 0,0 21.95,-11.66 19.19,-24.19 0,0 -24.68,27.06 -46.16,7.64 0,0 35.85,-6 32.67,-38.24 -2.28,-23.13 53.22,-44.84 61.21,-26.08 z"
           style="fill:#5b37f0;fill-opacity:1" />
        <path
           id="cap"
           class="cls-4"
           d="m 318,80.15 c 3.28,-21.33 15.7,-51.87 59.42,-56.94 68.31,-7.94 70.35,58.54 70.35,58.54 L 319.58448,100.42586 C 318.09419,93.887292 318.11939,84.945729 318,80.15 Z"
           sodipodi:nodetypes="ccccc"
           style="fill:#ff5361;fill-opacity:1" />
        <path
           id="mouth"
           class="cls-3"
           d="m 394.2,155.73 c 0,0 4.32,10.12 18.59,7.87" />
      </g>
      <path
         id="puzzle"
         class="cls-5"
         d="m 548.89,278.34 v -34.28 a 25.27,25.27 0 0 0 -25.27,-25.27 h -9.86 a 62.87,62.87 0 1 1 -125.73,0 h -9.86 a 25.28,25.28 0 0 0 -25.27,25.27 v 182.7 A 25.27,25.27 0 0 0 378.17,452 h 145.45 a 25.27,25.27 0 0 0 25.27,-25.27 v -22.66 a 62.87,62.87 0 0 0 0,-125.73 z"
         style="fill:#ffffff;fill-opacity:1;stroke:#ff5361;stroke-width:6.40191;stroke-miterlimit:4;stroke-dasharray:none;stroke-opacity:1" />
      <g
         id="handII">
        <path
           class="cls-6"
           d="m 531.62,443.46 c -0.14,-0.43 -22.08,-26 -22.82,-25.46 -0.74,0.54 -30.8,14 -31.46,15.05 -0.66,1.05 -1.81,7.09 1.22,12.73 3.03,5.64 6.36,18.5 19.95,19.51 13.59,1.01 33.11,-21.83 33.11,-21.83 z"
           id="path20" />
        <path
           class="cls-2"
           d="m 491.5,423.9 c 0,0 -2.56,-17.67 1.5,-21.9 4.06,-4.23 27,35 34.89,37.72"
           id="path22" />
        <path
           class="cls-2"
           d="m 479.32,427 c 0,0 -5.46,-12.9 1.77,-19.14 7.23,-6.24 25.06,29.06 32.89,33.63"
           id="path24" />
        <path
           class="cls-2"
           d="m 476.08,441.81 c 0,0 -9.24,-23.11 -2.8,-28 6.44,-4.89 16.88,25.08 29.4,32"
           id="path26" />
        <path
           class="cls-2"
           d="m 526.26,438.84 v 0 A 25,25 0 0 0 524.79,424 c -2.27,-5.35 -5,-12.63 -5.24,-17.28 -0.45,-8.1 12.8,-4.3 13.35,0.73 0.55,5.03 3.07,4.74 8.87,9.86 5.8,5.12 4.74,25.54 4.74,25.54 0,0 5.1,10.47 -11.34,23 -16.44,12.53 -34,2.78 -34,2.78 0,0 -31.77,-11.74 -31.76,-34.63 0.01,-22.89 8.43,10.48 24.33,19.87"
           id="path28" />
      </g>
      <g
         id="hand">
        <path
           class="cls-6"
           d="m 354.37,443.46 c 0.15,-0.43 22.08,-26 22.82,-25.46 0.74,0.54 30.8,14 31.46,15.05 0.66,1.05 1.82,7.09 -1.22,12.73 -3.04,5.64 -6.36,18.5 -19.95,19.51 -13.59,1.01 -33.11,-21.83 -33.11,-21.83 z"
           id="path31" />
        <path
           class="cls-2"
           d="m 394.5,423.9 c 0,0 2.55,-17.67 -1.5,-21.9 -4.05,-4.23 -27,35 -34.89,37.72"
           id="path33" />
        <path
           class="cls-2"
           d="m 406.67,427 c 0,0 5.47,-12.9 -1.77,-19.14 -7.24,-6.24 -25.06,29.05 -32.9,33.62"
           id="path35" />
        <path
           class="cls-2"
           d="m 409.91,441.81 c 0,0 9.24,-23.11 2.81,-28 -6.43,-4.89 -16.89,25.08 -29.4,32"
           id="path37" />
        <path
           class="cls-2"
           d="m 359.73,438.84 v 0 A 25.08,25.08 0 0 1 361.2,424 c 2.27,-5.35 5,-12.63 5.24,-17.28 0.45,-8.1 -12.79,-4.3 -13.35,0.73 -0.56,5.03 -3.07,4.74 -8.87,9.86 -5.8,5.12 -4.74,25.54 -4.74,25.54 0,0 -5.1,10.47 11.34,23 16.44,12.53 34,2.78 34,2.78 0,0 31.78,-11.74 31.77,-34.63 -0.01,-22.89 -8.44,10.48 -24.34,19.87"
           id="path39" />
      </g>
    </g>
    <g
       id="developer"
       transform="matrix(0.77285305,0,0,0.77285305,-397.76462,99.640352)">
      <g
         id="body-2"
         data-name="body">
        <path
           id="hoodie"
           class="cls-4"
           d="m 1476.83,289 c 0.26,-54.62 -79.4,-73.4 -79.4,-73.4 6,-27.14 3.25,-94.16 -110.28,-73.66 -58.15,10.06 -74.6,40.59 -62.24,65.34 -22.62,11.22 -79.08,92.15 -79.08,92.15 l 1.06,69.56 a 65.52,65.52 0 0 0 -13.09,-1.38 64.74,64.74 0 0 0 -65,64.45 c -0.15,35.75 31.74,67.73 67.49,67.88 a 58.39,58.39 0 0 0 12.59,-1.31 v 1.32 l 308.67,-0.8 c 0,0 1.46,-61.86 -5.91,-127.52 12.92,-29.63 25.1,-62.77 25.19,-82.63 z"
           style="fill:#ff5361;fill-opacity:1" />
        <path
           id="t-shirt"
           class="cls-6"
           d="m 1347.4,182.32 20.6,11.41 c 0,0 -53.59,23.14 -63.27,130 -6.29,69.43 -1.29,177.72 -1.29,177.72 l -35.42,-0.55 c 0,0 9.55,-214.71 -5.89,-249.65 -15.44,-34.94 1.59,-37.14 9.39,-44.4 7.8,-7.26 75.88,-24.53 75.88,-24.53 z" />
        <circle
           id="welt_II"
           data-name="welt II"
           class="cls-1"
           cx="1122.26"
           cy="426.26001"
           r="51.369999"
           style="fill:#5b37f0;fill-opacity:1" />
        <circle
           id="welt"
           class="cls-1"
           cx="1309.6801"
           cy="430.57001"
           r="44.73"
           style="fill:#5b37f0;fill-opacity:1" />
        <path
           id="shadow_II"
           data-name="shadow II"
           class="cls-1"
           d="m 1346.37,278.8 c 8.9,-4.05 37.22,-36.44 51,-63.41 11.5,-0.17 28.12,7.7 35.33,13.29 -32.7,51.69 -86.38,50.2 -86.33,50.12 z"
           style="fill:#5b37f0;fill-opacity:1" />
        <g
           id="lines-2"
           data-name="lines">
          <path
             class="cls-3"
             d="m 1340.14,371.63 c 0,0 39.49,-16.5 68.86,29.55"
             id="path93" />
          <path
             class="cls-3"
             d="m 1337.3,372.18 c 0,0 31.13,-31.58 73.58,8.13"
             id="path95" />
          <path
             class="cls-3"
             d="m 1450.24,374.88 c 0,0 -38.11,136 -138.08,107.37 0,0 -17.76,-4.43 -26.24,-16"
             id="path97" />
          <path
             class="cls-3"
             d="m 1326.1,389 a 192.58,192.58 0 0 0 19.9,-32.09 c 9.84,-19.63 22.55,-51.17 22.55,-51.17"
             id="path99" />
        </g>
        <path
           id="neck-3"
           data-name="neck"
           class="cls-2"
           d="m 1349,139 -1.53,47.39 a 20.56,20.56 0 0 1 -7.44,16.36 c -9.18,7.64 -26,22.71 -47.13,46.56 0,0 -26.36,-28.07 -30.81,-71.9 z" />
      </g>
      <g
         id="head-4"
         data-name="head">
        <path
           id="ear"
           class="cls-2"
           d="m 1355.43,114.62 c 0,0 21,0.5 17.12,19.23 -3.88,18.73 -26.93,7.79 -26.93,7.79 l 3.21,-26.64 z" />
        <path
           id="face-4"
           data-name="face"
           class="cls-2"
           d="m 1296,55.26 c -5.52,-0.48 -43.34,-3 -47.61,28.52 -4.27,31.52 0,66.4 3.47,82.33 3.47,15.93 75.88,8.87 80,7.47 4.12,-1.4 9,-6.19 9,-6.19 L 1351,119 c 0,0 4.3,-58.56 -55,-63.74 z" />
        <path
           id="beard"
           class="cls-10"
           d="m 1344,118.53 c -3.55,3.46 -13.14,23.47 -15.5,32.81 0,0 -23.48,-8 -57.16,-8.58 0,0 -18.37,0.29 -25.7,2.41 0,0 1.44,33.11 16.26,50.31 14.82,17.2 46.32,12.54 61.14,2.3 14.82,-10.24 17.27,-15.15 20.74,-26.16 3.47,-11.01 12.67,-52.07 12.67,-52.07 z" />
        <path
           id="hair-3"
           data-name="hair"
           class="cls-1"
           d="m 1353.56,125.65 c 0,0 9.9,-15.19 13.77,-31 3.63,-14.87 -3.22,-30.5 -17,-37.22 -11.5,-5.64 -20.07,-1.3 -20.07,-1.3 0,0 12.32,-20.78 -6,-39.26 A 33.43,33.43 0 0 0 1299.8,7 32.21,32.21 0 0 0 1270.37,26.49 c 0,0 -23.82,-44.21 -73.14,-18.32 -5,2.61 -10.6,9.93 -13.3,14.86 -16.38,29.88 37,65.59 64.91,68.51 30.61,3.22 48.55,-1.78 58.45,-9.23 -7.36,4.34 0.71,50.19 46.27,43.34 z"
           style="fill:#5b37f0;fill-opacity:1" />
        <path
           id="mouth-3"
           data-name="mouth"
           class="cls-11"
           d="m 1293.84,165.77 c 0,0 -4.76,10.56 -15.68,6.06" />
        <polyline
           id="nose-3"
           data-name="nose"
           class="cls-11"
           points="1271.48 130.02 1265.34 154.93 1278.23 156.28" />
        <path
           id="brow_II-2"
           data-name="brow II"
           class="cls-11"
           d="m 1302.19,109 a 13.54,13.54 0 0 0 -12.8,-5.1" />
        <path
           id="brow-4"
           data-name="brow"
           class="cls-11"
           d="m 1262.26,103.31 c 0,0 -8.18,-2.17 -10.26,4.52" />
      </g>
      <path
         id="puzzle-3"
         data-name="puzzle"
         class="cls-5"
         d="m 1316.9086,408.07564 0.63,-146.12 a 25.39,25.39 0 0 0 -25.28,-25.5 l -34.44,-0.15 a 63.16,63.16 0 0 0 -126.31,-0.54 l -22.79,-0.1 a 25.38,25.38 0 0 0 -25.45,25.28 l -0.63,146.12 a 25.38,25.38 0 0 0 25.27,25.49 l 183.54,0.79 a 25.38,25.38 0 0 0 25.46,-25.27 z"
         style="font-variation-settings:normal;opacity:1;vector-effect:none;fill:#ffffff;fill-opacity:1;stroke:#5b37f0;stroke-width:6.40191;stroke-linecap:butt;stroke-linejoin:miter;stroke-miterlimit:4;stroke-dasharray:none;stroke-dashoffset:0;stroke-opacity:1;stop-color:#000000;stop-opacity:1" />
      <g
         id="hand-3"
         data-name="hand">
        <path
           class="cls-6"
           d="m 1102.6,425.32 c 0.14,-0.44 22.08,-26.06 22.82,-25.46 0.74,0.6 30.79,14 31.45,15.05 0.66,1.05 1.82,7.08 -1.21,12.72 -3.03,5.64 -6.36,18.51 -20,19.52 -13.64,1.01 -33.06,-21.83 -33.06,-21.83 z"
           id="path116" />
        <path
           class="cls-2"
           d="m 1142.72,405.75 c 0,0 2.56,-17.66 -1.52,-21.85 -4.08,-4.19 -27,35 -34.89,37.72"
           id="path118" />
        <path
           class="cls-2"
           d="m 1154.89,408.85 c 0,0 5.47,-12.91 -1.76,-19.15 -7.23,-6.24 -25.06,29.06 -32.89,33.63"
           id="path120" />
        <path
           class="cls-2"
           d="m 1158.14,423.67 c 0,0 9.24,-23.11 2.8,-28 -6.44,-4.89 -16.88,25.09 -29.4,32"
           id="path122" />
        <path
           class="cls-2"
           d="m 1108,420.7 v 0 a 25,25 0 0 1 1.47,-14.84 c 2.27,-5.36 5,-12.63 5.24,-17.29 0.45,-8.1 -12.8,-4.29 -13.35,0.73 -0.55,5.02 -3.07,4.75 -8.88,9.86 -5.81,5.11 -4.73,25.54 -4.73,25.54 0,0 -5.1,10.47 11.34,23 16.44,12.53 34,2.78 34,2.78 0,0 31.81,-11.73 31.8,-34.62 -0.01,-22.89 -8.43,10.48 -24.33,19.88"
           id="path124" />
      </g>
      <g
         id="handII-3"
         data-name="handII">
        <path
           class="cls-6"
           d="m 1307.8,428.25 c -0.14,-0.44 -22.07,-26.06 -22.82,-25.46 -0.75,0.6 -30.79,14 -31.45,15 -0.66,1 -1.82,7.08 1.21,12.72 3.03,5.64 6.37,18.51 20,19.52 13.63,1.01 33.06,-21.78 33.06,-21.78 z"
           id="path127" />
        <path
           class="cls-2"
           d="m 1267.68,408.68 c 0,0 -2.56,-17.66 1.52,-21.85 4.08,-4.19 27,35 34.89,37.72"
           id="path129" />
        <path
           class="cls-2"
           d="m 1255.51,411.78 c 0,0 -5.47,-12.91 1.77,-19.15 7.24,-6.24 25,29.06 32.89,33.63"
           id="path131" />
        <path
           class="cls-2"
           d="m 1252.26,426.6 c 0,0 -9.24,-23.11 -2.8,-28 6.44,-4.89 16.89,25.08 29.4,32"
           id="path133" />
        <path
           class="cls-2"
           d="m 1302.44,423.63 v 0 a 25,25 0 0 0 -1.47,-14.84 c -2.26,-5.36 -5,-12.63 -5.24,-17.28 -0.45,-8.11 12.8,-4.3 13.36,0.72 0.56,5.02 3.06,4.75 8.87,9.87 5.81,5.12 4.73,25.54 4.73,25.54 0,0 5.1,10.47 -11.34,23 -16.44,12.53 -34,2.79 -34,2.79 0,0 -31.81,-11.74 -31.8,-34.63 0.01,-22.89 8.43,10.48 24.33,19.88"
           id="path135" />
      </g>
    </g>
    <path
       style="font-variation-settings:normal;opacity:1;vector-effect:none;fill:none;fill-opacity:1;stroke:#2e186a;stroke-width:4.63712px;stroke-linecap:round;stroke-linejoin:round;stroke-miterlimit:4;stroke-dasharray:none;stroke-dashoffset:0;stroke-opacity:1;stop-color:#000000;stop-opacity:1"
       d="M 777.95765,485.41371 H 65.17281"
       id="path1167" />
    <g
       id="g864"
       transform="matrix(1.1887624,0,0,1.1887624,457.70994,279)">
      <path
         id="path851"
         style="font-style:normal;font-variant:normal;font-weight:normal;font-stretch:normal;font-size:113.151px;line-height:1.25;font-family:Allan;-inkscape-font-specification:'Allan, Normal';font-variant-ligatures:normal;font-variant-caps:normal;font-variant-numeric:normal;font-variant-east-asian:normal;fill:#222222;fill-opacity:1;stroke:none;stroke-width:1.05785"
         d="m 57.996094,68.150391 c -0.402894,0.0064 -0.79815,0.0687 -1.185547,0.1875 -1.019289,0.30303 -1.873796,0.770685 -2.5625,1.404297 -1.969706,1.887056 -3.505489,4.683423 -4.607422,8.388671 -1.101932,3.705238 -1.452183,6.619016 -1.052734,8.740235 0.344355,1.584028 1.514465,2.630983 3.511718,3.140625 0.881543,0.165291 2.045904,-0.323541 3.492188,-1.466797 1.446284,-1.143255 2.43742,-2.224855 2.974609,-3.244141 0.123968,-0.33058 8.1e-4,-0.640433 -0.371094,-0.929687 L 57.388672,83.875 c -0.303029,-0.17906 -0.583992,-0.152131 -0.845703,0.08203 -1.528933,1.721764 -2.810691,2.776433 -3.84375,3.16211 -1.157033,-0.220383 -1.543879,-1.363568 -1.158203,-3.429688 2.851248,-1.005514 5.262714,-2.514366 7.232422,-4.525391 1.983463,-2.024799 2.982306,-4.172575 2.996093,-6.445312 0.01379,-2.272735 -0.552057,-3.650723 -1.695312,-4.132812 -0.714539,-0.301311 -1.406636,-0.446306 -2.078125,-0.435546 z m -0.277344,2.976562 c 0.661159,0 0.992187,0.57159 0.992188,1.714844 0,1.143255 -0.309847,2.2595 -0.929688,3.347656 -0.606059,1.088157 -1.383571,2.009998 -2.333984,2.767578 -0.936643,0.757582 -2.066357,1.419633 -3.388672,1.984375 0.537189,-2.314057 1.287765,-4.525369 2.251953,-6.632812 0.977966,-2.121218 2.113435,-3.181641 3.408203,-3.181641 z" />
      <path
         style="font-style:normal;font-variant:normal;font-weight:normal;font-stretch:normal;font-size:113.151px;line-height:1.25;font-family:Allan;-inkscape-font-specification:'Allan, Normal';font-variant-ligatures:normal;font-variant-caps:normal;font-variant-numeric:normal;font-variant-east-asian:normal;fill:#222222;fill-opacity:1;stroke:none;stroke-width:1.05785"
         d="m 42.574219,57.429688 c -0.674936,-10e-7 -1.094477,0.309852 -1.259766,0.929687 l -7.748047,29.8125 c -0.220386,0.909094 0.193397,1.365234 1.240235,1.365234 h 0.703125 c 0.688706,0 1.115963,-0.309846 1.28125,-0.929687 l 2.416015,-9.44336 2.748047,9.44336 c 0.110188,0.399447 0.24106,0.653473 0.392578,0.763672 0.151514,0.110188 0.440189,0.166015 0.867188,0.166015 h 1.136718 c 0.853997,0 1.150377,-0.37914 0.888672,-1.136718 l -3.285156,-10.332032 7.273438,-8.552734 c 0.330577,-0.358129 0.480675,-0.689156 0.453125,-0.992187 -0.02757,-0.316806 -0.260404,-0.47461 -0.701172,-0.47461 h -1.570313 c -0.537194,0 -0.916328,0.152047 -1.136718,0.455078 l -6.404297,8.03711 4.626953,-18.140625 c 0.165292,-0.647386 -0.15032,-0.970705 -0.949219,-0.970703 z"
         id="path843" />
      <path
         id="path845"
         style="font-style:normal;font-variant:normal;font-weight:normal;font-stretch:normal;font-size:113.151px;line-height:1.25;font-family:Allan;-inkscape-font-specification:'Allan, Normal';font-variant-ligatures:normal;font-variant-caps:normal;font-variant-numeric:normal;font-variant-east-asian:normal;fill:#5b37f0;fill-opacity:1;stroke:none;stroke-width:1.05785"
         d="m 64.166016,59.019531 c -1.633162,0.365288 -2.288886,2.328145 -1.777344,3.708985 l 23.203125,0.785156 -26.070313,47.474608 c 0.530646,1.33916 1.911359,1.93145 3.277344,1.80078 L 90.332031,62.652344 c 0.670407,-1.220863 -0.182265,-2.72048 -1.574219,-2.769532 z" />
      <path
         id="path841"
         style="font-style:normal;font-variant:normal;font-weight:normal;font-stretch:normal;font-size:113.151px;line-height:1.25;font-family:Allan;-inkscape-font-specification:'Allan, Normal';font-variant-ligatures:normal;font-variant-caps:normal;font-variant-numeric:normal;font-variant-east-asian:normal;fill:#222222;fill-opacity:1;stroke:none;stroke-width:1.05785"
         d="m 86.896484,26.347656 -1.445312,0.04102 c -0.426994,0 -0.723382,0.280965 -0.888672,0.845703 -0.867772,-0.537191 -1.770391,-0.804687 -2.707031,-0.804687 -1.694218,0 -3.09914,0.563879 -4.214844,1.693359 -1.115704,1.129482 -2.189593,3.127161 -3.222656,5.992187 -1.019283,2.851245 -1.660167,5.124138 -1.921875,6.81836 -0.247935,1.694218 -0.282569,2.850869 -0.103516,3.470703 0.192841,0.619839 0.510398,1.206849 0.951172,1.757812 0.454546,0.550968 0.922199,0.989734 1.404297,1.320313 0.482094,0.316806 0.834302,0.476562 1.054687,0.476562 h 0.08203 c 0.48209,0 1.101795,-0.352208 1.859375,-1.054687 0.771354,-0.702483 1.468059,-1.576213 2.08789,-2.623047 l -2.02539,7.396484 c -0.289261,1.046832 -0.756918,1.431734 -1.404297,1.15625 L 71.710936,49.94141 c -0.482098,-0.275483 -0.949751,-0.158077 -1.404297,0.351563 l -0.640625,0.888672 c -0.440774,0.674934 -0.323374,1.184942 0.351562,1.529297 l 4.31836,2.4375 c 0.895317,0.509644 1.563132,0.750206 2.003906,0.722656 0.440774,-0.02757 1.052765,-0.281579 1.83789,-0.763672 1.501385,-0.812673 2.617626,-2.535153 3.347657,-5.166016 3.498632,-12.410509 5.571363,-19.910456 6.21875,-22.5 0.137735,-0.757577 -0.145179,-1.121299 -0.847657,-1.09375 z m 6.488282,0 c -0.647384,0 -1.039989,0.280966 -1.177735,0.845703 l -5.164062,19.669922 c -0.16529,0.647383 0.144562,0.970703 0.929687,0.970703 h 1.238282 c 0.674932,4e-6 1.096428,-0.309852 1.261718,-0.929687 l 5.123047,-19.669922 c 0.08265,-0.344354 0.06145,-0.577204 -0.0625,-0.701172 -0.123968,-0.123968 -0.370284,-0.185547 -0.742187,-0.185547 z m -11.441407,2.570313 c 0.588846,0.02757 1.235016,0.238299 1.9375,0.630859 l -0.125,0.392578 c -0.922866,3.34712 -1.769656,6.012616 -2.541015,7.996094 -0.757576,1.969703 -1.679425,3.574782 -2.767578,4.814453 -1.088159,1.239673 -1.865662,1.741974 -2.333985,1.507813 -0.454546,-0.23416 -0.702817,-0.605588 -0.74414,-1.115235 -0.04133,-0.509643 0.06837,-1.481548 0.330078,-2.914062 0.275484,-1.446283 0.881716,-3.442018 1.818359,-5.990235 0.950417,-2.561992 1.893438,-4.180534 2.830078,-4.855468 0.475208,-0.337466 1.006858,-0.494348 1.595703,-0.466797 z" />
      <path
         id="path839"
         style="font-style:normal;font-variant:normal;font-weight:normal;font-stretch:normal;font-size:113.151px;line-height:1.25;font-family:Allan;-inkscape-font-specification:'Allan, Normal';font-variant-ligatures:normal;font-variant-caps:normal;font-variant-numeric:normal;font-variant-east-asian:normal;fill:#222222;fill-opacity:1;stroke:none;stroke-width:1.05785"
         d="m 52.951172,26.160156 -0.970703,0.04297 c -0.537194,0 -0.862461,0.329077 -0.972657,0.990234 -0.853996,-0.509642 -1.748902,-0.763671 -2.685546,-0.763671 -1.680445,-0.02755 -3.077654,0.536331 -4.19336,1.693359 -1.115707,1.157027 -2.203063,3.202826 -3.263672,6.136719 -1.060609,2.933891 -1.709198,5.220257 -1.943359,6.859375 -0.220387,1.625353 -0.233845,2.747351 -0.04102,3.367187 0.206611,0.619841 0.537638,1.191427 0.992188,1.714844 0.454548,0.523415 0.908739,0.950671 1.363281,1.28125 0.468324,0.316805 0.818573,0.476562 1.052734,0.476562 h 0.08398 c 0.303034,0 0.73604,-0.192447 1.300781,-0.578125 0.564739,-0.399447 1.247974,-1.123084 2.046875,-2.169921 l 0.785156,2.333984 c 0.123968,0.358126 0.377998,0.510173 0.763672,0.455078 1.336091,-0.303035 2.485024,-0.826506 3.449219,-1.570312 0.977964,-0.757582 2.046101,-1.812247 3.203125,-3.16211 0.303033,-0.399455 0.233738,-0.749704 -0.207031,-1.052734 l -1.03125,-0.681641 c -0.385677,-0.261709 -0.73788,-0.165484 -1.054688,0.289063 -0.867772,1.212128 -1.743457,2.141679 -2.625,2.789062 l 5.083985,-16.921875 c 0.275482,-0.991735 -0.103649,-1.501747 -1.136719,-1.529297 z m 7.333984,0.1875 c -0.426999,0 -0.707964,0.363724 -0.845703,1.09375 l -5.125,19.298828 c -0.08265,0.27548 -0.06147,0.52951 0.0625,0.763672 0.110201,0.220386 0.24682,0.330082 0.412109,0.330078 h 1.177735 c 0.454551,0 0.793287,-0.198205 1.013672,-0.597656 0.909094,-1.666671 2.450641,-4.160894 4.626953,-7.480469 1.157033,-1.804412 2.115469,-3.319023 2.873047,-4.544921 0.75758,-1.225902 1.404212,-2.224743 1.941406,-2.996094 0.454546,-0.674931 0.812512,-1.136828 1.074219,-1.384766 0.275483,-0.261709 0.510288,-0.392578 0.703125,-0.392578 0.19284,0 0.289062,0.125114 0.289062,0.373047 0,0.23416 -0.109697,0.728746 -0.330078,1.486328 l -4.443359,14.525391 c -0.192836,0.674934 -0.08119,1.011718 0.332031,1.011718 h 2.210937 c 0.371905,0 0.599001,-0.198205 0.681641,-0.597656 l 4.730469,-17.253906 c 0.316805,-1.046838 0.391853,-1.837807 0.226562,-2.375 -0.151515,-0.53719 -0.357433,-0.881685 -0.61914,-1.033203 -0.247937,-0.151516 -0.598188,-0.226563 -1.052735,-0.226563 h -0.888671 c -0.70248,0 -1.549272,0.384898 -2.541016,1.15625 -0.977962,0.771355 -1.936404,1.922245 -2.873047,3.451172 l -4.400391,7.271484 3.181641,-10.660156 c 0.220386,-0.812677 -0.0067,-1.21875 -0.681641,-1.21875 z m -11.96289,2.560547 c 0.61295,0.007 1.296183,0.220515 2.046875,0.640625 -1.046836,3.705249 -1.970635,6.563191 -2.769532,8.574219 -0.785127,2.011025 -1.706968,3.594926 -2.767578,4.751953 -1.046834,1.15703 -1.797403,1.618926 -2.251953,1.384766 -0.454545,-0.23416 -0.702817,-0.605587 -0.74414,-1.115235 -0.04133,-0.509643 0.06837,-1.466127 0.330078,-2.871093 0.275484,-1.418738 0.860537,-3.368313 1.755859,-5.847657 0.909092,-2.479346 1.832892,-4.119071 2.769531,-4.917969 0.475208,-0.406341 1.017909,-0.606498 1.63086,-0.599609 z" />
      <path
         id="path837"
         style="font-style:normal;font-variant:normal;font-weight:normal;font-stretch:normal;font-size:113.151px;line-height:1.25;font-family:Allan;-inkscape-font-specification:'Allan, Normal';font-variant-ligatures:normal;font-variant-caps:normal;font-variant-numeric:normal;font-variant-east-asian:normal;fill:#222222;fill-opacity:1;stroke:none;stroke-width:1.05785"
         d="m 94.832031,19.900391 c -0.592292,0 -1.088834,0.207869 -1.488281,0.621093 -0.385676,0.413228 -0.578125,0.894346 -0.578125,1.445313 0,0.550966 0.186688,1.032089 0.558594,1.445312 0.385674,0.39945 0.818685,0.59961 1.300781,0.59961 h 0.330078 c 0.61984,0 1.137558,-0.192452 1.550781,-0.578125 0.413222,-0.399449 0.619141,-0.874819 0.619141,-1.425782 0,-0.550965 -0.200158,-1.039797 -0.599609,-1.466796 -0.39945,-0.426998 -0.832458,-0.640625 -1.300782,-0.640625 z" />
      <path
         id="path835"
         style="font-style:normal;font-variant:normal;font-weight:normal;font-stretch:normal;font-size:113.151px;line-height:1.25;font-family:Allan;-inkscape-font-specification:'Allan, Normal';font-variant-ligatures:normal;font-variant-caps:normal;font-variant-numeric:normal;font-variant-east-asian:normal;fill:#222222;fill-opacity:1;stroke:none;stroke-width:1.05785"
         d="m 104.16992,18.845703 c -0.67493,0 -1.09447,0.311802 -1.25976,0.931641 l -1.69532,6.570312 h -1.693356 c -0.454552,0 -0.7644,0.267495 -0.929687,0.804688 l -0.330078,1.136718 c -0.206613,0.674933 -0.02766,1.011719 0.537109,1.011719 h 1.693362 l -4.400393,17.169922 c -0.08265,0.399451 -0.03453,0.730485 0.144531,0.992188 0.192844,0.247938 0.516152,0.371093 0.970703,0.371093 h 0.785157 c 0.688709,4e-6 1.115962,-0.309852 1.28125,-0.929687 l 4.484372,-17.603516 h 2.18946 c 0.53719,0 0.90862,-0.309847 1.11523,-0.929687 l 0.28906,-1.09375 c 0.19285,-0.619836 -0.0208,-0.929688 -0.64062,-0.929688 h -2.18946 l 1.65235,-6.529297 c 0.16529,-0.647384 -0.14456,-0.972656 -0.92969,-0.972656 z" />
      <path
         id="path833"
         style="font-style:normal;font-variant:normal;font-weight:normal;font-stretch:normal;font-size:113.151px;line-height:1.25;font-family:Allan;-inkscape-font-specification:'Allan, Normal';font-variant-ligatures:normal;font-variant-caps:normal;font-variant-numeric:normal;font-variant-east-asian:normal;fill:#222222;fill-opacity:1;stroke:none;stroke-width:1.05785"
         d="m 31.132812,17.193359 c -0.674931,0 -1.094475,0.309854 -1.259765,0.929688 l -7.251953,28.410156 c -0.08265,0.358132 -0.04224,0.667986 0.123047,0.929688 0.151518,0.247939 0.392073,0.371097 0.722656,0.371093 h 11.570312 c 0.75758,4e-6 1.206006,-0.294429 1.34375,-0.886718 l 0.289063,-1.054688 c 0.06886,-0.261708 0.04193,-0.488802 -0.08203,-0.68164 -0.110202,-0.192836 -0.289171,-0.289063 -0.53711,-0.289063 h -9.566406 l 6.714844,-26.40625 c 0.09642,-0.371902 0.06178,-0.681754 -0.103516,-0.929687 -0.151515,-0.261712 -0.392081,-0.392579 -0.722656,-0.392579 z" />
    </g>
    <g
       id="g967"
       transform="translate(-39.895724)"
       style="stroke:#222222;stroke-opacity:1">
      <circle
         style="font-variation-settings:normal;opacity:1;vector-effect:none;fill:#ffffff;fill-opacity:1;stroke:#222222;stroke-width:4.94774;stroke-linecap:butt;stroke-linejoin:miter;stroke-miterlimit:4;stroke-dasharray:none;stroke-dashoffset:0;stroke-opacity:1;paint-order:fill markers stroke;stop-color:#000000;stop-opacity:1"
         id="path937"
         cx="279.58975"
         cy="358.37338"
         r="11.753323" />
      <path
         id="path962"
         style="font-variation-settings:normal;opacity:1;vector-effect:none;fill:none;fill-opacity:1;stroke:#222222;stroke-width:4.94774;stroke-linecap:butt;stroke-linejoin:miter;stroke-miterlimit:4;stroke-dasharray:none;stroke-dashoffset:0;stroke-opacity:1;stop-color:#000000;stop-opacity:1"
         d="m 260.46278,390.73204 v -7.38549 c 0,-4.98478 4.97114,-7.6022 9.49205,-7.20209 4.52092,0.40012 4.6003,2.55067 9.63492,2.55067 5.03462,0 5.114,-2.15055 9.63492,-2.55067 4.52092,-0.40011 9.49205,2.21731 9.49205,7.20209 v 7.38549 z"
         sodipodi:nodetypes="csscsscc" />
    </g>
    <g
       id="g973"
       transform="translate(48.368795)"
       style="stroke:#222222;stroke-opacity:1">
      <circle
         style="font-variation-settings:normal;opacity:1;vector-effect:none;fill:#ffffff;fill-opacity:1;stroke:#222222;stroke-width:4.94774;stroke-linecap:butt;stroke-linejoin:miter;stroke-miterlimit:4;stroke-dasharray:none;stroke-dashoffset:0;stroke-opacity:1;paint-order:fill markers stroke;stop-color:#000000;stop-opacity:1"
         id="circle969"
         cx="279.58975"
         cy="358.37338"
         r="11.753323" />
      <path
         id="path971"
         style="font-variation-settings:normal;opacity:1;vector-effect:none;fill:none;fill-opacity:1;stroke:#222222;stroke-width:4.94774;stroke-linecap:butt;stroke-linejoin:miter;stroke-miterlimit:4;stroke-dasharray:none;stroke-dashoffset:0;stroke-opacity:1;stop-color:#000000;stop-opacity:1"
         d="m 260.46278,390.73204 v -7.38549 c 0,-4.98478 4.97114,-7.6022 9.49205,-7.20209 4.52092,0.40012 4.6003,2.55067 9.63492,2.55067 5.03462,0 5.114,-2.15055 9.63492,-2.55067 4.52092,-0.40011 9.49205,2.21731 9.49205,7.20209 v 7.38549 z"
         sodipodi:nodetypes="csscsscc" />
    </g>
    <g
       id="g979"
       transform="matrix(1.535497,0,0,1.5273526,-146.04513,-196.78827)"
       style="fill:#ffffff;fill-opacity:1;stroke:#5b37f0;stroke-width:0.652989;stroke-opacity:1">
      <circle
         style="font-variation-settings:normal;opacity:1;vector-effect:none;fill:#ffffff;fill-opacity:1;stroke:#5b37f0;stroke-width:3.23082;stroke-linecap:butt;stroke-linejoin:miter;stroke-miterlimit:4;stroke-dasharray:none;stroke-dashoffset:0;stroke-opacity:1;paint-order:fill markers stroke;stop-color:#000000;stop-opacity:1"
         id="circle975"
         cx="279.58975"
         cy="358.37338"
         r="11.753323" />
      <path
         id="path977"
         style="font-variation-settings:normal;opacity:1;vector-effect:none;fill:#ffffff;fill-opacity:1;stroke:#5b37f0;stroke-width:3.23082;stroke-linecap:butt;stroke-linejoin:miter;stroke-miterlimit:4;stroke-dasharray:none;stroke-dashoffset:0;stroke-opacity:1;stop-color:#000000;stop-opacity:1"
         d="m 260.46278,390.73204 v -7.38549 c 0,-4.98478 4.97114,-7.6022 9.49205,-7.20209 4.52092,0.40012 4.6003,2.55067 9.63492,2.55067 5.03462,0 5.114,-2.15055 9.63492,-2.55067 4.52092,-0.40011 9.49205,2.21731 9.49205,7.20209 v 7.38549 z"
         sodipodi:nodetypes="csscsscc" />
    </g>
  </g>
</svg>
