<?xml version="1.0" encoding="UTF-8"?>
<svg width="870" height="530" version="1.1" viewBox="0 0 870 530" xmlns="http://www.w3.org/2000/svg" xmlns:cc="http://creativecommons.org/ns#" xmlns:dc="http://purl.org/dc/elements/1.1/" xmlns:rdf="http://www.w3.org/1999/02/22-rdf-syntax-ns#">
 <metadata>
  <rdf:RDF>
   <cc:Work rdf:about="">
    <dc:format>image/svg+xml</dc:format>
    <dc:type rdf:resource="http://purl.org/dc/dcmitype/StillImage"/>
    <dc:title/>
   </cc:Work>
  </rdf:RDF>
 </metadata>
 <defs>
  <style>.cls-1{fill:#2e186a;}.cls-2,.cls-6{fill:#fff;}.cls-11,.cls-2,.cls-3{stroke:#2e186a;}.cls-11,.cls-2,.cls-3,.cls-8,.cls-9{stroke-linecap:round;stroke-linejoin:round;}.cls-2,.cls-3,.cls-8,.cls-9{stroke-width:6px;}.cls-11,.cls-3,.cls-8,.cls-9{fill:none;}.cls-4{fill:#fe7624;}.cls-5{fill:#feba91;}.cls-7{fill:#5d21d1;}.cls-8{stroke:#fff;}.cls-9{stroke:#fffdfd;}.cls-10{fill:#968bb4;}.cls-11{stroke-width:8px;}</style>
 </defs>
 <path id="shirt" class="cls-1" d="m328.03 496.84c-2.9336-34.256-26.814-83.47-32.157-130.64 35.99-33.675-2.9148-131.75-24.368-132.81-21.631-3.9739-40.376-7.9478-74.979-9.1568-42.729-1.4902-81.38 3.6458-95.692 5.7078-53.488 26.477-82.589 181.82-47.34 212.46 6.6731 5.8015 17.423 11.612 30.591 17.03-1.1247 13.121-1.8745 26.243-1.8745 38.427z" fill="#5b37f0" stroke-width=".93724"/>
 <path id="neck" class="cls-2" d="m156.73 229.57 7.7322-46.524 58.109 21.809 2.2306 33.066c-7.854 57.734-69.777 1.8838-68.071-8.3508z"/>
 <path id="hair_back" class="cls-1" d="m237.5 95.566s-44.566 27.93-23.009 54.303c0 0 9.6067 11.022 17.564 8.8662 0 0-5.8109-9.3724 0.93724-14.171 0 0 2.015 28.014 24.968 22.353 0 0-8.4351-12.418-6.1201-27.274 4.733-31.004-2.39-49.636-14.34-44.078z" fill="#5b37f0" stroke-width=".93724" data-name="hair back"/>
 <path id="face" class="cls-2" d="m145.19 139.72s-8.4914-54.688 46.806-64.126c5.1548-0.881 40.507-6.1764 46.946 23.14 4.3019 19.588 5.1173 40.845 4.5924 57.359 0 0.0937-0.53422 31.182-12.821 48.455-12.287 17.273-39.514 15.661-53.91 7.1511-14.396-8.5101-17.03-12.943-21.06-23.037-4.0301-10.094-10.506-48.849-10.506-48.849z"/>
 <polyline id="nose" class="cls-3" transform="matrix(.93724 0 0 .93724 -168.84 29.669)" points="415.71 121.98 421.17 148.88 411.1 148.88"/>
 <path id="brow_II" class="cls-3" d="m191.12 125.39a12.746 12.746 0 0 1 11.94-5.1079" data-name="brow II"/>
 <path id="brow" class="cls-3" d="m227.39 118.17s9.5879-4.3019 13.805 1.4715"/>
 <path id="hair_front" class="cls-1" d="m188.58 98.959s20.9 73.273-27.836 80.808c0 0-28.389 5.0142-34.875-5.0142 0 0 20.572-10.928 17.986-22.672 0 0-23.131 25.362-43.263 7.1605 0 0 33.6-5.6234 30.619-35.84-2.1369-21.678 49.88-42.026 57.368-24.443z" fill="#5b37f0" stroke-width=".93724" data-name="hair front"/>
 <path id="cap" class="cls-4" d="m129.2 104.79c3.0741-19.991 14.715-48.614 55.691-53.366 64.023-7.4416 65.934 54.866 65.934 54.866l-120.14 17.504c-1.3968-6.1282-1.3731-14.508-1.485-19.003z" fill="#ff5361" stroke-width=".93724"/>
 <path id="mouth" class="cls-3" d="m200.62 175.63s4.0489 9.4848 17.423 7.376"/>
 <path id="puzzle" class="cls-5" d="m345.6 290.54v-32.128a23.684 23.684 0 0 0-23.684-23.684h-9.2411a58.924 58.924 0 1 1-117.84 0h-9.2411a23.693 23.693 0 0 0-23.684 23.684v171.23a23.684 23.684 0 0 0 23.684 23.656h136.32a23.684 23.684 0 0 0 23.684-23.684v-21.238a58.924 58.924 0 0 0 0-117.84z" fill="#fff" stroke="#ff5361" stroke-width="6.0001"/>
 <path class="cls-6" d="m329.41 445.3c-0.13121-0.40302-20.694-24.368-21.388-23.862-0.69355 0.5061-28.867 13.121-29.485 14.105-0.61858 0.98409-1.6964 6.645 1.1434 11.931 2.8398 5.286 5.9608 17.339 18.698 18.285 12.737 0.94661 31.032-20.46 31.032-20.46z" stroke-width=".93724"/>
 <path class="cls-2" d="m291.81 426.96s-2.3993-16.561 1.4058-20.525c3.8052-3.9645 25.305 32.803 32.7 35.353"/>
 <path class="cls-2" d="m280.39 429.87s-5.1173-12.09 1.6589-17.939c6.7762-5.8483 23.487 27.236 30.826 31.519"/>
 <path class="cls-2" d="m277.36 443.75s-8.66-21.66-2.6243-26.243c6.0358-4.5831 15.821 23.506 27.555 29.992"/>
 <path class="cls-6" d="m163.29 445.3c0.14059-0.40302 20.694-24.368 21.388-23.862 0.69356 0.5061 28.867 13.121 29.485 14.105 0.61858 0.98409 1.7058 6.645-1.1434 11.931-2.8492 5.286-5.9608 17.339-18.698 18.285-12.737 0.94661-31.032-20.46-31.032-20.46z" stroke-width=".93724"/>
 <path class="cls-2" d="m200.9 426.96s2.39-16.561-1.4058-20.525c-3.7958-3.9645-25.305 32.803-32.7 35.353"/>
 <path class="cls-2" d="m212.3 429.87s5.1267-12.09-1.6589-17.939c-6.7856-5.8483-23.487 27.227-30.835 31.51"/>
 <path class="cls-2" d="m215.34 443.75s8.66-21.66 2.6336-26.243-15.83 23.506-27.555 29.992"/>
 <path class="cls-2" d="m324.39 440.97a23.431 23.431 0 0 0-1.3777-13.909c-2.1275-5.0142-4.6862-11.837-4.9111-16.195-0.42175-7.5916 11.997-4.0301 12.512 0.68419 0.51548 4.7143 2.8773 4.4425 8.3133 9.2411 5.436 4.7986 4.4425 23.937 4.4425 23.937s4.7799 9.8128-10.628 21.556c-15.408 11.744-31.866 2.6055-31.866 2.6055s-29.776-11.003-29.767-32.456c9e-3 -21.453 7.9009 9.8222 22.803 18.623"/>
 <path class="cls-2" d="m168.31 440.97a23.506 23.506 0 0 1 1.3777-13.909c2.1275-5.0142 4.6862-11.837 4.9111-16.195 0.42176-7.5916-11.987-4.0301-12.512 0.68419-0.52485 4.7143-2.8773 4.4425-8.3133 9.2411-5.436 4.7986-4.4425 23.937-4.4425 23.937s-4.7799 9.8128 10.628 21.556 31.866 2.6055 31.866 2.6055 29.785-11.003 29.776-32.456c-9e-3 -21.453-7.9103 9.8222-22.812 18.623"/>
 <path id="hoodie" class="cls-4" d="m825.52 300.53c0.24368-51.192-74.416-68.793-74.416-68.793 5.6234-25.437 3.046-88.25-103.36-69.037-54.5 9.4286-69.918 38.042-58.334 61.239-21.2 10.516-74.117 86.366-74.117 86.366l0.99347 65.194a61.408 61.408 0 0 0-12.268-1.2934 60.677 60.677 0 0 0-60.92 60.405c-0.14058 33.506 29.748 63.479 63.254 63.62a54.725 54.725 0 0 0 11.8-1.2278v1.2372l289.3-0.74979s1.3684-57.977-5.5391-119.52c12.109-27.77 23.525-58.83 23.609-77.444z" fill="#ff5361" stroke-width=".93724"/>
 <path id="t-shirt" class="cls-6" d="m704.25 200.55 19.307 10.694s-50.226 21.688-59.299 121.84c-5.8952 65.072-1.209 166.57-1.209 166.57l-33.197-0.51548s8.9506-201.23-5.5203-233.98 1.4902-34.809 8.8006-41.613c7.3104-6.8043 71.117-22.99 71.117-22.99z" stroke-width=".93724"/>
 <g fill="#5b37f0" stroke-width=".93724">
  <circle id="welt_II" class="cls-1" cx="493.27" cy="429.18" r="48.146" data-name="welt II"/>
  <circle id="welt" class="cls-1" cx="668.91" cy="433.21" r="41.923"/>
  <path id="shadow_II" class="cls-1" d="m703.31 290.97c8.3414-3.7958 34.884-34.153 47.799-59.43 10.778-0.15933 26.355 7.2167 33.113 12.456-30.648 48.446-80.958 47.049-80.912 46.974z" data-name="shadow II"/>
 </g>
 <path class="cls-3" d="m697.4 377.97s37.011-15.464 64.538 27.695"/>
 <path class="cls-3" d="m694.78 378.49s29.176-29.598 68.962 7.6197"/>
 <path class="cls-3" d="m800.59 381.02s-35.718 127.46-129.41 100.63c0 0-16.645-4.152-24.593-14.996"/>
 <path class="cls-3" d="m684.28 394.25a180.49 180.49 0 0 0 18.651-30.076c9.2224-18.398 21.135-47.958 21.135-47.958"/>
 <path class="cls-2" d="m705.74 159.95-1.434 44.416a19.27 19.27 0 0 1-6.973 15.333c-8.6038 7.1605-24.368 21.285-44.172 43.638 0 0-24.706-26.308-28.876-67.387z" data-name="neck"/>
 <path id="ear" class="cls-2" d="m711.74 137.1s19.682 0.46861 16.045 18.023c-3.6365 17.554-25.24 7.3011-25.24 7.3011l3.0085-24.968z"/>
 <path class="cls-2" d="m656.07 81.461c-5.1735-0.44987-40.62-2.8117-44.622 26.73-4.002 29.542 0 62.232 3.2522 77.163 3.2522 14.93 71.117 8.3133 74.979 7.0011s8.4351-5.8015 8.4351-5.8015l9.5036-45.353s4.0301-54.884-51.548-59.739z" data-name="face"/>
 <path id="beard" class="cls-10" d="m701.06 140.76c-3.3272 3.2428-12.315 21.997-14.527 30.751 0 0-22.006-7.4979-53.572-8.0415 0 0-17.217 0.2718-24.087 2.2587 0 0 1.3496 31.032 15.239 47.152 13.89 16.12 43.413 11.753 57.303 2.1556 13.89-9.5973 16.186-14.199 19.438-24.518 3.2522-10.319 11.875-48.802 11.875-48.802z" stroke-width=".93724"/>
 <path class="cls-1" d="m710.06 147.43s9.2786-14.237 12.906-29.054c3.4022-13.937-3.0179-28.586-15.933-34.884-10.778-5.286-18.81-1.2184-18.81-1.2184s11.547-19.476-5.6234-36.796a31.332 31.332 0 0 0-22.925-9.2505 30.188 30.188 0 0 0-27.583 18.267s-22.325-41.435-68.549-17.17c-4.6862 2.4462-9.9347 9.3067-12.465 13.927-15.352 28.005 34.678 61.473 60.836 64.21 28.689 3.0179 45.503-1.6683 54.781-8.6507-6.898 4.0676 0.66544 47.04 43.366 40.62z" fill="#5b37f0" stroke-width=".93724" data-name="hair"/>
 <path class="cls-11" d="m654.01 185.03s-4.4612 9.8972-14.696 5.6796" data-name="mouth"/>
 <polyline class="cls-11" transform="matrix(.93724 0 0 .93724 -558.59 29.669)" points="1271.5 130.02 1265.3 154.93 1278.2 156.28" data-name="nose"/>
 <path class="cls-11" d="m661.88 131.83a12.69 12.69 0 0 0-11.997-4.7799" data-name="brow II"/>
 <path class="cls-11" d="m624.49 126.5s-7.6666-2.0338-9.616 4.2363" data-name="brow"/>
 <path class="cls-5" d="m675.66 412.14 0.59046-136.95a23.796 23.796 0 0 0-23.693-23.9l-32.278-0.14058a59.196 59.196 0 0 0-118.38-0.50611l-21.36-0.0937a23.787 23.787 0 0 0-23.853 23.693l-0.59046 136.95a23.787 23.787 0 0 0 23.684 23.89l172.02 0.74042a23.787 23.787 0 0 0 23.862-23.684z" fill="#fff" stop-color="#000000" stroke="#5b37f0" stroke-width="6.0001" style="font-variation-settings:normal" data-name="puzzle"/>
 <path class="cls-6" d="m474.81 428.29c0.13121-0.41238 20.694-24.424 21.388-23.862 0.69355 0.56234 28.857 13.121 29.476 14.105 0.61858 0.9841 1.7058 6.6356-1.134 11.922-2.8398 5.286-5.9608 17.348-18.745 18.295-12.784 0.94661-30.985-20.46-30.985-20.46z" stroke-width=".93724"/>
 <path class="cls-2" d="m512.39 409.95s2.3993-16.552-1.4246-20.479c-3.8239-3.927-25.305 32.803-32.7 35.353"/>
 <path class="cls-2" d="m523.83 412.86s5.1267-12.1-1.6495-17.948-23.487 27.236-30.826 31.519"/>
 <path class="cls-6" d="m667.13 431.04c-0.13121-0.41239-20.685-24.424-21.388-23.862-0.70292 0.56234-28.857 13.121-29.476 14.059-0.61858 0.93723-1.7058 6.6356 1.134 11.922s5.9702 17.348 18.745 18.295c12.775 0.94661 30.985-20.413 30.985-20.413z" stroke-width=".93724"/>
 <path class="cls-2" d="m629.55 412.7s-2.3993-16.552 1.4246-20.479c3.8239-3.927 25.305 32.803 32.7 35.353"/>
 <path class="cls-2" d="m618.11 415.6s-5.1267-12.1 1.6589-17.948c6.7856-5.8484 23.431 27.236 30.826 31.519"/>
 <path class="cls-2" d="m615.11 429.49s-8.66-21.66-2.6243-26.243 15.83 23.506 27.555 29.992"/>
 <path class="cls-2" d="m526.83 426.75s8.6601-21.66 2.6243-26.243c-6.0358-4.5831-15.821 23.515-27.555 29.992"/>
 <path class="cls-2" d="m479.87 423.96a23.431 23.431 0 0 1 1.3777-13.909c2.1275-5.0236 4.6862-11.837 4.9111-16.205 0.42175-7.5916-11.997-4.0207-12.512 0.68418s-2.8773 4.4519-8.3226 9.2411c-5.4453 4.7893-4.4331 23.937-4.4331 23.937s-4.7799 9.8129 10.628 21.556c15.408 11.744 31.866 2.6055 31.866 2.6055s29.813-10.994 29.804-32.447c-9e-3 -21.453-7.9009 9.8222-22.803 18.632"/>
 <path class="cls-2" d="m662.07 426.71a23.431 23.431 0 0 0-1.3777-13.909c-2.1182-5.0236-4.6862-11.837-4.9111-16.195-0.42175-7.601 11.997-4.0301 12.521 0.67481 0.52485 4.7049 2.8679 4.4519 8.3133 9.2505 5.4453 4.7986 4.4331 23.937 4.4331 23.937s4.7799 9.8129-10.628 21.556c-15.408 11.744-31.866 2.6149-31.866 2.6149s-29.813-11.003-29.804-32.456c9e-3 -21.453 7.9009 9.8222 22.803 18.632"/>
 <path d="m867.21 497.49h-864.39" fill="none" stop-color="#000000" stroke="#2e186a" stroke-linecap="round" stroke-linejoin="round" stroke-width="5.6234px" style="font-variation-settings:normal"/>
 <g stroke-width="1.4417">
  <path d="m562.45 345.43c-0.58083 9e-3 -1.1507 0.099-1.7091 0.27031-1.4695 0.43687-2.7014 1.1111-3.6942 2.0245-2.8396 2.7206-5.0537 6.7519-6.6423 12.094-1.5886 5.3416-2.0936 9.5423-1.5176 12.6 0.49644 2.2836 2.1834 3.793 5.0627 4.5277 1.2709 0.23829 2.9495-0.46643 5.0346-2.1146 2.0851-1.6482 3.5139-3.2076 4.2884-4.6769 0.17872-0.47659 1e-3 -0.92328-0.53499-1.3403l-1.1629-0.71519c-0.43686-0.25814-0.84191-0.21932-1.2192 0.11826-2.2042 2.4822-4.0521 4.0026-5.5414 4.5587-1.668-0.31772-2.2258-1.9658-1.6697-4.9445 4.1105-1.4496 7.587-3.6249 10.427-6.5241 2.8595-2.9191 4.2994-6.0155 4.3194-9.2919 0.0199-3.2765-0.79588-5.2631-2.444-5.9581-1.0301-0.43438-2.0278-0.64342-2.9959-0.62791zm-0.39983 4.2912c0.95316 0 1.4304 0.82403 1.4304 2.4722 0 1.6482-0.44669 3.2574-1.3403 4.8262-0.87373 1.5688-1.9947 2.8977-3.3648 3.9899-1.3503 1.0922-2.979 2.0466-4.8854 2.8608 0.77445-3.3361 1.8566-6.5241 3.2466-9.5622 1.4099-3.058 3.0468-4.5868 4.9135-4.5868z" fill="#222" style="font-variant-caps:normal;font-variant-east-asian:normal;font-variant-ligatures:normal;font-variant-numeric:normal"/>
  <path d="m540.22 329.97c-0.97303 0-1.5779 0.4467-1.8162 1.3403l-11.17 42.979c-0.31772 1.3106 0.27882 1.9682 1.788 1.9682h1.0137c0.99288 0 1.6089-0.4467 1.847-1.3403l3.483-13.614 3.9617 13.614c0.15886 0.57587 0.34753 0.94208 0.56597 1.101 0.21842 0.15886 0.6346 0.23935 1.2502 0.23935h1.6387c1.2312 0 1.6585-0.54659 1.2812-1.6387l-4.7361-14.895 10.486-12.33c0.47658-0.5163 0.69297-0.99353 0.65324-1.4304-0.0398-0.45673-0.37541-0.68423-1.0108-0.68423h-2.2638c-0.77445 0-1.321 0.21921-1.6387 0.65607l-9.2328 11.587 6.6706-26.153c0.23829-0.93332-0.21671-1.3994-1.3684-1.3994z" fill="#222" style="font-variant-caps:normal;font-variant-east-asian:normal;font-variant-ligatures:normal;font-variant-numeric:normal"/>
  <path d="m571.35 332.27c-2.3545 0.52663-3.2998 3.3563-2.5622 5.3471l33.451 1.1319-37.584 68.443c0.76502 1.9307 2.7556 2.7844 4.7248 2.5961l39.693-72.28c0.9665-1.7601-0.26275-3.922-2.2695-3.9927z" fill="#5b37f0" style="font-variant-caps:normal;font-variant-east-asian:normal;font-variant-ligatures:normal;font-variant-numeric:normal"/>
  <g fill="#222">
   <path d="m604.12 285.16-2.0836 0.0591c-0.61558 0-1.0429 0.40504-1.2812 1.2192-1.251-0.77445-2.5523-1.1601-3.9026-1.1601-2.4424 0-4.4678 0.81292-6.0763 2.4413-1.6084 1.6284-3.1566 4.5084-4.646 8.6387-1.4695 4.1105-2.3934 7.3872-2.7707 9.8298-0.35744 2.4425-0.40737 4.11-0.14924 5.0036 0.27801 0.89359 0.73582 1.7398 1.3713 2.5341 0.65531 0.79431 1.3295 1.4268 2.0245 1.9034 0.69501 0.45673 1.2028 0.68704 1.5205 0.68704h0.11826c0.69501 0 1.5884-0.50777 2.6806-1.5205 1.112-1.0127 2.1165-2.2723 3.01-3.7815l-2.9199 10.663c-0.41701 1.5091-1.0912 2.064-2.0245 1.6668l-6.7634-4.1701c-0.69503-0.39715-1.3692-0.2279-2.0245 0.50683l-0.92356 1.2812c-0.63544 0.97302-0.46619 1.7082 0.50683 2.2047l6.2257 3.514c1.2907 0.73472 2.2534 1.0815 2.8889 1.0418 0.63544-0.0397 1.5178-0.40594 2.6496-1.101 2.1645-1.1716 3.7737-3.6549 4.8262-7.4476 5.0438-17.892 8.0321-28.703 8.9654-32.437 0.19857-1.0922-0.2093-1.6165-1.222-1.5769zm9.3539 0c-0.9333 0-1.4993 0.40506-1.6978 1.2192l-7.4449 28.357c-0.23829 0.9333 0.20841 1.3994 1.3403 1.3994h1.7852c0.97302 0 1.5806-0.4467 1.8189-1.3403l7.3856-28.357c0.11915-0.49643 0.0886-0.83212-0.0901-1.0108-0.17872-0.17872-0.53382-0.26749-1.07-0.26749zm-16.494 3.7055c0.84892 0.0397 1.7804 0.34355 2.7932 0.90949l-0.18021 0.56596c-1.3305 4.8254-2.5513 8.6681-3.6632 11.528-1.0922 2.8396-2.4211 5.1536-3.9899 6.9409-1.5688 1.7872-2.6897 2.5114-3.3648 2.1737-0.65531-0.33758-1.0132-0.87306-1.0728-1.6077-0.0596-0.73473 0.0986-2.1358 0.47587-4.2011 0.39714-2.0851 1.2711-4.9622 2.6215-8.6358 1.3702-3.6935 2.7296-6.0268 4.08-7 0.68509-0.48652 1.4516-0.71269 2.3005-0.67297z" style="font-variant-caps:normal;font-variant-east-asian:normal;font-variant-ligatures:normal;font-variant-numeric:normal"/>
   <path d="m555.18 284.89-1.3994 0.0619c-0.77444 0-1.2434 0.47442-1.4022 1.4276-1.2312-0.73473-2.5213-1.101-3.8716-1.101-2.4226-0.0397-4.437 0.7732-6.0454 2.4413-1.6085 1.668-3.1761 4.6173-4.7051 8.847-1.529 4.2297-2.4641 7.5259-2.8017 9.8889-0.31773 2.3433-0.33712 3.9608-0.0591 4.8544 0.29786 0.8936 0.77509 1.7176 1.4304 2.4722 0.6553 0.75459 1.3101 1.3705 1.9654 1.847 0.67516 0.45671 1.1801 0.68703 1.5176 0.68703h0.12107c0.43687 0 1.0611-0.27744 1.8753-0.83345 0.81416-0.57587 1.7992-1.6191 2.9509-3.1282l1.1319 3.3648c0.17873 0.5163 0.54495 0.73549 1.101 0.65607 1.9262-0.43688 3.5825-1.1916 4.9726-2.2638 1.4099-1.0922 2.9498-2.6126 4.6178-4.5587 0.43687-0.57589 0.33698-1.0808-0.29846-1.5176l-1.4866-0.98269c-0.55602-0.37729-1.0638-0.23856-1.5205 0.41673-1.251 1.7474-2.5135 3.0876-3.7844 4.0209l7.3294-24.396c0.39715-1.4298-0.14943-2.1649-1.6387-2.2047zm10.573 0.27031c-0.61559 0-1.0206 0.52436-1.2192 1.5769l-7.3885 27.823c-0.11915 0.39715-0.0886 0.76337 0.0901 1.101 0.15887 0.31773 0.35583 0.47586 0.59412 0.47586h1.6978c0.65531 0 1.1436-0.28574 1.4614-0.86162 1.3106-2.4028 3.5329-5.9986 6.6706-10.784 1.668-2.6013 3.0498-4.7849 4.1419-6.5522 1.0922-1.7673 2.0244-3.2073 2.7988-4.3194 0.6553-0.97302 1.1714-1.6389 1.5486-1.9964 0.39714-0.3773 0.73566-0.56597 1.0136-0.56597 0.27801 0 0.41673 0.18037 0.41673 0.53781 0 0.33758-0.15815 1.0506-0.47586 2.1427l-6.4059 20.94c-0.278 0.97302-0.11704 1.4585 0.47868 1.4585h3.1874c0.53615 0 0.86355-0.28573 0.98269-0.86162l6.8198-24.874c0.45672-1.5091 0.56492-2.6495 0.32663-3.4239-0.21844-0.77444-0.5153-1.2711-0.89259-1.4895-0.35745-0.21844-0.86239-0.32662-1.5176-0.32662h-1.2812c-1.0127 0-2.2336 0.55489-3.6633 1.6668-1.4099 1.112-2.7916 2.7712-4.1419 4.9754l-6.3439 10.483 4.5868-15.368c0.31773-1.1716-0.01-1.7571-0.98269-1.7571zm-17.247 3.6914c0.88366 0.0101 1.8687 0.31792 2.9509 0.92356-1.5091 5.3416-2.8409 9.4619-3.9927 12.361-1.1319 2.8992-2.4609 5.1826-3.9899 6.8508-1.5091 1.668-2.5912 2.3339-3.2466 1.9964-0.65529-0.33758-1.0132-0.87306-1.0728-1.6077-0.0596-0.73473 0.0986-2.1136 0.47586-4.1391 0.39715-2.0453 1.2406-4.8559 2.5314-8.4304 1.3106-3.5743 2.6424-5.9383 3.9927-7.0901 0.68509-0.5858 1.4675-0.87436 2.3512-0.86443z" style="font-variant-caps:normal;font-variant-east-asian:normal;font-variant-ligatures:normal;font-variant-numeric:normal"/>
   <path d="m615.56 275.87c-0.85388 0-1.5697 0.29968-2.1456 0.8954-0.55602 0.59574-0.83345 1.2894-0.83345 2.0836 0 0.79431 0.26915 1.4879 0.8053 2.0836 0.556 0.57587 1.1802 0.86443 1.8753 0.86443h0.47586c0.8936 0 1.64-0.27745 2.2357-0.83345 0.59572-0.57587 0.89259-1.2612 0.89259-2.0555 0-0.79429-0.28856-1.499-0.86443-2.1146s-1.2001-0.92356-1.8753-0.92356z" style="font-variant-caps:normal;font-variant-east-asian:normal;font-variant-ligatures:normal;font-variant-numeric:normal"/>
   <path d="m629.02 274.35c-0.97302 0-1.5779 0.44951-1.8162 1.3431l-2.444 9.4721h-2.4413c-0.65531 0-1.102 0.38565-1.3403 1.1601l-0.47586 1.6387c-0.29786 0.97302-0.0399 1.4585 0.77433 1.4585h2.4413l-6.3439 24.753c-0.11915 0.57587-0.0498 1.0531 0.20836 1.4304 0.27801 0.35745 0.74412 0.53499 1.3994 0.53499h1.1319c0.99289 0 1.6089-0.4467 1.847-1.3403l6.465-25.379h3.1565c0.77445 0 1.3099-0.4467 1.6077-1.3403l0.41673-1.5769c0.27802-0.8936-0.03-1.3403-0.92356-1.3403h-3.1565l2.3822-9.413c0.23829-0.9333-0.20841-1.4022-1.3403-1.4022z" style="font-variant-caps:normal;font-variant-east-asian:normal;font-variant-ligatures:normal;font-variant-numeric:normal"/>
   <path d="m523.73 271.97c-0.97302 0-1.5779 0.4467-1.8162 1.3403l-10.455 40.958c-0.11915 0.5163-0.0609 0.96301 0.1774 1.3403 0.21844 0.35744 0.56523 0.535 1.0418 0.53499h16.68c1.0922 0 1.7386-0.42447 1.9373-1.2784l0.41673-1.5205c0.0993-0.37729 0.0605-0.70468-0.11826-0.98269-0.15887-0.27801-0.41688-0.41673-0.77433-0.41673h-13.791l9.6804-38.068c0.13901-0.53615 0.0891-0.98285-0.14924-1.3403-0.21844-0.37729-0.56525-0.56596-1.0418-0.56596z" style="font-variant-caps:normal;font-variant-east-asian:normal;font-variant-ligatures:normal;font-variant-numeric:normal"/>
  </g>
 </g>
 <g stroke="#222" stroke-width="6.0001">
  <circle cx="214.45" cy="343.43" r="14.253" fill="#fff" stop-color="#000000" style="font-variation-settings:normal;paint-order:fill markers stroke"/>
  <path d="m191.26 382.67v-8.9564c0-6.0451 6.0284-9.2192 11.511-8.734 5.4825 0.48522 5.5788 3.0932 11.684 3.0932s6.2018-2.608 11.684-3.0932c5.4825-0.48521 11.511 2.6889 11.511 8.734v8.9564z" fill="none" stop-color="#000000" style="font-variation-settings:normal"/>
  <circle cx="321.49" cy="343.43" r="14.253" fill="#fff" stop-color="#000000" style="font-variation-settings:normal;paint-order:fill markers stroke"/>
  <path d="m298.29 382.67v-8.9564c0-6.0451 6.0284-9.2192 11.511-8.734 5.4825 0.48522 5.5788 3.0932 11.684 3.0932s6.2018-2.608 11.684-3.0932c5.4825-0.48521 11.511 2.6889 11.511 8.734v8.9564z" fill="none" stop-color="#000000" style="font-variation-settings:normal"/>
 </g>
 <ellipse cx="267.29" cy="333.99" rx="21.885" ry="21.77" fill="#fff" stop-color="#000000" stroke="#5b37f0" stroke-width="6.0002" style="font-variation-settings:normal;paint-order:fill markers stroke"/>
 <path d="m231.67 393.93v-13.68c0-9.2332 9.2567-14.081 17.675-13.34 8.4184 0.74114 8.5662 4.7246 17.941 4.7246s9.5228-3.9835 17.941-4.7246c8.4184-0.74111 17.675 4.1071 17.675 13.34v13.68z" fill="#fff" stop-color="#000000" stroke="#5b37f0" stroke-width="6.0002" style="font-variation-settings:normal"/>
</svg>
