<?xml version="1.0" encoding="UTF-8"?>
<svg width="870" height="530" version="1.1" viewBox="0 0 870 530" xmlns="http://www.w3.org/2000/svg" xmlns:cc="http://creativecommons.org/ns#" xmlns:dc="http://purl.org/dc/elements/1.1/" xmlns:rdf="http://www.w3.org/1999/02/22-rdf-syntax-ns#">
 <metadata>
  <rdf:RDF>
   <cc:Work rdf:about="">
    <dc:format>image/svg+xml</dc:format>
    <dc:type rdf:resource="http://purl.org/dc/dcmitype/StillImage"/>
    <dc:title/>
   </cc:Work>
  </rdf:RDF>
 </metadata>
 <defs>
  <style>.cls-1{fill:#5d21d1;}.cls-2,.cls-5,.cls-7{fill:none;}.cls-2{stroke:#fe7624;}.cls-2,.cls-5,.cls-6,.cls-7{stroke-linecap:round;stroke-linejoin:round;stroke-width:6px;}.cls-3{fill:#fe7624;}.cls-4,.cls-6{fill:#fff;}.cls-5{stroke:#fff;}.cls-6,.cls-7{stroke:#2e186a;}</style>
 </defs>
 <g transform="translate(-996.79 3.3823)" data-name="Layer 2">
  <g id="solid_II" data-name="solid II">
   <g id="product_launch" data-name="product launch">
    <g transform="matrix(.69767 0 0 .69767 996.79 13.447)">
     <g id="laptop">
      <path class="cls-3" d="m924.36 454.1-362 2.35a15.25 15.25 0 0 0-13.45 7.62l-116.73 212.53-296.78 0.2s-5.11 29.77 37.63 31.63l640-0.83 124.97-234.5c4.75-8.87-2.59-19.1-13.64-19z" fill="#ff5361" data-name="laptop"/>
      <path id="screen" class="cls-4" d="m469.36 675.76 305.64-1.31 94.56-184.28c3.67-7.06-1.18-15.71-8.76-15.63l-277.78 3.37z"/>
      <path class="cls-5" d="m784.39 707.6 123.78-231.29c4.72-8.88-2.62-19.08-13.67-19"/>
     </g>
     <path id="flag" class="cls-1" d="m1034.6 613.41c-12.71 7.12-36.19 15.62-55.63-3.35-20-19.5-34.33-19.13-41-17.25a4.92 4.92 0 0 0-5.27 2.44l-42.05 76.47a18.92 18.92 0 0 1-16.58 9.8h-137.07a4.9 4.9 0 1 0 0 9.8h137.07a28.72 28.72 0 0 0 25.17-14.88l24.63-44.79c9.17 1.17 21.68 5.33 33.42 16.79 22.55 22 49.1 9.56 58.83 3.69a16.1 16.1 0 0 0 5.72-5.87l16.47-29.14a2.72 2.72 0 0 0-3.71-3.71z" fill="#5b37f0"/>
     <g id="flags">
      <g fill="#5b37f0">
       <path class="cls-1" d="m354.21 524.93a2.46 2.46 0 0 0-3.42-1.08c-0.39 0.22-4.63 2.82-22.91 11.88l-8.45 4.13c-39.9 19.22-98.77 43.62-122.74 33.54a2.45 2.45 0 0 0-2.77 0.61c-0.08 0.09-8.7 9.43-27.47 18.16-17.34 8.07-47.14 17.26-90.63 15.21a2.45 2.45 0 0 0-2.54 2.82 2.52 2.52 0 0 0 2.4 2.08c3.88 0.18 7.64 0.27 11.31 0.29l1.76 11.82a2.81 2.81 0 0 0 5.22 1l7.57-13.17c5.34-0.3 10.43-0.77 15.26-1.37l2.75 10.24a2.81 2.81 0 0 0 5.26 0.45l6-12.94c4.06-0.8 7.9-1.69 11.52-2.64l2.29 8.52a2.81 2.81 0 0 0 5.26 0.45l6.16-13.21c4.55-1.63 8.61-3.31 12.17-5l1.6 5.94a2.81 2.81 0 0 0 5.26 0.46l6.22-13.36a87.47 87.47 0 0 0 15-11.26c5 1.76 11.27 2.31 18.29 1.92l4.17 10.36a2.81 2.81 0 0 0 5.23-0.06l4.56-12.07c4.36-0.81 8.89-1.84 13.54-3.08l1.89 8.09a2.81 2.81 0 0 0 5.24 0.63l6.46-12.75c4.38-1.42 8.8-3 13.24-4.59l1.67 7.32a2.81 2.81 0 0 0 5.19 0.75l7.75-13.74c3.93-1.59 7.83-3.23 11.66-4.89l1.88 7a2.81 2.81 0 0 0 5.26 0.46l6.24-13.4c4.18-1.92 8.24-3.83 12.12-5.7l1.52 5.66a2.81 2.81 0 0 0 5.26 0.45l5.7-12.24c15.54-7.8 18.37-9.59 19.87-10.44a2.54 2.54 0 0 0 1.18-3.25z"/>
       <path class="cls-1" d="m473.27 489.66a2.45 2.45 0 0 0-2.76 0.62c-0.09 0.09-8.71 9.43-27.47 18.16-17.34 8.07-47.15 17.26-90.64 15.21a2.45 2.45 0 0 0-2.54 2.82 2.52 2.52 0 0 0 2.41 2.08c3.88 0.18 7.64 0.27 11.31 0.28l1.72 11.57a2.9 2.9 0 0 0 5.38 1l7.44-12.95c5.35-0.3 10.43-0.77 15.26-1.37l2.69 10a2.9 2.9 0 0 0 5.43 0.47l5.92-12.72c4.07-0.8 7.91-1.69 11.52-2.64l3.18 9.55a2.9 2.9 0 0 0 5.47 0.08l5.06-13.82c4.56-1.63 8.61-3.31 12.18-5l1.53 5.71a2.9 2.9 0 0 0 5.43 0.47l6.12-13.14a87.54 87.54 0 0 0 15-11.27"/>
       <path class="cls-1" d="m1110.4 545.61a2.45 2.45 0 0 0-3.25-1.44c-38.52 16.07-79 8-120.3-23.91-31.06-24-50.89-53.25-51.09-53.54a2.4504 2.4504 0 0 0-4.07 2.73 233.69 233.69 0 0 0 16.2 20.49l4.94 23.47a2.89 2.89 0 0 0 5.31 0.89l4.94-8.3c4.16 4.05 8.66 8.18 13.49 12.24l5.23 18.08a2.89 2.89 0 0 0 5.21 0.75l4.6-7.22q6.18 4.33 12.37 8l7.25 20.33a2.89 2.89 0 0 0 5.23 0.46l6.38-11.25q5.94 2.49 11.87 4.34l9.36 16.45a2.89 2.89 0 0 0 5.27-0.59l3.55-11.68a107.25 107.25 0 0 0 15.32 1.13h1.24l10.13 13.17a2.89 2.89 0 0 0 5.06-1l4.11-14.25a108 108 0 0 0 20.16-6.2 2.54 2.54 0 0 0 1.49-3.15z"/>
      </g>
      <g stroke="#ff5361">
       <line class="cls-2" x1="75.36" x2="75.36" y1="708.44" y2="609.59"/>
       <line class="cls-2" x1="195.74" x2="195.74" y1="575.65" y2="706.84"/>
       <line class="cls-2" x1="352.33" x2="352.33" y1="525.82" y2="706.64"/>
       <line class="cls-2" x1="1108.4" x2="1108.4" y1="546.05" y2="708.44"/>
      </g>
     </g>
     <g id="rocket">
      <g fill="#5b37f0">
       <path class="cls-1" d="m485.7 548.42 33.5 61.63a3.28 3.28 0 0 0 6.12-1.64l-2.24-28s19.59 67.45 46.47 69.13 52.73-71 52.73-71l-7.06 30.46a3.28 3.28 0 0 0 6.12 1.64l35.8-62.23"/>
       <path class="cls-1" d="m443.8 310.24s-79.87 108.2-69.6 205h176.29v-207.24z"/>
       <path class="cls-1" d="m695 310.24s79.87 108.2 69.6 205h-176.27v-207.24z"/>
      </g>
      <path class="cls-6" d="m641.34 515.24c67.7-121.71 60.33-218.32 40.56-284.5s-66.18-140-110.3-140-90.52 73.78-110.3 140-28.15 162.79 39.55 284.5l-18.93 40.76h178.47l-19-40.75z"/>
      <g fill="#5b37f0">
       <ellipse class="cls-1" cx="571.6" cy="281.09" rx="50.45" ry="60"/>
       <ellipse class="cls-1" cx="571.6" cy="358.13" rx="8.41" ry="10"/>
       <ellipse class="cls-1" cx="603.95" cy="358.13" rx="8.41" ry="10"/>
       <ellipse class="cls-1" cx="536.65" cy="358.13" rx="8.41" ry="10"/>
      </g>
      <ellipse class="cls-6" cx="571.6" cy="275.24" rx="38.06" ry="45.26"/>
      <g>
       <path class="cls-1" d="m580.5 89v-70.87-0.65a11 11 0 1 0-17.75 0v0.65 70.76c-18.5 3.79-37 19.3-53.89 40.06a237.21 237.21 0 0 1 66.95-5.37 343.43 343.43 0 0 1 61.16 8.78c-17.51-22.36-37.08-39.14-56.47-43.36z" fill="#ff5361"/>
       <path class="cls-1" d="m653.73 169.27a278 278 0 0 0-81.59-15.21c-34.79-1.33-61.22 6.46-82.94 15a322.69 322.69 0 0 0-23.12 53.7c26-12.67 57.86-26.06 106.8-25.17 46.46 0.84 78.47 11.06 102.75 21.88a322.83 322.83 0 0 0-21.9-50.2z" fill="#ff5361"/>
       <path class="cls-1" d="m638.65 514.77q4.83-8.68 9.16-17.2c-15.33-6.24-37.31-11.37-76.39-11-39.53-0.33-61.6 5-76.89 11.32q4.29 8.4 9.05 17s34.7-6.76 67.84-6.48c32.58-0.34 67.23 6.36 67.23 6.36z" fill="#5b37f0"/>
      </g>
     </g>
     <g id="clouds">
      <path id="cloud" class="cls-6" d="m823.1 674.45h-157.22s-22.63-20.3-12.24-36.9 37.71-20.59 46.56-3.84c0 0 3.86-32.1 36.81-29.63s30.36 36.79 30.36 36.79 41.71-29.53 40.6 16.6c0.03 0 2.66 16.94 15.13 16.98z"/>
      <path class="cls-6" d="m322.62 674.71h157.21s22.64-20.29 12.24-36.9-37.7-20.59-46.56-3.84c0 0-3.85-32.09-36.8-29.63s-30.37 36.79-30.37 36.79-41.7-29.52-40.59 16.61c0 0-2.67 16.93-15.13 16.97z" data-name="cloud"/>
     </g>
     <line id="line" class="cls-7" x1="3" x2="1244" y1="708.44" y2="708.44"/>
     <path d="m159.03 249.05h223.75s18.471-54.348-16.56-72.191-47.952 29.056-47.952 29.056-2.2748-35.195-44.768-33.231c-42.493 1.9644-38.125 47.227-38.125 47.227s-29.481-14.569-33.485 0 4.0946 18.089 4.0946 18.089z" fill="#5b37f0"/>
     <path d="m788.37 359.63h135.73s11.205-32.968-10.046-43.792c-21.251-10.824-29.554 10.565-29.554 10.565s-0.91426-14.289-26.691-13.097c-25.777 1.1916-23.127 28.649-23.127 28.649s-8.7037-9.4362-15.855-2.0345c-6.3687 6.5914-1.9731 13.007-1.9731 13.007z" fill="#5b37f0"/>
    </g>
   </g>
  </g>
  <path d="m1430.2 290.26-1.3133 5.7625c2.6295 0.59832 5.2417 1.269 7.8331 2.0105l1.6282-5.6833c-2.6951-0.77067-5.4123-1.4678-8.148-2.0897zm20.24 8.6528-2.3122 6.0106c-1.2259-0.4715-2.458-0.92649-3.6963-1.3648l-1.7304 4.8868c1.1943 0.42288 2.3829 0.86185 3.5655 1.3167l-3.4536 8.9781c-1.0262 2.6673-1.2185 4.7778-0.6334 6.2995 0.6065 1.5261 2.1122 2.7727 4.5204 3.864 1.7448 0.79061 3.4714 1.6211 5.1775 2.4906l2.3569-4.6162c-1.0652-0.54314-2.138-1.0717-3.2179-1.5854-1.0799-0.51368-1.7313-1.0091-1.9492-1.5081-0.2121-0.51036-0.1067-1.2478 0.3241-2.2083l3.9325-8.7784c2.3968 1.0738 4.7636 2.2141 7.0965 3.4192l2.3781-4.605c-2.4179-1.2497-4.871-2.4321-7.3552-3.5454l2.6326-5.8769c-2.5158-1.1277-5.0621-2.1872-7.6359-3.1771zm-105.28 5.6701c-1.7264 0.65393-3.0752 1.5678-4.0309 2.7085-0.9484 1.1237-1.5822 2.5721-1.8915 4.3313l-1.4997-3.4127c-2.4089 1.0597-4.7901 2.1791-7.1406 3.3559l10.133 20.284c2.0224-1.0047 4.0689-1.9613 6.1365-2.8675l-4.2057-9.5704c-0.8972-2.0416-1.1215-3.8072-0.6314-5.3124 0.496-1.5182 1.6659-2.6631 3.4939-3.381 0.622-0.24427 1.2661-0.41268 1.9296-0.50445 0.672-0.10938 1.3724-0.13823 2.0984-0.0855-0.753-2.0547-1.5062-4.1093-2.2598-6.1638-0.5767 0.13744-1.0153 0.25658-1.3094 0.35181-0.2998 0.0828-0.5743 0.1716-0.8227 0.26574 1e-4 -4e-5 2e-4 -8e-5 5e-4 -1.2e-4zm62.726-9.3712c-1.6292-0.12686-3.1434 0.10181-4.5135 0.67427-1.3704 0.55918-2.6639 1.4923-3.857 2.7946l0.055-3.3197c-0.063-1e-3 -0.126-3e-3 -0.1882-3e-3 -2.5901-0.0368-5.1776 1e-4 -7.7596 0.10861l0.9386 22.632c2.1577-0.0865 4.3147-0.11003 6.4682-0.0689 0.051 7.3e-4 0.1041 1e-3 0.1565 3e-3l0.1892-11.153c0.035-2.0666 0.4985-3.6694 1.4338-4.8078 0.9326-1.1482 2.2152-1.6923 3.8127-1.6025 0.6553 0.0369 1.2314 0.20923 1.7236 0.51387 0.4931 0.2912 0.8685 0.68524 1.1269 1.1792 0.1977 0.36766 0.3072 0.92426 0.3297 1.6708 0.036 0.75001-0.028 2.0932-0.1902 4.045l-0.6907 8.2876-0.1865 2.2383c2.2185 0.18384 4.4339 0.43299 6.643 0.74578l1.931-13.664c0.429-3.0349 0.057-5.4412-1.2103-7.2236-1.2458-1.7708-3.337-2.8258-6.2135-3.0499zm-52.674 6.5218 4.0318 13.255c0.8907 2.9286 2.2148 4.9738 3.8873 6.1556 1.6939 1.1846 3.6734 1.4602 6.0178 0.88858 1.3188-0.32154 2.4541-0.89561 3.4283-1.7375 0.9832-0.85723 1.8541-2.0269 2.6331-3.5156l0.5949 3.2228c2.1941-0.40787 4.3951-0.75548 6.6-1.0406l-2.8898-22.463c-2.6193 0.3363-5.2278 0.74433-7.8228 1.222l2.0307 11.001c0.3741 2.0271 0.241 3.6941-0.3612 4.9904-0.604 1.3004-1.6023 2.0932-3.0197 2.4091-0.5828 0.12988-1.1293 0.12456-1.6444-0.0175-0.5022-0.14504-0.9493-0.41183-1.3418-0.80211-0.3029-0.3008-0.5957-0.82674-0.8771-1.577-0.2838-0.76154-0.6483-2.0315-1.0869-3.7976-0.1497-0.60306-0.4369-1.803-0.8709-3.601-0.4361-1.8163-0.8001-3.3069-1.0969-4.5043l-0.5458-2.2007c-2.574 0.63683-5.1305 1.3415-7.6666 2.1117zm73.031-2.8693-5.0374 22.103c2.1698 0.49601 4.3278 1.0525 6.4707 1.6677l6.2449-21.799c-2.5405-0.72709-5.101-1.3848-7.6782-1.9715z" fill="#5b37f0" style="font-variant-caps:normal;font-variant-east-asian:normal;font-variant-ligatures:normal;font-variant-numeric:normal"/>
 </g>
</svg>
