<?xml version="1.0" encoding="UTF-8" standalone="no"?>
<svg
   xmlns:osb="http://www.openswatchbook.org/uri/2009/osb"
   xmlns:dc="http://purl.org/dc/elements/1.1/"
   xmlns:cc="http://creativecommons.org/ns#"
   xmlns:rdf="http://www.w3.org/1999/02/22-rdf-syntax-ns#"
   xmlns:svg="http://www.w3.org/2000/svg"
   xmlns="http://www.w3.org/2000/svg"
   xmlns:xlink="http://www.w3.org/1999/xlink"
   xmlns:sodipodi="http://sodipodi.sourceforge.net/DTD/sodipodi-0.dtd"
   xmlns:inkscape="http://www.inkscape.org/namespaces/inkscape"
   viewBox="0 0 870.00001 529.99999"
   version="1.1"
   id="svg112"
   sodipodi:docname="service-a1.svg"
   width="870"
   height="530"
   inkscape:version="1.0.1 (unknown)">
  <metadata
     id="metadata116">
    <rdf:RDF>
      <cc:Work
         rdf:about="">
        <dc:format>image/svg+xml</dc:format>
        <dc:type
           rdf:resource="http://purl.org/dc/dcmitype/StillImage" />
        <dc:title />
      </cc:Work>
    </rdf:RDF>
  </metadata>
  <sodipodi:namedview
     pagecolor="#ffffff"
     bordercolor="#666666"
     borderopacity="1"
     objecttolerance="10"
     gridtolerance="10"
     guidetolerance="10"
     inkscape:pageopacity="0"
     inkscape:pageshadow="2"
     inkscape:window-width="1366"
     inkscape:window-height="703"
     id="namedview114"
     showgrid="false"
     inkscape:snap-global="false"
     inkscape:zoom="1.7632184"
     inkscape:cx="570.11139"
     inkscape:cy="208.19712"
     inkscape:window-x="0"
     inkscape:window-y="0"
     inkscape:window-maximized="1"
     inkscape:current-layer="developer"
     inkscape:document-rotation="0" />
  <defs
     id="defs4">
    <style
       id="style2">.cls-1,.cls-3{fill:none;stroke:#2e186a;stroke-linecap:round;stroke-linejoin:round;}.cls-1{stroke-width:6px;}.cls-2{fill:#fe7624;}.cls-3{stroke-width:8px;}.cls-4{fill:#2e186a;}</style>
    <linearGradient
       gradientTransform="matrix(0.34682586,0,0,0.30620888,-13.351866,122.03855)"
       osb:paint="solid"
       id="linearGradient19282-4">
      <stop
         id="stop19284-0"
         offset="0"
         style="stop-color:#bebebe;stop-opacity:1;" />
    </linearGradient>
    <linearGradient
       gradientTransform="matrix(2.8318649,0,0,2.8318649,795.29705,715.95657)"
       gradientUnits="userSpaceOnUse"
       y2="303.12631"
       x2="334.79129"
       y1="303.12631"
       x1="330.79269"
       id="linearGradient7658"
       xlink:href="#linearGradient19282-4" />
    <linearGradient
       gradientTransform="matrix(2.8318649,0,0,2.8318649,987.27566,999.4523)"
       gradientUnits="userSpaceOnUse"
       y2="201.49854"
       x2="279.00021"
       y1="201.49854"
       x1="264.5625"
       id="linearGradient7664"
       xlink:href="#linearGradient19282-4" />
    <linearGradient
       gradientTransform="matrix(2.8318649,0,0,2.8318649,987.27566,999.4523)"
       gradientUnits="userSpaceOnUse"
       y2="207.42619"
       x2="276.99847"
       y1="207.42619"
       x1="273.62244"
       id="linearGradient7670"
       xlink:href="#linearGradient19282-4" />
    <linearGradient
       gradientTransform="matrix(2.8318649,0,0,2.8318649,987.27566,999.4523)"
       gradientUnits="userSpaceOnUse"
       y2="209.50031"
       x2="278.99899"
       y1="209.50031"
       x1="275.99951"
       id="linearGradient7672"
       xlink:href="#linearGradient19282-4" />
    <linearGradient
       gradientTransform="matrix(2.8318649,0,0,2.8318649,987.27566,999.4523)"
       gradientUnits="userSpaceOnUse"
       y2="201.42265"
       x2="271.44812"
       y1="201.42265"
       x1="270.26382"
       id="linearGradient7678"
       xlink:href="#linearGradient19282-4" />
    <linearGradient
       gradientTransform="matrix(2.908257,0,0,4.2085242,1667.9638,1634.5827)"
       gradientUnits="userSpaceOnUse"
       y2="-15.5"
       x2="34.471458"
       y1="-15.5"
       x1="33"
       id="linearGradient7684"
       xlink:href="#linearGradient19282-4" />
  </defs>
  <g
     id="Layer_2"
     data-name="Layer 2"
     transform="matrix(0.52968682,0,0,0.52968682,1.1159228e-6,40.810621)">
    <g
       id="outline">
      <g
         id="developer">
        <path
           id="chair"
           class="cls-1"
           d="m 317.73,731.65 -24.4,-194.59 c -9.61,-76.61 45,-138.72 122.06,-138.72 h 128.85" />
        <g
           id="body">
          <path
             id="hoodie"
             class="cls-1"
             d="m 625,394.92 16,-22.53 -4.21,-30.25 c -1.13,-2.14 -2.29,-4.37 -3.48,-6.67 -87.37,13 -98,49.61 -78.38,88.82 C 410,452.59 346.9,675.05 384.6,780.6 c 10.74,30 19.36,60 51.27,60.34" />
          <g
             id="tshirt">
            <path
               class="cls-2"
               d="m 670.57,475.79 c 0,-0.19 0,-0.38 0,-0.57 4.74,0.46 9.34,0.49 13.78,-3.35 11,-9.53 14.9,-12.39 14.9,-12.39 0,0 1,1.2 2.77,3.23 2.17,-4 4.43,-8.15 6.74,-12.35 C 661.27,413.58 625,394.92 625,394.92 l -2.68,-1.92 -17.44,21.27 c 0,0 28.38,19.56 65.69,61.52 z"
               id="path8"
               style="fill:#ff5361;fill-opacity:1" />
            <path
               class="cls-2"
               d="m 900.13,821.06 c 0,0 -76,-204.39 -66.33,-267.73 5.27,-34.55 -3,-73.73 -14.42,-104 l -21.77,1.41 -26.06,61.62 c 1.7,0.42 3.4,0.77 5.1,1 0,0 -1,6.47 -3.46,21.34 -1.65,9.91 1.18,11 3.42,17.88 2.89,4.63 5.11,9.83 2.67,17.87 -0.8,2.63 -2.7,27.4 -7,61 8,17 15.64,34.94 22.8,54 46.08,122.92 41.29,136.33 41.29,136.33 z"
               id="path10"
               style="fill:#ff5361;fill-opacity:1" />
          </g>
          <path
             id="hoodie-2"
             data-name="hoodie"
             class="cls-1"
             d="m 1157.5,839.33 c -5.47,-36 -44.48,-229.23 -267.66,-398.72 -5,-30.28 -17.65,-77.94 -82.66,-100.22" />
          <path
             id="string"
             class="cls-3"
             d="m 851.9,542.57 c 0,0 -2.4,65.28 11.89,112.21" />
          <path
             id="stripe"
             class="cls-4"
             d="m 886.88,439.86 c 0.71,4.26 1.26,8.18 1.79,11.62 6.14,39.82 -7,66.26 -15.69,84.59 23.33,-16.5 39.06,-47.88 47,-71.81 -9.59,-7.68 -22.68,-16.64 -33.1,-24.4 z"
             style="fill:#5b37f0;fill-opacity:1" />
          <path
             id="stripe_II"
             data-name="stripe II"
             class="cls-4"
             d="m 557.24,422.52 c -16.32,3.33 -43.14,11.46 -62.47,24.83 13.5,7.36 80.36,47.4 135,71.42 0.43,-0.25 3.43,-5.25 4.93,-7.2 -30.24,-23.98 -62.05,-58.16 -77.46,-89.05 z"
             style="fill:#5b37f0;fill-opacity:1" />
        </g>
        <g
           id="head">
          <path
             id="ear"
             class="cls-1"
             d="m 601.25,263.25 c 0,0 -37.11,10.06 -22.09,41.75 10.44,22 30.26,14.18 42.08,7.51" />
          <path
             id="face"
             class="cls-1"
             d="m 611.15,269.27 11.66,-3.91 c 7.69,4.65 33.09,36.21 41.28,51.85 0,0 37.29,-24.19 95.5,-39.66 0,0 31.69,-7.24 45.47,-6.66 -4,-32 -12.18,-72.88 -26.58,-109.43 -21.42,-54.33 -87.7,-33.25 -97.32,-30 -103.37,35.17 -70.11,137.58 -70.11,137.58 z" />
          <path
             id="beard"
             class="cls-1"
             d="m 727.49,403.37 c -12.44,0 -24.27,-2.07 -33.58,-5.75 -30.2,-11.93 -36.62,-19.62 -47.46,-37.76 -10.84,-18.14 -44.81,-87.39 -44.81,-87.39 l 21.17,-7.11 c 7.69,4.65 33.09,36.21 41.28,51.85 0,0 37.29,-24.19 95.5,-39.66 0,0 32,-7.32 45.69,-6.66 0,0 6.54,32.54 2.62,64.44" />
          <path
             id="hair"
             class="cls-4"
             d="m 604.24,281.52 c 0,0 -19.12,-22.17 -32.93,-48.66 -13,-24.9 -7.61,-55.75 13.94,-73.75 C 603.29,144 620.46,148 620.46,148 c 0,0 -31.06,-31.64 -6.57,-72.57 a 61.32,61.32 0 0 1 39.38,-28.38 c 40.2,-8.81 61,21.85 61,21.85 0,0 23.1,-89.19 122.31,-64.65 10,2.48 23.23,13.06 30.2,20.66 C 909,71 829.46,158 781.07,175.42 c -53.13,19.12 -87.3,18.07 -108.18,9.13 15.01,4.57 15.56,89.24 -68.65,96.97 z"
             style="fill:#5b37f0;fill-opacity:1" />
          <polyline
             id="nose"
             class="cls-3"
             points="757.57 253.95 776.31 303.81 757.05 303.71" />
          <circle
             id="mouth"
             class="cls-4"
             cx="747.28003"
             cy="337.54999"
             r="9.4700003"
             style="fill:#5b37f0;fill-opacity:1" />
          <path
             id="brow_II"
             data-name="brow II"
             class="cls-3"
             d="m 693.66,229.94 a 24.85,24.85 0 0 1 20.58,-14.69" />
          <path
             id="brow"
             class="cls-3"
             d="m 762.32,202.32 c 0,0 13.64,-7.43 20.27,3.58" />
        </g>
        <path
           id="laptop"
           class="cls-4"
           d="M 1354,562.9 H 965.2 a 11,11 0 0 0 -10.7,8.47 L 900.44,800.19 H 759.51 c 0,0 -7.81,40.34 37.73,40.34 h 496.39 a 11,11 0 0 0 10.7,-8.47 l 60.39,-255.63 A 11,11 0 0 0 1354,562.9 Z"
           style="fill:#5b37f0;fill-opacity:1" />
        <g
           id="code_lines"
           data-name="code lines"
           transform="translate(0,181.36779)">
          <rect
             class="cls-2"
             x="1191.7"
             y="206.24001"
             width="13.06"
             height="17.889999"
             rx="5"
             id="rect30"
             style="fill:#ff5361;fill-opacity:1" />
          <rect
             class="cls-4"
             x="1096.88"
             y="206.24001"
             width="89.800003"
             height="17.889999"
             rx="5"
             id="rect32"
             style="fill:#5b37f0;fill-opacity:1" />
          <rect
             class="cls-4"
             x="1096.88"
             y="289.34"
             width="97.93"
             height="17.889999"
             rx="5"
             id="rect34"
             style="fill:#5b37f0;fill-opacity:1" />
          <rect
             class="cls-2"
             x="1121.64"
             y="261.67001"
             width="151.89"
             height="17.889999"
             rx="5"
             id="rect36"
             style="fill:#ff5361;fill-opacity:1" />
          <rect
             class="cls-2"
             x="1282.03"
             y="261.67001"
             width="82.040001"
             height="17.889999"
             rx="5"
             id="rect38"
             style="fill:#ff5361;fill-opacity:1" />
          <rect
             class="cls-4"
             x="1378.78"
             y="234.00999"
             width="13.06"
             height="17.889999"
             rx="5"
             id="rect40"
             style="fill:#5b37f0;fill-opacity:1" />
          <rect
             class="cls-4"
             x="1096.88"
             y="233.96001"
             width="157.06"
             height="17.889999"
             rx="5"
             id="rect42"
             style="fill:#5b37f0;fill-opacity:1" />
          <rect
             class="cls-4"
             x="1210.52"
             y="206.24001"
             width="89.800003"
             height="17.889999"
             rx="5"
             id="rect44"
             style="fill:#5b37f0;fill-opacity:1" />
          <rect
             class="cls-2"
             x="1260.97"
             y="233.89999"
             width="110.79"
             height="18"
             rx="5"
             id="rect46"
             style="fill:#ff5361;fill-opacity:1" />
        </g>
        <g
           id="mug">
          <path
             id="handle"
             class="cls-1"
             d="m 1484.34,735.41 a 26.47,26.47 0 0 1 6.76,-1.41 26.07,26.07 0 1 1 -2.15,51.76" />
          <line
             id="spoon"
             class="cls-1"
             x1="1421.52"
             y1="738.81"
             x2="1384.25"
             y2="693.31" />
          <path
             id="mug-2"
             style="fill:#5b37f0;fill-opacity:1;stroke-width:0.529687"
             d="m 730.32227,424.67969 v 45.45312 a 15.890605,15.890605 0 0 0 15.89062,15.89063 h 26.80078 a 15.890605,15.890605 0 0 0 15.89063,-15.89063 v -45.45312 z"
             transform="matrix(1.887908,0,0,1.887908,-2.1067596e-6,-77.046699)" />
          <g
             id="g1208"
             transform="matrix(1.6828004,0,0,1.6828004,488.48269,-608.87509)"
             style="stroke-width:0.594248">
            <path
               style="display:inline;overflow:visible;visibility:visible;fill:#ffffff;fill-opacity:1;fill-rule:evenodd;stroke:none;stroke-width:1.13463;marker:none;enable-background:new"
               d="m 582.5099,804.0756 c 0,0 -0.32006,11.504 -16.54664,11.41488 -13.7766,-0.0756 -14.0691,-8.58327 -14.0691,-8.58327 1.49995,14.15927 -2.8315,19.82116 -2.8315,19.82116 0,0 -0.30799,2.02668 -6.81335,1.68128 3.44366,4.91099 16.48839,14.61528 27.00998,12.03429 -1.53914,-1.1385 -2.23422,-2.23638 -3.11907,-3.20766 -0.23419,0.032 -0.0226,0.0198 -0.26534,0.0227 -6.08863,0.03 -11.23758,-5.04381 -11.23758,-5.04381 0,0 11.47174,5.44262 16.01575,-1.50425 l -2.38919,-2.56669 c 2.5804,0.0617 5.93933,2.76814 5.71901,6.42986 -1.53968,-1.75077 -1.38328,-1.56305 -1.38328,-1.56305 0,0 -0.61853,0.62632 -1.50423,1.50426 2.0307,1.04224 2.67351,1.65471 4.53172,2.89354 7.94021,-1.93535 8.25308,-19.11262 6.88282,-33.3332 z m -11.5915,12.7422 c 2.71805,0 4.95517,2.22913 4.95517,4.95528 0,2.72616 -2.23712,4.95529 -4.95517,4.95529 -2.71805,0 -4.95514,-2.22913 -4.95514,-4.95529 0,-2.72615 2.23709,-4.95528 4.95514,-4.95528 z m -11.76847,1.41579 c 2.33901,0 4.15877,1.9014 4.15877,4.24738 0,2.34603 -1.81976,4.2474 -4.15877,4.2474 -2.33903,0 -4.24729,-1.90137 -4.24729,-4.2474 0,-2.34598 1.90826,-4.24738 4.24729,-4.24738 z"
               id="path7016"
               inkscape:connector-curvature="0" />
            <path
               style="fill:#ffffff;fill-opacity:1;stroke:none;stroke-width:1.68283"
               d="m 560.07156,820.6274 c -0.92607,0 -1.67689,0.73065 -1.67689,1.63203 0,0.90133 0.75082,1.63197 1.67689,1.63197 0.92611,0 1.67689,-0.73064 1.67689,-1.63197 0,-0.90138 -0.75078,-1.63203 -1.67689,-1.63203 z"
               id="path5373"
               inkscape:connector-curvature="0" />
            <ellipse
               ry="2.1042621"
               rx="2.1396856"
               cy="821.75586"
               cx="571.8443"
               style="fill:#ffffff;fill-opacity:1;stroke:none;stroke-width:2.07897"
               id="path5375" />
            <path
               id="path7023"
               d="m 542.35074,821.1183 a 6.2980287,4.9451418 45.007124 0 0 -1.58737,0.18804 6.2980287,4.9451418 45.007124 0 0 -2.24007,6.93586 6.2980287,4.9451418 45.007124 0 0 7.68809,3.9989 6.2980287,4.9451418 45.007124 0 0 2.24004,-6.93586 6.2980287,4.9451418 45.007124 0 0 -6.10069,-4.18694 z"
               style="display:inline;overflow:visible;visibility:visible;fill:#ffffff;fill-opacity:1;fill-rule:evenodd;stroke:none;stroke-width:2.61909;marker:none;enable-background:new"
               inkscape:connector-curvature="0" />
            <path
               id="path6937"
               d="m 576.09312,843.71794 1.37317,-1.71381 c -2.69282,-3.46408 -8.38087,-6.90004 -8.38087,-6.90004 -0.93576,-0.8 -1.5274,0.15462 -0.95352,1.01041 0,0 4.26572,5.37726 7.96122,7.60344 z"
               style="display:inline;overflow:visible;visibility:visible;fill:#ffffff;fill-opacity:1;fill-rule:nonzero;stroke:none;stroke-width:0.460969;marker:none"
               inkscape:connector-curvature="0" />
            <path
               id="path7040"
               d="m 583.12931,849.38113 c -0.15207,-4.72624 -2.19395,-8.81975 -6.06013,-8.4733 -3.11565,0.27922 -3.50166,5.03114 0.39711,5.64172 5.9487,0.93163 5.66302,2.83158 5.66302,2.83158 z"
               style="display:inline;overflow:visible;visibility:visible;fill:#ffffff;fill-opacity:1;fill-rule:nonzero;stroke:none;stroke-width:0.336566;marker:none"
               inkscape:connector-curvature="0" />
          </g>
        </g>
        <g
           id="tea">
          <path
             id="handle-2"
             data-name="handle"
             class="cls-1"
             d="m 245.2,786 a 26.070428,26.070428 0 1 1 -3.83,-52 25.69,25.69 0 0 1 4.73,0.08" />
          <path
             id="ug"
             style="fill:#5b37f0;fill-opacity:1;stroke-width:0.529687"
             d="m 128.08398,424.67969 v 45.45312 a 15.890605,15.890605 0 0 0 15.89063,15.89063 h 26.80664 a 15.890605,15.890605 0 0 0 15.89063,-15.89063 v -45.45312 z"
             transform="matrix(1.887908,0,0,1.887908,-2.1067596e-6,-77.046699)" />
          <path
             id="path1006"
             style="fill:#ffffff;stroke:none;stroke-width:1.88791px;stroke-linecap:butt;stroke-linejoin:miter;stroke-opacity:1"
             d="m 298.3004,748.87704 -18.73467,34.57807 10.75581,5.68014 25.05548,-10.10612 z m 19.47555,34.38738 -24.30188,9.23375 10.57563,16.421 -25.71463,-23.19248 -7.26473,13.40744 27.87381,20.51519 25.06651,-25.37219 z"
             sodipodi:nodetypes="ccccccccccccc" />
        </g>
        <g
           id="hand">
          <path
             id="thumb"
             class="cls-1"
             d="m 728.2,413.19 c 0.41,-12.93 0.21,-33.28 -4.38,-42.17 -7.29,-14.11 -0.49,-29.17 14.42,-13.76 8.5,8.78 12.67,20.43 14.69,28.82" />
          <circle
             class="cls-1"
             cx="854.09998"
             cy="366.37"
             r="26.07"
             id="circle96" />
          <path
             id="sleeve"
             class="cls-1"
             d="m 685.24,843.52 c 76.2,-5.69 91.36,-264.23 94,-273.06 5.29,-17.44 -11.32,-21.53 -9.14,-35.34 2.18,-13.81 0.49,-20 0.49,-20 -35.77,-5.82 -70.51,-50.8 -70.51,-50.8 0,0 -3.6,2.63 -13.85,11.39 -10.25,8.76 -21.69,-4.7 -33.39,8.72 C 645.12,493.38 561,634.6 561,634.6" />
          <path
             id="welt"
             class="cls-4"
             d="m 773.19,534.71 c 2.48,-14.87 3.46,-21.34 3.46,-21.34 -38.09,-5.86 -77.37,-53.89 -77.37,-53.89 0,0 -3.88,2.86 -14.9,12.39 -4.44,3.84 -9,3.81 -13.78,3.35 -3.37,41.71 71.45,78.84 106.89,80.59 -2.26,-10.02 -6.17,-9.81 -4.3,-21.1 z"
             style="fill:#5b37f0;fill-opacity:1" />
          <path
             id="line-3"
             data-name="line"
             class="cls-1"
             d="m 511.48,610.91 c 0,0 45.1,-38.92 71.28,-14.4" />
          <path
             id="hand-2"
             data-name="hand"
             class="cls-1"
             d="m 684.44,495.72 75.56,43.93 37.82,-89.42 c 36.49,0.06 36.33,-19.76 28.69,-20.44 -7.64,-0.68 -44.33,4.47 -44.33,4.47 0,0 1.19,-2.67 31,-8.33 29.81,-5.66 24.21,-22.27 17.8,-22.72 -6.41,-0.45 -53.78,11.42 -53.78,11.42 l 40.7,-14.53 c 14.49,-4.6 15,-18.64 7.43,-20.62 -5,-1.31 -31.66,6.75 -52.76,14.13 0,0 25.36,-13 37.39,-20.86 12.03,-7.86 3.62,-18.11 -3.41,-17.47 -7.03,0.64 -55.87,33.3 -65.17,41.39 -9.3,8.09 -56.94,99.05 -56.94,99.05 z" />
        </g>
        <g
           id="coffe">
          <path
             id="handle-3"
             data-name="handle"
             class="cls-1"
             d="m 635.24,734.65 a 27.18,27.18 0 0 1 4.18,-0.65 26.07,26.07 0 1 1 -5.77,50.92" />
          <path
             id="mug-3"
             style="fill:#5b37f0;fill-opacity:1;stroke-width:0.529687"
             d="m 279.19727,424.67969 v 45.45312 a 15.890605,15.890605 0 0 0 15.89062,15.89063 h 26.80273 a 15.890605,15.890605 0 0 0 15.89063,-15.89063 v -45.45312 z"
             transform="matrix(1.887908,0,0,1.887908,-2.1067596e-6,-77.046699)" />
        </g>
        <line
           id="line-4"
           data-name="line"
           class="cls-1"
           x1="3"
           y1="843.03003"
           x2="1639.48"
           y2="843.03003" />
        <path
           class="cls-4"
           d="m 853.73,417 -5.54,-85.63 -110.37,7.15 3.75,57.94 c 9.81,-8.39 58,-40.57 64.95,-41.2 6.95,-0.63 15.44,9.62 3.41,17.47 -12.03,7.85 -37.39,20.86 -37.39,20.86 21.1,-7.38 47.79,-15.44 52.76,-14.13 7.58,2 7.06,16 -7.43,20.62 l -40.7,14.53 c 0,0 47.37,-11.87 53.78,-11.42 6.41,0.45 12,17.06 -17.8,22.72 -29.8,5.66 -31,8.33 -31,8.33 0,0 36.7,-5.16 44.33,-4.47 7.63,0.69 7.8,20.5 -28.69,20.44 l -0.21,0.49 28.12,-1.82 A 30,30 0 0 0 853.73,417 Z"
           id="path107"
           style="fill:#5b37f0;fill-opacity:1" />
        <rect
           style="font-variation-settings:normal;opacity:1;vector-effect:none;fill:none;fill-opacity:1;stroke:#2e186a;stroke-width:6px;stroke-linecap:round;stroke-linejoin:round;stroke-miterlimit:4;stroke-dasharray:none;stroke-dashoffset:0;stroke-opacity:1;paint-order:fill markers stroke;stop-color:#000000;stop-opacity:1"
           id="rect959"
           width="34.59388"
           height="34.558086"
           x="-1144.5792"
           y="268.11923"
           transform="scale(-1,1)" />
        <path
           style="font-variation-settings:normal;opacity:1;vector-effect:none;fill:none;fill-opacity:1;stroke:#2e186a;stroke-width:5.99977;stroke-linecap:round;stroke-linejoin:round;stroke-miterlimit:4;stroke-dasharray:5.99977, 11.9995;stroke-dashoffset:0;stroke-opacity:1;stop-color:#000000;stop-opacity:1"
           d="m 1206.7495,176.82628 c 53.7588,-81.224395 -44.6371,-125.820165 -83.3066,-60.03541 -11.1823,19.02331 14.1941,53.87505 -12.267,82.12963 -23.5915,25.19055 -71.4361,1.23322 -81.8595,44.39379 -17.0541,70.61648 80.6687,69.75821 97.9109,40.06721"
           id="path975"
           sodipodi:nodetypes="csssc" />
        <g
           id="g1001"
           transform="matrix(2.0318959,0,0,2.0040675,-1065.6574,34.792606)"
           style="stroke-width:0.495556">
          <path
             style="font-variation-settings:normal;opacity:1;vector-effect:none;fill:#5b37f0;fill-opacity:1;stroke:#2e186a;stroke-width:2.97334px;stroke-linecap:round;stroke-linejoin:round;stroke-miterlimit:4;stroke-dasharray:none;stroke-dashoffset:0;stroke-opacity:1;stop-color:#000000;stop-opacity:1"
             d="m 1118.7489,79.47444 v 69.19127 l 38.3712,-22.43141 V 56.113215 Z"
             id="path982" />
          <path
             style="font-variation-settings:normal;opacity:1;vector-effect:none;fill:none;fill-opacity:1;stroke:#2e186a;stroke-width:2.97334px;stroke-linecap:round;stroke-linejoin:round;stroke-miterlimit:4;stroke-dasharray:none;stroke-dashoffset:0;stroke-opacity:1;stop-color:#000000;stop-opacity:1"
             d="m 1118.7489,79.47444 v 69.19127 L 1080.3776,126.2343 V 56.113215 Z"
             id="path989" />
          <path
             style="font-variation-settings:normal;opacity:1;vector-effect:none;fill:none;fill-opacity:1;stroke:#2e186a;stroke-width:2.97334px;stroke-linecap:round;stroke-linejoin:round;stroke-miterlimit:4;stroke-dasharray:none;stroke-dashoffset:0;stroke-opacity:1;stop-color:#000000;stop-opacity:1"
             d="m 1080.3776,56.113215 38.3713,23.361224 38.3712,-23.361224 -38.3712,-14.851746 z"
             id="path991"
             sodipodi:nodetypes="ccccc" />
        </g>
        <g
           id="g1044">
          <path
             id="line"
             style="fill:none;stroke:#2e186a;stroke-width:6px;stroke-linecap:round;stroke-linejoin:round"
             d="M 427.34,690.13 413.67001,665.32001"
             class="cls-1" />
          <path
             id="line-2"
             style="fill:none;stroke:#2e186a;stroke-width:6px;stroke-linecap:round;stroke-linejoin:round"
             d="m 396.98999,692.78003 h 75.77002"
             class="cls-1" />
          <path
             id="path91"
             style="fill:#5b37f0;fill-opacity:1;stroke-width:0.529687"
             d="m 213.37305,408.19531 -7.03907,9.15821 a 4.8466344,4.8466344 0 0 0 -1.05859,2.97265 v 55.75391 a 5.2121183,5.2121183 0 0 0 2.62695,4.37109 c 2.17702,1.356 4.95246,3.45343 5.14844,5.46094 h 34.59375 c 0.19069,-2.00751 2.96557,-4.10494 5.14258,-5.46094 a 5.2121183,5.2121183 0 0 0 2.61133,-4.38086 v -55.74414 a 4.8731187,4.8731187 0 0 0 -1.03711,-2.97265 l -7.03906,-9.15821 z"
             transform="matrix(1.887908,0,0,1.887908,-2.1067596e-6,-77.046699)" />
        </g>
        <g
           id="g864"
           transform="matrix(1.865244,0,-0.19604934,1.865244,1034.9989,590.45394)"
           style="fill:#ffffff;stroke-width:1.01215">
          <path
             id="path851"
             style="font-style:normal;font-variant:normal;font-weight:normal;font-stretch:normal;font-size:113.151px;line-height:1.25;font-family:Allan;-inkscape-font-specification:'Allan, Normal';font-variant-ligatures:normal;font-variant-caps:normal;font-variant-numeric:normal;font-variant-east-asian:normal;fill:#ffffff;fill-opacity:1;stroke:none;stroke-width:1.0707"
             d="m 57.996094,68.150391 c -0.402894,0.0064 -0.79815,0.0687 -1.185547,0.1875 -1.019289,0.30303 -1.873796,0.770685 -2.5625,1.404297 -1.969706,1.887056 -3.505489,4.683423 -4.607422,8.388671 -1.101932,3.705238 -1.452183,6.619016 -1.052734,8.740235 0.344355,1.584028 1.514465,2.630983 3.511718,3.140625 0.881543,0.165291 2.045904,-0.323541 3.492188,-1.466797 1.446284,-1.143255 2.43742,-2.224855 2.974609,-3.244141 0.123968,-0.33058 8.1e-4,-0.640433 -0.371094,-0.929687 L 57.388672,83.875 c -0.303029,-0.17906 -0.583992,-0.152131 -0.845703,0.08203 -1.528933,1.721764 -2.810691,2.776433 -3.84375,3.16211 -1.157033,-0.220383 -1.543879,-1.363568 -1.158203,-3.429688 2.851248,-1.005514 5.262714,-2.514366 7.232422,-4.525391 1.983463,-2.024799 2.982306,-4.172575 2.996093,-6.445312 0.01379,-2.272735 -0.552057,-3.650723 -1.695312,-4.132812 -0.714539,-0.301311 -1.406636,-0.446306 -2.078125,-0.435546 z m -0.277344,2.976562 c 0.661159,0 0.992187,0.57159 0.992188,1.714844 0,1.143255 -0.309847,2.2595 -0.929688,3.347656 -0.606059,1.088157 -1.383571,2.009998 -2.333984,2.767578 -0.936643,0.757582 -2.066357,1.419633 -3.388672,1.984375 0.537189,-2.314057 1.287765,-4.525369 2.251953,-6.632812 0.977966,-2.121218 2.113435,-3.181641 3.408203,-3.181641 z" />
          <path
             style="font-style:normal;font-variant:normal;font-weight:normal;font-stretch:normal;font-size:113.151px;line-height:1.25;font-family:Allan;-inkscape-font-specification:'Allan, Normal';font-variant-ligatures:normal;font-variant-caps:normal;font-variant-numeric:normal;font-variant-east-asian:normal;fill:#ffffff;fill-opacity:1;stroke:none;stroke-width:1.0707"
             d="m 42.574219,57.429688 c -0.674936,-10e-7 -1.094477,0.309852 -1.259766,0.929687 l -7.748047,29.8125 c -0.220386,0.909094 0.193397,1.365234 1.240235,1.365234 h 0.703125 c 0.688706,0 1.115963,-0.309846 1.28125,-0.929687 l 2.416015,-9.44336 2.748047,9.44336 c 0.110188,0.399447 0.24106,0.653473 0.392578,0.763672 0.151514,0.110188 0.440189,0.166015 0.867188,0.166015 h 1.136718 c 0.853997,0 1.150377,-0.37914 0.888672,-1.136718 l -3.285156,-10.332032 7.273438,-8.552734 c 0.330577,-0.358129 0.480675,-0.689156 0.453125,-0.992187 -0.02757,-0.316806 -0.260404,-0.47461 -0.701172,-0.47461 h -1.570313 c -0.537194,0 -0.916328,0.152047 -1.136718,0.455078 l -6.404297,8.03711 4.626953,-18.140625 c 0.165292,-0.647386 -0.15032,-0.970705 -0.949219,-0.970703 z"
             id="path843" />
          <path
             id="path845"
             style="font-style:normal;font-variant:normal;font-weight:normal;font-stretch:normal;font-size:113.151px;line-height:1.25;font-family:Allan;-inkscape-font-specification:'Allan, Normal';font-variant-ligatures:normal;font-variant-caps:normal;font-variant-numeric:normal;font-variant-east-asian:normal;fill:#ffffff;fill-opacity:1;stroke:none;stroke-width:1.0707"
             d="m 64.166016,59.019531 c -1.633162,0.365288 -2.288886,2.328145 -1.777344,3.708985 l 23.203125,0.785156 -26.070313,47.474608 c 0.530646,1.33916 1.911359,1.93145 3.277344,1.80078 L 90.332031,62.652344 c 0.670407,-1.220863 -0.182265,-2.72048 -1.574219,-2.769532 z" />
          <path
             id="path841"
             style="font-style:normal;font-variant:normal;font-weight:normal;font-stretch:normal;font-size:113.151px;line-height:1.25;font-family:Allan;-inkscape-font-specification:'Allan, Normal';font-variant-ligatures:normal;font-variant-caps:normal;font-variant-numeric:normal;font-variant-east-asian:normal;fill:#ffffff;fill-opacity:1;stroke:none;stroke-width:1.0707"
             d="m 86.896484,26.347656 -1.445312,0.04102 c -0.426994,0 -0.723382,0.280965 -0.888672,0.845703 -0.867772,-0.537191 -1.770391,-0.804687 -2.707031,-0.804687 -1.694218,0 -3.09914,0.563879 -4.214844,1.693359 -1.115704,1.129482 -2.189593,3.127161 -3.222656,5.992187 -1.019283,2.851245 -1.660167,5.124138 -1.921875,6.81836 -0.247935,1.694218 -0.282569,2.850869 -0.103516,3.470703 0.192841,0.619839 0.510398,1.206849 0.951172,1.757812 0.454546,0.550968 0.922199,0.989734 1.404297,1.320313 0.482094,0.316806 0.834302,0.476562 1.054687,0.476562 h 0.08203 c 0.48209,0 1.101795,-0.352208 1.859375,-1.054687 0.771354,-0.702483 1.468059,-1.576213 2.08789,-2.623047 l -2.02539,7.396484 c -0.289261,1.046832 -0.756918,1.431734 -1.404297,1.15625 L 71.710936,49.94141 c -0.482098,-0.275483 -0.949751,-0.158077 -1.404297,0.351563 l -0.640625,0.888672 c -0.440774,0.674934 -0.323374,1.184942 0.351562,1.529297 l 4.31836,2.4375 c 0.895317,0.509644 1.563132,0.750206 2.003906,0.722656 0.440774,-0.02757 1.052765,-0.281579 1.83789,-0.763672 1.501385,-0.812673 2.617626,-2.535153 3.347657,-5.166016 3.498632,-12.410509 5.571363,-19.910456 6.21875,-22.5 0.137735,-0.757577 -0.145179,-1.121299 -0.847657,-1.09375 z m 6.488282,0 c -0.647384,0 -1.039989,0.280966 -1.177735,0.845703 l -5.164062,19.669922 c -0.16529,0.647383 0.144562,0.970703 0.929687,0.970703 h 1.238282 c 0.674932,4e-6 1.096428,-0.309852 1.261718,-0.929687 l 5.123047,-19.669922 c 0.08265,-0.344354 0.06145,-0.577204 -0.0625,-0.701172 -0.123968,-0.123968 -0.370284,-0.185547 -0.742187,-0.185547 z m -11.441407,2.570313 c 0.588846,0.02757 1.235016,0.238299 1.9375,0.630859 l -0.125,0.392578 c -0.922866,3.34712 -1.769656,6.012616 -2.541015,7.996094 -0.757576,1.969703 -1.679425,3.574782 -2.767578,4.814453 -1.088159,1.239673 -1.865662,1.741974 -2.333985,1.507813 -0.454546,-0.23416 -0.702817,-0.605588 -0.74414,-1.115235 -0.04133,-0.509643 0.06837,-1.481548 0.330078,-2.914062 0.275484,-1.446283 0.881716,-3.442018 1.818359,-5.990235 0.950417,-2.561992 1.893438,-4.180534 2.830078,-4.855468 0.475208,-0.337466 1.006858,-0.494348 1.595703,-0.466797 z" />
          <path
             id="path839"
             style="font-style:normal;font-variant:normal;font-weight:normal;font-stretch:normal;font-size:113.151px;line-height:1.25;font-family:Allan;-inkscape-font-specification:'Allan, Normal';font-variant-ligatures:normal;font-variant-caps:normal;font-variant-numeric:normal;font-variant-east-asian:normal;fill:#ffffff;fill-opacity:1;stroke:none;stroke-width:1.0707"
             d="m 52.951172,26.160156 -0.970703,0.04297 c -0.537194,0 -0.862461,0.329077 -0.972657,0.990234 -0.853996,-0.509642 -1.748902,-0.763671 -2.685546,-0.763671 -1.680445,-0.02755 -3.077654,0.536331 -4.19336,1.693359 -1.115707,1.157027 -2.203063,3.202826 -3.263672,6.136719 -1.060609,2.933891 -1.709198,5.220257 -1.943359,6.859375 -0.220387,1.625353 -0.233845,2.747351 -0.04102,3.367187 0.206611,0.619841 0.537638,1.191427 0.992188,1.714844 0.454548,0.523415 0.908739,0.950671 1.363281,1.28125 0.468324,0.316805 0.818573,0.476562 1.052734,0.476562 h 0.08398 c 0.303034,0 0.73604,-0.192447 1.300781,-0.578125 0.564739,-0.399447 1.247974,-1.123084 2.046875,-2.169921 l 0.785156,2.333984 c 0.123968,0.358126 0.377998,0.510173 0.763672,0.455078 1.336091,-0.303035 2.485024,-0.826506 3.449219,-1.570312 0.977964,-0.757582 2.046101,-1.812247 3.203125,-3.16211 0.303033,-0.399455 0.233738,-0.749704 -0.207031,-1.052734 l -1.03125,-0.681641 c -0.385677,-0.261709 -0.73788,-0.165484 -1.054688,0.289063 -0.867772,1.212128 -1.743457,2.141679 -2.625,2.789062 l 5.083985,-16.921875 c 0.275482,-0.991735 -0.103649,-1.501747 -1.136719,-1.529297 z m 7.333984,0.1875 c -0.426999,0 -0.707964,0.363724 -0.845703,1.09375 l -5.125,19.298828 c -0.08265,0.27548 -0.06147,0.52951 0.0625,0.763672 0.110201,0.220386 0.24682,0.330082 0.412109,0.330078 h 1.177735 c 0.454551,0 0.793287,-0.198205 1.013672,-0.597656 0.909094,-1.666671 2.450641,-4.160894 4.626953,-7.480469 1.157033,-1.804412 2.115469,-3.319023 2.873047,-4.544921 0.75758,-1.225902 1.404212,-2.224743 1.941406,-2.996094 0.454546,-0.674931 0.812512,-1.136828 1.074219,-1.384766 0.275483,-0.261709 0.510288,-0.392578 0.703125,-0.392578 0.19284,0 0.289062,0.125114 0.289062,0.373047 0,0.23416 -0.109697,0.728746 -0.330078,1.486328 l -4.443359,14.525391 c -0.192836,0.674934 -0.08119,1.011718 0.332031,1.011718 h 2.210937 c 0.371905,0 0.599001,-0.198205 0.681641,-0.597656 l 4.730469,-17.253906 c 0.316805,-1.046838 0.391853,-1.837807 0.226562,-2.375 -0.151515,-0.53719 -0.357433,-0.881685 -0.61914,-1.033203 -0.247937,-0.151516 -0.598188,-0.226563 -1.052735,-0.226563 h -0.888671 c -0.70248,0 -1.549272,0.384898 -2.541016,1.15625 -0.977962,0.771355 -1.936404,1.922245 -2.873047,3.451172 l -4.400391,7.271484 3.181641,-10.660156 c 0.220386,-0.812677 -0.0067,-1.21875 -0.681641,-1.21875 z m -11.96289,2.560547 c 0.61295,0.007 1.296183,0.220515 2.046875,0.640625 -1.046836,3.705249 -1.970635,6.563191 -2.769532,8.574219 -0.785127,2.011025 -1.706968,3.594926 -2.767578,4.751953 -1.046834,1.15703 -1.797403,1.618926 -2.251953,1.384766 -0.454545,-0.23416 -0.702817,-0.605587 -0.74414,-1.115235 -0.04133,-0.509643 0.06837,-1.466127 0.330078,-2.871093 0.275484,-1.418738 0.860537,-3.368313 1.755859,-5.847657 0.909092,-2.479346 1.832892,-4.119071 2.769531,-4.917969 0.475208,-0.406341 1.017909,-0.606498 1.63086,-0.599609 z" />
          <path
             id="path837"
             style="font-style:normal;font-variant:normal;font-weight:normal;font-stretch:normal;font-size:113.151px;line-height:1.25;font-family:Allan;-inkscape-font-specification:'Allan, Normal';font-variant-ligatures:normal;font-variant-caps:normal;font-variant-numeric:normal;font-variant-east-asian:normal;fill:#ffffff;fill-opacity:1;stroke:none;stroke-width:1.0707"
             d="m 94.832031,19.900391 c -0.592292,0 -1.088834,0.207869 -1.488281,0.621093 -0.385676,0.413228 -0.578125,0.894346 -0.578125,1.445313 0,0.550966 0.186688,1.032089 0.558594,1.445312 0.385674,0.39945 0.818685,0.59961 1.300781,0.59961 h 0.330078 c 0.61984,0 1.137558,-0.192452 1.550781,-0.578125 0.413222,-0.399449 0.619141,-0.874819 0.619141,-1.425782 0,-0.550965 -0.200158,-1.039797 -0.599609,-1.466796 -0.39945,-0.426998 -0.832458,-0.640625 -1.300782,-0.640625 z" />
          <path
             id="path835"
             style="font-style:normal;font-variant:normal;font-weight:normal;font-stretch:normal;font-size:113.151px;line-height:1.25;font-family:Allan;-inkscape-font-specification:'Allan, Normal';font-variant-ligatures:normal;font-variant-caps:normal;font-variant-numeric:normal;font-variant-east-asian:normal;fill:#ffffff;fill-opacity:1;stroke:none;stroke-width:1.0707"
             d="m 104.16992,18.845703 c -0.67493,0 -1.09447,0.311802 -1.25976,0.931641 l -1.69532,6.570312 h -1.693356 c -0.454552,0 -0.7644,0.267495 -0.929687,0.804688 l -0.330078,1.136718 c -0.206613,0.674933 -0.02766,1.011719 0.537109,1.011719 h 1.693362 l -4.400393,17.169922 c -0.08265,0.399451 -0.03453,0.730485 0.144531,0.992188 0.192844,0.247938 0.516152,0.371093 0.970703,0.371093 h 0.785157 c 0.688709,4e-6 1.115962,-0.309852 1.28125,-0.929687 l 4.484372,-17.603516 h 2.18946 c 0.53719,0 0.90862,-0.309847 1.11523,-0.929687 l 0.28906,-1.09375 c 0.19285,-0.619836 -0.0208,-0.929688 -0.64062,-0.929688 h -2.18946 l 1.65235,-6.529297 c 0.16529,-0.647384 -0.14456,-0.972656 -0.92969,-0.972656 z" />
          <path
             id="path833"
             style="font-style:normal;font-variant:normal;font-weight:normal;font-stretch:normal;font-size:113.151px;line-height:1.25;font-family:Allan;-inkscape-font-specification:'Allan, Normal';font-variant-ligatures:normal;font-variant-caps:normal;font-variant-numeric:normal;font-variant-east-asian:normal;fill:#ffffff;fill-opacity:1;stroke:none;stroke-width:1.0707"
             d="m 31.132812,17.193359 c -0.674931,0 -1.094475,0.309854 -1.259765,0.929688 l -7.251953,28.410156 c -0.08265,0.358132 -0.04224,0.667986 0.123047,0.929688 0.151518,0.247939 0.392073,0.371097 0.722656,0.371093 h 11.570312 c 0.75758,4e-6 1.206006,-0.294429 1.34375,-0.886718 l 0.289063,-1.054688 c 0.06886,-0.261708 0.04193,-0.488802 -0.08203,-0.68164 -0.110202,-0.192836 -0.289171,-0.289063 -0.53711,-0.289063 h -9.566406 l 6.714844,-26.40625 c 0.09642,-0.371902 0.06178,-0.681754 -0.103516,-0.929687 -0.151515,-0.261712 -0.392081,-0.392579 -0.722656,-0.392579 z" />
        </g>
        <path
           id="path1078"
           style="font-variation-settings:normal;opacity:1;vector-effect:none;fill:#ffffff;fill-opacity:1;stroke:none;stroke-width:6px;stroke-linecap:round;stroke-linejoin:round;stroke-miterlimit:4;stroke-dasharray:none;stroke-dashoffset:0;stroke-opacity:1;paint-order:fill markers stroke;stop-color:#000000;stop-opacity:1"
           d="m 555.71004,753.76156 c -3.64877,0.47822 -6.14612,2.02871 -5.61634,6.39171 l 26.34222,23.18462 5.6954,-6.60341 z m 26.83446,3.92021 a 25.213463,25.213463 0 0 0 -12.89054,3.56824 l 16.75721,14.79836 -9.97015,11.58212 -16.83372,-15.1172 a 25.213463,25.213463 0 0 0 -2.23939,10.38079 25.213463,25.213463 0 0 0 25.21486,25.21487 25.213463,25.213463 0 0 0 25.21231,-25.21487 25.213463,25.213463 0 0 0 -25.21231,-25.21231 25.213463,25.213463 0 0 0 -0.0382,0 z m 4.59103,25.63571 c 1.65406,-0.11375 3.37373,0.6531 4.60886,2.82092 3.95241,6.93701 -4.21097,14.80346 -4.21097,14.80346 0.69584,-2.26767 -0.40784,-4.89609 -4.52725,-9.61561 -2.83213,-3.24466 0.4904,-7.75841 4.12936,-8.00877 z" />
        <path
           id="path6"
           style="fill:#ffffff;fill-opacity:1;stroke-width:0.599434"
           d="m 419.01612,775.23088 c 0.0143,0.83813 0.28366,2.47161 0.68561,3.75017 0.84524,2.69968 2.2792,5.19837 4.27616,7.40205 a 22.104856,22.104856 0 0 0 7.47899,5.3694 24.047655,24.047655 0 0 0 9.82374,2.044 24.121773,24.121773 0 0 0 9.82089,-2.07679 c 2.91063,-1.30281 5.4293,-3.12586 7.47616,-5.39366 1.99268,-2.20933 3.42518,-4.71516 4.27185,-7.41626 0.42626,-1.36552 0.69275,-2.74956 0.80251,-4.13931 0.107,-1.36837 0.0613,-2.74103 -0.13269,-4.11082 a 19.117252,19.117252 0 0 0 -2.72528,-7.46045 20.907534,20.907534 0 0 0 -4.97316,-5.48345 l 0.002,-0.002 -20.12356,-15.45402 -0.0514,-0.0414 c -1.32277,-1.01205 -3.54351,-1.00919 -4.99454,0.007 -1.46957,1.02771 -1.63493,2.72533 -0.32926,3.79865 l -0.005,0.005 8.39264,6.82759 -25.58563,0.0257 h -0.0357 c -2.11386,10e-4 -4.14504,1.3912 -4.54985,3.14298 -0.41051,1.78745 1.02629,3.26842 3.22281,3.2784 v 0.005 l 12.96672,-0.0243 -23.14256,17.76171 -0.0884,0.0671 c -2.18085,1.6705 -2.88784,4.45141 -1.51376,6.21034 1.39686,1.79028 4.36309,1.79171 6.5696,0.01 l 12.62889,-10.33375 c 0,0 -0.18238,1.39688 -0.16954,2.23356 z m 32.45172,4.66956 c -2.60135,2.65406 -6.24176,4.15643 -10.18722,4.16354 -3.94547,0.01 -7.58875,-1.48239 -10.1915,-4.13078 a 12.107212,12.107212 0 0 1 -2.78236,-4.35453 11.326101,11.326101 0 0 1 -0.63998,-4.86342 11.504276,11.504276 0 0 1 1.39686,-4.58119 12.651708,12.651708 0 0 1 3.09595,-3.68176 c 2.52863,-2.06252 5.74713,-3.17718 9.11818,-3.18146 3.37104,-0.005 6.58956,1.10184 9.11817,3.1558 a 12.591843,12.591843 0 0 1 3.09595,3.66894 c 0.77397,1.40259 1.25433,2.95054 1.39686,4.57834 a 11.334655,11.334655 0 0 1 -0.63998,4.86342 12.172779,12.172779 0 0 1 -2.78093,4.3631 m -18.59841,-9.01558 c 0.11818,-2.14662 1.17165,-4.04096 2.75812,-5.38225 1.55794,-1.31846 3.65182,-2.1238 5.93815,-2.1238 2.28631,0 4.38022,0.80534 5.93813,2.1238 1.58647,1.34129 2.63839,3.23563 2.75955,5.38085 0.12127,2.20933 -0.76542,4.26189 -2.32193,5.77993 -1.58647,1.54654 -3.84711,2.51864 -6.37575,2.51864 -2.52863,0 -4.79073,-0.9721 -6.37717,-2.51864 -1.55651,-1.51947 -2.44168,-3.5706 -2.3191,-5.77853" />
        <rect
           style="font-variation-settings:normal;opacity:1;vector-effect:none;fill:none;fill-opacity:1;stroke:#2e186a;stroke-width:6px;stroke-linecap:round;stroke-linejoin:round;stroke-miterlimit:4;stroke-dasharray:none;stroke-dashoffset:0;stroke-opacity:1;paint-order:fill markers stroke;stop-color:#000000;stop-opacity:1"
           id="rect957"
           width="34.59388"
           height="34.558086"
           x="1265.5537"
           y="134.85774" />
        <path
           style="font-variation-settings:normal;opacity:1;vector-effect:none;fill:#5b37f0;fill-opacity:1;stroke:#2e186a;stroke-width:6px;stroke-linecap:round;stroke-linejoin:round;stroke-miterlimit:4;stroke-dasharray:none;stroke-dashoffset:0;stroke-opacity:1;stop-color:#000000;stop-opacity:1"
           d="m 1303.2481,208.98643 -18.4372,-61.64855 55.6996,24.02288 -27.8983,9.59171 z"
           id="path968" />
      </g>
    </g>
  </g>
</svg>
