<?xml version="1.0" encoding="UTF-8"?>
<svg width="870" height="530" version="1.1" viewBox="0 0 870 530" xmlns="http://www.w3.org/2000/svg" xmlns:cc="http://creativecommons.org/ns#" xmlns:dc="http://purl.org/dc/elements/1.1/" xmlns:rdf="http://www.w3.org/1999/02/22-rdf-syntax-ns#">
 <metadata>
  <rdf:RDF>
   <cc:Work rdf:about="">
    <dc:format>image/svg+xml</dc:format>
    <dc:type rdf:resource="http://purl.org/dc/dcmitype/StillImage"/>
    <dc:title/>
   </cc:Work>
  </rdf:RDF>
 </metadata>
 <defs>
  <style>.cls-1{fill:#5d21d1;}.cls-2,.cls-5,.cls-7{fill:none;}.cls-2{stroke:#fe7624;}.cls-2,.cls-5,.cls-6,.cls-7{stroke-linecap:round;stroke-linejoin:round;stroke-width:6px;}.cls-3{fill:#fe7624;}.cls-4,.cls-6{fill:#fff;}.cls-5{stroke:#fff;}.cls-6,.cls-7{stroke:#2e186a;}</style>
 </defs>
 <g transform="translate(-996.79 3.3823)" data-name="Layer 2">
  <g id="product_launch" transform="matrix(1.1399 0 0 1.1399 -200.26 -36.592)" data-name="product launch">
   <g transform="matrix(.66943 0 0 .66943 233.79 50.146)">
    <g id="flower" transform="matrix(.80857 0 0 .80857 1148.6 57.738)">
     <g id="leaves" fill="none" stroke="#5d21d1" stroke-width="6.0043">
      <g id="leaf_IV" data-name="leaf IV">
       <path class="cls-1" d="m326.67 274.79c-28.67-26.79-35.49-26.36-42.85-64.79-9.39-49.08-59.2-68.9-84.31-40.44s5.08 83 14.78 94.87c7.41 9.09 4.07 53.93 16.18 97.2" fill="none" stroke="#5d21d1" stroke-width="6.0043"/>
      </g>
      <g id="leaf_II" data-name="leaf II">
       <path class="cls-1" d="m335.56 409.91c-14-15.13-29.82-27.07-47.5-33-63.91-21.44-64.22-7.57-91.41-39.6s-71.5-26.11-77.85 5 38.15 58.56 50.12 63.29 36.08 61.84 80.08 85.91 65.77-23.29 82.51 9.78" fill="none" stroke="#5d21d1" stroke-width="6.0043"/>
      </g>
      <path class="cls-1" d="m437.2 104.74c-5.89-4.44-13.92-7.41-24.55-8.42-52.81-5-63.71 48.44-65.42 93.72s6.72 61.55-19.06 85.65 16.17 56.71 12.6 80.6c-2.77 18.64-18.47 61.71 20.42 146.92"/>
      <path class="cls-1" d="m437.2 503.21v-153.27c-34.48 35.99-45.2 101.06-48.95 153.27z"/>
     </g>
     <path id="pot" class="cls-2" d="m436.29 503.21h-120.92a14.07 14.07 0 0 0-14 17l25.77 115.35"/>
    </g>
    <g id="whiteboard" transform="matrix(.80857 0 0 .80857 1148.6 57.738)">
     <rect id="shape" class="cls-2" x="437.2" y="3" width="763.33" height="631.36"/>
     <g id="graph">
      <rect class="cls-2" x="871.24" y="474.86" width="42.82" height="66.77"/>
      <rect class="cls-2" x="938.38" y="446.76" width="42.82" height="94.88"/>
      <rect class="cls-2" x="1005.5" y="402.33" width="42.82" height="139.31"/>
      <rect class="cls-3" x="1072.7" y="363.96" width="42.82" height="177.68" fill="#ff5361"/>
      <path id="arrow" class="cls-3" d="m1129.9 272.77a3.05 3.05 0 0 0-2.44-0.7l-28 4.47a3.0019 3.0019 0 1 0 1 5.92l18.27-2.91-54.67 63.45-22.34-21.45a3 3 0 0 0-2.22-0.83 3 3 0 0 0-2.13 1l-73.17 85-21.24-15.89a3 3 0 0 0-3.88 0.24l-65.73 63a3 3 0 0 0 4.15 4.33l63.9-61.26 21.45 16.07a3 3 0 0 0 4.07-0.44l72.93-84.74 22.34 21.45a3 3 0 0 0 2.22 0.83 3 3 0 0 0 2.13-1l58.29-67.72-0.38 23.7a3 3 0 0 0 3 3.05 3 3 0 0 0 3-2.95l0.48-30.29a3 3 0 0 0-1.03-2.33z" fill="#ff5361"/>
     </g>
     <g id="layout_II" data-name="layout II">
      <g id="lines">
       <line class="cls-2" x1="514.26" x2="698.27" y1="472.49" y2="472.49"/>
       <line class="cls-2" x1="514.26" x2="649.7" y1="500.49" y2="500.49"/>
       <line class="cls-2" x1="510.26" x2="606.27" y1="531.92" y2="531.92"/>
       <line class="cls-2" x1="719.42" x2="798.85" y1="472.49" y2="472.49"/>
      </g>
      <g id="oragne_bar" fill="#ff5361" data-name="oragne bar">
       <polygon class="cls-3" points="622.7 391.02 601.49 411.38 622.7 431.33"/>
       <polygon class="cls-3" points="570.98 390.92 570.98 432.37 592.78 411.43"/>
       <polygon class="cls-3" points="654.83 407.27 679.08 383.98 630.08 383.98"/>
       <path class="cls-3" d="m597.16 415.55-24.85 23.86h50.23z"/>
       <polygon class="cls-3" points="628.7 390.92 628.7 432.37 650.5 411.43"/>
       <polygon class="cls-3" points="535.07 411.43 510.26 388.1 510.26 435.25"/>
       <path class="cls-3" d="m539.44 415.55-24.85 23.86h50.23z"/>
       <polygon class="cls-3" points="539.4 407.27 563.65 383.98 514.64 383.98"/>
       <polygon class="cls-3" points="659.21 411.38 680.41 431.33 680.41 391.02"/>
       <polygon class="cls-3" points="564.98 391.02 543.78 411.38 564.98 431.33"/>
       <path class="cls-3" d="m654.88 415.55-24.88 23.86h50.22z"/>
       <polygon class="cls-3" points="597.12 407.27 621.37 383.98 572.36 383.98"/>
       <polygon class="cls-3" points="738.13 383.98 686.41 383.98 686.41 439.41 738.13 439.41"/>
       <polygon class="cls-3" points="744.13 383.98 744.13 439.41 798.85 439.41 798.85 383.98"/>
       <path class="cls-3" d="m680.25 439.41 0.18 0.13v-0.13z"/>
      </g>
     </g>
     <g id="layout">
      <rect class="cls-2" x="1056.7" y="180.5" width="31" height="31"/>
      <line class="cls-2" x1="975.32" x2="1035.6" y1="211.53" y2="211.53"/>
      <line class="cls-2" x1="975.32" x2="1035.6" y1="196.88" y2="196.88"/>
      <line class="cls-2" x1="975.32" x2="1035.6" y1="182.22" y2="182.22"/>
      <path d="m955.49 45.922c-8.5193 0-15.375 6.8591-15.375 15.378v45.689c0 8.5193 6.8559 15.375 15.375 15.375h186.48c8.5192 0 15.378-6.8559 15.378-15.375v-45.689c0-8.5193-6.8592-15.378-15.378-15.378zm124.63 17.471c2.3408 0 4.7464 0.17973 7.2207 0.54131 2.4741 0.34257 5.0341 0.86595 7.6797 1.5701v9.0219c-2.3411-1.0467-4.6238-1.8381-6.8504-2.371-2.2268-0.5329-4.3296-0.79773-6.309-0.79773-2.6265 0-4.5687 0.3626-5.8246 1.0858-1.2563 0.72324-1.8835 1.8456-1.8835 3.3682 0 1.1419 0.4191 2.0373 1.2566 2.6844 0.8562 0.62803 2.395 1.1703 4.6218 1.6271l4.6819 0.94018c4.739 0.95161 8.1094 2.3988 10.108 4.34 1.9982 1.9413 2.9978 4.7 2.9978 8.278 0 4.7009-1.3997 8.2037-4.1975 10.507-2.7785 2.2838-7.0319 3.4252-12.761 3.4252-2.7024 0-5.414-0.25539-8.1354-0.76924-2.7218-0.51388-5.4424-1.2769-8.164-2.2855v-9.2783c2.7216 1.4464 5.3479 2.5405 7.879 3.2827 2.5503 0.72317 5.0034 1.0858 7.3632 1.0858 2.3981 0 4.2362-0.4004 5.5113-1.1997 1.2751-0.79932 1.912-1.9407 1.912-3.4252 0-1.3322-0.4384-2.3601-1.3138-3.0833-0.8564-0.72324-2.5778-1.3695-5.1662-1.9405l-4.2545-0.94334c-4.2632-0.91352-7.3844-2.3701-9.3637-4.3685-1.9605-1.9984-2.9409-4.6908-2.9409-8.0785 0-4.2441 1.3715-7.5073 4.112-9.7911 2.7408-2.2838 6.6817-3.4252 11.82-3.4252zm-120.42 0.76924h13.989l9.7057 22.811 9.7626-22.811h13.96v42.624h-10.393v-31.175l-9.8196 22.979h-6.9642l-9.8229-22.979v31.175h-10.418zm58.18 0h10.991v25.553c0 3.5209 0.5706 6.04 1.7125 7.5626 1.1608 1.5035 3.0464 2.2571 5.6537 2.2571 2.6263 0 4.5089-0.75352 5.6507-2.2571 1.161-1.5226 1.741-4.0417 1.741-7.5626v-25.553h10.991v25.553c0 6.0331-1.5136 10.523-4.5394 13.473-3.0262 2.95-7.6387 4.4255-13.843 4.4255-6.1853 0-10.792-1.4755-13.818-4.4255-3.0262-2.9499-4.5393-7.4396-4.5393-13.473zm89.582 0h10.991v34.315h19.297v8.3096h-30.288z" fill="#ff5361" stop-color="#000000" stroke-width="9.7246" style="paint-order:fill markers stroke"/>
     </g>
     <g data-name="lines">
      <line class="cls-2" x1="878.12" x2="1042.8" y1="295.31" y2="295.31"/>
      <line class="cls-2" x1="878.12" x2="975.32" y1="309.47" y2="309.47"/>
     </g>
     <g id="circle_graph" data-name="circle graph">
      <path class="cls-3" d="m709.16 210 113-57.33a126.62 126.62 0 0 1 13.68 57.33c0 69.49-57.18 126.68-126.68 126.68a126.75 126.75 0 0 1-99.11-47.79z" fill="#ff5361"/>
      <line class="cls-2" x1="806.26" x2="910.9" y1="113.23" y2="113.23"/>
      <line class="cls-2" x1="910.9" x2="855.11" y1="127.34" y2="127.34"/>
      <line class="cls-2" x1="910.9" x2="873.82" y1="141.55" y2="141.55"/>
      <line class="cls-2" x1="778.91" x2="914.05" y1="225.51" y2="225.51"/>
      <line class="cls-2" x1="914.05" x2="888.76" y1="236.6" y2="236.6"/>
      <line class="cls-2" x1="632.35" x2="551.79" y1="101.55" y2="101.55"/>
      <line class="cls-2" x1="551.79" x2="567.96" y1="112.98" y2="112.98"/>
      <path class="cls-1" d="m590 291.23 95.48-75.73-121.88 1.36a121.24 121.24 0 0 0 26.4 74.37z"/>
      <path class="cls-1" d="m577 160.62a121.31 121.31 0 0 0-8.24 44.09v1.63l121.78-1.63z"/>
      <path class="cls-1" d="m773.87 87.42-60.07 105.69 109-54.14a122.34 122.34 0 0 0-48.93-51.55z"/>
      <path class="cls-4" d="m759.79 90.28a121.17 121.17 0 0 0-59.79-16.06h-2a121.86 121.86 0 0 0-112.21 77.33l113.48 44.45z" fill="#5b37f0"/>
      <line class="cls-2" x1="586.35" x2="505.79" y1="237.05" y2="237.05"/>
      <line class="cls-2" x1="505.79" x2="534.9" y1="248.48" y2="248.48"/>
     </g>
    </g>
    <g id="man" transform="matrix(.80857 0 0 .80857 1148.6 57.738)">
     <g id="hand_II" data-name="hand II">
      <path class="cls-2" d="m1116.2 583.08a200.45 200.45 0 0 0-21 2.45c-13.6 2.38-36.71 6.34-39 9.85-3.68 5.57 4.55 9.28 13.33 9"/>
      <path class="cls-2" d="m1080.9 613.4c-13.36 3.34-19.76 2.72-16.32-4.29 2.38-4.85 34.53-21.48 40.83-23.35s61.26-9.8 61.26-9.8l14.09 58.4h-79.59c-19.26 1.23-13.71-9.71-5.84-12.54s22.39-9.61 24.56-9.06c0 0-20.74 5.92-30 11.69-6.58 2.64-14-1.93-14.74-4s5.35-7.81 15.43-12.95a211.33 211.33 0 0 1 23.15-9.61"/>
     </g>
     <path id="body" class="cls-4" d="m1407.6 418.26a67.53 67.53 0 0 0-36.71-62.43l-37.75-20.26-4.14 18.57a37.53 37.53 0 0 1-44.75 28.51l-4.87-1.08a37.52 37.52 0 0 1-28.52-44.74l6.27-28.29c-7.19-5-12.92-11.83-15.64-20.65-0.18-0.57-0.33-1.16-0.49-1.75l-37.59-20.14-0.14 291.73 102-20.92-4.92-68.49a3.0077 3.0077 0 1 1 6-0.43l5.11 71.12a3 3 0 0 1-2.39 3.15l-105.76 21.7v0.77l-57.92 10.55c11.36 2.16 24 58.66 24 58.66h205.38a35.86 35.86 0 0 0 35.86-36.45z" fill="#5b37f0"/>
     <g id="head">
      <path id="neck" class="cls-2" d="m1341.9 293.14-12.84 61a37.53 37.53 0 0 1-44.75 28.51l-4.87-1.08a37.52 37.52 0 0 1-28.52-44.74l6.27-28.29"/>
      <path id="face" class="cls-2" d="m1370 244s32-62.3-30.74-95.6c-5.84-3.11-46.21-23.51-65.59 9.15-13 21.82-22.37 47-28.29 67.08 0 0.11-11.76 37.67-3.86 63.31s41.24 34.51 61.92 30 25.61-8.78 34.46-19.3 32-54.52 32-54.52z"/>
      <path id="hair_II" class="cls-4" d="m1245.4 224.58c5.92-20 15.34-45.26 28.29-67.08 0.6-1 1.21-2 1.85-2.87-10.55-8.21-27.59 8.75-39.36 43.6-6.08 18-10.764 26.264-10.764 26.264 7.5189 3.2965 14.914 3.4103 19.764 0.82562 0.13-0.47 0.21-0.73 0.22-0.74z" fill="#5b37f0" data-name="hair II"/>
      <polyline id="nose" class="cls-2" points="1275 213.02 1261.5 246.97 1272.7 251.05"/>
      <path id="brow_II" class="cls-2" d="m1320.5 213a16.16 16.16 0 0 0-12.32-10.89" data-name="brow II"/>
      <path id="brow" class="cls-2" d="m1278.7 188.09s-9.81-9-17.17-3.7"/>
      <path id="mouth" class="cls-2" d="m1289.9 268.44s-8.64 9.79-23.86 1.94"/>
      <path id="hair" class="cls-4" d="m1399.1 233.85-71.5-36.09c-8.3 25.86-18.72 77.84 25.58 91.46 32.066-6.8276 30.217-20.317 26.2-31.57 9.8752 2.8654 10.213 7.8585 19.72-23.8z" fill="#5b37f0"/>
      <path class="cls-3" d="m1371.2 128.98c72.111 38.175 27.946 104.87 27.946 104.87l-143.64-72.664c29.195-46.976 72.7-54.964 115.69-32.206z" fill="#ff5361"/>
     </g>
    </g>
    <line id="line" class="cls-2" x1="1221.8" x2="2357.4" y1="570.66" y2="570.66" fill="none" stroke="#2e186a" stroke-linecap="round" stroke-linejoin="round" stroke-width="4.5745px"/>
   </g>
  </g>
 </g>
</svg>
