<?xml version="1.0" encoding="UTF-8" standalone="no"?>
<svg
   xmlns:dc="http://purl.org/dc/elements/1.1/"
   xmlns:cc="http://creativecommons.org/ns#"
   xmlns:rdf="http://www.w3.org/1999/02/22-rdf-syntax-ns#"
   xmlns:svg="http://www.w3.org/2000/svg"
   xmlns="http://www.w3.org/2000/svg"
   xmlns:sodipodi="http://sodipodi.sourceforge.net/DTD/sodipodi-0.dtd"
   xmlns:inkscape="http://www.inkscape.org/namespaces/inkscape"
   viewBox="0 0 870 530"
   version="1.1"
   id="svg59"
   sodipodi:docname="service-c1.svg"
   inkscape:version="1.0.1 (unknown)"
   width="870"
   height="530">
  <metadata
     id="metadata63">
    <rdf:RDF>
      <cc:Work
         rdf:about="">
        <dc:format>image/svg+xml</dc:format>
        <dc:type
           rdf:resource="http://purl.org/dc/dcmitype/StillImage" />
        <dc:title></dc:title>
      </cc:Work>
    </rdf:RDF>
  </metadata>
  <sodipodi:namedview
     pagecolor="#ffffff"
     bordercolor="#666666"
     borderopacity="1"
     objecttolerance="10"
     gridtolerance="10"
     guidetolerance="10"
     inkscape:pageopacity="0"
     inkscape:pageshadow="2"
     inkscape:window-width="1366"
     inkscape:window-height="703"
     id="namedview61"
     showgrid="false"
     inkscape:zoom="0.66240463"
     inkscape:cx="390.31288"
     inkscape:cy="190.05173"
     inkscape:window-x="0"
     inkscape:window-y="0"
     inkscape:window-maximized="1"
     inkscape:current-layer="layout"
     inkscape:document-rotation="0"
     inkscape:snap-global="false" />
  <defs
     id="defs4">
    <style
       id="style2">.cls-1{fill:#5d21d1;}.cls-2,.cls-5,.cls-7{fill:none;}.cls-2{stroke:#fe7624;}.cls-2,.cls-5,.cls-6,.cls-7{stroke-linecap:round;stroke-linejoin:round;stroke-width:6px;}.cls-3{fill:#fe7624;}.cls-4,.cls-6{fill:#fff;}.cls-5{stroke:#fff;}.cls-6,.cls-7{stroke:#2e186a;}</style>
  </defs>
  <g
     id="Layer_2"
     data-name="Layer 2"
     transform="translate(-996.78998,3.3823299)">
    <g
       id="product_launch"
       data-name="product launch"
       transform="matrix(1.1398699,0,0,1.1398699,-200.26432,-36.592437)">
      <g
         id="g1197"
         transform="matrix(0.66943099,0,0,0.66943099,233.78635,50.145979)">
        <g
           id="flower"
           transform="matrix(0.80856696,0,0,0.80856696,1148.5571,57.738412)">
          <g
             id="leaves"
             style="stroke-width:6.00429;stroke-miterlimit:4;stroke-dasharray:none">
            <g
               id="leaf_IV"
               data-name="leaf IV"
               style="fill:none;stroke:#5d21d1;stroke-width:6.00429;stroke-miterlimit:4;stroke-dasharray:none;stroke-opacity:1">
              <path
                 class="cls-1"
                 d="M 326.67,274.79 C 298,248 291.18,248.43 283.82,210 c -9.39,-49.08 -59.2,-68.9 -84.31,-40.44 -25.11,28.46 5.08,83 14.78,94.87 7.41,9.09 4.07,53.93 16.18,97.2"
                 id="path6"
                 style="fill:none;stroke:#5d21d1;stroke-width:6.00429;stroke-miterlimit:4;stroke-dasharray:none;stroke-opacity:1" />
            </g>
            <g
               id="leaf_II"
               data-name="leaf II"
               style="fill:none;stroke:#5d21d1;stroke-width:6.00429;stroke-miterlimit:4;stroke-dasharray:none;stroke-opacity:1">
              <path
                 class="cls-1"
                 d="m 335.56,409.91 c -14,-15.13 -29.82,-27.07 -47.5,-33 -63.91,-21.44 -64.22,-7.57 -91.41,-39.6 -27.19,-32.03 -71.5,-26.11 -77.85,5 -6.35,31.11 38.15,58.56 50.12,63.29 11.97,4.73 36.08,61.84 80.08,85.91 44,24.07 65.77,-23.29 82.51,9.78"
                 id="path9"
                 style="fill:none;stroke:#5d21d1;stroke-width:6.00429;stroke-miterlimit:4;stroke-dasharray:none;stroke-opacity:1" />
            </g>
            <path
               class="cls-1"
               d="m 437.2,104.74 c -5.89,-4.44 -13.92,-7.41 -24.55,-8.42 -52.81,-5 -63.71,48.44 -65.42,93.72 -1.71,45.28 6.72,61.55 -19.06,85.65 -25.78,24.1 16.17,56.71 12.6,80.6 C 338,374.93 322.3,418 361.19,503.21"
               id="path12"
               style="fill:none;stroke:#5d21d1;stroke-width:6.00429;stroke-miterlimit:4;stroke-dasharray:none;stroke-opacity:1" />
            <path
               class="cls-1"
               d="M 437.2,503.21 V 349.94 C 402.72,385.93 392,451 388.25,503.21 Z"
               id="path14"
               style="fill:none;stroke:#5d21d1;stroke-width:6.00429;stroke-miterlimit:4;stroke-dasharray:none;stroke-opacity:1" />
          </g>
          <path
             id="pot"
             class="cls-2"
             d="M 436.29,503.21 H 315.37 a 14.07,14.07 0 0 0 -14,17 l 25.77,115.35" />
        </g>
        <g
           id="whiteboard"
           transform="matrix(0.80856696,0,0,0.80856696,1148.5571,57.738412)">
          <rect
             id="shape"
             class="cls-2"
             x="437.20001"
             y="3"
             width="763.33002"
             height="631.35999" />
          <g
             id="graph">
            <rect
               class="cls-2"
               x="871.23999"
               y="474.85999"
               width="42.82"
               height="66.769997"
               id="rect20" />
            <rect
               class="cls-2"
               x="938.38"
               y="446.76001"
               width="42.82"
               height="94.879997"
               id="rect22" />
            <rect
               class="cls-2"
               x="1005.52"
               y="402.32999"
               width="42.82"
               height="139.31"
               id="rect24" />
            <rect
               class="cls-3"
               x="1072.66"
               y="363.95999"
               width="42.82"
               height="177.67999"
               id="rect26"
               style="fill:#ff5361;fill-opacity:1" />
            <path
               id="arrow"
               class="cls-3"
               d="m 1129.94,272.77 a 3.05,3.05 0 0 0 -2.44,-0.7 l -28,4.47 a 3.0019327,3.0019327 0 1 0 1,5.92 l 18.27,-2.91 -54.67,63.45 -22.34,-21.45 a 3,3 0 0 0 -2.22,-0.83 3,3 0 0 0 -2.13,1 l -73.17,85 L 943,390.83 a 3,3 0 0 0 -3.88,0.24 l -65.73,63 a 3,3 0 0 0 4.15,4.33 l 63.9,-61.26 21.45,16.07 a 3,3 0 0 0 4.07,-0.44 l 72.93,-84.74 22.34,21.45 a 3,3 0 0 0 2.22,0.83 3,3 0 0 0 2.13,-1 l 58.29,-67.72 -0.38,23.7 a 3,3 0 0 0 3,3.05 v 0 a 3,3 0 0 0 3,-2.95 l 0.48,-30.29 a 3,3 0 0 0 -1.03,-2.33 z"
               style="fill:#ff5361;fill-opacity:1" />
          </g>
          <g
             id="layout_II"
             data-name="layout II">
            <g
               id="lines">
              <line
                 class="cls-2"
                 x1="514.26001"
                 y1="472.48999"
                 x2="698.27002"
                 y2="472.48999"
                 id="line30" />
              <line
                 class="cls-2"
                 x1="514.26001"
                 y1="500.48999"
                 x2="649.70001"
                 y2="500.48999"
                 id="line32" />
              <line
                 class="cls-2"
                 x1="510.26001"
                 y1="531.91998"
                 x2="606.27002"
                 y2="531.91998"
                 id="line34" />
              <line
                 class="cls-2"
                 x1="719.41998"
                 y1="472.48999"
                 x2="798.84998"
                 y2="472.48999"
                 id="line36" />
            </g>
            <g
               id="oragne_bar"
               data-name="oragne bar">
              <polygon
                 class="cls-3"
                 points="622.7,391.02 601.49,411.38 622.7,431.33 "
                 id="polygon39"
                 style="fill:#ff5361;fill-opacity:1" />
              <polygon
                 class="cls-3"
                 points="570.98,390.92 570.98,432.37 592.78,411.43 "
                 id="polygon41"
                 style="fill:#ff5361;fill-opacity:1" />
              <polygon
                 class="cls-3"
                 points="654.83,407.27 679.08,383.98 630.08,383.98 "
                 id="polygon43"
                 style="fill:#ff5361;fill-opacity:1" />
              <path
                 class="cls-3"
                 d="m 597.16,415.55 -24.85,23.86 h 50.23 v 0 z"
                 id="path45"
                 style="fill:#ff5361;fill-opacity:1" />
              <polygon
                 class="cls-3"
                 points="628.7,390.92 628.7,432.37 650.5,411.43 "
                 id="polygon47"
                 style="fill:#ff5361;fill-opacity:1" />
              <polygon
                 class="cls-3"
                 points="535.07,411.43 510.26,388.1 510.26,435.25 "
                 id="polygon49"
                 style="fill:#ff5361;fill-opacity:1" />
              <path
                 class="cls-3"
                 d="m 539.44,415.55 -24.85,23.86 h 50.23 v 0 z"
                 id="path51"
                 style="fill:#ff5361;fill-opacity:1" />
              <polygon
                 class="cls-3"
                 points="539.4,407.27 563.65,383.98 514.64,383.98 "
                 id="polygon53"
                 style="fill:#ff5361;fill-opacity:1" />
              <polygon
                 class="cls-3"
                 points="659.21,411.38 680.41,431.33 680.41,391.02 "
                 id="polygon55"
                 style="fill:#ff5361;fill-opacity:1" />
              <polygon
                 class="cls-3"
                 points="564.98,391.02 543.78,411.38 564.98,431.33 "
                 id="polygon57"
                 style="fill:#ff5361;fill-opacity:1" />
              <path
                 class="cls-3"
                 d="M 654.88,415.55 630,439.41 h 50.22 v 0 z"
                 id="path59"
                 style="fill:#ff5361;fill-opacity:1" />
              <polygon
                 class="cls-3"
                 points="597.12,407.27 621.37,383.98 572.36,383.98 "
                 id="polygon61"
                 style="fill:#ff5361;fill-opacity:1" />
              <polygon
                 class="cls-3"
                 points="738.13,383.98 686.41,383.98 686.41,439.41 738.13,439.41 "
                 id="polygon63"
                 style="fill:#ff5361;fill-opacity:1" />
              <polygon
                 class="cls-3"
                 points="744.13,383.98 744.13,439.41 798.85,439.41 798.85,383.98 "
                 id="polygon65"
                 style="fill:#ff5361;fill-opacity:1" />
              <path
                 class="cls-3"
                 d="m 680.25,439.41 0.18,0.13 c 0,0 0,-0.08 0,-0.13 z"
                 id="path67"
                 style="fill:#ff5361;fill-opacity:1" />
            </g>
          </g>
          <g
             id="layout">
            <rect
               class="cls-2"
               x="1056.6801"
               y="180.5"
               width="31"
               height="31"
               id="rect71" />
            <line
               class="cls-2"
               x1="975.32001"
               y1="211.53"
               x2="1035.62"
               y2="211.53"
               id="line75" />
            <line
               class="cls-2"
               x1="975.32001"
               y1="196.88"
               x2="1035.62"
               y2="196.88"
               id="line77" />
            <line
               class="cls-2"
               x1="975.32001"
               y1="182.22"
               x2="1035.62"
               y2="182.22"
               id="line79" />
            <path
               id="rect931"
               style="fill:#ff5361;stroke-width:9.72465;paint-order:fill markers stroke;stop-color:#000000;fill-opacity:1"
               d="m 955.48878,45.92165 c -8.51928,0 -15.37516,6.8591 -15.37516,15.37837 v 45.68879 c 0,8.51927 6.85588,15.3752 15.37516,15.3752 H 1141.973 c 8.5192,0 15.3784,-6.85593 15.3784,-15.3752 V 61.30002 c 0,-8.51927 -6.8592,-15.37837 -15.3784,-15.37837 z m 124.63202,17.470824 c 2.3408,0 4.7464,0.179727 7.2207,0.541306 2.4741,0.342567 5.0341,0.865948 7.6797,1.570127 v 9.021902 c -2.3411,-1.046746 -4.6238,-1.838122 -6.8504,-2.371017 -2.2268,-0.532895 -4.3296,-0.797729 -6.309,-0.797729 -2.6265,0 -4.5687,0.3626 -5.8246,1.08579 -1.2563,0.723238 -1.8835,1.845626 -1.8835,3.368182 0,1.141901 0.4191,2.037299 1.2566,2.68441 0.8562,0.628034 2.395,1.17033 4.6218,1.627097 l 4.6819,0.940179 c 4.739,0.951606 8.1094,2.398764 10.1077,4.340016 1.9982,1.941268 2.9978,4.69999 2.9978,8.277982 0,4.700898 -1.3997,8.203691 -4.1975,10.506551 -2.7785,2.28383 -7.0319,3.42515 -12.7606,3.42515 -2.7024,0 -5.414,-0.25539 -8.1354,-0.76924 -2.7218,-0.51388 -5.4424,-1.27686 -8.164,-2.28553 v -9.278311 c 2.7216,1.446429 5.3479,2.540452 7.879,3.282703 2.5503,0.723174 5.0034,1.08579 7.3632,1.08579 2.3981,0 4.2362,-0.400397 5.5113,-1.199747 1.2751,-0.799318 1.912,-1.940685 1.912,-3.425169 0,-1.332245 -0.4384,-2.36006 -1.3138,-3.083267 -0.8564,-0.723238 -2.5778,-1.369539 -5.1662,-1.940506 l -4.2545,-0.94334 c -4.2632,-0.913518 -7.3844,-2.370141 -9.3637,-4.368493 -1.9605,-1.998351 -2.9409,-4.690849 -2.9409,-8.078545 0,-4.244115 1.3715,-7.50732 4.112,-9.791139 2.7408,-2.283835 6.6817,-3.425152 11.8204,-3.425152 z M 959.70539,64.16171 h 13.98859 l 9.70569,22.811153 9.76258,-22.811153 h 13.96025 v 42.6245 H 996.72991 V 75.611599 l -9.81964,22.978936 h -6.96415 l -9.82287,-22.978936 v 31.174611 h -10.41786 z m 58.18021,0 h 10.9908 v 25.552533 c 0,3.520892 0.5706,6.040015 1.7125,7.562572 1.1608,1.503545 3.0464,2.25706 5.6537,2.25706 2.6263,0 4.5089,-0.753515 5.6507,-2.25706 1.161,-1.522557 1.741,-4.04168 1.741,-7.562572 V 64.16171 h 10.9908 v 25.552533 c 0,6.033111 -1.5136,10.522757 -4.5394,13.472697 -3.0262,2.94996 -7.6387,4.42548 -13.8431,4.42548 -6.1853,0 -10.7916,-1.47552 -13.8177,-4.42548 -3.0262,-2.94994 -4.5393,-7.439586 -4.5393,-13.472697 z m 89.5825,0 h 10.991 v 34.314852 h 19.2972 v 8.309648 h -30.2882 z" />
          </g>
          <g
             id="lines-2"
             data-name="lines">
            <line
               class="cls-2"
               x1="878.12"
               y1="295.31"
               x2="1042.8199"
               y2="295.31"
               id="line82" />
            <line
               class="cls-2"
               x1="878.12"
               y1="309.47"
               x2="975.32001"
               y2="309.47"
               id="line84" />
          </g>
          <g
             id="circle_graph"
             data-name="circle graph">
            <path
               class="cls-3"
               d="m 709.16,210 113,-57.33 A 126.62,126.62 0 0 1 835.84,210 c 0,69.49 -57.18,126.68 -126.68,126.68 a 126.75,126.75 0 0 1 -99.11,-47.79 z"
               id="path87"
               style="fill:#ff5361;fill-opacity:1" />
            <line
               class="cls-2"
               x1="806.26001"
               y1="113.23"
               x2="910.90002"
               y2="113.23"
               id="line89" />
            <line
               class="cls-2"
               x1="910.90002"
               y1="127.34"
               x2="855.10999"
               y2="127.34"
               id="line91" />
            <line
               class="cls-2"
               x1="910.90002"
               y1="141.55"
               x2="873.82001"
               y2="141.55"
               id="line93" />
            <line
               class="cls-2"
               x1="778.90997"
               y1="225.50999"
               x2="914.04999"
               y2="225.50999"
               id="line95" />
            <line
               class="cls-2"
               x1="914.04999"
               y1="236.60001"
               x2="888.76001"
               y2="236.60001"
               id="line97" />
            <line
               class="cls-2"
               x1="632.34998"
               y1="101.55"
               x2="551.78998"
               y2="101.55"
               id="line99" />
            <line
               class="cls-2"
               x1="551.78998"
               y1="112.98"
               x2="567.96002"
               y2="112.98"
               id="line101" />
            <path
               class="cls-1"
               d="M 590,291.23 685.48,215.5 563.6,216.86 A 121.24,121.24 0 0 0 590,291.23 Z"
               id="path103" />
            <path
               class="cls-1"
               d="m 577,160.62 a 121.31,121.31 0 0 0 -8.24,44.09 c 0,0.54 0,1.08 0,1.63 l 121.78,-1.63 z"
               id="path105" />
            <path
               class="cls-1"
               d="m 773.87,87.42 -60.07,105.69 109,-54.14 A 122.34,122.34 0 0 0 773.87,87.42 Z"
               id="path107" />
            <path
               class="cls-4"
               d="M 759.79,90.28 A 121.17,121.17 0 0 0 700,74.22 h -2 A 121.86,121.86 0 0 0 585.79,151.55 L 699.27,196 Z"
               id="path109"
               style="fill:#5b37f0;fill-opacity:1" />
            <line
               class="cls-2"
               x1="586.34998"
               y1="237.05"
               x2="505.79001"
               y2="237.05"
               id="line111" />
            <line
               class="cls-2"
               x1="505.79001"
               y1="248.48"
               x2="534.90002"
               y2="248.48"
               id="line113" />
          </g>
        </g>
        <g
           id="man"
           transform="matrix(0.80856696,0,0,0.80856696,1148.5571,57.738412)">
          <g
             id="hand_II"
             data-name="hand II">
            <path
               class="cls-2"
               d="m 1116.18,583.08 a 200.45,200.45 0 0 0 -21,2.45 c -13.6,2.38 -36.71,6.34 -39,9.85 -3.68,5.57 4.55,9.28 13.33,9"
               id="path117" />
            <path
               class="cls-2"
               d="m 1080.93,613.4 c -13.36,3.34 -19.76,2.72 -16.32,-4.29 2.38,-4.85 34.53,-21.48 40.83,-23.35 6.3,-1.87 61.26,-9.8 61.26,-9.8 l 14.09,58.4 h -79.59 c -19.26,1.23 -13.71,-9.71 -5.84,-12.54 7.87,-2.83 22.39,-9.61 24.56,-9.06 0,0 -20.74,5.92 -30,11.69 -6.58,2.64 -14,-1.93 -14.74,-4 -0.74,-2.07 5.35,-7.81 15.43,-12.95 a 211.33,211.33 0 0 1 23.15,-9.61"
               id="path119" />
          </g>
          <path
             id="body"
             class="cls-4"
             d="m 1407.6,418.26 a 67.53,67.53 0 0 0 -36.71,-62.43 l -37.75,-20.26 -4.14,18.57 a 37.53,37.53 0 0 1 -44.75,28.51 l -4.87,-1.08 a 37.52,37.52 0 0 1 -28.52,-44.74 l 6.27,-28.29 c -7.19,-5 -12.92,-11.83 -15.64,-20.65 -0.18,-0.57 -0.33,-1.16 -0.49,-1.75 l -37.59,-20.14 -0.14,291.73 102,-20.92 -4.92,-68.49 a 3.0076943,3.0076943 0 1 1 6,-0.43 l 5.11,71.12 a 3,3 0 0 1 -2.39,3.15 l -105.76,21.7 v 0.77 l -57.92,10.55 c 11.36,2.16 24,58.66 24,58.66 h 205.38 a 35.86,35.86 0 0 0 35.86,-36.45 z"
             style="fill:#5b37f0;fill-opacity:1" />
          <g
             id="head">
            <path
               id="neck"
               class="cls-2"
               d="m 1341.87,293.14 -12.84,61 a 37.53,37.53 0 0 1 -44.75,28.51 l -4.87,-1.08 a 37.52,37.52 0 0 1 -28.52,-44.74 l 6.27,-28.29" />
            <path
               id="face"
               class="cls-2"
               d="m 1370,244 c 0,0 32,-62.3 -30.74,-95.6 -5.84,-3.11 -46.21,-23.51 -65.59,9.15 -13,21.82 -22.37,47 -28.29,67.08 0,0.11 -11.76,37.67 -3.86,63.31 7.9,25.64 41.24,34.51 61.92,30 20.68,-4.51 25.61,-8.78 34.46,-19.3 8.85,-10.52 32,-54.52 32,-54.52 z" />
            <path
               id="hair_II"
               data-name="hair II"
               class="cls-4"
               d="m 1245.38,224.58 c 5.92,-20 15.34,-45.26 28.29,-67.08 0.6,-1 1.21,-2 1.85,-2.87 -10.55,-8.21 -27.59,8.75 -39.36,43.6 -6.08,18 -10.7643,26.26438 -10.7643,26.26438 7.5189,3.29653 14.9141,3.41029 19.7643,0.82562 0.13,-0.47 0.21,-0.73 0.22,-0.74 z"
               style="fill:#5b37f0;fill-opacity:1"
               sodipodi:nodetypes="ccccccc" />
            <polyline
               id="nose"
               class="cls-2"
               points="1275.03 213.02 1261.53 246.97 1272.67 251.05" />
            <path
               id="brow_II"
               data-name="brow II"
               class="cls-2"
               d="M 1320.52,213 A 16.16,16.16 0 0 0 1308.2,202.11" />
            <path
               id="brow"
               class="cls-2"
               d="m 1278.7,188.09 c 0,0 -9.81,-9 -17.17,-3.7" />
            <path
               id="mouth"
               class="cls-2"
               d="m 1289.88,268.44 c 0,0 -8.64,9.79 -23.86,1.94" />
            <path
               id="hair"
               class="cls-4"
               d="m 1399.11,233.85 -71.5,-36.09 c -8.3,25.86 -18.72,77.84 25.58,91.46 32.0659,-6.82756 30.2167,-20.3167 26.2,-31.57 9.8752,2.86538 10.2133,7.8585 19.72,-23.8 z"
               style="fill:#5b37f0;fill-opacity:1"
               sodipodi:nodetypes="ccccc" />
            <path
               id="path969"
               class="cls-3"
               d="M 1371.1635,128.98021 C 1443.2742,167.15541 1399.11,233.85 1399.11,233.85 l -143.6357,-72.66419 c 29.1946,-46.97576 72.6995,-54.96424 115.6892,-32.2056 z"
               style="fill:#ff5361;fill-opacity:1"
               sodipodi:nodetypes="sccs" />
          </g>
        </g>
        <line
           id="line"
           class="cls-2"
           x1="1221.8022"
           y1="570.66095"
           x2="2357.3677"
           y2="570.66095"
           style="display:inline;fill:none;stroke:#2e186a;stroke-width:4.57449px;stroke-linecap:round;stroke-linejoin:round" />
      </g>
    </g>
  </g>
</svg>
