<?xml version="1.0" encoding="UTF-8" standalone="no"?>
<svg
   xmlns:dc="http://purl.org/dc/elements/1.1/"
   xmlns:cc="http://creativecommons.org/ns#"
   xmlns:rdf="http://www.w3.org/1999/02/22-rdf-syntax-ns#"
   xmlns:svg="http://www.w3.org/2000/svg"
   xmlns="http://www.w3.org/2000/svg"
   xmlns:sodipodi="http://sodipodi.sourceforge.net/DTD/sodipodi-0.dtd"
   xmlns:inkscape="http://www.inkscape.org/namespaces/inkscape"
   viewBox="0 0 870.00002 530.00002"
   version="1.1"
   id="svg225"
   sodipodi:docname="service-d1.svg"
   inkscape:version="1.0.1 (unknown)"
   width="870"
   height="530">
  <metadata
     id="metadata229">
    <rdf:RDF>
      <cc:Work
         rdf:about="">
        <dc:format>image/svg+xml</dc:format>
        <dc:type
           rdf:resource="http://purl.org/dc/dcmitype/StillImage" />
        <dc:title />
      </cc:Work>
    </rdf:RDF>
  </metadata>
  <sodipodi:namedview
     pagecolor="#ffffff"
     bordercolor="#666666"
     borderopacity="1"
     objecttolerance="10"
     gridtolerance="10"
     guidetolerance="10"
     inkscape:pageopacity="0"
     inkscape:pageshadow="2"
     inkscape:window-width="1366"
     inkscape:window-height="703"
     id="namedview227"
     showgrid="false"
     inkscape:zoom="2.4935674"
     inkscape:cx="367.32649"
     inkscape:cy="371.0033"
     inkscape:window-x="0"
     inkscape:window-y="0"
     inkscape:window-maximized="1"
     inkscape:current-layer="laptop"
     inkscape:document-rotation="0"
     inkscape:snap-global="false" />
  <defs
     id="defs4">
    <style
       id="style2">.cls-1,.cls-3,.cls-4{fill:none;}.cls-1,.cls-5{stroke:#fe7624;}.cls-1,.cls-3,.cls-4,.cls-5{stroke-linecap:round;stroke-linejoin:round;}.cls-1,.cls-3,.cls-5{stroke-width:6px;}.cls-2{fill:#fe7624;}.cls-3,.cls-4{stroke:#2e186a;}.cls-4{stroke-width:15px;}.cls-5{fill:#fff;}.cls-6{fill:#2e186a;}</style>
  </defs>
  <g
     id="Layer_2"
     data-name="Layer 2">
    <g
       id="outline_II"
       data-name="outline II"
       transform="matrix(0.52908656,0,0,0.530406,-49.827559,176.47585)"
       style="stroke-width:1.1984">
      <g
         id="g1072">
        <g
           id="g1102">
          <path
             style="font-variation-settings:normal;vector-effect:none;fill:none;fill-opacity:1;stroke:#5b37f0;stroke-width:7.19037px;stroke-linecap:round;stroke-linejoin:round;stroke-miterlimit:4;stroke-dasharray:none;stroke-dashoffset:0;stroke-opacity:1;stop-color:#000000"
             d="m 887.65887,73.433498 c 0,0 32.42184,-21.024272 12.80528,-68.5733381 C 880.8476,-42.688906 783.99071,-7.4854772 774.59112,-39.144131 c -9.39958,-31.658635 85.14138,10.512192 91.9527,-15.768166 6.81132,-26.280359 -99.82982,-78.336703 -67.43195,-123.334223 35.55507,-49.38257 77.51272,8.67857 98.21909,73.9516 20.70636,65.273035 45.22709,47.304655 35.69126,-22.00209 -9.53583,-69.30675 79.52998,-40.80402 47.40678,17.47948 -18.52673,33.614379 14.84865,86.541704 41.549,57.205535 26.7003,-29.336169 36.0999,-28.480542 36.0999,-28.480542"
             id="path1041"
             sodipodi:nodetypes="cssssssssc" />
          <path
             style="font-variation-settings:normal;vector-effect:none;fill:none;fill-opacity:1;stroke:#5b37f0;stroke-width:7.19037px;stroke-linecap:round;stroke-linejoin:round;stroke-miterlimit:4;stroke-dasharray:none;stroke-dashoffset:0;stroke-opacity:1;stop-color:#000000"
             d="m 1078.1031,-56.3791 -27.5177,32.02528"
             id="path1048"
             sodipodi:nodetypes="cc" />
          <path
             style="font-variation-settings:normal;vector-effect:none;fill:none;fill-opacity:1;stroke:#5b37f0;stroke-width:7.19037px;stroke-linecap:round;stroke-linejoin:round;stroke-miterlimit:4;stroke-dasharray:none;stroke-dashoffset:0;stroke-opacity:1;stop-color:#000000"
             d="m 1013.9406,19.406017 c 0,0 -36.50855,14.179176 -41.54898,31.047462 -5.04044,16.868304 9.12709,26.035829 9.12709,26.035829"
             id="path1055" />
          <path
             style="font-variation-settings:normal;opacity:1;vector-effect:none;fill:none;fill-opacity:1;stroke:#5b37f0;stroke-width:7.19037px;stroke-linecap:round;stroke-linejoin:round;stroke-miterlimit:4;stroke-dasharray:none;stroke-dashoffset:0;stroke-opacity:1;stop-color:#000000;stop-opacity:1"
             d="m 891.74,-80.722092 c 0,0 7.35623,35.020079 25.81487,34.225555 18.45864,-0.794523 24.86128,-14.545876 24.86128,-14.545876"
             id="path1088" />
        </g>
        <path
           style="font-variation-settings:normal;opacity:1;vector-effect:none;fill:none;fill-opacity:1;stroke:#ff5361;stroke-width:7.19037px;stroke-linecap:round;stroke-linejoin:round;stroke-miterlimit:4;stroke-dasharray:none;stroke-dashoffset:0;stroke-opacity:1;stop-color:#000000;stop-opacity:1"
           d="m 1231.9253,92.189734 c -138.5615,-98.7350669 112.71,-154.274832 99.4451,-190.562965 -25.2085,-68.961759 -104.6137,46.093222 -124.6469,17.846156 -25.5866,-36.077425 54.218,-90.453255 58.8497,-149.858995 4.6316,-59.40575 -103.2596,-129.56812 -131.4584,-59.03906 -28.1987,70.52906 18.8683,147.797 -14.0312,166.48288 -41.8683,23.779804 -74.9245,-196.79689 -126.82666,-115.63348 -51.90219,81.16342 120.83266,197.163639 118.10816,221.488194 -2.7246,24.3245738 -176.95787,-61.728243 -145.62585,-0.36672 31.33202,61.361504 137.99725,28.236092 155.43415,55.372079 17.437,27.135986 -24.9294,58.916786 -24.9294,58.916786"
           id="path1034"
           sodipodi:nodetypes="csssssssssc" />
        <path
           style="font-variation-settings:normal;opacity:1;vector-effect:none;fill:none;fill-opacity:1;stroke:#ff5361;stroke-width:7.19037px;stroke-linecap:round;stroke-linejoin:round;stroke-miterlimit:4;stroke-dasharray:none;stroke-dashoffset:0;stroke-opacity:1;stop-color:#000000;stop-opacity:1"
           d="m 1184.5846,72.487091 c 0,0 -27.1771,-27.013665 -13.3501,-60.50582 13.8269,-33.492174 36.5767,-43.943187 36.5767,-43.943187"
           id="path1074" />
        <path
           style="font-variation-settings:normal;opacity:1;vector-effect:none;fill:none;fill-opacity:1;stroke:#ff5361;stroke-width:7.19037px;stroke-linecap:round;stroke-linejoin:round;stroke-miterlimit:4;stroke-dasharray:none;stroke-dashoffset:0;stroke-opacity:1;stop-color:#000000;stop-opacity:1"
           d="m 1074.7182,-149.30665 c 0,0 9.4677,43.08751 38.1434,42.41523 28.6756,-0.67228 32.0812,-22.6133 32.0812,-22.6133"
           id="path1081"
           sodipodi:nodetypes="csc" />
      </g>
      <path
         style="font-variation-settings:normal;opacity:1;vector-effect:none;fill:none;fill-opacity:1;stroke:#5b37f0;stroke-width:7.19037px;stroke-linecap:round;stroke-linejoin:round;stroke-miterlimit:4;stroke-dasharray:none;stroke-dashoffset:0;stroke-opacity:1;stop-color:#000000;stop-opacity:1"
         d="m 1050.1331,95.402178 c 0,0 196.302,0 232.6743,0 36.3725,0 19.4804,27.502672 19.4804,27.502672"
         id="path1027" />
      <g
         id="Learning_II"
         data-name="Learning II"
         style="stroke-width:1.1984">
        <g
           id="desk_stuff"
           data-name="desk stuff"
           style="stroke-width:1.1984">
          <g
             id="organizer"
             style="stroke-width:1.1984">
            <g
               id="scissors"
               style="stroke-width:1.1984">
              <line
                 class="cls-1"
                 x1="1261.25"
                 y1="297.84"
                 x2="1271.24"
                 y2="275.10001"
                 id="line6"
                 style="stroke:#ff5361;stroke-opacity:1" />
              <path
                 class="cls-1"
                 d="m 1244.27,435.12 c 5.67,-39.13 11.82,-81.62 15.36,-106"
                 id="path8"
                 style="stroke:#ff5361;stroke-opacity:1" />
              <path
                 class="cls-1"
                 d="m 1317.77,345.57 c -12.37,37.25 -37.68,113.33 -42.33,127.77 -4,12.39 -9.51,25.8 -20.07,31.22"
                 id="path10"
                 style="stroke:#ff5361;stroke-opacity:1" />
              <path
                 id="_2"
                 data-name="2"
                 class="cls-1"
                 d="m 1331.57,200.69 v 0 a 65.95,65.95 0 1 0 -83,42.55 66.33,66.33 0 0 0 20.3,3.21 64.38,64.38 0 0 0 11.91,-1.11 l -9.78,30.23 30.64,9.88 m -41.45,-78.38 a 27.95,27.95 0 0 1 8.59,-54.55 27.95,27.95 0 0 1 26.62,36.48 v 0 a 27.94,27.94 0 0 1 -35.17,18 z"
                 style="stroke:#ff5361;stroke-opacity:1" />
              <path
                 id="_1"
                 data-name="1"
                 class="cls-1"
                 d="M 1359.7,277.19 A 65.94,65.94 0 0 0 1456.6,241 v 0 a 65.95,65.95 0 1 0 -128.56,-24.75 l -22.69,70.4 14.82,4.78 m 100.26,-62.08 a 28,28 0 1 1 -18,-35.18 28,28 0 0 1 18,35.18 z"
                 style="stroke:#ff5361;stroke-opacity:1" />
              <path
                 class="cls-1"
                 d="m 1250.51,466.56 c 21.54,-40.52 53.62,-100.56 67.26,-126.07"
                 id="path14"
                 style="stroke:#ff5361;stroke-opacity:1" />
              <path
                 class="cls-1"
                 d="m 1256.35,327.87 -19,58.88"
                 id="path16"
                 style="stroke:#ff5361;stroke-opacity:1" />
              <path
                 class="cls-1"
                 d="m 1322.13,290.4 -14.29,-5.81 c -1.53,3.09 -8.79,9.71 -18.12,14"
                 id="path18"
                 style="stroke:#ff5361;stroke-opacity:1" />
              <path
                 class="cls-1"
                 d="m 1300.24,328.55 a 14.12,14.12 0 0 1 -0.54,2.34 14.3,14.3 0 0 1 -27.86,-3.13"
                 id="path20"
                 style="stroke:#ff5361;stroke-opacity:1" />
            </g>
            <g
               id="pen"
               style="stroke-width:1.1984">
              <polyline
                 class="cls-1"
                 points="1321.48 299.08 1325.01 252.16 1359.7 254.72 1356.36 299.08"
                 id="polyline23"
                 style="stroke:#ff5361;stroke-opacity:1" />
              <line
                 class="cls-1"
                 x1="1304.86"
                 y1="519.96997"
                 x2="1319.33"
                 y2="327.73001"
                 id="line25"
                 style="stroke:#ff5361;stroke-opacity:1" />
              <line
                 class="cls-1"
                 x1="1353.47"
                 y1="328.57999"
                 x2="1339.12"
                 y2="519.42999"
                 id="line27"
                 style="stroke:#ff5361;stroke-opacity:1" />
              <path
                 class="cls-2"
                 d="m 1320.18,267.38 41.35,3.11 8.86,-117.71 c 2.59,-34.49 -3.19,-41.71 -18.42,-42.86 -15.23,-1.15 -20.79,11.25 -23.39,45.75 z"
                 id="path29"
                 style="fill:#ff5361;fill-opacity:1;stroke-width:1.1984" />
              <path
                 class="cls-1"
                 d="m 1349.72,137.9 25.63,1.93 c 5.64,0.42 10,5.11 8.65,22.77 l -6.54,87"
                 id="path31"
                 style="stroke:#ff5361;stroke-opacity:1" />
              <circle
                 class="cls-2"
                 cx="1377.46"
                 cy="249.57001"
                 r="6.52"
                 id="circle33"
                 style="fill:#ff5361;fill-opacity:1;stroke-width:1.1984" />
            </g>
            <g
               id="pencil"
               style="stroke-width:1.1984">
              <path
                 class="cls-1"
                 d="m 1224.05,299.08 -6,-40.71 A 107.15,107.15 0 0 0 1204.48,220 l -30.6,-52.28 a 5.42,5.42 0 0 0 -10,1.47 l -14.07,58.93 a 107.36,107.36 0 0 0 -1.77,40.68 l 4.51,30.32"
                 id="path36"
                 style="stroke:#ff5361;stroke-opacity:1" />
              <path
                 class="cls-1"
                 d="m 1256.35,518.83 a 25.05,25.05 0 0 0 -0.28,-4.3 l -27.76,-186.8"
                 id="path38"
                 style="stroke:#ff5361;stroke-opacity:1" />
              <line
                 class="cls-1"
                 x1="1156.98"
                 y1="328.57999"
                 x2="1185.25"
                 y2="518.83002"
                 id="line40"
                 style="stroke:#ff5361;stroke-opacity:1" />
              <path
                 class="cls-2"
                 d="m 1197.73,208.43 -23.85,-40.75 a 5.42,5.42 0 0 0 -10,1.47 L 1153,214.93 c 11.86,-4.39 32.82,-10.81 44.73,-6.5 z"
                 id="path42"
                 style="fill:#ff5361;fill-opacity:1;stroke-width:1.1984" />
              <path
                 class="cls-2"
                 d="m 1216.64,251 c -0.47,-2.13 -1,-4.24 -1.6,-6.33 -10,-1.13 -22.5,-0.06 -31.28,9.44 -12.94,-7.57 -27.41,-2.85 -36.79,2 0.07,2.22 0.21,4.45 0.41,6.67 8.18,-4.68 22.46,-10.48 34.19,-3 l 5.83,39.27 6.19,0.8 -6.09,-40.95 c 7.71,-8.98 19.99,-9.29 29.14,-7.9 z"
                 id="path44"
                 style="fill:#ff5361;fill-opacity:1;stroke-width:1.1984" />
              <polygon
                 class="cls-2"
                 points="1219.8,518.69 1225.88,518.83 1197.73,329.37 1191.66,329.37 "
                 id="polygon46"
                 style="fill:#ff5361;fill-opacity:1;stroke-width:1.1984" />
            </g>
            <g
               id="basket"
               style="stroke-width:1.1984">
              <g
                 id="nets"
                 style="stroke-width:1.1984">
                <g
                   id="net_light"
                   data-name="net light"
                   style="stroke-width:1.1984">
                  <line
                     class="cls-3"
                     x1="1176.0601"
                     y1="487.75"
                     x2="1265.53"
                     y2="374.87"
                     id="line49" />
                  <line
                     class="cls-3"
                     x1="1189.36"
                     y1="519.17999"
                     x2="1268.26"
                     y2="419.20001"
                     id="line51" />
                  <line
                     class="cls-3"
                     x1="1225.88"
                     y1="518.83002"
                     x2="1275.2"
                     y2="457.20001"
                     id="line53" />
                  <line
                     class="cls-3"
                     x1="1258.97"
                     y1="519.78003"
                     x2="1272.99"
                     y2="502"
                     id="line55" />
                  <line
                     class="cls-3"
                     x1="1165"
                     y1="453.67999"
                     x2="1261"
                     y2="334.63"
                     id="line57" />
                  <line
                     class="cls-3"
                     x1="1243.22"
                     y1="518.83002"
                     x2="1149.45"
                     y2="405.81"
                     id="line59" />
                  <line
                     class="cls-3"
                     x1="1204.13"
                     y1="519.17999"
                     x2="1176.0601"
                     y2="487.75"
                     id="line61" />
                  <line
                     class="cls-3"
                     x1="1264.1801"
                     y1="372.09"
                     x2="1228.27"
                     y2="328.57999"
                     id="line63" />
                  <line
                     class="cls-3"
                     x1="1267.09"
                     y1="414.07001"
                     x2="1195.85"
                     y2="329.07001"
                     id="line65" />
                  <line
                     class="cls-3"
                     x1="1273.36"
                     y1="464.67999"
                     x2="1160.4399"
                     y2="328.57999"
                     id="line67" />
                  <line
                     class="cls-3"
                     x1="1272.78"
                     y1="506.32001"
                     x2="1125.71"
                     y2="329.07001"
                     id="line69" />
                  <line
                     class="cls-3"
                     x1="1136.4"
                     y1="361.31"
                     x2="1161.9"
                     y2="328.98999"
                     id="line71" />
                  <line
                     class="cls-3"
                     x1="1144.51"
                     y1="390.60001"
                     x2="1194.11"
                     y2="327.73999"
                     id="line73" />
                  <line
                     class="cls-3"
                     x1="1154.79"
                     y1="422.23999"
                     x2="1229.25"
                     y2="328.57999"
                     id="line75" />
                </g>
                <g
                   id="net"
                   style="stroke-width:1.1984">
                  <line
                     class="cls-3"
                     x1="1398.61"
                     y1="520.64001"
                     x2="1265.65"
                     y2="356.34"
                     id="line78" />
                  <line
                     class="cls-3"
                     x1="1359.97"
                     y1="519.96997"
                     x2="1268.5601"
                     y2="407.01001"
                     id="line80" />
                  <line
                     class="cls-3"
                     x1="1322.53"
                     y1="519.78003"
                     x2="1270.5"
                     y2="455.48001"
                     id="line82" />
                  <line
                     class="cls-3"
                     x1="1289.21"
                     y1="519.96997"
                     x2="1273.26"
                     y2="500.25"
                     id="line84" />
                  <line
                     class="cls-3"
                     x1="1419.35"
                     y1="497.42001"
                     x2="1279.76"
                     y2="328.57999"
                     id="line86" />
                  <line
                     class="cls-3"
                     x1="1300.67"
                     y1="518.83002"
                     x2="1439.48"
                     y2="348.34"
                     id="line88" />
                  <line
                     class="cls-3"
                     x1="1339.12"
                     y1="519.42999"
                     x2="1431.85"
                     y2="404.82999"
                     id="line90" />
                  <line
                     class="cls-3"
                     x1="1375.42"
                     y1="520.64001"
                     x2="1422.87"
                     y2="462.01001"
                     id="line92" />
                  <line
                     class="cls-3"
                     x1="1408.9"
                     y1="520.64001"
                     x2="1417.6801"
                     y2="509.79001"
                     id="line94" />
                  <line
                     class="cls-3"
                     x1="1266.33"
                     y1="387.81"
                     x2="1322.13"
                     y2="327.73999"
                     id="line96" />
                  <line
                     class="cls-3"
                     x1="1265.65"
                     y1="354.48001"
                     x2="1289.95"
                     y2="330.01001"
                     id="line98" />
                  <line
                     class="cls-3"
                     x1="1268.5601"
                     y1="424.01999"
                     x2="1349.47"
                     y2="327.73999"
                     id="line100" />
                  <line
                     class="cls-3"
                     x1="1272.4301"
                     y1="462.92999"
                     x2="1381.53"
                     y2="328.57999"
                     id="line102" />
                  <line
                     class="cls-3"
                     x1="1273.52"
                     y1="504.56"
                     x2="1424.04"
                     y2="328.98999"
                     id="line104" />
                  <line
                     class="cls-3"
                     x1="1431.39"
                     y1="386.64999"
                     x2="1383.79"
                     y2="327.84"
                     id="line106" />
                  <line
                     class="cls-3"
                     x1="1437.6801"
                     y1="354.48001"
                     x2="1417.05"
                     y2="328.98999"
                     id="line108" />
                  <line
                     class="cls-3"
                     x1="1429.16"
                     y1="422.85999"
                     x2="1352.26"
                     y2="327.84"
                     id="line110" />
                  <line
                     class="cls-3"
                     x1="1422.87"
                     y1="458.78"
                     x2="1318.0699"
                     y2="329.28"
                     id="line112" />
                </g>
              </g>
              <g
                 id="construction"
                 style="stroke-width:1.1984">
                <line
                   class="cls-3"
                   x1="1442.25"
                   y1="327.82001"
                   x2="1416.3101"
                   y2="519.96997"
                   id="line116" />
                <line
                   class="cls-3"
                   x1="1262.71"
                   y1="328.98999"
                   x2="1274.35"
                   y2="518.04999"
                   id="line118" />
                <path
                   class="cls-3"
                   d="m 1115.89,302.21 a 14.34,14.34 0 0 1 9,-3.13 h 334.35 a 14.37,14.37 0 0 1 14.37,14.37 v 0 a 14.37,14.37 0 0 1 -14.37,14.37 h -200"
                   id="path120" />
                <line
                   class="cls-3"
                   x1="1259.26"
                   y1="327.82001"
                   x2="1124.86"
                   y2="327.82001"
                   id="line122" />
              </g>
            </g>
          </g>
          <g
             id="book"
             style="stroke-width:1.1984">
            <g
               id="lines"
               style="stroke-width:1.1984">
              <path
                 class="cls-3"
                 d="m 314,336.17 a 133.61,133.61 0 0 1 -8.8,45.78"
                 id="path127" />
              <line
                 class="cls-3"
                 x1="314.91"
                 y1="352.04999"
                 x2="400.35001"
                 y2="367.82001"
                 id="line129" />
              <line
                 class="cls-3"
                 x1="406.92001"
                 y1="386.70999"
                 x2="311.75"
                 y2="369.14001"
                 id="line131" />
              <line
                 class="cls-3"
                 x1="404.20999"
                 y1="377.37"
                 x2="313.32999"
                 y2="360.60001"
                 id="line133" />
            </g>
            <path
               id="cover"
               class="cls-3"
               d="m 397,351.49 -97,-17.91 c -6.88,-1.27 -11.5,-7.46 -10.33,-13.82 1.17,-6.36 7.7,-10.49 14.58,-9.22 l 85.19,15.72" />
            <path
               id="cover-2"
               data-name="cover"
               class="cls-3"
               d="M 417.94,427.76 287,403.59 c -6.88,-1.26 -11.5,-7.45 -10.33,-13.81 1.17,-6.36 7.7,-10.5 14.58,-9.23 l 119.36,22" />
          </g>
          <path
             id="cable_back"
             data-name="cable back"
             class="cls-4"
             d="m 175.69,502.21 c -18.52,5.78 -62.44,23.25 -41.26,54" />
          <g
             id="binder"
             style="stroke-width:1.1984">
            <g
               id="lines-2"
               data-name="lines"
               style="stroke-width:1.1984">
              <line
                 class="cls-5"
                 x1="266.14001"
                 y1="483.32001"
                 x2="441.41"
                 y2="509.29001"
                 id="line140"
                 style="stroke:#ff5361;stroke-opacity:1" />
              <line
                 class="cls-5"
                 x1="257.84"
                 y1="466.64999"
                 x2="437.89999"
                 y2="493.32001"
                 id="line142"
                 style="stroke:#ff5361;stroke-opacity:1" />
              <line
                 class="cls-5"
                 x1="265.92001"
                 y1="499.78"
                 x2="446.89001"
                 y2="526.59003"
                 id="line144"
                 style="stroke:#ff5361;stroke-opacity:1" />
              <line
                 class="cls-5"
                 x1="261.29999"
                 y1="516.47998"
                 x2="455.20999"
                 y2="545.21002"
                 id="line146"
                 style="stroke:#ff5361;stroke-opacity:1" />
              <line
                 class="cls-5"
                 x1="251.17"
                 y1="529.52002"
                 x2="390.07001"
                 y2="550.10999"
                 id="line148"
                 style="stroke:#ff5361;stroke-opacity:1" />
            </g>
            <path
               id="circle"
               class="cls-1"
               d="m 213,446 c 19.25,2.43 53.28,11.37 53.18,48.79 -0.09,36.45 -32.79,48.16 -53.18,49.42"
               style="stroke:#ff5361;stroke-opacity:1" />
            <polyline
               id="cover-3"
               data-name="cover"
               class="cls-1"
               points="349.95 550.14 212.96 551.47 212.96 432.45 430.82 475.03"
               style="stroke:#ff5361;stroke-opacity:1" />
            <path
               id="cover-4"
               data-name="cover"
               class="cls-1"
               d="M 419.05,433.1 201.57,393.3 A 18,18 0 0 0 180.36,411 v 165.27"
               style="stroke:#ff5361;stroke-opacity:1" />
          </g>
        </g>
        <g
           id="laptop"
           style="stroke-width:1.1984">
          <path
             id="path140"
             class="cls-1"
             d="m 1020.66,108.4 122.76,367.85 a 10.12,10.12 0 0 1 -9.62,13.32 l -616.45,-1.25 a 10.14,10.14 0 0 1 -9.68,-7.24 L 399.21,115.73 a 10.11,10.11 0 0 1 9.68,-13 L 1011,101.49 a 10.11,10.11 0 0 1 9.66,6.91 z"
             style="stroke:#ff5361;stroke-opacity:1;fill:#ffffff" />
          <path
             style="font-variation-settings:normal;opacity:1;vector-effect:none;fill:none;fill-opacity:1;stroke:#5b37f0;stroke-width:7.19037px;stroke-linecap:round;stroke-linejoin:round;stroke-miterlimit:4;stroke-dasharray:none;stroke-dashoffset:0;stroke-opacity:1;stop-color:#000000;stop-opacity:1"
             d="M 1141.4578,470.97501 H 506.58593"
             id="path1070" />
          <path
             id="path1104"
             style="fill:#5b37f0;fill-opacity:1;stroke:#5b37f0;stroke-width:1.1984px;stroke-linecap:butt;stroke-linejoin:miter;stroke-opacity:1"
             d="m 506.58594,470.97461 3.38867,14.81445 9.44727,4.42969 h 29.08398 l -6.29883,-19.23828 z m 634.87106,0 -15.6992,0.0937 -573.55468,-0.0859 7.16797,19.23633 h 575.03511 l 8.0176,-5.20508 2.1621,-6.52344 z" />
          <path
             id="shape"
             class="cls-3"
             d="m 365,80.65 660.35,-6.08 a 22.5,22.5 0 0 1 21.6,15.54 l 139.34,429.05 498.83,3.91 c 0,0 -2,66.69 -45.36,66.69 H 465.92 L 331.19,126.08 A 35.5,35.5 0 0 1 365,80.65 Z" />
          <path
             id="screen"
             class="cls-1"
             d="m 1020.66,108.4 122.76,367.85 a 10.12,10.12 0 0 1 -9.62,13.32 l -616.45,-1.25 a 10.14,10.14 0 0 1 -9.68,-7.24 L 399.21,115.73 a 10.11,10.11 0 0 1 9.68,-13 L 1011,101.49 a 10.11,10.11 0 0 1 9.66,6.91 z"
             style="stroke:#ff5361;stroke-opacity:1" />
          <g
             id="details"
             style="stroke-width:1.1984">
            <g
               id="lines-3"
               data-name="lines"
               style="stroke-width:1.1984">
              <path
                 class="cls-3"
                 d="m 370.3,80.55 c 0,0 -17.62,1.8 -6.53,39.61 11.09,37.81 133.65,467.6 133.65,467.6"
                 id="path191" />
              <line
                 class="cls-3"
                 x1="1180.54"
                 y1="515.91998"
                 x2="477.85001"
                 y2="515.91998"
                 id="line193" />
              <line
                 class="cls-3"
                 x1="1679.15"
                 y1="546.78998"
                 x2="1151.4"
                 y2="546.78998"
                 id="line195" />
              <path
                 class="cls-3"
                 d="m 1155.2,515.92 c 0,0 -3.35,79.35 -45.36,75.08"
                 id="path197" />
            </g>
            <g
               id="usb_ports"
               data-name="usb ports"
               style="stroke-width:1.1984">
              <path
                 id="_2-2"
                 data-name="2"
                 class="cls-2"
                 d="m 643.47,531.81 h -40.69 a 15,15 0 0 0 -15,15 v 14.46 a 15,15 0 0 0 15,15 h 40.69 a 15,15 0 0 0 15,-15 v -14.46 a 15,15 0 0 0 -15,-15 z m 9,29.46 a 9,9 0 0 1 -9,9 h -40.69 a 9,9 0 0 1 -9,-9 v -14.46 c 0,-0.14 0,-0.27 0,-0.41 h 58.65 c 0,0.14 0,0.27 0,0.41 z"
                 style="fill:#ff5361;fill-opacity:1;stroke-width:1.1984" />
              <path
                 id="_1-2"
                 data-name="1"
                 class="cls-2"
                 d="m 734,531.81 h -40.7 a 15,15 0 0 0 -15,15 v 14.46 a 15,15 0 0 0 15,15 H 734 a 15,15 0 0 0 15,-15 v -14.46 a 15,15 0 0 0 -15,-15 z m 9,29.46 a 9,9 0 0 1 -9,9 h -40.7 a 9,9 0 0 1 -9,-9 v -14.46 c 0,-0.14 0,-0.27 0,-0.41 H 743 c 0,0.14 0,0.27 0,0.41 z"
                 style="fill:#ff5361;fill-opacity:1;stroke-width:1.1984" />
            </g>
            <g
               id="cable"
               style="stroke-width:1.1984">
              <rect
                 class="cls-2"
                 x="500.67001"
                 y="535.47998"
                 width="44.66"
                 height="36.040001"
                 rx="10.95"
                 id="rect203"
                 style="fill:#ff5361;fill-opacity:1;stroke-width:1.1984" />
              <path
                 class="cls-4"
                 d="m 134.43,556.24 c 23.51,34.18 116,28.55 203.39,2.47 C 425.21,532.63 508,554 508,554"
                 id="path205" />
            </g>
          </g>
          <g
             id="web_cam"
             data-name="web cam"
             style="stroke-width:1.1984">
            <path
               id="holder"
               class="cls-6"
               d="M 764.48,68.15 H 657.86 a 20.23,20.23 0 0 0 -13,4.7 l -6.34,5.28 28.21,-0.26 a 21.82,21.82 0 0 0 -0.21,3 V 87 a 7.2,7.2 0 0 0 7.2,7.2 h 90.73 c 4,0 7.25,-5.68 7.25,-12.68 v -0.67 c 0.03,-7.03 -3.21,-12.7 -7.22,-12.7 z"
               style="stroke-width:1.1984" />
            <rect
               class="cls-6"
               x="687.56"
               y="58.490002"
               width="45.450001"
               height="11.84"
               id="rect210"
               style="stroke-width:1.1984" />
            <g
               id="camera"
               style="fill:#5b37f0;fill-opacity:1;stroke-width:1.1984">
              <path
                 class="cls-6"
                 d="M 767.17,0 H 654.7 a 12,12 0 0 0 -12,12 v 34.49 a 12,12 0 0 0 12,12 h 112.47 a 12,12 0 0 0 12,-12 V 12 a 12,12 0 0 0 -12,-12 z m -91,52.15 a 3,3 0 0 1 0,6 10.43,10.43 0 0 1 -10.42,-10.43 V 10.77 a 10.43,10.43 0 0 1 10.41,-10.43 3,3 0 0 1 0,6 4.43,4.43 0 0 0 -4.42,4.43 v 37 a 4.43,4.43 0 0 0 4.42,4.38 z M 733,50.59 c -9.51,0 -17.25,-9.1 -17.25,-20.29 0,-11.19 7.75,-20.3 17.25,-20.3 9.5,0 17.25,9.1 17.25,20.28 0,11.18 -7.72,20.31 -17.25,20.31 z"
                 id="path212"
                 style="fill:#5b37f0;fill-opacity:1;stroke-width:1.1984" />
              <path
                 class="cls-6"
                 d="m 733,16 c -6.2,0 -11.25,6.41 -11.25,14.28 0,7.87 5,14.29 11.25,14.29 6.25,0 11.25,-6.41 11.25,-14.29 C 744.25,22.4 739.22,16 733,16 Z"
                 id="path214"
                 style="fill:#5b37f0;fill-opacity:1;stroke-width:1.1984" />
            </g>
            <ellipse
               class="cls-2"
               cx="700.78998"
               cy="30.299999"
               rx="6.04"
               ry="7.3299999"
               id="ellipse217"
               style="fill:#ff5361;fill-opacity:1;stroke-width:1.1984" />
          </g>
          <path
             style="font-variation-settings:normal;opacity:1;vector-effect:none;fill:#5b37f0;fill-opacity:1;stroke:none;stroke-width:0.686174;stroke-linecap:butt;stroke-linejoin:miter;stroke-miterlimit:4;stroke-dasharray:none;stroke-dashoffset:0;stroke-opacity:1;stop-color:#000000;stop-opacity:1"
             d="M 523.75,459.32323 461.74011,257.87399 h 157.42414 l 73.37626,201.15827"
             id="path1063"
             sodipodi:nodetypes="cccc" />
          <rect
             style="font-variation-settings:normal;opacity:1;vector-effect:none;fill:none;fill-opacity:1;stroke:#ffffff;stroke-width:7.38138px;stroke-linecap:round;stroke-linejoin:round;stroke-miterlimit:4;stroke-dasharray:none;stroke-dashoffset:0;stroke-opacity:1;paint-order:fill markers stroke;stop-color:#000000;stop-opacity:1"
             id="rect1077"
             width="28.397305"
             height="26.454784"
             x="401.97235"
             y="308.64929"
             transform="matrix(1,0,0.31551914,0.94891921,0,0)" />
          <path
             style="font-variation-settings:normal;opacity:1;vector-effect:none;fill:none;fill-opacity:1;stroke:#ffffff;stroke-width:7.19037px;stroke-linecap:round;stroke-linejoin:round;stroke-miterlimit:4;stroke-dasharray:none;stroke-dashoffset:0;stroke-opacity:1;stop-color:#000000;stop-opacity:1"
             d="m 546.67876,301.11822 h 59.56333"
             id="path1079"
             sodipodi:nodetypes="cc" />
          <rect
             style="font-variation-settings:normal;opacity:1;vector-effect:none;fill:none;fill-opacity:1;stroke:#ffffff;stroke-width:7.38138px;stroke-linecap:round;stroke-linejoin:round;stroke-miterlimit:4;stroke-dasharray:none;stroke-dashoffset:0;stroke-opacity:1;paint-order:fill markers stroke;stop-color:#000000;stop-opacity:1"
             id="rect1096"
             width="28.397305"
             height="26.454784"
             x="401.78165"
             y="360.25085"
             transform="matrix(1,0,0.31551914,0.94891921,0,0)" />
          <path
             style="font-variation-settings:normal;opacity:1;vector-effect:none;fill:none;fill-opacity:1;stroke:#ffffff;stroke-width:7.19037px;stroke-linecap:round;stroke-linejoin:round;stroke-miterlimit:4;stroke-dasharray:none;stroke-dashoffset:0;stroke-opacity:1;stop-color:#000000;stop-opacity:1"
             d="m 562.76933,350.08393 h 59.56333"
             id="path1098"
             sodipodi:nodetypes="cc" />
          <rect
             style="font-variation-settings:normal;opacity:1;vector-effect:none;fill:none;fill-opacity:1;stroke:#ffffff;stroke-width:7.38138px;stroke-linecap:round;stroke-linejoin:round;stroke-miterlimit:4;stroke-dasharray:none;stroke-dashoffset:0;stroke-opacity:1;paint-order:fill markers stroke;stop-color:#000000;stop-opacity:1"
             id="rect1100"
             width="28.397305"
             height="26.454784"
             x="402.76614"
             y="415.7326"
             transform="matrix(1,0,0.31551914,0.94891921,0,0)" />
          <path
             style="font-variation-settings:normal;opacity:1;vector-effect:none;fill:none;fill-opacity:1;stroke:#ffffff;stroke-width:7.19037px;stroke-linecap:round;stroke-linejoin:round;stroke-miterlimit:4;stroke-dasharray:none;stroke-dashoffset:0;stroke-opacity:1;stop-color:#000000;stop-opacity:1"
             d="m 581.25939,402.73162 h 59.56333"
             id="path1102"
             sodipodi:nodetypes="cc" />
          <path
             d="m 752.84728,169.91196 a 23.268142,18.164227 41.461975 0 0 -15.4545,20.5584 23.268142,18.164227 41.461975 0 0 25.66233,20.55841 23.268142,18.164227 41.461975 0 0 15.45448,-20.55841 23.268142,18.164227 41.461975 0 0 -25.66231,-20.5584 z m 102.792,0 -23.18173,30.83761 64.15579,51.39599 -38.63621,51.396 38.49347,30.8376 61.81793,-82.2336 z m -115.80158,92.5128 a 29.085178,22.705283 41.461975 0 0 -19.31811,25.698 29.085178,22.705283 41.461975 0 0 32.07789,25.698 29.085178,22.705283 41.461975 0 0 19.31811,-25.698 29.085178,22.705283 41.461975 0 0 -32.07789,-25.698 z m 89.78242,92.51281 a 34.902212,27.246339 41.461975 0 0 -23.18173,30.83759 34.902212,27.246339 41.461975 0 0 38.49347,30.83761 34.902212,27.246339 41.461975 0 0 23.18173,-30.83761 34.902212,27.246339 41.461975 0 0 -38.49347,-30.83759 z"
             class="ColorScheme-Text"
             fill="currentColor"
             id="path1107"
             style="fill:#5b37f0;fill-opacity:1;stroke-width:1.1984" />
        </g>
        <path
           style="font-variation-settings:normal;opacity:1;vector-effect:none;fill:none;fill-opacity:1;stroke:#2e186a;stroke-width:7.19037px;stroke-linecap:round;stroke-linejoin:round;stroke-miterlimit:4;stroke-dasharray:none;stroke-dashoffset:0;stroke-opacity:1;stop-color:#000000;stop-opacity:1"
           d="M 97.771759,618.19579 H 1734.9248"
           id="path953" />
      </g>
    </g>
  </g>
  <style
     type="text/css"
     id="current-color-scheme">.ColorScheme-Text {color:#eff0f1;}</style>
</svg>
