<?xml version="1.0" encoding="UTF-8" standalone="no"?>
<svg
   xmlns:dc="http://purl.org/dc/elements/1.1/"
   xmlns:cc="http://creativecommons.org/ns#"
   xmlns:rdf="http://www.w3.org/1999/02/22-rdf-syntax-ns#"
   xmlns:svg="http://www.w3.org/2000/svg"
   xmlns="http://www.w3.org/2000/svg"
   xmlns:sodipodi="http://sodipodi.sourceforge.net/DTD/sodipodi-0.dtd"
   xmlns:inkscape="http://www.inkscape.org/namespaces/inkscape"
   width="870"
   height="530"
   version="1.1"
   viewBox="0 0 870 530"
   id="svg146"
   sodipodi:docname="service-d1.svg"
   inkscape:version="1.0.1 (unknown)">
  <sodipodi:namedview
     pagecolor="#ffffff"
     bordercolor="#666666"
     borderopacity="1"
     objecttolerance="10"
     gridtolerance="10"
     guidetolerance="10"
     inkscape:pageopacity="0"
     inkscape:pageshadow="2"
     inkscape:window-width="1366"
     inkscape:window-height="703"
     id="namedview148"
     showgrid="false"
     inkscape:zoom="0.77781746"
     inkscape:cx="427.64615"
     inkscape:cy="290.29287"
     inkscape:window-x="0"
     inkscape:window-y="0"
     inkscape:window-maximized="1"
     inkscape:current-layer="outline_II" />
  <metadata
     id="metadata2">
    <rdf:RDF>
      <cc:Work
         rdf:about="">
        <dc:format>image/svg+xml</dc:format>
        <dc:type
           rdf:resource="http://purl.org/dc/dcmitype/StillImage" />
        <dc:title />
      </cc:Work>
    </rdf:RDF>
  </metadata>
  <defs
     id="defs6">
    <style
       id="style4">.cls-1,.cls-3,.cls-4{fill:none;}.cls-1,.cls-5{stroke:#fe7624;}.cls-1,.cls-3,.cls-4,.cls-5{stroke-linecap:round;stroke-linejoin:round;}.cls-1,.cls-3,.cls-5{stroke-width:6px;}.cls-2{fill:#fe7624;}.cls-3,.cls-4{stroke:#2e186a;}.cls-4{stroke-width:15px;}.cls-5{fill:#fff;}.cls-6{fill:#2e186a;}</style>
  </defs>
  <g
     data-name="Layer 2"
     id="g143">
    <g
       id="outline_II"
       transform="matrix(0.52909,0,0,0.53041,-49.828,176.48)"
       stroke-width="1.1984"
       data-name="outline II">
      <path
         d="m 1231.9,92.19 c -138.56,-98.735 112.71,-154.27 99.445,-190.56 -25.208,-68.962 -104.61,46.093 -124.65,17.846 -25.587,-36.077 54.218,-90.453 58.85,-149.86 4.6316,-59.406 -103.26,-129.57 -131.46,-59.039 -28.199,70.529 18.868,147.8 -14.031,166.48 -41.868,23.78 -74.924,-196.8 -126.83,-115.63 -51.902,81.163 120.83,197.16 118.11,221.49 -2.7246,24.325 -176.96,-61.728 -145.63,-0.36672 31.332,61.362 138,28.236 155.43,55.372 17.437,27.136 -24.929,58.917 -24.929,58.917"
         fill="#ff5361"
         stop-color="#000000"
         style="font-variation-settings:normal"
         id="path8" />
      <g
         fill="none"
         stroke-linecap="round"
         stroke-linejoin="round"
         stroke-width="7.1904px"
         id="g16">
        <path
           d="m 1184.6,72.487 c 0,0 -27.177,-27.014 -13.35,-60.506 13.827,-33.492 36.577,-43.943 36.577,-43.943"
           stop-color="#000000"
           stroke="#ffffff"
           style="font-variation-settings:normal"
           id="path10" />
        <path
           d="m 1074.7,-149.31 c 0,0 9.4677,43.088 38.143,42.415 28.676,-0.67228 32.081,-22.613 32.081,-22.613"
           stop-color="#000000"
           stroke="#ffffff"
           style="font-variation-settings:normal"
           id="path12" />
        <path
           d="m 1050.1,95.402 h 232.67 c 36.372,0 19.48,27.503 19.48,27.503"
           stop-color="#000000"
           stroke="#5b37f0"
           style="font-variation-settings:normal"
           id="path14" />
      </g>
      <g
         id="organizer"
         stroke-width="1.1984">
        <g
           id="scissors"
           stroke="#ff5361">
          <line
             class="cls-1"
             x1="1261.2"
             x2="1271.2"
             y1="297.84"
             y2="275.10001"
             id="line18" />
          <path
             class="cls-1"
             d="m 1331.6,200.69 a 65.95,65.95 0 1 0 -83,42.55 66.33,66.33 0 0 0 20.3,3.21 64.38,64.38 0 0 0 11.91,-1.11 l -9.78,30.23 30.64,9.88 m -41.45,-78.38 a 27.95,27.95 0 0 1 8.59,-54.55 27.95,27.95 0 0 1 26.62,36.48 27.94,27.94 0 0 1 -35.17,18 z"
             data-name="2"
             id="path20" />
          <path
             class="cls-1"
             d="M 1359.7,277.19 A 65.94,65.94 0 0 0 1456.6,241 65.95,65.95 0 1 0 1328.04,216.25 l -22.69,70.4 14.82,4.78 m 100.26,-62.08 a 28,28 0 1 1 -18,-35.18 28,28 0 0 1 18,35.18 z"
             data-name="1"
             id="path22" />
          <path
             class="cls-1"
             d="m 1322.1,290.4 -14.29,-5.81 c -1.53,3.09 -8.79,9.71 -18.12,14"
             id="path24" />
        </g>
        <g
           id="pen">
          <g
             stroke="#ff5361"
             id="g29">
            <polyline
               class="cls-1"
               points="1321.5 299.08 1325 252.16 1359.7 254.72 1356.4 299.08"
               id="polyline27" />
          </g>
          <path
             class="cls-2"
             d="m 1320.2,267.38 41.35,3.11 8.86,-117.71 c 2.59,-34.49 -3.19,-41.71 -18.42,-42.86 -15.23,-1.15 -20.79,11.25 -23.39,45.75 z"
             fill="#ff5361"
             stroke-width="1.1984"
             id="path31" />
          <path
             class="cls-1"
             d="m 1349.7,137.9 25.63,1.93 c 5.64,0.42 10,5.11 8.65,22.77 l -6.54,87"
             stroke="#ff5361"
             id="path33" />
          <circle
             class="cls-2"
             cx="1377.5"
             cy="249.57001"
             r="6.52"
             fill="#ff5361"
             stroke-width="1.1984"
             id="circle35" />
        </g>
        <g
           id="pencil">
          <g
             stroke="#ff5361"
             id="g40">
            <path
               class="cls-1"
               d="m 1224,299.08 -6,-40.71 A 107.15,107.15 0 0 0 1204.43,220 l -30.6,-52.28 a 5.42,5.42 0 0 0 -10,1.47 l -14.07,58.93 a 107.36,107.36 0 0 0 -1.77,40.68 l 4.51,30.32"
               id="path38" />
          </g>
          <g
             fill="#ff5361"
             stroke-width="1.1984"
             id="g46">
            <path
               class="cls-2"
               d="m 1197.7,208.43 -23.85,-40.75 a 5.42,5.42 0 0 0 -10,1.47 l -10.88,45.78 c 11.86,-4.39 32.82,-10.81 44.73,-6.5 z"
               id="path42" />
            <path
               class="cls-2"
               d="m 1216.6,251 c -0.47,-2.13 -1,-4.24 -1.6,-6.33 -10,-1.13 -22.5,-0.06 -31.28,9.44 -12.94,-7.57 -27.41,-2.85 -36.79,2 0.07,2.22 0.21,4.45 0.41,6.67 8.18,-4.68 22.46,-10.48 34.19,-3 l 5.83,39.27 6.19,0.8 -6.09,-40.95 c 7.71,-8.98 19.99,-9.29 29.14,-7.9 z"
               id="path44" />
          </g>
        </g>
        <g
           id="basket"
           transform="translate(-0.04)">
          <g
             id="construction"
             stroke-width="1.1984">
            <path
               class="cls-3"
               d="m 1115.9,302.21 a 14.34,14.34 0 0 1 9,-3.13 h 334.35 a 14.37,14.37 0 0 1 14.37,14.37 14.37,14.37 0 0 1 -14.37,14.37 h -200"
               id="path49" />
            <line
               class="cls-3"
               x1="1259.3"
               x2="1124.9"
               y1="327.82001"
               y2="327.82001"
               id="line51" />
            <path
               d="m 1299.3,327.82 h 155.19 l -41.108,191.67 -114.08,-0.33"
               fill="#5b37f0"
               stop-color="#000000"
               stroke="#2e186a"
               stroke-linecap="round"
               stroke-linejoin="round"
               stroke-width="6px"
               style="font-variation-settings:normal"
               id="path53" />
            <path
               d="m 1124.9,327.82 h 174.47 v 191.34 h -113.04"
               fill="none"
               stop-color="#000000"
               stroke="#2e186a"
               stroke-linecap="round"
               stroke-linejoin="round"
               stroke-width="6px"
               style="font-variation-settings:normal"
               id="path55" />
          </g>
        </g>
      </g>
      <g
         id="binder"
         stroke="#ff5361"
         stroke-width="1.1984">
        <g
           stroke-width="1.1984"
           data-name="lines"
           id="g71">
          <line
             class="cls-5"
             x1="266.14001"
             x2="441.41"
             y1="483.32001"
             y2="509.29001"
             id="line61" />
          <line
             class="cls-5"
             x1="257.84"
             x2="437.89999"
             y1="466.64999"
             y2="493.32001"
             id="line63" />
          <line
             class="cls-5"
             x1="265.92001"
             x2="446.89001"
             y1="499.78"
             y2="526.59003"
             id="line65" />
          <line
             class="cls-5"
             x1="261.29999"
             x2="455.20999"
             y1="516.47998"
             y2="545.21002"
             id="line67" />
          <line
             class="cls-5"
             x1="251.17"
             x2="390.07001"
             y1="529.52002"
             y2="550.10999"
             id="line69" />
        </g>
        <path
           id="circle"
           class="cls-1"
           d="m 213,446 c 19.25,2.43 53.28,11.37 53.18,48.79 -0.09,36.45 -32.79,48.16 -53.18,49.42" />
        <polyline
           class="cls-1"
           points="349.95 550.14 212.96 551.47 212.96 432.45 430.82 475.03"
           data-name="cover"
           id="polyline74" />
        <path
           class="cls-1"
           d="M 419.05,433.1 201.57,393.3 A 18,18 0 0 0 180.36,411 v 165.27"
           data-name="cover"
           id="path76" />
      </g>
      <path
         class="cls-1"
         d="m 1020.7,108.4 122.76,367.85 a 10.12,10.12 0 0 1 -9.62,13.32 l -616.45,-1.25 a 10.14,10.14 0 0 1 -9.68,-7.24 L 399.25,115.73 a 10.11,10.11 0 0 1 9.68,-13 l 602.11,-1.24 a 10.11,10.11 0 0 1 9.66,6.91 z"
         fill="#fff"
         id="path80" />
      <path
         d="M 1141.5,470.98 H 506.63"
         fill="none"
         stop-color="#000000"
         stroke="#5b37f0"
         stroke-linecap="round"
         stroke-linejoin="round"
         stroke-width="7.1904px"
         style="font-variation-settings:normal"
         id="path82" />
      <path
         d="m 506.59,470.97 3.3887,14.814 9.4473,4.4297 h 29.084 l -6.2988,-19.238 z m 634.87,0 -15.699,0.0937 -573.55,-0.0859 7.168,19.236 h 575.04 l 8.0176,-5.2051 2.1621,-6.5234 z"
         fill="#5b37f0"
         stroke="#5b37f0"
         stroke-width="1.1984px"
         id="path84" />
      <path
         id="shape"
         class="cls-3"
         d="m 365,80.65 660.35,-6.08 a 22.5,22.5 0 0 1 21.6,15.54 l 139.34,429.05 498.83,3.91 c 0,0 -2,66.69 -45.36,66.69 H 465.96 L 331.23,126.08 a 35.5,35.5 0 0 1 33.81,-45.43 z" />
      <path
         id="screen"
         class="cls-1"
         d="m 1020.7,108.4 122.76,367.85 a 10.12,10.12 0 0 1 -9.62,13.32 l -616.45,-1.25 a 10.14,10.14 0 0 1 -9.68,-7.24 L 399.25,115.73 a 10.11,10.11 0 0 1 9.68,-13 l 602.11,-1.24 a 10.11,10.11 0 0 1 9.66,6.91 z"
         stroke="#ff5361" />
      <g
         data-name="lines"
         id="g96"
         style="stroke-width:1.1984">
        <path
           class="cls-3"
           d="m 370.3,80.55 c 0,0 -17.62,1.8 -6.53,39.61 11.09,37.81 133.65,467.6 133.65,467.6"
           id="path88" />
        <line
           class="cls-3"
           x1="1180.5"
           x2="477.85001"
           y1="515.91998"
           y2="515.91998"
           id="line90" />
        <line
           class="cls-3"
           x1="1679.2"
           x2="1151.4"
           y1="546.78998"
           y2="546.78998"
           id="line92" />
        <path
           class="cls-3"
           d="m 1155.2,515.92 c 0,0 -3.35,79.35 -45.36,75.08"
           id="path94" />
      </g>
      <g
         id="usb_ports"
         fill="#ff5361"
         data-name="usb ports"
         style="stroke-width:1.1984">
        <path
           class="cls-2"
           d="m 643.47,531.81 h -40.69 a 15,15 0 0 0 -15,15 v 14.46 a 15,15 0 0 0 15,15 h 40.69 a 15,15 0 0 0 15,-15 v -14.46 a 15,15 0 0 0 -15,-15 z m 9,29.46 a 9,9 0 0 1 -9,9 h -40.69 a 9,9 0 0 1 -9,-9 V 546.4 h 58.65 v 0.41 z"
           data-name="2"
           id="path98" />
        <path
           class="cls-2"
           d="m 734,531.81 h -40.7 a 15,15 0 0 0 -15,15 v 14.46 a 15,15 0 0 0 15,15 H 734 a 15,15 0 0 0 15,-15 v -14.46 a 15,15 0 0 0 -15,-15 z m 9,29.46 a 9,9 0 0 1 -9,9 h -40.7 a 9,9 0 0 1 -9,-9 V 546.4 H 743 v 0.41 z"
           data-name="1"
           id="path100" />
      </g>
      <rect
         class="cls-2"
         x="500.67001"
         y="535.47998"
         width="44.66"
         height="36.040001"
         rx="10.95"
         fill="#ff5361"
         stroke-width="1.1984"
         id="rect103"
         style="stroke:none" />
      <path
         id="path105"
         d="m 134.43,556.24 c 23.51,34.18 116,28.55 203.39,2.47 C 425.21,532.63 508,554 508,554 M 175.69,502.21 c -18.52,5.78 -62.44,23.25 -41.26,54"
         style="fill:none;stroke:#5b37f0;stroke-opacity:1;stroke-width:9.43842167;stroke-miterlimit:4;stroke-dasharray:none;stroke-linecap:round" />
      <g
         id="web_cam"
         stroke-width="1.1984"
         data-name="web cam">
        <path
           id="holder"
           class="cls-6"
           d="M 764.48,68.15 H 657.86 a 20.23,20.23 0 0 0 -13,4.7 l -6.34,5.28 28.21,-0.26 a 21.82,21.82 0 0 0 -0.21,3 V 87 a 7.2,7.2 0 0 0 7.2,7.2 h 90.73 c 4,0 7.25,-5.68 7.25,-12.68 v -0.67 c 0.03,-7.03 -3.21,-12.7 -7.22,-12.7 z"
           fill="#ff5361" />
        <rect
           class="cls-6"
           x="687.56"
           y="58.490002"
           width="45.450001"
           height="11.84"
           fill="#ff5361"
           id="rect110" />
        <g
           id="camera"
           fill="#5b37f0">
          <path
             class="cls-6"
             d="M 767.17,0 H 654.7 a 12,12 0 0 0 -12,12 v 34.49 a 12,12 0 0 0 12,12 h 112.47 a 12,12 0 0 0 12,-12 V 12 a 12,12 0 0 0 -12,-12 z m -91,52.15 a 3,3 0 0 1 0,6 10.43,10.43 0 0 1 -10.42,-10.43 V 10.77 a 10.43,10.43 0 0 1 10.41,-10.43 3,3 0 0 1 0,6 4.43,4.43 0 0 0 -4.42,4.43 v 37 a 4.43,4.43 0 0 0 4.42,4.38 z M 733,50.59 c -9.51,0 -17.25,-9.1 -17.25,-20.29 0,-11.19 7.75,-20.3 17.25,-20.3 9.5,0 17.25,9.1 17.25,20.28 0,11.18 -7.72,20.31 -17.25,20.31 z"
             id="path112" />
          <path
             class="cls-6"
             d="m 733,16 c -6.2,0 -11.25,6.41 -11.25,14.28 0,7.87 5,14.29 11.25,14.29 6.25,0 11.25,-6.41 11.25,-14.29 C 744.25,22.4 739.22,16 733,16 Z"
             id="path114" />
        </g>
        <ellipse
           class="cls-2"
           cx="700.78998"
           cy="30.299999"
           rx="6.04"
           ry="7.3299999"
           fill="#ff5361"
           id="ellipse117" />
      </g>
      <path
         d="M 523.75,459.32 461.74,257.87 h 157.42 l 73.376,201.16"
         fill="#5b37f0"
         stop-color="#000000"
         style="font-variation-settings:normal;stroke-width:1.1984"
         id="path120" />
      <g
         fill="none"
         stroke="#ffffff"
         stroke-linecap="round"
         stroke-linejoin="round"
         id="g134"
         style="stroke-width:1.1984">
        <rect
           transform="matrix(1,0,0.31552,0.94892,0,0)"
           x="401.97"
           y="308.64999"
           width="28.396999"
           height="26.455"
           stop-color="#000000"
           stroke-width="7.3814px"
           style="font-variation-settings:normal;paint-order:fill markers stroke"
           id="rect122" />
        <path
           d="m 546.68,301.12 h 59.563"
           stop-color="#000000"
           stroke-width="7.1904px"
           style="font-variation-settings:normal"
           id="path124" />
        <rect
           transform="matrix(1,0,0.31552,0.94892,0,0)"
           x="401.78"
           y="360.25"
           width="28.396999"
           height="26.455"
           stop-color="#000000"
           stroke-width="7.3814px"
           style="font-variation-settings:normal;paint-order:fill markers stroke"
           id="rect126" />
        <path
           d="m 562.77,350.08 h 59.563"
           stop-color="#000000"
           stroke-width="7.1904px"
           style="font-variation-settings:normal"
           id="path128" />
        <rect
           transform="matrix(1,0,0.31552,0.94892,0,0)"
           x="402.76999"
           y="415.73001"
           width="28.396999"
           height="26.455"
           stop-color="#000000"
           stroke-width="7.3814px"
           style="font-variation-settings:normal;paint-order:fill markers stroke"
           id="rect130" />
        <path
           d="m 581.26,402.73 h 59.563"
           stop-color="#000000"
           stroke-width="7.1904px"
           style="font-variation-settings:normal"
           id="path132" />
      </g>
      <path
         class="ColorScheme-Text"
         d="m 752.85,169.91 a 23.268,18.164 41.462 0 0 -15.454,20.558 23.268,18.164 41.462 0 0 25.662,20.558 23.268,18.164 41.462 0 0 15.454,-20.558 23.268,18.164 41.462 0 0 -25.662,-20.558 z m 102.79,0 -23.182,30.838 64.156,51.396 -38.636,51.396 38.493,30.838 61.818,-82.234 z m -115.8,92.513 a 29.085,22.705 41.462 0 0 -19.318,25.698 29.085,22.705 41.462 0 0 32.078,25.698 29.085,22.705 41.462 0 0 19.318,-25.698 29.085,22.705 41.462 0 0 -32.078,-25.698 z m 89.782,92.513 a 34.902,27.246 41.462 0 0 -23.182,30.838 34.902,27.246 41.462 0 0 38.493,30.838 34.902,27.246 41.462 0 0 23.182,-30.838 34.902,27.246 41.462 0 0 -38.493,-30.838 z"
         fill="#5b37f0"
         stroke-width="1.1984"
         id="path136" />
      <path
         d="m 97.772,618.2 h 1637.2"
         fill="none"
         stop-color="#000000"
         stroke="#2e186a"
         stroke-linecap="round"
         stroke-linejoin="round"
         stroke-width="7.1904px"
         style="font-variation-settings:normal;opacity:1;vector-effect:none;fill:none;fill-opacity:1;stroke:#5b37f0;stroke-width:9.43841999;stroke-linecap:round;stroke-linejoin:miter;stroke-miterlimit:4;stroke-dasharray:none;stroke-dashoffset:0;stroke-opacity:1;stop-color:#000000;stop-opacity:1"
         id="path139" />
    </g>
  </g>
  <style
     id="current-color-scheme"
     type="text/css">.ColorScheme-Text {color:#eff0f1;}</style>
</svg>
