<?xml version="1.0" encoding="UTF-8"?>
<svg width="870" height="530" version="1.1" viewBox="0 0 870 530" xmlns="http://www.w3.org/2000/svg" xmlns:cc="http://creativecommons.org/ns#" xmlns:dc="http://purl.org/dc/elements/1.1/" xmlns:osb="http://www.openswatchbook.org/uri/2009/osb" xmlns:rdf="http://www.w3.org/1999/02/22-rdf-syntax-ns#" xmlns:xlink="http://www.w3.org/1999/xlink">
 <metadata>
  <rdf:RDF>
   <cc:Work rdf:about="">
    <dc:format>image/svg+xml</dc:format>
    <dc:type rdf:resource="http://purl.org/dc/dcmitype/StillImage"/>
    <dc:title/>
   </cc:Work>
  </rdf:RDF>
 </metadata>
 <defs>
  <style>.cls-1,.cls-3{fill:none;stroke:#2e186a;stroke-linecap:round;stroke-linejoin:round;}.cls-1{stroke-width:6px;}.cls-2{fill:#fe7624;}.cls-3{stroke-width:8px;}.cls-4{fill:#2e186a;}</style>
 </defs>
 <g transform="matrix(.52969 0 0 .52969 1.1159e-6 40.811)" data-name="Layer 2">
  <g id="outline">
   <g id="developer">
    <path id="chair" class="cls-1" d="m317.73 731.65-24.4-194.59c-9.61-76.61 45-138.72 122.06-138.72h128.85"/>
    <g id="body">
     <path id="hoodie" class="cls-1" d="m625 394.92 16-22.53-4.21-30.25c-1.13-2.14-2.29-4.37-3.48-6.67-87.37 13-98 49.61-78.38 88.82-144.93 28.3-208.03 250.76-170.33 356.31 10.74 30 19.36 60 51.27 60.34"/>
     <g id="tshirt" fill="#ff5361">
      <path class="cls-2" d="m670.57 475.79v-0.57c4.74 0.46 9.34 0.49 13.78-3.35 11-9.53 14.9-12.39 14.9-12.39s1 1.2 2.77 3.23c2.17-4 4.43-8.15 6.74-12.35-47.49-36.78-83.76-55.44-83.76-55.44l-2.68-1.92-17.44 21.27s28.38 19.56 65.69 61.52z"/>
      <path class="cls-2" d="m900.13 821.06s-76-204.39-66.33-267.73c5.27-34.55-3-73.73-14.42-104l-21.77 1.41-26.06 61.62c1.7 0.42 3.4 0.77 5.1 1 0 0-1 6.47-3.46 21.34-1.65 9.91 1.18 11 3.42 17.88 2.89 4.63 5.11 9.83 2.67 17.87-0.8 2.63-2.7 27.4-7 61 8 17 15.64 34.94 22.8 54 46.08 122.92 41.29 136.33 41.29 136.33z"/>
     </g>
     <path class="cls-1" d="m1157.5 839.33c-5.47-36-44.48-229.23-267.66-398.72-5-30.28-17.65-77.94-82.66-100.22" data-name="hoodie"/>
     <path id="string" class="cls-3" d="m851.9 542.57s-2.4 65.28 11.89 112.21"/>
     <path id="stripe" class="cls-4" d="m886.88 439.86c0.71 4.26 1.26 8.18 1.79 11.62 6.14 39.82-7 66.26-15.69 84.59 23.33-16.5 39.06-47.88 47-71.81-9.59-7.68-22.68-16.64-33.1-24.4z" fill="#5b37f0"/>
     <path id="stripe_II" class="cls-4" d="m557.24 422.52c-16.32 3.33-43.14 11.46-62.47 24.83 13.5 7.36 80.36 47.4 135 71.42 0.43-0.25 3.43-5.25 4.93-7.2-30.24-23.98-62.05-58.16-77.46-89.05z" fill="#5b37f0" data-name="stripe II"/>
    </g>
    <g id="head">
     <path id="ear" class="cls-1" d="m601.25 263.25s-37.11 10.06-22.09 41.75c10.44 22 30.26 14.18 42.08 7.51"/>
     <path id="face" class="cls-1" d="m611.15 269.27 11.66-3.91c7.69 4.65 33.09 36.21 41.28 51.85 0 0 37.29-24.19 95.5-39.66 0 0 31.69-7.24 45.47-6.66-4-32-12.18-72.88-26.58-109.43-21.42-54.33-87.7-33.25-97.32-30-103.37 35.17-70.11 137.58-70.11 137.58z"/>
     <path id="beard" class="cls-1" d="m727.49 403.37c-12.44 0-24.27-2.07-33.58-5.75-30.2-11.93-36.62-19.62-47.46-37.76s-44.81-87.39-44.81-87.39l21.17-7.11c7.69 4.65 33.09 36.21 41.28 51.85 0 0 37.29-24.19 95.5-39.66 0 0 32-7.32 45.69-6.66 0 0 6.54 32.54 2.62 64.44"/>
     <path id="hair" class="cls-4" d="m604.24 281.52s-19.12-22.17-32.93-48.66c-13-24.9-7.61-55.75 13.94-73.75 18.04-15.11 35.21-11.11 35.21-11.11s-31.06-31.64-6.57-72.57a61.32 61.32 0 0 1 39.38-28.38c40.2-8.81 61 21.85 61 21.85s23.1-89.19 122.31-64.65c10 2.48 23.23 13.06 30.2 20.66 42.22 46.09-37.32 133.09-85.71 150.51-53.13 19.12-87.3 18.07-108.18 9.13 15.01 4.57 15.56 89.24-68.65 96.97z" fill="#5b37f0"/>
     <polyline id="nose" class="cls-3" points="757.57 253.95 776.31 303.81 757.05 303.71"/>
     <circle id="mouth" class="cls-4" cx="747.28" cy="337.55" r="9.47" fill="#5b37f0"/>
     <path id="brow_II" class="cls-3" d="m693.66 229.94a24.85 24.85 0 0 1 20.58-14.69" data-name="brow II"/>
     <path id="brow" class="cls-3" d="m762.32 202.32s13.64-7.43 20.27 3.58"/>
    </g>
    <path id="laptop" class="cls-4" d="m1354 562.9h-388.8a11 11 0 0 0-10.7 8.47l-54.06 228.82h-140.93s-7.81 40.34 37.73 40.34h496.39a11 11 0 0 0 10.7-8.47l60.39-255.63a11 11 0 0 0-10.72-13.53z" fill="#5b37f0"/>
    <g id="code_lines" transform="translate(0 181.37)" data-name="code lines">
     <rect class="cls-2" x="1191.7" y="206.24" width="13.06" height="17.89" rx="5" fill="#ff5361"/>
     <rect class="cls-4" x="1096.9" y="206.24" width="89.8" height="17.89" rx="5" fill="#5b37f0"/>
     <rect class="cls-4" x="1096.9" y="289.34" width="97.93" height="17.89" rx="5" fill="#5b37f0"/>
     <rect class="cls-2" x="1121.6" y="261.67" width="151.89" height="17.89" rx="5" fill="#ff5361"/>
     <rect class="cls-2" x="1282" y="261.67" width="82.04" height="17.89" rx="5" fill="#ff5361"/>
     <g fill="#5b37f0">
      <rect class="cls-4" x="1378.8" y="234.01" width="13.06" height="17.89" rx="5"/>
      <rect class="cls-4" x="1096.9" y="233.96" width="157.06" height="17.89" rx="5"/>
      <rect class="cls-4" x="1210.5" y="206.24" width="89.8" height="17.89" rx="5"/>
     </g>
     <rect class="cls-2" x="1261" y="233.9" width="110.79" height="18" rx="5" fill="#ff5361"/>
    </g>
    <g id="mug">
     <path id="handle" class="cls-1" d="m1484.3 735.41a26.47 26.47 0 0 1 6.76-1.41 26.07 26.07 0 1 1-2.15 51.76"/>
     <line id="spoon" class="cls-1" x1="1421.5" x2="1384.2" y1="738.81" y2="693.31"/>
     <path transform="matrix(1.8879 0 0 1.8879 -2.1068e-6 -77.047)" d="m730.32 424.68v45.453a15.891 15.891 0 0 0 15.891 15.891h26.801a15.891 15.891 0 0 0 15.891-15.891v-45.453z" fill="#5b37f0" stroke-width=".52969"/>
     <g transform="matrix(1.6828 0 0 1.6828 488.48 -608.88)" fill="#fff" stroke-width=".59425">
      <path d="m582.51 804.08s-0.32006 11.504-16.547 11.415c-13.777-0.0756-14.069-8.5833-14.069-8.5833 1.5 14.159-2.8315 19.821-2.8315 19.821s-0.30799 2.0267-6.8134 1.6813c3.4437 4.911 16.488 14.615 27.01 12.034-1.5391-1.1385-2.2342-2.2364-3.1191-3.2077-0.23419 0.032-0.0226 0.0198-0.26534 0.0227-6.0886 0.03-11.238-5.0438-11.238-5.0438s11.472 5.4426 16.016-1.5042l-2.3892-2.5667c2.5804 0.0617 5.9393 2.7681 5.719 6.4299-1.5397-1.7508-1.3833-1.563-1.3833-1.563s-0.61853 0.62632-1.5042 1.5043c2.0307 1.0422 2.6735 1.6547 4.5317 2.8935 7.9402-1.9354 8.2531-19.113 6.8828-33.333zm-11.592 12.742c2.718 0 4.9552 2.2291 4.9552 4.9553 0 2.7262-2.2371 4.9553-4.9552 4.9553s-4.9551-2.2291-4.9551-4.9553c0-2.7262 2.2371-4.9553 4.9551-4.9553zm-11.768 1.4158c2.339 0 4.1588 1.9014 4.1588 4.2474 0 2.346-1.8198 4.2474-4.1588 4.2474-2.339 0-4.2473-1.9014-4.2473-4.2474 0-2.346 1.9083-4.2474 4.2473-4.2474z" enable-background="new" fill-rule="evenodd"/>
      <path d="m560.07 820.63c-0.92607 0-1.6769 0.73065-1.6769 1.632 0 0.90133 0.75082 1.632 1.6769 1.632 0.92611 0 1.6769-0.73064 1.6769-1.632 0-0.90138-0.75078-1.632-1.6769-1.632z"/>
      <ellipse cx="571.84" cy="821.76" rx="2.1397" ry="2.1043"/>
      <g>
       <path d="m542.35 821.12a6.298 4.9451 45.007 0 0-1.5874 0.18804 6.298 4.9451 45.007 0 0-2.2401 6.9359 6.298 4.9451 45.007 0 0 7.6881 3.9989 6.298 4.9451 45.007 0 0 2.24-6.9359 6.298 4.9451 45.007 0 0-6.1007-4.1869z" enable-background="new" fill-rule="evenodd"/>
       <path d="m576.09 843.72 1.3732-1.7138c-2.6928-3.4641-8.3809-6.9-8.3809-6.9-0.93576-0.8-1.5274 0.15462-0.95352 1.0104 0 0 4.2657 5.3773 7.9612 7.6034z"/>
       <path d="m583.13 849.38c-0.15207-4.7262-2.194-8.8198-6.0601-8.4733-3.1156 0.27922-3.5017 5.0311 0.39711 5.6417 5.9487 0.93163 5.663 2.8316 5.663 2.8316z"/>
      </g>
     </g>
    </g>
    <g id="tea">
     <path class="cls-1" d="m245.2 786a26.07 26.07 0 1 1-3.83-52 25.69 25.69 0 0 1 4.73 0.08" data-name="handle"/>
     <path id="ug" transform="matrix(1.8879 0 0 1.8879 -2.1068e-6 -77.047)" d="m128.08 424.68v45.453a15.891 15.891 0 0 0 15.891 15.891h26.807a15.891 15.891 0 0 0 15.891-15.891v-45.453z" fill="#5b37f0" stroke-width=".52969"/>
     <path d="m298.3 748.88-18.735 34.578 10.756 5.6801 25.055-10.106zm19.476 34.387-24.302 9.2338 10.576 16.421-25.715-23.192-7.2647 13.407 27.874 20.515 25.067-25.372z" fill="#fff"/>
    </g>
    <g id="hand">
     <path id="thumb" class="cls-1" d="m728.2 413.19c0.41-12.93 0.21-33.28-4.38-42.17-7.29-14.11-0.49-29.17 14.42-13.76 8.5 8.78 12.67 20.43 14.69 28.82"/>
     <circle class="cls-1" cx="854.1" cy="366.37" r="26.07"/>
     <path id="sleeve" class="cls-1" d="m685.24 843.52c76.2-5.69 91.36-264.23 94-273.06 5.29-17.44-11.32-21.53-9.14-35.34s0.49-20 0.49-20c-35.77-5.82-70.51-50.8-70.51-50.8s-3.6 2.63-13.85 11.39-21.69-4.7-33.39 8.72c-7.72 8.95-91.84 150.17-91.84 150.17"/>
     <path id="welt" class="cls-4" d="m773.19 534.71c2.48-14.87 3.46-21.34 3.46-21.34-38.09-5.86-77.37-53.89-77.37-53.89s-3.88 2.86-14.9 12.39c-4.44 3.84-9 3.81-13.78 3.35-3.37 41.71 71.45 78.84 106.89 80.59-2.26-10.02-6.17-9.81-4.3-21.1z" fill="#5b37f0"/>
     <path class="cls-1" d="m511.48 610.91s45.1-38.92 71.28-14.4" data-name="line"/>
     <path class="cls-1" d="m684.44 495.72 75.56 43.93 37.82-89.42c36.49 0.06 36.33-19.76 28.69-20.44s-44.33 4.47-44.33 4.47 1.19-2.67 31-8.33 24.21-22.27 17.8-22.72-53.78 11.42-53.78 11.42l40.7-14.53c14.49-4.6 15-18.64 7.43-20.62-5-1.31-31.66 6.75-52.76 14.13 0 0 25.36-13 37.39-20.86s3.62-18.11-3.41-17.47-55.87 33.3-65.17 41.39-56.94 99.05-56.94 99.05z" data-name="hand"/>
    </g>
    <g id="coffe">
     <path class="cls-1" d="m635.24 734.65a27.18 27.18 0 0 1 4.18-0.65 26.07 26.07 0 1 1-5.77 50.92" data-name="handle"/>
     <path transform="matrix(1.8879 0 0 1.8879 -2.1068e-6 -77.047)" d="m279.2 424.68v45.453a15.891 15.891 0 0 0 15.891 15.891h26.803a15.891 15.891 0 0 0 15.891-15.891v-45.453z" fill="#5b37f0" stroke-width=".52969"/>
    </g>
    <line class="cls-1" x1="3" x2="1639.5" y1="843.03" y2="843.03" data-name="line"/>
    <path class="cls-4" d="m853.73 417-5.54-85.63-110.37 7.15 3.75 57.94c9.81-8.39 58-40.57 64.95-41.2s15.44 9.62 3.41 17.47-37.39 20.86-37.39 20.86c21.1-7.38 47.79-15.44 52.76-14.13 7.58 2 7.06 16-7.43 20.62l-40.7 14.53s47.37-11.87 53.78-11.42 12 17.06-17.8 22.72-31 8.33-31 8.33 36.7-5.16 44.33-4.47 7.8 20.5-28.69 20.44l-0.21 0.49 28.12-1.82a30 30 0 0 0 28.03-31.88z" fill="#5b37f0"/>
    <rect transform="scale(-1,1)" x="-1144.6" y="268.12" width="34.594" height="34.558" fill="none" stop-color="#000000" stroke="#2e186a" stroke-linecap="round" stroke-linejoin="round" stroke-width="6px" style="font-variation-settings:normal;paint-order:fill markers stroke"/>
    <path d="m1206.7 176.83c53.759-81.224-44.637-125.82-83.307-60.035-11.182 19.023 14.194 53.875-12.267 82.13-23.592 25.191-71.436 1.2332-81.86 44.394-17.054 70.616 80.669 69.758 97.911 40.067" fill="none" stop-color="#000000" stroke="#2e186a" stroke-dasharray="5.99977, 11.9995" stroke-linecap="round" stroke-linejoin="round" stroke-width="5.9998" style="font-variation-settings:normal"/>
    <g transform="matrix(2.0319 0 0 2.0041 -1065.7 34.793)" stroke="#2e186a" stroke-linecap="round" stroke-linejoin="round" stroke-width="2.9733px">
     <path d="m1118.7 79.474v69.191l38.371-22.431v-70.121z" fill="#5b37f0" stop-color="#000000" style="font-variation-settings:normal"/>
     <path d="m1118.7 79.474v69.191l-38.371-22.431v-70.121z" fill="none" stop-color="#000000" style="font-variation-settings:normal"/>
     <path d="m1080.4 56.113 38.371 23.361 38.371-23.361-38.371-14.852z" fill="none" stop-color="#000000" style="font-variation-settings:normal"/>
    </g>
    <path id="line" class="cls-1" d="m427.34 690.13-13.67-24.81" fill="none" stroke="#2e186a" stroke-linecap="round" stroke-linejoin="round" stroke-width="6px"/>
    <path class="cls-1" d="m396.99 692.78h75.77" fill="none" stroke="#2e186a" stroke-linecap="round" stroke-linejoin="round" stroke-width="6px"/>
    <path transform="matrix(1.8879 0 0 1.8879 -2.1068e-6 -77.047)" d="m213.37 408.2-7.0391 9.1582a4.8466 4.8466 0 0 0-1.0586 2.9726v55.754a5.2121 5.2121 0 0 0 2.627 4.3711c2.177 1.356 4.9525 3.4534 5.1484 5.4609h34.594c0.19069-2.0075 2.9656-4.1049 5.1426-5.4609a5.2121 5.2121 0 0 0 2.6113-4.3809v-55.744a4.8731 4.8731 0 0 0-1.0371-2.9726l-7.0391-9.1582z" fill="#5b37f0" stroke-width=".52969"/>
    <g fill="#fff">
     <g transform="matrix(1.8652 0 -.19605 1.8652 1035 590.45)" stroke-width="1.0122">
      <path d="m57.996 68.15c-0.40289 0.0064-0.79815 0.0687-1.1855 0.1875-1.0193 0.30303-1.8738 0.77068-2.5625 1.4043-1.9697 1.8871-3.5055 4.6834-4.6074 8.3887-1.1019 3.7052-1.4522 6.619-1.0527 8.7402 0.34436 1.584 1.5145 2.631 3.5117 3.1406 0.88154 0.16529 2.0459-0.32354 3.4922-1.4668 1.4463-1.1433 2.4374-2.2249 2.9746-3.2441 0.12397-0.33058 8.1e-4 -0.64043-0.37109-0.92969l-0.80664-0.49609c-0.30303-0.17906-0.58399-0.15213-0.8457 0.08203-1.5289 1.7218-2.8107 2.7764-3.8438 3.1621-1.157-0.22038-1.5439-1.3636-1.1582-3.4297 2.8512-1.0055 5.2627-2.5144 7.2324-4.5254 1.9835-2.0248 2.9823-4.1726 2.9961-6.4453 0.01379-2.2727-0.55206-3.6507-1.6953-4.1328-0.71454-0.30131-1.4066-0.44631-2.0781-0.43555zm-0.27734 2.9766c0.66116 0 0.99219 0.57159 0.99219 1.7148 0 1.1433-0.30985 2.2595-0.92969 3.3477-0.60606 1.0882-1.3836 2.01-2.334 2.7676-0.93664 0.75758-2.0664 1.4196-3.3887 1.9844 0.53719-2.3141 1.2878-4.5254 2.252-6.6328 0.97797-2.1212 2.1134-3.1816 3.4082-3.1816z" style="font-variant-caps:normal;font-variant-east-asian:normal;font-variant-ligatures:normal;font-variant-numeric:normal"/>
      <path d="m42.574 57.43c-0.67494-1e-6 -1.0945 0.30985-1.2598 0.92969l-7.748 29.812c-0.22039 0.90909 0.1934 1.3652 1.2402 1.3652h0.70312c0.68871 0 1.116-0.30985 1.2812-0.92969l2.416-9.4434 2.748 9.4434c0.11019 0.39945 0.24106 0.65347 0.39258 0.76367 0.15151 0.11019 0.44019 0.16602 0.86719 0.16602h1.1367c0.854 0 1.1504-0.37914 0.88867-1.1367l-3.2852-10.332 7.2734-8.5527c0.33058-0.35813 0.48068-0.68916 0.45312-0.99219-0.02757-0.31681-0.2604-0.47461-0.70117-0.47461h-1.5703c-0.53719 0-0.91633 0.15205-1.1367 0.45508l-6.4043 8.0371 4.627-18.141c0.16529-0.64739-0.15032-0.9707-0.94922-0.9707z" style="font-variant-caps:normal;font-variant-east-asian:normal;font-variant-ligatures:normal;font-variant-numeric:normal"/>
      <path d="m64.166 59.02c-1.6332 0.36529-2.2889 2.3281-1.7773 3.709l23.203 0.78516-26.07 47.475c0.53065 1.3392 1.9114 1.9314 3.2773 1.8008l27.533-50.137c0.67041-1.2209-0.18226-2.7205-1.5742-2.7695z" style="font-variant-caps:normal;font-variant-east-asian:normal;font-variant-ligatures:normal;font-variant-numeric:normal"/>
      <path d="m86.896 26.348-1.4453 0.04102c-0.42699 0-0.72338 0.28096-0.88867 0.8457-0.86777-0.53719-1.7704-0.80469-2.707-0.80469-1.6942 0-3.0991 0.56388-4.2148 1.6934-1.1157 1.1295-2.1896 3.1272-3.2227 5.9922-1.0193 2.8512-1.6602 5.1241-1.9219 6.8184-0.24794 1.6942-0.28257 2.8509-0.10352 3.4707 0.19284 0.61984 0.5104 1.2068 0.95117 1.7578 0.45455 0.55097 0.9222 0.98973 1.4043 1.3203 0.48209 0.31681 0.8343 0.47656 1.0547 0.47656h0.08203c0.48209 0 1.1018-0.35221 1.8594-1.0547 0.77135-0.70248 1.4681-1.5762 2.0879-2.623l-2.0254 7.3965c-0.28926 1.0468-0.75692 1.4317-1.4043 1.1562l-4.6914-2.8926c-0.4821-0.27548-0.94975-0.15808-1.4043 0.35156l-0.64062 0.88867c-0.44077 0.67493-0.32337 1.1849 0.35156 1.5293l4.3184 2.4375c0.89532 0.50964 1.5631 0.75021 2.0039 0.72266 0.44077-0.02757 1.0528-0.28158 1.8379-0.76367 1.5014-0.81267 2.6176-2.5352 3.3477-5.166 3.4986-12.411 5.5714-19.91 6.2188-22.5 0.13774-0.75758-0.14518-1.1213-0.84766-1.0938zm6.4883 0c-0.64738 0-1.04 0.28097-1.1777 0.8457l-5.1641 19.67c-0.16529 0.64738 0.14456 0.9707 0.92969 0.9707h1.2383c0.67493 4e-6 1.0964-0.30985 1.2617-0.92969l5.123-19.67c0.08265-0.34435 0.06145-0.5772-0.0625-0.70117-0.12397-0.12397-0.37028-0.18555-0.74219-0.18555zm-11.441 2.5703c0.58885 0.02757 1.235 0.2383 1.9375 0.63086l-0.125 0.39258c-0.92287 3.3471-1.7697 6.0126-2.541 7.9961-0.75758 1.9697-1.6794 3.5748-2.7676 4.8145-1.0882 1.2397-1.8657 1.742-2.334 1.5078-0.45455-0.23416-0.70282-0.60559-0.74414-1.1152-0.04133-0.50964 0.06837-1.4815 0.33008-2.9141 0.27548-1.4463 0.88172-3.442 1.8184-5.9902 0.95042-2.562 1.8934-4.1805 2.8301-4.8555 0.47521-0.33747 1.0069-0.49435 1.5957-0.4668z" style="font-variant-caps:normal;font-variant-east-asian:normal;font-variant-ligatures:normal;font-variant-numeric:normal"/>
      <path d="m52.951 26.16-0.9707 0.04297c-0.53719 0-0.86246 0.32908-0.97266 0.99023-0.854-0.50964-1.7489-0.76367-2.6855-0.76367-1.6804-0.02755-3.0777 0.53633-4.1934 1.6934-1.1157 1.157-2.2031 3.2028-3.2637 6.1367-1.0606 2.9339-1.7092 5.2203-1.9434 6.8594-0.22039 1.6254-0.23384 2.7474-0.04102 3.3672 0.20661 0.61984 0.53764 1.1914 0.99219 1.7148 0.45455 0.52342 0.90874 0.95067 1.3633 1.2812 0.46832 0.3168 0.81857 0.47656 1.0527 0.47656h0.08398c0.30303 0 0.73604-0.19245 1.3008-0.57812 0.56474-0.39945 1.248-1.1231 2.0469-2.1699l0.78516 2.334c0.12397 0.35813 0.378 0.51017 0.76367 0.45508 1.3361-0.30304 2.485-0.82651 3.4492-1.5703 0.97796-0.75758 2.0461-1.8122 3.2031-3.1621 0.30303-0.39946 0.23374-0.7497-0.20703-1.0527l-1.0312-0.68164c-0.38568-0.26171-0.73788-0.16548-1.0547 0.28906-0.86777 1.2121-1.7435 2.1417-2.625 2.7891l5.084-16.922c0.27548-0.99174-0.10365-1.5017-1.1367-1.5293zm7.334 0.1875c-0.427 0-0.70796 0.36372-0.8457 1.0938l-5.125 19.299c-0.08265 0.27548-0.06147 0.52951 0.0625 0.76367 0.1102 0.22039 0.24682 0.33008 0.41211 0.33008h1.1777c0.45455 0 0.79329-0.1982 1.0137-0.59766 0.90909-1.6667 2.4506-4.1609 4.627-7.4805 1.157-1.8044 2.1155-3.319 2.873-4.5449 0.75758-1.2259 1.4042-2.2247 1.9414-2.9961 0.45455-0.67493 0.81251-1.1368 1.0742-1.3848 0.27548-0.26171 0.51029-0.39258 0.70312-0.39258 0.19284 0 0.28906 0.12511 0.28906 0.37305 0 0.23416-0.1097 0.72875-0.33008 1.4863l-4.4434 14.525c-0.19284 0.67493-0.08119 1.0117 0.33203 1.0117h2.2109c0.3719 0 0.599-0.1982 0.68164-0.59766l4.7305-17.254c0.3168-1.0468 0.39185-1.8378 0.22656-2.375-0.15152-0.53719-0.35743-0.88168-0.61914-1.0332-0.24794-0.15152-0.59819-0.22656-1.0527-0.22656h-0.88867c-0.70248 0-1.5493 0.3849-2.541 1.1562-0.97796 0.77136-1.9364 1.9222-2.873 3.4512l-4.4004 7.2715 3.1816-10.66c0.22039-0.81268-0.0067-1.2188-0.68164-1.2188zm-11.963 2.5605c0.61295 7e-3 1.2962 0.22052 2.0469 0.64062-1.0468 3.7052-1.9706 6.5632-2.7695 8.5742-0.78513 2.011-1.707 3.5949-2.7676 4.752-1.0468 1.157-1.7974 1.6189-2.252 1.3848-0.45454-0.23416-0.70282-0.60559-0.74414-1.1152-0.04133-0.50964 0.06837-1.4661 0.33008-2.8711 0.27548-1.4187 0.86054-3.3683 1.7559-5.8477 0.90909-2.4793 1.8329-4.1191 2.7695-4.918 0.47521-0.40634 1.0179-0.6065 1.6309-0.59961z" style="font-variant-caps:normal;font-variant-east-asian:normal;font-variant-ligatures:normal;font-variant-numeric:normal"/>
      <path d="m94.832 19.9c-0.59229 0-1.0888 0.20787-1.4883 0.62109-0.38568 0.41323-0.57812 0.89435-0.57812 1.4453 0 0.55097 0.18669 1.0321 0.55859 1.4453 0.38567 0.39945 0.81868 0.59961 1.3008 0.59961h0.33008c0.61984 0 1.1376-0.19245 1.5508-0.57812 0.41322-0.39945 0.61914-0.87482 0.61914-1.4258 0-0.55096-0.20016-1.0398-0.59961-1.4668-0.39945-0.427-0.83246-0.64062-1.3008-0.64062z" style="font-variant-caps:normal;font-variant-east-asian:normal;font-variant-ligatures:normal;font-variant-numeric:normal"/>
      <path d="m104.17 18.846c-0.67493 0-1.0945 0.3118-1.2598 0.93164l-1.6953 6.5703h-1.6934c-0.45455 0-0.7644 0.2675-0.92969 0.80469l-0.33008 1.1367c-0.20661 0.67493-0.02766 1.0117 0.53711 1.0117h1.6934l-4.4004 17.17c-0.08265 0.39945-0.03453 0.73048 0.14453 0.99219 0.19284 0.24794 0.51615 0.37109 0.9707 0.37109h0.78516c0.68871 4e-6 1.116-0.30985 1.2812-0.92969l4.4844-17.604h2.1895c0.53719 0 0.90862-0.30985 1.1152-0.92969l0.28906-1.0938c0.19285-0.61984-0.0208-0.92969-0.64062-0.92969h-2.1895l1.6524-6.5293c0.16529-0.64738-0.14456-0.97266-0.92969-0.97266z" style="font-variant-caps:normal;font-variant-east-asian:normal;font-variant-ligatures:normal;font-variant-numeric:normal"/>
      <path d="m31.133 17.193c-0.67493 0-1.0945 0.30985-1.2598 0.92969l-7.252 28.41c-0.08265 0.35813-0.04224 0.66799 0.12305 0.92969 0.15152 0.24794 0.39207 0.3711 0.72266 0.37109h11.57c0.75758 4e-6 1.206-0.29443 1.3438-0.88672l0.28906-1.0547c0.06886-0.26171 0.04193-0.4888-0.08203-0.68164-0.1102-0.19284-0.28917-0.28906-0.53711-0.28906h-9.5664l6.7148-26.406c0.09642-0.3719 0.06178-0.68175-0.10352-0.92969-0.15152-0.26171-0.39208-0.39258-0.72266-0.39258z" style="font-variant-caps:normal;font-variant-east-asian:normal;font-variant-ligatures:normal;font-variant-numeric:normal"/>
     </g>
     <path d="m555.71 753.76c-3.6488 0.47822-6.1461 2.0287-5.6163 6.3917l26.342 23.185 5.6954-6.6034zm26.834 3.9202a25.213 25.213 0 0 0-12.891 3.5682l16.757 14.798-9.9702 11.582-16.834-15.117a25.213 25.213 0 0 0-2.2394 10.381 25.213 25.213 0 0 0 25.215 25.215 25.213 25.213 0 0 0 25.212-25.215 25.213 25.213 0 0 0-25.212-25.212 25.213 25.213 0 0 0-0.0382 0zm4.591 25.636c1.6541-0.11375 3.3737 0.6531 4.6089 2.8209 3.9524 6.937-4.211 14.803-4.211 14.803 0.69584-2.2677-0.40784-4.8961-4.5272-9.6156-2.8321-3.2447 0.4904-7.7584 4.1294-8.0088z" stop-color="#000000" style="font-variation-settings:normal;paint-order:fill markers stroke"/>
     <path d="m419.02 775.23c0.0143 0.83813 0.28366 2.4716 0.68561 3.7502 0.84524 2.6997 2.2792 5.1984 4.2762 7.402a22.105 22.105 0 0 0 7.479 5.3694 24.048 24.048 0 0 0 9.8237 2.044 24.122 24.122 0 0 0 9.8209-2.0768c2.9106-1.3028 5.4293-3.1259 7.4762-5.3937 1.9927-2.2093 3.4252-4.7152 4.2718-7.4163 0.42626-1.3655 0.69275-2.7496 0.80251-4.1393 0.107-1.3684 0.0613-2.741-0.13269-4.1108a19.117 19.117 0 0 0-2.7253-7.4604 20.908 20.908 0 0 0-4.9732-5.4834l2e-3 -2e-3 -20.124-15.454-0.0514-0.0414c-1.3228-1.012-3.5435-1.0092-4.9945 7e-3 -1.4696 1.0277-1.6349 2.7253-0.32926 3.7986l-5e-3 5e-3 8.3926 6.8276-25.586 0.0257h-0.0357c-2.1139 1e-3 -4.145 1.3912-4.5498 3.143-0.41051 1.7874 1.0263 3.2684 3.2228 3.2784v5e-3l12.967-0.0243-23.143 17.762-0.0884 0.0671c-2.1808 1.6705-2.8878 4.4514-1.5138 6.2103 1.3969 1.7903 4.3631 1.7917 6.5696 0.01l12.629-10.334s-0.18238 1.3969-0.16954 2.2336zm32.452 4.6696c-2.6014 2.6541-6.2418 4.1564-10.187 4.1635-3.9455 0.01-7.5888-1.4824-10.192-4.1308a12.107 12.107 0 0 1-2.7824-4.3545 11.326 11.326 0 0 1-0.63998-4.8634 11.504 11.504 0 0 1 1.3969-4.5812 12.652 12.652 0 0 1 3.096-3.6818c2.5286-2.0625 5.7471-3.1772 9.1182-3.1815 3.371-5e-3 6.5896 1.1018 9.1182 3.1558a12.592 12.592 0 0 1 3.096 3.6689c0.77397 1.4026 1.2543 2.9505 1.3969 4.5783a11.335 11.335 0 0 1-0.63998 4.8634 12.173 12.173 0 0 1-2.7809 4.3631m-18.598-9.0156c0.11818-2.1466 1.1716-4.041 2.7581-5.3822 1.5579-1.3185 3.6518-2.1238 5.9382-2.1238 2.2863 0 4.3802 0.80534 5.9381 2.1238 1.5865 1.3413 2.6384 3.2356 2.7596 5.3808 0.12127 2.2093-0.76542 4.2619-2.3219 5.7799-1.5865 1.5465-3.8471 2.5186-6.3758 2.5186-2.5286 0-4.7907-0.9721-6.3772-2.5186-1.5565-1.5195-2.4417-3.5706-2.3191-5.7785" stroke-width=".59943"/>
    </g>
    <rect x="1265.6" y="134.86" width="34.594" height="34.558" fill="none" stop-color="#000000" stroke="#2e186a" stroke-linecap="round" stroke-linejoin="round" stroke-width="6px" style="font-variation-settings:normal;paint-order:fill markers stroke"/>
    <path d="m1303.2 208.99-18.437-61.649 55.7 24.023-27.898 9.5917z" fill="#5b37f0" stop-color="#000000" stroke="#2e186a" stroke-linecap="round" stroke-linejoin="round" stroke-width="6px" style="font-variation-settings:normal"/>
   </g>
  </g>
 </g>
</svg>
