<?xml version="1.0" encoding="UTF-8" standalone="no"?>
<svg
   xmlns:dc="http://purl.org/dc/elements/1.1/"
   xmlns:cc="http://creativecommons.org/ns#"
   xmlns:rdf="http://www.w3.org/1999/02/22-rdf-syntax-ns#"
   xmlns:svg="http://www.w3.org/2000/svg"
   xmlns="http://www.w3.org/2000/svg"
   xmlns:sodipodi="http://sodipodi.sourceforge.net/DTD/sodipodi-0.dtd"
   xmlns:inkscape="http://www.inkscape.org/namespaces/inkscape"
   viewBox="0 0 870 530"
   version="1.1"
   id="svg59"
   sodipodi:docname="service-b1.svg"
   inkscape:version="1.0.1 (unknown)"
   width="870"
   height="530">
  <metadata
     id="metadata63">
    <rdf:RDF>
      <cc:Work
         rdf:about="">
        <dc:format>image/svg+xml</dc:format>
        <dc:type
           rdf:resource="http://purl.org/dc/dcmitype/StillImage" />
      </cc:Work>
    </rdf:RDF>
  </metadata>
  <sodipodi:namedview
     pagecolor="#ffffff"
     bordercolor="#666666"
     borderopacity="1"
     objecttolerance="10"
     gridtolerance="10"
     guidetolerance="10"
     inkscape:pageopacity="0"
     inkscape:pageshadow="2"
     inkscape:window-width="1366"
     inkscape:window-height="703"
     id="namedview61"
     showgrid="false"
     inkscape:zoom="0.93678161"
     inkscape:cx="381.52884"
     inkscape:cy="207.74571"
     inkscape:window-x="0"
     inkscape:window-y="0"
     inkscape:window-maximized="1"
     inkscape:current-layer="Layer_2"
     inkscape:document-rotation="0"
     inkscape:snap-global="false" />
  <defs
     id="defs4">
    <inkscape:path-effect
       effect="bend_path"
       id="path-effect888"
       is_visible="true"
       lpeversion="1"
       bendpath="m 1336.5424,297.59371 c 42.2905,-21.08861 85.4235,-18.52952 121.2344,0"
       prop_scale="1"
       scale_y_rel="false"
       vertical="false"
       hide_knot="false"
       bendpath-nodetypes="cc" />
    <style
       id="style2">.cls-1{fill:#5d21d1;}.cls-2,.cls-5,.cls-7{fill:none;}.cls-2{stroke:#fe7624;}.cls-2,.cls-5,.cls-6,.cls-7{stroke-linecap:round;stroke-linejoin:round;stroke-width:6px;}.cls-3{fill:#fe7624;}.cls-4,.cls-6{fill:#fff;}.cls-5{stroke:#fff;}.cls-6,.cls-7{stroke:#2e186a;}</style>
  </defs>
  <g
     id="Layer_2"
     data-name="Layer 2"
     transform="translate(-996.78998,3.3823299)">
    <g
       id="solid_II"
       data-name="solid II">
      <g
         id="product_launch"
         data-name="product launch">
        <g
           id="g954"
           transform="matrix(0.69767442,0,0,0.69767442,996.78998,13.447482)">
          <g
             id="laptop">
            <path
               id="laptop-2"
               data-name="laptop"
               class="cls-3"
               d="m 924.36,454.1 -362,2.35 a 15.25,15.25 0 0 0 -13.45,7.62 L 432.18,676.6 135.4,676.8 c 0,0 -5.11,29.77 37.63,31.63 l 640,-0.83 L 938,473.1 c 4.75,-8.87 -2.59,-19.1 -13.64,-19 z"
               style="fill:#ff5361;fill-opacity:1" />
            <path
               id="screen"
               class="cls-4"
               d="M 469.36,675.76 775,674.45 869.56,490.17 c 3.67,-7.06 -1.18,-15.71 -8.76,-15.63 l -277.78,3.37 z" />
            <path
               class="cls-5"
               d="M 784.39,707.6 908.17,476.31 c 4.72,-8.88 -2.62,-19.08 -13.67,-19"
               id="path24" />
          </g>
          <g
             id="g904">
            <path
               id="flag"
               class="cls-1"
               d="m 1034.6,613.41 c -12.71,7.12 -36.19,15.62 -55.63,-3.35 -20,-19.5 -34.33,-19.13 -41,-17.25 a 4.92,4.92 0 0 0 -5.27,2.44 l -42.05,76.47 a 18.92,18.92 0 0 1 -16.58,9.8 H 737 a 4.9,4.9 0 1 0 0,9.8 h 137.07 a 28.72,28.72 0 0 0 25.17,-14.88 l 24.63,-44.79 c 9.17,1.17 21.68,5.33 33.42,16.79 22.55,22 49.1,9.56 58.83,3.69 a 16.1,16.1 0 0 0 5.72,-5.87 l 16.47,-29.14 a 2.72,2.72 0 0 0 -3.71,-3.71 z"
               style="fill:#5b37f0;fill-opacity:1" />
            <g
               id="flags">
              <path
                 class="cls-1"
                 d="m 354.21,524.93 a 2.46,2.46 0 0 0 -3.42,-1.08 c -0.39,0.22 -4.63,2.82 -22.91,11.88 l -8.45,4.13 c -39.9,19.22 -98.77,43.62 -122.74,33.54 a 2.45,2.45 0 0 0 -2.77,0.61 c -0.08,0.09 -8.7,9.43 -27.47,18.16 -17.34,8.07 -47.14,17.26 -90.63,15.21 a 2.45,2.45 0 0 0 -2.54,2.82 2.52,2.52 0 0 0 2.4,2.08 c 3.88,0.18 7.64,0.27 11.31,0.29 l 1.76,11.82 a 2.81,2.81 0 0 0 5.22,1 l 7.57,-13.17 c 5.34,-0.3 10.43,-0.77 15.26,-1.37 l 2.75,10.24 a 2.81,2.81 0 0 0 5.26,0.45 l 6,-12.94 c 4.06,-0.8 7.9,-1.69 11.52,-2.64 l 2.29,8.52 a 2.81,2.81 0 0 0 5.26,0.45 l 6.16,-13.21 c 4.55,-1.63 8.61,-3.31 12.17,-5 l 1.6,5.94 a 2.81,2.81 0 0 0 5.26,0.46 l 6.22,-13.36 a 87.47,87.47 0 0 0 15,-11.26 c 5,1.76 11.27,2.31 18.29,1.92 l 4.17,10.36 a 2.81,2.81 0 0 0 5.23,-0.06 l 4.56,-12.07 c 4.36,-0.81 8.89,-1.84 13.54,-3.08 l 1.89,8.09 a 2.81,2.81 0 0 0 5.24,0.63 l 6.46,-12.75 c 4.38,-1.42 8.8,-3 13.24,-4.59 l 1.67,7.32 a 2.81,2.81 0 0 0 5.19,0.75 l 7.75,-13.74 c 3.93,-1.59 7.83,-3.23 11.66,-4.89 l 1.88,7 a 2.81,2.81 0 0 0 5.26,0.46 l 6.24,-13.4 c 4.18,-1.92 8.24,-3.83 12.12,-5.7 l 1.52,5.66 a 2.81,2.81 0 0 0 5.26,0.45 l 5.7,-12.24 c 15.54,-7.8 18.37,-9.59 19.87,-10.44 a 2.54,2.54 0 0 0 1.18,-3.25 z"
                 id="path7"
                 style="fill:#5b37f0;fill-opacity:1" />
              <path
                 class="cls-1"
                 d="m 473.27,489.66 a 2.45,2.45 0 0 0 -2.76,0.62 c -0.09,0.09 -8.71,9.43 -27.47,18.16 -17.34,8.07 -47.15,17.26 -90.64,15.21 a 2.45,2.45 0 0 0 -2.54,2.82 2.52,2.52 0 0 0 2.41,2.08 c 3.88,0.18 7.64,0.27 11.31,0.28 l 1.72,11.57 a 2.9,2.9 0 0 0 5.38,1 l 7.44,-12.95 c 5.35,-0.3 10.43,-0.77 15.26,-1.37 l 2.69,10 a 2.9,2.9 0 0 0 5.43,0.47 l 5.92,-12.72 c 4.07,-0.8 7.91,-1.69 11.52,-2.64 l 3.18,9.55 a 2.9,2.9 0 0 0 5.47,0.08 L 432.65,518 c 4.56,-1.63 8.61,-3.31 12.18,-5 l 1.53,5.71 a 2.9,2.9 0 0 0 5.43,0.47 l 6.12,-13.14 a 87.54,87.54 0 0 0 15,-11.27"
                 id="path9"
                 style="fill:#5b37f0;fill-opacity:1" />
              <path
                 class="cls-1"
                 d="m 1110.4,545.61 a 2.45,2.45 0 0 0 -3.25,-1.44 c -38.52,16.07 -79,8 -120.3,-23.91 -31.06,-24 -50.89,-53.25 -51.09,-53.54 a 2.4503979,2.4503979 0 0 0 -4.07,2.73 233.69,233.69 0 0 0 16.2,20.49 l 4.94,23.47 a 2.89,2.89 0 0 0 5.31,0.89 l 4.94,-8.3 c 4.16,4.05 8.66,8.18 13.49,12.24 l 5.23,18.08 a 2.89,2.89 0 0 0 5.21,0.75 l 4.6,-7.22 q 6.18,4.33 12.37,8 l 7.25,20.33 a 2.89,2.89 0 0 0 5.23,0.46 l 6.38,-11.25 q 5.94,2.49 11.87,4.34 l 9.36,16.45 a 2.89,2.89 0 0 0 5.27,-0.59 l 3.55,-11.68 a 107.25,107.25 0 0 0 15.32,1.13 h 1.24 l 10.13,13.17 a 2.89,2.89 0 0 0 5.06,-1 l 4.11,-14.25 a 108,108 0 0 0 20.16,-6.2 2.54,2.54 0 0 0 1.49,-3.15 z"
                 id="path11"
                 style="fill:#5b37f0;fill-opacity:1" />
              <line
                 class="cls-2"
                 x1="75.360001"
                 y1="708.44"
                 x2="75.360001"
                 y2="609.59003"
                 id="line13"
                 style="stroke:#ff5361;stroke-opacity:1" />
              <line
                 class="cls-2"
                 x1="195.74001"
                 y1="575.65002"
                 x2="195.74001"
                 y2="706.84003"
                 id="line15"
                 style="stroke:#ff5361;stroke-opacity:1" />
              <line
                 class="cls-2"
                 x1="352.32999"
                 y1="525.82001"
                 x2="352.32999"
                 y2="706.64001"
                 id="line17"
                 style="stroke:#ff5361;stroke-opacity:1" />
              <line
                 class="cls-2"
                 x1="1108.37"
                 y1="546.04999"
                 x2="1108.37"
                 y2="708.44"
                 id="line19"
                 style="stroke:#ff5361;stroke-opacity:1" />
            </g>
            <g
               id="rocket">
              <path
                 class="cls-1"
                 d="m 485.7,548.42 33.5,61.63 a 3.28,3.28 0 0 0 6.12,-1.64 l -2.24,-28 c 0,0 19.59,67.45 46.47,69.13 26.88,1.68 52.73,-71 52.73,-71 L 615.22,609 a 3.28,3.28 0 0 0 6.12,1.64 l 35.8,-62.23"
                 id="path27"
                 style="fill:#5b37f0;fill-opacity:1" />
              <path
                 class="cls-1"
                 d="m 443.8,310.24 c 0,0 -79.87,108.2 -69.6,205 H 550.49 V 308 Z"
                 id="path29"
                 style="fill:#5b37f0;fill-opacity:1" />
              <path
                 class="cls-1"
                 d="m 695,310.24 c 0,0 79.87,108.2 69.6,205 H 588.33 V 308 Z"
                 id="path31"
                 style="fill:#5b37f0;fill-opacity:1" />
              <path
                 class="cls-6"
                 d="m 641.34,515.24 c 67.7,-121.71 60.33,-218.32 40.56,-284.5 -19.77,-66.18 -66.18,-140 -110.3,-140 -44.12,0 -90.52,73.78 -110.3,140 -19.78,66.22 -28.15,162.79 39.55,284.5 L 481.92,556 h 178.47 l -19,-40.75 z"
                 id="path33" />
              <ellipse
                 class="cls-1"
                 cx="571.59998"
                 cy="281.09"
                 rx="50.450001"
                 ry="60"
                 id="ellipse35"
                 style="fill:#5b37f0;fill-opacity:1" />
              <ellipse
                 class="cls-1"
                 cx="571.59998"
                 cy="358.13"
                 rx="8.4099998"
                 ry="10"
                 id="ellipse37"
                 style="fill:#5b37f0;fill-opacity:1" />
              <ellipse
                 class="cls-1"
                 cx="603.95001"
                 cy="358.13"
                 rx="8.4099998"
                 ry="10"
                 id="ellipse39"
                 style="fill:#5b37f0;fill-opacity:1" />
              <ellipse
                 class="cls-1"
                 cx="536.65002"
                 cy="358.13"
                 rx="8.4099998"
                 ry="10"
                 id="ellipse41"
                 style="fill:#5b37f0;fill-opacity:1" />
              <ellipse
                 class="cls-6"
                 cx="571.59998"
                 cy="275.23999"
                 rx="38.060001"
                 ry="45.259998"
                 id="ellipse43" />
              <path
                 class="cls-1"
                 d="M 580.5,89 V 18.13 c 0,-0.22 0,-0.44 0,-0.65 a 11,11 0 1 0 -17.75,0 c 0,0.21 0,0.43 0,0.65 v 70.76 c -18.5,3.79 -37,19.3 -53.89,40.06 a 237.21,237.21 0 0 1 66.95,-5.37 343.43,343.43 0 0 1 61.16,8.78 C 619.46,110 599.89,93.22 580.5,89 Z"
                 id="path45"
                 style="fill:#ff5361;fill-opacity:1" />
              <path
                 class="cls-1"
                 d="m 653.73,169.27 a 278,278 0 0 0 -81.59,-15.21 c -34.79,-1.33 -61.22,6.46 -82.94,15 a 322.69,322.69 0 0 0 -23.12,53.7 c 26,-12.67 57.86,-26.06 106.8,-25.17 46.46,0.84 78.47,11.06 102.75,21.88 a 322.83,322.83 0 0 0 -21.9,-50.2 z"
                 id="path47"
                 style="fill:#ff5361;fill-opacity:1" />
              <path
                 class="cls-1"
                 d="m 638.65,514.77 q 4.83,-8.68 9.16,-17.2 c -15.33,-6.24 -37.31,-11.37 -76.39,-11 -39.53,-0.33 -61.6,5 -76.89,11.32 q 4.29,8.4 9.05,17 c 0,0 34.7,-6.76 67.84,-6.48 32.58,-0.34 67.23,6.36 67.23,6.36 z"
                 id="path49"
                 style="fill:#5b37f0;fill-opacity:1" />
            </g>
            <g
               id="clouds">
              <path
                 id="cloud"
                 class="cls-6"
                 d="M 823.1,674.45 H 665.88 c 0,0 -22.63,-20.3 -12.24,-36.9 10.39,-16.6 37.71,-20.59 46.56,-3.84 0,0 3.86,-32.1 36.81,-29.63 32.95,2.47 30.36,36.79 30.36,36.79 0,0 41.71,-29.53 40.6,16.6 0.03,0 2.66,16.94 15.13,16.98 z" />
              <path
                 id="cloud-2"
                 data-name="cloud"
                 class="cls-6"
                 d="m 322.62,674.71 h 157.21 c 0,0 22.64,-20.29 12.24,-36.9 -10.4,-16.61 -37.7,-20.59 -46.56,-3.84 0,0 -3.85,-32.09 -36.8,-29.63 -32.95,2.46 -30.37,36.79 -30.37,36.79 0,0 -41.7,-29.52 -40.59,16.61 0,0 -2.67,16.93 -15.13,16.97 z" />
            </g>
            <line
               id="line"
               class="cls-7"
               x1="3"
               y1="708.44"
               x2="1244"
               y2="708.44" />
            <path
               style="fill:#5b37f0;fill-opacity:1;stroke:none;stroke-width:0.829759px;stroke-linecap:butt;stroke-linejoin:miter;stroke-opacity:1"
               d="m 159.02733,249.04896 h 223.74773 c 0,0 18.47122,-54.34774 -16.56043,-72.19082 -35.03165,-17.84308 -47.95245,29.05639 -47.95245,29.05639 0,0 -2.27476,-35.19505 -44.76772,-33.23067 -42.49295,1.96437 -38.12539,47.22688 -38.12539,47.22688 0,0 -29.48116,-14.56911 -33.48479,0 -4.00363,14.56911 4.09461,18.0886 4.09461,18.0886 z"
               id="path888" />
            <path
               style="fill:#5b37f0;fill-opacity:1;stroke:none;stroke-width:0.503345px;stroke-linecap:butt;stroke-linejoin:miter;stroke-opacity:1"
               d="m 788.36618,359.6266 h 135.72883 c 0,0 11.20491,-32.96818 -10.04579,-43.79206 -21.25077,-10.82389 -29.55437,10.56521 -29.55437,10.56521 0,0 -0.91426,-14.28902 -26.69115,-13.0974 -25.77687,1.19162 -23.12745,28.64856 -23.12745,28.64856 0,0 -8.70374,-9.43624 -15.85543,-2.03449 -6.36868,6.59135 -1.9731,13.00731 -1.9731,13.00731 z"
               id="path890"
               sodipodi:nodetypes="ccscscscc" />
          </g>
        </g>
      </g>
    </g>
    <path
       id="path871"
       style="font-style:normal;font-variant:normal;font-weight:bold;font-stretch:normal;font-size:40px;line-height:1.25;font-family:sans-serif;-inkscape-font-specification:'sans-serif, Bold';font-variant-ligatures:normal;font-variant-caps:normal;font-variant-numeric:normal;font-variant-east-asian:normal;letter-spacing:4px;word-spacing:10px;fill:#5b37f0;fill-opacity:1;stroke:none;stroke-width:1"
       d="m 1430.2062,290.25841 -1.3133,5.76248 c 2.6295,0.59832 5.2417,1.26904 7.8331,2.01053 l 1.6282,-5.68327 c -2.6951,-0.77067 -5.4123,-1.46779 -8.148,-2.08974 z m 20.2395,8.65278 -2.3122,6.01062 c -1.2259,-0.4715 -2.458,-0.92649 -3.6963,-1.3648 l -1.7304,4.88683 c 1.1943,0.42288 2.3829,0.86185 3.5655,1.31671 l -3.4536,8.97812 c -1.0262,2.66734 -1.2185,4.77784 -0.6334,6.2995 0.6065,1.52611 2.1122,2.77271 4.5204,3.864 1.7448,0.79061 3.4714,1.62114 5.1775,2.4906 l 2.3569,-4.61618 c -1.0652,-0.54314 -2.138,-1.07167 -3.2179,-1.58536 -1.0799,-0.51368 -1.7313,-1.00911 -1.9492,-1.50812 -0.2121,-0.51036 -0.1067,-1.2478 0.3241,-2.20834 l 3.9325,-8.77844 c 2.3968,1.07379 4.7636,2.21414 7.0965,3.41921 l 2.3781,-4.60498 c -2.4179,-1.2497 -4.871,-2.43209 -7.3552,-3.54536 l 2.6326,-5.87694 c -2.5158,-1.12766 -5.0621,-2.18722 -7.6359,-3.17707 z m -105.2837,5.67013 c -1.7264,0.65393 -3.0752,1.56776 -4.0309,2.70849 -0.9484,1.12372 -1.5822,2.57208 -1.8915,4.33132 l -1.4997,-3.41268 c -2.4089,1.0597 -4.7901,2.17906 -7.1406,3.35586 l 10.1328,20.28447 c 2.0224,-1.00472 4.0689,-1.96128 6.1365,-2.86748 l -4.2057,-9.57035 c -0.8972,-2.04164 -1.1215,-3.80718 -0.6314,-5.31244 0.496,-1.51819 1.6659,-2.66313 3.4939,-3.38096 0.622,-0.24427 1.2661,-0.41268 1.9296,-0.50445 0.672,-0.10938 1.3724,-0.13823 2.0984,-0.0855 -0.753,-2.05471 -1.5062,-4.1093 -2.2598,-6.1638 -0.5767,0.13744 -1.0153,0.25658 -1.3094,0.35181 -0.2998,0.0828 -0.5743,0.1716 -0.8227,0.26574 10e-5,-4e-5 2e-4,-8e-5 5e-4,-1.2e-4 z m 62.7259,-9.37116 c -1.6292,-0.12686 -3.1434,0.10181 -4.5135,0.67427 -1.3704,0.55918 -2.6639,1.49226 -3.857,2.79465 l 0.055,-3.31969 c -0.063,-0.001 -0.126,-0.003 -0.1882,-0.003 -2.5901,-0.0368 -5.1776,1e-4 -7.7596,0.10861 l 0.9386,22.63236 c 2.1577,-0.0865 4.3147,-0.11003 6.4682,-0.0689 0.051,7.3e-4 0.1041,10e-4 0.1565,0.003 l 0.1892,-11.1534 c 0.035,-2.06656 0.4985,-3.66939 1.4338,-4.80778 0.9326,-1.14825 2.2152,-1.69234 3.8127,-1.60249 0.6553,0.0369 1.2314,0.20923 1.7236,0.51387 0.4931,0.2912 0.8685,0.68524 1.1269,1.17918 0.1977,0.36766 0.3072,0.92426 0.3297,1.6708 0.036,0.75001 -0.028,2.09317 -0.1902,4.04496 l -0.6907,8.2876 -0.1865,2.23826 c 2.2185,0.18384 4.4339,0.43299 6.643,0.74578 l 1.931,-13.66367 c 0.429,-3.03494 0.057,-5.4412 -1.2103,-7.22361 -1.2458,-1.77084 -3.337,-2.8258 -6.2135,-3.04988 z m -52.6742,6.52176 4.0318,13.25508 c 0.8907,2.92855 2.2148,4.97385 3.8873,6.15564 1.6939,1.18461 3.6734,1.4602 6.0178,0.88858 1.3188,-0.32154 2.4541,-0.89561 3.4283,-1.73749 0.9832,-0.85723 1.8541,-2.0269 2.6331,-3.51563 l 0.5949,3.22284 c 2.1941,-0.40787 4.3951,-0.75548 6.6,-1.04062 l -2.8898,-22.46271 c -2.6193,0.3363 -5.2278,0.74433 -7.8228,1.22195 l 2.0307,11.00143 c 0.3741,2.02706 0.241,3.69411 -0.3612,4.9904 -0.604,1.30042 -1.6023,2.09319 -3.0197,2.40907 -0.5828,0.12988 -1.1293,0.12456 -1.6444,-0.0175 -0.5022,-0.14504 -0.9493,-0.41183 -1.3418,-0.80211 -0.3029,-0.3008 -0.5957,-0.82674 -0.8771,-1.57705 -0.2838,-0.76154 -0.6483,-2.0315 -1.0869,-3.79758 -0.1497,-0.60306 -0.4369,-1.80302 -0.8709,-3.60096 -0.4361,-1.81634 -0.8001,-3.30689 -1.0969,-4.50427 l -0.5458,-2.20067 c -2.574,0.63683 -5.1305,1.34146 -7.6666,2.11166 z m 73.0314,-2.86927 -5.0374,22.10265 c 2.1698,0.49601 4.3278,1.05246 6.4707,1.66772 l 6.2449,-21.79889 c -2.5405,-0.72709 -5.101,-1.38481 -7.6782,-1.97148 z" />
  </g>
</svg>
